<svg xmlns="http://www.w3.org/2000/svg" width="283" height="42" fill="none"><path fill="#19BBF0" d="M71.507 15.05h1.71l5.548 10.355 5.472-10.355h1.71l.703 14.44h-1.653l-.532-11.875-4.978 9.424h-1.52l-4.997-9.272-.513 11.723h-1.653zm23.777 0h1.88l5.872 14.44h-1.843l-1.71-4.37H92.87l-1.71 4.37h-1.748zm3.629 8.645-2.736-6.992-2.736 6.992zm8.871-7.182h-4.94V15.05h11.59v1.463h-4.94V29.49h-1.71zm18.381 11.324q-.627.93-1.767 1.444t-2.717.513q-.817 0-1.672-.152a13 13 0 0 1-1.634-.4 6 6 0 0 1-1.292-.607l.209-1.577a8.7 8.7 0 0 0 2.09.893q1.177.342 2.223.342 1.596 0 2.527-.684t.931-1.862q0-.684-.304-1.16-.285-.474-1.026-.873-.74-.4-2.071-.836-1.616-.532-2.565-1.102-.95-.57-1.349-1.311-.399-.742-.399-1.786 0-1.198.589-2.071.608-.894 1.672-1.368 1.064-.495 2.489-.494 1.045 0 2.128.285 1.083.265 1.938.76l-.285 1.5a7.2 7.2 0 0 0-1.843-.76 7.1 7.1 0 0 0-1.938-.284q-1.444 0-2.261.627-.817.608-.817 1.69 0 .647.266 1.103.266.436.931.817.684.36 1.881.779 1.748.588 2.774 1.197 1.026.608 1.463 1.368.456.76.456 1.786 0 1.273-.627 2.223m4.617-12.787h1.71v8.36q0 2.374 1.102 3.61 1.122 1.215 3.268 1.216 2.148 0 3.249-1.216 1.122-1.236 1.121-3.61v-8.36h1.71v8.512q0 2.945-1.634 4.598-1.614 1.634-4.503 1.634-2.85 0-4.446-1.634-1.577-1.653-1.577-4.598zm21.961 8.227v6.213h-1.71v-6.232l-5.434-8.208h1.919l4.427 6.897 4.446-6.897h1.805zm10.562-8.227h1.881l5.871 14.44h-1.843l-1.71-4.37h-6.612l-1.71 4.37h-1.748zm3.629 8.645-2.736-6.992-2.736 6.992zm7.574-8.645h1.71l5.548 10.355 5.472-10.355h1.71l.703 14.44h-1.653l-.532-11.875-4.978 9.424h-1.52l-4.997-9.272-.513 11.723h-1.653zm23.777 0h1.881l5.871 14.44h-1.843l-1.71-4.37h-6.612l-1.71 4.37h-1.748zm3.629 8.645-2.736-6.992-2.736 6.992zm11.404-4.351a7.1 7.1 0 0 1 1.596-2.394 7.4 7.4 0 0 1 2.451-1.558q1.425-.551 3.135-.551 1.12 0 2.337.323 1.215.322 2.09.874l-.304 1.539q-1.254-.627-2.261-.893a7.4 7.4 0 0 0-2.052-.285q-1.691 0-3.002.76a5.2 5.2 0 0 0-2.014 2.07q-.722 1.312-.722 3.06 0 1.785.722 3.097a5.1 5.1 0 0 0 2.014 2.033q1.311.722 3.078.722 1.044 0 2.204-.285a12.3 12.3 0 0 0 2.261-.798l.19 1.52a10.5 10.5 0 0 1-4.75 1.12q-1.654 0-3.04-.531a7.3 7.3 0 0 1-2.375-1.52 6.9 6.9 0 0 1-1.558-2.318q-.552-1.35-.551-2.945 0-1.654.551-3.04m15.421-4.294h1.71v12.977h7.087v1.463h-8.797zm11.923 0h1.71v14.44h-1.71zm6.171 0h1.653L257.302 27V15.05h1.577v14.44h-1.653l-8.816-11.951v11.95h-1.577zm16.506 0h1.71v14.44h-1.71zm5.773 4.294a7.1 7.1 0 0 1 1.596-2.394 7.4 7.4 0 0 1 2.451-1.558q1.425-.551 3.135-.551 1.12 0 2.337.323 1.215.322 2.09.874l-.304 1.539q-1.254-.627-2.261-.893a7.4 7.4 0 0 0-2.052-.285q-1.691 0-3.002.76a5.2 5.2 0 0 0-2.014 2.07q-.722 1.312-.722 3.06 0 1.785.722 3.097a5.1 5.1 0 0 0 2.014 2.033q1.311.722 3.078.722 1.044 0 2.204-.285a12.3 12.3 0 0 0 2.261-.798l.19 1.52a10.5 10.5 0 0 1-4.75 1.12q-1.653 0-3.04-.531a7.3 7.3 0 0 1-2.375-1.52 6.9 6.9 0 0 1-1.558-2.318q-.551-1.35-.551-2.945 0-1.654.551-3.04M29.332 21.079c0 4.992-4.062 9.058-9.059 9.058s-9.059-4.062-9.059-9.059 4.062-9.058 9.06-9.058V.8C9.095.8 0 9.897 0 21.075 0 32.25 9.096 41.347 20.273 41.347s20.273-9.096 20.273-20.273H29.332z"/><path fill="#19BBF0" d="M39.04.658C27.863.45 18.6 9.38 18.398 20.558l11.215.207c.092-4.937 4.135-8.893 9.054-8.893h.17c4.993.092 8.98 4.228 8.889 9.22s-4.228 8.985-9.22 8.889l-.208 11.214h.378c11.007 0 20.061-8.852 20.264-19.9C59.147 10.117 50.217.856 39.04.653z"/></svg>