<svg xmlns="http://www.w3.org/2000/svg" width="300" height="49" fill="none"><path fill="#fff" d="M283.109 21.07a7.4 7.4 0 0 1 1.596-2.499 7.3 7.3 0 0 1 2.451-1.626q1.425-.575 3.135-.575 1.122 0 2.337.337 1.217.338 2.09.912l-.304 1.606q-1.254-.655-2.261-.931a7 7 0 0 0-2.052-.298q-1.69 0-3.002.793a5.33 5.33 0 0 0-2.014 2.161q-.722 1.368-.722 3.192 0 1.864.722 3.232a5.23 5.23 0 0 0 2.014 2.121q1.311.754 3.078.754 1.046 0 2.204-.298a12 12 0 0 0 2.261-.832l.19 1.586a10.1 10.1 0 0 1-4.75 1.17q-1.653 0-3.04-.556a7.3 7.3 0 0 1-2.375-1.586 7.3 7.3 0 0 1-1.558-2.419q-.55-1.407-.551-3.073 0-1.725.551-3.172M277.337 16.589h1.71v15.067h-1.71zM260.831 16.589h1.653l8.816 12.47V16.59h1.577v15.067h-1.653l-8.816-12.47v12.47h-1.577zM254.659 16.589h1.71v15.067h-1.71zM242.736 16.589h1.71v13.54h7.087v1.527h-8.797zM227.315 21.07a7.4 7.4 0 0 1 1.596-2.499 7.3 7.3 0 0 1 2.451-1.626q1.425-.575 3.135-.575 1.122 0 2.337.337 1.217.338 2.09.912l-.304 1.606q-1.254-.655-2.261-.931a7 7 0 0 0-2.052-.298q-1.69 0-3.002.793a5.33 5.33 0 0 0-2.014 2.161q-.722 1.368-.722 3.192 0 1.864.722 3.232a5.23 5.23 0 0 0 2.014 2.121q1.311.754 3.078.754 1.046 0 2.204-.298a12 12 0 0 0 2.261-.832l.19 1.586a10.1 10.1 0 0 1-4.75 1.17q-1.653 0-3.04-.556a7.3 7.3 0 0 1-2.375-1.586 7.3 7.3 0 0 1-1.558-2.419q-.55-1.407-.551-3.073 0-1.725.551-3.172M212.282 16.589h1.881l5.871 15.067h-1.843l-1.71-4.56h-6.612l-1.71 4.56h-1.748zm3.629 9.02-2.736-7.296-2.736 7.296zM188.505 16.589h1.71l5.548 10.805 5.472-10.805h1.71l.703 15.067h-1.653l-.532-12.391-4.978 9.834h-1.52l-4.997-9.675-.513 12.232h-1.653zM177.303 16.589h1.881l5.871 15.067h-1.843l-1.71-4.56h-6.612l-1.71 4.56h-1.748zm3.629 9.02-2.736-7.296-2.736 7.296zM166.741 25.173v6.483h-1.71v-6.503l-5.434-8.564h1.919l4.427 7.196 4.446-7.196h1.805zM144.78 16.589h1.71v8.723q0 2.478 1.102 3.767 1.121 1.269 3.268 1.269t3.249-1.27q1.12-1.288 1.121-3.766v-8.724h1.71v8.883q0 3.073-1.634 4.797-1.616 1.706-4.503 1.706-2.85 0-4.446-1.706-1.577-1.725-1.577-4.797zM140.163 29.931q-.627.972-1.767 1.507-1.14.536-2.717.536a9 9 0 0 1-1.672-.16 12 12 0 0 1-1.634-.416 6 6 0 0 1-1.292-.634l.209-1.645a8.5 8.5 0 0 0 2.09.931q1.178.357 2.223.357 1.596 0 2.527-.713.93-.714.931-1.944 0-.713-.304-1.209-.285-.495-1.026-.912-.742-.416-2.071-.872-1.615-.556-2.565-1.15-.95-.596-1.349-1.368-.399-.774-.399-1.864 0-1.249.589-2.16a3.9 3.9 0 0 1 1.672-1.428q1.064-.516 2.489-.516 1.044 0 2.128.298 1.083.277 1.938.793l-.285 1.566a7 7 0 0 0-1.843-.793 6.8 6.8 0 0 0-1.938-.298q-1.445 0-2.261.655-.817.634-.817 1.764 0 .675.266 1.15.265.456.931.853.684.376 1.881.813 1.748.615 2.774 1.249 1.025.634 1.463 1.427.456.793.456 1.864 0 1.328-.627 2.32M121.781 18.115h-4.94V16.59h11.59v1.526h-4.94v13.541h-1.71zM109.282 16.589h1.881l5.871 15.067h-1.843l-1.71-4.56h-6.612l-1.71 4.56h-1.748zm3.629 9.02-2.736-7.296-2.736 7.296zM85.505 16.589h1.71l5.548 10.805 5.472-10.805h1.71l.703 15.067h-1.653l-.532-12.391-4.978 9.834h-1.52l-4.997-9.675-.513 12.232h-1.653zM38.157 24.592c0 5.889-4.592 10.686-10.24 10.686s-10.24-4.792-10.24-10.686 4.591-10.685 10.24-10.685V.674C15.282.674 5 11.403 5 24.587S15.282 48.5 27.917 48.5s22.916-10.729 22.916-23.913H38.157z"/><path fill="#fff" d="M49.13.505C36.497.261 26.028 10.795 25.799 23.978l12.676.245c.104-5.823 4.675-10.49 10.235-10.49h.193c5.643.109 10.151 4.987 10.047 10.876S54.17 35.207 48.527 35.093l-.234 13.228h.426c12.443 0 22.678-10.441 22.907-23.473C71.86 11.663 61.766.739 49.13.5z"/></svg>