<svg xmlns="http://www.w3.org/2000/svg" width="153" height="36" fill="none"><path fill="#19BBF0" d="M26.101 18.07c0 4.416-3.593 8.013-8.014 8.013s-8.014-3.593-8.014-8.014 3.594-8.014 8.014-8.014V.13C8.2.13.152 8.177.152 18.065S8.2 36 18.087 36s17.935-8.047 17.935-17.935h-9.92z"/><path fill="#19BBF0" d="M34.69.004C24.8-.179 16.608 7.721 16.429 17.61l9.92.183c.082-4.367 3.66-7.867 8.01-7.867h.151c4.417.081 7.945 3.74 7.864 8.156s-3.74 7.95-8.157 7.864l-.184 9.92h.335c9.737 0 17.747-7.83 17.926-17.604C52.478 8.373 44.578.179 34.69 0zM99.58 24.97a4.6 4.6 0 0 1 1.04-1.56 4.8 4.8 0 0 1 1.597-1.016q.93-.36 2.044-.359.73 0 1.523.21.793.212 1.363.57l-.198 1.004a8 8 0 0 0-1.474-.582 4.8 4.8 0 0 0-1.338-.186q-1.102 0-1.957.495a3.4 3.4 0 0 0-1.313 1.35q-.47.855-.47 1.994 0 1.165.47 2.019a3.33 3.33 0 0 0 1.313 1.325q.855.47 2.007.47.681 0 1.436-.185a8 8 0 0 0 1.474-.52l.124.99a6.8 6.8 0 0 1-3.096.731 5.5 5.5 0 0 1-1.982-.346 4.8 4.8 0 0 1-1.548-.991 4.5 4.5 0 0 1-1.016-1.511 5 5 0 0 1-.359-1.92q0-1.077.36-1.982M95.507 22.171h1.115v9.413h-1.115zM84.438 22.171h1.078l5.746 7.79v-7.79h1.028v9.413h-1.077l-5.747-7.79v7.79h-1.028zM80.106 22.171h1.114v9.413h-1.114zM72.024 22.171h1.115v8.46h4.62v.953h-5.735zM61.662 24.97a4.6 4.6 0 0 1 1.04-1.56 4.8 4.8 0 0 1 1.598-1.016q.929-.36 2.044-.359.73 0 1.523.21.793.212 1.362.57l-.198 1.004a8 8 0 0 0-1.474-.582 4.8 4.8 0 0 0-1.337-.186q-1.103 0-1.957.495-.843.483-1.313 1.35-.47.855-.47 1.994 0 1.165.47 2.019t1.313 1.325q.855.47 2.006.47.681 0 1.437-.185A8 8 0 0 0 69.18 30l.124.99a6.8 6.8 0 0 1-3.097.731 5.5 5.5 0 0 1-1.981-.346 4.8 4.8 0 0 1-1.548-.991 4.5 4.5 0 0 1-1.016-1.511 5 5 0 0 1-.36-1.92q0-1.077.36-1.982M147.374 4.478h1.226l3.827 9.413h-1.201l-1.115-2.849h-4.31l-1.114 2.849h-1.14zm2.366 5.635-1.784-4.557-1.783 4.557zM131.565 4.478h1.115l3.616 6.75 3.567-6.75h1.115l.458 9.413h-1.077l-.347-7.741-3.245 6.143h-.991l-3.257-6.044-.335 7.642h-1.077zM123.953 4.478h1.226l3.827 9.413h-1.201l-1.115-2.849h-4.31l-1.114 2.849h-1.14zm2.366 5.635-1.784-4.557-1.783 4.557zM116.759 9.84v4.05h-1.115V9.829l-3.542-5.35h1.251l2.885 4.496 2.899-4.496h1.176zM102.134 4.478h1.114v5.45q0 1.548.719 2.353.73.792 2.13.792t2.118-.792q.73-.805.73-2.353v-5.45h1.115v5.549q0 1.92-1.065 2.997-1.053 1.065-2.935 1.065-1.859 0-2.898-1.065-1.029-1.078-1.028-2.997zM98.814 12.813q-.408.608-1.151.941-.743.335-1.772.335-.532 0-1.09-.1a8 8 0 0 1-1.064-.26 4 4 0 0 1-.843-.396l.136-1.028q.595.36 1.363.582.768.224 1.449.223 1.041 0 1.647-.445.607-.447.607-1.214 0-.446-.198-.756-.186-.309-.669-.57t-1.35-.544q-1.053-.348-1.672-.719-.62-.37-.88-.854-.26-.483-.26-1.164 0-.78.385-1.35a2.53 2.53 0 0 1 1.09-.892q.693-.322 1.622-.322.68 0 1.387.186.706.172 1.263.495l-.185.978a4.7 4.7 0 0 0-1.202-.495 4.6 4.6 0 0 0-1.263-.186q-.941 0-1.474.409-.532.396-.532 1.102 0 .421.173.719.174.285.607.532.446.235 1.226.508 1.14.384 1.808.78t.954.892q.297.495.297 1.164 0 .83-.409 1.45M86.523 5.432h-3.22v-.954h7.555v.954h-3.22v8.459h-1.115zM78.065 4.478h1.226l3.827 9.413h-1.201l-1.115-2.849h-4.31l-1.115 2.849h-1.139zm2.366 5.635-1.784-4.557-1.783 4.557zM62.256 4.478h1.115l3.616 6.75 3.568-6.75h1.114l.458 9.413H71.05l-.347-7.741-3.245 6.143h-.99L63.21 6.25l-.334 7.642h-1.078z"/></svg>