<svg xmlns="http://www.w3.org/2000/svg" width="157" height="36" fill="none"><path fill="#fff" d="M29.862 18.07c0 4.416-3.593 8.013-8.014 8.013s-8.014-3.593-8.014-8.014 3.593-8.014 8.014-8.014V.13C11.96.13 3.913 8.177 3.913 18.065S11.96 36 21.848 36s17.935-8.047 17.935-17.935h-9.921z"/><path fill="#fff" d="M38.45.004C28.562-.179 20.37 7.721 20.19 17.61l9.92.183c.082-4.367 3.659-7.867 8.01-7.867h.151c4.416.081 7.945 3.74 7.863 8.156s-3.74 7.95-8.156 7.864l-.184 9.92h.334c9.738 0 17.748-7.83 17.927-17.604C56.238 8.373 48.338.179 38.45 0zM103.34 24.97a4.6 4.6 0 0 1 1.04-1.56 4.8 4.8 0 0 1 1.598-1.016 5.6 5.6 0 0 1 2.044-.36q.73 0 1.523.212.793.21 1.363.57l-.199 1.002a8 8 0 0 0-1.473-.582 4.8 4.8 0 0 0-1.338-.186q-1.102 0-1.957.496a3.4 3.4 0 0 0-1.313 1.35q-.47.855-.47 1.994 0 1.164.47 2.019a3.33 3.33 0 0 0 1.313 1.325q.855.47 2.006.47.682 0 1.437-.185a8 8 0 0 0 1.474-.52l.124.99a6.8 6.8 0 0 1-3.096.731 5.5 5.5 0 0 1-1.982-.347 4.8 4.8 0 0 1-1.548-.99 4.5 4.5 0 0 1-1.016-1.511 5 5 0 0 1-.359-1.92q0-1.078.359-1.982M99.268 22.171h1.114v9.413h-1.114zM88.199 22.171h1.078l5.746 7.79v-7.79h1.028v9.413h-1.077l-5.747-7.79v7.79h-1.028zM83.867 22.171h1.114v9.413h-1.114zM75.785 22.171h1.114v8.46h4.62v.953h-5.734zM65.423 24.97a4.6 4.6 0 0 1 1.04-1.56 4.8 4.8 0 0 1 1.598-1.016q.928-.36 2.043-.36.73 0 1.524.212.792.21 1.362.57l-.198 1.002a8 8 0 0 0-1.474-.582 4.8 4.8 0 0 0-1.338-.186q-1.102 0-1.956.496-.843.483-1.313 1.35-.47.855-.47 1.994 0 1.164.47 2.019.47.854 1.313 1.325.855.47 2.006.47.681 0 1.437-.185a8 8 0 0 0 1.474-.52l.123.99a6.8 6.8 0 0 1-3.096.731 5.5 5.5 0 0 1-1.982-.347 4.8 4.8 0 0 1-1.548-.99 4.5 4.5 0 0 1-1.015-1.511 5 5 0 0 1-.36-1.92q0-1.078.36-1.982M151.135 4.478h1.226l3.827 9.413h-1.201l-1.115-2.849h-4.31l-1.115 2.849h-1.139zm2.366 5.635-1.784-4.558-1.783 4.558zM135.326 4.478h1.115l3.616 6.75 3.567-6.75h1.115l.458 9.413h-1.078l-.346-7.741-3.245 6.143h-.991l-3.257-6.044-.335 7.642h-1.077zM127.714 4.478h1.226l3.827 9.413h-1.201l-1.115-2.849h-4.31l-1.114 2.849h-1.14zm2.366 5.635-1.784-4.558-1.783 4.558zM120.52 9.84v4.05h-1.115V9.829l-3.542-5.35h1.251l2.885 4.496 2.899-4.496h1.176zM105.894 4.478h1.115v5.45q0 1.548.718 2.353.731.792 2.131.792t2.117-.792q.731-.805.731-2.354v-5.45h1.115v5.55q0 1.92-1.065 2.997-1.053 1.065-2.936 1.065-1.857 0-2.898-1.065-1.028-1.078-1.028-2.997zM102.575 12.813q-.408.608-1.152.941-.743.335-1.77.335-.534 0-1.09-.1a8 8 0 0 1-1.066-.26 4 4 0 0 1-.842-.396l.136-1.028q.594.36 1.363.582.768.224 1.449.223 1.04 0 1.647-.445.607-.447.607-1.214 0-.446-.198-.756-.186-.309-.669-.57t-1.35-.544q-1.054-.347-1.672-.719-.62-.37-.88-.854-.26-.483-.26-1.164 0-.78.384-1.35a2.53 2.53 0 0 1 1.09-.892q.694-.322 1.623-.322.68 0 1.387.186.706.173 1.263.495l-.186.978a4.7 4.7 0 0 0-1.201-.495 4.6 4.6 0 0 0-1.263-.186q-.942 0-1.474.409-.533.396-.533 1.102 0 .42.174.719.173.285.607.532a9 9 0 0 0 1.226.508q1.139.384 1.808.78t.954.892q.297.495.297 1.164 0 .83-.409 1.45M90.284 5.432h-3.22v-.954h7.555v.954h-3.22v8.459h-1.115zM81.826 4.478h1.226l3.827 9.413h-1.201l-1.115-2.849h-4.31l-1.115 2.849H78zm2.366 5.635-1.784-4.558-1.783 4.558zM66.017 4.478h1.115l3.616 6.75 3.567-6.75h1.115l.458 9.413h-1.077l-.347-7.741-3.245 6.143h-.99L66.97 6.249l-.335 7.642H65.56z"/></svg>