<svg width="1241" height="332" viewBox="0 0 1241 332" fill="none" xmlns="http://www.w3.org/2000/svg">
<path opacity="0.3" d="M121.299 187.095C118.734 187.185 118.492 186.96 118.476 186.494C116.627 187.025 108.94 187.527 107.774 187.568C105.258 189.056 90.5677 189.569 82.4389 190.787C73.8437 192.021 41.8978 193.137 22.8991 197.302C22.4246 197.085 21.4756 196.651 20.9929 196.201C21.3941 194.32 20.494 195.285 22.8339 195.437C22.6385 189.84 24.2952 190.483 25.0651 185.787C26.1821 184.347 25.2982 185.778 24.3004 183.946C25.4419 183.205 25.6669 182.964 27.7574 182.658C25.111 180.415 27.2177 180.575 25.0947 179.949C25.5366 179.233 25.5448 179.466 26.6944 178.959C25.2383 177.376 27.1445 178.477 24.7801 177.625C24.2241 175.077 28.1149 172.84 29.7391 172.549C29.6658 170.451 29.5843 168.119 30.4601 166.454C31.3602 165.489 31.1433 165.963 33.4752 165.882C33.1605 163.558 32.5802 160.31 35.5464 158.339C35.0637 157.888 34.3479 157.447 33.3989 157.013C34.966 155.09 36.0912 153.884 36.468 151.302C38.3498 151.704 37.8834 151.72 39.3069 152.371C38.9923 150.047 38.7917 150.988 37.0943 149.179C37.7368 147.523 38.4934 149.13 37.9374 146.582C41.8852 145.977 41.6765 146.685 40.646 143.919C41.1368 144.602 41.8445 144.811 42.5604 145.253C42.9534 143.138 44.0868 142.165 45.1957 140.492C45.662 140.475 45.8952 140.467 46.1203 140.226C44.2304 139.591 45.1875 140.258 43.1052 140.798C42.815 139.174 42.8231 139.407 42.7906 138.474C43.6907 137.509 43.9483 138.201 44.8566 137.468L45.5562 137.444C44.599 136.777 42.2672 136.858 41.3263 136.658L40.6268 136.682L43.3354 134.02L43.5686 134.011C45.152 132.555 46.9686 131.091 48.3595 130.809C46.9279 129.925 46.4452 129.475 44.5716 129.307C43.9587 125.126 48.7904 123.09 50.664 123.258C50.7913 120.218 51.0163 119.977 51.385 117.162L52.3177 117.13C51.5937 116.455 50.886 116.246 50.3953 115.563C51.2954 114.597 51.5612 115.522 52.2363 114.798C53.5784 113.117 53.1202 113.366 52.3636 111.758C52.5235 109.652 53.9144 109.37 56.954 109.497C55.7392 108.139 55.7555 108.605 54.557 107.713C56.1404 106.257 56.9673 103.193 56.6527 100.869C58.2768 100.579 59.2014 100.313 60.1585 100.98C60.6249 100.964 60.8581 100.956 61.0831 100.715C59.3857 98.9061 60.576 99.5649 58.2198 98.9468C57.9703 98.4886 57.7127 97.7972 57.4714 97.5721C59.5863 97.9652 59.3613 98.2065 61.2593 99.0741L60.519 97.9326C60.0282 97.2494 60.7359 97.4581 59.5619 97.2657L59.0385 95.6497C60.9203 96.0509 60.462 96.3004 61.6524 96.9592C62.0292 94.3779 62.6636 92.488 62.8153 90.1481L62.1158 90.1725C61.4162 90.1969 61.8663 89.7143 60.9743 90.9128C60.2829 91.1704 60.0497 91.1785 59.3502 91.2029C60.4265 88.5972 60.6434 88.1227 63.9242 88.4751C64.1411 88.0006 64.133 87.7674 64.1249 87.5342C64.1249 87.5342 63.3276 84.7605 63.1433 86.1677L62.6932 86.6503C63.1025 85.0018 64.1707 82.1629 66.6543 79.7415C64.965 78.1662 65.2226 78.8576 64.0242 77.9656C66.0984 77.1928 64.4824 77.7162 66.1147 77.6592C67.0689 71.5557 69.9129 66.0867 70.1594 59.7745C65.6638 58.0637 59.5278 56.1768 55.4742 53.7503C46.7028 56.6247 51.9335 66.0141 50.0629 72.6165C47.9509 78.9939 44.1911 105.04 39.1996 109.183C40.1812 110.55 39.9235 109.858 41.3715 111.208C38.8798 113.397 38.8176 118.302 35.6101 120.048C36.3259 120.49 37.2668 120.69 37.7494 121.141C35.1925 121.463 35.8758 120.972 34.7832 123.112C34.3412 123.828 34.5581 123.353 35.0489 124.036C35.2903 124.261 35.3065 124.728 35.5642 125.419C34.6396 125.685 34.1732 125.701 33.4737 125.726C34.0215 128.041 34.0866 129.907 34.1192 130.839C33.6854 131.788 32.7119 130.655 32.3107 132.537C31.378 132.569 30.4534 132.835 29.2875 132.876C29.7783 133.559 30.5104 134.467 30.9931 134.917L28.4229 141.544L25.4159 142.35C26.1643 143.724 26.4382 144.882 26.9372 145.799C25.8038 146.772 24.4292 147.52 23.2796 148.027C23.2796 148.027 24.9851 150.069 24.3181 151.026C23.8762 151.742 22.2358 151.566 21.7857 152.049C21.5932 153.223 21.7939 152.282 22.5585 154.123C20.7419 155.587 20.7827 156.753 18.0252 158.017C18.9661 158.217 18.2584 158.008 19.6656 158.193C19.5057 160.3 20.4059 159.334 17.8653 160.123C19.525 167.536 13.2372 167.989 14.1729 174.727C13.0151 175.001 12.0824 175.034 11.1578 175.299C12.4784 179.689 10.9927 183.943 7.55201 185.698C8.72606 185.89 7.77705 185.456 9.20057 186.107C9.24128 187.273 9.22499 186.807 9.01624 187.514C9.25757 187.739 9.27385 188.206 9.27385 188.206C8.80749 188.222 8.09166 187.78 7.62529 187.796C7.08861 192.485 5.37787 196.98 5.54072 201.644C5.67915 205.608 9.29088 208.75 7.49871 210.914C8.21454 211.356 9.17984 212.256 9.67063 212.939C18.3228 213.338 26.5626 208.614 38.7288 209.357C40.8356 209.516 43.4953 205.455 46.8087 206.74C46.8087 206.74 49.8238 206.167 48.1752 205.758C47.942 205.766 47.4675 205.549 46.9849 205.099C50.0325 205.46 54.6962 205.297 56.5128 203.833C58.8609 204.218 57.4211 203.101 58.4271 205.167C63.5327 204.288 64.8747 202.607 67.174 201.593C69.4732 200.579 75.4005 203.173 79.999 201.145C82.7646 200.114 86.3734 196.486 88.7296 197.104C92.9106 196.492 92.2029 196.283 92.9839 198.59C105.429 193.953 112.368 192.077 121.895 190.81L123.929 188.871L123.397 187.022L121.299 187.095ZM59.898 93.5185C60.1474 93.9767 60.1637 94.4431 60.4132 94.9013L58.7809 94.9583C58.5396 94.7332 58.5233 94.2669 58.2738 93.8087C58.7321 93.5592 59.1984 93.5429 59.898 93.5185ZM56.0804 97.8542C56.1293 99.2533 56.1049 98.5537 54.6814 97.903L56.0804 97.8542ZM60.2074 102.379C60.1992 102.146 59.9579 101.921 59.9498 101.688C59.2502 101.712 59.0171 101.721 58.3257 101.978C59.2665 102.179 58.567 102.203 60.2074 102.379ZM58.5129 107.341C58.2553 106.65 58.0059 106.192 57.9896 105.725C57.29 105.75 56.8237 105.766 56.3654 106.016C56.3817 106.482 56.6312 106.94 56.8807 107.398L58.5129 107.341ZM48.8252 110.715C49.0665 110.94 49.0746 111.173 49.0828 111.406C48.8496 111.414 48.15 111.439 47.4586 111.696C47.4424 111.23 47.1929 110.772 46.9434 110.313C47.4098 110.297 48.5838 110.49 48.8252 110.715ZM41.5699 123.575C43.2184 123.985 42.2776 123.784 43.4679 124.443C43.2347 124.451 43.0097 124.692 42.7846 124.934C42.0851 124.958 41.6187 124.974 40.6942 125.24C40.686 125.007 40.4447 124.782 40.4447 124.782C41.353 124.05 41.3693 124.516 41.5699 123.575ZM45.9382 128.325C46.8872 128.759 46.1795 128.551 47.3617 128.976L47.9635 126.154C47.7303 126.162 46.3964 128.076 45.9382 128.325ZM38.2705 136.064C38.52 136.522 38.7776 137.214 38.7858 137.447L37.3867 137.496C37.3785 137.263 37.1291 136.804 36.8796 136.346C37.346 136.33 37.8042 136.08 38.2705 136.064ZM38.4823 142.127C36.8418 141.951 37.5414 141.926 36.6005 141.726C38.2409 141.902 37.3082 141.934 38.4823 142.127ZM31.7718 150.533C32.7534 151.899 32.0376 151.457 31.3543 151.948C31.5956 152.173 31.6038 152.406 31.8532 152.864L31.3869 152.881C31.1211 151.956 31.0967 151.257 30.8472 150.798C31.3055 150.549 31.5386 150.541 31.7718 150.533ZM22.7133 158.553C21.5392 158.361 22.0137 158.578 21.2897 157.903C22.7051 158.32 21.7642 158.119 22.7133 158.553ZM23.7792 169.022C23.5868 170.196 23.8037 169.722 22.6215 169.296C23.0797 169.046 23.3129 169.038 23.7792 169.022ZM21.2986 178.214C20.1246 178.021 20.5991 178.238 19.6501 177.804C21.0573 177.989 20.5828 177.772 21.2986 178.214ZM18.0992 180.193C18.5493 179.711 18.7825 179.702 18.533 179.244C20.1816 179.654 19.7071 179.437 20.4229 179.879L20.2223 180.82C20.2223 180.82 17.1909 180.925 18.0992 180.193ZM17.1991 181.159C17.2072 181.392 16.7408 181.408 16.9903 181.866L16.2419 180.492C17.6573 180.909 17.1746 180.459 17.8986 181.134L17.1991 181.159ZM24.9104 181.356C24.9104 181.356 22.3616 181.912 23.495 180.939C23.2455 180.48 23.4787 180.472 23.7037 180.231C24.6609 180.898 23.9451 180.456 24.9104 181.356ZM26.9764 180.35C28.4081 181.234 27.9499 181.484 28.3755 180.301L26.9764 180.35ZM21.9523 183.561C22.1855 183.553 22.66 183.769 22.9013 183.994C22.7414 186.101 23.3921 184.678 21.0928 185.692L20.3281 183.851C21.0196 183.593 21.4859 183.577 21.9523 183.561ZM17.3538 185.589C17.3619 185.822 17.1369 186.064 17.145 186.297C17.1287 185.83 16.8793 185.372 16.6298 184.914C17.812 185.34 17.0962 184.898 18.0533 185.565L17.3538 185.589ZM22.2832 186.351C23.6904 186.535 23.2159 186.318 23.9399 186.993L22.2832 186.351ZM15.3936 189.626C15.6186 189.385 15.3773 189.16 15.5942 188.686C16.5513 189.352 16.0687 188.902 17.0421 190.036C17.0421 190.036 14.0189 190.375 15.3936 189.626ZM86.4548 198.818C87.8783 199.469 90.202 199.154 92.5175 198.606C91.5604 197.939 90.8527 197.731 89.9199 197.763C88.7622 198.037 87.6126 198.544 86.4548 198.818ZM60.2274 203.236C61.6509 203.887 60.9351 203.445 61.876 203.645C60.71 203.686 61.1846 203.903 60.2274 203.236ZM201.772 131.522C200.614 131.796 199.022 133.019 197.889 133.992C199.73 133.227 201.804 132.455 204.12 131.907C204.361 132.132 206.652 130.885 208.743 130.578L208.951 129.87C205.936 130.443 203.154 131.007 201.772 131.522ZM195.823 134.998C196.289 134.982 196.973 134.491 197.889 133.992C196.273 134.516 194.657 135.039 193.282 135.787C194.44 135.513 195.365 135.248 195.823 134.998ZM178.972 140.489C178.031 140.289 176.182 140.82 174.991 140.161C168.761 142.247 159.94 143.722 152.11 146.797C150.019 147.104 148.355 146.228 146.448 145.127C142.877 143.151 141.164 140.876 135.326 140.846C135.44 144.111 135.812 148.067 134.486 150.214L129.825 157.147C126.981 162.617 125.663 164.997 124.717 171.334C124.604 188.147 129.341 190.083 135.906 197.558C137.771 197.493 139.636 197.428 141.494 197.13L142.885 196.848L142.619 195.923C142.795 194.283 146.301 194.394 148.608 193.613L149.3 193.355C150.417 191.915 152.749 191.834 152.692 190.202L152.675 189.735L153.367 189.478C154.983 188.954 154.234 187.58 155.376 186.839L156.067 186.582C156.574 187.731 157.266 187.474 157.532 188.398C158.841 185.784 159.21 182.97 161.975 181.94C162.667 181.682 163.309 180.025 164.025 180.467C164.475 179.984 164.242 179.993 164.226 179.526C164.209 179.06 161.869 178.908 161.845 178.209C161.821 177.509 162.037 177.035 162.938 176.069C164.337 176.02 163.605 175.112 164.987 174.597C166.37 174.082 166.739 171.267 166.739 171.267C167.14 169.385 167.533 167.271 167.693 165.164L170.958 165.05C171.175 164.575 171.625 164.093 172.083 163.843C172.218 161.037 170.087 160.177 167.183 157.244C166.7 156.794 166.234 156.81 165.985 156.352C166.218 156.344 162.373 153.209 160.393 150.01C164.71 146.591 168.208 146.468 173.739 144.408C173.939 143.467 178.354 142.846 178.321 141.913C183.635 140.327 188.218 137.832 193.282 135.787C190.959 136.102 188.169 136.433 186.328 137.197C184.028 138.212 181.046 139.717 178.972 140.489ZM143.854 151.054C143.195 152.245 142.295 153.21 142.319 153.91C142.335 154.376 143.268 154.343 144.442 154.536L144.708 155.46C144.266 156.176 144.291 156.876 142.9 157.158L142.883 156.691C142.834 155.292 141.202 155.349 140.478 154.674C140.896 153.259 141.305 151.61 143.854 151.054ZM160.993 160.495C160.407 163.784 158.897 167.339 156.905 170.443C156.454 170.926 156.045 172.574 155.603 173.29C154.711 174.489 153.787 174.755 152.886 175.72C152.219 176.677 151.36 178.808 150.452 179.54C146.393 183.651 141.786 185.446 138.088 186.509C136.721 187.491 133.69 187.597 130.65 187.469C131.195 183.014 132.215 178.776 133.942 174.747C132.518 174.096 134.359 173.332 134.801 172.616C135.018 172.141 134.069 171.708 134.286 171.233C134.503 170.759 135.411 170.027 135.628 169.552C133.497 168.693 132.315 168.267 132.073 168.042C131.341 167.134 137.203 167.863 137.42 167.388C137.862 166.672 137.13 165.764 138.521 165.482L139.188 164.525L138.624 161.743C138.849 161.502 140.98 162.361 141.197 161.887C142.306 160.214 143.431 159.007 144.556 157.8C146.639 157.261 145.489 157.768 146.622 156.794C155.201 155.094 155.508 157.184 160.993 160.495ZM197.933 215.47C197.908 214.771 198.117 214.063 198.093 213.364C198.084 213.13 197.369 212.688 197.111 211.997L197.344 211.989C198.51 211.948 199.169 210.758 198.911 210.066C198.911 210.066 198.895 209.6 198.204 209.858L198.179 209.158C198.179 209.158 197.583 205.443 197.767 204.036L198.52 198.874C198.987 198.857 199.22 198.849 199.204 198.383L199.196 198.15C199.895 198.125 200.337 197.409 200.313 196.71C200.288 196.01 200.039 195.552 200.014 194.853C200.006 194.619 199.99 194.153 200.448 193.904L200.407 192.738C204.843 186.046 206.101 175.262 209.297 166.512L209.24 164.88C208.267 163.747 207.559 163.538 207.326 163.546C206.626 163.571 205.959 164.528 205.027 164.56C204.327 164.585 203.853 164.368 202.413 163.251C202.453 164.417 202.245 165.124 201.079 165.165L200.846 165.173C201.971 163.967 201.165 160.96 203.264 160.887C203.972 161.095 204.454 161.545 205.154 161.521C205.154 161.521 205.387 161.513 205.829 160.797L206.529 160.773C206.553 161.472 206.794 161.697 207.261 161.681C208.193 161.648 209.327 160.675 209.286 159.509L209.237 158.11C211.078 157.345 212.003 157.079 211.753 156.621C211.496 155.93 210.788 155.721 209.815 154.588C210.747 154.555 210.956 153.847 211.165 153.14L211.132 152.207L215.33 152.06C215.289 150.894 215.264 150.195 214.54 149.52L214.516 148.82C215.392 147.155 217.216 145.924 217.135 143.593L217.07 141.727C219.144 140.954 220.402 130.171 223.086 126.809C228.449 126.621 225.225 127.901 234.029 125.96L235.428 125.911C235.445 126.377 235.919 126.594 236.385 126.578C242.915 126.35 248.405 123.123 253.388 118.746C253.896 119.896 255.319 120.547 256.252 120.514C257.651 120.465 259.259 119.709 259.918 118.518L260.617 118.494C260.617 118.494 265.649 115.517 266.373 116.192C265.858 114.809 262.819 114.682 260.254 114.771C258.155 114.845 255.598 115.167 254.682 115.666L253.516 115.707C251.884 115.764 251.724 117.871 250.333 118.153C250.509 116.512 249.319 115.854 248.386 115.886C247.453 115.919 246.295 116.193 245.379 116.692L245.363 116.225C245.363 116.225 245.354 115.992 245.121 116C244.655 116.016 239.517 115.962 238.882 117.852C237.909 116.719 235.401 118.441 235.328 116.342C234.411 116.841 233.945 116.857 233.245 116.882L229.281 117.02C228.582 117.045 227.649 117.077 226.491 117.351L227.535 113.813L228.411 112.148L228.386 111.448C228.256 107.717 229.487 109.542 230.249 104.613L230.159 102.048L230.392 102.04C231.092 102.015 231.084 101.782 231.067 101.316C231.043 100.616 230.785 99.9247 230.777 99.6915C230.728 98.2924 233.559 99.1274 233.597 93.5229C234.248 92.0994 234.923 91.3754 235.131 90.6677C235.34 89.96 234.849 89.2768 234.825 88.5772C234.817 88.344 234.801 87.8777 235.026 87.6364C234.941 78.5341 228.797 76.414 227.615 75.9884C225.123 78.1766 221.07 95.8281 220.87 96.7689C220.428 97.4848 218.635 99.6485 218.684 101.048C218.709 101.747 219.191 102.197 219.899 102.406L219.731 104.28C217.641 104.586 219.178 108.501 217.313 108.566L217.079 108.575C216.735 112.089 216.527 112.796 213.94 118.957C204.895 120.673 192.254 119.714 192.254 119.714C192.021 119.722 191.538 119.272 191.297 119.047C191.33 119.98 189.754 121.669 190.028 122.827C191.116 127.225 199.06 127.414 205.131 127.436L205.597 127.419C206.996 127.371 207.021 128.07 208.187 128.029C208.42 128.021 209.095 127.297 209.095 127.297L209.136 128.463L210.527 128.181C211.226 128.157 211.693 128.14 211.942 128.599C211.966 129.298 211.3 130.255 211.308 130.488C211.324 130.955 211.79 130.939 212.49 130.914L209.299 133.127C204.825 145.423 202.328 154.149 201.629 154.173C201.396 154.181 200.954 154.897 200.97 155.363C201.003 156.296 201.726 156.971 202.426 156.947C202.426 156.947 202.892 156.931 203.117 156.689L203.817 156.665C204.517 156.64 204.991 156.857 205.015 157.557L205.04 158.256C203.15 157.622 202.45 157.646 202.45 157.646C200.818 157.703 200.401 159.119 199.742 160.309L199.766 161.009C199.075 161.266 199.091 161.733 198.866 161.974C198.416 162.457 199.116 162.432 199.124 162.665C197.294 170.434 192.449 178.774 192.37 183.213C192.411 184.379 192.669 185.07 193.159 185.753C192.493 186.71 193.482 188.31 191.617 188.375L191.118 187.459C190.86 186.767 190.627 186.776 189.919 186.567L189.968 187.966C190.017 189.365 189.857 191.472 189.89 192.405C189.939 193.804 190.888 194.237 190.896 194.471C190.728 196.344 188.114 195.035 187.938 196.675C188.895 197.342 189.386 198.025 189.41 198.725C189.459 200.124 188.342 201.564 188.391 202.963C188.415 203.662 188.431 204.129 188.906 204.346C189.221 206.669 189.221 206.669 189.993 208.744C191.965 211.71 193.646 213.052 197.933 215.47ZM218.256 115.537C217.557 115.562 216.575 114.195 216.543 113.263C216.518 112.563 218.625 112.723 218.568 111.091L218.544 110.391C218.422 106.893 222.277 96.9533 222.879 94.1307C224.744 94.0655 223.291 99.2525 221.822 103.973L221.122 103.998C220.528 107.053 221.559 109.819 219.943 110.342C218.801 111.083 218.956 115.513 218.256 115.537ZM246.375 205.374C247.782 205.558 249.173 205.276 250.572 205.227C251.73 204.953 253.129 204.905 254.286 204.631C256.144 204.332 257.936 202.169 259.85 203.503C260.485 201.613 261.233 202.987 261.924 202.73C263.082 202.456 263.999 201.957 265.148 201.45C266.298 200.943 267.447 200.436 268.589 199.695C270.88 198.448 272.922 196.742 274.489 194.82C273.108 182.028 257.875 173.688 247.694 169.608C247.178 168.225 247.661 168.675 246.937 168C246.856 165.668 247.474 163.312 248.333 161.18C248.984 159.757 249.868 158.325 250.752 156.894C251.194 156.178 253.002 154.48 254.802 152.55L256.063 148.537L257.961 149.404C259.078 147.965 260.211 146.991 260.661 146.508C261.787 145.302 259.672 144.909 260.797 143.702C262.204 143.886 263.411 145.012 264.769 143.797C266.144 143.048 267.228 140.676 268.37 139.936C269.978 139.179 269.826 141.519 270.976 141.012C276.981 139.168 281.428 139.48 286.181 141.882C286.591 140.233 286.366 140.475 287.032 139.517C286.436 135.803 274.451 126.883 270.463 126.322C269.272 125.663 267.648 125.953 265.807 126.718C264.657 127.225 263.058 128.214 261.699 129.429C256.008 133.597 250.174 140.338 246.725 141.859L246.822 144.657L243.558 144.771C244.049 145.454 244.531 145.904 245.255 146.58C241.454 151.382 233.521 158.196 239.136 165.237C239.459 167.794 240.714 170.318 242.895 172.577C243.627 173.485 244.825 174.377 245.79 175.277L248.421 177.053C252.818 175.966 253.656 179.905 255.563 181.006C257.461 181.874 255.424 177.042 259.359 182.741C261.257 183.609 263.388 184.468 265.045 185.111C265.118 187.209 265.167 188.608 264.275 189.807C261.173 194.585 253.478 194.853 248.557 194.325C245.292 194.439 240.412 195.076 238.497 193.742C231.686 192.579 236.887 187.728 237.811 187.463C238.969 187.189 238.061 187.921 237.971 185.356C236.363 186.112 235.897 186.129 234.764 187.102C232.624 186.009 233.712 190.407 232.923 187.867C230.848 188.64 232.722 188.808 230.64 189.347C226.846 194.383 226.576 199.995 228.297 202.503C230.895 203.346 233.493 204.189 236.074 204.566C237.722 204.976 239.13 205.16 240.77 205.336C240.013 203.728 241.879 203.663 246.375 205.374ZM305.717 153.106C306.167 152.624 306.618 152.141 306.834 151.667C306.826 151.433 306.384 152.149 305.717 153.106ZM267.08 169.864C277.443 165.767 292.678 160.799 301.151 156.067C295.813 156.954 294.221 158.177 290.539 159.707C287.25 159.121 272.731 164.531 267.08 169.864ZM266.532 167.549C266.758 167.308 265.616 168.048 264.917 168.072C264.683 168.08 265.407 168.755 265.632 168.514L266.532 167.549ZM258.8 173.422C260.399 172.432 262.699 171.418 265.464 170.388C263.791 169.279 261.234 169.602 259.418 171.066C259.234 172.473 259.217 172.007 258.775 172.723L258.8 173.422ZM260.931 174.282C260.988 175.914 263.455 173.026 265.031 171.337C263.897 172.31 262.297 173.3 260.465 174.298L260.931 174.282ZM238.679 185.565C239.66 186.931 242.402 185.201 243.519 183.761C243.044 183.544 242.353 183.802 241.195 184.076C240.512 184.567 239.595 185.066 238.679 185.565ZM246.192 193.473C245.685 192.324 242.887 192.422 242.396 191.738C242.413 192.205 244.077 193.08 244.094 193.547L246.192 193.473ZM401.84 157.921C401.718 154.423 403.461 150.86 403.323 146.896C403.282 145.73 403.25 144.798 402.984 143.873C402.542 144.589 402.55 144.822 402.084 144.838C401.151 144.871 399.22 143.071 398.521 143.095L398.48 141.929C398.914 140.98 399.597 140.489 400.996 140.441L400.874 136.943C400.858 136.476 392.137 127.442 392.137 127.442C390.649 124.926 383.274 120.981 382.574 121.006C381.641 121.038 379.857 123.435 379.64 123.91L379.681 125.076L373.852 125.279C373.176 126.003 373.201 126.703 373.225 127.402C373.233 127.636 373.25 128.102 373.974 128.777C368.941 131.754 362.89 138.97 360.558 139.051C358.508 140.523 354.016 145.583 354.048 146.516C354.073 147.215 354.547 147.432 354.563 147.899C354.572 148.132 354.121 148.614 353.43 148.872L353.471 150.038C351.613 150.336 351.679 152.202 349.596 152.741L349.629 153.674C348.344 156.988 346.359 160.325 346.056 165.005L346.104 166.404C346.202 169.203 345.543 170.393 345.641 173.191L345.698 174.823C345.023 175.547 345.047 176.247 345.056 176.48C345.161 179.511 350.43 183.296 350.528 186.095C350.536 186.328 350.552 186.794 350.335 187.269C350.343 187.502 350.593 187.96 350.593 187.96L352.867 186.246L352.908 187.412C352.957 188.811 353.448 189.495 354.863 189.912L355.563 189.888C356.729 189.847 356.986 190.538 358.385 190.489L361.417 190.384C360.967 190.866 360.999 191.799 361.016 192.265C361.04 192.965 361.048 193.198 361.514 193.182L362.415 192.216L364.98 192.127C364.955 191.427 365.405 190.945 365.638 190.937C366.804 190.896 367.786 192.262 368.952 192.222C371.05 192.148 376.406 191.728 377.482 189.122L378.648 189.081C378.889 189.307 379.605 189.748 380.071 189.732C381.47 189.683 381.872 187.802 383.271 187.753L383.97 187.728L383.938 186.796C383.856 184.464 385.464 183.707 387.047 182.251L387.747 182.227C387.763 182.693 387.996 182.685 387.996 182.685C389.396 182.636 392.321 179.499 392.272 178.1C392.272 178.1 392.264 177.867 391.798 177.883L391.757 176.717C394.78 176.378 395.632 174.014 396.974 172.332L396.819 167.902L399.384 167.812C399.4 168.279 399.408 168.512 399.875 168.496C399.875 168.496 400.1 168.254 400.083 167.788L400.059 167.088C401.417 165.874 403.774 166.492 403.651 162.994L403.562 160.429L402.629 160.462C402.372 159.77 401.873 158.854 401.84 157.921ZM388.827 132.928L388.892 134.793L387.493 134.842L387.428 132.976L388.827 132.928ZM398.475 148.466C397.542 148.499 398.429 153.838 396.33 153.911L395.631 153.935L395.729 156.734C395.262 156.75 387.852 165.18 388.053 164.239C386.141 169.676 379.333 175.283 377.934 175.332C377.701 175.34 377.693 175.107 377.226 175.123C377.283 176.755 369.887 178.881 370.82 178.849L370.586 178.857C370.161 180.039 365.353 182.775 363.954 182.824C362.322 182.881 361.067 180.357 360.367 180.381C359.201 180.422 358.784 181.837 358.084 181.862C357.851 181.87 358.043 180.696 356.411 180.753C355.245 180.794 354.779 180.81 354.513 179.885L354.195 170.791C354.147 169.392 354.355 168.684 355.521 168.644L355.481 167.478C354.805 168.202 354.339 168.218 353.64 168.242C352.94 168.267 352.232 168.058 352.216 167.592C352.192 166.892 352.65 166.643 354.024 165.894L354.057 166.827L355.456 166.778L355.383 164.68C359.973 162.418 359.382 152.166 365.33 148.69C365.355 149.39 365.363 149.623 366.063 149.598C366.456 147.483 368.321 147.418 368.505 146.011L369.574 143.172C371.141 141.25 381.062 137.868 384.253 135.655L389.182 136.417L389.215 137.35C389.489 138.508 393.252 139.31 394.418 139.269L395.866 140.62C396.566 140.595 397.032 140.579 397.073 141.745C397.097 142.444 396.655 143.16 396.688 144.093L396.712 144.793C398.353 144.969 397.518 147.799 398.708 148.458L398.475 148.466ZM374.529 184.789C374.063 184.806 373.854 185.513 373.42 186.462L372.72 186.487C372.005 186.045 371.538 186.061 371.489 184.662L371.956 184.646C373.122 184.605 373.314 183.431 373.989 182.707C375.413 183.358 376.836 184.008 376.918 186.34C375.969 185.907 375.228 184.765 374.529 184.789ZM475.962 141.091C476.17 140.384 475.479 140.641 473.822 139.999C469.15 139.928 466.61 140.717 464.793 142.182L465.051 142.873L458.755 143.093C458.055 143.117 457.356 143.142 457.38 143.841C456.979 145.723 452.475 143.779 451.841 145.669C450.209 145.726 449.509 145.75 449.251 145.059C449.251 145.059 449.227 144.359 449.677 143.877C449.669 143.644 448.953 143.202 448.953 143.202C448.381 140.187 456.547 133.364 454.221 126.909L453.963 126.217C456.037 125.444 455.232 122.437 458.03 122.34C457.515 120.957 457.032 120.507 456.542 119.824C457.45 119.091 458.583 118.118 459.001 116.703C458.052 116.269 457.81 116.044 457.794 115.577C457.761 114.645 461.243 114.056 460.985 113.365C460.728 112.673 459.329 112.722 459.296 111.79C459.198 108.991 465.204 107.147 463.667 103.232L463.409 102.541C462.644 100.7 465.226 101.076 464.718 99.9269C464.461 99.2355 463.037 98.5848 463.005 97.652C462.988 97.1857 469.948 89.2382 469.948 89.2382C469.249 89.2627 469.241 89.0295 469.224 88.5631L469.2 87.8636C469.192 87.6304 468.959 87.6385 468.942 87.1722C468.91 86.2394 470.759 85.7079 470.501 85.0165C470.501 85.0165 470.035 85.0328 469.327 84.8241L468.796 82.9749C468.796 82.9749 474.381 75.7759 474.115 74.8513C473.416 74.8757 472.483 74.9083 472.225 74.2169C473.142 73.718 473.342 72.7771 474.275 72.7445L474.975 72.7201C476.509 69.8649 478.654 64.4203 480.205 62.0315L479.923 60.6405L481.322 60.5917L481.297 59.8921C481.248 58.4931 482.889 58.6692 483.331 57.9534L482.759 54.9383C485.676 51.5679 487.395 47.3055 490.304 43.7019C490.038 42.7773 485.228 38.7429 483.829 38.7918L481.964 38.8569C480.307 38.2144 479.767 36.132 478.601 36.1727C477.902 36.1972 477.693 36.9048 477.742 38.304L477.766 39.0035C477.799 39.9362 477.566 39.9444 477.59 40.6439L477.606 41.1103C476.473 42.0837 473.298 44.7627 472.398 45.728L470.766 45.785C470.316 46.2677 470.34 46.9672 470.348 47.2004C470.389 48.3663 471.579 49.0251 472.119 51.1075C471.967 53.4475 469.467 55.4024 467.908 57.5581L468.456 59.8736C468.738 61.2646 465.183 59.7545 466.222 62.7532C467.011 65.2938 463.096 66.8313 463.66 69.6132C463.66 69.6132 464.134 69.8301 464.384 70.2883C463.95 71.2374 461.241 73.9001 461.241 73.9001C462.378 79.697 456.784 86.6629 456.858 88.7615L456.882 89.4611C456.906 90.1606 456.231 90.8846 456.73 91.801C456.98 92.2592 457.004 92.9588 457.479 93.1757L456.313 93.2164C453.981 93.2978 453.206 104.531 452.94 103.607C452.498 104.323 452.04 104.572 451.357 105.063L450.657 105.087C450.923 106.012 451.414 106.695 451.905 107.378C450.788 108.818 450.644 111.391 450.492 113.731C451.314 117.205 447.117 117.351 447.231 120.616L445.831 120.664C445.84 120.898 446.33 121.581 446.58 122.039C447.578 123.872 444.82 125.136 444.861 126.302C444.869 126.535 445.335 126.518 445.818 126.969L446.518 126.944C445.837 134.205 441.8 132.245 442.364 135.027L442.928 137.809C443.186 138.5 438.01 144.051 436.643 145.032L436.177 145.049C435.502 145.773 435.477 145.073 435.334 147.646C436.508 147.839 437.698 148.498 437.747 149.897L437.772 150.596C437.321 151.079 436.622 151.103 436.156 151.12C433.357 151.217 430.743 149.908 429.811 149.94C429.344 149.957 429.353 150.19 429.353 150.19C429.586 150.182 430.068 150.632 430.077 150.865C430.093 151.331 429.868 151.573 429.635 151.581C429.626 151.348 428.911 150.906 428.211 150.93C427.978 150.938 427.761 151.413 427.769 151.646L426.37 151.695C423.596 152.492 418.258 153.379 416.482 156.009L416.739 156.7C411.376 156.888 412.157 159.195 409.592 159.285C408.893 159.309 408.483 160.958 408.516 161.89C408.565 163.289 411.33 162.259 412.496 162.218C413.952 163.802 415.126 163.994 416.558 164.878C416.816 165.569 417.049 165.561 417.515 165.545C418.215 165.521 418.906 165.263 418.89 164.797C418.914 165.496 418.93 165.962 419.172 166.187L420.105 166.155C419.888 166.629 419.896 166.863 419.896 166.863C420.427 168.712 425.712 172.963 429.25 174.007L429.95 173.982C431.582 173.925 432.564 175.292 432.854 176.916C432.388 176.932 430.108 185.183 430.116 185.416L430.14 186.116C430.165 186.816 429.948 187.29 429.972 187.99L429.997 188.689C429.064 188.722 428.839 188.963 428.855 189.429C428.88 190.129 429.837 190.796 429.861 191.495C429.869 191.729 429.886 192.195 429.661 192.436L428.728 192.469C427.353 193.217 427.161 194.391 427.218 196.024C427.234 196.49 427.749 197.873 427.982 197.865L428.449 197.848L428.739 199.473C426.006 201.436 422.704 207.154 423.742 210.153C424 210.844 424.298 212.702 424.998 212.677C425.28 214.068 425.312 215.001 424.171 215.741C423.463 215.532 422.747 215.091 422.514 215.099C422.048 215.115 422.064 215.581 422.088 216.281C422.097 216.514 422.346 216.972 423.054 217.181C422.861 218.355 421.576 221.668 420.741 224.499L420.508 224.507C418.323 228.786 417.287 232.558 418.575 236.015C418.833 236.706 418.873 237.872 419.597 238.547C419.622 239.247 416.479 242.858 416.859 247.048C417.559 247.023 418.05 247.706 418.757 247.915C419.007 248.373 415.2 259.713 415.482 261.104C416.304 264.577 418.386 264.037 418.411 264.737C418.452 265.903 416.57 265.501 417.085 266.884C417.343 267.576 423.343 272.269 425.209 272.204L425.908 272.179C428.362 275.596 433.435 273.784 435.141 275.826C436.982 275.061 442.947 272.051 441.843 267.187L443.009 267.146C442.711 265.289 443.828 263.849 445.227 263.8L445.926 263.776C445.362 260.994 446.262 260.029 446.222 258.863L446.213 258.63C451.848 252.83 454.692 247.361 454.683 247.127C454.659 246.428 453.035 246.718 453.002 245.785C453.42 244.37 454.681 240.357 455.846 240.316L456.546 240.292L456.256 238.668C457.099 236.07 459.775 232.475 458.487 229.018C458.229 228.326 458.205 227.627 457.714 226.944C457.69 226.244 457.915 226.003 458.373 225.753C459.097 226.428 460.488 226.146 459.956 224.297C459.691 223.373 457.576 222.979 457.568 222.746C457.551 222.28 461.298 222.616 460.268 219.85L460.01 219.159C459.528 218.709 459.52 218.476 459.27 218.017C458.53 216.876 460.379 216.344 460.572 215.17L460.547 214.471C460.539 214.238 459.823 213.796 459.815 213.563C459.791 212.863 459.999 212.155 460.441 211.44L459.137 207.516C458.871 206.592 459.53 205.401 459.481 204.002C459.473 203.769 458.725 202.394 458.025 202.419L457.792 202.427C458.467 201.703 458.611 199.13 458.063 196.814C457.499 194.032 456.002 191.283 455.02 189.917L454.088 189.949L453.814 188.791C453.532 187.4 452.808 186.725 451.826 185.359L450.996 181.652C450.698 179.795 444.979 176.493 444.28 176.517L443.58 176.541C443.29 174.917 441.777 171.702 439.139 169.693C440.996 169.394 442.322 167.247 442.257 165.381C442.249 165.148 441.525 164.473 441.042 164.023L441.009 163.09C440.969 161.924 440.961 161.691 440.703 161L440.445 160.308L441.145 160.284C443.01 160.219 445.822 153.817 446.53 154.026C446.497 153.093 447.196 153.069 446.939 152.377C447.872 152.345 448.129 153.036 448.829 153.012C448.273 150.463 451.562 151.048 452.928 150.067C453.869 150.267 455.493 149.977 456.659 149.937C458.058 149.888 460.067 147.249 461.466 147.201C464.94 146.379 470.43 143.152 470.43 143.152C471.596 143.111 471.854 143.803 472.553 143.778C474.652 143.705 475.528 142.04 475.962 141.091ZM478.421 137.97C477.512 138.702 477.545 139.635 478.036 140.318C478.502 140.302 478.735 140.294 479.226 140.977C482.425 138.998 484.999 139.141 487.949 136.704L486.991 136.037C483.494 136.159 480.495 137.197 478.421 137.97ZM437.544 164.145C436.378 164.186 435.253 165.392 435.495 165.617C435.977 166.068 436.468 166.751 436.959 167.434C437.216 168.125 436.758 168.375 436.525 168.383L436.05 168.166C435.825 168.408 435.142 168.898 434.443 168.923C433.043 168.972 432.978 167.106 430.18 167.204C428.548 167.261 426.007 168.05 424.375 168.107C422.976 168.156 421.786 167.497 421.504 166.106C421.213 164.482 421.414 163.541 423.271 163.243L426.978 162.413C429.743 161.382 431.769 159.211 435.733 159.072C436.666 159.04 438.691 156.868 439.873 157.293C440.139 158.218 438.821 160.599 438.862 161.764L438.87 161.998C438.911 163.164 439.177 164.088 437.777 164.137L437.544 164.145ZM441.927 182.669C443.399 184.719 445.088 186.294 447.461 187.379C447.252 188.087 447.51 188.778 447.767 189.469C448.798 192.235 450.978 194.494 451.509 196.343C451.775 197.267 451.799 197.967 451.358 198.683C452.315 199.35 452.331 199.816 452.589 200.507C452.339 200.049 452.478 204.013 451.594 205.445C452.76 205.404 452.784 206.104 453.725 206.304L454.424 206.28C454.658 206.272 455.14 206.722 455.148 206.955C455.189 208.121 453.98 220.303 452.139 221.068C453.771 221.011 454.07 222.868 454.609 224.951C449.479 225.13 454.216 227.066 451.765 230.42L451.774 230.653C451.79 231.119 451.814 231.819 451.356 232.068L451.614 232.76C452.129 234.143 450.488 233.966 450.754 234.891L451.31 237.44L450.611 237.464L450.635 238.164C450.643 238.397 446.609 243.207 446.85 243.432C446.85 243.432 446.866 243.898 447.1 243.89C447.365 244.815 445.267 244.888 445.291 245.588C445.307 246.054 446.739 246.938 446.788 248.337L446.812 249.037L444.481 249.118C441.354 253.196 439.402 257.467 436.027 261.087L434.628 261.135C431.363 261.249 429.039 261.564 426.957 262.104L426.651 260.013C426.377 258.855 425.653 258.18 424.953 258.205L424.929 257.505C425.628 257.481 427.228 256.491 426.979 256.033L425.964 253.734C425.715 253.275 426.414 253.251 426.406 253.018L426.39 252.551C426.382 252.318 426.366 251.852 426.824 251.602C425.875 251.169 425.4 250.952 425.126 249.794C427.691 249.704 425.471 246.28 426.837 245.298L426.113 244.623C427.255 243.883 427.447 242.709 427.165 241.318L427.865 241.293C427.816 239.894 428.434 237.538 428.385 236.139C428.369 235.673 428.361 235.439 427.878 234.989L427.338 232.907C427.572 232.899 428.03 232.649 428.013 232.183L428.005 231.95C428.705 231.925 428.689 231.459 429.38 231.202C429.13 230.743 428.407 230.068 428.398 229.835C428.333 227.97 429.675 226.288 429.401 225.131C429.136 224.206 426.734 228.959 426.652 226.627C426.628 225.928 426.121 224.778 426.82 224.754L429.152 224.672C429.287 221.866 429.19 219.068 430.749 216.912L430.025 216.237C429.759 215.313 431.375 214.789 431.351 214.09C431.342 213.856 430.385 213.19 430.369 212.723C430.361 212.49 430.345 212.024 430.803 211.774L430.312 211.091C432.411 211.018 432.129 209.627 432.055 207.528C432.039 207.062 431.315 206.387 431.057 205.695C428.747 199.706 436.225 199.911 434.582 192.965L434.034 190.649L434.734 190.625C434.926 189.451 436.575 189.86 437.016 189.144L436.461 186.596C435.888 183.581 436.772 182.149 437.615 179.551C439.714 179.478 440.696 180.845 441.669 181.978L441.927 182.669ZM449.957 232.117C449.024 232.15 449 231.45 448.292 231.241C448.325 232.174 447.625 232.199 447.416 232.906C448.582 232.866 448.84 233.557 449.539 233.533C449.282 232.841 449.973 232.584 449.957 232.117ZM591.92 125.602C589.716 122.644 585.364 118.36 582.566 118.458L581.175 118.74C579.775 118.789 580.394 116.432 578.995 116.481L578.295 116.506L578.336 117.672L577.636 117.696C577.547 115.131 574.58 117.102 574.041 115.02C569.144 115.191 565.947 123.941 558.719 124.193L558.301 125.609C558.309 125.842 558.366 127.474 558.133 127.482L557.667 127.499C554.636 127.604 539.897 146.796 539.295 149.619L538.129 149.66C537.88 149.201 537.872 148.968 537.405 148.985C536.706 149.009 536.603 152.748 535.928 153.472L535.952 154.172C534.103 154.703 534.184 157.035 532.793 157.317C533.284 158 533.542 158.692 533.566 159.391C533.672 162.423 532.154 165.744 532.26 168.775C532.333 170.874 532.623 172.498 534.071 173.848L534.218 178.046C534.95 178.954 535.023 181.053 536.905 181.454L536.97 183.319C538.418 184.67 543.638 187.055 542.938 187.08C543.404 187.064 543.388 186.597 543.621 186.589C546.566 190.689 550.145 192.898 554.342 192.752C555.508 192.711 556.433 192.445 557.55 191.005L558.25 190.981C559.19 191.182 559.89 191.157 561.056 191.116C567.585 190.888 573.702 185.539 578.308 183.743L579.008 183.719C579.737 177.857 592.101 170.888 591.881 164.592L591.181 164.617C590.249 164.649 585.764 169.942 582.733 170.048C582.033 170.072 581.559 169.855 580.843 169.414C580.867 170.113 580.65 170.588 579.951 170.612L579.468 170.162C579.509 171.328 578.818 171.585 578.118 171.61C577.185 171.642 575.618 173.565 574.919 173.589L574.452 173.606L574.485 174.538C575.184 174.514 575.667 174.964 575.675 175.197C575.7 175.897 574.108 177.12 572.009 177.193C571.077 177.225 570.61 177.242 570.369 177.017C571.052 176.526 571.768 176.968 571.253 175.585L567.096 176.898C566.462 178.787 563.647 178.419 563.68 179.351C563.721 180.517 564.212 181.201 564.22 181.434C564.22 181.434 564.236 181.9 563.77 181.917C563.52 181.458 563.52 181.458 562.821 181.483L560.722 181.556C560.022 181.58 559.323 181.605 558.808 180.222C559.965 179.948 562.08 180.341 562.257 178.701L561.332 178.967C556.476 180.303 553.604 178.303 549.873 178.433C549.174 178.457 548.458 178.015 547.759 178.04C547.775 178.506 547.317 178.756 547.059 178.064C547.059 178.064 546.585 177.847 546.568 177.381C544.597 174.415 541.365 175.461 541.3 173.596C541.283 173.13 541.742 172.88 541.725 172.414C541.717 172.181 541.226 171.497 541.21 171.031C541.129 168.699 540.155 167.566 542.631 164.911L544.656 162.739C545.29 160.849 547.123 159.852 547.026 157.053L546.326 157.078L546.302 156.378C546.253 154.979 547.137 153.548 547.088 152.148C547.072 151.682 547.047 150.983 546.798 150.524C546.822 151.224 546.372 151.707 545.673 151.731C545.439 151.739 545.423 151.273 544.957 151.289L545.128 156.186C543.52 156.942 542.853 157.9 540.987 157.965L540.288 157.989L540.231 156.357C540.239 156.59 540.955 157.032 541.421 157.016C542.82 156.967 544.412 155.744 544.379 154.811C544.355 154.112 544.105 153.653 543.631 153.437C543.455 155.077 542.072 155.592 540.206 155.657C541.557 154.209 543.422 154.144 543.373 152.745C543.357 152.279 542.858 151.362 542.6 150.671C543.324 151.346 543.558 151.338 544.024 151.322C545.423 151.273 545.55 148.233 547.633 147.694L547.73 150.492C550.295 150.402 550.447 148.062 552.53 147.523C552.223 145.432 550.767 143.849 550.734 142.916C550.734 142.916 551.369 141.026 552.768 140.977C554.167 140.928 553.557 143.518 554.964 143.702C555.873 142.97 556.331 142.721 556.306 142.021C556.282 141.321 554.392 140.687 554.368 139.987C554.351 139.521 554.351 139.521 554.809 139.272C555.533 139.947 556.233 139.922 556.933 139.898C559.731 139.8 561.208 135.313 563 133.149C563.033 134.082 563.733 134.057 564.007 135.215L564.706 135.191C566.089 134.675 565.799 133.051 567.431 132.994L568.13 132.97L568.114 132.503C568.057 130.871 570.88 131.473 572.238 130.258L572.938 130.234C575.503 130.144 578.8 130.963 579.451 129.539L579.41 128.374L580.576 128.333C581.975 128.284 582.175 127.343 583.574 127.294L584.74 127.254L584.773 128.186C584.814 129.352 585.513 129.328 586.446 129.295L590.643 129.149C591.318 128.425 592.46 127.684 592.411 126.285C592.411 126.285 592.395 125.819 591.904 125.136L591.92 125.602ZM548.528 153.266C549.87 151.584 552.418 151.028 552.57 148.688C550.97 149.678 548.896 150.451 548.528 153.266ZM564.317 184.232C564.309 183.999 564.293 183.532 563.802 182.849C564.968 182.809 564.542 183.991 565.033 184.674C566.432 184.625 566.625 183.451 568.024 183.402C568.122 186.2 566.056 187.206 563.724 187.288C563.024 187.312 561.85 187.12 561.601 186.662C561.777 185.021 564.391 186.331 564.317 184.232ZM669.223 193.176L669.922 193.151C666.093 190.484 662.924 186.625 661.812 181.528C658.438 171.84 663.395 159.994 664.631 155.281C665.024 153.166 663.134 152.532 663.543 150.883L666.501 148.679C664.788 146.404 665.791 141.7 666.65 139.568C669.012 133.649 672.772 127.681 674.418 121.32C675.036 118.964 672.414 117.421 672.807 115.306C667.78 111.747 663.406 113.534 658.718 112.997C658.485 113.005 658.493 113.238 658.268 113.479C659.266 115.312 658.783 114.862 660.215 115.746C659.678 120.434 650.105 127.072 646.954 130.451C646.054 131.416 646.851 134.19 645.71 134.93C644.359 136.378 641.803 136.701 640.694 138.374C639.794 139.339 640.333 141.421 639.441 142.62C638.75 142.877 638.058 143.135 637.375 143.626C635.391 146.964 632.931 150.085 630.955 153.656C626.221 158.49 616.52 168.168 614.4 174.312L613.001 174.361C613.304 169.681 614.917 162.387 617.376 159.266C615.912 157.449 617.585 158.558 615.687 157.691C616.837 157.184 615.912 157.449 617.786 157.617L620.323 150.058C621.457 149.084 620.315 149.825 619.342 148.691C620.025 148.201 620.258 148.192 621.882 147.902C621.576 145.812 622.075 146.728 621.334 145.587C621.334 145.587 620.77 142.805 621.752 144.171C622.226 144.388 622.46 144.38 622.701 144.605C623.061 141.558 622.248 138.317 624.965 135.888C623.5 134.071 623.983 134.521 622.543 133.404C624.319 130.774 627.342 130.435 627.678 126.688C627.421 125.997 627.895 126.213 626.721 126.021C626.464 125.33 626.447 124.863 626.431 124.397C628.088 125.039 627.621 125.056 628.82 125.948C629.213 123.833 629.213 123.833 630.58 122.851C629.622 122.184 629.622 122.184 627.982 122.008C628.367 119.66 628.183 121.067 630.523 121.219C629.766 119.611 629.79 120.311 628.817 119.177L629.516 119.153C629.934 117.737 629.75 119.145 631.173 119.795C630.601 116.78 630.65 118.179 629.145 115.197C632.119 113.459 633.019 112.493 635.527 110.772C635.503 110.072 635.487 109.606 635.237 109.148C634.787 109.63 634.57 110.105 634.128 110.82L632.729 110.869C633.233 105.249 637.067 101.379 637.829 96.4498C639.711 96.8511 639.011 96.8755 640.443 97.7593C640.41 96.8266 640.627 96.3521 640.828 95.4113C641.961 94.4378 640.353 95.1944 639.38 94.061C641.614 91.1814 649.91 68.012 648.671 65.9541C650.021 64.5062 652.578 64.1834 652.971 62.0685L651.875 57.4374C653.499 57.1472 654.874 56.3988 656.723 55.8673C660.083 51.7811 659.302 49.4737 659.028 48.3159C661.511 45.8946 661.921 44.246 664.396 41.5914C665.071 40.8674 664.732 37.8442 666.115 37.329C665.318 34.5552 665.575 35.2466 664.537 32.2479C664.295 32.0228 664.062 32.031 663.813 31.5727C662.172 31.3966 660.765 31.2122 659.117 30.8029C658.867 30.3447 658.601 29.4201 658.344 28.7287L653.398 27.5006C651.294 34.1111 648.282 41.4537 646.154 47.3647C644.787 48.3463 643.576 53.7583 642.909 54.7155C641.005 60.3851 640.862 62.9583 638.959 68.6279C637.825 69.6014 636.925 70.5667 636.033 71.7651C633.663 77.4511 634.583 83.7226 629.342 87.4076C630.822 89.6905 629.624 88.7985 631.497 88.9666C631.37 92.0061 630.83 89.9237 629.014 91.3879C630.446 92.2718 630.253 93.4459 629.819 94.3949C629.402 95.8103 629.353 94.4112 627.929 93.7605C627.593 97.5077 618.991 118.587 618.758 118.595C619.739 119.961 619.257 119.511 619.98 120.186L620.005 120.886L617.906 120.959L618.969 124.657L616.637 124.739C617.299 130.319 612.685 131.881 613.506 135.354L611.174 135.436C611.722 137.751 611.014 137.542 611.98 138.443C611.153 141.506 608.878 143.22 607.135 146.783C608.35 148.141 608.247 151.88 608.013 151.889L605.682 151.97C605.256 153.152 607.677 155.636 606.577 157.542C605.893 158.033 604.093 159.963 603.892 160.904L604.972 165.069L603.339 165.126C602.681 166.316 603.012 169.106 604.075 172.805L601.743 172.886C601.84 175.684 602.236 180.34 601.586 181.763C605.729 186.755 606.968 188.813 613.546 189.984C614.262 190.426 613.788 190.209 615.203 190.626C616.575 183.108 627.859 171.974 627.471 167.552C627.856 165.204 628.163 167.294 629.055 166.096C631.096 164.39 630.421 165.114 629.857 162.332C631.948 162.026 630.782 162.066 632.655 162.234C638.4 152.929 651.841 143.354 657.013 131.033L658.413 130.984L656.493 136.188L656.591 138.986L654.124 141.874L653.031 144.013L653.652 148.427L652.985 149.384L651.45 152.239L651.315 155.046L650.038 158.592L649.645 160.707L649.284 163.755L651.264 166.954L649.23 168.893L649.578 172.149L651.524 174.416L650.689 177.247L653.119 179.964L654.849 182.705L657.037 185.197L659.475 188.147L659.065 189.795L663.545 191.039L667.623 194.166L669.223 193.176ZM629.562 93.7035C628.813 92.3288 629.304 93.0121 628.572 92.1038C628.596 92.8033 628.604 93.0365 628.862 93.7279L629.562 93.7035ZM636.17 109.115C635.197 107.982 635.679 108.432 634.955 107.757C634.963 107.99 635.221 108.681 635.237 109.148L636.17 109.115ZM609.085 175.898C608.603 175.448 608.586 174.982 608.57 174.515L609.969 174.467C610.219 174.925 610.235 175.391 610.718 175.841L609.085 175.898ZM749.944 117.982L750.603 116.792C750.321 115.401 750.023 113.544 749.491 111.695C749.434 110.062 748.011 109.412 746.378 109.469L745.212 109.509L745.188 108.81C742.848 108.658 742.365 108.208 739.318 107.848C739.849 109.697 738.982 111.595 738.998 112.061L737.062 116.798C736.845 117.273 737.087 117.498 736.628 117.747L735.519 119.42L734.82 119.445C733.654 119.485 733.147 118.336 732.182 117.435L731.916 116.511C731.409 115.361 730.251 115.635 729.985 114.711L728.12 114.776C727.428 115.033 727.919 115.717 727.453 115.733L725.62 116.731C725.387 116.739 725.878 117.422 725.653 117.663C725.162 116.98 723.98 116.555 723.513 116.571L723.28 116.579L720.265 117.151L720.523 117.843C720.33 119.017 719.671 120.207 718.988 120.698L715.515 121.519C712.25 121.633 706.071 131.888 706.722 130.465C703.498 131.745 692.544 145.668 692.626 148C689.828 148.098 689.893 149.963 688.551 151.644C689.25 151.62 689.725 151.837 689.749 152.536C687.474 154.25 688.697 155.842 688.505 157.016C684.582 158.32 682.236 164.705 682.375 168.67C682.391 169.136 682.407 169.602 682.89 170.052C681.491 170.101 681.065 171.283 681.098 172.216C681.171 174.315 683.126 176.815 685.957 177.65L685.981 178.349C685.523 178.599 685.29 178.607 685.531 178.832C686.28 180.206 690.068 181.708 689.368 181.733L690.068 181.708L690.133 183.574C691.99 183.276 690.767 181.684 692.15 181.169C692.849 181.144 692.898 182.543 693.598 182.519L695.463 182.454C695.472 182.687 695.954 183.137 696.654 183.113C702.483 182.909 699.121 180.225 701.195 179.452C701.22 180.152 701.702 180.602 701.935 180.594C702.402 180.577 702.394 180.344 702.369 179.645L702.345 178.945L703.503 178.671C704.427 178.405 707.087 174.344 707.111 175.043C707.087 174.344 706.854 174.352 706.363 173.669C707.504 172.928 710.81 173.98 710.037 171.906L709.787 171.448L711.162 170.699C711.146 170.233 711.821 169.509 711.796 168.809L711.772 168.11L712.472 168.085L714.432 164.048L715.148 164.49C715.381 164.482 715.381 164.482 715.373 164.249C715.381 164.482 715.622 164.707 715.622 164.707C716.322 164.683 717.414 162.543 718.089 161.819L718.556 161.803C719.93 161.054 720.622 160.797 720.597 160.097C720.565 159.165 721.015 158.682 720.532 158.232C721.69 157.958 723.073 157.443 723.249 155.802L725.426 151.29C726.592 151.25 726.952 148.202 728.11 147.928L727.021 156.838C727.52 157.754 727.086 158.703 727.135 160.103C726.999 162.909 727.146 167.106 727.162 167.572C727.203 168.738 727.468 169.663 727.951 170.113C727.26 170.371 726.818 171.086 727.075 171.778C727.84 173.619 728.54 173.594 728.564 174.294C728.572 174.527 727.68 175.726 727.721 176.892C727.77 178.291 729.394 178 729.958 180.782C729.492 180.799 730.232 181.94 730.473 182.165C732.404 183.966 732.661 184.657 734.342 185.999L735.766 186.65C736.232 186.633 736.482 187.092 736.49 187.325C736.498 187.558 736.265 187.566 736.273 187.799C736.289 188.266 736.523 188.258 736.989 188.241L737.455 188.225C738.171 188.667 738.421 189.125 739.578 188.851L740.736 188.577C741.436 188.553 741.677 188.778 741.644 187.845L739.231 185.595C738.258 184.461 737.976 183.071 736.785 182.412L736.037 181.037C735.787 180.579 735.088 180.603 735.055 179.671C735.73 178.947 735.714 178.48 735.432 177.089C735.158 175.931 735.101 174.299 734.779 171.742L734.89 168.236C734.366 166.621 735.733 165.639 734.759 164.506C734.751 164.272 735.917 164.232 735.893 163.532L735.86 162.599C736.093 162.591 736.76 161.634 736.736 160.935C736.711 160.235 736.229 159.785 735.995 159.793C735.995 159.793 735.779 160.268 735.312 160.284C734.613 160.308 734.596 159.842 734.596 159.842C734.588 159.609 735.038 159.126 735.022 158.66L735.014 158.427C735.697 157.936 735.906 157.228 735.857 155.829L736.307 155.346C736.283 154.647 735.35 154.679 735.342 154.446C735.334 154.213 736.5 154.172 736.467 153.24L736.459 153.006C737.625 152.966 737.359 152.041 738.042 151.55L739.425 151.035C739.409 150.569 738.951 150.818 738.251 150.843L737.551 150.867C738.219 149.91 738.62 148.028 739.287 147.071C739.262 146.371 739.262 146.371 738.563 146.396C738.538 145.696 738.272 144.772 738.964 144.514L739.663 144.49L739.647 144.023C739.623 143.324 740.764 142.584 740.756 142.35C740.74 141.884 739.59 142.391 739.549 141.225C739.484 139.36 742.074 139.97 742.499 138.787L742.467 137.855C742.312 133.424 746.027 132.828 745.872 128.397C745.172 128.422 744.674 127.505 744.649 126.806L744.625 126.106L745.324 126.082C745.332 126.315 745.565 126.307 745.565 126.307C746.032 126.29 746.49 126.041 746.715 125.8L746.417 123.942C748.515 123.869 747.293 122.277 748.684 121.995L748.176 120.846L747.477 120.87C747.011 120.887 746.311 120.911 746.287 120.211C747.452 120.171 747.428 119.471 747.637 118.763L749.944 117.982ZM728.178 136.486C727.494 136.977 726.795 137.001 726.819 137.701C727.286 137.684 727.527 137.91 727.527 137.91C727.551 138.609 723.975 143.17 723.766 143.878L723.791 144.577C723.807 145.043 723.582 145.285 723.116 145.301C723.116 145.301 722.883 145.309 722.408 145.092C722.416 145.325 722.199 145.8 722.199 145.8L720.665 148.655L719.965 148.68C718.799 148.72 719.114 151.044 718.181 151.077L717.49 151.334L717.78 152.958L716.381 153.007C716.679 154.864 717.403 155.54 717.419 156.006C717.428 156.239 717.428 156.239 717.194 156.247C716.728 156.264 716.72 156.03 716.253 156.047C716.253 156.047 716.02 156.055 716.028 156.288C716.045 156.754 716.061 157.221 716.31 157.679C715.611 157.703 715.345 156.779 715.329 156.312C715.28 154.913 716.59 152.299 716.565 151.6L716.332 151.608C714.933 151.657 715.497 154.439 712.723 155.236L712.748 155.936C712.764 156.402 712.772 156.635 712.306 156.651C712.338 157.584 711.479 159.715 710.546 159.748C710.08 159.764 709.838 159.539 709.597 159.314L708.271 161.462C708.296 162.161 698.738 169.265 697.621 170.705C696.054 172.628 695.322 171.719 693.714 172.476C692.741 171.343 692.483 170.651 692.442 169.485C692.393 168.086 693.052 166.896 694.169 165.456L694.853 164.965C694.828 164.266 695.52 164.008 695.495 163.309C694.562 163.341 694.522 162.175 694.481 161.009L695.181 160.985C694.923 160.293 695.606 159.803 696.531 159.537C695.807 158.862 694.424 159.377 693.925 158.461C691.954 155.494 692.195 155.719 691.872 153.163C693.055 153.588 693.296 153.813 693.32 154.513C693.337 154.979 695.468 155.839 695.476 156.072C695.484 156.305 695.733 156.763 696.417 156.272C696.883 156.256 697.076 155.082 697.076 155.082L700.123 155.443C700.283 153.336 700.161 149.838 704.093 148.767L704.559 148.751C706.191 148.694 704.011 146.435 706.11 146.362C709.436 141.343 713.479 136.766 716.895 134.312L716.863 133.379L717.562 133.355C719.195 133.298 718.904 131.674 719.346 130.958L719.813 130.941C721.445 130.884 721.155 129.26 723.253 129.187L723.72 129.171C725.585 129.106 724.338 126.815 726.437 126.741L727.136 126.717L730.062 123.58L732.111 122.107C733.527 122.525 734.034 123.674 734.05 124.141C734.303 131.369 726.779 136.535 728.178 136.486ZM726.163 145.662C725.697 145.678 725.447 145.22 725.423 144.52C725.399 143.821 725.616 143.346 726.307 143.088C726.773 143.072 727.007 143.064 727.023 143.53C727.047 144.23 726.372 144.954 726.397 145.653L726.163 145.662ZM714.64 163.34C714.874 163.332 714.89 163.799 715.139 164.257C714.89 163.799 714.407 163.349 714.64 163.34ZM772.855 179.051C778.731 173.476 782.025 167.524 786.927 160.816C798.162 148.284 811.063 136.627 818.473 128.197C821.149 124.601 822.581 125.485 821.366 124.127L822.065 124.102C822.708 122.446 822.307 124.327 823.489 124.753C823.89 122.871 823.706 124.278 823.174 122.429C826.591 119.975 830.547 119.604 833.963 117.15C835.329 116.168 835.555 115.927 836.864 113.313C838.079 114.671 838.754 113.947 840.57 112.483C840.53 111.317 841.712 111.743 841.671 110.577C839.331 110.425 839.09 110.2 837.948 110.94C834.475 111.762 825.425 120.016 821.8 123.178C808.441 135.084 795.508 145.808 782.496 160.971C780.745 164.301 779.153 165.523 774.669 170.816C773.977 171.074 772.755 169.482 771.83 169.748C771.705 159.48 777.908 149.925 780.888 141.649C782.173 138.336 781.367 135.329 782.411 131.791C783.254 129.193 786.18 126.056 787.015 123.225C793.044 102.002 803.629 70.8154 811.388 52.334C815.382 46.3579 819.069 38.2913 820.489 32.1716C819.901 28.6902 822.184 27.2096 820.261 25.6425C816.633 22.0337 814.269 21.1824 811.962 21.9634C811.029 21.996 810.104 22.2617 809.405 22.2862C807.485 27.4895 805.631 34.5582 803.511 40.7024L800.61 44.5391C800.209 46.4209 802.323 46.8139 802.123 47.7548C801.033 56.6646 795.529 66.1954 793.258 74.6795C791.796 79.6333 789.299 88.3588 787.83 93.0794C785.919 98.5159 784.007 103.952 782.321 109.147C782.419 111.946 780.537 111.544 780.602 113.41L779.501 115.316C779.976 115.533 779.976 115.533 779.992 115.999C780.049 117.632 777.316 119.595 777.349 120.527L777.373 121.227C777.438 123.092 775.695 126.655 775.719 127.355L775.727 127.588C775.543 128.995 774.185 130.21 774.209 130.91L774.217 131.143C774.364 135.34 771.164 137.32 771.197 138.252L771.238 139.418C771.246 139.651 771.27 140.351 771.037 140.359C770.305 139.451 765.929 154.545 764.763 154.586C764.53 154.594 764.547 155.061 764.555 155.294L763.969 158.583C761.857 164.96 760.597 168.973 759.401 174.851C758.615 179.081 757.997 181.438 759.743 184.645C761.939 187.37 764.496 187.047 766.693 189.772C768.083 189.49 769.474 189.208 770.874 189.159C770.318 186.61 771.05 187.519 770.318 186.61C770.694 184.029 769.721 182.896 770.854 181.922C771.554 181.898 772.478 181.632 773.411 181.6L772.855 179.051ZM812.445 42.4915C814.581 36.8137 818.293 29.4467 818.694 27.565C820.56 27.4998 815.305 37.4889 813.836 42.2095L813.136 42.2339C812.903 42.2421 812.67 42.2502 812.445 42.4915ZM810.271 53.7738C809.571 53.7983 808.59 52.4318 808.557 51.499C808.533 50.7995 810.64 50.9594 810.583 49.3271L810.558 48.6276C810.526 47.6948 810.935 46.0463 811.794 43.9151C811.851 45.5473 813.115 48.3048 811.957 48.5787C810.816 49.319 810.97 53.7494 810.271 53.7738ZM791.384 74.5115L792.252 72.6135L793.528 69.0669L793.68 66.7269L798.034 57.7031L798.829 53.7065L800.138 51.0926L800.499 48.045L799.357 48.7852L797.446 54.2217L797.045 56.1034L796.193 58.4678L793.181 65.8105L791.647 68.6657L790.812 71.4964L789.969 74.094L790.042 76.1926L790.356 78.5163L791.384 74.5115ZM788.662 83.4782L789.722 80.4062L789.191 78.557L788.13 81.6291L787.537 84.6849L788.662 83.4782ZM785.441 91.5286L785.175 90.604L783.841 92.5183L784.864 95.0507L785.441 91.5286ZM779.65 106.206L781.467 104.741L783.009 102.119L783.828 98.8223L784.888 95.7503L784.164 95.0752L783.972 96.2492L782.621 97.6972L782.535 101.903L780.51 104.074L779.184 106.222L779.498 108.546L779.65 106.206ZM777.828 114.207L778.503 113.483L779.097 110.427L777.145 114.698L777.828 114.207ZM760.231 178.558L761.708 174.07L763.734 171.899L762.007 175.928L762.121 179.192L760.239 178.791L760.231 178.558ZM855.96 91.8676C855.838 88.3699 860.707 80.7289 860.674 79.7962C860.634 78.6303 858.92 76.3555 858.896 75.6559C858.871 74.9564 863.985 74.3109 863.879 71.2795L863.838 70.1136C866.924 64.8696 868.03 56.4262 869.646 55.9028C872.371 53.7065 870.076 48.1834 873.517 46.429C874.176 45.2386 875.317 44.4984 875.26 42.8661L875.195 41.0007C875.187 40.7675 875.171 40.3011 874.447 39.626C876.489 37.9204 879.325 32.2182 879.284 31.0523C879.276 30.8191 879.251 30.1196 878.994 29.4282L878.969 28.7286C878.904 26.8632 879.08 25.2228 879.031 23.8237C878.958 21.725 880.341 21.2098 880.292 19.8107C880.235 18.1785 880.162 16.0798 877.781 14.7622L877.065 14.3202C874.194 12.3193 873.961 12.3275 872.57 12.6095C871.87 12.6339 871.404 12.6502 871.412 12.8834C870.712 12.9078 870.479 12.916 870.495 13.3823L870.737 13.6074C870.037 13.6318 870.053 14.0982 870.053 14.0982C870.062 14.3313 867.73 14.4128 867.779 15.8118C867.787 16.045 866.67 17.4848 866.686 17.9512C866.694 18.1844 865.593 20.0905 865.827 20.0824C866.293 20.0661 866.526 20.058 866.968 19.3421C867.234 20.2667 867.258 20.9663 867.275 21.4327C867.397 24.9304 865.789 25.6869 865.813 26.3865C865.821 26.6196 865.846 27.3192 866.095 27.7774C864.463 27.8344 861.844 33.0621 860.825 37.3001C860.632 38.4741 860.914 39.8651 861.638 40.5402C862.964 38.3927 864.032 35.5538 864.875 32.9563L866.741 32.8911C866.974 32.883 868.14 32.8423 868.156 33.3086C868.181 34.0082 862.373 48.2189 861.256 49.6587C861.281 50.3583 861.056 50.5996 861.08 51.2991C861.096 51.7655 861.105 51.9987 861.362 52.6901C859.304 53.9293 856.525 61.2638 856.124 63.1455L856.157 64.0782C856.279 67.576 853.996 69.0565 854.11 72.321L854.142 73.2538C853.001 73.994 852.084 74.493 852.133 75.8921L852.399 76.8166C852.207 77.9907 848.961 85.3415 846.51 88.6956C845.16 90.1435 836.905 114.479 836.978 116.577L837.019 117.743C837.027 117.977 837.043 118.443 836.81 118.451C835.644 118.492 831.268 133.586 830.536 132.678C830.303 132.686 830.328 133.386 830.336 133.619L830.376 134.785C830.409 135.718 827.21 137.697 827.356 141.894L827.364 142.128C827.389 142.827 826.03 144.042 825.846 145.449L825.854 145.682C825.879 146.382 824.135 149.945 824.2 151.81L824.225 152.51C824.257 153.442 821.524 155.406 821.581 157.038C821.598 157.504 821.598 157.504 822.072 157.721L822.354 159.112C822.419 160.977 820.738 159.635 820.836 162.434L820.917 164.765C820.942 165.465 820.966 166.164 820.5 166.181C820.573 168.279 821.37 171.053 821.395 171.753C819.763 171.81 819.321 172.526 819.128 173.7L819.418 175.324C818.76 176.514 815.777 178.019 815.81 178.952L816.856 182.184C816.647 182.891 813.874 183.689 813.906 184.621C813.906 184.621 816.095 187.113 818.201 187.273C819.6 187.224 828.597 184.108 828.491 181.077L828.475 180.611C829.174 180.586 829.841 179.629 829.817 178.93L829.567 178.471C829.518 177.072 830.136 174.716 830.071 172.851C829.974 170.052 828.64 171.967 827.891 170.592C829.29 170.543 829.974 170.052 829.925 168.653L829.9 167.954C832.907 167.148 833.216 155.931 834.615 155.882C835.757 155.142 835.965 154.434 835.941 153.735L835.892 152.336C835.868 151.636 835.843 150.937 836.518 150.213C836.51 149.979 836.261 149.521 836.261 149.521L835.737 147.905C836.854 146.465 838.213 145.251 838.389 143.61C838.324 141.745 839.888 133.052 841.938 131.58C841.447 130.896 841.422 130.197 841.406 129.73C841.406 129.73 846.783 123.239 846.661 119.741L846.395 118.817C846.346 117.418 849.144 117.32 850.028 115.888C850.245 115.414 847.889 114.796 847.84 113.397C849.006 113.356 850.234 108.41 850.234 108.41C849.759 108.193 849.743 107.727 849.735 107.494C850.201 107.477 850.434 107.469 850.418 107.003L850.41 106.77C854.211 101.968 854.339 98.9282 855.96 91.8676ZM860.039 41.53C859.339 41.5544 858.848 40.8711 858.14 40.6624C858.173 41.5951 857.94 41.6032 857.498 42.3191C858.664 42.2783 858.921 42.9697 859.621 42.9453L859.613 42.7121C859.597 42.2458 860.063 42.2295 860.039 41.53ZM852.781 67.6981C853.383 64.8755 857.238 54.9353 857.116 51.4376L857.092 50.738C857.035 49.1058 859.141 49.2657 859.117 48.5661C859.084 47.6334 858.103 46.2668 857.403 46.2913C856.704 46.3157 856.858 50.7462 855.717 51.4864C854.101 52.0098 857.569 57.7253 854.538 57.8312L853.838 57.8556C852.369 62.5763 850.916 67.7633 852.781 67.6981ZM928.514 150.502C917.983 156.473 922.27 158.891 915.54 160.06C909.993 161.655 903.876 167.005 897.396 168.632C894.598 168.729 892.049 169.285 890.465 170.742L874.609 171.295C871.087 170.718 870.016 166.786 869.91 163.755C869.706 157.925 871.851 152.481 871.672 147.351C871.623 145.952 871.341 144.561 871.292 143.162C871.243 141.763 873.382 142.855 873.317 140.99C873.309 140.757 872.818 140.073 872.802 139.607C872.778 138.907 873.244 138.891 873.477 138.883C876.275 138.785 880.546 140.737 884.06 141.082C883.835 141.323 883.835 141.323 883.851 141.789C883.876 142.489 884.817 142.689 886.216 142.641C890.413 142.494 888.217 139.769 890.782 139.679C891.731 140.113 892.221 140.797 893.62 140.748L895.02 140.699C898.051 140.593 908.178 129.733 908.178 129.733C908.153 129.034 907.679 128.817 907.654 128.117L908.354 128.093C910.219 128.028 910.903 127.537 910.87 126.604C910.854 126.138 910.355 125.221 910.33 124.522C910.756 123.34 911.681 123.074 911.607 120.975C912.074 120.959 912.323 121.417 912.789 121.401C912.789 121.401 913.023 121.393 913.006 120.926C912.299 120.718 912.041 120.026 911.55 119.343C912.7 118.836 912.925 118.595 912.9 117.895C912.811 115.33 909.313 115.452 909.264 114.053C909.215 112.654 911.314 112.581 911.257 110.949C911.127 107.218 900.262 103.628 898.63 103.685C895.132 103.807 891.675 105.095 888.926 106.592L888.95 107.292C887.142 108.989 884.851 110.236 882.085 111.267L881.385 111.291C879.52 111.356 876.779 113.086 875.936 115.684L875.551 118.032L874.152 118.081C873.452 118.105 872.56 119.304 872.568 119.537C872.568 119.537 872.584 120.003 872.818 119.995C872.191 122.118 865.456 129.824 865.448 129.591C865.481 130.524 866.904 131.175 866.929 131.874C866.745 133.281 865.579 133.322 865.386 134.496L864.977 136.145C864.06 136.644 863.635 137.826 862.718 138.325C862.878 136.218 864.895 133.813 864.847 132.414C864.83 131.947 864.589 131.722 863.873 131.28C862.122 134.61 860.755 135.592 860.853 138.39C860.877 139.089 860.902 139.789 861.401 140.705C861.474 142.804 858.234 143.618 858.405 148.514C858.478 150.613 858.993 151.996 859.693 151.971C859.926 151.963 860.376 151.481 861.043 150.524C860.577 150.54 860.344 150.548 860.319 149.848C860.295 149.149 861.927 149.092 861.854 146.993C861.805 145.594 861.539 144.67 861.056 144.219C861.523 144.203 861.772 144.661 861.772 144.661C864.337 144.572 863.033 140.648 865.132 140.575C865.598 140.559 865.622 141.258 865.639 141.725C865.712 143.823 863.67 145.529 863.719 146.928C863.744 147.628 863.76 148.094 864.468 148.303L864.492 149.002L863.326 149.043C863.448 152.541 862.122 154.688 859.815 155.469C860.032 154.995 860.49 154.745 860.466 154.046C860.449 153.579 859.975 153.362 859.026 152.929C858.608 154.344 857.001 155.101 857.074 157.199C860.105 157.093 858.562 159.715 862.76 159.569L863.692 159.536L863.541 161.876L862.375 161.917C862.158 162.391 862.166 162.625 862.199 163.557C862.427 170.086 872.448 176.273 872.456 176.507C873.156 176.482 873.389 176.474 873.365 175.775C874.845 178.057 881.263 181.335 886.16 181.164C887.326 181.124 888.251 180.858 888.926 180.134L891.491 180.044C894.506 179.472 894.866 176.424 898.364 176.302L899.996 176.245C900.422 175.063 902.648 171.95 903.806 171.676L904.738 171.644C909.635 171.473 906.433 166.682 910.164 166.552C910.863 166.527 910.896 167.46 912.062 167.419C913.694 167.362 915.486 165.198 915.437 163.799L915.405 162.867C917.43 160.695 922.896 156.768 924.295 156.719L924.995 156.695C927.045 155.223 929.078 153.284 930.404 151.136C930.396 150.903 929.913 150.453 929.214 150.478L928.514 150.502ZM879.06 124.914C879.276 124.439 879.035 124.214 878.569 124.23C878.336 124.238 878.102 124.247 877.877 124.488C879.436 122.332 881.261 121.101 883.078 119.637C884.452 118.889 885.111 117.698 886.743 117.641L888.143 117.592C888.56 116.177 890.209 116.586 890.884 115.862C890.835 114.463 889.211 114.753 889.162 113.354C889.129 112.422 890.504 111.673 891.203 111.649C891.437 111.641 891.911 111.858 891.927 112.324L894.259 112.242C894.943 111.752 896.1 111.478 897.033 111.445C899.132 111.372 900.588 112.955 902.036 114.306L901.45 117.595C900.382 120.433 900.61 126.963 883.035 131.779C881.419 132.302 875.806 132.031 876.248 131.315L879.06 124.914ZM880.676 124.39C880.676 124.39 881.142 124.374 881.833 124.116C882.46 121.993 884.092 121.936 884.734 120.279C884.718 119.813 884.485 119.821 884.019 119.838C882.619 119.886 880.385 122.766 880.434 124.165C880.442 124.398 880.442 124.398 880.676 124.39ZM996.144 128.296C996.095 126.897 995.314 124.589 995.314 124.589L993.302 120.457L991.67 120.514C990.97 120.539 990.271 120.563 989.78 119.88C990.472 119.622 990.472 119.622 990.463 119.389C990.431 118.456 984.102 117.743 983.403 117.768C982.711 118.025 981.57 118.766 981.128 119.481L981.619 120.165C980.22 120.214 980.244 120.913 979.311 120.946L977.446 121.011C976.047 121.06 974.198 121.591 974.247 122.99L973.78 123.007C973.588 124.181 970.049 123.137 970.106 124.769L970.131 125.469C969.239 126.667 961.956 132.058 962.062 135.089L961.829 135.097C960.896 135.13 960.912 135.596 960.945 136.529L960.986 137.695C961.01 138.394 960.793 138.869 960.094 138.893L957.995 138.967C956.596 139.015 956.146 139.498 956.178 140.431C956.195 140.897 956.195 140.897 956.452 141.589C954.354 141.662 954.443 144.227 953.51 144.259L952.811 144.284L949.243 149.078C948.383 151.209 942.389 160.057 939.832 160.379L946.114 146.385C946.024 143.82 951.168 137.337 951.037 133.606C951.021 133.14 950.555 133.156 950.555 133.156C950.997 132.44 952.805 130.743 952.821 131.209L952.805 130.743C954.622 129.279 956.05 123.392 956.435 121.044C956.644 120.336 956.853 119.629 956.812 118.463C956.337 118.246 956.297 117.08 956.28 116.614C956.166 113.349 957.018 110.985 951.79 108.366C951.009 106.058 946.055 104.597 939.993 104.809C940.001 105.042 939.776 105.283 939.784 105.516L940.95 105.476C944.214 105.362 944.385 110.259 944.556 115.155C944.09 115.172 943.401 122.2 942.485 122.699C942.276 123.406 942.301 124.106 942.325 124.805C942.341 125.272 942.599 125.963 943.781 126.389C942.463 128.77 939.468 136.579 939.468 136.579L939.492 137.278C939.525 138.211 939.066 138.46 939.107 139.626C938.489 141.982 937.372 143.422 937.453 145.754L937.478 146.454C936.103 147.202 935.211 148.4 934.561 149.824L934.601 150.99C934.658 152.622 933.267 152.904 932.608 154.095L932.625 154.561C932.804 159.691 926.896 164.333 927.197 172.961L927.205 173.194C926.747 173.443 926.522 173.685 926.538 174.151C926.587 175.55 928.751 177.342 929.933 177.768L929.966 178.701C933.23 178.587 932.433 175.813 934.258 174.582L936.823 174.492C937.289 174.476 935.665 174.766 935.681 175.233L935.714 176.165C935.73 176.632 935.98 177.09 936.205 176.849C938.374 172.104 943.276 165.395 946.61 160.61L947.543 160.577C947.961 159.162 948.394 158.213 949.785 157.931L951.184 157.882L950.886 156.024L951.819 155.992C953.828 153.354 957.035 151.607 958.096 148.535L959.004 147.803C962.862 144.633 967.539 138.166 971.357 133.831C971.774 132.415 979.74 126.534 980.89 126.027L981.589 126.002C981.565 125.303 981.565 125.303 982.264 125.278L982.902 130.159C980.619 131.64 982.72 138.337 980.269 141.691L980.4 145.422C980.481 147.753 977.965 149.242 978.038 151.341C978.087 152.74 978.602 154.123 979.326 154.798C977.976 156.246 979.918 165.05 979.926 165.283C980.281 168.772 985.561 179.561 986.743 179.987L987.442 179.962C986.629 176.722 986.515 173.458 986.466 172.058L986.442 171.359C986.425 170.893 986.409 170.426 987.109 170.402C987.1 170.169 989.25 158.187 989.717 158.17C989.942 157.929 991.758 156.465 991.742 155.998C991.742 155.998 990.31 155.115 990.286 154.415C990.278 154.182 990.269 153.949 990.72 153.466L990.687 152.533C992.552 152.468 993.114 148.48 993.724 145.89L993.658 144.025C993.634 143.325 996.052 139.038 995.955 136.24C995.938 135.774 995.914 135.074 995.656 134.383L995.833 132.742C995.808 132.043 995.559 131.585 995.019 129.502L995.719 129.478C995.719 129.478 996.16 128.762 996.144 128.296ZM1077.28 192C1075.91 192.749 1074.48 192.098 1072.85 192.155C1072.15 192.179 1071.43 191.737 1070.74 191.762L1070.71 191.062C1070.65 189.43 1069.25 189.479 1069.21 188.08C1069.44 188.072 1072.07 183.077 1072.04 182.378C1072.03 181.911 1071.79 181.919 1071.08 181.711L1070.38 181.735C1071.28 180.537 1072.64 179.555 1072.59 178.156C1072.58 177.69 1072.32 176.998 1071.61 176.789C1072.55 176.757 1073.23 176.266 1073.92 176.008C1073.85 173.91 1073.1 172.535 1073.05 171.136C1073.03 170.436 1073.47 169.721 1074.38 168.989L1074.31 167.123C1074.24 165.024 1073.69 162.709 1073.6 160.144C1073.32 152.216 1071.37 143.179 1069.57 138.339C1066.73 130.5 1064.43 124.744 1063.56 119.872C1063.48 117.773 1064.64 117.499 1064.62 117.033C1064.6 116.333 1063.41 115.674 1063.38 114.975C1063.38 114.742 1063.83 114.259 1064.76 114.226C1064.78 114.693 1065.25 114.91 1065.25 114.91C1066.65 114.861 1068.58 109.891 1069.23 108.467C1068.76 108.483 1068.53 108.492 1068.5 107.792L1068.48 107.092C1070.53 105.62 1073.86 100.601 1073.81 99.202L1073.8 98.9689L1073.1 98.9933C1072.4 99.0177 1072.17 99.259 1071.47 99.2835C1071.01 99.2998 1070.78 99.5411 1070.34 100.257L1068.77 102.179C1067.88 103.378 1067.17 102.936 1065.11 104.175L1064.41 104.2C1064.34 102.334 1062.64 100.292 1058.44 100.439C1057.74 100.463 1053.7 98.5033 1053.74 99.6692L1053.77 100.369C1053.08 100.626 1052.38 100.651 1052.42 101.817L1052.43 102.05L1049.63 102.148C1047.3 102.229 1048.79 104.978 1048.11 105.469C1047.64 105.485 1046.93 105.043 1046.7 105.052C1042.73 105.19 1038.12 113.522 1034 116.001L1034.03 116.7L1033.33 116.725C1032.65 117.449 1032.44 117.923 1032.46 118.623C1032.49 119.322 1032.74 120.014 1032.75 120.247C1032.77 120.713 1032.77 120.713 1032.53 120.721C1032.07 120.738 1031.37 120.762 1030.41 120.095C1029.09 122.243 1028.64 122.958 1028.48 125.065L1028.53 126.464L1027.13 126.513C1025.76 127.262 1022.02 133.929 1022.01 133.696L1018.98 133.802C1017.27 138.297 1012.39 145.472 1011 145.987L1011.03 146.687C1009.68 148.135 1008.29 148.417 1008.38 150.982L1008.4 151.681L1007.7 151.706C1006.58 153.146 1005.05 156.001 1005.12 158.099C1005.13 158.332 1005.16 159.032 1005.4 159.49L1006.1 159.466L1006.19 161.798C1006.21 162.497 1006.23 163.197 1005.54 163.221L1004.84 163.246C1003.46 163.994 1004.97 167.21 1003.58 167.492C1003.33 166.8 1003.53 165.859 1002.59 165.892C1002.64 167.291 1003.37 167.966 1003.37 168.199C1003.4 168.899 1002.72 169.39 1002.75 170.322C1002.96 176.385 1012.93 181.173 1012.95 181.64C1012.96 181.873 1013.91 182.307 1014.61 182.282C1016 182.233 1016.69 181.742 1016.66 181.043L1017.36 181.019C1017.38 181.485 1017.85 181.702 1017.85 181.702L1018.09 181.694C1018.58 182.377 1018.83 182.835 1019.53 182.811C1020.93 182.762 1022.74 181.298 1022.7 180.132L1024.33 180.075C1026.15 178.61 1028.79 174.082 1028.7 171.284L1028.65 169.885C1028.61 168.719 1029.28 167.995 1030.68 167.946L1030.66 167.247C1033.43 166.449 1034.03 163.627 1035.59 161.471C1034.89 161.496 1034.65 161.271 1034.63 160.804C1034.61 160.105 1035.26 158.681 1035.49 158.44L1035.44 157.041L1036.14 157.016C1037.29 156.509 1037.49 155.568 1037.93 154.853L1040.12 150.807C1042.09 147.003 1049.23 137.415 1050.09 135.517C1051.89 133.353 1055.11 125.536 1056.75 125.479C1057.45 125.455 1057.54 128.253 1058.08 130.335L1058.78 130.311C1058.79 130.544 1058.34 131.027 1058.35 131.26C1058.39 132.426 1059.56 132.618 1059.61 134.017C1059.64 134.717 1059.17 134.733 1059.22 136.132C1059.38 140.796 1061.51 141.655 1061.59 143.754L1061.68 146.319C1061.78 149.117 1062.52 150.492 1062.55 151.191C1062.56 151.424 1062.57 151.891 1062.37 152.832L1062.95 169.388C1062.26 169.645 1062.28 170.345 1062.32 171.511C1062.4 173.609 1063.19 176.383 1063.22 177.083C1063.25 178.015 1062.57 178.506 1062.6 179.439L1062.62 180.138C1061.92 179.93 1061.45 179.946 1061.45 179.946C1061.22 179.954 1062.67 181.304 1062.71 182.703L1062.74 183.403C1062.04 183.427 1061.37 184.384 1061.39 184.851C1061.42 185.784 1062.35 185.751 1062.84 186.434C1061.7 187.174 1060.79 187.907 1060.86 189.772L1060.16 189.796C1059.77 191.911 1059.14 194.034 1056.34 194.132C1054.94 194.181 1053.52 193.53 1052.82 193.555C1052.82 193.555 1052.59 193.563 1052.6 193.796L1053.34 194.938L1050.54 195.035C1049.82 194.593 1049.35 194.376 1048.65 194.401C1047.72 194.433 1046.57 195.174 1045.9 195.898L1045.2 195.922C1039.43 197.758 1034.71 196.289 1029.66 198.8C1028.49 198.84 1028.52 199.54 1027.58 199.572C1026.88 199.597 1026.18 199.388 1025.48 199.412C1023.61 199.478 1022.94 200.435 1022.04 201.167L1019.94 201.24C1017.46 203.895 1011.58 202.699 1011.69 205.731L1009.59 205.804C1007.72 205.869 1006.35 206.617 1005.68 207.341L1004.04 207.398C1002.68 208.613 999.17 208.269 998.794 210.85L997.395 210.899C994.396 211.938 989.13 214.923 989.171 216.089L987.772 216.138C987.563 216.846 987.105 217.095 986.872 217.103C986.405 217.119 986.172 217.128 985.698 216.911C984.323 217.659 982.281 219.365 982.065 219.839L982.04 219.14C978.8 219.953 978.93 223.684 977.531 223.733C976.832 223.757 976.59 223.532 975.384 222.407C974.5 223.839 974.05 224.321 974.074 225.021C974.082 225.254 974.107 225.954 974.597 226.637C980.378 225.034 985.635 221.816 989.318 220.286C989.342 220.986 989.792 220.503 990.025 220.495C992.726 217.599 1012.58 211.069 1013.23 209.646C1015.52 208.398 1022.23 206.763 1021.53 206.788L1023.16 206.731C1023.86 206.706 1025.05 207.132 1025.75 207.107C1026.44 207.083 1026.66 206.609 1026.64 205.909L1026.61 205.209L1027.31 205.185C1028.68 204.203 1031.89 202.69 1031.43 202.707C1032.83 202.658 1033.3 202.875 1033.53 202.867C1034 202.85 1034.23 202.842 1035.63 202.56C1036.33 202.769 1037.03 202.744 1037.73 202.72C1041.93 202.573 1048.13 199.555 1053.49 199.368C1054.89 199.319 1055.84 199.753 1057.25 199.937C1057.34 202.736 1055.96 203.251 1055.99 203.95L1055.99 204.183C1055.78 204.658 1056.04 205.583 1055.34 205.607L1054.64 205.631L1054.67 206.331C1054.73 208.196 1053.33 208.245 1053.15 209.652C1054.08 209.62 1054.56 209.837 1054.56 209.837C1054.58 210.536 1053.21 211.285 1053.23 211.984L1054.16 211.952C1055.33 211.911 1055.55 211.67 1055.54 211.203C1055.51 210.504 1055.26 209.812 1055.25 209.579C1055.22 208.88 1055.92 208.855 1056.16 208.847C1056.86 208.823 1056.89 209.755 1057.37 210.205C1056.25 211.645 1056.79 213.728 1054.7 213.801L1052.6 213.874C1052.16 214.823 1051.95 215.531 1051.27 216.022L1051.22 214.623L1049.36 214.688L1049.41 216.32C1049.49 218.419 1047.49 221.29 1046.83 222.48C1046.88 224.113 1046.7 225.52 1046.27 226.702L1048.88 221.241C1052.33 219.487 1054.31 216.149 1057.03 213.719L1057.73 213.695C1058.18 213.212 1058.17 212.979 1058.15 212.513C1058.14 212.28 1057.66 211.83 1057.64 211.13C1057.61 210.43 1058.78 210.39 1058.75 209.69C1058.71 208.291 1057.51 207.632 1057.49 206.933C1057.48 206.7 1057.48 206.7 1058.17 206.209C1060.1 208.009 1060.06 206.843 1061.54 209.359C1062.35 205.829 1066.92 202.868 1066.81 199.603L1066.75 197.971C1066.73 197.505 1066.68 195.873 1067.61 195.84L1067.63 196.54C1067.66 197.239 1068.13 197.456 1068.37 197.448C1069.07 197.423 1069.73 196.466 1070.9 196.426L1071.6 196.401C1073.23 196.344 1073.65 194.929 1075.28 194.872L1079.94 194.709C1079.85 192.144 1077.82 194.083 1077.28 192ZM1061.62 111.301C1061.16 111.317 1061.16 111.55 1060.95 112.025C1059.84 113.698 1054.87 111.77 1054.97 114.568C1054.26 114.36 1053.54 113.918 1053.51 112.985C1053.49 112.519 1053.48 112.285 1054.18 112.261C1055.57 111.746 1055.96 109.631 1058.06 109.558C1058.29 109.549 1059.01 109.991 1059.47 109.975C1061.11 109.918 1061.74 108.028 1062.91 107.987C1063.14 107.979 1063.62 108.429 1063.86 108.654C1061.53 108.736 1062.53 110.569 1061.85 111.293L1061.62 111.301ZM1053.49 119.056C1053.32 120.929 1051.75 122.852 1050.03 127.114C1048.96 129.72 1047.86 131.859 1047.24 133.982L1047.26 134.682C1047.05 135.156 1046.59 135.406 1046.35 135.414C1045.89 135.43 1045.26 137.553 1044.55 137.111C1041.82 139.308 1041.62 140.249 1038.74 144.785L1038.81 146.65L1037.41 146.699C1032.48 152.475 1024.3 165.834 1019.66 166.697L1018.03 166.754C1017.32 166.312 1016.84 166.095 1016.61 166.103C1015.21 166.152 1016.1 164.953 1015.98 161.456L1015.92 159.823C1015.91 159.59 1015.7 160.065 1015.7 160.065C1015.23 160.081 1015.22 159.848 1015.2 159.148C1015.16 157.982 1016.57 158.4 1016.53 157.234L1016.52 157.001C1018.98 153.647 1025.89 144.3 1025.78 141.269L1025.76 140.802L1026.46 140.778C1027.83 139.796 1029.67 139.032 1029.58 136.467L1029.56 135.767C1030.26 135.743 1030.96 135.718 1030.93 135.019L1030.91 134.319C1031.83 134.053 1047.13 117.41 1046.66 117.427L1047.13 117.41C1049.21 116.871 1047.97 114.813 1050.77 114.715C1052.17 114.666 1051.54 116.789 1052.96 117.207L1053.66 117.182L1053.49 119.056ZM1086.87 192.366C1085.7 192.407 1084.77 192.439 1084.31 192.689C1083.63 193.179 1083.39 193.188 1083.42 193.887C1084.12 193.863 1084.37 194.554 1085.07 194.53L1086.47 194.481C1086.46 194.014 1086.46 194.014 1086.92 193.998C1087.16 193.99 1087.87 194.432 1088.34 194.416C1089.04 194.391 1089.25 193.917 1089.67 192.501C1088.5 192.309 1087.56 192.341 1086.87 192.366ZM971.938 230.699C971.913 229.999 972.597 229.508 972.572 228.809C971.864 228.6 969.725 227.508 969.026 227.532C969.042 227.998 970.474 228.882 970.539 230.748L971.938 230.699ZM964.349 233.999C964.533 232.592 965.208 231.868 966.374 231.827C966.607 231.819 967.307 231.794 968.023 232.236C967.982 231.07 968.424 230.355 968.649 230.113C966.976 229.004 967.016 230.17 964.877 229.078C964.918 230.244 963.576 231.925 963.617 233.091C963.641 233.79 963.882 234.015 964.349 233.999ZM1044.95 228.85C1045.4 228.367 1046.07 227.643 1046.27 226.702L1044.95 228.85ZM1042.71 231.729L1044.95 228.85C1043.6 230.298 1041.97 230.588 1042.01 231.754L1042.71 231.729ZM958.506 240.506C958.248 239.815 958.24 239.582 958.216 238.882C958.126 236.317 961.873 236.653 962.95 234.048L962.25 234.072C961.084 234.113 960.119 233.213 959.419 233.237C958.953 233.253 958.728 233.495 958.286 234.211C958.752 234.194 959.002 234.653 959.002 234.653C959.01 234.886 958.31 234.91 957.611 234.935L956.911 234.959C956.252 236.149 956.044 236.857 956.068 237.557C956.092 238.256 956.35 238.948 956.375 239.647L956.407 240.58L958.506 240.506ZM954.165 243.226C954.14 242.527 954.824 242.036 954.799 241.336C954.791 241.103 954.325 241.119 954.075 240.661C954.092 241.128 953.416 241.852 953.441 242.551C953.449 242.784 953.682 242.776 954.165 243.226ZM1031.42 242.63C1031.24 244.037 1030.8 244.753 1029.86 244.785C1029.4 244.801 1028.7 244.826 1028.44 244.135L1028.49 245.534L1028.01 245.084C1018.64 257.784 1008.2 259.55 1008.3 262.348C1006.21 262.654 1006.05 264.761 1003.25 264.859L1002.55 264.883C1001.92 267.006 999.116 266.871 998.723 268.986L996.391 269.067C994.525 269.132 991.616 272.736 989.124 274.924L988.192 274.957C988.167 274.257 987.701 274.273 987.701 274.273C986.069 274.33 984.751 276.711 984.301 277.194C984.775 277.411 985.732 278.078 986.223 278.761C984.358 278.826 982.276 279.366 982.235 278.2C982.227 277.967 982.677 277.484 982.902 277.243C981.269 277.3 981.56 278.924 978.786 279.721L978.086 279.745C977.411 280.469 976.544 282.367 975.378 282.408C975.145 282.416 974.662 281.966 974.421 281.741C972.612 283.439 971.929 283.929 970.996 283.962L966.799 284.109C966.107 284.366 965.424 284.857 964.725 284.881C964.258 284.898 963.542 284.456 963.309 284.464C961.91 284.513 960.761 285.02 960.118 286.676C959.877 286.451 959.394 286.001 959.161 286.01C957.762 286.058 952.889 286.929 952.954 288.794C951.789 288.835 951.073 288.393 950.349 287.718C949.69 288.908 949.698 289.142 948.299 289.19C946.152 287.865 943.345 287.729 939.107 286.71C939.205 289.508 939.761 292.057 942.567 292.192L943.267 292.168C943.516 292.626 943.983 292.61 943.991 292.843C944.015 293.542 942.657 294.757 942.681 295.457C945.504 296.059 945.569 297.924 949.3 297.794L949.999 297.769C950.74 298.911 952.613 299.079 954.712 299.005C957.044 298.924 958.86 297.46 960.259 297.411L960.493 297.403C962.567 296.63 965.148 297.007 965.05 294.209L965.75 294.184C966.506 295.792 967.922 296.21 969.562 296.386C969.538 295.686 970.904 294.705 970.888 294.238C970.888 294.238 970.647 294.013 970.18 294.029L969.481 294.054C969.44 292.888 970.132 292.63 971.531 292.582L972.697 292.541C972.255 293.257 971.563 293.514 971.604 294.68L972.303 294.656C973.703 294.607 975.519 293.143 975.503 292.676C975.47 291.744 974.746 291.068 974.73 290.602C974.722 290.369 974.706 289.903 975.405 289.878C975.679 291.036 977.086 291.22 978.485 291.171C980.584 291.098 983.125 290.309 983.092 289.376C983.076 288.91 982.585 288.227 981.178 288.042L981.877 288.018C983.976 287.945 984.475 288.861 985.898 289.512C987.126 284.566 991.123 285.36 997.289 281.41C999.805 279.921 1005.03 275.769 1004.96 273.671L1005.66 273.646C1011.95 266.656 1022.17 258.595 1021.94 258.603C1024.25 257.822 1024.59 254.308 1026.15 252.152L1027.55 252.103C1027.94 249.988 1032.9 244.913 1036.09 242.467L1036.78 242.442C1037 241.968 1036.99 241.735 1036.98 241.268C1036.97 241.035 1036.71 240.344 1036.69 239.644C1036.67 239.178 1036.66 238.945 1037.35 238.454L1036.65 238.478C1034.81 239.243 1035.62 242.483 1033.52 242.556L1031.42 242.63ZM947.647 250.458C947.606 249.292 948.306 249.267 948.281 248.568C947.582 248.592 947.324 247.901 946.858 247.917C946.882 248.617 946.199 249.108 946.207 249.341C946.907 249.316 946.931 250.016 947.647 250.458ZM933.391 270.1C932.9 269.417 932.643 268.725 932.634 268.492C932.561 266.393 936.758 266.247 937.368 263.657L936.918 264.14C936.685 264.148 935.969 263.706 935.495 263.489L935.961 263.473L935.945 263.007C935.839 259.975 942.167 260.688 942.07 257.89L942.062 257.657C940.92 258.397 940.221 258.422 939.987 258.43L938.122 258.495C937.189 258.527 933.024 259.607 933.171 263.804C933.404 263.796 933.404 263.796 933.421 264.262C933.421 264.262 932.729 264.52 932.03 264.544L931.33 264.569C930.671 265.759 930.462 266.467 930.487 267.166C930.511 267.866 930.769 268.557 930.793 269.257L930.826 270.189L933.391 270.1ZM936.58 281.195C936.556 280.495 936.081 280.278 936.065 279.812C936.04 279.112 936.715 278.389 936.691 277.689C936.658 276.756 935.918 275.615 934.519 275.664C934.286 275.672 933.603 276.163 932.928 276.887L932.903 276.187C932.854 274.788 930.764 275.094 930.249 273.712C930.682 272.763 932.09 272.947 932.041 271.548L932.008 270.615C929.468 271.404 926.518 273.842 926.591 275.94C926.778 281.304 933.966 279.885 935.205 281.943L935.246 283.109C935.279 284.042 935.536 284.733 936.236 284.709C937.402 284.668 938.977 282.979 938.928 281.58L938.912 281.113L936.58 281.195ZM984.051 276.736C984.068 277.202 984.301 277.194 984.301 277.194L984.051 276.736ZM1157.27 142.514C1146.73 148.485 1151.02 150.903 1144.29 152.072C1138.74 153.667 1132.63 159.017 1126.15 160.644C1123.35 160.741 1120.8 161.297 1119.22 162.753L1103.36 163.307C1099.84 162.73 1098.77 158.798 1098.66 155.767C1098.46 149.937 1100.6 144.493 1100.42 139.363C1100.37 137.964 1100.09 136.573 1100.04 135.173C1099.99 133.774 1102.13 134.867 1102.07 133.002C1102.06 132.768 1101.57 132.085 1101.55 131.619C1101.53 130.919 1102 130.903 1102.23 130.895C1105.03 130.797 1109.3 132.749 1112.81 133.093C1112.59 133.335 1112.59 133.335 1112.6 133.801C1112.63 134.501 1113.57 134.701 1114.97 134.652C1119.16 134.506 1116.97 131.781 1119.53 131.691C1120.48 132.125 1120.97 132.808 1122.37 132.759L1123.77 132.711C1126.8 132.605 1136.93 121.745 1136.93 121.745C1136.9 121.046 1136.43 120.829 1136.41 120.129L1137.11 120.105C1138.97 120.04 1139.65 119.549 1139.62 118.616C1139.61 118.15 1139.11 117.233 1139.08 116.534C1139.51 115.352 1140.43 115.086 1140.36 112.987C1140.83 112.971 1141.07 113.429 1141.54 113.413C1141.54 113.413 1141.77 113.405 1141.76 112.938C1141.05 112.73 1140.79 112.038 1140.3 111.355C1141.45 110.848 1141.68 110.606 1141.65 109.907C1141.56 107.342 1138.06 107.464 1138.02 106.065C1137.97 104.666 1140.07 104.593 1140.01 102.96C1139.88 99.2294 1129.01 95.6399 1127.38 95.6969C1123.88 95.8191 1120.43 97.1071 1117.68 98.6039L1117.7 99.3035C1115.89 101.001 1113.6 102.248 1110.84 103.279L1110.14 103.303C1108.27 103.368 1105.53 105.098 1104.69 107.696L1104.3 110.044L1102.9 110.093C1102.2 110.117 1101.31 111.316 1101.32 111.549C1101.32 111.549 1101.34 112.015 1101.57 112.007C1100.94 114.13 1094.21 121.836 1094.2 121.603C1094.23 122.536 1095.66 123.186 1095.68 123.886C1095.5 125.293 1094.33 125.334 1094.14 126.508L1093.73 128.157C1092.81 128.655 1092.39 129.838 1091.47 130.337C1091.63 128.23 1093.65 125.825 1093.6 124.426C1093.58 123.959 1093.34 123.734 1092.62 123.292C1090.87 126.622 1089.51 127.604 1089.6 130.402C1089.63 131.101 1089.65 131.801 1090.15 132.717C1090.23 134.816 1086.99 135.629 1087.16 140.526C1087.23 142.625 1087.74 144.008 1088.44 143.983C1088.68 143.975 1089.13 143.493 1089.79 142.535C1089.33 142.552 1089.09 142.56 1089.07 141.86C1089.05 141.161 1090.68 141.104 1090.61 139.005C1090.56 137.606 1090.29 136.681 1089.81 136.231C1090.27 136.215 1090.52 136.673 1090.52 136.673C1093.09 136.584 1091.78 132.66 1093.88 132.587C1094.35 132.571 1094.37 133.27 1094.39 133.737C1094.46 135.835 1092.42 137.541 1092.47 138.94C1092.5 139.639 1092.51 140.106 1093.22 140.315L1093.24 141.014L1092.08 141.055C1092.2 144.553 1090.87 146.7 1088.57 147.481C1088.78 147.007 1089.24 146.757 1089.22 146.058C1089.2 145.591 1088.73 145.374 1087.78 144.94C1087.36 146.356 1085.75 147.112 1085.83 149.211C1088.86 149.105 1087.31 151.727 1091.51 151.581L1092.44 151.548L1092.29 153.888L1091.13 153.929C1090.91 154.403 1090.92 154.636 1090.95 155.569C1091.18 162.098 1101.2 168.285 1101.21 168.518C1101.91 168.494 1102.14 168.486 1102.12 167.786C1103.6 170.069 1110.01 173.347 1114.91 173.176C1116.08 173.135 1117 172.87 1117.68 172.146L1120.24 172.056C1123.26 171.484 1123.62 168.436 1127.12 168.314L1128.75 168.257C1129.17 167.075 1131.4 163.962 1132.56 163.688L1133.49 163.656C1138.39 163.485 1135.18 158.694 1138.92 158.563C1139.61 158.539 1139.65 159.472 1140.81 159.431C1142.45 159.374 1144.24 157.21 1144.19 155.811L1144.16 154.878C1146.18 152.707 1151.65 148.78 1153.05 148.731L1153.75 148.707C1155.8 147.235 1157.83 145.296 1159.16 143.148C1159.15 142.915 1158.66 142.465 1157.97 142.489L1157.27 142.514ZM1107.81 116.925C1108.03 116.451 1107.79 116.226 1107.32 116.242C1107.09 116.25 1106.85 116.258 1106.63 116.5C1108.19 114.344 1110.01 113.113 1111.83 111.649C1113.2 110.9 1113.86 109.71 1115.49 109.653L1116.89 109.604C1117.31 108.189 1118.96 108.598 1119.64 107.874C1119.59 106.475 1117.96 106.765 1117.91 105.366C1117.88 104.433 1119.26 103.685 1119.95 103.661C1120.19 103.652 1120.66 103.869 1120.68 104.336L1123.01 104.254C1123.69 103.764 1124.85 103.49 1125.78 103.457C1127.88 103.384 1129.34 104.967 1130.79 106.317L1130.2 109.606C1129.13 112.445 1129.36 118.974 1111.79 123.791C1110.17 124.314 1104.56 124.043 1105 123.327L1107.81 116.925ZM1109.43 116.402C1109.43 116.402 1109.89 116.386 1110.58 116.128C1111.21 114.005 1112.84 113.948 1113.49 112.291C1113.47 111.825 1113.24 111.833 1112.77 111.849C1111.37 111.898 1109.14 114.778 1109.19 116.177C1109.19 116.41 1109.19 116.41 1109.43 116.402ZM1174.44 172.965C1175.85 173.15 1177.24 172.867 1178.64 172.819C1179.79 172.545 1181.19 172.496 1182.35 172.222C1184.21 171.924 1186 169.76 1187.91 171.094C1188.55 169.204 1189.3 170.579 1189.99 170.321C1191.15 170.047 1192.06 169.548 1193.21 169.041C1194.36 168.534 1195.51 168.027 1196.65 167.287C1198.94 166.039 1200.99 164.334 1202.55 162.411C1201.17 149.619 1185.94 141.279 1175.76 137.199C1175.24 135.816 1175.72 136.266 1175 135.591C1174.92 133.259 1175.54 130.903 1176.4 128.772C1177.05 127.348 1177.93 125.917 1178.82 124.485C1179.26 123.769 1181.07 122.072 1182.87 120.141L1184.13 116.128L1186.02 116.996C1187.14 115.556 1188.27 114.582 1188.72 114.1C1189.85 112.893 1187.74 112.5 1188.86 111.293C1190.27 111.478 1191.47 112.603 1192.83 111.388C1194.21 110.64 1195.29 108.267 1196.43 107.527C1198.04 106.77 1197.89 109.11 1199.04 108.603C1205.04 106.759 1209.49 107.071 1214.24 109.473C1214.65 107.825 1214.43 108.066 1215.1 107.109C1214.5 103.394 1202.51 94.474 1198.53 93.9129C1197.34 93.2541 1195.71 93.5442 1193.87 94.3089C1192.72 94.816 1191.12 95.8057 1189.76 97.0205C1184.07 101.188 1178.24 107.929 1174.79 109.45L1174.89 112.248L1171.62 112.362C1172.11 113.046 1172.59 113.496 1173.32 114.171C1169.52 118.973 1161.58 125.787 1167.2 132.828C1167.52 135.385 1168.78 137.909 1170.96 140.168C1171.69 141.076 1172.89 141.968 1173.85 142.868L1176.48 144.644C1180.88 143.557 1181.72 147.497 1183.63 148.597C1185.52 149.465 1183.49 144.633 1187.42 150.333C1189.32 151.2 1191.45 152.06 1193.11 152.702C1193.18 154.801 1193.23 156.2 1192.34 157.398C1189.24 162.176 1181.54 162.445 1176.62 161.916C1173.36 162.03 1168.48 162.667 1166.56 161.333C1159.75 160.171 1164.95 155.32 1165.87 155.054C1167.03 154.78 1166.12 155.512 1166.03 152.947C1164.43 153.704 1163.96 153.72 1162.83 154.693C1160.69 153.601 1161.78 157.999 1160.99 155.458C1158.91 156.231 1160.79 156.399 1158.7 156.939C1154.91 161.974 1154.64 167.586 1156.36 170.094C1158.96 170.938 1161.56 171.781 1164.14 172.158C1165.79 172.567 1167.19 172.751 1168.83 172.927C1168.08 171.32 1169.94 171.254 1174.44 172.965ZM1233.78 120.698C1234.23 120.215 1234.68 119.732 1234.9 119.258C1234.89 119.025 1234.45 119.741 1233.78 120.698ZM1195.14 137.456C1205.51 133.358 1220.74 128.39 1229.22 123.659C1223.88 124.546 1222.28 125.768 1218.6 127.298C1215.31 126.712 1200.79 132.122 1195.14 137.456ZM1194.6 135.14C1194.82 134.899 1193.68 135.639 1192.98 135.664C1192.75 135.672 1193.47 136.347 1193.7 136.105L1194.6 135.14ZM1186.86 141.013C1188.46 140.024 1190.76 139.009 1193.53 137.979C1191.85 136.87 1189.3 137.193 1187.48 138.657C1187.3 140.064 1187.28 139.598 1186.84 140.314L1186.86 141.013ZM1188.99 141.873C1189.05 143.505 1191.52 140.617 1193.09 138.928C1191.96 139.902 1190.36 140.891 1188.53 141.889L1188.99 141.873ZM1166.74 153.156C1167.72 154.522 1170.46 152.792 1171.58 151.353C1171.11 151.136 1170.42 151.393 1169.26 151.667C1168.58 152.158 1167.66 152.657 1166.74 153.156ZM1174.26 161.065C1173.75 159.915 1170.95 160.013 1170.46 159.33C1170.48 159.796 1172.14 160.672 1172.16 161.138L1174.26 161.065Z" fill="url(#paint0_linear_5041_177)"/>
<defs>
<linearGradient id="paint0_linear_5041_177" x1="-1172.73" y1="-282.118" x2="-1167.46" y2="493.082" gradientUnits="userSpaceOnUse">
<stop offset="1" stop-color="#C6DDFF"/>
<stop offset="0.358685" stop-color="#D2EED9"/>
<stop stop-color="#D8E5E7"/>
</linearGradient>
</defs>
</svg>
