<svg width="762" height="204" viewBox="0 0 762 204" fill="none" xmlns="http://www.w3.org/2000/svg">
<path opacity="0.3" d="M74.471 114.867C72.8963 114.922 72.7481 114.784 72.7381 114.497C71.6028 114.824 66.8835 115.132 66.1677 115.157C64.6229 116.071 55.6038 116.386 50.6131 117.133C45.3361 117.891 25.723 118.576 14.0588 121.133C13.7675 121 13.1849 120.734 12.8885 120.457C13.1349 119.302 12.5822 119.895 14.0188 119.988C13.8988 116.552 14.916 116.946 15.3886 114.063C16.0744 113.179 15.5318 114.058 14.9191 112.933C15.62 112.478 15.7581 112.33 17.0416 112.142C15.4168 110.766 16.7103 110.864 15.4068 110.479C15.6781 110.04 15.6831 110.183 16.3889 109.872C15.495 108.899 16.6653 109.575 15.2136 109.053C14.8723 107.488 17.2611 106.114 18.2582 105.936C18.2132 104.648 18.1632 103.216 18.7009 102.194C19.2535 101.601 19.1204 101.893 20.552 101.843C20.3588 100.416 20.0025 98.4218 21.8236 97.2115C21.5273 96.9352 21.0878 96.6639 20.5052 96.3976C21.4673 95.2173 22.1581 94.4765 22.3894 92.8917C23.5447 93.138 23.2584 93.148 24.1324 93.5475C23.9392 92.1209 23.816 92.6986 22.7739 91.5883C23.1684 90.5711 23.6329 91.5583 23.2916 89.9935C25.7153 89.6222 25.5872 90.0567 24.9545 88.3587C25.2558 88.7782 25.6903 88.9064 26.1298 89.1777C26.3711 87.8792 27.0669 87.2816 27.7478 86.2545C28.0341 86.2445 28.1772 86.2395 28.3154 86.0913C27.1551 85.7018 27.7428 86.1113 26.4643 86.4426C26.2861 85.4455 26.2911 85.5887 26.2711 85.016C26.8238 84.4234 26.982 84.8479 27.5396 84.3984L27.9691 84.3834C27.3814 83.9739 25.9498 84.0239 25.3722 83.9007L24.9427 83.9157L26.6056 82.281L26.7488 82.276C27.7209 81.382 28.8362 80.483 29.6902 80.3099C28.8112 79.7672 28.5149 79.4909 27.3646 79.3877C26.9883 76.8208 29.9547 75.5706 31.105 75.6737C31.1832 73.8076 31.3213 73.6595 31.5477 71.9315L32.1203 71.9115C31.6758 71.4971 31.2413 71.3689 30.94 70.9494C31.4927 70.3568 31.6558 70.9244 32.0703 70.4799C32.8943 69.4478 32.613 69.601 32.1485 68.6138C32.2466 67.3204 33.1006 67.1472 34.9667 67.2254C34.2209 66.3914 34.2309 66.6778 33.4951 66.1301C34.4672 65.2361 34.9749 63.355 34.7817 61.9284C35.7789 61.7503 36.3465 61.5871 36.9342 61.9966C37.2205 61.9866 37.3636 61.9816 37.5018 61.8334C36.4597 60.7231 37.1905 61.1276 35.7439 60.7481C35.5907 60.4668 35.4326 60.0423 35.2844 59.9042C36.5828 60.1455 36.4447 60.2937 37.61 60.8263L37.1555 60.1255C36.8542 59.706 37.2886 59.8342 36.5678 59.716L36.2465 58.7239C37.4018 58.9702 37.1205 59.1234 37.8513 59.5279C38.0826 57.9431 38.4721 56.7828 38.5653 55.3462L38.1358 55.3612C37.7063 55.3762 37.9826 55.0799 37.435 55.8157C37.0105 55.9738 36.8673 55.9788 36.4379 55.9938C37.0987 54.3941 37.2318 54.1027 39.2461 54.3191C39.3793 54.0277 39.3743 53.8846 39.3693 53.7414C39.3693 53.7414 38.8798 52.0385 38.7666 52.9025L38.4903 53.1988C38.7416 52.1866 39.3974 50.4437 40.9222 48.9571C39.8851 47.99 40.0433 48.4145 39.3075 47.8668C40.5809 47.3923 39.5888 47.7137 40.5909 47.6787C41.1767 43.9315 42.9228 40.5738 43.0742 36.6984C40.3141 35.6481 36.5469 34.4896 34.0582 32.9999C28.6731 34.7646 31.8844 40.5292 30.736 44.5827C29.4393 48.4981 27.131 64.489 24.0665 67.0327C24.6691 67.8717 24.5109 67.4472 25.3999 68.2762C23.8701 69.6196 23.8319 72.631 21.8627 73.7031C22.3022 73.9744 22.8798 74.0976 23.1761 74.3739C21.6064 74.5721 22.0258 74.2708 21.355 75.5842C21.0837 76.0237 21.2169 75.7324 21.5182 76.1518C21.6664 76.29 21.6764 76.5763 21.8345 77.0008C21.2669 77.164 20.9805 77.174 20.5511 77.189C20.8874 78.6106 20.9274 79.7559 20.9474 80.3285C20.681 80.9112 20.0834 80.2154 19.8371 81.3706C19.2644 81.3906 18.6968 81.5538 17.981 81.5788C18.2823 81.9983 18.7318 82.5559 19.0281 82.8322L17.4501 86.9008L15.604 87.3952C16.0635 88.2392 16.2317 88.95 16.538 89.5126C15.8422 90.1103 14.9982 90.5698 14.2924 90.8811C14.2924 90.8811 15.3395 92.1345 14.93 92.7222C14.6587 93.1617 13.6516 93.0535 13.3753 93.3498C13.2571 94.0706 13.3803 93.493 13.8498 94.6233C12.7345 95.5222 12.7595 96.238 11.0665 97.0138C11.6442 97.137 11.2097 97.0089 12.0736 97.122C11.9755 98.4155 12.5281 97.8228 10.9683 98.3073C11.9873 102.858 8.12694 103.137 8.7014 107.273C7.9906 107.441 7.41795 107.461 6.8503 107.625C7.6611 110.32 6.74896 112.932 4.63653 114.009C5.35734 114.127 4.77469 113.861 5.64866 114.26C5.67366 114.976 5.66366 114.689 5.53549 115.124C5.68366 115.262 5.69365 115.548 5.69365 115.548C5.40733 115.558 4.96785 115.287 4.68153 115.297C4.35203 118.175 3.30173 120.935 3.40171 123.799C3.4867 126.232 5.70411 128.162 4.60381 129.49C5.04329 129.761 5.63594 130.314 5.93726 130.734C11.2492 130.978 16.308 128.078 23.7774 128.534C25.0709 128.632 26.7038 126.138 28.7381 126.927C28.7381 126.927 30.5892 126.576 29.577 126.325C29.4339 126.33 29.1426 126.196 28.8462 125.92C30.7173 126.141 33.5806 126.041 34.6959 125.143C36.1375 125.379 35.2535 124.693 35.8711 125.962C39.0057 125.422 39.8297 124.39 41.2413 123.767C42.6529 123.145 46.2919 124.738 49.1151 123.492C50.8131 122.86 53.0287 120.632 54.4753 121.012C57.0422 120.635 56.6077 120.507 57.0872 121.924C64.7279 119.077 68.9877 117.925 74.8374 117.147L76.0858 115.957L75.7595 114.822L74.471 114.867ZM36.7742 57.4154C36.9273 57.6968 36.9373 57.9831 37.0905 58.2644L36.0884 58.2994C35.9402 58.1612 35.9302 57.8749 35.777 57.5936C36.0584 57.4404 36.3447 57.4304 36.7742 57.4154ZM34.4304 60.0773C34.4604 60.9363 34.4454 60.5068 33.5715 60.1073L34.4304 60.0773ZM36.9641 62.8556C36.9591 62.7124 36.811 62.5742 36.806 62.4311C36.3765 62.4461 36.2333 62.4511 35.8089 62.6092C36.3865 62.7324 35.957 62.7474 36.9641 62.8556ZM35.9238 65.9019C35.7657 65.4775 35.6125 65.1961 35.6025 64.9098C35.173 64.9248 34.8867 64.9348 34.6054 65.088C34.6154 65.3743 34.7686 65.6556 34.9217 65.9369L35.9238 65.9019ZM29.9761 67.973C30.1242 68.1112 30.1292 68.2543 30.1342 68.3975C29.9911 68.4025 29.5616 68.4175 29.1371 68.5757C29.1271 68.2893 28.9739 68.008 28.8208 67.7267C29.1071 67.7167 29.8279 67.8349 29.9761 67.973ZM25.5217 75.8687C26.5338 76.12 25.9562 75.9969 26.687 76.4014C26.5438 76.4064 26.4057 76.5545 26.2675 76.7027C25.838 76.7177 25.5517 76.7277 24.9841 76.8908C24.9791 76.7477 24.8309 76.6095 24.8309 76.6095C25.3885 76.16 25.3985 76.4463 25.5217 75.8687ZM28.2036 78.7851C28.7862 79.0514 28.3518 78.9233 29.0776 79.1846L29.4471 77.4517C29.3039 77.4567 28.4849 78.6319 28.2036 78.7851ZM23.4961 83.5362C23.6492 83.8176 23.8074 84.242 23.8124 84.3852L22.9534 84.4152C22.9484 84.272 22.7953 83.9907 22.6421 83.7094C22.9284 83.6994 23.2098 83.5462 23.4961 83.5362ZM23.6261 87.2584C22.6189 87.1503 23.0484 87.1353 22.4708 87.0121C23.4779 87.1203 22.9053 87.1403 23.6261 87.2584ZM19.5062 92.4191C20.1089 93.258 19.6694 92.9867 19.2499 93.288C19.398 93.4262 19.403 93.5693 19.5562 93.8507L19.2699 93.8607C19.1067 93.293 19.0917 92.8635 18.9386 92.5822C19.2199 92.4291 19.3631 92.4241 19.5062 92.4191ZM13.9447 97.3434C13.2239 97.2252 13.5153 97.3583 13.0708 96.9439C13.9397 97.2002 13.3621 97.077 13.9447 97.3434ZM14.5992 103.771C14.481 104.491 14.6142 104.2 13.8884 103.939C14.1697 103.786 14.3129 103.781 14.5992 103.771ZM13.0762 109.414C12.3554 109.296 12.6467 109.429 12.0641 109.163C12.9281 109.276 12.6367 109.143 13.0762 109.414ZM11.112 110.629C11.3883 110.333 11.5314 110.328 11.3783 110.047C12.3904 110.298 12.0991 110.165 12.5386 110.436L12.4154 111.014C12.4154 111.014 10.5543 111.079 11.112 110.629ZM10.5593 111.222C10.5643 111.365 10.278 111.375 10.4312 111.656L9.97167 110.812C10.8406 111.069 10.5443 110.792 10.9888 111.207L10.5593 111.222ZM15.2936 111.343C15.2936 111.343 13.7289 111.684 14.4247 111.087C14.2715 110.806 14.4147 110.801 14.5528 110.652C15.1405 111.062 14.701 110.79 15.2936 111.343ZM16.5621 110.726C17.4411 111.268 17.1597 111.421 17.4211 110.696L16.5621 110.726ZM13.4775 112.697C13.6207 112.692 13.912 112.825 14.0602 112.963C13.962 114.256 14.3615 113.382 12.9499 114.005L12.4804 112.875C12.9049 112.717 13.1912 112.707 13.4775 112.697ZM10.6543 113.942C10.6593 114.085 10.5211 114.233 10.5261 114.376C10.5161 114.09 10.363 113.809 10.2098 113.527C10.9356 113.789 10.4961 113.517 11.0838 113.927L10.6543 113.942ZM13.6807 114.41C14.5447 114.523 14.2533 114.39 14.6978 114.804L13.6807 114.41ZM9.45084 116.421C9.589 116.272 9.44084 116.134 9.57401 115.843C10.1616 116.252 9.86533 115.976 10.463 116.672C10.463 116.672 8.60687 116.88 9.45084 116.421ZM53.0787 122.064C53.9526 122.463 55.3792 122.27 56.8009 121.934C56.2132 121.524 55.7787 121.396 55.2061 121.416C54.4953 121.584 53.7895 121.896 53.0787 122.064ZM36.9764 124.776C37.8504 125.176 37.4109 124.904 37.9886 125.028C37.2728 125.053 37.5641 125.186 36.9764 124.776ZM123.877 80.7475C123.166 80.9157 122.189 81.6665 121.493 82.2641C122.624 81.7947 123.897 81.3202 125.319 80.9839C125.467 81.122 126.873 80.3562 128.157 80.1681L128.285 79.7336C126.434 80.0849 124.726 80.4312 123.877 80.7475ZM120.225 82.8818C120.511 82.8718 120.931 82.5705 121.493 82.2641C120.501 82.5855 119.509 82.9068 118.665 83.3662C119.376 83.1981 119.944 83.0349 120.225 82.8818ZM109.879 86.2531C109.301 86.1299 108.166 86.4563 107.435 86.0518C103.61 87.332 98.1949 88.2378 93.3874 90.1257C92.104 90.3139 91.0818 89.7762 89.9115 89.1004C87.7191 87.887 86.667 86.4903 83.083 86.4722C83.153 88.4764 83.3811 90.9052 82.5671 92.2236L79.7057 96.4803C77.9596 99.838 77.1506 101.3 76.5698 105.19C76.5003 115.513 79.4085 116.701 83.4388 121.29C84.5841 121.25 85.7294 121.21 86.8697 121.027L87.7237 120.854L87.5605 120.286C87.6687 119.279 89.8211 119.347 91.2377 118.868L91.6622 118.71C92.348 117.826 93.7796 117.776 93.7446 116.774L93.7346 116.487L94.1591 116.329C95.1512 116.008 94.6918 115.164 95.3926 114.709L95.8171 114.551C96.1284 115.257 96.5529 115.099 96.716 115.667C97.52 114.062 97.7463 112.334 99.4443 111.701C99.8687 111.543 100.263 110.526 100.703 110.797C100.979 110.501 100.836 110.506 100.826 110.22C100.816 109.933 99.3793 109.84 99.3643 109.411C99.3493 108.981 99.4824 108.69 100.035 108.097C100.894 108.067 100.445 107.51 101.294 107.193C102.143 106.877 102.369 105.149 102.369 105.149C102.615 103.994 102.857 102.695 102.955 101.402L104.959 101.332C105.092 101.041 105.368 100.744 105.65 100.591C105.733 98.8681 104.424 98.3405 102.642 96.5394C102.345 96.263 102.059 96.273 101.906 95.9917C102.049 95.9867 99.6883 94.0624 98.473 92.0982C101.123 89.9989 103.271 89.9239 106.666 88.6587C106.79 88.081 109.5 87.6997 109.48 87.1271C112.742 86.1531 115.556 84.6215 118.665 83.3662C117.239 83.5594 115.526 83.7626 114.395 84.232C112.984 84.8547 111.153 85.7786 109.879 86.2531ZM88.3186 92.7395C87.9141 93.4703 87.3615 94.0629 87.3765 94.4924C87.3865 94.7787 87.9591 94.7587 88.6799 94.8769L88.8431 95.4445C88.5717 95.884 88.5867 96.3135 87.7328 96.4866L87.7228 96.2003C87.6928 95.3414 86.6906 95.3763 86.2462 94.9619C86.5025 94.0929 86.7538 93.0808 88.3186 92.7395ZM98.8412 98.5354C98.4817 100.555 97.5545 102.737 96.3311 104.643C96.0547 104.94 95.8034 105.952 95.5321 106.391C94.9845 107.127 94.4168 107.29 93.8642 107.883C93.4547 108.47 92.927 109.779 92.3694 110.228C89.8775 112.752 87.0492 113.854 84.7786 114.507C83.9397 115.109 82.0786 115.174 80.2125 115.096C80.547 112.361 81.1728 109.759 82.2331 107.286C81.3591 106.886 82.4894 106.417 82.7607 105.977C82.8939 105.686 82.3113 105.419 82.4444 105.128C82.5776 104.837 83.1352 104.387 83.2684 104.096C81.96 103.568 81.2342 103.307 81.086 103.169C80.6365 102.611 84.2355 103.059 84.3687 102.768C84.64 102.328 84.1905 101.77 85.0445 101.597L85.454 101.01L85.1077 99.3017C85.2458 99.1535 86.5543 99.6812 86.6875 99.3899C87.3683 98.3627 88.0591 97.6219 88.7499 96.8811C90.0283 96.5498 89.3225 96.8611 90.0183 96.2635C95.2853 95.2195 95.4735 96.503 98.8412 98.5354ZM121.52 132.287C121.505 131.858 121.633 131.423 121.618 130.994C121.613 130.851 121.174 130.579 121.016 130.155L121.159 130.15C121.875 130.125 122.279 129.394 122.121 128.97C122.121 128.97 122.111 128.683 121.687 128.842L121.672 128.412C121.672 128.412 121.305 126.131 121.418 125.267L121.881 122.098C122.167 122.088 122.311 122.083 122.301 121.797L122.296 121.653C122.725 121.638 122.996 121.199 122.981 120.77C122.966 120.34 122.813 120.059 122.798 119.629C122.793 119.486 122.783 119.2 123.065 119.047L123.04 118.331C125.763 114.222 126.535 107.602 128.497 102.23L128.462 101.228C127.865 100.532 127.43 100.404 127.287 100.409C126.858 100.424 126.448 101.011 125.875 101.031C125.446 101.046 125.155 100.913 124.271 100.227C124.296 100.943 124.168 101.378 123.452 101.403L123.309 101.408C123.999 100.667 123.505 98.8208 124.793 98.7758C125.228 98.904 125.524 99.1803 125.954 99.1653C125.954 99.1653 126.097 99.1603 126.368 98.7209L126.798 98.7059C126.813 99.1353 126.961 99.2735 127.247 99.2635C127.82 99.2435 128.516 98.6459 128.491 97.9301L128.461 97.0711C129.591 96.6016 130.158 96.4385 130.005 96.1571C129.847 95.7327 129.413 95.6045 128.815 94.9087C129.388 94.8887 129.516 94.4542 129.644 94.0197L129.624 93.4471L132.201 93.3571C132.176 92.6413 132.161 92.2118 131.716 91.7973L131.701 91.3678C132.239 90.3457 133.359 89.5899 133.309 88.1583L133.269 87.013C134.543 86.5385 135.315 79.9181 136.963 77.8539C140.256 77.7389 138.276 78.5247 143.682 77.3326L144.54 77.3026C144.55 77.5889 144.842 77.7221 145.128 77.7121C149.137 77.5721 152.508 75.591 155.567 72.9041C155.878 73.6099 156.752 74.0094 157.325 73.9894C158.184 73.9594 159.171 73.4949 159.576 72.7641L160.005 72.7491C160.005 72.7491 163.095 70.9212 163.539 71.3357C163.223 70.4867 161.357 70.4086 159.782 70.4636C158.493 70.5085 156.924 70.7067 156.361 71.013L155.645 71.038C154.643 71.073 154.545 72.3665 153.691 72.5396C153.799 71.5325 153.068 71.128 152.496 71.148C151.923 71.168 151.212 71.3362 150.65 71.6425L150.64 71.3562C150.64 71.3562 150.635 71.213 150.491 71.218C150.205 71.228 147.051 71.1948 146.661 72.3551C146.063 71.6593 144.524 72.7164 144.479 71.428C143.916 71.7343 143.63 71.7443 143.2 71.7593L140.766 71.8443C140.337 71.8593 139.764 71.8793 139.054 72.0474L139.694 69.875L140.232 68.8529L140.217 68.4234C140.137 66.1328 140.893 67.2531 141.36 64.2267L141.305 62.652L141.449 62.647C141.878 62.632 141.873 62.4888 141.863 62.2025C141.848 61.773 141.69 61.3485 141.685 61.2053C141.655 60.3464 143.393 60.859 143.416 57.4182C143.816 56.5442 144.23 56.0997 144.358 55.6652C144.486 55.2307 144.185 54.8113 144.17 54.3818C144.165 54.2386 144.155 53.9523 144.293 53.8041C144.241 48.2158 140.469 46.9142 139.743 46.6529C138.214 47.9963 135.725 58.8334 135.602 59.411C135.331 59.8505 134.231 61.179 134.261 62.0379C134.276 62.4674 134.572 62.7438 135.006 62.8719L134.903 64.0222C133.62 64.2104 134.564 66.6141 133.418 66.6541L133.275 66.6591C133.064 68.8165 132.936 69.251 131.348 73.0332C125.795 74.0871 118.034 73.4981 118.034 73.4981C117.891 73.5031 117.594 73.2268 117.446 73.0886C117.466 73.6613 116.499 74.6984 116.667 75.4092C117.335 78.1093 122.212 78.2256 125.94 78.2388L126.226 78.2288C127.085 78.1988 127.1 78.6283 127.816 78.6033C127.959 78.5983 128.373 78.1538 128.373 78.1538L128.398 78.8696L129.252 78.6965C129.682 78.6815 129.968 78.6715 130.121 78.9528C130.136 79.3823 129.727 79.9699 129.732 80.1131C129.742 80.3994 130.028 80.3894 130.458 80.3744L128.498 81.7328C125.752 89.2822 124.219 94.6392 123.789 94.6542C123.646 94.6592 123.375 95.0987 123.385 95.385C123.405 95.9576 123.849 96.3721 124.279 96.3571C124.279 96.3571 124.565 96.3471 124.703 96.199L125.133 96.184C125.562 96.169 125.854 96.3021 125.869 96.7316L125.884 97.1611C124.723 96.7716 124.294 96.7866 124.294 96.7866C123.292 96.8216 123.035 97.6906 122.631 98.4214L122.646 98.8508C122.221 99.009 122.231 99.2953 122.093 99.4435C121.817 99.7398 122.246 99.7248 122.251 99.868C121.128 104.637 118.153 109.758 118.105 112.483C118.13 113.199 118.288 113.623 118.59 114.043C118.18 114.63 118.788 115.613 117.643 115.653L117.336 115.09C117.178 114.665 117.035 114.67 116.6 114.542L116.63 115.401C116.66 116.26 116.562 117.554 116.582 118.126C116.612 118.985 117.195 119.252 117.2 119.395C117.097 120.545 115.492 119.741 115.384 120.748C115.971 121.158 116.273 121.577 116.288 122.007C116.318 122.866 115.632 123.75 115.662 124.608C115.677 125.038 115.687 125.324 115.978 125.457C116.171 126.884 116.171 126.884 116.646 128.158C117.856 129.979 118.888 130.803 121.52 132.287ZM133.998 70.9339C133.568 70.9489 132.966 70.11 132.946 69.5373C132.931 69.1078 134.224 69.206 134.189 68.2039L134.174 67.7744C134.099 65.627 136.466 59.5242 136.836 57.7913C137.981 57.7513 137.089 60.9358 136.187 63.8341L135.757 63.8491C135.393 65.7251 136.025 67.4231 135.033 67.7444C134.332 68.1989 134.427 70.9189 133.998 70.9339ZM151.261 126.089C152.125 126.202 152.979 126.029 153.838 125.999C154.549 125.831 155.408 125.801 156.118 125.632C157.259 125.449 158.359 124.121 159.534 124.94C159.924 123.78 160.383 124.624 160.808 124.465C161.519 124.297 162.081 123.991 162.787 123.68C163.493 123.368 164.199 123.057 164.899 122.602C166.306 121.837 167.559 120.79 168.522 119.609C167.674 111.755 158.322 106.635 152.071 104.13C151.754 103.281 152.051 103.557 151.606 103.143C151.556 101.711 151.936 100.265 152.463 98.9563C152.863 98.0823 153.406 97.2033 153.948 96.3244C154.22 95.8849 155.33 94.8428 156.435 93.6575L157.209 91.1938L158.374 91.7264C159.06 90.8424 159.756 90.2448 160.032 89.9485C160.723 89.2077 159.425 88.9664 160.116 88.2255C160.98 88.3387 161.72 89.0295 162.554 88.2837C163.398 87.8242 164.064 86.3676 164.765 85.9132C165.752 85.4487 165.659 86.8853 166.365 86.574C170.052 85.4419 172.782 85.6332 175.7 87.108C175.951 86.0959 175.813 86.244 176.223 85.6564C175.856 83.3758 168.498 77.8993 166.05 77.5548C165.319 77.1503 164.322 77.3285 163.191 77.798C162.486 78.1093 161.504 78.7169 160.67 79.4627C157.175 82.0214 153.593 86.1599 151.476 87.0939L151.536 88.8118L149.532 88.8818C149.833 89.3013 150.129 89.5776 150.574 89.9921C148.24 92.9403 143.369 97.1238 146.817 101.447C147.015 103.017 147.786 104.566 149.124 105.953C149.574 106.511 150.31 107.058 150.902 107.611L152.517 108.701C155.217 108.034 155.732 110.452 156.902 111.128C158.067 111.661 156.817 108.694 159.232 112.193C160.398 112.726 161.706 113.254 162.723 113.648C162.768 114.937 162.798 115.796 162.251 116.531C160.346 119.465 155.622 119.63 152.601 119.305C150.596 119.375 147.6 119.766 146.425 118.947C142.243 118.234 145.436 115.255 146.003 115.092C146.714 114.924 146.157 115.373 146.102 113.799C145.115 114.263 144.828 114.273 144.132 114.871C142.819 114.2 143.487 116.9 143.002 115.34C141.729 115.815 142.879 115.918 141.6 116.249C139.272 119.341 139.105 122.786 140.162 124.326C141.757 124.844 143.352 125.362 144.937 125.593C145.949 125.844 146.813 125.957 147.82 126.066C147.356 125.078 148.501 125.038 151.261 126.089ZM187.694 93.9993C187.971 93.7029 188.247 93.4066 188.38 93.1153C188.375 92.9721 188.104 93.4116 187.694 93.9993ZM163.973 104.288C170.335 101.772 179.689 98.7222 184.891 95.8172C181.613 96.3616 180.636 97.1124 178.376 98.0514C176.356 97.6919 167.442 101.013 163.973 104.288ZM163.637 102.866C163.775 102.718 163.074 103.172 162.645 103.187C162.502 103.192 162.946 103.607 163.084 103.459L163.637 102.866ZM158.889 106.472C159.871 105.864 161.283 105.242 162.981 104.609C161.954 103.928 160.384 104.126 159.269 105.025C159.156 105.889 159.146 105.603 158.874 106.043L158.889 106.472ZM160.198 107C160.233 108.002 161.748 106.229 162.715 105.192C162.019 105.789 161.037 106.397 159.911 107.01L160.198 107ZM146.536 113.927C147.139 114.766 148.822 113.704 149.508 112.82C149.216 112.687 148.792 112.845 148.081 113.013C147.661 113.314 147.099 113.621 146.536 113.927ZM151.149 118.783C150.838 118.077 149.12 118.137 148.819 117.717C148.829 118.004 149.851 118.541 149.861 118.828L151.149 118.783ZM246.709 96.9552C246.634 94.8078 247.704 92.6204 247.619 90.1866C247.594 89.4708 247.574 88.8982 247.411 88.3305C247.139 88.77 247.144 88.9132 246.858 88.9232C246.285 88.9432 245.1 87.8379 244.671 87.8529L244.646 87.1371C244.912 86.5544 245.331 86.2531 246.19 86.2231L246.115 84.0757C246.105 83.7894 240.752 78.2429 240.752 78.2429C239.838 76.6981 235.31 74.2762 234.88 74.2912C234.308 74.3112 233.212 75.7828 233.079 76.0741L233.104 76.7899L229.525 76.9149C229.111 77.3594 229.126 77.7889 229.141 78.2183C229.146 78.3615 229.156 78.6478 229.6 79.0623C226.511 80.8902 222.795 85.32 221.364 85.37C220.105 86.274 217.347 89.3804 217.367 89.953C217.382 90.3825 217.673 90.5157 217.683 90.802C217.688 90.9451 217.412 91.2415 216.987 91.3996L217.012 92.1154C215.872 92.2986 215.912 93.4439 214.634 93.7752L214.654 94.3478C213.865 96.3821 212.646 98.4313 212.46 101.305L212.49 102.164C212.55 103.881 212.145 104.612 212.205 106.33L212.24 107.332C211.826 107.777 211.841 108.206 211.846 108.349C211.911 110.211 215.145 112.534 215.205 114.252C215.21 114.395 215.22 114.682 215.087 114.973C215.092 115.116 215.245 115.398 215.245 115.398L216.642 114.345L216.667 115.061C216.697 115.92 216.998 116.34 217.867 116.596L218.297 116.581C219.013 116.556 219.171 116.98 220.03 116.95L221.891 116.886C221.614 117.182 221.634 117.754 221.644 118.041C221.659 118.47 221.664 118.613 221.951 118.603L222.503 118.011L224.078 117.956C224.063 117.526 224.339 117.23 224.483 117.225C225.198 117.2 225.801 118.039 226.517 118.014C227.805 117.969 231.093 117.711 231.754 116.111L232.47 116.086C232.618 116.224 233.057 116.496 233.344 116.486C234.203 116.456 234.449 115.3 235.308 115.27L235.737 115.255L235.717 114.683C235.667 113.251 236.655 112.787 237.627 111.893L238.056 111.878C238.066 112.164 238.209 112.159 238.209 112.159C239.068 112.129 240.864 110.203 240.834 109.344C240.834 109.344 240.829 109.201 240.543 109.211L240.518 108.495C242.374 108.287 242.897 106.835 243.721 105.803L243.626 103.083L245.201 103.028C245.211 103.314 245.216 103.457 245.502 103.447C245.502 103.447 245.64 103.299 245.63 103.013L245.615 102.583C246.449 101.838 247.896 102.217 247.821 100.07L247.766 98.495L247.193 98.515C247.035 98.0905 246.729 97.5278 246.709 96.9552ZM238.719 81.6106L238.759 82.7559L237.9 82.7859L237.86 81.6406L238.719 81.6106ZM244.642 91.1506C244.07 91.1706 244.614 94.4483 243.326 94.4933L242.896 94.5083L242.956 96.2262C242.67 96.2362 238.121 101.412 238.244 100.834C237.07 104.172 232.891 107.615 232.032 107.645C231.888 107.65 231.883 107.506 231.597 107.516C231.632 108.519 227.091 109.824 227.664 109.804L227.52 109.809C227.259 110.535 224.308 112.214 223.449 112.244C222.447 112.279 221.676 110.73 221.246 110.745C220.53 110.77 220.274 111.639 219.845 111.654C219.702 111.659 219.82 110.938 218.818 110.973C218.102 110.998 217.815 111.008 217.652 110.44L217.457 104.857C217.427 103.998 217.555 103.563 218.271 103.538L218.246 102.823C217.832 103.267 217.545 103.277 217.116 103.292C216.686 103.307 216.252 103.179 216.242 102.893C216.227 102.463 216.508 102.31 217.352 101.85L217.372 102.423L218.231 102.393L218.186 101.105C221.004 99.7162 220.641 93.4221 224.294 91.2878C224.309 91.7173 224.314 91.8605 224.743 91.8455C224.984 90.547 226.13 90.507 226.243 89.6431L226.899 87.9001C227.861 86.7198 233.952 84.6438 235.911 83.2853L238.937 83.753L238.957 84.3256C239.126 85.0364 241.436 85.5291 242.152 85.5041L243.041 86.3331C243.47 86.3181 243.757 86.3081 243.782 87.0239C243.797 87.4534 243.525 87.8929 243.545 88.4655L243.56 88.895C244.567 89.0031 244.055 90.7411 244.786 91.1456L244.642 91.1506ZM229.941 113.451C229.655 113.461 229.526 113.895 229.26 114.478L228.831 114.493C228.391 114.222 228.105 114.232 228.075 113.373L228.361 113.363C229.077 113.338 229.195 112.617 229.61 112.173C230.484 112.572 231.358 112.972 231.408 114.403C230.825 114.137 230.37 113.436 229.941 113.451ZM292.215 86.6226C292.343 86.1881 291.919 86.3463 290.902 85.9518C288.033 85.9086 286.474 86.3931 285.358 87.292L285.517 87.7165L281.651 87.8515C281.222 87.8665 280.792 87.8815 280.807 88.311C280.561 89.4663 277.796 88.2728 277.406 89.4331C276.404 89.4681 275.975 89.4831 275.817 89.0586C275.817 89.0586 275.802 88.6291 276.078 88.3328C276.073 88.1896 275.633 87.9183 275.633 87.9183C275.282 86.0672 280.296 81.8787 278.868 77.9152L278.709 77.4907C279.983 77.0162 279.488 75.1701 281.206 75.1101C280.89 74.2612 280.594 73.9848 280.292 73.5654C280.85 73.1159 281.546 72.5182 281.802 71.6493C281.219 71.383 281.071 71.2448 281.061 70.9585C281.041 70.3858 283.179 70.0245 283.021 69.6C282.862 69.1755 282.003 69.2055 281.983 68.6329C281.923 66.915 285.611 65.7828 284.667 63.3791L284.509 62.9546C284.039 61.8243 285.624 62.0557 285.313 61.3498C285.154 60.9254 284.28 60.5259 284.26 59.9532C284.25 59.6669 288.523 54.7876 288.523 54.7876C288.094 54.8026 288.089 54.6594 288.079 54.3731L288.064 53.9436C288.059 53.8005 287.916 53.8055 287.906 53.5192C287.886 52.9465 289.021 52.6202 288.863 52.1957C288.863 52.1957 288.577 52.2057 288.142 52.0775L287.816 50.9422C287.816 50.9422 291.245 46.5224 291.082 45.9548C290.652 45.9698 290.08 45.9898 289.921 45.5653C290.484 45.259 290.607 44.6813 291.18 44.6613L291.609 44.6463C292.551 42.8934 293.868 39.5507 294.82 38.0841L294.647 37.2301L295.506 37.2001L295.491 36.7706C295.461 35.9117 296.468 36.0198 296.74 35.5804L296.388 33.7293C298.179 31.66 299.235 29.0431 301.021 26.8307C300.858 26.2631 297.904 23.7861 297.045 23.8161L295.9 23.8561C294.883 23.4617 294.552 22.1832 293.836 22.2082C293.406 22.2232 293.278 22.6577 293.308 23.5166L293.323 23.9461C293.343 24.5188 293.2 24.5238 293.215 24.9533L293.225 25.2396C292.529 25.8372 290.58 27.482 290.027 28.0746L289.025 28.1096C288.749 28.4059 288.764 28.8354 288.769 28.9786C288.794 29.6944 289.525 30.0989 289.856 31.3773C289.763 32.814 288.228 34.0142 287.271 35.3377L287.607 36.7593C287.78 37.6133 285.598 36.6861 286.236 38.5272C286.72 40.087 284.316 41.0309 284.663 42.7389C284.663 42.7389 284.954 42.872 285.107 43.1534C284.841 43.736 283.178 45.3708 283.178 45.3708C283.875 48.9298 280.441 53.2065 280.486 54.4949L280.501 54.9244C280.516 55.3539 280.102 55.7984 280.408 56.361C280.561 56.6423 280.576 57.0718 280.868 57.205L280.152 57.23C278.72 57.28 278.244 64.1767 278.081 63.6091C277.81 64.0485 277.529 64.2017 277.109 64.503L276.68 64.518C276.843 65.0857 277.144 65.5052 277.445 65.9246C276.76 66.8086 276.671 68.3884 276.578 69.825C277.083 71.9574 274.506 72.0474 274.576 74.0517L273.717 74.0816C273.722 74.2248 274.023 74.6443 274.176 74.9256C274.789 76.0509 273.096 76.8267 273.121 77.5425C273.126 77.6857 273.412 77.6757 273.709 77.952L274.138 77.937C273.721 82.395 271.242 81.1915 271.588 82.8995L271.934 84.6074C272.093 85.0319 268.915 88.4396 268.076 89.0422L267.79 89.0522C267.375 89.4967 267.36 89.0672 267.272 90.647C267.993 90.7652 268.724 91.1697 268.754 92.0286L268.769 92.4581C268.492 92.7544 268.063 92.7694 267.776 92.7794C266.058 92.8394 264.454 92.0354 263.881 92.0554C263.595 92.0654 263.6 92.2086 263.6 92.2086C263.743 92.2036 264.039 92.4799 264.044 92.6231C264.054 92.9094 263.916 93.0576 263.773 93.0626C263.768 92.9194 263.328 92.6481 262.899 92.6631C262.756 92.6681 262.623 92.9594 262.628 93.1026L261.769 93.1326C260.066 93.622 256.788 94.1665 255.698 95.7813L255.856 96.2058C252.563 96.3207 253.043 97.7373 251.468 97.7923C251.038 97.8073 250.787 98.8195 250.807 99.3921C250.837 100.251 252.535 99.6184 253.251 99.5934C254.145 100.566 254.866 100.684 255.745 101.226C255.903 101.651 256.046 101.646 256.332 101.636C256.762 101.621 257.186 101.463 257.176 101.176C257.191 101.606 257.201 101.892 257.349 102.03L257.922 102.01C257.789 102.302 257.794 102.445 257.794 102.445C258.12 103.58 261.365 106.19 263.537 106.831L263.967 106.816C264.969 106.781 265.571 107.62 265.749 108.617C265.463 108.627 264.063 113.693 264.068 113.836L264.083 114.265C264.098 114.695 263.965 114.986 263.98 115.416L263.995 115.845C263.422 115.865 263.284 116.013 263.294 116.3C263.309 116.729 263.897 117.139 263.912 117.568C263.917 117.711 263.927 117.998 263.789 118.146L263.216 118.166C262.372 118.625 262.254 119.346 262.289 120.348C262.299 120.635 262.615 121.483 262.758 121.478L263.045 121.468L263.223 122.466C261.545 123.671 259.518 127.182 260.155 129.023C260.313 129.447 260.497 130.588 260.926 130.573C261.099 131.427 261.119 131.999 260.418 132.454C259.984 132.326 259.544 132.054 259.401 132.059C259.115 132.069 259.125 132.356 259.14 132.785C259.145 132.928 259.298 133.21 259.733 133.338C259.614 134.058 258.825 136.093 258.313 137.831L258.17 137.836C256.828 140.463 256.192 142.778 256.983 144.901C257.141 145.325 257.166 146.041 257.611 146.455C257.626 146.885 255.696 149.102 255.929 151.674C256.359 151.659 256.66 152.079 257.095 152.207C257.248 152.488 254.911 159.45 255.084 160.304C255.589 162.436 256.867 162.105 256.882 162.534C256.907 163.25 255.752 163.004 256.068 163.853C256.226 164.277 259.91 167.159 261.056 167.119L261.485 167.104C262.992 169.201 266.106 168.089 267.153 169.343C268.284 168.873 271.946 167.025 271.268 164.039L271.984 164.014C271.801 162.873 272.487 161.989 273.346 161.959L273.775 161.944C273.429 160.237 273.981 159.644 273.956 158.928L273.951 158.785C277.41 155.224 279.157 151.866 279.152 151.723C279.137 151.294 278.139 151.472 278.119 150.899C278.376 150.03 279.15 147.567 279.866 147.542L280.295 147.527L280.117 146.529C280.635 144.935 282.278 142.727 281.487 140.605C281.329 140.18 281.314 139.751 281.012 139.331C280.997 138.902 281.135 138.754 281.417 138.601C281.861 139.015 282.715 138.842 282.389 137.707C282.226 137.139 280.927 136.898 280.922 136.754C280.912 136.468 283.213 136.674 282.58 134.977L282.422 134.552C282.126 134.276 282.121 134.133 281.968 133.851C281.513 133.15 282.648 132.824 282.767 132.103L282.752 131.674C282.747 131.531 282.307 131.259 282.302 131.116C282.287 130.687 282.415 130.252 282.687 129.813L281.886 127.404C281.723 126.836 282.127 126.106 282.097 125.247C282.092 125.103 281.633 124.259 281.203 124.274L281.06 124.279C281.474 123.835 281.563 122.255 281.226 120.834C280.88 119.126 279.961 117.438 279.358 116.599L278.786 116.619L278.618 115.908C278.444 115.054 278 114.639 277.397 113.8L276.888 111.525C276.705 110.385 273.194 108.357 272.764 108.372L272.335 108.387C272.157 107.39 271.228 105.416 269.608 104.182C270.748 103.999 271.562 102.681 271.522 101.535C271.517 101.392 271.073 100.978 270.776 100.701L270.756 100.129C270.731 99.413 270.726 99.2699 270.568 98.8454L270.41 98.4209L270.84 98.4059C271.985 98.3659 273.711 94.4355 274.145 94.5637C274.125 93.9911 274.555 93.9761 274.397 93.5516C274.969 93.5316 275.128 93.9561 275.557 93.9411C275.216 92.3763 277.235 92.7358 278.074 92.1332C278.652 92.2563 279.649 92.0782 280.365 92.0532C281.224 92.0232 282.457 90.4034 283.316 90.3734C285.448 89.8689 288.819 87.8878 288.819 87.8878C289.535 87.8629 289.693 88.2873 290.123 88.2723C291.411 88.2273 291.949 87.2052 292.215 86.6226ZM293.725 84.7065C293.167 85.156 293.187 85.7286 293.489 86.1481C293.775 86.1381 293.918 86.1331 294.219 86.5526C296.184 85.3373 297.763 85.4255 299.575 83.9289L298.987 83.5194C296.84 83.5944 294.998 84.232 293.725 84.7065ZM268.629 100.776C267.913 100.801 267.222 101.542 267.371 101.68C267.667 101.957 267.968 102.376 268.27 102.796C268.428 103.22 268.146 103.373 268.003 103.378L267.712 103.245C267.574 103.393 267.154 103.695 266.725 103.71C265.866 103.74 265.826 102.594 264.108 102.654C263.106 102.689 261.546 103.174 260.544 103.209C259.685 103.239 258.954 102.834 258.781 101.98C258.603 100.983 258.726 100.406 259.866 100.222L262.142 99.713C263.84 99.0803 265.083 97.7469 267.517 97.6619C268.09 97.6419 269.333 96.3085 270.059 96.5698C270.222 97.1374 269.413 98.599 269.438 99.3148L269.443 99.458C269.468 100.174 269.631 100.741 268.772 100.771L268.629 100.776ZM271.32 112.149C272.224 113.408 273.261 114.375 274.717 115.041C274.589 115.475 274.747 115.9 274.905 116.324C275.538 118.022 276.876 119.409 277.203 120.544C277.366 121.112 277.381 121.541 277.11 121.981C277.697 122.39 277.707 122.676 277.865 123.101C277.712 122.82 277.797 125.253 277.255 126.132C277.97 126.107 277.985 126.537 278.563 126.66L278.993 126.645C279.136 126.64 279.432 126.916 279.437 127.06C279.462 127.775 278.72 135.255 277.59 135.724C278.592 135.689 278.775 136.829 279.106 138.108C275.957 138.218 278.865 139.406 277.36 141.466L277.365 141.609C277.375 141.895 277.39 142.325 277.109 142.478L277.267 142.902C277.583 143.751 276.576 143.643 276.739 144.211L277.081 145.775L276.651 145.79L276.666 146.22C276.671 146.363 274.194 149.316 274.342 149.454C274.342 149.454 274.352 149.741 274.495 149.736C274.659 150.303 273.37 150.348 273.385 150.778C273.395 151.064 274.274 151.607 274.304 152.466L274.319 152.895L272.887 152.945C270.968 155.449 269.77 158.071 267.697 160.293L266.838 160.323C264.834 160.393 263.407 160.586 262.129 160.918L261.941 159.634C261.773 158.924 261.328 158.509 260.899 158.524L260.884 158.095C261.313 158.08 262.295 157.472 262.142 157.191L261.52 155.779C261.366 155.498 261.796 155.483 261.791 155.34L261.781 155.053C261.776 154.91 261.766 154.624 262.047 154.471C261.465 154.204 261.173 154.071 261.005 153.36C262.58 153.305 261.216 151.203 262.055 150.6L261.611 150.186C262.312 149.731 262.43 149.01 262.257 148.156L262.686 148.141C262.656 147.282 263.036 145.836 263.006 144.977C262.996 144.691 262.991 144.547 262.694 144.271L262.363 142.993C262.506 142.988 262.788 142.835 262.778 142.548L262.773 142.405C263.202 142.39 263.192 142.104 263.617 141.946C263.463 141.664 263.019 141.25 263.014 141.107C262.974 139.961 263.798 138.929 263.63 138.218C263.467 137.651 261.992 140.569 261.942 139.137C261.927 138.708 261.615 138.002 262.045 137.987L263.477 137.937C263.56 136.214 263.5 134.496 264.457 133.173L264.012 132.758C263.849 132.191 264.841 131.869 264.826 131.44C264.821 131.297 264.234 130.887 264.224 130.601C264.219 130.458 264.209 130.171 264.49 130.018L264.189 129.599C265.477 129.554 265.304 128.7 265.259 127.411C265.249 127.125 264.805 126.71 264.646 126.286C263.228 122.609 267.819 122.735 266.81 118.47L266.474 117.049L266.903 117.034C267.022 116.313 268.034 116.564 268.305 116.125L267.964 114.56C267.612 112.709 268.155 111.83 268.673 110.235C269.961 110.19 270.564 111.029 271.161 111.725L271.32 112.149ZM276.25 142.508C275.677 142.528 275.662 142.098 275.228 141.97C275.248 142.543 274.818 142.558 274.69 142.992C275.406 142.967 275.564 143.392 275.993 143.377C275.835 142.952 276.26 142.794 276.25 142.508ZM363.408 77.113C362.054 75.2969 359.382 72.6668 357.664 72.7268L356.81 72.9C355.951 72.93 356.331 71.4834 355.472 71.5134L355.042 71.5284L355.067 72.2442L354.638 72.2592C354.583 70.6844 352.762 71.8947 352.431 70.6162C349.424 70.7212 347.462 76.0932 343.024 76.2482L342.767 77.1171C342.772 77.2603 342.807 78.2624 342.664 78.2674L342.378 78.2774C340.517 78.3424 331.468 90.1253 331.099 91.8582L330.383 91.8832C330.23 91.6019 330.225 91.4587 329.938 91.4687C329.509 91.4837 329.446 93.7793 329.031 94.2237L329.046 94.6532C327.911 94.9796 327.961 96.4112 327.107 96.5843C327.408 97.0038 327.566 97.4283 327.581 97.8578C327.646 99.7189 326.714 101.758 326.779 103.619C326.824 104.908 327.002 105.905 327.891 106.734L327.981 109.311C328.431 109.868 328.476 111.157 329.631 111.403L329.671 112.548C330.56 113.377 333.765 114.842 333.335 114.857C333.621 114.847 333.612 114.561 333.755 114.556C335.563 117.073 337.76 118.429 340.337 118.339C341.053 118.314 341.62 118.151 342.306 117.267L342.736 117.252C343.313 117.375 343.743 117.36 344.459 117.335C348.467 117.195 352.222 113.911 355.051 112.809L355.48 112.794C355.928 109.195 363.519 104.916 363.384 101.051L362.954 101.066C362.381 101.086 359.628 104.335 357.767 104.4C357.338 104.415 357.046 104.282 356.607 104.011C356.622 104.44 356.489 104.732 356.059 104.747L355.763 104.47C355.788 105.186 355.363 105.344 354.934 105.359C354.361 105.379 353.399 106.56 352.97 106.575L352.683 106.585L352.703 107.157C353.133 107.142 353.429 107.419 353.434 107.562C353.449 107.991 352.472 108.742 351.183 108.787C350.611 108.807 350.325 108.817 350.176 108.679C350.596 108.378 351.035 108.649 350.719 107.8L348.167 108.606C347.778 109.766 346.05 109.54 346.07 110.112C346.095 110.828 346.396 111.248 346.401 111.391C346.401 111.391 346.411 111.677 346.125 111.687C345.972 111.406 345.972 111.406 345.542 111.421L344.254 111.466C343.824 111.481 343.395 111.496 343.078 110.647C343.789 110.479 345.088 110.72 345.196 109.713L344.628 109.876C341.647 110.697 339.884 109.468 337.593 109.548C337.164 109.563 336.724 109.292 336.295 109.307C336.305 109.593 336.023 109.747 335.865 109.322C335.865 109.322 335.574 109.189 335.564 108.903C334.354 107.081 332.369 107.724 332.329 106.579C332.319 106.292 332.601 106.139 332.591 105.853C332.586 105.71 332.284 105.29 332.274 105.004C332.224 103.572 331.627 102.877 333.147 101.247L334.39 99.9134C334.779 98.7531 335.905 98.1405 335.845 96.4225L335.415 96.4375L335.4 96.008C335.37 95.1491 335.913 94.2701 335.883 93.4111C335.873 93.1248 335.858 92.6953 335.705 92.414C335.72 92.8435 335.443 93.1398 335.014 93.1548C334.871 93.1598 334.861 92.8735 334.575 92.8835L334.68 95.8899C333.692 96.3544 333.283 96.942 332.138 96.982L331.708 96.997L331.673 95.9949C331.678 96.138 332.118 96.4093 332.404 96.3993C333.263 96.3694 334.24 95.6186 334.22 95.0459C334.205 94.6164 334.052 94.3351 333.761 94.2019C333.652 95.2091 332.803 95.5254 331.658 95.5654C332.487 94.6764 333.632 94.6364 333.602 93.7775C333.592 93.4911 333.286 92.9285 333.128 92.504C333.572 92.9185 333.716 92.9135 334.002 92.9035C334.861 92.8735 334.939 91.0074 336.217 90.6761L336.277 92.394C337.852 92.339 337.945 90.9024 339.224 90.5711C339.036 89.2876 338.142 88.3155 338.122 87.7429C338.122 87.7429 338.511 86.5826 339.37 86.5526C340.229 86.5226 339.855 88.1124 340.719 88.2255C341.276 87.776 341.558 87.6229 341.543 87.1934C341.528 86.7639 340.367 86.3744 340.352 85.9449C340.342 85.6586 340.342 85.6586 340.624 85.5055C341.068 85.9199 341.498 85.905 341.927 85.89C343.645 85.83 344.552 83.0749 345.652 81.7465C345.672 82.3191 346.102 82.3041 346.27 83.0149L346.7 82.9999C347.549 82.6836 347.37 81.6865 348.373 81.6515L348.802 81.6365L348.792 81.3501C348.757 80.348 350.49 80.7175 351.324 79.9717L351.753 79.9567C353.328 79.9017 355.352 80.4044 355.752 79.5304L355.727 78.8146L356.443 78.7896C357.302 78.7596 357.425 78.182 358.284 78.152L359 78.127L359.02 78.6996C359.045 79.4154 359.474 79.4004 360.047 79.3804L362.624 79.2904C363.038 78.846 363.739 78.3915 363.709 77.5325C363.709 77.5325 363.699 77.2462 363.398 76.8267L363.408 77.113ZM336.767 94.097C337.591 93.0648 339.156 92.7235 339.249 91.2869C338.267 91.8945 336.993 92.369 336.767 94.097ZM346.461 113.109C346.456 112.966 346.446 112.679 346.145 112.26C346.86 112.235 346.599 112.961 346.9 113.38C347.759 113.35 347.878 112.629 348.737 112.599C348.797 114.317 347.528 114.935 346.096 114.985C345.667 115 344.946 114.882 344.793 114.6C344.901 113.593 346.506 114.397 346.461 113.109ZM410.867 118.6L411.297 118.585C408.946 116.947 407 114.578 406.317 111.449C404.246 105.501 407.289 98.2277 408.048 95.3345C408.289 94.036 407.129 93.6466 407.38 92.6344L409.197 91.281C408.144 89.8844 408.76 86.9961 409.288 85.6877C410.738 82.0537 413.046 78.3897 414.057 74.4843C414.436 73.0377 412.826 72.0906 413.068 70.7921C409.981 68.6065 407.296 69.7036 404.418 69.3741C404.275 69.3791 404.28 69.5223 404.142 69.6705C404.754 70.7957 404.458 70.5194 405.337 71.0621C405.008 73.9403 399.13 78.0156 397.196 80.0899C396.643 80.6825 397.132 82.3854 396.432 82.8399C395.603 83.7289 394.033 83.927 393.352 84.9542C392.799 85.5468 393.131 86.8253 392.583 87.5611C392.159 87.7192 391.734 87.8774 391.315 88.1787C390.096 90.228 388.586 92.144 387.373 94.3365C384.466 97.3047 378.51 103.246 377.209 107.018L376.35 107.048C376.536 104.175 377.527 99.6971 379.036 97.781C378.137 96.6657 379.164 97.3465 377.999 96.8138C378.705 96.5025 378.137 96.6657 379.288 96.7688L380.846 92.1277C381.541 91.53 380.841 91.9845 380.243 91.2887C380.662 90.9874 380.806 90.9824 381.803 90.8042C381.615 89.5208 381.921 90.0834 381.466 89.3826C381.466 89.3826 381.12 87.6747 381.723 88.5137C382.014 88.6468 382.157 88.6418 382.305 88.78C382.527 86.9089 382.027 84.9196 383.695 83.428C382.796 82.3127 383.093 82.5891 382.209 81.9032C383.299 80.2885 385.155 80.0803 385.361 77.7797C385.203 77.3553 385.494 77.4884 384.774 77.3703C384.615 76.9458 384.606 76.6595 384.596 76.3731C385.613 76.7676 385.326 76.7776 386.062 77.3253C386.303 76.0268 386.303 76.0268 387.142 75.4242C386.555 75.0147 386.555 75.0147 385.548 74.9065C385.784 73.4649 385.671 74.3289 387.107 74.422C386.643 73.4349 386.658 73.8644 386.06 73.1686L386.49 73.1536C386.746 72.2846 386.633 73.1486 387.507 73.5481C387.156 71.697 387.186 72.556 386.262 70.7248C388.088 69.6577 388.64 69.0651 390.18 68.008C390.165 67.5785 390.155 67.2922 390.002 67.0108C389.726 67.3072 389.593 67.5985 389.321 68.038L388.462 68.068C388.772 64.6171 391.125 62.2415 391.593 59.2151C392.748 59.4615 392.319 59.4765 393.198 60.0191C393.178 59.4465 393.311 59.1551 393.434 58.5775C394.13 57.9799 393.143 58.4443 392.545 57.7485C393.917 55.9806 399.01 41.7558 398.249 40.4924C399.078 39.6034 400.648 39.4053 400.89 38.1068L400.217 35.2636C401.214 35.0854 402.058 34.6259 403.193 34.2996C405.256 31.7909 404.776 30.3743 404.608 29.6635C406.133 28.1769 406.384 27.1647 407.904 25.535C408.318 25.0905 408.11 23.2344 408.959 22.9181C408.47 21.2151 408.628 21.6396 407.99 19.7985C407.842 19.6604 407.699 19.6654 407.546 19.384C406.539 19.2759 405.675 19.1627 404.663 18.9114C404.509 18.6301 404.346 18.0624 404.188 17.6379L401.152 16.8839C399.86 20.9424 398.011 25.4504 396.704 29.0795C395.865 29.6821 395.121 33.0048 394.712 33.5924C393.543 37.0733 393.455 38.6531 392.287 42.134C391.591 42.7316 391.038 43.3242 390.491 44.06C389.036 47.5509 389.6 51.4013 386.383 53.6637C387.292 55.0653 386.556 54.5176 387.706 54.6208C387.628 56.4869 387.296 55.2084 386.181 56.1074C387.06 56.6501 386.942 57.3709 386.676 57.9535C386.419 58.8225 386.389 57.9635 385.515 57.564C385.309 59.8646 380.028 72.8059 379.884 72.8109C380.487 73.6499 380.191 73.3736 380.635 73.788L380.65 74.2175L379.362 74.2625L380.014 76.5331L378.583 76.5831C378.989 80.009 376.156 80.9679 376.66 83.1003L375.229 83.1503C375.565 84.5719 375.13 84.4438 375.723 84.9964C375.215 86.8775 373.819 87.9296 372.749 90.1171C373.494 90.951 373.431 93.2466 373.288 93.2516L371.856 93.3016C371.595 94.0274 373.082 95.5522 372.406 96.7225C371.986 97.0238 370.881 98.2091 370.758 98.7867L371.421 101.344L370.418 101.379C370.014 102.109 370.217 103.822 370.87 106.093L369.438 106.143C369.498 107.861 369.741 110.719 369.342 111.593C371.886 114.658 372.646 115.921 376.685 116.64C377.124 116.911 376.833 116.778 377.702 117.035C378.544 112.418 385.472 105.583 385.234 102.868C385.47 101.426 385.659 102.71 386.206 101.974C387.46 100.927 387.045 101.371 386.699 99.6634C387.982 99.4753 387.266 99.5003 388.417 99.6034C391.944 93.8902 400.196 88.0119 403.371 80.4475L404.23 80.4176L403.052 83.6121L403.112 85.33L401.597 87.1029L400.926 88.4164L401.308 91.1265L400.898 91.7141L399.956 93.467L399.873 95.19L399.089 97.3674L398.848 98.6658L398.626 100.537L399.842 102.501L398.593 103.691L398.806 105.691L400.001 107.082L399.489 108.82L400.98 110.488L402.043 112.171L403.386 113.701L404.883 115.512L404.631 116.524L407.381 117.288L409.885 119.207L410.867 118.6ZM386.518 57.529C386.058 56.6851 386.359 57.1045 385.91 56.5469C385.925 56.9764 385.93 57.1195 386.088 57.544L386.518 57.529ZM390.575 66.9908C389.977 66.295 390.273 66.5714 389.829 66.1569C389.834 66.3 389.992 66.7245 390.002 67.0108L390.575 66.9908ZM373.946 107.992C373.65 107.716 373.64 107.43 373.63 107.143L374.489 107.113C374.642 107.395 374.652 107.681 374.948 107.957L373.946 107.992ZM460.426 72.435L460.831 71.7042C460.657 70.8503 460.474 69.71 460.148 68.5747C460.113 67.5726 459.239 67.1731 458.237 67.2081L457.521 67.2331L457.506 66.8036C456.069 66.7104 455.773 66.4341 453.902 66.2128C454.228 67.3481 453.696 68.5133 453.706 68.7997L452.517 71.7079C452.384 71.9992 452.532 72.1374 452.251 72.2905L451.57 73.3177L451.141 73.3326C450.425 73.3576 450.113 72.6518 449.521 72.0992L449.358 71.5315C449.046 70.8257 448.335 70.9939 448.172 70.4263L447.027 70.4662C446.603 70.6244 446.904 71.0439 446.618 71.0539L445.492 71.6665C445.349 71.6715 445.65 72.091 445.512 72.2392C445.211 71.8197 444.485 71.5584 444.199 71.5684L444.056 71.5734L442.205 71.9247L442.363 72.3492C442.244 73.07 441.84 73.8008 441.421 74.1021L439.288 74.6066C437.284 74.6765 433.49 80.9725 433.89 80.0985C431.911 80.8843 425.186 89.4326 425.236 90.8642C423.518 90.9242 423.558 92.0695 422.734 93.1016C423.163 93.0866 423.454 93.2198 423.469 93.6493C422.073 94.7014 422.824 95.6785 422.706 96.3993C420.297 97.2001 418.857 101.12 418.942 103.554C418.952 103.841 418.962 104.127 419.258 104.403C418.399 104.433 418.138 105.159 418.158 105.732C418.203 107.02 419.403 108.555 421.141 109.068L421.156 109.497C420.875 109.65 420.732 109.655 420.88 109.793C421.339 110.637 423.665 111.559 423.235 111.574L423.665 111.559L423.705 112.705C424.845 112.522 424.094 111.544 424.943 111.228C425.373 111.213 425.403 112.072 425.832 112.057L426.978 112.017C426.983 112.16 427.279 112.437 427.708 112.422C431.287 112.297 429.223 110.649 430.497 110.174C430.512 110.604 430.808 110.88 430.951 110.875C431.237 110.865 431.232 110.722 431.217 110.292L431.202 109.863L431.913 109.695C432.481 109.532 434.114 107.038 434.129 107.467C434.114 107.038 433.971 107.043 433.669 106.623C434.37 106.169 436.399 106.815 435.925 105.541L435.772 105.26L436.616 104.8C436.606 104.514 437.02 104.07 437.005 103.64L436.99 103.211L437.42 103.196L438.623 100.717L439.063 100.988C439.206 100.983 439.206 100.983 439.201 100.84C439.206 100.983 439.354 101.121 439.354 101.121C439.783 101.106 440.454 99.7929 440.869 99.3485L441.155 99.3385C441.999 98.879 442.424 98.7208 442.409 98.2913C442.389 97.7187 442.665 97.4224 442.369 97.146C443.079 96.9779 443.928 96.6616 444.037 95.6544L445.373 92.8844C446.089 92.8594 446.31 90.9883 447.021 90.8201L446.352 96.2903C446.658 96.8529 446.392 97.4356 446.422 98.2945C446.339 100.017 446.429 102.594 446.439 102.881C446.464 103.596 446.627 104.164 446.923 104.44C446.499 104.599 446.228 105.038 446.386 105.463C446.855 106.593 447.285 106.578 447.3 107.007C447.305 107.151 446.757 107.886 446.782 108.602C446.812 109.461 447.809 109.283 448.155 110.991C447.869 111.001 448.324 111.702 448.472 111.84C449.657 112.945 449.815 113.37 450.847 114.194L451.721 114.593C452.008 114.583 452.161 114.864 452.166 115.008C452.171 115.151 452.028 115.156 452.033 115.299C452.043 115.585 452.186 115.58 452.472 115.57L452.758 115.56C453.198 115.832 453.351 116.113 454.062 115.945L454.773 115.777C455.202 115.762 455.35 115.9 455.33 115.327L453.849 113.945C453.251 113.25 453.078 112.396 452.347 111.991L451.888 111.147C451.735 110.866 451.305 110.881 451.285 110.308C451.7 109.864 451.69 109.577 451.516 108.723C451.348 108.013 451.313 107.011 451.115 105.441L451.183 103.288C450.862 102.296 451.701 101.694 451.103 100.998C451.098 100.855 451.814 100.83 451.799 100.4L451.779 99.8275C451.922 99.8225 452.332 99.2348 452.317 98.8053C452.302 98.3759 452.005 98.0995 451.862 98.1045C451.862 98.1045 451.729 98.3959 451.443 98.4059C451.013 98.4209 451.003 98.1345 451.003 98.1345C450.998 97.9914 451.275 97.695 451.265 97.4087L451.26 97.2656C451.679 96.9642 451.807 96.5298 451.777 95.6708L452.054 95.3745C452.039 94.945 451.466 94.965 451.461 94.8218C451.456 94.6787 452.172 94.6537 452.152 94.081L452.147 93.9379C452.863 93.9129 452.699 93.3452 453.119 93.0439L453.968 92.7276C453.958 92.4413 453.677 92.5944 453.247 92.6094L452.818 92.6244C453.227 92.0368 453.473 90.8815 453.883 90.2938C453.868 89.8644 453.868 89.8644 453.438 89.8794C453.423 89.4499 453.26 88.8822 453.685 88.7241L454.114 88.7091L454.104 88.4228C454.089 87.9933 454.79 87.5388 454.785 87.3956C454.775 87.1093 454.069 87.4206 454.044 86.7048C454.004 85.5595 455.594 85.934 455.855 85.2082L455.835 84.6356C455.74 81.9155 458.021 81.5492 457.926 78.8291C457.496 78.8441 457.19 78.2815 457.175 77.852L457.16 77.4225L457.59 77.4075C457.595 77.5507 457.738 77.5457 457.738 77.5457C458.024 77.5357 458.305 77.3825 458.444 77.2344L458.26 76.0941C459.549 76.0491 458.798 75.0719 459.652 74.8988L459.341 74.193L458.911 74.208C458.625 74.218 458.195 74.233 458.18 73.8035C458.896 73.7785 458.881 73.349 459.009 72.9145L460.426 72.435ZM447.062 83.7952C446.643 84.0966 446.214 84.1116 446.228 84.541C446.515 84.531 446.663 84.6692 446.663 84.6692C446.678 85.0987 444.482 87.8987 444.354 88.3332L444.369 88.7627C444.379 89.049 444.241 89.1972 443.955 89.2072C443.955 89.2072 443.812 89.2122 443.52 89.079C443.525 89.2222 443.392 89.5135 443.392 89.5135L442.45 91.2664L442.02 91.2814C441.305 91.3064 441.498 92.733 440.925 92.753L440.501 92.9112L440.679 93.9083L439.82 93.9383C440.003 95.0786 440.448 95.4931 440.457 95.7794C440.462 95.9226 440.462 95.9226 440.319 95.9276C440.033 95.9376 440.028 95.7944 439.742 95.8044C439.742 95.8044 439.599 95.8094 439.604 95.9526C439.614 96.2389 439.624 96.5252 439.777 96.8066C439.347 96.8216 439.184 96.2539 439.174 95.9676C439.144 95.1086 439.948 93.5038 439.933 93.0744L439.79 93.0794C438.931 93.1094 439.277 94.8173 437.574 95.3068L437.589 95.7363C437.599 96.0226 437.604 96.1657 437.318 96.1757C437.338 96.7484 436.81 98.0568 436.238 98.0768C435.951 98.0868 435.803 97.9487 435.655 97.8105L434.841 99.1289C434.856 99.5584 428.988 103.92 428.302 104.804C427.34 105.984 426.891 105.427 425.904 105.891C425.306 105.195 425.148 104.771 425.123 104.055C425.093 103.196 425.497 102.465 426.183 101.581L426.603 101.28C426.588 100.851 427.012 100.692 426.997 100.263C426.425 100.283 426.4 99.5671 426.375 98.8513L426.804 98.8363C426.646 98.4118 427.065 98.1105 427.633 97.9473C427.188 97.5328 426.34 97.8491 426.033 97.2865C424.823 95.4654 424.971 95.6035 424.773 94.0338C425.499 94.2951 425.647 94.4333 425.662 94.8627C425.672 95.1491 426.98 95.6767 426.985 95.8199C426.99 95.963 427.144 96.2444 427.563 95.943C427.849 95.933 427.967 95.2122 427.967 95.2122L429.839 95.4336C429.937 94.1401 429.862 91.9927 432.276 91.3351L432.562 91.3251C433.564 91.2901 432.226 89.9035 433.514 89.8585C435.556 86.7771 438.038 83.967 440.136 82.4604L440.116 81.8878L440.545 81.8728C441.547 81.8378 441.369 80.8407 441.641 80.4012L441.927 80.3912C442.929 80.3562 442.751 79.3591 444.039 79.3141L444.326 79.3041C445.471 79.2641 444.705 77.8575 445.994 77.8125L446.423 77.7975L448.219 75.8714L449.478 74.9674C450.347 75.2237 450.658 75.9295 450.668 76.2159C450.823 80.6539 446.204 83.8252 447.062 83.7952ZM445.826 89.4285C445.54 89.4385 445.386 89.1572 445.371 88.7277C445.356 88.2982 445.49 88.0069 445.914 87.8487C446.2 87.8387 446.343 87.8337 446.353 88.1201C446.368 88.5495 445.954 88.994 445.969 89.4235L445.826 89.4285ZM438.751 100.282C438.895 100.277 438.905 100.564 439.058 100.845C438.905 100.564 438.608 100.287 438.751 100.282ZM474.492 109.928C478.099 106.505 480.122 102.851 483.131 98.7326C490.03 91.0383 497.95 83.8816 502.499 78.706C504.142 76.4986 505.021 77.0412 504.275 76.2072L504.705 76.1922C505.099 75.1751 504.853 76.3304 505.579 76.5917C505.825 75.4364 505.712 76.3004 505.385 75.1651C507.483 73.6585 509.912 73.4304 512.009 71.9238C512.848 71.3211 512.986 71.1729 513.79 69.5682C514.536 70.4022 514.95 69.9577 516.066 69.0587C516.041 68.3429 516.767 68.6042 516.742 67.8884C515.305 67.7953 515.157 67.6571 514.456 68.1116C512.324 68.616 506.767 73.6835 504.541 75.6246C496.34 82.9344 488.4 89.5185 480.411 98.8276C479.336 100.872 478.359 101.623 475.606 104.872C475.181 105.03 474.43 104.053 473.863 104.216C473.786 97.9123 477.594 92.0459 479.424 86.9652C480.213 84.931 479.718 83.0849 480.359 80.9125C480.877 79.3177 482.673 77.3916 483.185 75.6537C486.887 62.6242 493.385 43.4769 498.149 32.1304C500.601 28.4614 502.865 23.5089 503.737 19.7517C503.376 17.6143 504.777 16.7053 503.597 15.7432C501.37 13.5276 499.918 13.0049 498.501 13.4844C497.929 13.5044 497.361 13.6676 496.932 13.6826C495.753 16.8771 494.615 21.2169 493.313 24.9891L491.532 27.3447C491.286 28.5 492.584 28.7413 492.461 29.319C491.792 34.7891 488.413 40.6405 487.018 45.8493C486.121 48.8907 484.588 54.2477 483.686 57.1459C482.512 60.4836 481.339 63.8213 480.304 67.0108C480.364 68.7288 479.208 68.4824 479.248 69.6277L478.572 70.798C478.864 70.9312 478.864 70.9312 478.874 71.2175C478.909 72.2196 477.231 73.4249 477.251 73.9976L477.266 74.427C477.306 75.5723 476.236 77.7597 476.251 78.1892L476.256 78.3324C476.142 79.1963 475.308 79.9421 475.323 80.3716L475.328 80.5148C475.418 83.0917 473.454 84.307 473.474 84.8796L473.499 85.5954C473.504 85.7386 473.519 86.1681 473.376 86.1731C472.926 85.6154 470.24 94.8827 469.524 94.9077C469.381 94.9127 469.391 95.199 469.396 95.3422L469.037 97.3615C467.74 101.277 466.966 103.741 466.232 107.35C465.749 109.946 465.37 111.393 466.442 113.362C467.79 115.035 469.36 114.837 470.709 116.51C471.563 116.337 472.417 116.164 473.276 116.134C472.934 114.569 473.384 115.127 472.934 114.569C473.166 112.984 472.568 112.288 473.264 111.691C473.693 111.676 474.261 111.513 474.833 111.493L474.492 109.928ZM498.798 26.0876C500.11 22.6017 502.389 18.0788 502.635 16.9235C503.78 16.8835 500.554 23.0162 499.652 25.9144L499.223 25.9294C499.08 25.9344 498.936 25.9394 498.798 26.0876ZM497.463 33.0143C497.034 33.0293 496.431 32.1904 496.411 31.6177C496.396 31.1882 497.69 31.2864 497.655 30.2843L497.64 29.8548C497.62 29.2822 497.871 28.27 498.399 26.9616C498.434 27.9637 499.21 29.6566 498.499 29.8248C497.798 30.2793 497.893 32.9993 497.463 33.0143ZM485.868 45.7461L486.4 44.5809L487.184 42.4034L487.278 40.9668L489.951 35.4267L490.439 32.973L491.243 31.3682L491.464 29.4971L490.763 29.9516L489.59 33.2893L489.343 34.4446L488.821 35.8962L486.971 40.4042L486.029 42.1571L485.516 43.895L484.999 45.4898L485.044 46.7783L485.237 48.2049L485.868 45.7461ZM484.197 51.2513L484.848 49.3652L484.521 48.2299L483.87 50.116L483.506 51.9921L484.197 51.2513ZM482.219 56.1937L482.056 55.6261L481.237 56.8014L481.865 58.3562L482.219 56.1937ZM478.664 65.2047L479.779 64.3058L480.726 62.696L481.229 60.6717L481.88 58.7856L481.435 58.3712L481.317 59.092L480.488 59.9809L480.435 62.5628L479.191 63.8963L478.377 65.2147L478.571 66.6413L478.664 65.2047ZM477.545 70.1172L477.96 69.6727L478.324 67.7966L477.126 70.4185L477.545 70.1172ZM466.741 109.625L467.649 106.87L468.892 105.537L467.832 108.01L467.902 110.015L466.746 109.768L466.741 109.625ZM525.514 56.4019C525.439 54.2545 528.429 49.5633 528.409 48.9907C528.384 48.2749 527.331 46.8783 527.316 46.4488C527.301 46.0193 530.441 45.623 530.376 43.7619L530.351 43.0461C532.245 39.8265 532.924 34.6427 533.916 34.3214C535.589 32.973 534.181 29.5821 536.293 28.505C536.698 27.7742 537.399 27.3197 537.364 26.3176L537.324 25.1723C537.319 25.0291 537.309 24.7428 536.864 24.3283C538.118 23.2812 539.859 19.7803 539.834 19.0645C539.829 18.9214 539.814 18.4919 539.656 18.0674L539.641 17.6379C539.601 16.4926 539.709 15.4855 539.679 14.6265C539.634 13.3381 540.483 13.0218 540.453 12.1628C540.418 11.1607 540.373 9.87221 538.911 9.06323L538.472 8.79191C536.709 7.56345 536.566 7.56845 535.712 7.7416C535.282 7.7566 534.996 7.7666 535.001 7.90977C534.571 7.92477 534.428 7.92977 534.438 8.21608L534.586 8.35425C534.157 8.36925 534.167 8.65557 534.167 8.65557C534.172 8.79873 532.74 8.84872 532.77 9.70768C532.775 9.85085 532.089 10.7348 532.099 11.0211C532.104 11.1643 531.428 12.3346 531.572 12.3296C531.858 12.3196 532.001 12.3146 532.272 11.8751C532.436 12.4428 532.451 12.8722 532.461 13.1586C532.536 15.306 531.548 15.7704 531.563 16.1999C531.568 16.3431 531.583 16.7726 531.737 17.0539C530.734 17.0889 529.127 20.2984 528.501 22.9003C528.383 23.6211 528.556 24.4751 529 24.8896C529.814 23.5711 530.47 21.8282 530.988 20.2334L532.133 20.1935C532.276 20.1885 532.992 20.1635 533.002 20.4498C533.017 20.8793 529.452 29.6039 528.766 30.4879C528.781 30.9174 528.643 31.0655 528.658 31.495C528.668 31.7813 528.673 31.9245 528.831 32.349C527.567 33.1098 525.861 37.6128 525.615 38.7681L525.635 39.3407C525.71 41.4881 524.308 42.3971 524.378 44.4013L524.398 44.974C523.697 45.4285 523.135 45.7348 523.165 46.5938L523.328 47.1614C523.21 47.8822 521.217 52.3952 519.712 54.4544C518.884 55.3434 513.815 70.284 513.86 71.5724L513.885 72.2882C513.89 72.4314 513.9 72.7177 513.757 72.7227C513.041 72.7477 510.355 82.015 509.905 81.4574C509.762 81.4624 509.777 81.8919 509.782 82.035L509.807 82.7508C509.827 83.3235 507.863 84.5388 507.953 87.1157L507.958 87.2588C507.973 87.6883 507.139 88.4341 507.026 89.2981L507.031 89.4412C507.046 89.8707 505.975 92.0581 506.015 93.2034L506.03 93.6329C506.05 94.2056 504.372 95.4108 504.407 96.413C504.417 96.6993 504.417 96.6993 504.709 96.8324L504.882 97.6864C504.922 98.8317 503.89 98.0077 503.95 99.7257L504 101.157C504.015 101.587 504.03 102.016 503.743 102.026C503.788 103.315 504.278 105.018 504.293 105.447C503.291 105.482 503.019 105.922 502.901 106.642L503.079 107.64C502.675 108.37 500.844 109.294 500.864 109.867L501.506 111.851C501.378 112.286 499.675 112.775 499.695 113.348C499.695 113.348 501.039 114.878 502.332 114.976C503.191 114.946 508.715 113.033 508.65 111.172L508.64 110.885C509.069 110.87 509.479 110.283 509.464 109.853L509.31 109.572C509.28 108.713 509.66 107.266 509.62 106.121C509.56 104.403 508.741 105.578 508.281 104.734C509.14 104.704 509.56 104.403 509.53 103.544L509.515 103.115C511.361 102.62 511.551 95.7335 512.409 95.7035C513.11 95.249 513.238 94.8146 513.223 94.3851L513.193 93.5261C513.178 93.0966 513.163 92.6671 513.578 92.2227C513.573 92.0795 513.42 91.7982 513.42 91.7982L513.098 90.806C513.784 89.9221 514.618 89.1763 514.726 88.1691C514.686 87.0239 515.647 81.6869 516.905 80.7829C516.604 80.3634 516.589 79.934 516.579 79.6476C516.579 79.6476 519.88 75.6623 519.805 73.5149L519.642 72.9472C519.612 72.0883 521.33 72.0283 521.872 71.1493C522.005 70.858 520.559 70.4785 520.529 69.6195C521.245 69.5945 521.999 66.5582 521.999 66.5582C521.707 66.425 521.697 66.1387 521.692 65.9955C521.979 65.9855 522.122 65.9805 522.112 65.6942L522.107 65.551C524.44 62.6028 524.519 60.7367 525.514 56.4019ZM528.018 25.4972C527.589 25.5122 527.287 25.0927 526.853 24.9646C526.873 25.5372 526.73 25.5422 526.458 25.9817C527.174 25.9567 527.332 26.3812 527.762 26.3662L527.757 26.223C527.747 25.9367 528.033 25.9267 528.018 25.4972ZM523.562 41.5631C523.932 39.8302 526.299 33.7274 526.224 31.58L526.209 31.1505C526.174 30.1484 527.467 30.2466 527.452 29.8171C527.432 29.2444 526.83 28.4054 526.4 28.4204C525.971 28.4354 526.066 31.1555 525.365 31.61C524.373 31.9313 526.502 35.4404 524.641 35.5053L524.211 35.5203C523.309 38.4186 522.417 41.6031 523.562 41.5631ZM570.058 92.4003C563.593 96.0662 566.225 97.551 562.093 98.2686C558.687 99.2475 554.932 102.532 550.953 103.531C549.236 103.591 547.671 103.932 546.699 104.826L536.964 105.166C534.801 104.812 534.144 102.398 534.079 100.537C533.954 96.9579 535.27 93.6152 535.16 90.4656C535.13 89.6067 534.957 88.7527 534.927 87.8937C534.897 87.0348 536.211 87.7056 536.171 86.5603C536.166 86.4171 535.864 85.9976 535.854 85.7113C535.839 85.2818 536.126 85.2718 536.269 85.2668C537.987 85.2068 540.609 86.4053 542.766 86.6166C542.628 86.7648 542.628 86.7648 542.638 87.0511C542.653 87.4806 543.231 87.6038 544.089 87.5738C546.666 87.4838 545.318 85.8108 546.893 85.7559C547.475 86.0222 547.777 86.4417 548.636 86.4117L549.495 86.3817C551.356 86.3167 557.573 79.6495 557.573 79.6495C557.558 79.22 557.267 79.0868 557.252 78.6573L557.681 78.6423C558.826 78.6023 559.246 78.301 559.226 77.7284C559.216 77.442 558.91 76.8794 558.895 76.4499C559.156 75.7241 559.724 75.561 559.679 74.2725C559.965 74.2625 560.118 74.5438 560.404 74.5338C560.404 74.5338 560.548 74.5288 560.538 74.2425C560.103 74.1143 559.945 73.6899 559.644 73.2704C560.349 72.959 560.488 72.8109 560.473 72.3814C560.418 70.8066 558.27 70.8816 558.24 70.0227C558.21 69.1637 559.499 69.1187 559.464 68.1166C559.384 65.826 552.713 63.6222 551.711 63.6572C549.564 63.7322 547.441 64.523 545.753 65.442L545.768 65.8714C544.658 66.9136 543.251 67.6794 541.553 68.312L541.124 68.327C539.979 68.367 538.296 69.4291 537.778 71.0239L537.542 72.4655L536.683 72.4955C536.253 72.5105 535.706 73.2463 535.711 73.3894C535.711 73.3894 535.721 73.6758 535.864 73.6708C535.479 74.9742 531.344 79.7054 531.339 79.5622C531.359 80.1348 532.233 80.5343 532.248 80.9638C532.135 81.8278 531.419 81.8528 531.301 82.5736L531.05 83.5857C530.487 83.892 530.226 84.6178 529.663 84.9242C529.762 83.6307 531 82.1541 530.97 81.2951C530.96 81.0088 530.812 80.8706 530.372 80.5993C529.297 82.6436 528.458 83.2462 528.518 84.9641C528.533 85.3936 528.548 85.8231 528.854 86.3858C528.899 87.6742 526.91 88.1737 527.015 91.1801C527.06 92.4685 527.376 93.3175 527.806 93.3025C527.949 93.2975 528.225 93.0012 528.635 92.4135C528.349 92.4235 528.205 92.4285 528.19 91.999C528.175 91.5696 529.177 91.5346 529.132 90.2461C529.102 89.3871 528.939 88.8195 528.643 88.5432C528.929 88.5332 529.083 88.8145 529.083 88.8145C530.657 88.7595 529.856 86.3508 531.145 86.3058C531.431 86.2958 531.446 86.7253 531.456 87.0116C531.501 88.3 530.248 89.3472 530.278 90.2061C530.293 90.6356 530.303 90.9219 530.737 91.0501L530.752 91.4796L530.036 91.5046C530.111 93.652 529.297 94.9704 527.881 95.4499C528.014 95.1586 528.295 95.0054 528.28 94.5759C528.27 94.2896 527.979 94.1565 527.396 93.8901C527.14 94.7591 526.153 95.2236 526.198 96.512C528.059 96.447 527.112 98.0568 529.689 97.9668L530.261 97.9468L530.168 99.3834L529.452 99.4084C529.319 99.6998 529.324 99.8429 529.344 100.416C529.484 104.424 535.637 108.223 535.642 108.366C536.072 108.351 536.215 108.346 536.2 107.916C537.109 109.318 541.049 111.33 544.055 111.225C544.771 111.2 545.339 111.037 545.753 110.593L547.328 110.538C549.179 110.186 549.401 108.315 551.548 108.24L552.55 108.205C552.811 107.48 554.178 105.568 554.889 105.4L555.462 105.38C558.468 105.275 556.502 102.334 558.792 102.254C559.222 102.239 559.242 102.812 559.958 102.787C560.96 102.752 562.06 101.423 562.03 100.564L562.01 99.9915C563.253 98.6581 566.609 96.2475 567.468 96.2175L567.898 96.2025C569.156 95.2986 570.405 94.1083 571.219 92.7898C571.214 92.6467 570.917 92.3704 570.488 92.3853L570.058 92.4003ZM539.696 76.6903C539.829 76.399 539.681 76.2609 539.395 76.2709C539.252 76.2759 539.108 76.2808 538.97 76.429C539.927 75.1056 541.048 74.3498 542.163 73.4508C543.007 72.9913 543.411 72.2605 544.413 72.2255L545.273 72.1955C545.529 71.3266 546.541 71.5779 546.955 71.1334C546.925 70.2744 545.928 70.4526 545.898 69.5936C545.878 69.021 546.722 68.5615 547.152 68.5465C547.295 68.5415 547.586 68.6747 547.596 68.961L549.028 68.911C549.447 68.6097 550.158 68.4415 550.731 68.4215C552.019 68.3765 552.913 69.3487 553.802 70.1776L553.443 72.1969C552.787 73.9398 552.927 77.9483 542.137 80.9052C541.144 81.2265 537.699 81.0602 537.97 80.6207L539.696 76.6903ZM540.688 76.369C540.688 76.369 540.974 76.359 541.399 76.2009C541.783 74.8974 542.786 74.8624 543.18 73.8453C543.17 73.559 543.027 73.564 542.741 73.574C541.882 73.604 540.51 75.3719 540.54 76.2309C540.545 76.374 540.545 76.374 540.688 76.369ZM611.58 78.7668C611.55 77.9079 611.07 76.4913 611.07 76.4913L609.835 73.9543L608.833 73.9893C608.403 74.0043 607.974 74.0193 607.673 73.5999C608.097 73.4417 608.097 73.4417 608.092 73.2985C608.072 72.7259 604.187 72.2882 603.757 72.3032C603.333 72.4614 602.632 72.9159 602.361 73.3553L602.662 73.7748C601.803 73.8048 601.818 74.2343 601.245 74.2543L600.1 74.2943C599.241 74.3243 598.106 74.6506 598.136 75.5096L597.849 75.5196C597.731 76.2404 595.559 75.5996 595.594 76.6017L595.609 77.0312C595.061 77.767 590.59 81.0765 590.655 82.9376L590.512 82.9426C589.939 82.9626 589.949 83.2489 589.969 83.8216L589.994 84.5374C590.009 84.9669 589.876 85.2582 589.447 85.2732L588.158 85.3182C587.299 85.3482 587.023 85.6445 587.043 86.2171C587.053 86.5035 587.053 86.5035 587.211 86.928C585.923 86.9729 585.978 88.5477 585.405 88.5677L584.975 88.5827L582.785 91.5259C582.257 92.8344 578.577 98.2663 577.007 98.4645L580.864 89.873C580.809 88.2982 583.966 84.3179 583.886 82.0273C583.876 81.741 583.59 81.751 583.59 81.751C583.861 81.3115 584.972 80.2694 584.982 80.5557L584.972 80.2694C586.087 79.3704 586.964 75.7564 587.201 74.3148C587.329 73.8803 587.457 73.4458 587.432 72.73C587.141 72.5968 587.116 71.881 587.106 71.5947C587.036 69.5904 587.558 68.1388 584.349 66.5309C583.869 65.1143 580.828 64.2171 577.106 64.3471C577.111 64.4903 576.972 64.6384 576.977 64.7816L577.693 64.7566C579.697 64.6866 579.802 67.693 579.907 70.6994C579.621 70.7094 579.199 75.0242 578.636 75.3305C578.508 75.765 578.523 76.1945 578.538 76.624C578.548 76.9103 578.706 77.3348 579.432 77.5961C578.623 79.0577 576.783 83.852 576.783 83.852L576.798 84.2815C576.818 84.8542 576.537 85.0073 576.562 85.7231C576.183 87.1697 575.497 88.0537 575.547 89.4853L575.562 89.9148C574.718 90.3743 574.17 91.1101 573.771 91.984L573.796 92.6999C573.831 93.702 572.977 93.8751 572.572 94.6059L572.582 94.8923C572.692 98.0418 569.065 100.892 569.25 106.189L569.255 106.332C568.974 106.485 568.835 106.633 568.845 106.92C568.875 107.779 570.204 108.879 570.93 109.14L570.95 109.713C572.954 109.643 572.465 107.94 573.585 107.184L575.16 107.129C575.446 107.119 574.449 107.297 574.459 107.584L574.479 108.156C574.489 108.443 574.642 108.724 574.78 108.576C576.112 105.663 579.121 101.544 581.169 98.6058L581.741 98.5858C581.998 97.7169 582.264 97.1342 583.118 96.961L583.977 96.9311L583.794 95.7908L584.366 95.7708C585.6 94.151 587.569 93.0789 588.22 91.1928L588.778 90.7433C591.146 88.7972 594.018 84.8269 596.361 82.165C596.618 81.296 601.508 77.6852 602.214 77.3739L602.644 77.3589C602.629 76.9294 602.629 76.9294 603.058 76.9144L603.45 79.9108C602.048 80.8197 603.338 84.9314 601.833 86.9907L601.913 89.2812C601.963 90.7129 600.419 91.6268 600.464 92.9153C600.494 93.7742 600.81 94.6232 601.254 95.0377C600.425 95.9266 601.618 101.332 601.623 101.475C601.841 103.617 605.082 110.241 605.808 110.502L606.237 110.487C605.738 108.498 605.668 106.494 605.638 105.635L605.623 105.205C605.613 104.919 605.603 104.633 606.032 104.618C606.027 104.475 607.347 97.1183 607.634 97.1083C607.772 96.9601 608.887 96.0612 608.877 95.7749C608.877 95.7749 607.998 95.2322 607.983 94.8027C607.978 94.6596 607.973 94.5164 608.249 94.2201L608.229 93.6474C609.375 93.6074 609.719 91.1587 610.094 89.5689L610.054 88.4236C610.039 87.9942 611.523 85.3623 611.463 83.6443C611.453 83.358 611.438 82.9285 611.28 82.504L611.388 81.4969C611.373 81.0674 611.22 80.7861 610.889 79.5076L611.318 79.4926C611.318 79.4926 611.59 79.0532 611.58 78.7668ZM661.393 117.878C660.549 118.338 659.675 117.938 658.673 117.973C658.244 117.988 657.804 117.717 657.375 117.732L657.36 117.302C657.325 116.3 656.466 116.33 656.436 115.471C656.579 115.466 658.192 112.4 658.177 111.97C658.167 111.684 658.024 111.689 657.589 111.561L657.16 111.576C657.707 110.84 658.546 110.237 658.516 109.378C658.506 109.092 658.348 108.668 657.914 108.539C658.486 108.519 658.906 108.218 659.33 108.06C659.285 106.771 658.826 105.927 658.796 105.069C658.781 104.639 659.052 104.2 659.61 103.75L659.57 102.605C659.525 101.316 659.189 99.8947 659.134 98.3199C658.964 93.4524 657.766 87.9042 656.659 84.9328C654.915 80.1203 653.501 76.5862 652.967 73.5948C652.922 72.3064 653.632 72.1382 653.622 71.8519C653.607 71.4224 652.877 71.0179 652.862 70.5885C652.857 70.4453 653.133 70.149 653.706 70.129C653.716 70.4153 654.007 70.5485 654.007 70.5485C654.866 70.5185 656.049 67.4671 656.449 66.5931C656.163 66.6031 656.019 66.6081 656.004 66.1786L655.989 65.7492C657.248 64.8452 659.29 61.7638 659.26 60.9049L659.255 60.7617L658.826 60.7767C658.396 60.7917 658.258 60.9398 657.829 60.9548C657.542 60.9648 657.404 61.113 657.133 61.5525L656.171 62.7328C655.623 63.4686 655.184 63.1973 653.92 63.9581L653.491 63.9731C653.451 62.8278 652.404 61.5743 649.827 61.6643C649.397 61.6793 646.918 60.4758 646.943 61.1916L646.958 61.6211C646.534 61.7793 646.104 61.7943 646.129 62.5101L646.134 62.6532L644.417 62.7132C642.985 62.7632 643.904 64.4512 643.484 64.7525C643.198 64.7625 642.759 64.4912 642.615 64.4962C640.182 64.5811 637.35 69.6968 634.823 71.2184L634.838 71.6479L634.409 71.6629C633.994 72.1073 633.861 72.3987 633.876 72.8281C633.891 73.2576 634.049 73.6821 634.054 73.8253C634.064 74.1116 634.064 74.1116 633.921 74.1166C633.635 74.1266 633.205 74.1416 632.618 73.7321C631.804 75.0506 631.532 75.49 631.434 76.7835L631.464 77.6425L630.605 77.6725C629.761 78.1319 627.467 82.2254 627.462 82.0823L625.601 82.1473C624.551 84.9073 621.552 89.3122 620.703 89.6285L620.718 90.0579C619.889 90.9469 619.035 91.1201 619.09 92.6948L619.105 93.1243L618.675 93.1393C617.989 94.0233 617.047 95.7762 617.092 97.0647C617.097 97.2078 617.112 97.6373 617.265 97.9186L617.695 97.9036L617.745 99.3353C617.76 99.7647 617.775 100.194 617.345 100.209L616.916 100.224C616.072 100.684 617.001 102.658 616.147 102.831C615.989 102.407 616.112 101.829 615.539 101.849C615.569 102.708 616.014 103.122 616.019 103.266C616.034 103.695 615.614 103.996 615.634 104.569C615.764 108.291 621.887 111.231 621.897 111.517C621.902 111.66 622.485 111.927 622.914 111.912C623.773 111.882 624.193 111.58 624.178 111.151L624.607 111.136C624.617 111.422 624.908 111.555 624.908 111.555L625.051 111.55C625.353 111.97 625.506 112.251 625.935 112.236C626.794 112.206 627.91 111.307 627.885 110.591L628.887 110.556C630.002 109.657 631.625 106.877 631.565 105.159L631.535 104.3C631.51 103.585 631.925 103.14 632.784 103.11L632.769 102.681C634.472 102.191 634.841 100.458 635.798 99.1348C635.369 99.1498 635.221 99.0117 635.211 98.7253C635.196 98.2958 635.595 97.4219 635.733 97.2737L635.703 96.4147L636.133 96.3997C636.839 96.0884 636.962 95.5108 637.233 95.0713L638.58 92.5876C639.788 90.252 644.169 84.3656 644.702 83.2003C645.802 81.8718 647.785 77.0725 648.787 77.0375C649.216 77.0225 649.276 78.7405 649.608 80.0189L650.037 80.0039C650.042 80.1471 649.766 80.4434 649.771 80.5866C649.796 81.3024 650.517 81.4205 650.547 82.2795C650.562 82.709 650.275 82.719 650.305 83.578C650.405 86.4412 651.714 86.9688 651.759 88.2573L651.814 89.8321C651.874 91.55 652.333 92.394 652.348 92.8235C652.353 92.9666 652.363 93.2529 652.24 93.8306L652.595 103.995C652.17 104.153 652.185 104.583 652.21 105.298C652.255 106.587 652.745 108.29 652.76 108.719C652.78 109.292 652.36 109.593 652.38 110.166L652.395 110.595C651.961 110.467 651.675 110.477 651.675 110.477C651.531 110.482 652.42 111.311 652.45 112.17L652.465 112.6C652.036 112.615 651.626 113.202 651.636 113.489C651.656 114.061 652.229 114.041 652.53 114.461C651.83 114.915 651.272 115.365 651.312 116.51L650.882 116.525C650.641 117.823 650.257 119.127 648.539 119.187C647.68 119.217 646.806 118.817 646.376 118.832C646.376 118.832 646.233 118.837 646.238 118.981L646.693 119.681L644.975 119.741C644.535 119.47 644.244 119.337 643.814 119.352C643.242 119.372 642.541 119.826 642.126 120.271L641.697 120.286C638.153 121.413 635.255 120.511 632.155 122.052C631.439 122.077 631.454 122.507 630.882 122.527C630.452 122.542 630.018 122.414 629.588 122.429C628.443 122.469 628.033 123.056 627.476 123.506L626.187 123.551C624.667 125.181 621.058 124.447 621.123 126.308L619.835 126.353C618.69 126.393 617.846 126.852 617.431 127.297L616.429 127.332C615.595 128.077 613.438 127.866 613.206 129.451L612.347 129.481C610.506 130.119 607.274 131.951 607.299 132.667L606.44 132.697C606.311 133.132 606.03 133.285 605.887 133.29C605.601 133.3 605.457 133.305 605.166 133.172C604.322 133.631 603.069 134.678 602.936 134.97L602.921 134.54C600.931 135.04 601.011 137.33 600.152 137.36C599.723 137.375 599.575 137.237 598.834 136.546C598.291 137.425 598.015 137.722 598.03 138.151C598.035 138.294 598.05 138.724 598.351 139.143C601.9 138.159 605.128 136.183 607.389 135.244C607.404 135.674 607.68 135.377 607.823 135.372C609.481 133.594 621.668 129.585 622.067 128.711C623.474 127.946 627.596 126.942 627.166 126.957L628.168 126.922C628.598 126.907 629.324 127.168 629.753 127.153C630.183 127.138 630.316 126.847 630.301 126.417L630.286 125.988L630.715 125.973C631.554 125.37 633.529 124.441 633.242 124.451C634.101 124.421 634.392 124.554 634.536 124.549C634.822 124.539 634.965 124.534 635.819 124.361C636.254 124.489 636.683 124.474 637.113 124.459C639.689 124.369 643.495 122.516 646.787 122.401C647.647 122.371 648.229 122.638 649.093 122.751C649.153 124.469 648.304 124.785 648.319 125.215L648.324 125.358C648.191 125.649 648.354 126.217 647.925 126.232L647.495 126.247L647.51 126.676C647.55 127.822 646.691 127.852 646.578 128.716C647.151 128.696 647.442 128.829 647.442 128.829C647.457 129.258 646.613 129.718 646.628 130.147L647.201 130.127C647.916 130.102 648.055 129.954 648.045 129.668C648.03 129.238 647.871 128.814 647.866 128.671C647.852 128.241 648.281 128.226 648.424 128.221C648.854 128.206 648.874 128.779 649.17 129.055C648.484 129.939 648.815 131.217 647.527 131.262L646.239 131.307C645.972 131.89 645.844 132.325 645.425 132.626L645.395 131.767L644.249 131.807L644.284 132.809C644.329 134.098 643.101 135.86 642.696 136.591C642.731 137.593 642.618 138.457 642.357 139.183L643.96 135.83C646.072 134.753 647.291 132.704 648.959 131.212L649.388 131.197C649.664 130.901 649.659 130.758 649.649 130.472C649.644 130.329 649.348 130.052 649.333 129.623C649.318 129.193 650.034 129.168 650.019 128.739C649.989 127.88 649.258 127.475 649.243 127.046C649.238 126.903 649.238 126.903 649.658 126.601C650.843 127.707 650.818 126.991 651.732 128.536C652.229 126.368 655.033 124.55 654.963 122.546L654.928 121.544C654.918 121.258 654.883 120.255 655.455 120.235L655.47 120.665C655.485 121.094 655.777 121.228 655.92 121.223C656.349 121.208 656.759 120.62 657.475 120.595L657.904 120.58C658.906 120.545 659.163 119.676 660.165 119.641L663.028 119.541C662.973 117.966 661.724 119.156 661.393 117.878ZM651.779 68.3329C651.493 68.3429 651.498 68.486 651.365 68.7774C650.684 69.8045 647.633 68.621 647.693 70.339C647.258 70.2108 646.819 69.9395 646.799 69.3668C646.789 69.0805 646.784 68.9373 647.213 68.9223C648.062 68.606 648.304 67.3076 649.592 67.2626C649.735 67.2576 650.175 67.5289 650.461 67.5189C651.463 67.4839 651.853 66.3236 652.569 66.2986C652.712 66.2936 653.008 66.57 653.156 66.7081C651.724 66.7581 652.337 67.8834 651.923 68.3279L651.779 68.3329ZM646.786 73.094C646.683 74.2443 645.72 75.4246 644.665 78.0415C644.004 79.6413 643.333 80.9547 642.949 82.2582L642.964 82.6876C642.831 82.979 642.55 83.1321 642.406 83.1371C642.12 83.1471 641.735 84.4506 641.296 84.1792C639.623 85.5277 639.5 86.1053 637.734 88.8904L637.774 90.0357L636.915 90.0657C633.885 93.6115 628.868 101.814 626.02 102.343L625.018 102.378C624.578 102.107 624.287 101.974 624.144 101.979C623.285 102.009 623.833 101.273 623.758 99.1253L623.723 98.1231C623.718 97.98 623.584 98.2713 623.584 98.2713C623.298 98.2813 623.293 98.1381 623.278 97.7087C623.253 96.9929 624.122 97.2492 624.097 96.5334L624.092 96.3902C625.597 94.331 629.84 88.5927 629.775 86.7316L629.765 86.4453L630.194 86.4303C631.033 85.8276 632.164 85.3582 632.109 83.7834L632.094 83.3539C632.523 83.3389 632.953 83.3239 632.938 82.8944L632.923 82.4649C633.49 82.3018 642.88 72.0837 642.594 72.0937L642.88 72.0837C644.159 71.7524 643.398 70.4889 645.116 70.4289C645.975 70.3989 645.591 71.7024 646.459 71.9587L646.889 71.9437L646.786 73.094ZM667.278 118.103C666.562 118.128 665.989 118.148 665.708 118.301C665.289 118.602 665.145 118.607 665.16 119.036C665.59 119.022 665.748 119.446 666.177 119.431L667.036 119.401C667.026 119.115 667.026 119.115 667.313 119.105C667.456 119.1 667.895 119.371 668.182 119.361C668.611 119.346 668.744 119.055 669.001 118.186C668.28 118.068 667.707 118.088 667.278 118.103ZM596.718 141.637C596.703 141.207 597.123 140.906 597.108 140.477C596.673 140.348 595.36 139.678 594.93 139.693C594.94 139.979 595.819 140.522 595.859 141.667L596.718 141.637ZM592.059 143.663C592.172 142.799 592.587 142.355 593.302 142.33C593.446 142.325 593.875 142.31 594.315 142.581C594.29 141.865 594.561 141.426 594.699 141.277C593.672 140.597 593.697 141.312 592.383 140.642C592.408 141.357 591.584 142.39 591.609 143.105C591.624 143.535 591.773 143.673 592.059 143.663ZM641.543 140.502C641.819 140.205 642.234 139.761 642.357 139.183L641.543 140.502ZM640.171 142.27L641.543 140.502C640.714 141.391 639.717 141.569 639.742 142.285L640.171 142.27ZM588.472 147.658C588.314 147.234 588.309 147.091 588.294 146.661C588.239 145.086 590.539 145.293 591.2 143.693L590.771 143.708C590.055 143.733 589.462 143.18 589.033 143.195C588.746 143.205 588.608 143.353 588.337 143.793C588.623 143.783 588.776 144.064 588.776 144.064C588.781 144.207 588.352 144.222 587.922 144.237L587.493 144.252C587.088 144.983 586.96 145.418 586.975 145.847C586.99 146.277 587.148 146.701 587.163 147.131L587.183 147.703L588.472 147.658ZM585.807 149.328C585.792 148.899 586.211 148.597 586.196 148.168C586.191 148.025 585.905 148.035 585.752 147.753C585.762 148.04 585.347 148.484 585.362 148.914C585.367 149.057 585.51 149.052 585.807 149.328ZM633.238 148.962C633.125 149.826 632.854 150.265 632.281 150.285C631.995 150.295 631.565 150.31 631.407 149.886L631.437 150.745L631.141 150.468C625.393 158.266 618.981 159.35 619.041 161.068C617.757 161.256 617.659 162.549 615.941 162.609L615.511 162.624C615.127 163.928 613.404 163.845 613.163 165.143L611.731 165.193C610.586 165.233 608.8 167.445 607.27 168.789L606.697 168.809C606.682 168.379 606.396 168.389 606.396 168.389C605.394 168.424 604.585 169.886 604.309 170.182C604.6 170.315 605.188 170.725 605.489 171.144C604.344 171.184 603.065 171.516 603.04 170.8C603.035 170.657 603.311 170.36 603.45 170.212C602.447 170.247 602.626 171.244 600.923 171.734L600.493 171.749C600.079 172.193 599.546 173.359 598.83 173.384C598.687 173.389 598.391 173.112 598.243 172.974C597.132 174.016 596.713 174.318 596.14 174.338L593.563 174.428C593.139 174.586 592.719 174.887 592.29 174.902C592.004 174.912 591.564 174.641 591.421 174.646C590.562 174.676 589.856 174.987 589.462 176.004C589.313 175.866 589.017 175.59 588.874 175.595C588.015 175.625 585.024 176.159 585.064 177.305C584.348 177.33 583.908 177.058 583.464 176.644C583.059 177.374 583.064 177.518 582.205 177.548C580.887 176.734 579.164 176.651 576.562 176.025C576.622 177.743 576.963 179.307 578.686 179.391L579.116 179.376C579.269 179.657 579.555 179.647 579.56 179.79C579.575 180.22 578.741 180.965 578.756 181.395C580.489 181.764 580.529 182.91 582.82 182.83L583.249 182.815C583.704 183.515 584.854 183.619 586.143 183.574C587.574 183.524 588.689 182.625 589.548 182.595L589.692 182.59C590.965 182.115 592.55 182.347 592.49 180.629L592.919 180.614C593.384 181.601 594.253 181.857 595.26 181.965C595.245 181.536 596.084 180.933 596.074 180.647C596.074 180.647 595.926 180.509 595.639 180.519L595.21 180.534C595.185 179.818 595.609 179.66 596.468 179.63L597.184 179.605C596.913 180.044 596.488 180.202 596.513 180.918L596.943 180.903C597.802 180.873 598.917 179.974 598.907 179.688C598.887 179.115 598.443 178.701 598.433 178.414C598.428 178.271 598.418 177.985 598.847 177.97C599.015 178.681 599.879 178.794 600.738 178.764C602.027 178.719 603.586 178.234 603.566 177.662C603.556 177.375 603.255 176.956 602.391 176.843L602.821 176.828C604.109 176.783 604.415 177.345 605.289 177.745C606.043 174.709 608.497 175.196 612.282 172.771C613.827 171.857 617.035 169.308 616.99 168.019L617.419 168.004C621.283 163.713 627.56 158.764 627.417 158.769C628.834 158.289 629.045 156.132 630.002 154.808L630.861 154.778C631.102 153.48 634.147 150.363 636.101 148.862L636.531 148.847C636.664 148.555 636.659 148.412 636.649 148.126C636.644 147.983 636.486 147.558 636.471 147.129C636.461 146.843 636.456 146.699 636.875 146.398L636.446 146.413C635.316 146.883 635.815 148.872 634.527 148.917L633.238 148.962ZM581.805 153.768C581.78 153.052 582.209 153.037 582.194 152.608C581.765 152.623 581.607 152.198 581.321 152.208C581.336 152.638 580.916 152.939 580.921 153.082C581.351 153.067 581.365 153.497 581.805 153.768ZM573.053 165.827C572.751 165.408 572.593 164.983 572.588 164.84C572.543 163.551 575.12 163.461 575.494 161.872L575.218 162.168C575.075 162.173 574.636 161.902 574.344 161.769L574.631 161.759L574.621 161.472C574.556 159.611 578.441 160.049 578.381 158.331L578.376 158.188C577.675 158.642 577.246 158.657 577.103 158.662L575.957 158.702C575.384 158.722 572.828 159.385 572.918 161.962C573.061 161.957 573.061 161.957 573.071 162.243C573.071 162.243 572.646 162.401 572.217 162.416L571.787 162.431C571.383 163.162 571.255 163.596 571.27 164.026C571.285 164.455 571.443 164.88 571.458 165.309L571.478 165.882L573.053 165.827ZM575.011 172.639C574.996 172.209 574.704 172.076 574.694 171.79C574.679 171.36 575.094 170.916 575.079 170.486C575.059 169.914 574.604 169.213 573.745 169.243C573.602 169.248 573.183 169.549 572.768 169.994L572.753 169.564C572.723 168.705 571.44 168.893 571.123 168.044C571.39 167.462 572.254 167.575 572.224 166.716L572.204 166.143C570.644 166.628 568.833 168.124 568.878 169.413C568.993 172.706 573.406 171.835 574.167 173.098L574.192 173.814C574.212 174.387 574.37 174.811 574.799 174.796C575.515 174.771 576.482 173.734 576.452 172.875L576.442 172.589L575.011 172.639ZM604.155 169.901C604.165 170.187 604.309 170.182 604.309 170.182L604.155 169.901ZM710.5 87.496C704.034 91.1619 706.666 92.6466 702.535 93.3643C699.129 94.3432 695.373 97.6278 691.395 98.6267C689.677 98.6867 688.112 99.028 687.14 99.922L677.405 100.262C675.242 99.9074 674.585 97.4937 674.52 95.6326C674.395 92.0536 675.712 88.7109 675.602 85.5613C675.572 84.7023 675.398 83.8484 675.368 82.9894C675.338 82.1304 676.652 82.8012 676.612 81.656C676.607 81.5128 676.305 81.0933 676.295 80.807C676.28 80.3775 676.567 80.3675 676.71 80.3625C678.428 80.3025 681.05 81.501 683.207 81.7123C683.069 81.8605 683.069 81.8605 683.079 82.1468C683.094 82.5763 683.672 82.6994 684.531 82.6695C687.108 82.5795 685.759 80.9065 687.334 80.8515C687.917 81.1179 688.218 81.5373 689.077 81.5073L689.936 81.4773C691.797 81.4124 698.014 74.7451 698.014 74.7451C697.999 74.3156 697.708 74.1825 697.693 73.753L698.122 73.738C699.268 73.698 699.687 73.3967 699.667 72.824C699.657 72.5377 699.351 71.9751 699.336 71.5456C699.597 70.8198 700.165 70.6566 700.12 69.3682C700.406 69.3582 700.559 69.6395 700.846 69.6295C700.846 69.6295 700.989 69.6245 700.979 69.3382C700.544 69.21 700.386 68.7855 700.085 68.3661C700.791 68.0547 700.929 67.9066 700.914 67.4771C700.859 65.9023 698.711 65.9773 698.681 65.1183C698.651 64.2594 699.94 64.2144 699.905 63.2122C699.825 60.9217 693.154 58.7179 692.152 58.7529C690.005 58.8279 687.882 59.6187 686.195 60.5376L686.21 60.9671C685.099 62.0092 683.693 62.775 681.995 63.4077L681.565 63.4227C680.42 63.4627 678.737 64.5248 678.219 66.1196L677.983 67.5612L677.124 67.5912C676.695 67.6062 676.147 68.342 676.152 68.4851C676.152 68.4851 676.162 68.7714 676.305 68.7664C675.921 70.0699 671.786 74.801 671.781 74.6579C671.801 75.2305 672.675 75.63 672.69 76.0595C672.576 76.9235 671.861 76.9485 671.743 77.6693L671.491 78.6814C670.929 78.9877 670.667 79.7135 670.105 80.0198C670.203 78.7264 671.441 77.2498 671.411 76.3908C671.401 76.1045 671.253 75.9663 670.814 75.695C669.738 77.7393 668.899 78.3419 668.959 80.0598C668.974 80.4893 668.989 80.9188 669.296 81.4814C669.341 82.7699 667.351 83.2694 667.456 86.2758C667.501 87.5642 667.818 88.4132 668.247 88.3982C668.39 88.3932 668.667 88.0969 669.076 87.5092C668.79 87.5192 668.647 87.5242 668.632 87.0947C668.617 86.6652 669.619 86.6302 669.574 85.3418C669.544 84.4828 669.381 83.9152 669.084 83.6389C669.371 83.6289 669.524 83.9102 669.524 83.9102C671.099 83.8552 670.298 81.4465 671.586 81.4015C671.873 81.3915 671.888 81.8209 671.898 82.1073C671.943 83.3957 670.689 84.4428 670.719 85.3018C670.734 85.7313 670.744 86.0176 671.179 86.1458L671.194 86.5753L670.478 86.6003C670.553 88.7477 669.739 90.0661 668.322 90.5456C668.455 90.2543 668.737 90.1011 668.722 89.6716C668.712 89.3853 668.42 89.2521 667.838 88.9858C667.581 89.8548 666.594 90.3193 666.639 91.6077C668.5 91.5427 667.553 93.1525 670.13 93.0625L670.703 93.0425L670.61 94.4791L669.894 94.5041C669.761 94.7954 669.766 94.9386 669.786 95.5112C669.926 99.5198 676.078 103.318 676.083 103.461C676.513 103.446 676.656 103.441 676.641 103.012C677.55 104.414 681.49 106.426 684.497 106.321C685.213 106.296 685.78 106.133 686.195 105.688L687.769 105.633C689.62 105.282 689.842 103.411 691.989 103.336L692.991 103.301C693.253 102.575 694.619 100.664 695.33 100.496L695.903 100.476C698.909 100.371 696.943 97.4296 699.234 97.3496C699.663 97.3346 699.683 97.9073 700.399 97.8823C701.401 97.8473 702.501 96.5188 702.471 95.6599L702.451 95.0872C703.695 93.7538 707.051 91.3432 707.91 91.3132L708.339 91.2982C709.598 90.3942 710.846 89.204 711.66 87.8855C711.655 87.7424 711.359 87.466 710.929 87.481L710.5 87.496ZM680.137 71.786C680.27 71.4947 680.122 71.3565 679.836 71.3665C679.693 71.3715 679.55 71.3765 679.411 71.5247C680.369 70.2012 681.489 69.4454 682.604 68.5465C683.448 68.087 683.853 67.3562 684.855 67.3212L685.714 67.2912C685.97 66.4222 686.982 66.6736 687.397 66.2291C687.367 65.3701 686.37 65.5483 686.34 64.6893C686.32 64.1167 687.164 63.6572 687.593 63.6422C687.736 63.6372 688.027 63.7704 688.037 64.0567L689.469 64.0067C689.889 63.7054 690.599 63.5372 691.172 63.5172C692.46 63.4722 693.354 64.4443 694.243 65.2733L693.884 67.2926C693.228 69.0355 693.368 73.044 682.578 76.0009C681.586 76.3222 678.14 76.1558 678.411 75.7164L680.137 71.786ZM681.129 71.4647C681.129 71.4647 681.416 71.4547 681.84 71.2965C682.225 69.9931 683.227 69.9581 683.621 68.941C683.611 68.6546 683.468 68.6596 683.182 68.6696C682.323 68.6996 680.951 70.4676 680.981 71.3265C680.986 71.4697 680.986 71.4697 681.129 71.4647ZM721.043 106.192C721.907 106.305 722.761 106.132 723.62 106.102C724.33 105.933 725.189 105.903 725.9 105.735C727.041 105.552 728.141 104.224 729.316 105.043C729.706 103.882 730.165 104.726 730.59 104.568C731.3 104.4 731.863 104.094 732.569 103.782C733.275 103.471 733.98 103.16 734.681 102.705C736.088 101.939 737.341 100.892 738.303 99.712C737.456 91.8581 728.104 86.738 721.853 84.2329C721.536 83.3839 721.833 83.6602 721.388 83.2457C721.338 81.8141 721.718 80.3675 722.245 79.0591C722.645 78.1851 723.187 77.3061 723.73 76.4272C724.001 75.9877 725.112 74.9456 726.217 73.7603L726.991 71.2965L728.156 71.8292C728.842 70.9452 729.538 70.3476 729.814 70.0513C730.505 69.3105 729.207 69.0691 729.897 68.3283C730.761 68.4415 731.502 69.1323 732.336 68.3865C733.18 67.927 733.846 66.4704 734.547 66.0159C735.534 65.5515 735.441 66.9881 736.146 66.6767C739.834 65.5446 742.564 65.736 745.482 67.2108C745.733 66.1986 745.595 66.3468 746.005 65.7592C745.638 63.4786 738.28 58.0021 735.831 57.6576C735.101 57.2531 734.104 57.4313 732.973 57.9007C732.268 58.212 731.285 58.8197 730.451 59.5655C726.957 62.1242 723.375 66.2627 721.258 67.1967L721.318 68.9146L719.313 68.9846C719.615 69.4041 719.911 69.6804 720.356 70.0949C718.022 73.0431 713.151 77.2266 716.599 81.5496C716.797 83.1194 717.568 84.6692 718.906 86.0558C719.356 86.6134 720.091 87.1611 720.684 87.7137L722.299 88.804C724.999 88.1364 725.513 90.5551 726.684 91.2309C727.849 91.7636 726.599 88.7972 729.014 92.2962C730.18 92.8289 731.488 93.3565 732.505 93.751C732.55 95.0395 732.58 95.8985 732.033 96.6343C730.128 99.5675 725.404 99.7324 722.382 99.408C720.378 99.4779 717.382 99.8692 716.207 99.0503C712.025 98.3363 715.218 95.3581 715.785 95.1949C716.496 95.0268 715.939 95.4762 715.884 93.9015C714.896 94.366 714.61 94.3759 713.914 94.9736C712.601 94.3028 713.268 97.0029 712.784 95.4431C711.51 95.9175 712.661 96.0207 711.382 96.352C709.053 99.4434 708.887 102.889 709.944 104.429C711.539 104.947 713.134 105.464 714.719 105.696C715.731 105.947 716.595 106.06 717.602 106.168C717.137 105.181 718.283 105.141 721.043 106.192ZM757.476 74.102C757.752 73.8057 758.029 73.5094 758.162 73.2181C758.157 73.0749 757.886 73.5144 757.476 74.102ZM733.755 84.3906C740.117 81.875 749.471 78.825 754.673 75.92C751.395 76.4644 750.418 77.2152 748.157 78.1542C746.138 77.7947 737.224 81.116 733.755 84.3906ZM733.419 82.969C733.557 82.8208 732.856 83.2753 732.426 83.2903C732.283 83.2953 732.728 83.7097 732.866 83.5616L733.419 82.969ZM728.671 86.5748C729.653 85.9671 731.065 85.3445 732.763 84.7119C731.736 84.0311 730.166 84.2292 729.051 85.1282C728.937 85.9921 728.927 85.7058 728.656 86.1453L728.671 86.5748ZM729.98 87.1024C730.015 88.1046 731.529 86.3316 732.496 85.2945C731.801 85.8922 730.819 86.4998 729.693 87.1124L729.98 87.1024ZM716.318 94.0296C716.921 94.8686 718.603 93.8065 719.289 92.9225C718.998 92.7894 718.574 92.9475 717.863 93.1157C717.443 93.417 716.881 93.7233 716.318 94.0296ZM720.931 98.8853C720.62 98.1795 718.902 98.2395 718.6 97.82C718.61 98.1063 719.632 98.644 719.642 98.9303L720.931 98.8853Z" fill="url(#paint0_linear_5041_180)"/>
<defs>
<linearGradient id="paint0_linear_5041_180" x1="-719.996" y1="-173.205" x2="-716.761" y2="302.726" gradientUnits="userSpaceOnUse">
<stop offset="1" stop-color="#C6DDFF"/>
<stop offset="0.358685" stop-color="#D2EED9"/>
<stop stop-color="#D8E5E7"/>
</linearGradient>
</defs>
</svg>
