<svg xmlns="http://www.w3.org/2000/svg" width="1241" height="332" fill="none"><path fill="url(#a)" d="M121.299 187.095c-2.565.09-2.807-.135-2.823-.601-1.849.531-9.536 1.033-10.702 1.074-2.516 1.488-17.206 2.001-25.335 3.219-8.595 1.234-40.541 2.35-59.54 6.515-.474-.217-1.423-.651-1.906-1.101.401-1.881-.499-.916 1.84-.764-.194-5.597 1.462-4.954 2.232-9.65 1.117-1.44.233-.009-.765-1.841 1.142-.741 1.367-.982 3.457-1.288-2.646-2.243-.54-2.083-2.662-2.709.442-.716.45-.483 1.6-.99-1.457-1.583.45-.482-1.915-1.334-.556-2.548 3.335-4.785 4.96-5.076-.074-2.098-.156-4.43.72-6.095.9-.965.683-.491 3.015-.572-.315-2.324-.895-5.572 2.071-7.543q-.723-.676-2.147-1.326c1.567-1.923 2.692-3.129 3.069-5.711 1.882.402 1.415.418 2.839 1.069-.315-2.324-.515-1.383-2.213-3.192.643-1.656 1.4-.049.843-2.597 3.948-.605 3.74.103 2.709-2.663.49.683 1.198.892 1.914 1.334.393-2.115 1.527-3.088 2.636-4.761.466-.017.7-.025.924-.266-1.89-.635-.932.032-3.015.572-.29-1.624-.282-1.391-.314-2.324.9-.965 1.157-.273 2.066-1.006l.7-.024c-.958-.667-3.29-.586-4.23-.786l-.7.024 2.708-2.662.234-.009c1.583-1.456 3.4-2.92 4.79-3.202-1.431-.884-1.914-1.334-3.787-1.502-.613-4.181 4.218-6.217 6.092-6.049.127-3.04.352-3.281.721-6.096l.933-.032c-.724-.675-1.432-.884-1.923-1.567.9-.966 1.166-.041 1.841-.765 1.342-1.681.884-1.432.128-3.04.16-2.106 1.55-2.388 4.59-2.261-1.215-1.358-1.199-.892-2.397-1.784 1.583-1.456 2.41-4.52 2.096-6.844 1.624-.29 2.548-.556 3.505.111.467-.016.7-.024.925-.265-1.697-1.809-.507-1.15-2.863-1.768-.25-.458-.507-1.15-.749-1.375 2.115.393 1.89.635 3.788 1.502l-.74-1.141c-.49-.684.217-.475-.957-.667l-.523-1.616c1.881.4 1.423.65 2.613 1.31.377-2.582 1.012-4.472 1.163-6.812l-.7.025c-.699.024-.249-.459-1.14.74-.692.257-.925.266-1.625.29 1.076-2.606 1.293-3.08 4.574-2.728.217-.474.209-.708.2-.94 0 0-.796-2.775-.98-1.367l-.45.482c.408-1.648 1.477-4.487 3.96-6.909-1.689-1.575-1.431-.883-2.63-1.775 2.074-.773.458-.25 2.09-.307.955-6.103 3.799-11.572 4.045-17.885-4.495-1.71-10.631-3.597-14.685-6.024-8.771 2.875-3.54 12.264-5.411 18.867-2.112 6.377-5.872 32.423-10.863 36.566.981 1.367.723.675 2.171 2.025-2.491 2.189-2.553 7.094-5.76 8.84.715.442 1.656.642 2.138 1.093-2.556.322-1.873-.169-2.966 1.971-.442.716-.225.241.266.924.241.225.258.692.515 1.383-.924.266-1.39.282-2.09.307.548 2.315.613 4.181.645 5.113-.434.949-1.407-.184-1.808 1.698-.933.032-1.858.298-3.023.339.49.683 1.222 1.591 1.705 2.041l-2.57 6.627-3.007.806c.748 1.374 1.022 2.532 1.521 3.449-1.133.973-2.508 1.721-3.657 2.228 0 0 1.705 2.042 1.038 2.999-.442.716-2.082.54-2.532 1.023-.193 1.174.008.233.772 2.074-1.816 1.464-1.775 2.63-4.533 3.894.941.2.233-.009 1.64.176-.16 2.107.74 1.141-1.8 1.93 1.66 7.413-4.628 7.866-3.692 14.604-1.158.274-2.09.307-3.015.572 1.32 4.39-.165 8.644-3.606 10.399 1.174.192.225-.242 1.649.409.04 1.166.024.7-.185 1.407.242.225.258.692.258.692-.467.016-1.182-.426-1.649-.41-.536 4.689-2.247 9.184-2.084 13.848.138 3.964 3.75 7.106 1.958 9.27.716.442 1.68 1.342 2.172 2.025 8.652.399 16.892-4.325 29.058-3.582 2.107.159 4.766-3.902 8.08-2.617 0 0 3.015-.573 1.366-.982-.233.008-.707-.209-1.19-.659 3.047.361 7.711.198 9.528-1.266 2.348.385.908-.732 1.914 1.334 5.106-.879 6.448-2.56 8.747-3.574 2.3-1.014 8.226 1.58 12.825-.448 2.766-1.031 6.374-4.659 8.73-4.041 4.182-.612 3.474-.821 4.255 1.486 12.445-4.637 19.384-6.513 28.911-7.78l2.034-1.939-.532-1.849zM59.898 93.519c.25.458.266.924.515 1.382l-1.632.057c-.241-.225-.258-.691-.507-1.15.458-.249.924-.265 1.624-.29m-3.818 4.335c.05 1.4.025.7-1.399.049zm4.127 4.525c-.008-.233-.25-.458-.257-.691-.7.024-.933.033-1.624.29.94.201.241.225 1.881.401m-1.694 4.962c-.258-.691-.507-1.149-.523-1.616-.7.025-1.166.041-1.625.291.017.466.266.924.516 1.382zm-9.688 3.374c.241.225.25.458.258.691-.233.008-.933.033-1.624.29-.017-.466-.266-.924-.516-1.383.467-.016 1.64.177 1.882.402m-7.255 12.86c1.648.41.708.209 1.898.868-.233.008-.458.249-.683.491-.7.024-1.166.04-2.09.306-.009-.233-.25-.458-.25-.458.908-.732.924-.266 1.125-1.207m4.368 4.75c.95.434.241.226 1.424.651l.602-2.822c-.234.008-1.568 1.922-2.026 2.171m-7.668 7.739c.25.458.508 1.15.516 1.383l-1.4.049c-.008-.233-.257-.692-.506-1.15.466-.016.924-.266 1.39-.282m.212 6.063c-1.64-.176-.94-.201-1.882-.401 1.64.176.708.208 1.882.401m-6.71 8.406c.981 1.366.266.924-.418 1.415.242.225.25.458.5.916l-.467.017c-.266-.925-.29-1.624-.54-2.083.458-.249.692-.257.925-.265m-9.059 8.02c-1.174-.192-.7.025-1.423-.65 1.415.417.474.216 1.423.65m1.066 10.469c-.192 1.174.025.7-1.157.274.458-.25.69-.258 1.157-.274m-2.48 9.192c-1.174-.193-.7.024-1.649-.41 1.407.185.933-.032 1.649.41m-3.2 1.979c.45-.482.683-.491.434-.949 1.649.41 1.174.193 1.89.635l-.2.941s-3.032.105-2.124-.627m-.9.966c.008.233-.458.249-.209.707l-.748-1.374c1.415.417.933-.033 1.657.642zm7.711.197s-2.548.556-1.415-.417c-.25-.459-.016-.467.209-.708.957.667.241.225 1.206 1.125m2.066-1.006c1.432.884.974 1.134 1.4-.049zm-5.024 3.211c.233-.008.708.208.95.433-.16 2.107.49.684-1.81 1.698l-.764-1.841c.692-.258 1.158-.274 1.624-.29m-4.598 2.028c.008.233-.217.475-.209.708-.016-.467-.266-.925-.515-1.383 1.182.426.466-.016 1.423.651zm4.93.762c1.406.184.932-.033 1.656.642zm-6.89 3.275c.225-.241-.017-.466.2-.94.957.666.475.216 1.448 1.35 0 0-3.023.339-1.648-.41m71.06 9.192c1.424.651 3.748.336 6.064-.212-.958-.667-1.665-.875-2.598-.843-1.158.274-2.307.781-3.465 1.055m-26.227 4.418c1.424.651.708.209 1.649.409-1.166.041-.691.258-1.649-.409m141.545-71.714c-1.158.274-2.75 1.497-3.883 2.47 1.841-.765 3.915-1.537 6.231-2.085.241.225 2.532-1.022 4.623-1.329l.208-.708c-3.015.573-5.797 1.137-7.179 1.652m-5.949 3.476c.466-.016 1.15-.507 2.066-1.006-1.616.524-3.232 1.047-4.607 1.795 1.158-.274 2.083-.539 2.541-.789m-16.851 5.491c-.941-.2-2.79.331-3.981-.328-6.23 2.086-15.051 3.561-22.881 6.636-2.091.307-3.755-.569-5.662-1.67-3.571-1.976-5.284-4.251-11.122-4.281.114 3.265.486 7.221-.84 9.368l-4.661 6.933c-2.844 5.47-4.162 7.85-5.108 14.187-.113 16.813 4.624 18.749 11.189 26.224 1.865-.065 3.73-.13 5.588-.428l1.391-.282-.266-.925c.176-1.64 3.682-1.529 5.989-2.31l.692-.258c1.117-1.44 3.449-1.521 3.392-3.153l-.017-.467.692-.257c1.616-.524.867-1.898 2.009-2.639l.691-.257c.507 1.149 1.199.892 1.465 1.816 1.309-2.614 1.678-5.428 4.443-6.458.692-.258 1.334-1.915 2.05-1.473.45-.483.217-.474.201-.941-.017-.466-2.357-.618-2.381-1.317-.024-.7.192-1.174 1.093-2.14 1.399-.049.667-.957 2.049-1.472 1.383-.515 1.752-3.33 1.752-3.33.401-1.882.794-3.996.954-6.103l3.265-.114a2.8 2.8 0 0 1 1.125-1.207c.135-2.806-1.996-3.666-4.9-6.599-.483-.45-.949-.434-1.198-.892.233-.008-3.612-3.143-5.592-6.342 4.317-3.419 7.815-3.542 13.346-5.602.2-.941 4.615-1.562 4.582-2.495 5.314-1.586 9.897-4.081 14.961-6.126-2.323.315-5.113.646-6.954 1.41-2.3 1.015-5.282 2.52-7.356 3.292m-35.118 10.565c-.659 1.191-1.559 2.156-1.535 2.856.016.466.949.433 2.123.626l.266.924c-.442.716-.417 1.416-1.808 1.698l-.017-.467c-.049-1.399-1.681-1.342-2.405-2.017.418-1.415.827-3.064 3.376-3.62m17.139 9.441c-.586 3.289-2.096 6.844-4.088 9.948-.451.483-.86 2.131-1.302 2.847-.892 1.199-1.816 1.465-2.717 2.43-.667.957-1.526 3.088-2.434 3.82-4.059 4.111-8.666 5.906-12.364 6.969-1.367.982-4.398 1.088-7.438.96.545-4.455 1.565-8.693 3.292-12.722-1.424-.651.417-1.415.859-2.131.217-.475-.732-.908-.515-1.383.217-.474 1.125-1.206 1.342-1.681-2.131-.859-3.313-1.285-3.555-1.51-.732-.908 5.13-.179 5.347-.654.442-.716-.29-1.624 1.101-1.906l.667-.957-.564-2.782c.225-.241 2.356.618 2.573.144 1.109-1.673 2.234-2.88 3.359-4.087 2.083-.539.933-.032 2.066-1.006 8.579-1.7 8.886.39 14.371 3.701m36.94 54.975c-.025-.699.184-1.407.16-2.106-.009-.234-.724-.676-.982-1.367l.233-.008c1.166-.041 1.825-1.231 1.567-1.923 0 0-.016-.466-.707-.208l-.025-.7s-.596-3.715-.412-5.122l.753-5.162c.467-.017.7-.025.684-.491l-.008-.233c.699-.025 1.141-.741 1.117-1.44-.025-.7-.274-1.158-.299-1.857-.008-.234-.024-.7.434-.949l-.041-1.166c4.436-6.692 5.694-17.476 8.89-26.226l-.057-1.632c-.973-1.133-1.681-1.342-1.914-1.334-.7.025-1.367.982-2.299 1.014-.7.025-1.174-.192-2.614-1.309.04 1.166-.168 1.873-1.334 1.914l-.233.008c1.125-1.206.319-4.213 2.418-4.286.708.208 1.19.658 1.89.634 0 0 .233-.008.675-.724l.7-.024c.024.699.265.924.732.908.932-.033 2.066-1.006 2.025-2.172l-.049-1.399c1.841-.765 2.766-1.031 2.516-1.489-.257-.691-.965-.9-1.938-2.033.932-.033 1.141-.741 1.35-1.448l-.033-.933 4.198-.147c-.041-1.166-.066-1.865-.79-2.54l-.024-.7c.876-1.665 2.7-2.896 2.619-5.227l-.065-1.866c2.074-.773 3.332-11.556 6.016-14.918 5.363-.188 2.139 1.092 10.943-.849l1.399-.049c.017.466.491.683.957.667 6.53-.228 12.02-3.455 17.003-7.832.508 1.15 1.931 1.801 2.864 1.768 1.399-.049 3.007-.805 3.666-1.996l.699-.024s5.032-2.977 5.756-2.302c-.515-1.383-3.554-1.51-6.119-1.421-2.099.074-4.656.396-5.572.895l-1.166.041c-1.632.057-1.792 2.164-3.183 2.446.176-1.641-1.014-2.299-1.947-2.267s-2.091.307-3.007.806l-.016-.467s-.009-.233-.242-.225c-.466.016-5.604-.038-6.239 1.852-.973-1.133-3.481.589-3.554-1.51-.917.499-1.383.515-2.083.54l-3.964.138c-.699.025-1.632.057-2.79.331l1.044-3.538.876-1.665-.025-.7c-.13-3.731 1.101-1.906 1.863-6.835l-.09-2.565.233-.008c.7-.025.692-.258.675-.724-.024-.7-.282-1.391-.29-1.624-.049-1.4 2.782-.565 2.82-6.17.651-1.423 1.326-2.147 1.534-2.854.209-.708-.282-1.391-.306-2.09-.008-.234-.024-.7.201-.942-.085-9.102-6.229-11.222-7.411-11.648-2.492 2.189-6.545 19.84-6.745 20.78-.442.717-2.235 2.88-2.186 4.28.025.699.507 1.149 1.215 1.358l-.168 1.874c-2.09.306-.553 4.221-2.418 4.286l-.234.009c-.344 3.514-.552 4.221-3.139 10.382-9.045 1.716-21.686.757-21.686.757-.233.008-.716-.442-.957-.667.033.933-1.543 2.622-1.269 3.78 1.088 4.398 9.032 4.587 15.103 4.609l.466-.017c1.399-.048 1.424.651 2.59.61.233-.008.908-.732.908-.732l.041 1.166 1.391-.282c.699-.024 1.166-.041 1.415.418.024.699-.642 1.656-.634 1.889.016.467.482.451 1.182.426l-3.191 2.213c-4.474 12.296-6.971 21.022-7.67 21.046-.233.008-.675.724-.659 1.19.033.933.756 1.608 1.456 1.584 0 0 .466-.016.691-.258l.7-.024c.7-.025 1.174.192 1.198.892l.025.699c-1.89-.634-2.59-.61-2.59-.61-1.632.057-2.049 1.473-2.708 2.663l.024.7c-.691.257-.675.724-.9.965-.45.483.25.458.258.691-1.83 7.769-6.675 16.109-6.754 20.548.041 1.166.299 1.857.789 2.54-.666.957.323 2.557-1.542 2.622l-.499-.916c-.258-.692-.491-.683-1.199-.892l.049 1.399c.049 1.399-.111 3.506-.078 4.439.049 1.399.998 1.832 1.006 2.066-.168 1.873-2.782.564-2.958 2.204q1.436 1 1.472 2.05c.049 1.399-1.068 2.839-1.019 4.238.024.699.04 1.166.515 1.383.315 2.323.315 2.323 1.087 4.398 1.972 2.966 3.653 4.308 7.94 6.726m20.323-99.933c-.699.025-1.681-1.342-1.713-2.274-.025-.7 2.082-.54 2.025-2.172l-.024-.7c-.122-3.498 3.733-13.438 4.335-16.26 1.865-.066.412 5.121-1.057 9.842l-.7.025c-.594 3.055.437 5.821-1.179 6.344-1.142.741-.987 5.171-1.687 5.195m28.119 89.837c1.407.184 2.798-.098 4.197-.147 1.158-.274 2.557-.322 3.714-.596 1.858-.299 3.65-2.462 5.564-1.128.635-1.89 1.383-.516 2.074-.773 1.158-.274 2.075-.773 3.224-1.28s2.299-1.014 3.441-1.755a20.1 20.1 0 0 0 5.9-4.875c-1.381-12.792-16.614-21.132-26.795-25.212-.516-1.383-.033-.933-.757-1.608-.081-2.332.537-4.688 1.396-6.82.651-1.423 1.535-2.855 2.419-4.286.442-.716 2.25-2.414 4.05-4.344l1.261-4.013 1.898.867c1.117-1.439 2.25-2.413 2.7-2.896 1.126-1.206-.989-1.599.136-2.806 1.407.184 2.614 1.31 3.972.095 1.375-.749 2.459-3.121 3.601-3.861 1.608-.757 1.456 1.583 2.606 1.076 6.005-1.844 10.452-1.532 15.205.87.41-1.649.185-1.407.851-2.365-.596-3.714-12.581-12.634-16.569-13.195-1.191-.659-2.815-.369-4.656.396-1.15.507-2.749 1.496-4.108 2.711-5.691 4.168-11.525 10.909-14.974 12.43l.097 2.798-3.264.114c.491.683.973 1.133 1.697 1.809-3.801 4.802-11.734 11.616-6.119 18.657.323 2.557 1.578 5.081 3.759 7.34.732.908 1.93 1.8 2.895 2.7l2.631 1.776c4.397-1.087 5.235 2.852 7.142 3.953 1.898.868-.139-3.964 3.796 1.735 1.898.868 4.029 1.727 5.686 2.37.073 2.098.122 3.497-.77 4.696-3.102 4.778-10.797 5.046-15.718 4.518-3.265.114-8.145.751-10.06-.583-6.811-1.163-1.61-6.014-.686-6.279 1.158-.274.25.458.16-2.107-1.608.756-2.074.773-3.207 1.746-2.14-1.093-1.052 3.305-1.841.765-2.075.773-.201.941-2.283 1.48-3.794 5.036-4.064 10.648-2.343 13.156 2.598.843 5.196 1.686 7.777 2.063 1.648.41 3.056.594 4.696.77-.757-1.608 1.109-1.673 5.605.038m59.342-52.268c.45-.482.901-.965 1.117-1.439-.008-.234-.45.482-1.117 1.439m-38.637 16.758c10.363-4.097 25.598-9.065 34.071-13.797-5.338.887-6.93 2.11-10.612 3.64-3.289-.586-17.808 4.824-23.459 10.157m-.548-2.315c.226-.241-.916.499-1.615.523-.234.008.49.683.715.442zm-7.732 5.873c1.599-.99 3.899-2.004 6.664-3.034-1.673-1.109-4.23-.786-6.046.678-.184 1.407-.201.941-.643 1.657zm2.131.86c.057 1.632 2.524-1.256 4.1-2.945-1.134.973-2.734 1.963-4.566 2.961zm-22.252 11.283c.981 1.366 3.723-.364 4.84-1.804-.475-.217-1.166.041-2.324.315-.683.491-1.6.99-2.516 1.489m7.513 7.908c-.507-1.149-3.305-1.051-3.796-1.735.017.467 1.681 1.342 1.698 1.809zm155.648-35.552c-.122-3.498 1.621-7.061 1.483-11.025-.041-1.166-.073-2.098-.339-3.023-.442.716-.434.949-.9.965-.933.033-2.864-1.767-3.563-1.743l-.041-1.166c.434-.949 1.117-1.44 2.516-1.488l-.122-3.498c-.016-.467-8.737-9.501-8.737-9.501-1.488-2.516-8.863-6.461-9.563-6.436-.933.032-2.717 2.429-2.934 2.904l.041 1.166-5.829.203c-.676.724-.651 1.424-.627 2.123.008.234.025.7.749 1.375-5.033 2.977-11.084 10.193-13.416 10.274-2.05 1.472-6.542 6.532-6.51 7.465.025.699.499.916.515 1.383.009.233-.442.715-1.133.973l.041 1.166c-1.858.298-1.792 2.164-3.875 2.703l.033.933c-1.285 3.314-3.27 6.651-3.573 11.331l.048 1.399c.098 2.799-.561 3.989-.463 6.787l.057 1.632c-.675.724-.651 1.424-.642 1.657.105 3.031 5.374 6.816 5.472 9.615.008.233.024.699-.193 1.174.008.233.258.691.258.691l2.274-1.714.041 1.166c.049 1.399.54 2.083 1.955 2.5l.7-.024c1.166-.041 1.423.65 2.822.601l3.032-.105c-.45.482-.418 1.415-.401 1.881.024.7.032.933.498.917l.901-.966 2.565-.089c-.025-.7.425-1.182.658-1.19 1.166-.041 2.148 1.325 3.314 1.285 2.098-.074 7.454-.494 8.53-3.1l1.166-.041c.241.226.957.667 1.423.651 1.399-.049 1.801-1.93 3.2-1.979l.699-.025-.032-.932c-.082-2.332 1.526-3.089 3.109-4.545l.7-.024c.016.466.249.458.249.458 1.4-.049 4.325-3.186 4.276-4.585 0 0-.008-.233-.474-.217l-.041-1.166c3.023-.339 3.875-2.703 5.217-4.385l-.155-4.43 2.565-.09c.016.467.024.7.491.684 0 0 .225-.242.208-.708l-.024-.7c1.358-1.214 3.715-.596 3.592-4.094l-.089-2.565-.933.033c-.257-.692-.756-1.608-.789-2.541m-13.013-24.993.065 1.865-1.399.049-.065-1.866zm9.648 15.538c-.933.033-.046 5.372-2.145 5.445l-.699.024.098 2.799c-.467.016-7.877 8.446-7.676 7.505-1.912 5.437-8.72 11.044-10.119 11.093-.233.008-.241-.225-.708-.209.057 1.632-7.339 3.758-6.406 3.726l-.234.008c-.425 1.182-5.233 3.918-6.632 3.967-1.632.057-2.887-2.467-3.587-2.443-1.166.041-1.583 1.456-2.283 1.481-.233.008-.041-1.166-1.673-1.109-1.166.041-1.632.057-1.898-.868l-.318-9.094c-.048-1.399.16-2.107 1.326-2.147l-.04-1.166c-.676.724-1.142.74-1.841.764s-1.408-.184-1.424-.65c-.024-.7.434-.949 1.808-1.698l.033.933 1.399-.049-.073-2.098c4.59-2.262 3.999-12.514 9.947-15.99.025.7.033.933.733.908.393-2.115 2.258-2.18 2.442-3.587l1.069-2.839c1.567-1.922 11.488-5.304 14.679-7.517l4.929.762.033.933c.274 1.158 4.037 1.96 5.203 1.919l1.448 1.351c.7-.025 1.166-.041 1.207 1.125.024.699-.418 1.415-.385 2.348l.024.7c1.641.176.806 3.006 1.996 3.665zm-23.946 36.323c-.466.017-.675.724-1.109 1.673l-.7.025c-.715-.442-1.182-.426-1.231-1.825l.467-.016c1.166-.041 1.358-1.215 2.033-1.939 1.424.651 2.847 1.301 2.929 3.633-.949-.433-1.69-1.575-2.389-1.551m101.433-43.698c.208-.707-.483-.45-2.14-1.092-4.672-.071-7.212.718-9.029 2.183l.258.691-6.296.22c-.7.024-1.399.049-1.375.748-.401 1.882-4.905-.062-5.539 1.828-1.632.057-2.332.081-2.59-.61 0 0-.024-.7.426-1.182-.008-.233-.724-.675-.724-.675-.572-3.015 7.594-9.838 5.268-16.293l-.258-.692c2.074-.773 1.269-3.78 4.067-3.877-.515-1.383-.998-1.833-1.488-2.516.908-.733 2.041-1.706 2.459-3.121-.949-.434-1.191-.659-1.207-1.126-.033-.932 3.449-1.521 3.191-2.212-.257-.692-1.656-.643-1.689-1.575-.098-2.799 5.908-4.643 4.371-8.558l-.258-.691c-.765-1.841 1.817-1.465 1.309-2.614-.257-.692-1.681-1.342-1.713-2.275-.017-.466 6.943-8.414 6.943-8.414-.699.025-.707-.209-.724-.675l-.024-.7c-.008-.233-.241-.225-.258-.69-.032-.934 1.817-1.465 1.559-2.157 0 0-.466.017-1.174-.192l-.531-1.85s5.585-7.198 5.319-8.123c-.699.025-1.632.057-1.89-.634.917-.499 1.117-1.44 2.05-1.472l.7-.025c1.534-2.855 3.679-8.3 5.23-10.688l-.282-1.391 1.399-.05-.025-.699c-.049-1.399 1.592-1.223 2.034-1.939l-.572-3.015c2.917-3.37 4.636-7.632 7.545-11.236-.266-.925-5.076-4.96-6.475-4.91l-1.865.065c-1.657-.643-2.197-2.725-3.363-2.684-.699.024-.908.732-.859 2.131l.024.7c.033.932-.2.94-.176 1.64l.016.466c-1.133.974-4.308 3.653-5.208 4.618l-1.632.057c-.45.483-.426 1.182-.418 1.415.041 1.166 1.231 1.825 1.771 3.907-.152 2.34-2.652 4.295-4.211 6.451l.548 2.316c.282 1.39-3.273-.12-2.234 2.88.789 2.54-3.126 4.077-2.562 6.86 0 0 .474.216.724.674-.434.95-3.143 3.612-3.143 3.612 1.137 5.797-4.457 12.763-4.383 14.861l.024.7c.024.7-.651 1.424-.152 2.34.25.458.274 1.158.749 1.375l-1.166.04c-2.332.082-3.107 11.315-3.373 10.391-.442.716-.9.965-1.583 1.456l-.7.024c.266.925.757 1.608 1.248 2.291-1.117 1.44-1.261 4.013-1.413 6.353.822 3.474-3.375 3.62-3.261 6.885l-1.4.048c.009.234.499.917.749 1.375.998 1.833-1.76 3.097-1.719 4.263.008.233.474.216.957.667l.7-.025c-.681 7.261-4.718 5.301-4.154 8.083l.564 2.782c.258.691-4.918 6.242-6.285 7.223l-.466.017c-.675.724-.7.024-.843 2.597 1.174.193 2.364.852 2.413 2.251l.025.699c-.451.483-1.15.507-1.616.524-2.799.097-5.413-1.212-6.345-1.18-.467.017-.458.25-.458.25.233-.008.715.442.724.675.016.466-.209.708-.442.716-.009-.233-.724-.675-1.424-.651-.233.008-.45.483-.442.716l-1.399.049c-2.774.797-8.112 1.684-9.888 4.314l.257.691c-5.363.188-4.582 2.495-7.147 2.585-.699.024-1.109 1.673-1.076 2.605.049 1.399 2.814.369 3.98.328 1.456 1.584 2.63 1.776 4.062 2.66.258.691.491.683.957.667.7-.024 1.391-.282 1.375-.748.024.699.04 1.165.282 1.39l.933-.032c-.217.474-.209.708-.209.708.531 1.849 5.816 6.1 9.354 7.144l.7-.025c1.632-.057 2.614 1.31 2.904 2.934-.466.016-2.746 8.267-2.738 8.5l.024.7c.025.7-.192 1.174-.168 1.874l.025.699c-.933.033-1.158.274-1.142.74.025.7.982 1.367 1.006 2.066.008.234.025.7-.2.941l-.933.033c-1.375.748-1.567 1.922-1.51 3.555.016.466.531 1.849.764 1.841l.467-.017.29 1.625c-2.733 1.963-6.035 7.681-4.997 10.68.258.691.556 2.549 1.256 2.524.282 1.391.314 2.324-.827 3.064-.708-.209-1.424-.65-1.657-.642-.466.016-.45.482-.426 1.182.009.233.258.691.966.9-.193 1.174-1.478 4.487-2.313 7.318l-.233.008c-2.185 4.279-3.221 8.051-1.933 11.508.258.691.298 1.857 1.022 2.532.025.7-3.118 4.311-2.738 8.501.7-.025 1.191.658 1.898.867.25.458-3.557 11.798-3.275 13.189.822 3.473 2.904 2.933 2.929 3.633.041 1.166-1.841.764-1.326 2.147.258.692 6.258 5.385 8.124 5.32l.699-.025c2.454 3.417 7.527 1.605 9.233 3.647 1.841-.765 7.806-3.775 6.702-8.639l1.166-.041c-.298-1.857.819-3.297 2.218-3.346l.699-.024c-.564-2.782.336-3.747.296-4.913l-.009-.233c5.635-5.8 8.479-11.269 8.47-11.503-.024-.699-1.648-.409-1.681-1.342.418-1.415 1.679-5.428 2.844-5.469l.7-.024-.29-1.624c.843-2.598 3.519-6.193 2.231-9.65-.258-.692-.282-1.391-.773-2.074-.024-.7.201-.941.659-1.191.724.675 2.115.393 1.583-1.456-.265-.924-2.38-1.318-2.388-1.551-.017-.466 3.73-.13 2.7-2.896l-.258-.691c-.482-.45-.49-.683-.74-1.142-.74-1.141 1.109-1.673 1.302-2.847l-.025-.699c-.008-.233-.724-.675-.732-.908q-.036-1.05.626-2.123l-1.304-3.924c-.266-.924.393-2.115.344-3.514-.008-.233-.756-1.608-1.456-1.583l-.233.008c.675-.724.819-3.297.271-5.613-.564-2.782-2.061-5.531-3.043-6.897l-.932.032-.274-1.158c-.282-1.391-1.006-2.066-1.988-3.432l-.83-3.707c-.298-1.857-6.017-5.159-6.716-5.135l-.7.024c-.29-1.624-1.803-4.839-4.441-6.848 1.857-.299 3.183-2.446 3.118-4.312-.008-.233-.732-.908-1.215-1.358l-.033-.933c-.04-1.166-.048-1.399-.306-2.09l-.258-.692.7-.024c1.865-.065 4.677-6.467 5.385-6.258-.033-.933.666-.957.409-1.649.933-.032 1.19.659 1.89.635-.556-2.549 2.733-1.964 4.099-2.945.941.2 2.565-.09 3.731-.13 1.399-.049 3.408-2.688 4.807-2.736 3.474-.822 8.964-4.049 8.964-4.049 1.166-.041 1.424.651 2.123.626 2.099-.073 2.975-1.738 3.409-2.687m2.459-3.121c-.909.732-.876 1.665-.385 2.348.466-.016.699-.024 1.19.659 3.199-1.979 5.773-1.836 8.723-4.273l-.958-.667c-3.497.122-6.496 1.16-8.57 1.933m-40.877 26.175c-1.166.041-2.291 1.247-2.049 1.472.482.451.973 1.134 1.464 1.817.257.691-.201.941-.434.949l-.475-.217c-.225.242-.908.732-1.607.757-1.4.049-1.465-1.817-4.263-1.719-1.632.057-4.173.846-5.805.903-1.399.049-2.589-.61-2.871-2.001-.291-1.624-.09-2.565 1.767-2.863l3.707-.83c2.765-1.031 4.791-3.202 8.755-3.341.933-.032 2.958-2.204 4.14-1.779.266.925-1.052 3.306-1.011 4.471l.008.234c.041 1.166.307 2.09-1.093 2.139zm4.383 18.524c1.472 2.05 3.161 3.625 5.534 4.71-.209.708.049 1.399.306 2.09 1.031 2.766 3.211 5.025 3.742 6.874.266.924.29 1.624-.151 2.34.957.667.973 1.133 1.231 1.824-.25-.458-.111 3.506-.995 4.938 1.166-.041 1.19.659 2.131.859l.699-.024c.234-.008.716.442.724.675.041 1.166-1.168 13.348-3.009 14.113 1.632-.057 1.931 1.8 2.47 3.883-5.13.179-.393 2.115-2.844 5.469l.009.233c.016.466.04 1.166-.418 1.415l.258.692c.515 1.383-1.126 1.206-.86 2.131l.556 2.549-.699.024.024.7c.008.233-4.026 5.043-3.785 5.268 0 0 .016.466.25.458.265.925-1.833.998-1.809 1.698.016.466 1.448 1.35 1.497 2.749l.024.7-2.331.081c-3.127 4.078-5.079 8.349-8.454 11.969l-1.399.048c-3.265.114-5.589.429-7.671.969l-.306-2.091c-.274-1.158-.998-1.833-1.698-1.808l-.024-.7c.699-.024 2.299-1.014 2.05-1.472l-1.015-2.299c-.249-.459.45-.483.442-.716l-.016-.467c-.008-.233-.024-.699.434-.949-.949-.433-1.424-.65-1.698-1.808 2.565-.09.345-3.514 1.711-4.496l-.724-.675c1.142-.74 1.334-1.914 1.052-3.305l.7-.025c-.049-1.399.569-3.755.52-5.154-.016-.466-.024-.7-.507-1.15l-.54-2.082c.234-.008.692-.258.675-.724l-.008-.233c.7-.025.684-.491 1.375-.748-.25-.459-.973-1.134-.982-1.367-.065-1.865 1.277-3.547 1.003-4.704-.265-.925-2.667 3.828-2.749 1.496-.024-.699-.531-1.849.168-1.873l2.332-.082c.135-2.806.038-5.604 1.597-7.76l-.724-.675c-.266-.924 1.35-1.448 1.326-2.147-.009-.234-.966-.9-.982-1.367-.008-.233-.024-.699.434-.949l-.491-.683c2.099-.073 1.817-1.464 1.743-3.563-.016-.466-.74-1.141-.998-1.833-2.31-5.989 5.168-5.784 3.525-12.73l-.548-2.316.7-.024c.192-1.174 1.841-.765 2.282-1.481l-.555-2.548c-.573-3.015.311-4.447 1.154-7.045 2.099-.073 3.081 1.294 4.054 2.427zm8.03 49.448c-.933.033-.957-.667-1.665-.876.033.933-.667.958-.876 1.665 1.166-.04 1.424.651 2.123.627-.257-.692.434-.949.418-1.416M591.92 125.602c-2.204-2.958-6.556-7.242-9.354-7.144l-1.391.282c-1.4.049-.781-2.308-2.18-2.259l-.7.025.041 1.166-.7.024c-.089-2.565-3.056-.594-3.595-2.676-4.897.171-8.094 8.921-15.322 9.173l-.418 1.416c.008.233.065 1.865-.168 1.873l-.466.017c-3.031.105-17.77 19.297-18.372 22.12l-1.166.041c-.249-.459-.257-.692-.724-.675-.699.024-.802 3.763-1.477 4.487l.024.7c-1.849.531-1.768 2.863-3.159 3.145q.737 1.025.773 2.074c.106 3.032-1.412 6.353-1.306 9.384.073 2.099.363 3.723 1.811 5.073l.147 4.198c.732.908.805 3.007 2.687 3.408l.065 1.865c1.448 1.351 6.668 3.736 5.968 3.761.466-.016.45-.483.683-.491 2.945 4.1 6.524 6.309 10.721 6.163 1.166-.041 2.091-.307 3.208-1.747l.7-.024c.94.201 1.64.176 2.806.135 6.529-.228 12.646-5.577 17.252-7.373l.7-.024c.729-5.862 13.093-12.831 12.873-19.127l-.7.025c-.932.032-5.417 5.325-8.448 5.431-.7.024-1.174-.193-1.89-.634.024.699-.193 1.174-.892 1.198l-.483-.45c.041 1.166-.65 1.423-1.35 1.448-.933.032-2.5 1.955-3.199 1.979l-.467.017.033.932c.699-.024 1.182.426 1.19.659.025.7-1.567 1.923-3.666 1.996-.932.032-1.399.049-1.64-.176.683-.491 1.399-.049.884-1.432l-4.157 1.313c-.634 1.889-3.449 1.521-3.416 2.453.041 1.166.532 1.85.54 2.083 0 0 .016.466-.45.483-.25-.459-.25-.459-.949-.434l-2.099.073c-.7.024-1.399.049-1.914-1.334 1.157-.274 3.272.119 3.449-1.521l-.925.266c-4.856 1.336-7.728-.664-11.459-.534-.699.024-1.415-.418-2.114-.393.016.466-.442.716-.7.024 0 0-.474-.217-.491-.683-1.971-2.966-5.203-1.92-5.268-3.785-.017-.466.442-.716.425-1.182-.008-.233-.499-.917-.515-1.383-.081-2.332-1.055-3.465 1.421-6.12l2.025-2.172c.634-1.89 2.467-2.887 2.37-5.686l-.7.025-.024-.7c-.049-1.399.835-2.83.786-4.23-.016-.466-.041-1.165-.29-1.624.024.7-.426 1.183-1.125 1.207-.234.008-.25-.458-.716-.442l.171 4.897c-1.608.756-2.275 1.714-4.141 1.779l-.699.024-.057-1.632c.008.233.724.675 1.19.659 1.399-.049 2.991-1.272 2.958-2.205q-.036-1.05-.748-1.374c-.176 1.64-1.559 2.155-3.425 2.22 1.351-1.448 3.216-1.513 3.167-2.912-.016-.466-.515-1.383-.773-2.074.724.675.958.667 1.424.651 1.399-.049 1.526-3.089 3.609-3.628l.097 2.798c2.565-.09 2.717-2.43 4.8-2.969-.307-2.091-1.763-3.674-1.796-4.607 0 0 .635-1.89 2.034-1.939s.789 2.541 2.196 2.725c.909-.732 1.367-.981 1.342-1.681s-1.914-1.334-1.938-2.034c-.017-.466-.017-.466.441-.715.724.675 1.424.65 2.124.626 2.798-.098 4.275-4.585 6.067-6.749.033.933.733.908 1.007 2.066l.699-.024c1.383-.516 1.093-2.14 2.725-2.197l.699-.024-.016-.467c-.057-1.632 2.766-1.03 4.124-2.245l.7-.024c2.565-.09 5.862.729 6.513-.695l-.041-1.165 1.166-.041c1.399-.049 1.599-.99 2.998-1.039l1.166-.04.033.932c.041 1.166.74 1.142 1.673 1.109l4.197-.146c.675-.724 1.817-1.465 1.768-2.864 0 0-.016-.466-.507-1.149zm-43.392 27.664c1.342-1.682 3.89-2.238 4.042-4.578-1.6.99-3.674 1.763-4.042 4.578m15.789 30.966c-.008-.233-.024-.7-.515-1.383 1.166-.04.74 1.142 1.231 1.825 1.399-.049 1.592-1.223 2.991-1.272.098 2.798-1.968 3.804-4.3 3.886-.7.024-1.874-.168-2.123-.626.176-1.641 2.79-.331 2.716-2.43m104.906 8.944.699-.025c-3.829-2.667-6.998-6.526-8.11-11.623-3.374-9.688 1.583-21.534 2.819-26.247.393-2.115-1.497-2.749-1.088-4.398l2.958-2.204c-1.713-2.275-.71-6.979.149-9.111 2.362-5.919 6.122-11.887 7.768-18.248.618-2.356-2.004-3.899-1.611-6.014-5.027-3.559-9.401-1.772-14.089-2.309-.233.008-.225.241-.45.482.998 1.833.515 1.383 1.947 2.267-.537 4.688-10.11 11.326-13.261 14.705-.9.965-.103 3.739-1.244 4.479-1.351 1.448-3.907 1.771-5.016 3.444-.9.965-.361 3.047-1.253 4.246-.691.257-1.383.515-2.066 1.006-1.984 3.338-4.444 6.459-6.42 10.03-4.734 4.834-14.435 14.512-16.555 20.656l-1.399.049c.303-4.68 1.916-11.974 4.375-15.095-1.464-1.817.209-.708-1.689-1.575 1.15-.507.225-.242 2.099-.074l2.537-7.559c1.134-.974-.008-.233-.981-1.367.683-.49.916-.499 2.54-.789-.306-2.09.193-1.174-.548-2.315 0 0-.564-2.782.418-1.416.474.217.708.209.949.434.36-3.047-.453-6.288 2.264-8.717-1.465-1.817-.982-1.367-2.422-2.484 1.776-2.63 4.799-2.969 5.135-6.716-.257-.691.217-.475-.957-.667-.257-.691-.274-1.158-.29-1.624 1.657.642 1.19.659 2.389 1.551.393-2.115.393-2.115 1.76-3.097-.958-.667-.958-.667-2.598-.843.385-2.348.201-.941 2.541-.789-.757-1.608-.733-.908-1.706-2.042l.699-.024c.418-1.416.234-.008 1.657.642-.572-3.015-.523-1.616-2.028-4.598 2.974-1.738 3.874-2.704 6.382-4.425-.024-.7-.04-1.166-.29-1.624-.45.482-.667.957-1.109 1.672l-1.399.049c.504-5.62 4.338-9.49 5.1-14.42 1.882.402 1.182.427 2.614 1.31-.033-.932.184-1.407.385-2.348 1.133-.973-.475-.217-1.448-1.35 2.234-2.88 10.53-26.049 9.291-28.107 1.35-1.448 3.907-1.77 4.3-3.885l-1.096-4.632c1.624-.29 2.999-1.038 4.848-1.57 3.36-4.086 2.579-6.393 2.305-7.551 2.483-2.421 2.893-4.07 5.368-6.725.675-.724.336-3.747 1.719-4.262-.797-2.774-.54-2.082-1.578-5.081-.242-.225-.475-.217-.724-.675-1.641-.176-3.048-.36-4.696-.77-.25-.458-.516-1.383-.773-2.074l-4.946-1.228c-2.104 6.61-5.116 13.953-7.244 19.864-1.367.981-2.578 6.393-3.245 7.35-1.904 5.67-2.047 8.243-3.95 13.913a18.6 18.6 0 0 0-2.926 3.137c-2.37 5.686-1.45 11.958-6.691 15.643 1.48 2.282.282 1.39 2.155 1.559-.127 3.04-.667.957-2.483 2.42 1.432.885 1.239 2.059.805 3.008-.417 1.415-.466.016-1.89-.635-.336 3.748-8.938 24.827-9.171 24.835.981 1.366.499.916 1.222 1.591l.025.7-2.099.073 1.063 3.698-2.332.082c.662 5.58-3.952 7.142-3.131 10.615l-2.332.082c.548 2.315-.16 2.106.806 3.007-.827 3.063-3.102 4.777-4.845 8.34 1.215 1.358 1.112 5.097.878 5.106l-2.331.081c-.426 1.182 1.995 3.666.895 5.572-.684.491-2.484 2.421-2.685 3.362l1.08 4.165-1.633.057c-.658 1.19-.327 3.98.736 7.679l-2.332.081c.097 2.798.493 7.454-.157 8.877 4.143 4.992 5.382 7.05 11.96 8.221.716.442.242.225 1.657.642 1.372-7.518 12.656-18.652 12.268-23.074.385-2.348.692-.258 1.584-1.456 2.041-1.706 1.366-.982.802-3.764 2.091-.306.925-.266 2.798-.098 5.745-9.305 19.186-18.88 24.358-31.201l1.4-.049-1.92 5.204.098 2.798-2.467 2.888-1.093 2.139.621 4.414-.667.957-1.535 2.855-.135 2.807-1.277 3.546-.393 2.115-.361 3.048 1.98 3.199-2.034 1.939.348 3.256 1.946 2.267-.835 2.831 2.43 2.717 1.73 2.741 2.188 2.492 2.438 2.95-.41 1.648 4.48 1.244 4.078 3.127zm-39.661-99.472c-.749-1.375-.258-.692-.99-1.6.024.7.032.933.29 1.624zm6.608 15.411c-.973-1.133-.491-.683-1.215-1.358.008.233.266.924.282 1.391zm-27.085 66.783c-.482-.45-.499-.916-.515-1.383l1.399-.048c.25.458.266.924.749 1.374zm140.859-57.916.659-1.19c-.282-1.391-.58-3.248-1.112-5.097-.057-1.633-1.48-2.283-3.113-2.226l-1.166.04-.024-.699c-2.34-.152-2.823-.602-5.87-.962.531 1.849-.336 3.747-.32 4.213l-1.936 4.737c-.217.475.025.7-.434.949l-1.109 1.673-.699.025c-1.166.04-1.673-1.109-2.638-2.01l-.266-.924c-.507-1.15-1.665-.876-1.931-1.8l-1.865.065c-.692.257-.201.941-.667.957l-1.833.998c-.233.008.258.691.033.932-.491-.683-1.673-1.108-2.14-1.092l-.233.008-3.015.572.258.692c-.193 1.174-.852 2.364-1.535 2.855l-3.473.821c-3.265.114-9.444 10.369-8.793 8.946-3.224 1.28-14.178 15.203-14.096 17.535-2.798.098-2.733 1.963-4.075 3.644.699-.024 1.174.193 1.198.892-2.275 1.714-1.052 3.306-1.244 4.48-3.923 1.304-6.269 7.689-6.13 11.654.016.466.032.932.515 1.382-1.399.049-1.825 1.231-1.792 2.164.073 2.099 2.028 4.599 4.859 5.434l.024.699c-.458.25-.691.258-.45.483.749 1.374 4.537 2.876 3.837 2.901l.7-.025.065 1.866c1.857-.298.634-1.89 2.017-2.405.699-.025.748 1.374 1.448 1.35l1.865-.065c.009.233.491.683 1.191.659 5.829-.204 2.467-2.888 4.541-3.661.025.7.507 1.15.74 1.142.467-.017.459-.25.434-.949l-.024-.7 1.158-.274c.924-.266 3.584-4.327 3.608-3.628-.024-.699-.257-.691-.748-1.374 1.141-.741 4.447.311 3.674-1.763l-.25-.458 1.375-.749c-.016-.466.659-1.19.634-1.89l-.024-.699.7-.025 1.96-4.037.716.442c.233-.008.233-.008.225-.241.008.233.249.458.249.458.7-.024 1.792-2.164 2.467-2.888l.467-.016c1.374-.749 2.066-1.006 2.041-1.706-.032-.932.418-1.415-.065-1.865 1.158-.274 2.541-.789 2.717-2.43l2.177-4.512c1.166-.04 1.526-3.088 2.684-3.362l-1.089 8.91c.499.916.065 1.865.114 3.265-.136 2.806.011 7.003.027 7.469.041 1.166.306 2.091.789 2.541-.691.258-1.133.973-.876 1.665.765 1.841 1.465 1.816 1.489 2.516.008.233-.884 1.432-.843 2.598.049 1.399 1.673 1.108 2.237 3.89-.466.017.274 1.158.515 1.383 1.931 1.801 2.188 2.492 3.869 3.834l1.424.651c.466-.017.716.442.724.675s-.225.241-.217.474c.016.467.25.459.716.442l.466-.016c.716.442.966.9 2.123.626l1.158-.274c.7-.024.941.201.908-.732l-2.413-2.25c-.973-1.134-1.255-2.524-2.446-3.183l-.748-1.375c-.25-.458-.949-.434-.982-1.366.675-.724.659-1.191.377-2.582-.274-1.158-.331-2.79-.653-5.347l.111-3.506c-.524-1.615.843-2.597-.131-3.73-.008-.234 1.158-.274 1.134-.974l-.033-.933c.233-.008.9-.965.876-1.664-.025-.7-.507-1.15-.741-1.142 0 0-.216.475-.683.491-.699.024-.716-.442-.716-.442-.008-.233.442-.716.426-1.182l-.008-.233c.683-.491.892-1.199.843-2.598l.45-.483c-.024-.699-.957-.667-.965-.9s1.158-.274 1.125-1.206l-.008-.234c1.166-.04.9-.965 1.583-1.456l1.383-.515c-.016-.466-.474-.217-1.174-.192l-.7.024c.668-.957 1.069-2.839 1.736-3.796-.025-.7-.025-.7-.724-.675-.025-.7-.291-1.624.401-1.882l.699-.024-.016-.467c-.024-.699 1.117-1.439 1.109-1.673-.016-.466-1.166.041-1.207-1.125-.065-1.865 2.525-1.255 2.95-2.438l-.032-.932c-.155-4.431 3.56-5.027 3.405-9.458-.7.025-1.198-.892-1.223-1.591l-.024-.7.699-.024c.008.233.241.225.241.225.467-.017.925-.266 1.15-.507l-.298-1.858c2.098-.073.876-1.665 2.267-1.947l-.508-1.149-.699.024c-.466.017-1.166.041-1.19-.659 1.165-.04 1.141-.74 1.35-1.448zm-21.766 18.504c-.684.491-1.383.515-1.359 1.215.467-.017.708.209.708.209.024.699-3.552 5.26-3.761 5.968l.025.699q.024.7-.675.724s-.233.008-.708-.209c.008.233-.209.708-.209.708l-1.534 2.855-.7.025c-1.166.04-.851 2.364-1.784 2.397l-.691.257.29 1.624-1.399.049c.298 1.857 1.022 2.533 1.038 2.999.009.233.009.233-.225.241-.466.017-.474-.217-.941-.2 0 0-.233.008-.225.241.017.466.033.933.282 1.391-.699.024-.965-.9-.981-1.367-.049-1.399 1.261-4.013 1.236-4.712l-.233.008c-1.399.049-.835 2.831-3.609 3.628l.025.7c.016.466.024.699-.442.715.032.933-.827 3.064-1.76 3.097-.466.016-.708-.209-.949-.434l-1.326 2.148c.025.699-9.533 7.803-10.65 9.243-1.567 1.923-2.299 1.014-3.907 1.771-.973-1.133-1.231-1.825-1.272-2.991-.049-1.399.61-2.589 1.727-4.029l.684-.491c-.025-.699.667-.957.642-1.656-.933.032-.973-1.134-1.014-2.3l.7-.024c-.258-.692.425-1.182 1.35-1.448-.724-.675-2.107-.16-2.606-1.076-1.971-2.967-1.73-2.742-2.053-5.298 1.183.425 1.424.65 1.448 1.35.017.466 2.148 1.326 2.156 1.559s.257.691.941.2c.466-.016.659-1.19.659-1.19l3.047.361c.16-2.107.038-5.605 3.97-6.676l.466-.016c1.632-.057-.548-2.316 1.551-2.389 3.326-5.019 7.369-9.596 10.785-12.05l-.032-.933.699-.024c1.633-.057 1.342-1.681 1.784-2.397l.467-.017c1.632-.057 1.342-1.681 3.44-1.754l.467-.016c1.865-.065.618-2.356 2.717-2.43l.699-.024 2.926-3.137 2.049-1.473c1.416.418 1.923 1.567 1.939 2.034.253 7.228-7.271 12.394-5.872 12.345m-2.015 9.176c-.466.016-.716-.442-.74-1.142-.024-.699.193-1.174.884-1.432.466-.016.7-.024.716.442.024.7-.651 1.424-.626 2.123zM714.64 163.34c.234-.008.25.459.499.917-.249-.458-.732-.908-.499-.917m58.215 15.711c5.876-5.575 9.17-11.527 14.072-18.235 11.235-12.532 24.136-24.189 31.546-32.619 2.676-3.596 4.108-2.712 2.893-4.07l.699-.025c.643-1.656.242.225 1.424.651.401-1.882.217-.475-.315-2.324 3.417-2.454 7.373-2.825 10.789-5.279 1.366-.982 1.592-1.223 2.901-3.837 1.215 1.358 1.89.634 3.706-.83-.04-1.166 1.142-.74 1.101-1.906-2.34-.152-2.581-.377-3.723.363-3.473.822-12.523 9.076-16.148 12.238-13.359 11.906-26.292 22.63-39.304 37.793-1.751 3.33-3.343 4.552-7.827 9.845-.692.258-1.914-1.334-2.839-1.068-.125-10.268 6.078-19.823 9.058-28.099 1.285-3.313.479-6.32 1.523-9.858.843-2.598 3.769-5.735 4.604-8.566 6.029-21.223 16.614-52.41 24.373-70.891 3.994-5.976 7.681-14.043 9.101-20.162-.588-3.482 1.695-4.962-.228-6.53-3.628-3.608-5.992-4.46-8.299-3.679-.933.033-1.858.299-2.557.323-1.92 5.203-3.774 12.272-5.894 18.416l-2.901 3.837c-.401 1.882 1.713 2.275 1.513 3.216-1.09 8.91-6.594 18.44-8.865 26.925-1.462 4.953-3.959 13.679-5.428 18.4-1.911 5.436-3.823 10.872-5.509 16.067.098 2.799-1.784 2.397-1.719 4.263l-1.101 1.906c.475.217.475.217.491.683.057 1.633-2.676 3.596-2.643 4.528l.024.7c.065 1.865-1.678 5.428-1.654 6.128l.008.233c-.184 1.407-1.542 2.622-1.518 3.322l.008.233c.147 4.197-3.053 6.177-3.02 7.109l.041 1.166c.008.233.032.933-.201.941-.732-.908-5.108 14.186-6.274 14.227-.233.008-.216.475-.208.708l-.586 3.289c-2.112 6.377-3.372 10.39-4.568 16.268-.786 4.23-1.404 6.587.342 9.794 2.196 2.725 4.753 2.402 6.95 5.127 1.39-.282 2.781-.564 4.181-.613-.556-2.549.176-1.64-.556-2.549.376-2.581-.597-3.714.536-4.688.7-.024 1.624-.29 2.557-.322zm39.59-136.56c2.136-5.677 5.848-13.044 6.249-14.926 1.866-.065-3.389 9.924-4.858 14.644l-.7.025c-.233.008-.466.016-.691.258m-2.174 11.283c-.7.024-1.681-1.342-1.714-2.275-.024-.7 2.083-.54 2.026-2.172l-.025-.7c-.032-.932.377-2.58 1.236-4.712.057 1.632 1.321 4.39.163 4.664-1.141.74-.987 5.17-1.686 5.195M791.384 74.51l.868-1.897 1.276-3.547.152-2.34 4.354-9.024.795-3.997 1.309-2.613.361-3.048-1.142.74-1.911 5.437-.401 1.881-.852 2.365-3.012 7.343-1.534 2.855-.835 2.83-.843 2.598.073 2.099.314 2.323zm-2.722 8.967 1.06-3.072-.531-1.849-1.061 3.072-.593 3.056zm-3.221 8.05-.266-.924-1.334 1.914 1.023 2.533zm-5.791 14.678 1.817-1.465 1.542-2.622.819-3.297 1.06-3.072-.724-.675-.192 1.174-1.351 1.448-.086 4.206-2.025 2.171-1.326 2.148.314 2.324zm-1.822 8.001.675-.724.594-3.056-1.952 4.271zm-17.597 64.351 1.477-4.488 2.026-2.171-1.727 4.029.114 3.264-1.882-.401zm95.729-86.69c-.122-3.498 4.747-11.14 4.714-12.072-.04-1.166-1.754-3.44-1.778-4.14s5.089-1.345 4.983-4.377l-.041-1.165c3.086-5.244 4.192-13.688 5.808-14.211 2.725-2.197.43-7.72 3.871-9.474.659-1.19 1.8-1.93 1.743-3.563l-.065-1.865c-.008-.233-.024-.7-.748-1.375 2.042-1.706 4.878-7.408 4.837-8.574-.008-.233-.033-.932-.29-1.624l-.025-.7c-.065-1.865.111-3.505.062-4.904-.073-2.099 1.31-2.614 1.261-4.013-.057-1.633-.13-3.731-2.511-5.049l-.716-.442c-2.871-2-3.104-1.992-4.495-1.71-.7.024-1.166.04-1.158.273-.7.025-.933.033-.917.5l.242.224c-.7.025-.684.491-.684.491.009.233-2.323.315-2.274 1.714.008.233-1.109 1.673-1.093 2.14.008.232-1.093 2.138-.859 2.13.466-.016.699-.024 1.141-.74.266.925.29 1.624.307 2.09.122 3.498-1.486 4.255-1.462 4.955.008.233.033.932.282 1.39-1.632.057-4.251 5.285-5.27 9.523-.193 1.174.089 2.565.813 3.24 1.326-2.147 2.394-4.986 3.237-7.584l1.866-.065c.233-.008 1.399-.049 1.415.418.025.7-5.783 14.91-6.9 16.35.025.7-.2.94-.176 1.64.016.467.025.7.282 1.391-2.058 1.24-4.837 8.574-5.238 10.456l.033.932c.122 3.498-2.161 4.978-2.047 8.243l.032.933c-1.141.74-2.058 1.239-2.009 2.638l.266.925c-.192 1.174-3.438 8.525-5.889 11.879-1.35 1.448-9.605 25.783-9.532 27.881l.041 1.166c.008.234.024.7-.209.708-1.166.041-5.542 15.135-6.274 14.227-.233.008-.208.708-.2.941l.04 1.166c.033.933-3.166 2.912-3.02 7.109l.008.234c.025.699-1.334 1.914-1.518 3.321l.008.233c.025.7-1.719 4.263-1.654 6.128l.025.7c.032.932-2.701 2.896-2.644 4.528.017.466.017.466.491.683l.282 1.391c.065 1.865-1.616.523-1.518 3.322l.081 2.331c.025.7.049 1.399-.417 1.416.073 2.098.87 4.872.895 5.572-1.632.057-2.074.773-2.267 1.947l.29 1.624c-.658 1.19-3.641 2.695-3.608 3.628l1.046 3.232c-.209.707-2.982 1.505-2.95 2.437 0 0 2.189 2.492 4.295 2.652 1.399-.049 10.396-3.165 10.29-6.196l-.016-.466c.699-.025 1.366-.982 1.342-1.681l-.25-.459c-.049-1.399.569-3.755.504-5.62-.097-2.799-1.431-.884-2.18-2.259 1.399-.049 2.083-.54 2.034-1.939l-.025-.699c3.007-.806 3.316-12.023 4.715-12.072 1.142-.74 1.35-1.448 1.326-2.147l-.049-1.399c-.024-.7-.049-1.399.626-2.123-.008-.234-.257-.692-.257-.692l-.524-1.616c1.117-1.44 2.476-2.654 2.652-4.295-.065-1.865 1.499-10.558 3.549-12.03-.491-.684-.516-1.383-.532-1.85 0 0 5.377-6.491 5.255-9.989l-.266-.924c-.049-1.399 2.749-1.497 3.633-2.929.217-.474-2.139-1.092-2.188-2.491 1.166-.041 2.394-4.987 2.394-4.987-.475-.217-.491-.683-.499-.916.466-.017.699-.025.683-.491l-.008-.233c3.801-4.802 3.929-7.842 5.55-14.902m4.079-50.338c-.7.024-1.191-.659-1.899-.868.033.933-.2.941-.642 1.657 1.166-.04 1.423.65 2.123.626l-.008-.233c-.016-.466.45-.483.426-1.182m-7.258 26.168c.602-2.822 4.457-12.763 4.335-16.26l-.024-.7c-.057-1.632 2.049-1.472 2.025-2.172-.033-.933-1.014-2.3-1.714-2.275-.699.025-.545 4.455-1.686 5.195-1.616.524 1.852 6.24-1.179 6.345l-.7.025c-1.469 4.72-2.922 9.907-1.057 9.842m75.733 82.804c-10.531 5.971-6.244 8.389-12.974 9.558-5.547 1.595-11.664 6.945-18.144 8.572-2.798.097-5.347.653-6.931 2.11l-15.856.553c-3.522-.577-4.593-4.509-4.699-7.54-.204-5.83 1.941-11.274 1.762-16.404-.049-1.399-.331-2.79-.38-4.189s2.09-.307 2.025-2.172c-.008-.233-.499-.917-.515-1.383-.024-.7.442-.716.675-.724 2.798-.098 7.069 1.854 10.583 2.199-.225.241-.225.241-.209.707.025.7.966.9 2.365.852 4.197-.147 2.001-2.872 4.566-2.962.949.434 1.439 1.118 2.838 1.069l1.4-.049c3.031-.106 13.158-10.966 13.158-10.966-.025-.699-.499-.916-.524-1.616l.7-.024c1.865-.065 2.549-.556 2.516-1.489-.016-.466-.515-1.383-.54-2.082.426-1.182 1.351-1.448 1.277-3.547.467-.016.716.442 1.182.426 0 0 .234-.008.217-.475-.707-.208-.965-.9-1.456-1.583 1.15-.507 1.375-.748 1.35-1.448-.089-2.565-3.587-2.443-3.636-3.842s2.05-1.472 1.993-3.104c-.13-3.731-10.995-7.321-12.627-7.264-3.498.122-6.955 1.41-9.704 2.907l.024.7c-1.808 1.697-4.099 2.944-6.865 3.975l-.7.024c-1.865.065-4.606 1.795-5.449 4.393l-.385 2.348-1.399.049c-.7.024-1.592 1.223-1.584 1.456 0 0 .016.466.25.458-.627 2.123-7.362 9.829-7.37 9.596.033.933 1.456 1.584 1.481 2.283-.184 1.407-1.35 1.448-1.543 2.622l-.409 1.649c-.917.499-1.342 1.681-2.259 2.18.16-2.107 2.177-4.512 2.129-5.911-.017-.467-.258-.692-.974-1.134-1.751 3.33-3.118 4.312-3.02 7.11.024.699.049 1.399.548 2.315.073 2.099-3.167 2.913-2.996 7.809.073 2.099.588 3.482 1.288 3.457q.35-.012 1.35-1.447c-.466.016-.699.024-.724-.676-.024-.699 1.608-.756 1.535-2.855q-.073-2.098-.798-2.774c.467-.016.716.442.716.442 2.565-.089 1.261-4.013 3.36-4.086.466-.016.49.683.507 1.15.073 2.098-1.969 3.804-1.92 5.203.025.7.041 1.166.749 1.375l.024.699-1.166.041c.122 3.498-1.204 5.645-3.511 6.426.217-.474.675-.724.651-1.423-.017-.467-.491-.684-1.44-1.117-.418 1.415-2.025 2.172-1.952 4.27 3.031-.106 1.488 2.516 5.686 2.37l.932-.033-.151 2.34-1.166.041c-.217.474-.209.708-.176 1.64.228 6.529 10.249 12.716 10.257 12.95.7-.025.933-.033.909-.732 1.48 2.282 7.898 5.56 12.795 5.389 1.166-.04 2.091-.306 2.766-1.03l2.565-.09c3.015-.572 3.375-3.62 6.873-3.742l1.632-.057c.426-1.182 2.652-4.295 3.81-4.569l.932-.032c4.897-.171 1.695-4.962 5.426-5.092.699-.025.732.908 1.898.867 1.632-.057 3.424-2.221 3.375-3.62l-.032-.932c2.025-2.172 7.491-6.099 8.89-6.148l.7-.024c2.05-1.472 4.083-3.411 5.409-5.559-.008-.233-.491-.683-1.19-.658zm-49.454-25.588c.216-.475-.025-.7-.491-.684-.233.008-.467.017-.692.258 1.559-2.156 3.384-3.387 5.201-4.851 1.374-.748 2.033-1.939 3.665-1.996l1.4-.049c.417-1.415 2.066-1.006 2.741-1.73-.049-1.399-1.673-1.109-1.722-2.508-.033-.932 1.342-1.681 2.041-1.705.234-.008.708.209.724.675l2.332-.082c.684-.49 1.841-.764 2.774-.797 2.099-.073 3.555 1.51 5.003 2.861l-.586 3.289c-1.068 2.838-.84 9.368-18.415 14.184-1.616.523-7.229.252-6.787-.464zm1.616-.524s.466-.016 1.157-.274c.627-2.123 2.259-2.18 2.901-3.837-.016-.466-.249-.458-.715-.441-1.4.048-3.634 2.928-3.585 4.327.008.233.008.233.242.225m115.468 3.906c-.049-1.399-.83-3.707-.83-3.707l-2.012-4.132-1.632.057c-.7.025-1.399.049-1.89-.634.692-.258.692-.258.683-.491-.032-.933-6.361-1.646-7.06-1.621-.692.257-1.833.998-2.275 1.713l.491.684c-1.399.049-1.375.748-2.308.781l-1.865.065c-1.399.049-3.248.58-3.199 1.979l-.467.017c-.192 1.174-3.731.13-3.674 1.762l.025.7c-.892 1.198-8.175 6.589-8.069 9.62l-.233.008c-.933.033-.917.499-.884 1.432l.041 1.166c.024.699-.193 1.174-.892 1.198l-2.099.074c-1.399.048-1.849.531-1.817 1.464.017.466.017.466.274 1.158-2.098.073-2.009 2.638-2.942 2.67l-.699.025-3.568 4.794c-.86 2.131-6.854 10.979-9.411 11.301l6.282-13.994c-.09-2.565 5.054-9.048 4.923-12.779-.016-.466-.482-.45-.482-.45.442-.716 2.25-2.413 2.266-1.947l-.016-.466c1.817-1.464 3.245-7.351 3.63-9.699.209-.708.418-1.415.377-2.581-.475-.217-.515-1.383-.532-1.849-.114-3.265.738-5.629-4.49-8.248-.781-2.308-5.735-3.769-11.797-3.557.008.233-.217.474-.209.707l1.166-.04c3.264-.114 3.435 4.783 3.606 9.679-.466.017-1.155 7.045-2.071 7.544-.209.707-.184 1.407-.16 2.106.016.467.274 1.158 1.456 1.584-1.318 2.381-4.313 10.19-4.313 10.19l.024.699c.033.933-.426 1.182-.385 2.348-.618 2.356-1.735 3.796-1.654 6.128l.025.7c-1.375.748-2.267 1.946-2.917 3.37l.04 1.166c.057 1.632-1.334 1.914-1.993 3.105l.017.466c.179 5.13-5.729 9.772-5.428 18.4l.008.233c-.458.249-.683.491-.667.957.049 1.399 2.213 3.191 3.395 3.617l.033.933c3.264-.114 2.467-2.888 4.292-4.119l2.565-.09c.466-.016-1.158.274-1.142.741l.033.932c.016.467.266.925.491.684 2.169-4.745 7.071-11.454 10.405-16.239l.933-.033c.418-1.415.851-2.364 2.242-2.646l1.399-.049-.298-1.858.933-.032c2.009-2.638 5.216-4.385 6.277-7.457l.908-.732c3.858-3.17 8.535-9.637 12.353-13.972.417-1.416 8.383-7.297 9.533-7.804l.699-.025c-.024-.699-.024-.699.675-.724l.638 4.881c-2.283 1.481-.182 8.178-2.633 11.532l.131 3.731c.081 2.331-2.435 3.82-2.362 5.919.049 1.399.564 2.782 1.288 3.457-1.35 1.448.592 10.252.6 10.485.355 3.489 5.635 14.278 6.817 14.704l.699-.025c-.813-3.24-.927-6.504-.976-7.904l-.024-.699c-.017-.466-.033-.933.667-.957-.009-.233 2.141-12.215 2.608-12.232.225-.241 2.041-1.705 2.025-2.172 0 0-1.432-.883-1.456-1.583-.008-.233-.017-.466.434-.949l-.033-.933c1.865-.065 2.427-4.053 3.037-6.643l-.066-1.865c-.024-.7 2.394-4.987 2.297-7.785-.017-.466-.041-1.166-.299-1.857l.177-1.641c-.025-.699-.274-1.157-.814-3.24l.7-.024s.441-.716.425-1.182M1077.28 192c-1.37.749-2.8.098-4.43.155-.7.024-1.42-.418-2.11-.393l-.03-.7c-.06-1.632-1.46-1.583-1.5-2.982.23-.008 2.86-5.003 2.83-5.702-.01-.467-.25-.459-.96-.667l-.7.024c.9-1.198 2.26-2.18 2.21-3.579-.01-.466-.27-1.158-.98-1.367.94-.032 1.62-.523 2.31-.781-.07-2.098-.82-3.473-.87-4.872-.02-.7.42-1.415 1.33-2.147l-.07-1.866c-.07-2.099-.62-4.414-.71-6.979-.28-7.928-2.23-16.965-4.03-21.805-2.84-7.839-5.14-13.595-6.01-18.467-.08-2.099 1.08-2.373 1.06-2.839-.02-.7-1.21-1.359-1.24-2.058 0-.233.45-.716 1.38-.749.02.467.49.684.49.684 1.4-.049 3.33-5.019 3.98-6.443-.47.016-.7.025-.73-.675l-.02-.7c2.05-1.472 5.38-6.491 5.33-7.89l-.01-.233-.7.024c-.7.025-.93.266-1.63.29-.46.017-.69.258-1.13.974l-1.57 1.922c-.89 1.199-1.6.757-3.66 1.996l-.7.025c-.07-1.866-1.77-3.908-5.97-3.761-.7.024-4.74-1.936-4.7-.77l.03.7c-.69.257-1.39.282-1.35 1.448l.01.233-2.8.098c-2.33.081-.84 2.83-1.52 3.321-.47.016-1.18-.426-1.41-.417-3.97.138-8.58 8.47-12.7 10.949l.03.699-.7.025c-.68.724-.89 1.198-.87 1.898.03.699.28 1.391.29 1.624.02.466.02.466-.22.474-.46.017-1.16.041-2.12-.626-1.32 2.148-1.77 2.863-1.93 4.97l.05 1.399-1.4.049c-1.37.749-5.11 7.416-5.12 7.183l-3.03.106c-1.71 4.495-6.59 11.67-7.98 12.185l.03.7c-1.35 1.448-2.74 1.73-2.65 4.295l.02.699-.7.025c-1.12 1.44-2.65 4.295-2.58 6.393.01.233.04.933.28 1.391l.7-.024.09 2.332c.02.699.04 1.399-.65 1.423l-.7.025c-1.38.748.13 3.964-1.26 4.246-.25-.692-.05-1.633-.99-1.6.05 1.399.78 2.074.78 2.307.03.7-.65 1.191-.62 2.123.21 6.063 10.18 10.851 10.2 11.318.01.233.96.667 1.66.642 1.39-.049 2.08-.54 2.05-1.239l.7-.024c.02.466.49.683.49.683l.24-.008c.49.683.74 1.141 1.44 1.117 1.4-.049 3.21-1.513 3.17-2.679l1.63-.057c1.82-1.465 4.46-5.993 4.37-8.791l-.05-1.399c-.04-1.166.63-1.89 2.03-1.939l-.02-.699c2.77-.798 3.37-3.62 4.93-5.776-.7.025-.94-.2-.96-.667-.02-.699.63-2.123.86-2.364l-.05-1.399.7-.025c1.15-.507 1.35-1.448 1.79-2.163l2.19-4.046c1.97-3.804 9.11-13.392 9.97-15.29 1.8-2.164 5.02-9.981 6.66-10.038.7-.024.79 2.774 1.33 4.856l.7-.024c.01.233-.44.716-.43.949.04 1.166 1.21 1.358 1.26 2.757.03.7-.44.716-.39 2.115.16 4.664 2.29 5.523 2.37 7.622l.09 2.565c.1 2.798.84 4.173.87 4.872.01.233.02.7-.18 1.641l.58 16.556c-.69.257-.67.957-.63 2.123.08 2.098.87 4.872.9 5.572.03.932-.65 1.423-.62 2.356l.02.699c-.7-.208-1.17-.192-1.17-.192-.23.008 1.22 1.358 1.26 2.757l.03.7c-.7.024-1.37.981-1.35 1.448.03.933.96.9 1.45 1.583-1.14.74-2.05 1.473-1.98 3.338l-.7.024c-.39 2.115-1.02 4.238-3.82 4.336-1.4.049-2.82-.602-3.52-.577 0 0-.23.008-.22.241l.74 1.142-2.8.097c-.72-.442-1.19-.659-1.89-.634-.93.032-2.08.773-2.75 1.497l-.7.024c-5.77 1.836-10.49.367-15.54 2.878-1.17.04-1.14.74-2.08.772-.7.025-1.4-.184-2.1-.16-1.87.066-2.54 1.023-3.44 1.755l-2.1.073c-2.48 2.655-8.36 1.459-8.25 4.491l-2.1.073c-1.87.065-3.24.813-3.91 1.537l-1.64.057c-1.36 1.215-4.87.871-5.246 3.452l-1.399.049c-2.999 1.039-8.265 4.024-8.224 5.19l-1.399.049c-.209.708-.667.957-.9.965-.467.016-.7.025-1.174-.192-1.375.748-3.417 2.454-3.633 2.928l-.025-.699c-3.24.813-3.11 4.544-4.509 4.593-.699.024-.941-.201-2.147-1.326-.884 1.432-1.334 1.914-1.31 2.614.008.233.033.933.523 1.616 5.781-1.603 11.038-4.821 14.721-6.351.024.7.474.217.707.209 2.701-2.896 22.555-9.426 23.205-10.849 2.29-1.248 9-2.883 8.3-2.858l1.63-.057c.7-.025 1.89.401 2.59.376.69-.024.91-.498.89-1.198l-.03-.7.7-.024c1.37-.982 4.58-2.495 4.12-2.478 1.4-.049 1.87.168 2.1.16.47-.017.7-.025 2.1-.307.7.209 1.4.184 2.1.16 4.2-.147 10.4-3.165 15.76-3.352 1.4-.049 2.35.385 3.76.569.09 2.799-1.29 3.314-1.26 4.013v.233c-.21.475.05 1.4-.65 1.424l-.7.024.03.7c.06 1.865-1.34 1.914-1.52 3.321.93-.032 1.41.185 1.41.185.02.699-1.35 1.448-1.33 2.147l.93-.032c1.17-.041 1.39-.282 1.38-.749-.03-.699-.28-1.391-.29-1.624-.03-.699.67-.724.91-.732.7-.024.73.908 1.21 1.358-1.12 1.44-.58 3.523-2.67 3.596l-2.1.073c-.44.949-.65 1.657-1.33 2.148l-.05-1.399-1.86.065.05 1.632c.08 2.099-1.92 4.97-2.58 6.16.05 1.633-.13 3.04-.56 4.222l2.61-5.461c3.45-1.754 5.43-5.092 8.15-7.522l.7-.024c.45-.483.44-.716.42-1.182-.01-.233-.49-.683-.51-1.383-.03-.7 1.14-.74 1.11-1.44-.04-1.399-1.24-2.058-1.26-2.757-.01-.233-.01-.233.68-.724 1.93 1.8 1.89.634 3.37 3.15.81-3.53 5.38-6.491 5.27-9.756l-.06-1.632c-.02-.466-.07-2.098.86-2.131l.02.7c.03.699.5.916.74.908.7-.025 1.36-.982 2.53-1.022l.7-.025c1.63-.057 2.05-1.472 3.68-1.529l4.66-.163c-.09-2.565-2.12-.626-2.66-2.709m-15.66-80.699c-.46.016-.46.249-.67.724-1.11 1.673-6.08-.255-5.98 2.543-.71-.208-1.43-.65-1.46-1.583-.02-.466-.03-.7.67-.724 1.39-.515 1.78-2.63 3.88-2.703.23-.009.95.433 1.41.417 1.64-.057 2.27-1.947 3.44-1.988.23-.008.71.442.95.667-2.33.082-1.33 1.915-2.01 2.639zm-8.13 7.755c-.17 1.873-1.74 3.796-3.46 8.058-1.07 2.606-2.17 4.745-2.79 6.868l.02.7c-.21.474-.67.724-.91.732-.46.016-1.09 2.139-1.8 1.697-2.73 2.197-2.93 3.138-5.81 7.674l.07 1.865-1.4.049c-4.93 5.776-13.11 19.135-17.75 19.998l-1.63.057c-.71-.442-1.19-.659-1.42-.651-1.4.049-.51-1.15-.63-4.647l-.06-1.633c-.01-.233-.22.242-.22.242-.47.016-.48-.217-.5-.917-.04-1.166 1.37-.748 1.33-1.914l-.01-.233c2.46-3.354 9.37-12.701 9.26-15.732l-.02-.467.7-.024c1.37-.982 3.21-1.746 3.12-4.311l-.02-.7c.7-.024 1.4-.049 1.37-.748l-.02-.7c.92-.266 16.22-16.909 15.75-16.892l.47-.017c2.08-.539.84-2.597 3.64-2.695 1.4-.049.77 2.074 2.19 2.492l.7-.025zm33.38 73.31c-1.17.041-2.1.073-2.56.323-.68.49-.92.499-.89 1.198.7-.024.95.667 1.65.643l1.4-.049c-.01-.467-.01-.467.45-.483.24-.008.95.434 1.42.418.7-.025.91-.499 1.33-1.915-1.17-.192-2.11-.16-2.8-.135m-114.932 38.333c-.025-.7.659-1.191.634-1.89-.708-.209-2.847-1.301-3.546-1.277.016.466 1.448 1.35 1.513 3.216zm-7.589 3.3q.276-2.11 2.025-2.172c.233-.008.933-.033 1.649.409-.041-1.166.401-1.881.626-2.123-1.673-1.109-1.633.057-3.772-1.035.041 1.166-1.301 2.847-1.26 4.013.024.699.265.924.732.908m80.601-5.149c.45-.483 1.12-1.207 1.32-2.148zm-2.24 2.879 2.24-2.879c-1.35 1.448-2.98 1.738-2.94 2.904zm-84.204 8.777c-.258-.691-.266-.924-.29-1.624-.09-2.565 3.657-2.229 4.734-4.834l-.7.024c-1.166.041-2.131-.859-2.831-.835-.466.016-.691.258-1.133.974.466-.017.716.442.716.442.008.233-.692.257-1.391.282l-.7.024c-.659 1.19-.867 1.898-.843 2.598.024.699.282 1.391.307 2.09l.032.933zm-4.341 2.72c-.025-.699.659-1.19.634-1.89-.008-.233-.474-.217-.724-.675.017.467-.659 1.191-.634 1.89.008.233.241.225.724.675m77.255-.596c-.18 1.407-.62 2.123-1.56 2.155-.46.016-1.16.041-1.42-.65l.05 1.399-.48-.45c-9.37 12.7-19.81 14.466-19.71 17.264-2.09.306-2.25 2.413-5.05 2.511l-.7.024c-.63 2.123-3.434 1.988-3.827 4.103l-2.332.081c-1.866.065-4.775 3.669-7.267 5.857l-.932.033c-.025-.7-.491-.684-.491-.684-1.632.057-2.95 2.438-3.4 2.921.474.217 1.431.884 1.922 1.567-1.865.065-3.947.605-3.988-.561-.008-.233.442-.716.667-.957-1.633.057-1.342 1.681-4.116 2.478l-.7.024c-.675.724-1.542 2.622-2.708 2.663-.233.008-.716-.442-.957-.667-1.809 1.698-2.492 2.188-3.425 2.221l-4.197.147c-.692.257-1.375.748-2.074.772-.467.017-1.183-.425-1.416-.417-1.399.049-2.548.556-3.191 2.212-.241-.225-.724-.675-.957-.666-1.399.048-6.272.919-6.207 2.784-1.165.041-1.881-.401-2.605-1.076-.659 1.19-.651 1.424-2.05 1.472-2.147-1.325-4.954-1.461-9.192-2.48.098 2.798.654 5.347 3.46 5.482l.7-.024c.249.458.716.442.724.675.024.699-1.334 1.914-1.31 2.614 2.823.602 2.888 2.467 6.619 2.337l.699-.025c.741 1.142 2.614 1.31 4.713 1.236 2.332-.081 4.148-1.545 5.547-1.594l.234-.008c2.074-.773 4.655-.396 4.557-3.194l.7-.025c.756 1.608 2.172 2.026 3.812 2.202-.024-.7 1.342-1.681 1.326-2.148 0 0-.241-.225-.708-.209l-.699.025c-.041-1.166.651-1.424 2.05-1.472l1.166-.041c-.442.716-1.134.973-1.093 2.139l.699-.024c1.4-.049 3.216-1.513 3.2-1.98-.033-.932-.757-1.608-.773-2.074-.008-.233-.024-.699.675-.724.274 1.158 1.681 1.342 3.08 1.293 2.099-.073 4.64-.862 4.607-1.795-.016-.466-.507-1.149-1.914-1.334l.699-.024c2.099-.073 2.598.843 4.021 1.494 1.228-4.946 5.225-4.152 11.391-8.102 2.516-1.489 7.741-5.641 7.671-7.739l.7-.025c6.29-6.99 16.51-15.051 16.28-15.043 2.31-.781 2.65-4.295 4.21-6.451l1.4-.049c.39-2.115 5.35-7.19 8.54-9.636l.69-.025c.22-.474.21-.707.2-1.174-.01-.233-.27-.924-.29-1.624-.02-.466-.03-.699.66-1.19l-.7.024c-1.84.765-1.03 4.005-3.13 4.078zm-83.773 7.828c-.041-1.166.659-1.191.634-1.89-.699.024-.957-.667-1.423-.651.024.7-.659 1.191-.651 1.424.7-.025.724.675 1.44 1.117M933.391 270.1c-.491-.683-.748-1.375-.757-1.608-.073-2.099 4.124-2.245 4.734-4.835l-.45.483c-.233.008-.949-.434-1.423-.651l.466-.016-.016-.466c-.106-3.032 6.222-2.319 6.125-5.117l-.008-.233c-1.142.74-1.841.765-2.075.773l-1.865.065c-.933.032-5.098 1.112-4.951 5.309.233-.008.233-.008.25.458 0 0-.692.258-1.391.282l-.7.025c-.659 1.19-.868 1.898-.843 2.597.024.7.282 1.391.306 2.091l.033.932zm3.189 11.095c-.024-.7-.499-.917-.515-1.383-.025-.7.65-1.423.626-2.123-.033-.933-.773-2.074-2.172-2.025-.233.008-.916.499-1.591 1.223l-.025-.7c-.049-1.399-2.139-1.093-2.654-2.475.433-.949 1.841-.765 1.792-2.164l-.033-.933c-2.54.789-5.49 3.227-5.417 5.325.187 5.364 7.375 3.945 8.614 6.003l.041 1.166c.033.933.29 1.624.99 1.6 1.166-.041 2.741-1.73 2.692-3.129l-.016-.467zm47.471-4.459c.017.466.25.458.25.458zm173.219-134.222c-10.54 5.971-6.25 8.389-12.98 9.558-5.55 1.595-11.66 6.945-18.14 8.572-2.8.097-5.35.653-6.93 2.109l-15.86.554c-3.52-.577-4.59-4.509-4.7-7.54-.2-5.83 1.94-11.274 1.76-16.404-.05-1.399-.33-2.79-.38-4.19-.05-1.399 2.09-.306 2.03-2.171-.01-.234-.5-.917-.52-1.383-.02-.7.45-.716.68-.724 2.8-.098 7.07 1.854 10.58 2.198-.22.242-.22.242-.21.708.03.7.97.9 2.37.851 4.19-.146 2-2.871 4.56-2.961.95.434 1.44 1.117 2.84 1.068l1.4-.048c3.03-.106 13.16-10.966 13.16-10.966-.03-.699-.5-.916-.52-1.616l.7-.024c1.86-.065 2.54-.556 2.51-1.489-.01-.466-.51-1.383-.54-2.082.43-1.182 1.35-1.448 1.28-3.547.47-.016.71.442 1.18.426 0 0 .23-.008.22-.475-.71-.208-.97-.9-1.46-1.583 1.15-.507 1.38-.749 1.35-1.448-.09-2.565-3.59-2.443-3.63-3.842-.05-1.399 2.05-1.472 1.99-3.105-.13-3.73-11-7.32-12.63-7.263-3.5.122-6.95 1.41-9.7 2.907l.02.7c-1.81 1.697-4.1 2.944-6.86 3.975l-.7.024c-1.87.065-4.61 1.795-5.45 4.393l-.39 2.348-1.4.049c-.7.024-1.59 1.223-1.58 1.456 0 0 .02.466.25.458-.63 2.123-7.36 9.829-7.37 9.596.03.933 1.46 1.583 1.48 2.283-.18 1.407-1.35 1.448-1.54 2.622l-.41 1.649c-.92.498-1.34 1.681-2.26 2.18.16-2.107 2.18-4.512 2.13-5.911-.02-.467-.26-.692-.98-1.134-1.75 3.33-3.11 4.312-3.02 7.11.03.699.05 1.399.55 2.315.08 2.099-3.16 2.912-2.99 7.809.07 2.099.58 3.482 1.28 3.457q.36-.012 1.35-1.448c-.46.017-.7.025-.72-.675-.02-.699 1.61-.756 1.54-2.855-.05-1.399-.32-2.324-.8-2.774.46-.016.71.442.71.442 2.57-.089 1.26-4.013 3.36-4.086.47-.016.49.683.51 1.15.07 2.098-1.97 3.804-1.92 5.203.03.699.04 1.166.75 1.375l.02.699-1.16.041c.12 3.498-1.21 5.645-3.51 6.426.21-.474.67-.724.65-1.423-.02-.467-.49-.684-1.44-1.118-.42 1.416-2.03 2.172-1.95 4.271 3.03-.106 1.48 2.516 5.68 2.37l.93-.033-.15 2.34-1.16.041c-.22.474-.21.707-.18 1.64.23 6.529 10.25 12.716 10.26 12.949.7-.024.93-.032.91-.732 1.48 2.283 7.89 5.561 12.79 5.39 1.17-.041 2.09-.306 2.77-1.03l2.56-.09c3.02-.572 3.38-3.62 6.88-3.742l1.63-.057c.42-1.182 2.65-4.295 3.81-4.569l.93-.032c4.9-.171 1.69-4.962 5.43-5.093.69-.024.73.909 1.89.868 1.64-.057 3.43-2.221 3.38-3.62l-.03-.933c2.02-2.171 7.49-6.098 8.89-6.147l.7-.024c2.05-1.472 4.08-3.411 5.41-5.559-.01-.233-.5-.683-1.19-.659zm-49.46-25.589c.22-.474-.02-.699-.49-.683-.23.008-.47.016-.69.258 1.56-2.156 3.38-3.387 5.2-4.851 1.37-.749 2.03-1.939 3.66-1.996l1.4-.049c.42-1.415 2.07-1.006 2.75-1.73-.05-1.399-1.68-1.109-1.73-2.508-.03-.933 1.35-1.681 2.04-1.705.24-.009.71.208.73.675l2.33-.082c.68-.49 1.84-.764 2.77-.797 2.1-.073 3.56 1.51 5.01 2.86l-.59 3.289c-1.07 2.839-.84 9.368-18.41 14.185-1.62.523-7.23.252-6.79-.464zm1.62-.523s.46-.016 1.15-.274c.63-2.123 2.26-2.18 2.91-3.837-.02-.466-.25-.458-.72-.442-1.4.049-3.63 2.929-3.58 4.328 0 .233 0 .233.24.225m65.01 56.563c1.41.185 2.8-.098 4.2-.146 1.15-.274 2.55-.323 3.71-.597 1.86-.298 3.65-2.462 5.56-1.128.64-1.89 1.39-.515 2.08-.773 1.16-.274 2.07-.773 3.22-1.28s2.3-1.014 3.44-1.754c2.29-1.248 4.34-2.953 5.9-4.876-1.38-12.792-16.61-21.132-26.79-25.212-.52-1.383-.04-.933-.76-1.608-.08-2.332.54-4.688 1.4-6.819.65-1.424 1.53-2.855 2.42-4.287.44-.716 2.25-2.413 4.05-4.344l1.26-4.013 1.89.868c1.12-1.44 2.25-2.414 2.7-2.896 1.13-1.207-.98-1.6.14-2.807 1.41.185 2.61 1.31 3.97.095 1.38-.748 2.46-3.121 3.6-3.861 1.61-.757 1.46 1.583 2.61 1.076 6-1.844 10.45-1.532 15.2.87.41-1.648.19-1.407.86-2.364-.6-3.715-12.59-12.635-16.57-13.196-1.19-.659-2.82-.369-4.66.396-1.15.507-2.75 1.497-4.11 2.712-5.69 4.167-11.52 10.908-14.97 12.429l.1 2.798-3.27.114c.49.684.97 1.134 1.7 1.809-3.8 4.802-11.74 11.616-6.12 18.657.32 2.557 1.58 5.081 3.76 7.34.73.908 1.93 1.8 2.89 2.7l2.63 1.776c4.4-1.087 5.24 2.853 7.15 3.953 1.89.868-.14-3.964 3.79 1.736 1.9.867 4.03 1.727 5.69 2.369.07 2.099.12 3.498-.77 4.696-3.1 4.778-10.8 5.047-15.72 4.518-3.26.114-8.14.751-10.06-.583-6.81-1.162-1.61-6.013-.69-6.279 1.16-.274.25.458.16-2.107-1.6.757-2.07.773-3.2 1.746-2.14-1.092-1.05 3.306-1.84.765-2.08.773-.2.941-2.29 1.481-3.79 5.035-4.06 10.647-2.34 13.155 2.6.844 5.2 1.687 7.78 2.064 1.65.409 3.05.593 4.69.769-.75-1.607 1.11-1.673 5.61.038m59.34-52.267c.45-.483.9-.966 1.12-1.44-.01-.233-.45.483-1.12 1.44m-38.64 16.758c10.37-4.098 25.6-9.066 34.08-13.797-5.34.887-6.94 2.109-10.62 3.639-3.29-.586-17.81 4.824-23.46 10.158m-.54-2.316c.22-.241-.92.499-1.62.524-.23.008.49.683.72.441zm-7.74 5.873c1.6-.989 3.9-2.004 6.67-3.034-1.68-1.109-4.23-.786-6.05.678-.18 1.407-.2.941-.64 1.657zm2.13.86c.06 1.632 2.53-1.256 4.1-2.945-1.13.974-2.73 1.963-4.56 2.961zm-22.25 11.283c.98 1.366 3.72-.364 4.84-1.803-.47-.217-1.16.04-2.32.314-.68.491-1.6.99-2.52 1.489m7.52 7.909c-.51-1.15-3.31-1.052-3.8-1.735.02.466 1.68 1.342 1.7 1.808z" opacity=".3"/><defs><linearGradient id="a" x1="-1172.73" x2="-1167.46" y1="-282.118" y2="493.082" gradientUnits="userSpaceOnUse"><stop offset="1" stop-color="#C6DDFF"/><stop offset=".359" stop-color="#D2EED9"/><stop stop-color="#D8E5E7"/></linearGradient></defs></svg>