<svg xmlns="http://www.w3.org/2000/svg" width="762" height="204" fill="none"><path fill="url(#a)" d="M74.471 114.867c-1.575.055-1.723-.083-1.733-.37-1.135.327-5.855.635-6.57.66-1.545.914-10.564 1.229-15.555 1.976-5.277.758-24.89 1.443-36.554 4-.291-.133-.874-.399-1.17-.676.246-1.155-.307-.562 1.13-.469-.12-3.436.897-3.042 1.37-5.925.685-.884.143-.005-.47-1.13.701-.455.84-.603 2.123-.791-1.625-1.376-.332-1.278-1.635-1.663.271-.439.276-.296.982-.607-.894-.973.276-.297-1.175-.819-.342-1.565 2.047-2.939 3.044-3.117-.045-1.288-.095-2.72.443-3.742.552-.593.42-.301 1.851-.351-.193-1.427-.55-3.421 1.272-4.632q-.445-.414-1.319-.813c.962-1.18 1.653-1.921 1.884-3.506 1.156.246.87.256 1.743.656-.193-1.427-.316-.85-1.358-1.96.394-1.017.859-.03.518-1.594 2.423-.372 2.295.063 1.662-1.635.302.42.736.547 1.176.819.241-1.299.937-1.896 1.618-2.924.286-.01.43-.014.567-.163-1.16-.39-.572.02-1.85.352-.179-.998-.174-.854-.194-1.427.553-.593.711-.168 1.269-.618l.43-.015c-.589-.41-2.02-.36-2.598-.482l-.43.015 1.664-1.635.143-.005c.972-.894 2.087-1.793 2.941-1.966-.879-.543-1.175-.82-2.325-.922-.377-2.567 2.59-3.817 3.74-3.714.078-1.866.216-2.015.443-3.743l.572-.02c-.444-.414-.879-.542-1.18-.962.553-.592.716-.025 1.13-.47.824-1.031.543-.878.078-1.865.099-1.294.953-1.467 2.819-1.389-.746-.834-.736-.547-1.472-1.095.972-.894 1.48-2.775 1.287-4.202.997-.178 1.565-.34 2.152.069.287-.01.43-.015.568-.164-1.042-1.11-.312-.705-1.758-1.085-.153-.281-.311-.706-.46-.844 1.299.241 1.16.39 2.326.922l-.454-.7c-.302-.42.133-.292-.588-.41l-.322-.992c1.156.246.874.4 1.605.804.232-1.585.621-2.745.714-4.182l-.43.015c-.429.015-.152-.281-.7.455-.425.158-.568.163-.997.178.66-1.6.794-1.891 2.808-1.675.133-.291.128-.434.123-.578 0 0-.49-1.703-.602-.838l-.277.296a9.1 9.1 0 0 1 2.432-4.242c-1.037-.967-.879-.543-1.614-1.09 1.273-.475.28-.153 1.283-.188.586-3.748 2.332-7.105 2.483-10.98-2.76-1.05-6.527-2.21-9.016-3.7-5.385 1.766-2.174 7.53-3.322 11.584-1.297 3.915-3.605 19.906-6.67 22.45.603.839.445.414 1.334 1.243-1.53 1.344-1.568 4.355-3.537 5.427.44.271 1.017.395 1.313.67-1.57.2-1.15-.102-1.821 1.211-.271.44-.138.148.163.568.148.138.158.424.316.849-.567.163-.854.173-1.283.188.336 1.422.376 2.567.396 3.14-.266.582-.864-.114-1.11 1.042-.573.02-1.14.183-1.856.208.301.42.75.977 1.047 1.253l-1.578 4.069-1.846.494c.46.844.628 1.555.934 2.118-.696.597-1.54 1.057-2.246 1.368 0 0 1.047 1.254.638 1.841-.271.44-1.278.332-1.555.628-.118.72.005.143.475 1.273-1.115.9-1.09 1.615-2.783 2.39.577.124.143-.004 1.007.109-.098 1.293.454.7-1.106 1.185 1.02 4.551-2.841 4.83-2.267 8.966-.71.168-1.283.188-1.85.352.81 2.695-.102 5.307-2.214 6.384.72.118.138-.148 1.012.251.025.716.015.429-.114.864.149.138.159.424.159.424-.287.01-.726-.261-1.012-.251-.33 2.878-1.38 5.638-1.28 8.502.085 2.433 2.302 4.363 1.202 5.691.44.271 1.032.824 1.333 1.244 5.312.244 10.371-2.656 17.84-2.2 1.294.098 2.927-2.396 4.961-1.607 0 0 1.851-.351.839-.602-.143.005-.434-.129-.73-.405 1.87.221 4.734.121 5.849-.777 1.442.236.558-.45 1.175.819 3.135-.54 3.959-1.572 5.37-2.195s5.05.971 7.874-.275c1.698-.632 3.914-2.86 5.36-2.48 2.567-.377 2.133-.505 2.612.912 7.64-2.847 11.9-3.999 17.75-4.777l1.249-1.19-.326-1.135zM36.774 57.415c.153.282.163.568.316.85l-1.002.034c-.148-.138-.158-.424-.311-.705.281-.154.568-.164.997-.179m-2.344 2.662c.03.86.015.43-.858.03zm2.534 2.779c-.005-.144-.153-.282-.158-.425-.43.015-.573.02-.997.178.578.123.148.138 1.155.247m-1.04 3.046c-.158-.424-.312-.706-.322-.992-.429.015-.715.025-.997.178.01.286.164.568.317.849zm-5.948 2.071c.148.138.153.281.158.424-.143.005-.572.02-.997.179-.01-.287-.163-.568-.316-.85.286-.01 1.007.109 1.155.247m-4.454 7.896c1.012.251.434.128 1.165.532-.143.005-.281.154-.42.302-.429.015-.715.025-1.283.188-.005-.143-.153-.282-.153-.282.558-.449.567-.163.69-.74m2.682 2.916c.582.266.148.138.874.4l.37-1.733c-.144.005-.963 1.18-1.244 1.333m-4.708 4.751c.153.282.311.706.316.85l-.859.03c-.005-.144-.158-.425-.31-.707.285-.01.567-.163.853-.173m.13 3.722c-1.007-.108-.578-.123-1.155-.246 1.007.108.434.128 1.155.246m-4.12 5.161c.603.839.163.568-.256.869.148.138.153.281.306.563l-.286.01c-.163-.568-.178-.998-.331-1.279.28-.153.424-.158.567-.163m-5.561 4.924c-.721-.118-.43.015-.874-.4.869.257.291.134.874.4m.654 6.428c-.118.72.015.429-.71.168.28-.153.424-.158.71-.168m-1.523 5.643c-.72-.118-.43.015-1.012-.251.864.113.573-.02 1.012.251m-1.964 1.215c.276-.296.42-.301.266-.582 1.012.251.721.118 1.16.389l-.123.578s-1.86.065-1.303-.385m-.553.593c.005.143-.281.153-.128.434l-.46-.844c.87.257.573-.02 1.018.395zm4.735.121s-1.565.341-.87-.256c-.152-.281-.01-.286.129-.435.587.41.148.138.74.691m1.268-.617c.88.542.598.695.86-.03zm-3.085 1.971c.144-.005.435.128.583.266-.098 1.293.301.419-1.11 1.042l-.47-1.13c.425-.158.711-.168.997-.178m-2.823 1.245c.005.143-.133.291-.128.434-.01-.286-.163-.567-.316-.849.726.262.286-.01.874.4zm3.027.468c.864.113.572-.02 1.017.394zm-4.23 2.011c.138-.149-.01-.287.123-.578.588.409.291.133.889.829 0 0-1.856.208-1.012-.251m43.628 5.643c.874.399 2.3.206 3.722-.13-.588-.41-1.022-.538-1.595-.518-.71.168-1.417.48-2.127.648m-16.103 2.712c.874.4.435.128 1.013.252-.716.025-.425.158-1.013-.252m86.901-44.028c-.711.168-1.688.918-2.384 1.516 1.131-.47 2.404-.944 3.826-1.28.148.138 1.554-.628 2.838-.816l.128-.434c-1.851.35-3.559.697-4.408 1.014m-3.652 2.134c.286-.01.706-.312 1.268-.618-.992.322-1.984.643-2.828 1.102.711-.168 1.279-.331 1.56-.484m-10.346 3.371c-.578-.123-1.713.203-2.444-.201-3.825 1.28-9.24 2.186-14.048 4.074-1.283.188-2.305-.35-3.475-1.026-2.193-1.213-3.245-2.61-6.829-2.628.07 2.004.298 4.433-.516 5.752l-2.861 4.256c-1.746 3.358-2.555 4.82-3.136 8.71-.07 10.323 2.839 11.511 6.869 16.1 1.145-.04 2.29-.08 3.43-.263l.855-.173-.163-.568c.108-1.007 2.26-.939 3.677-1.418l.424-.158c.686-.884 2.118-.934 2.083-1.936l-.01-.287.424-.158c.992-.321.533-1.165 1.234-1.62l.424-.158c.311.706.736.548.899 1.116.804-1.605 1.03-3.333 2.728-3.966.425-.158.819-1.175 1.259-.904.276-.296.133-.291.123-.577-.01-.287-1.447-.38-1.462-.809s.118-.721.671-1.314c.859-.03.41-.587 1.259-.904.849-.316 1.075-2.044 1.075-2.044.246-1.155.488-2.454.586-3.747l2.004-.07c.133-.291.409-.588.691-.741.083-1.723-1.226-2.25-3.008-4.052-.297-.276-.583-.266-.736-.547.143-.005-2.218-1.93-3.433-3.894 2.65-2.1 4.798-2.174 8.193-3.44.124-.577 2.834-.958 2.814-1.53 3.262-.975 6.076-2.507 9.185-3.762-1.426.193-3.139.397-4.27.866-1.411.623-3.242 1.547-4.516 2.021m-21.56 6.487c-.405.73-.957 1.323-.943 1.752.01.287.583.267 1.304.385l.163.568c-.271.439-.256.869-1.11 1.042l-.01-.287c-.03-.859-1.032-.824-1.477-1.238.257-.87.508-1.881 2.073-2.222m10.522 5.795c-.36 2.02-1.286 4.202-2.51 6.108-.276.297-.528 1.309-.799 1.748-.547.736-1.115.899-1.668 1.492-.41.587-.937 1.896-1.495 2.345-2.492 2.524-5.32 3.626-7.59 4.279-.84.602-2.7.667-4.566.589.334-2.735.96-5.337 2.02-7.81-.874-.4.256-.869.528-1.309.133-.291-.45-.558-.317-.849.134-.291.691-.741.824-1.032-1.308-.528-2.034-.789-2.182-.927-.45-.558 3.15-.11 3.283-.401.271-.44-.178-.998.675-1.171l.41-.587-.346-1.708c.138-.149 1.446.38 1.58.088.68-1.027 1.371-1.768 2.062-2.509 1.278-.331.573-.02 1.268-.618 5.267-1.044 5.456.24 8.823 2.272m22.679 33.752c-.015-.429.113-.864.098-1.293-.005-.143-.444-.415-.602-.839l.143-.005c.716-.025 1.12-.756.962-1.18 0 0-.01-.287-.434-.128l-.015-.43s-.367-2.281-.254-3.145l.463-3.169c.286-.01.43-.015.42-.301l-.005-.144c.429-.015.7-.454.685-.883-.015-.43-.168-.711-.183-1.141-.005-.143-.015-.429.267-.582l-.025-.716c2.723-4.109 3.495-10.729 5.457-16.101l-.035-1.002c-.597-.696-1.032-.824-1.175-.819-.429.015-.839.602-1.412.622-.429.015-.72-.118-1.604-.804.025.716-.103 1.151-.819 1.176l-.143.005c.69-.741.196-2.587 1.484-2.632.435.128.731.404 1.161.39 0 0 .143-.006.414-.445l.43-.015c.015.43.163.567.449.557.573-.02 1.269-.617 1.244-1.333l-.03-.859c1.13-.47 1.697-.632 1.544-.914-.158-.424-.592-.552-1.19-1.248.573-.02.701-.455.829-.89l-.02-.572 2.577-.09c-.025-.716-.04-1.145-.485-1.56l-.015-.43c.538-1.021 1.658-1.777 1.608-3.209l-.04-1.145c1.274-.475 2.046-7.095 3.694-9.16 3.293-.114 1.313.672 6.719-.52l.858-.03c.01.286.302.42.588.41 4.009-.14 7.38-2.122 10.439-4.809.311.706 1.185 1.105 1.758 1.085.859-.03 1.846-.494 2.251-1.225l.429-.015s3.09-1.828 3.534-1.413c-.316-.85-2.182-.927-3.757-.872-1.289.044-2.858.243-3.421.549l-.716.025c-1.002.035-1.1 1.329-1.954 1.502.108-1.008-.623-1.412-1.195-1.392a4.4 4.4 0 0 0-1.846.495l-.01-.287s-.005-.143-.149-.138c-.286.01-3.44-.023-3.83 1.137-.598-.696-2.137.361-2.182-.927-.563.306-.849.316-1.279.331l-2.434.085c-.429.015-1.002.035-1.712.203l.64-2.172.538-1.022-.015-.43c-.08-2.29.676-1.17 1.143-4.196l-.055-1.575.144-.005c.429-.015.424-.158.414-.444-.015-.43-.173-.855-.178-.998-.03-.859 1.708-.346 1.731-3.787.4-.874.814-1.318.942-1.753s-.173-.854-.188-1.283c-.005-.143-.015-.43.123-.578-.052-5.588-3.824-6.89-4.55-7.151-1.529 1.343-4.018 12.18-4.141 12.758-.271.44-1.371 1.768-1.341 2.627.015.43.311.706.745.834l-.103 1.15c-1.283.188-.339 2.592-1.485 2.632l-.143.005c-.211 2.157-.339 2.592-1.927 6.374-5.553 1.054-13.314.465-13.314.465-.143.005-.44-.271-.588-.41.02.573-.947 1.61-.779 2.321.668 2.7 5.545 2.817 9.273 2.83l.286-.01c.859-.03.874.4 1.59.374.143-.005.557-.45.557-.45l.025.717.854-.174c.43-.014.716-.025.869.257.015.43-.394 1.017-.389 1.16.01.286.296.276.726.261l-1.96 1.359c-2.746 7.55-4.279 12.906-4.709 12.921-.143.005-.414.445-.404.731.02.573.464.987.894.972 0 0 .286-.01.424-.158l.43-.015c.429-.015.721.118.736.548l.015.43c-1.161-.39-1.59-.375-1.59-.375-1.002.035-1.259.904-1.663 1.634l.015.43c-.425.158-.415.444-.553.593-.276.296.153.28.158.424-1.123 4.769-4.098 9.89-4.146 12.615.025.716.183 1.14.485 1.56-.41.587.198 1.57-.947 1.61l-.307-.563c-.158-.425-.301-.42-.736-.548l.03.859c.03.859-.068 2.153-.048 2.725.03.859.613 1.126.618 1.269-.103 1.15-1.708.346-1.816 1.353q.881.614.904 1.259c.03.859-.656 1.743-.626 2.601.015.43.025.716.316.849.193 1.427.193 1.427.668 2.701 1.21 1.821 2.242 2.645 4.874 4.129m12.478-61.353c-.43.015-1.032-.824-1.052-1.397-.015-.43 1.278-.331 1.243-1.333l-.015-.43c-.075-2.147 2.292-8.25 2.662-9.983 1.145-.04.253 3.145-.649 6.043l-.43.015c-.364 1.876.268 3.574-.724 3.895-.701.455-.606 3.175-1.035 3.19m17.263 55.155c.864.113 1.718-.06 2.577-.09.711-.168 1.57-.198 2.28-.367 1.141-.183 2.241-1.511 3.416-.692.39-1.16.849-.316 1.274-.475.711-.168 1.273-.474 1.979-.785s1.412-.623 2.112-1.078a12.3 12.3 0 0 0 3.623-2.993c-.848-7.854-10.2-12.974-16.451-15.479-.317-.849-.02-.573-.465-.987-.05-1.432.33-2.878.857-4.187.4-.874.943-1.753 1.485-2.632.272-.44 1.382-1.481 2.487-2.666l.774-2.464 1.165.532c.686-.884 1.382-1.481 1.658-1.778.691-.74-.607-.982.084-1.722.864.113 1.604.803 2.438.058.844-.46 1.51-1.916 2.211-2.37.987-.465.894.971 1.6.66 3.687-1.132 6.417-.94 9.335.534.251-1.012.113-.864.523-1.452-.367-2.28-7.725-7.757-10.173-8.101-.731-.405-1.728-.227-2.859.243-.705.311-1.687.919-2.521 1.665-3.495 2.558-7.077 6.697-9.194 7.63l.06 1.719-2.004.07c.301.42.597.696 1.042 1.11-2.334 2.948-7.205 7.132-3.757 11.455.198 1.57.969 3.119 2.307 4.506.45.558 1.186 1.105 1.778 1.658l1.615 1.09c2.7-.667 3.215 1.751 4.385 2.427 1.165.533-.085-2.434 2.33 1.065a67 67 0 0 0 3.491 1.455c.045 1.289.075 2.148-.472 2.883-1.905 2.934-6.629 3.099-9.65 2.774-2.005.07-5.001.461-6.176-.358-4.182-.713-.989-3.692-.422-3.855.711-.168.154.281.099-1.293-.987.464-1.274.474-1.97 1.072-1.313-.671-.645 2.029-1.13.469-1.273.475-.123.578-1.402.909-2.328 3.092-2.495 6.537-1.438 8.077 1.595.518 3.19 1.036 4.775 1.267 1.012.251 1.876.364 2.883.473-.464-.988.681-1.028 3.441.023m36.433-32.09c.277-.296.553-.592.686-.884-.005-.143-.276.297-.686.884m-23.721 10.289c6.362-2.516 15.716-5.566 20.918-8.47-3.278.544-4.255 1.294-6.515 2.233-2.02-.36-10.934 2.962-14.403 6.237m-.336-1.422c.138-.148-.563.306-.992.321-.143.005.301.42.439.272zm-4.748 3.606c.982-.608 2.394-1.23 4.092-1.863-1.027-.681-2.597-.483-3.712.416-.113.864-.123.578-.395 1.018zm1.309.528c.035 1.002 1.55-.771 2.517-1.808-.696.597-1.678 1.205-2.804 1.818zm-13.662 6.927c.603.839 2.286-.223 2.972-1.107-.292-.133-.716.025-1.427.193-.42.301-.982.608-1.545.914m4.613 4.856c-.311-.706-2.029-.646-2.33-1.066.01.287 1.032.824 1.042 1.111zm95.56-21.828c-.075-2.147.995-4.335.91-6.768-.025-.716-.045-1.289-.208-1.856-.272.439-.267.582-.553.592-.573.02-1.758-1.085-2.187-1.07l-.025-.716c.266-.583.685-.884 1.544-.914l-.075-2.147c-.01-.287-5.363-5.833-5.363-5.833-.914-1.545-5.442-3.967-5.872-3.952-.572.02-1.668 1.492-1.801 1.783l.025.716-3.579.125c-.414.444-.399.874-.384 1.303.005.144.015.43.459.844-3.089 1.828-6.805 6.258-8.236 6.308-1.259.904-4.017 4.01-3.997 4.583.015.43.306.563.316.849.005.143-.271.44-.696.598l.025.715c-1.14.184-1.1 1.329-2.378 1.66l.02.573c-.789 2.034-2.008 4.083-2.194 6.957l.03.859c.06 1.717-.345 2.448-.285 4.166l.035 1.002c-.414.445-.399.874-.394 1.017.065 1.862 3.299 4.185 3.359 5.903.005.143.015.43-.118.721.005.143.158.425.158.425l1.397-1.053.025.716c.03.859.331 1.279 1.2 1.535l.43-.015c.716-.025.874.399 1.733.369l1.861-.064c-.277.296-.257.868-.247 1.155.015.429.02.572.307.562l.552-.592 1.575-.055c-.015-.43.261-.726.405-.731.715-.025 1.318.814 2.034.789 1.288-.045 4.576-.303 5.237-1.903l.716-.025c.148.138.587.41.874.4.859-.03 1.105-1.186 1.964-1.216l.429-.015-.02-.572c-.05-1.432.938-1.896 1.91-2.79l.429-.015c.01.286.153.281.153.281.859-.03 2.655-1.956 2.625-2.815 0 0-.005-.143-.291-.133l-.025-.716c1.856-.208 2.379-1.66 3.203-2.692l-.095-2.72 1.575-.055c.01.286.015.429.301.419 0 0 .138-.148.128-.434l-.015-.43c.834-.745 2.281-.366 2.206-2.513l-.055-1.575-.573.02c-.158-.424-.464-.987-.484-1.56m-7.99-15.344.04 1.145-.859.03-.04-1.145zm5.923 9.54c-.572.02-.028 3.297-1.316 3.342l-.43.015.06 1.718c-.286.01-4.835 5.186-4.712 4.608-1.174 3.338-5.353 6.781-6.212 6.811-.144.005-.149-.139-.435-.129.035 1.003-4.506 2.308-3.933 2.288l-.144.005c-.261.726-3.212 2.405-4.071 2.435-1.002.035-1.773-1.514-2.203-1.499-.716.025-.972.894-1.401.909-.143.005-.025-.716-1.027-.681-.716.025-1.003.035-1.166-.533l-.195-5.583c-.03-.859.098-1.294.814-1.319l-.025-.715c-.414.444-.701.454-1.13.469-.43.015-.864-.113-.874-.399-.015-.43.266-.583 1.11-1.043l.02.573.859-.03-.045-1.288c2.818-1.389 2.455-7.683 6.108-9.817.015.43.02.573.449.558.241-1.299 1.387-1.339 1.5-2.203l.656-1.743c.962-1.18 7.053-3.256 9.012-4.615l3.026.468.02.573c.169.71 2.479 1.203 3.195 1.178l.889.83c.429-.016.716-.026.741.69.015.43-.257.869-.237 1.442l.015.429c1.007.108.495 1.846 1.226 2.25zm-14.701 22.3c-.286.01-.415.444-.681 1.027l-.429.015c-.44-.271-.726-.261-.756-1.12l.286-.01c.716-.025.834-.746 1.249-1.19.874.399 1.748.799 1.798 2.23-.583-.266-1.038-.967-1.467-.952m62.274-26.828c.128-.435-.296-.277-1.313-.671-2.869-.043-4.428.441-5.544 1.34l.159.424-3.866.136c-.429.014-.859.03-.844.459-.246 1.155-3.011-.038-3.401 1.122-1.002.035-1.431.05-1.589-.374 0 0-.015-.43.261-.726-.005-.143-.445-.415-.445-.415-.351-1.85 4.663-6.04 3.235-10.003l-.159-.424c1.274-.475.779-2.32 2.497-2.38-.316-.85-.612-1.126-.914-1.546.558-.45 1.254-1.047 1.51-1.916-.583-.266-.731-.404-.741-.69-.02-.573 2.118-.934 1.96-1.359-.159-.424-1.018-.394-1.038-.967-.06-1.718 3.628-2.85 2.684-5.254l-.158-.424c-.47-1.13 1.115-.9.804-1.605-.159-.425-1.033-.824-1.053-1.397-.01-.286 4.263-5.165 4.263-5.165-.429.015-.434-.129-.444-.415l-.015-.43c-.005-.142-.148-.137-.158-.424-.02-.572 1.115-.899.957-1.323 0 0-.286.01-.721-.118l-.326-1.136s3.429-4.42 3.266-4.987c-.43.015-1.002.035-1.161-.39.563-.306.686-.884 1.259-.904l.429-.015c.942-1.753 2.259-5.095 3.211-6.562l-.173-.854.859-.03-.015-.43c-.03-.858.977-.75 1.249-1.19l-.352-1.85c1.791-2.07 2.847-4.687 4.633-6.9-.163-.567-3.117-3.044-3.976-3.014l-1.145.04c-1.017-.394-1.348-1.673-2.064-1.648-.43.015-.558.45-.528 1.309l.015.43c.02.572-.123.577-.108 1.006l.01.287c-.696.597-2.645 2.242-3.198 2.835l-1.002.035c-.276.296-.261.725-.256.869.025.715.756 1.12 1.087 2.398-.093 1.437-1.628 2.637-2.585 3.96l.336 1.422c.173.854-2.009-.073-1.371 1.768.484 1.56-1.92 2.504-1.573 4.212 0 0 .291.133.444.414-.266.583-1.929 2.218-1.929 2.218.697 3.559-2.737 7.835-2.692 9.124l.015.43c.015.429-.399.873-.093 1.436.153.281.168.71.46.844l-.716.025c-1.432.05-1.908 6.947-2.071 6.38-.271.439-.552.592-.972.893l-.429.015c.163.568.464.987.765 1.407-.685.884-.774 2.463-.867 3.9.505 2.132-2.072 2.222-2.002 4.227l-.859.03c.005.143.306.562.459.844.613 1.125-1.08 1.9-1.055 2.617.005.143.291.133.588.409l.429-.015c-.417 4.458-2.896 3.255-2.55 4.963l.346 1.707c.159.425-3.019 3.833-3.858 4.435l-.286.01c-.415.445-.43.015-.518 1.595.721.118 1.452.523 1.482 1.382l.015.43c-.277.295-.706.31-.993.32-1.718.06-3.322-.744-3.895-.724-.286.01-.281.154-.281.154.143-.005.439.27.444.414.01.286-.128.435-.271.44-.005-.144-.445-.415-.874-.4-.143.005-.276.296-.271.44l-.859.03c-1.703.489-4.981 1.034-6.071 2.648l.158.425c-3.293.115-2.813 1.531-4.388 1.586-.43.015-.681 1.028-.661 1.6.03.859 1.728.226 2.444.201.894.973 1.615 1.091 2.494 1.633.158.425.301.42.587.41.43-.015.854-.173.844-.46.015.43.025.716.173.854l.573-.02c-.133.292-.128.435-.128.435.326 1.135 3.571 3.745 5.743 4.386l.43-.015c1.002-.035 1.604.804 1.782 1.801-.286.01-1.686 5.076-1.681 5.219l.015.429c.015.43-.118.721-.103 1.151l.015.429c-.573.02-.711.168-.701.455.015.429.603.839.618 1.268.005.143.015.43-.123.578l-.573.02c-.844.459-.962 1.18-.927 2.182.01.287.326 1.135.469 1.13l.287-.01.178.998c-1.678 1.205-3.705 4.716-3.068 6.557.158.424.342 1.565.771 1.55.173.854.193 1.426-.508 1.881-.434-.128-.874-.4-1.017-.395-.286.01-.276.297-.261.726.005.143.158.425.593.553-.119.72-.908 2.755-1.42 4.493l-.143.005c-1.342 2.627-1.978 4.942-1.187 7.065.158.424.183 1.14.628 1.554.015.43-1.915 2.647-1.682 5.219.43-.015.731.405 1.166.533.153.281-2.184 7.243-2.011 8.097.505 2.132 1.783 1.801 1.798 2.23.025.716-1.13.47-.814 1.319.158.424 3.842 3.306 4.988 3.266l.429-.015c1.507 2.097 4.621.985 5.668 2.239 1.131-.47 4.793-2.318 4.115-5.304l.716-.025c-.183-1.141.503-2.025 1.362-2.055l.429-.015c-.346-1.707.206-2.3.181-3.016l-.005-.143c3.459-3.561 5.206-6.919 5.201-7.062-.015-.429-1.013-.251-1.033-.824.257-.869 1.031-3.332 1.747-3.357l.429-.015-.178-.998c.518-1.594 2.161-3.802 1.37-5.924-.158-.425-.173-.854-.475-1.274-.015-.429.123-.577.405-.73.444.414 1.298.241.972-.894-.163-.568-1.462-.809-1.467-.953-.01-.286 2.291-.08 1.658-1.777l-.158-.425c-.296-.276-.301-.419-.454-.701-.455-.701.68-1.027.799-1.748l-.015-.429c-.005-.143-.445-.415-.45-.558q-.023-.644.385-1.303l-.801-2.409c-.163-.568.241-1.298.211-2.157-.005-.144-.464-.988-.894-.973l-.143.005c.414-.444.503-2.024.166-3.445-.346-1.708-1.265-3.396-1.868-4.235l-.572.02-.168-.711c-.174-.854-.618-1.269-1.221-2.108l-.509-2.275c-.183-1.14-3.694-3.168-4.124-3.153l-.429.015c-.178-.997-1.107-2.971-2.727-4.205 1.14-.183 1.954-1.501 1.914-2.647-.005-.143-.449-.557-.746-.834l-.02-.572c-.025-.716-.03-.86-.188-1.284l-.158-.424.43-.015c1.145-.04 2.871-3.97 3.305-3.842-.02-.573.41-.588.252-1.012.572-.02.731.404 1.16.39-.341-1.566 1.678-1.206 2.517-1.809.578.123 1.575-.055 2.291-.08.859-.03 2.092-1.65 2.951-1.68 2.132-.504 5.503-2.485 5.503-2.485.716-.025.874.4 1.304.384 1.288-.045 1.826-1.067 2.092-1.65m1.51-1.916c-.558.449-.538 1.022-.236 1.441.286-.01.429-.015.73.405 1.965-1.216 3.544-1.127 5.356-2.624l-.588-.41c-2.147.075-3.989.713-5.262 1.188m-25.096 16.069c-.716.025-1.407.766-1.258.904.296.277.597.696.899 1.116.158.424-.124.577-.267.582l-.291-.133c-.138.148-.558.45-.987.465-.859.03-.899-1.116-2.617-1.056-1.002.035-2.562.52-3.564.555-.859.03-1.59-.375-1.763-1.229-.178-.997-.055-1.574 1.085-1.758l2.276-.509c1.698-.633 2.941-1.966 5.375-2.051.573-.02 1.816-1.354 2.542-1.092.163.567-.646 2.029-.621 2.745l.005.143c.025.716.188 1.283-.671 1.313zm2.691 11.373c.904 1.259 1.941 2.226 3.397 2.892-.128.434.03.859.188 1.283.633 1.698 1.971 3.085 2.298 4.22.163.568.178.997-.093 1.437.587.409.597.695.755 1.12-.153-.281-.068 2.152-.61 3.031.715-.025.73.405 1.308.528l.43-.015c.143-.005.439.271.444.415.025.715-.717 8.195-1.847 8.664 1.002-.035 1.185 1.105 1.516 2.384-3.149.11-.241 1.298-1.746 3.358l.005.143c.01.286.025.716-.256.869l.158.424c.316.849-.691.741-.528 1.309l.342 1.564-.43.015.015.43c.005.143-2.472 3.096-2.324 3.234 0 0 .01.287.153.282.164.567-1.125.612-1.11 1.042.01.286.889.829.919 1.688l.015.429-1.432.05c-1.919 2.504-3.117 5.126-5.19 7.348l-.859.03c-2.004.07-3.431.263-4.709.595l-.188-1.284c-.168-.71-.613-1.125-1.042-1.11l-.015-.429c.429-.015 1.411-.623 1.258-.904l-.622-1.412c-.154-.281.276-.296.271-.439l-.01-.287c-.005-.143-.015-.429.266-.582-.582-.267-.874-.4-1.042-1.111 1.575-.055.211-2.157 1.05-2.76l-.444-.414c.701-.455.819-1.176.646-2.03l.429-.015c-.03-.859.35-2.305.32-3.164-.01-.286-.015-.43-.312-.706l-.331-1.278c.143-.005.425-.158.415-.445l-.005-.143c.429-.015.419-.301.844-.459-.154-.282-.598-.696-.603-.839-.04-1.146.784-2.178.616-2.889-.163-.567-1.638 2.351-1.688.919-.015-.429-.327-1.135.103-1.15l1.432-.05c.083-1.723.023-3.441.98-4.764l-.445-.415c-.163-.567.829-.889.814-1.318-.005-.143-.592-.553-.602-.839-.005-.143-.015-.43.266-.583l-.301-.419c1.288-.045 1.115-.899 1.07-2.188-.01-.286-.454-.701-.613-1.125-1.418-3.677 3.173-3.551 2.164-7.816l-.336-1.421.429-.015c.119-.721 1.131-.47 1.402-.909l-.341-1.565c-.352-1.851.191-2.73.709-4.325 1.288-.045 1.891.794 2.488 1.49zm4.93 30.359c-.573.02-.588-.41-1.022-.538.02.573-.41.588-.538 1.022.716-.025.874.4 1.303.385-.158-.425.267-.583.257-.869m87.158-65.395c-1.354-1.816-4.026-4.446-5.744-4.386l-.854.173c-.859.03-.479-1.417-1.338-1.387l-.43.015.025.716-.429.015c-.055-1.575-1.876-.364-2.207-1.643-3.007.105-4.969 5.477-9.407 5.632l-.257.87c.005.142.04 1.144-.103 1.15l-.286.01c-1.861.064-10.91 11.847-11.279 13.58l-.716.025c-.153-.281-.158-.424-.445-.414-.429.015-.492 2.31-.907 2.755l.015.43c-1.135.326-1.085 1.757-1.939 1.93q.451.63.474 1.274c.065 1.86-.867 3.9-.802 5.761.045 1.289.223 2.286 1.112 3.115l.09 2.577c.45.557.495 1.846 1.65 2.092l.04 1.145c.889.829 4.094 2.294 3.664 2.309.286-.01.277-.296.42-.301 1.808 2.517 4.005 3.873 6.582 3.783.716-.025 1.283-.188 1.969-1.072l.43-.015c.577.123 1.007.108 1.723.083 4.008-.14 7.763-3.424 10.592-4.526l.429-.015c.448-3.599 8.039-7.878 7.904-11.743l-.43.015c-.573.02-3.326 3.269-5.187 3.334-.429.015-.721-.118-1.16-.389.015.429-.118.721-.548.736l-.296-.277c.025.716-.4.874-.829.889-.573.02-1.535 1.201-1.964 1.216l-.287.01.02.572c.43-.015.726.262.731.405.015.429-.962 1.18-2.251 1.225-.572.02-.858.03-1.007-.108.42-.301.859-.03.543-.879l-2.552.806c-.389 1.16-2.117.934-2.097 1.506.025.716.326 1.136.331 1.279 0 0 .01.286-.276.296-.153-.281-.153-.281-.583-.266l-1.288.045c-.43.015-.859.03-1.176-.819.711-.168 2.01.073 2.118-.934l-.568.163c-2.981.821-4.744-.408-7.035-.328-.429.015-.869-.256-1.298-.241.01.286-.272.44-.43.015 0 0-.291-.133-.301-.419-1.21-1.822-3.195-1.179-3.235-2.324-.01-.287.272-.44.262-.726-.005-.143-.307-.563-.317-.849-.05-1.432-.647-2.127.873-3.757l1.243-1.334c.389-1.16 1.515-1.772 1.455-3.49l-.43.014-.015-.429c-.03-.859.513-1.738.483-2.597-.01-.286-.025-.716-.178-.997.015.43-.262.726-.691.74-.143.006-.153-.28-.439-.27l.105 3.006c-.988.464-1.397 1.052-2.542 1.092l-.43.015-.035-1.002c.005.143.445.414.731.404.859-.03 1.836-.78 1.816-1.353q-.023-.644-.459-.844c-.109 1.007-.958 1.323-2.103 1.363.829-.889 1.974-.929 1.944-1.787-.01-.287-.316-.85-.474-1.274.444.414.588.41.874.4.859-.03.937-1.897 2.215-2.228l.06 1.718c1.575-.055 1.668-1.492 2.947-1.823-.188-1.283-1.082-2.255-1.102-2.828 0 0 .389-1.16 1.248-1.19s.485 1.56 1.349 1.672c.557-.449.839-.602.824-1.032s-1.176-.819-1.191-1.248c-.01-.286-.01-.286.272-.44.444.415.874.4 1.303.385 1.718-.06 2.625-2.815 3.725-4.144.02.573.45.558.618 1.269l.43-.015c.849-.316.67-1.314 1.673-1.349l.429-.014-.01-.287c-.035-1.002 1.698-.632 2.532-1.378l.429-.015c1.575-.055 3.599.447 3.999-.427l-.025-.715.716-.025c.859-.03.982-.608 1.841-.638l.716-.025.02.573c.025.715.454.7 1.027.68l2.577-.09c.414-.444 1.115-.899 1.085-1.758 0 0-.01-.286-.311-.705zm-26.641 16.984c.824-1.032 2.389-1.373 2.482-2.81-.982.607-2.256 1.082-2.482 2.81m9.694 19.012c-.005-.143-.015-.43-.316-.849.715-.025.454.701.755 1.12.859-.03.978-.751 1.837-.781.06 1.718-1.209 2.336-2.641 2.386-.429.015-1.15-.103-1.303-.385.108-1.007 1.713-.203 1.668-1.491m64.406 5.491.43-.015c-2.351-1.638-4.297-4.007-4.98-7.136-2.071-5.948.972-13.221 1.731-16.114.241-1.299-.919-1.688-.668-2.7l1.817-1.354c-1.053-1.397-.437-4.285.091-5.593 1.45-3.634 3.758-7.298 4.769-11.204.379-1.446-1.231-2.393-.989-3.692-3.087-2.186-5.772-1.088-8.65-1.418-.143.005-.138.148-.276.297.612 1.125.316.848 1.195 1.391-.329 2.878-6.207 6.954-8.141 9.028-.553.593-.064 2.295-.764 2.75-.829.889-2.399 1.087-3.08 2.114-.553.593-.221 1.871-.769 2.607-.424.158-.849.316-1.268.618-1.219 2.049-2.729 3.965-3.942 6.157-2.907 2.969-8.863 8.91-10.164 12.682l-.859.03c.186-2.873 1.177-7.35 2.686-9.267-.899-1.115.128-.434-1.037-.967.706-.311.138-.148 1.289-.045l1.558-4.641c.695-.598-.005-.144-.603-.84.419-.3.563-.306 1.56-.484-.188-1.283.118-.72-.337-1.421 0 0-.346-1.708.257-.87.291.134.434.129.582.267.222-1.871-.278-3.86 1.39-5.352-.899-1.115-.602-.839-1.486-1.525 1.09-1.615 2.946-1.823 3.152-4.123-.158-.425.133-.292-.587-.41-.159-.424-.168-.71-.178-.997 1.017.395.73.405 1.466.952.241-1.298.241-1.298 1.08-1.9-.587-.41-.587-.41-1.594-.519.236-1.441.123-.577 1.559-.484-.464-.987-.449-.558-1.047-1.253l.43-.015c.256-.87.143-.005 1.017.394-.351-1.851-.321-.992-1.245-2.823 1.826-1.067 2.378-1.66 3.918-2.717-.015-.43-.025-.716-.178-.997-.276.296-.409.588-.681 1.027l-.859.03c.31-3.45 2.663-5.826 3.131-8.853 1.155.246.726.261 1.605.804-.02-.572.113-.864.236-1.441.696-.598-.291-.134-.889-.83 1.372-1.767 6.465-15.992 5.704-17.256.829-.889 2.399-1.087 2.641-2.385l-.673-2.843c.997-.179 1.841-.638 2.976-.964 2.063-2.51 1.583-3.926 1.415-4.636 1.525-1.487 1.776-2.5 3.296-4.129.414-.445.206-2.3 1.055-2.617-.489-1.703-.331-1.278-.969-3.12-.148-.138-.291-.133-.444-.414-1.007-.108-1.871-.221-2.883-.473-.154-.28-.317-.849-.475-1.273l-3.036-.754c-1.292 4.058-3.141 8.566-4.448 12.196-.839.602-1.583 3.925-1.992 4.512-1.169 3.481-1.257 5.061-2.425 8.542a11.4 11.4 0 0 0-1.796 1.926c-1.455 3.49-.891 7.341-4.108 9.604.909 1.401.173.854 1.323.957-.078 1.866-.41.587-1.525 1.486.879.543.761 1.264.495 1.846-.257.87-.287.01-1.161-.389-.206 2.3-5.487 15.242-5.631 15.247.603.839.307.563.751.977l.015.43-1.288.044.652 2.271-1.431.05c.406 3.426-2.427 4.385-1.923 6.517l-1.431.05c.336 1.422-.099 1.294.494 1.846-.508 1.882-1.904 2.934-2.974 5.121.745.834.682 3.13.539 3.135l-1.432.05c-.261.725 1.226 2.25.55 3.42-.42.302-1.525 1.487-1.648 2.065l.663 2.557-1.003.035c-.404.73-.201 2.443.452 4.714l-1.432.05c.06 1.718.303 4.576-.096 5.45 2.544 3.065 3.304 4.328 7.343 5.047.439.271.148.138 1.017.395.842-4.617 7.77-11.452 7.532-14.167.236-1.442.425-.158.972-.894 1.254-1.047.839-.603.493-2.31 1.283-.189.567-.164 1.718-.06 3.527-5.714 11.779-11.592 14.954-19.156l.859-.03-1.178 3.194.06 1.718-1.515 1.773-.671 1.313.382 2.71-.41.588-.942 1.753-.083 1.723-.784 2.177-.241 1.299-.222 1.871 1.216 1.964-1.249 1.19.213 2 1.195 1.391-.512 1.738 1.491 1.668 1.063 1.683 1.343 1.53 1.497 1.811-.252 1.012 2.75.764 2.504 1.919zm-24.349-61.071c-.46-.844-.159-.425-.608-.982.015.43.02.573.178.997zm4.057 9.462c-.598-.696-.302-.42-.746-.834.005.143.163.568.173.854zm-16.629 41.001c-.296-.276-.306-.562-.316-.849l.859-.03c.153.282.163.568.459.844zm86.48-35.557.405-.73c-.174-.855-.357-1.995-.683-3.13-.035-1.002-.909-1.402-1.911-1.367l-.716.025-.015-.43c-1.437-.093-1.733-.369-3.604-.59.326 1.135-.206 2.3-.196 2.587l-1.189 2.908c-.133.291.015.43-.266.582l-.681 1.028-.429.015c-.716.025-1.028-.681-1.62-1.234l-.163-.568c-.312-.705-1.023-.537-1.186-1.105l-1.145.04c-.424.158-.123.578-.409.588l-1.126.612c-.143.005.158.425.02.573-.301-.42-1.027-.68-1.313-.67l-.143.004-1.851.352.158.424c-.119.721-.523 1.452-.942 1.753l-2.133.505c-2.004.07-5.798 6.365-5.398 5.492-1.979.785-8.704 9.334-8.654 10.765-1.718.06-1.678 1.206-2.502 2.238.429-.015.72.118.735.547-1.396 1.052-.645 2.03-.763 2.75-2.409.801-3.849 4.721-3.764 7.155.01.287.02.573.316.849-.859.03-1.12.756-1.1 1.329.045 1.288 1.245 2.823 2.983 3.336l.015.429c-.281.153-.424.158-.276.296.459.844 2.785 1.766 2.355 1.781l.43-.015.04 1.146c1.14-.183.389-1.161 1.238-1.477.43-.015.46.844.889.829l1.146-.04c.005.143.301.42.73.405 3.579-.125 1.515-1.773 2.789-2.248.015.43.311.706.454.701.286-.01.281-.153.266-.583l-.015-.429.711-.168c.568-.163 2.201-2.657 2.216-2.228-.015-.429-.158-.424-.46-.844.701-.454 2.73.192 2.256-1.082l-.153-.281.844-.46c-.01-.286.404-.73.389-1.16l-.015-.429.43-.015 1.203-2.479.44.271c.143-.005.143-.005.138-.148.005.143.153.281.153.281.429-.015 1.1-1.328 1.515-1.772l.286-.01c.844-.46 1.269-.618 1.254-1.048-.02-.572.256-.869-.04-1.145.71-.168 1.559-.484 1.668-1.492l1.336-2.77c.716-.025.937-1.896 1.648-2.064l-.669 5.47c.306.563.04 1.146.07 2.004-.083 1.723.007 4.3.017 4.587.025.715.188 1.283.484 1.559-.424.159-.695.598-.537 1.023.469 1.13.899 1.115.914 1.544.005.144-.543.879-.518 1.595.03.859 1.027.681 1.373 2.389-.286.01.169.711.317.849 1.185 1.105 1.343 1.53 2.375 2.354l.874.399c.287-.01.44.271.445.415s-.138.148-.133.291c.01.286.153.281.439.271l.286-.01c.44.272.593.553 1.304.385l.711-.168c.429-.015.577.123.557-.45l-1.481-1.382c-.598-.695-.771-1.549-1.502-1.954l-.459-.844c-.153-.281-.583-.266-.603-.839.415-.444.405-.731.231-1.585-.168-.71-.203-1.712-.401-3.282l.068-2.153c-.321-.992.518-1.594-.08-2.29-.005-.143.711-.168.696-.598l-.02-.573c.143-.004.553-.592.538-1.022s-.312-.706-.455-.7c0 0-.133.29-.419.3-.43.016-.44-.27-.44-.27-.005-.144.272-.44.262-.726l-.005-.143c.419-.302.547-.736.517-1.595l.277-.297c-.015-.429-.588-.409-.593-.552s.711-.168.691-.741l-.005-.143c.716-.025.552-.593.972-.894l.849-.316c-.01-.287-.291-.134-.721-.119l-.429.015c.409-.587.655-1.742 1.065-2.33-.015-.43-.015-.43-.445-.415-.015-.43-.178-.997.247-1.155l.429-.015-.01-.286c-.015-.43.686-.884.681-1.027-.01-.287-.716.025-.741-.691-.04-1.145 1.55-.771 1.811-1.497l-.02-.572c-.095-2.72 2.186-3.087 2.091-5.807-.43.015-.736-.547-.751-.977l-.015-.43.43-.014c.005.143.148.138.148.138.286-.01.567-.164.706-.312l-.184-1.14c1.289-.045.538-1.022 1.392-1.195l-.311-.706-.43.015c-.286.01-.716.025-.731-.404.716-.026.701-.455.829-.89zm-13.364 11.36c-.419.302-.848.317-.834.746.287-.01.435.128.435.128.015.43-2.181 3.23-2.309 3.664l.015.43q.015.429-.414.444s-.143.005-.435-.128c.005.143-.128.434-.128.434l-.942 1.753-.43.015c-.715.025-.522 1.452-1.095 1.472l-.424.158.178.997-.859.03c.183 1.14.628 1.555.637 1.841.005.144.005.144-.138.149-.286.01-.291-.134-.577-.124 0 0-.143.005-.138.149.01.286.02.572.173.854-.43.015-.593-.553-.603-.84-.03-.858.774-2.463.759-2.893l-.143.005c-.859.03-.513 1.738-2.216 2.228l.015.43c.01.286.015.429-.271.439.02.572-.508 1.88-1.08 1.9-.287.01-.435-.127-.583-.265l-.814 1.318c.015.43-5.853 4.791-6.539 5.675-.962 1.18-1.411.623-2.398 1.087-.598-.696-.756-1.12-.781-1.836-.03-.859.374-1.59 1.06-2.474l.42-.301c-.015-.429.409-.588.394-1.017-.572.02-.597-.696-.622-1.412l.429-.015c-.158-.424.261-.725.829-.889-.445-.414-1.293-.098-1.6-.66-1.21-1.822-1.062-1.684-1.26-3.253.726.261.874.4.889.829.01.286 1.318.814 1.323.957s.159.424.578.123c.286-.01.404-.73.404-.73l1.872.22c.098-1.293.023-3.44 2.437-4.098l.286-.01c1.002-.035-.336-1.422.952-1.466 2.042-3.082 4.524-5.892 6.622-7.399l-.02-.572.429-.015c1.002-.035.824-1.032 1.096-1.472l.286-.01c1.002-.035.824-1.032 2.112-1.077l.287-.01c1.145-.04.379-1.447 1.668-1.492l.429-.014 1.796-1.927 1.259-.904c.869.257 1.18.963 1.19 1.249.155 4.438-4.464 7.61-3.606 7.58m-1.236 5.633c-.286.01-.44-.27-.455-.7s.119-.721.543-.88c.286-.01.429-.014.439.272.015.43-.399.874-.384 1.303zm-7.075 10.854c.144-.005.154.282.307.563-.153-.281-.45-.558-.307-.563m35.741 9.646c3.607-3.423 5.63-7.077 8.639-11.195 6.899-7.695 14.819-14.851 19.368-20.027 1.643-2.207 2.522-1.665 1.776-2.499l.43-.015c.394-1.017.148.138.874.4.246-1.156.133-.292-.194-1.427 2.098-1.507 4.527-1.735 6.624-3.241.839-.603.977-.751 1.781-2.356.746.834 1.16.39 2.276-.51-.025-.715.701-.454.676-1.17-1.437-.093-1.585-.23-2.286.224-2.132.504-7.689 5.572-9.915 7.513-8.201 7.31-16.141 13.894-24.13 23.203-1.075 2.044-2.052 2.795-4.805 6.044-.425.158-1.176-.819-1.743-.656-.077-6.304 3.731-12.17 5.561-17.25.789-2.035.294-3.881.935-6.053.518-1.595 2.314-3.521 2.826-5.26 3.702-13.029 10.2-32.176 14.964-43.523 2.452-3.669 4.716-8.621 5.588-12.378-.361-2.138 1.04-3.047-.14-4.009-2.227-2.215-3.679-2.738-5.096-2.259-.572.02-1.14.184-1.569.199-1.179 3.194-2.317 7.534-3.619 11.306l-1.781 2.356c-.246 1.155 1.052 1.396.929 1.974-.669 5.47-4.048 11.322-5.443 16.53-.897 3.042-2.43 8.399-3.332 11.297-1.174 3.338-2.347 6.675-3.382 9.865.06 1.718-1.096 1.471-1.056 2.617l-.676 1.17c.292.133.292.133.302.42.035 1.002-1.643 2.207-1.623 2.78l.015.429c.04 1.145-1.03 3.333-1.015 3.762l.005.143c-.114.864-.948 1.61-.933 2.04l.005.143c.09 2.577-1.874 3.792-1.854 4.365l.025.715c.005.144.02.573-.123.578-.45-.558-3.136 8.71-3.852 8.735-.143.005-.133.291-.128.434l-.359 2.02c-1.297 3.915-2.071 6.379-2.805 9.988-.483 2.596-.862 4.043.21 6.012 1.348 1.673 2.918 1.475 4.267 3.148.854-.173 1.708-.346 2.567-.376-.342-1.565.108-1.007-.342-1.565.232-1.585-.366-2.281.33-2.878.429-.015.997-.178 1.569-.198zm24.306-83.84c1.312-3.486 3.591-8.01 3.837-9.164 1.145-.04-2.081 6.092-2.983 8.99l-.429.015c-.143.005-.287.01-.425.159m-1.335 6.926c-.429.015-1.032-.824-1.052-1.396-.015-.43 1.279-.332 1.244-1.334l-.015-.43c-.02-.572.231-1.584.759-2.892.035 1.002.811 2.695.1 2.863-.701.454-.606 3.174-1.036 3.19m-11.595 12.732.532-1.165.784-2.178.094-1.436 2.673-5.54.488-2.454.804-1.605.221-1.87-.701.454-1.173 3.337-.247 1.156-.522 1.451-1.85 4.508-.942 1.753-.513 1.738-.517 1.595.045 1.288.193 1.427zm-1.671 5.505.651-1.886-.327-1.135-.651 1.886-.364 1.876zm-1.978 4.943-.163-.568-.819 1.175.628 1.555zm-3.555 9.01 1.115-.898.947-1.61.503-2.024.651-1.886-.445-.415-.118.721-.829.889-.053 2.582-1.244 1.333-.814 1.319.194 1.426zm-1.119 4.913.415-.444.364-1.876-1.198 2.621zm-10.804 39.508.908-2.755 1.243-1.333-1.06 2.473.07 2.005-1.156-.247zm58.773-53.223c-.075-2.148 2.915-6.839 2.895-7.411-.025-.716-1.078-2.113-1.093-2.542-.015-.43 3.125-.826 3.06-2.687l-.025-.716c1.894-3.22 2.573-8.403 3.565-8.725 1.673-1.348.265-4.739 2.377-5.816.405-.73 1.106-1.185 1.071-2.187l-.04-1.146c-.005-.143-.015-.43-.46-.844 1.254-1.047 2.995-4.548 2.97-5.264-.005-.143-.02-.572-.178-.997l-.015-.43c-.04-1.144.068-2.152.038-3.01-.045-1.289.804-1.605.774-2.464-.035-1.002-.08-2.29-1.542-3.1l-.439-.271c-1.763-1.229-1.906-1.224-2.76-1.05-.43.015-.716.025-.711.168-.43.015-.573.02-.563.306l.148.138c-.429.015-.419.302-.419.302.005.143-1.427.193-1.397 1.052.005.143-.681 1.027-.671 1.313.005.143-.671 1.314-.527 1.309.286-.01.429-.015.7-.455.164.568.179.997.189 1.284.075 2.147-.913 2.611-.898 3.04.005.144.02.574.174.855-1.003.035-2.61 3.244-3.236 5.846-.118.721.055 1.575.499 1.99.814-1.319 1.47-3.062 1.988-4.657l1.145-.04c.143-.005.859-.03.869.257.015.43-3.55 9.154-4.236 10.038.015.43-.123.578-.108 1.007.01.286.015.43.173.854-1.264.76-2.97 5.264-3.216 6.42l.02.572c.075 2.147-1.327 3.056-1.257 5.06l.02.573c-.701.455-1.263.76-1.233 1.62l.163.567c-.118.721-2.111 5.234-3.616 7.293-.828.89-5.897 15.83-5.852 17.118l.025.716c.005.143.015.43-.128.435-.716.025-3.402 9.292-3.852 8.734-.143.005-.128.435-.123.578l.025.716c.02.572-1.944 1.788-1.854 4.365l.005.143c.015.43-.819 1.175-.932 2.04l.005.142c.015.43-1.056 2.617-1.016 3.762l.015.43c.02.573-1.658 1.778-1.623 2.78.01.286.01.286.302.42l.173.853c.04 1.146-.992.322-.932 2.04l.05 1.431c.015.43.03.859-.257.869.045 1.289.535 2.992.55 3.421-1.002.035-1.274.475-1.392 1.195l.178.998c-.404.73-2.235 1.654-2.215 2.227l.642 1.984c-.128.435-1.831.924-1.811 1.497 0 0 1.344 1.53 2.637 1.628.859-.03 6.383-1.943 6.318-3.804l-.01-.287c.429-.015.839-.602.824-1.032l-.154-.281c-.03-.859.35-2.306.31-3.451-.06-1.718-.879-.543-1.339-1.387.859-.03 1.279-.331 1.249-1.19l-.015-.429c1.846-.495 2.036-7.381 2.894-7.411.701-.455.829-.89.814-1.319l-.03-.859c-.015-.43-.03-.859.385-1.303-.005-.144-.158-.425-.158-.425l-.322-.992c.686-.884 1.52-1.63 1.628-2.637-.04-1.145.921-6.482 2.179-7.386-.301-.42-.316-.849-.326-1.135 0 0 3.301-3.986 3.226-6.133l-.163-.568c-.03-.859 1.688-.919 2.23-1.798.133-.291-1.313-.67-1.343-1.53.716-.025 1.47-3.06 1.47-3.06-.292-.134-.302-.42-.307-.563.287-.01.43-.015.42-.302l-.005-.143c2.333-2.948 2.412-4.814 3.407-9.15m2.504-30.905c-.429.015-.731-.404-1.165-.532.02.572-.123.577-.395 1.017.716-.025.874.4 1.304.384l-.005-.143c-.01-.286.276-.296.261-.726m-4.456 16.066c.37-1.733 2.737-7.836 2.662-9.983l-.015-.43c-.035-1.002 1.258-.903 1.243-1.333-.02-.573-.622-1.412-1.052-1.397-.429.015-.334 2.735-1.035 3.19-.992.321 1.137 3.83-.724 3.895l-.43.015c-.902 2.899-1.794 6.083-.649 6.043M570.058 92.4c-6.465 3.666-3.833 5.151-7.965 5.869-3.406.978-7.161 4.263-11.14 5.262-1.717.06-3.282.401-4.254 1.295l-9.735.34c-2.163-.354-2.82-2.768-2.885-4.629-.125-3.58 1.191-6.922 1.081-10.071-.03-.86-.203-1.713-.233-2.572-.03-.86 1.284-.188 1.244-1.334-.005-.143-.307-.562-.317-.849-.015-.43.272-.44.415-.444 1.718-.06 4.34 1.138 6.497 1.35-.138.148-.138.148-.128.434.015.43.593.553 1.451.523 2.577-.09 1.229-1.763 2.804-1.818.582.266.884.686 1.743.656l.859-.03c1.861-.065 8.078-6.733 8.078-6.733-.015-.429-.306-.562-.321-.992l.429-.015c1.145-.04 1.565-.341 1.545-.914-.01-.286-.316-.849-.331-1.278.261-.726.829-.889.784-2.178.286-.01.439.272.725.262 0 0 .144-.005.134-.291-.435-.129-.593-.553-.894-.973.705-.311.844-.46.829-.889-.055-1.574-2.203-1.5-2.233-2.358-.03-.86 1.259-.904 1.224-1.906-.08-2.291-6.751-4.495-7.753-4.46-2.147.075-4.27.866-5.958 1.785l.015.43c-1.11 1.042-2.517 1.807-4.215 2.44l-.429.015c-1.145.04-2.828 1.102-3.346 2.697l-.236 1.442-.859.03c-.43.014-.977.75-.972.893 0 0 .01.287.153.282-.385 1.303-4.52 6.034-4.525 5.891.02.573.894.972.909 1.402-.113.864-.829.889-.947 1.61l-.251 1.012c-.563.306-.824 1.032-1.387 1.338.099-1.293 1.337-2.77 1.307-3.629-.01-.286-.158-.424-.598-.696-1.075 2.045-1.914 2.647-1.854 4.365.015.43.03.86.336 1.422.045 1.288-1.944 1.788-1.839 4.794.045 1.288.361 2.137.791 2.122q.214-.007.829-.889c-.286.01-.43.016-.445-.414s.987-.464.942-1.753q-.045-1.288-.489-1.703c.286-.01.44.271.44.271 1.574-.054.773-2.463 2.062-2.508.286-.01.301.42.311.706.045 1.288-1.208 2.335-1.178 3.194.015.43.025.716.459.844l.015.43-.716.025c.075 2.147-.739 3.465-2.155 3.945.133-.291.414-.445.399-.874-.01-.286-.301-.42-.884-.686-.256.87-1.243 1.334-1.198 2.622 1.861-.065.914 1.545 3.491 1.455l.572-.02-.093 1.436-.716.025c-.133.292-.128.435-.108 1.008.14 4.008 6.293 7.807 6.298 7.95.43-.015.573-.02.558-.45.909 1.402 4.849 3.414 7.855 3.309.716-.025 1.284-.188 1.698-.632l1.575-.055c1.851-.352 2.073-2.223 4.22-2.298l1.002-.035c.261-.725 1.628-2.637 2.339-2.805l.573-.02c3.006-.105 1.04-3.046 3.33-3.126.43-.015.45.558 1.166.533 1.002-.035 2.102-1.364 2.072-2.223l-.02-.572c1.243-1.334 4.599-3.745 5.458-3.775l.43-.014c1.258-.904 2.507-2.095 3.321-3.413-.005-.143-.302-.42-.731-.405zm-30.362-15.71c.133-.291-.015-.43-.301-.42-.143.006-.287.01-.425.159.957-1.323 2.078-2.08 3.193-2.978.844-.46 1.248-1.19 2.25-1.225l.86-.03c.256-.87 1.268-.618 1.682-1.063-.03-.859-1.027-.68-1.057-1.54-.02-.572.824-1.032 1.254-1.047.143-.005.434.129.444.415l1.432-.05c.419-.301 1.13-.47 1.703-.49 1.288-.045 2.182.928 3.071 1.757l-.359 2.019c-.656 1.743-.516 5.751-11.306 8.708-.993.322-4.438.155-4.167-.284zm.992-.321s.286-.01.711-.168c.384-1.304 1.387-1.339 1.781-2.356-.01-.286-.153-.281-.439-.271-.859.03-2.231 1.798-2.201 2.657.005.143.005.143.148.138m70.892 2.398c-.03-.86-.51-2.276-.51-2.276l-1.235-2.537-1.002.035c-.43.015-.859.03-1.16-.39.424-.157.424-.157.419-.3-.02-.573-3.905-1.01-4.335-.996-.424.158-1.125.613-1.396 1.052l.301.42c-.859.03-.844.46-1.417.48l-1.145.04c-.859.03-1.994.356-1.964 1.215l-.287.01c-.118.72-2.29.08-2.255 1.082l.015.43c-.548.735-5.019 4.044-4.954 5.906l-.143.005c-.573.02-.563.306-.543.879l.025.715c.015.43-.118.721-.547.736l-1.289.045c-.859.03-1.135.326-1.115.9.01.285.01.285.168.71-1.288.045-1.233 1.62-1.806 1.64l-.43.015-2.19 2.943c-.528 1.308-4.208 6.74-5.778 6.939l3.857-8.592c-.055-1.575 3.102-5.555 3.022-7.846-.01-.286-.296-.276-.296-.276.271-.44 1.382-1.482 1.392-1.195l-.01-.287c1.115-.899 1.992-4.513 2.229-5.954.128-.435.256-.87.231-1.585-.291-.133-.316-.849-.326-1.135-.07-2.005.452-3.456-2.757-5.064-.48-1.417-3.521-2.314-7.243-2.184.005.143-.134.291-.129.435l.716-.025c2.004-.07 2.109 2.936 2.214 5.942-.286.01-.708 4.325-1.271 4.632-.128.434-.113.864-.098 1.293.01.286.168.71.894.972-.809 1.462-2.649 6.256-2.649 6.256l.015.43c.02.572-.261.725-.236 1.441-.379 1.447-1.065 2.33-1.015 3.762l.015.43c-.844.46-1.392 1.195-1.791 2.069l.025.716c.035 1.002-.819 1.175-1.224 1.906l.01.286c.11 3.15-3.517 6-3.332 11.297l.005.143c-.281.153-.42.301-.41.588.03.859 1.359 1.959 2.085 2.22l.02.573c2.004-.07 1.515-1.773 2.635-2.529l1.575-.055c.286-.01-.711.168-.701.455l.02.572c.01.287.163.568.301.42 1.332-2.913 4.341-7.032 6.389-9.97l.572-.02c.257-.87.523-1.452 1.377-1.625l.859-.03-.183-1.14.572-.02c1.234-1.62 3.203-2.692 3.854-4.578l.558-.45c2.368-1.946 5.24-5.916 7.583-8.578.257-.869 5.147-4.48 5.853-4.791l.43-.015c-.015-.43-.015-.43.414-.445l.392 2.997c-1.402.909-.112 5.02-1.617 7.08l.08 2.29c.05 1.432-1.494 2.346-1.449 3.634.03.86.346 1.708.79 2.123-.829.889.364 6.294.369 6.437.218 2.142 3.459 8.766 4.185 9.027l.429-.015c-.499-1.989-.569-3.993-.599-4.852l-.015-.43c-.01-.286-.02-.572.409-.587-.005-.143 1.315-7.5 1.602-7.51.138-.148 1.253-1.047 1.243-1.333 0 0-.879-.543-.894-.972-.005-.143-.01-.287.266-.583l-.02-.573c1.146-.04 1.49-2.488 1.865-4.078l-.04-1.145c-.015-.43 1.469-3.062 1.409-4.78-.01-.286-.025-.716-.183-1.14l.108-1.007c-.015-.43-.168-.71-.499-1.99l.429-.014s.272-.44.262-.726m49.813 39.111c-.844.46-1.718.06-2.72.095-.429.015-.869-.256-1.298-.241l-.015-.43c-.035-1.002-.894-.972-.924-1.831.143-.005 1.756-3.071 1.741-3.501-.01-.286-.153-.281-.588-.409l-.429.015c.547-.736 1.386-1.339 1.356-2.198-.01-.286-.168-.71-.602-.839.572-.02.992-.321 1.416-.479-.045-1.289-.504-2.133-.534-2.991q-.023-.645.814-1.319l-.04-1.145c-.045-1.289-.381-2.71-.436-4.285-.17-4.868-1.368-10.416-2.475-13.387-1.744-4.813-3.158-8.347-3.692-11.338-.045-1.289.665-1.457.655-1.743-.015-.43-.745-.834-.76-1.264-.005-.143.271-.439.844-.459.01.286.301.42.301.42.859-.03 2.042-3.082 2.442-3.956-.286.01-.43.015-.445-.414l-.015-.43c1.259-.904 3.301-3.985 3.271-4.844l-.005-.143-.429.015c-.43.015-.568.163-.997.178-.287.01-.425.158-.696.598l-.962 1.18c-.548.736-.987.464-2.251 1.225l-.429.015c-.04-1.145-1.087-2.399-3.664-2.309-.43.015-2.909-1.188-2.884-.472l.015.43c-.424.157-.854.172-.829.888l.005.143-1.717.06c-1.432.05-.513 1.738-.933 2.04-.286.01-.725-.262-.869-.257-2.433.085-5.265 5.2-7.792 6.722l.015.43-.429.015c-.415.444-.548.736-.533 1.165s.173.854.178.997c.01.287.01.287-.133.292-.286.01-.716.025-1.303-.385-.814 1.319-1.086 1.758-1.184 3.052l.03.858-.859.03c-.844.46-3.138 4.553-3.143 4.41l-1.861.065c-1.05 2.76-4.049 7.165-4.898 7.481l.015.43c-.829.889-1.683 1.062-1.628 2.637l.015.43-.43.014c-.686.884-1.628 2.637-1.583 3.926.005.143.02.572.173.854l.43-.015.05 1.431c.015.43.03.859-.4.874l-.429.015c-.844.46.085 2.434-.769 2.607-.158-.424-.035-1.002-.608-.982.03.859.475 1.273.48 1.417.015.429-.405.73-.385 1.303.13 3.722 6.253 6.662 6.263 6.948.005.143.588.41 1.017.395.859-.03 1.279-.332 1.264-.761l.429-.015c.01.286.301.419.301.419l.143-.005c.302.42.455.701.884.686.859-.03 1.975-.929 1.95-1.645l1.002-.035c1.115-.899 2.738-3.679 2.678-5.397l-.03-.859c-.025-.715.39-1.16 1.249-1.19l-.015-.429c1.703-.49 2.072-2.223 3.029-3.546-.429.015-.577-.123-.587-.41-.015-.43.384-1.303.522-1.451l-.03-.86.43-.014c.706-.312.829-.89 1.1-1.329l1.347-2.483c1.208-2.336 5.589-8.222 6.122-9.388 1.1-1.328 3.083-6.127 4.085-6.163.429-.015.489 1.703.821 2.982l.429-.015c.005.143-.271.44-.266.583.025.715.746.834.776 1.692.015.43-.272.44-.242 1.299.1 2.863 1.409 3.39 1.454 4.68l.055 1.574c.06 1.718.519 2.562.534 2.992.005.143.015.429-.108 1.007l.355 10.164c-.425.158-.41.588-.385 1.303.045 1.289.535 2.992.55 3.421.02.573-.4.874-.38 1.447l.015.429c-.434-.128-.72-.118-.72-.118-.144.005.745.834.775 1.693l.015.43c-.429.015-.839.602-.829.889.02.572.593.552.894.972-.7.454-1.258.904-1.218 2.049l-.43.015c-.241 1.298-.625 2.602-2.343 2.662-.859.03-1.733-.37-2.163-.355 0 0-.143.005-.138.149l.455.7-1.718.06c-.44-.271-.731-.404-1.161-.389-.572.02-1.273.474-1.688.919l-.429.015c-3.544 1.127-6.442.225-9.542 1.766-.716.025-.701.455-1.273.475-.43.015-.864-.113-1.294-.098-1.145.04-1.555.627-2.112 1.077l-1.289.045c-1.52 1.63-5.129.896-5.064 2.757l-1.288.045c-1.145.04-1.989.499-2.404.944l-1.002.035c-.834.745-2.991.534-3.223 2.119l-.859.03c-1.841.638-5.073 2.47-5.048 3.186l-.859.03c-.129.435-.41.588-.553.593-.286.01-.43.015-.721-.118-.844.459-2.097 1.506-2.23 1.798l-.015-.43c-1.99.5-1.91 2.79-2.769 2.82-.429.015-.577-.123-1.318-.814-.543.879-.819 1.176-.804 1.605.005.143.02.573.321.992 3.549-.984 6.777-2.96 9.038-3.899.015.43.291.133.434.128 1.658-1.778 13.845-5.787 14.244-6.661 1.407-.765 5.529-1.769 5.099-1.754l1.002-.035c.43-.015 1.156.246 1.585.231s.563-.306.548-.736l-.015-.429.429-.015c.839-.603 2.814-1.532 2.527-1.522.859-.03 1.15.103 1.294.098.286-.01.429-.015 1.283-.188.435.128.864.113 1.294.098 2.576-.09 6.382-1.943 9.674-2.058.86-.03 1.442.237 2.306.35.06 1.718-.789 2.034-.774 2.464l.005.143c-.133.291.03.859-.399.874l-.43.015.015.429c.04 1.146-.819 1.176-.932 2.04.573-.02.864.113.864.113.015.429-.829.889-.814 1.318l.573-.02c.715-.025.854-.173.844-.459-.015-.43-.174-.854-.179-.997-.014-.43.415-.445.558-.45.43-.015.45.558.746.834-.686.884-.355 2.162-1.643 2.207l-1.288.045c-.267.583-.395 1.018-.814 1.319l-.03-.859-1.146.04.035 1.002c.045 1.289-1.183 3.051-1.588 3.782q.053 1.503-.339 2.592l1.603-3.353c2.112-1.077 3.331-3.126 4.999-4.618l.429-.015c.276-.296.271-.439.261-.725-.005-.143-.301-.42-.316-.849-.015-.43.701-.455.686-.884-.03-.859-.761-1.264-.776-1.693-.005-.143-.005-.143.415-.445 1.185 1.106 1.16.39 2.074 1.935.497-2.168 3.301-3.986 3.231-5.99l-.035-1.002c-.01-.286-.045-1.289.527-1.309l.015.43c.015.429.307.563.45.558.429-.015.839-.603 1.555-.628l.429-.015c1.002-.035 1.259-.904 2.261-.939l2.863-.1c-.055-1.575-1.304-.385-1.635-1.663m-9.614-49.545c-.286.01-.281.153-.414.444-.681 1.028-3.732-.156-3.672 1.562-.435-.128-.874-.4-.894-.972-.01-.287-.015-.43.414-.445.849-.316 1.091-1.614 2.379-1.66.143-.004.583.267.869.257 1.002-.035 1.392-1.195 2.108-1.22.143-.005.439.271.587.41-1.432.05-.819 1.174-1.233 1.619zm-4.993 4.761c-.103 1.15-1.066 2.33-2.121 4.948-.661 1.6-1.332 2.913-1.716 4.216l.015.43c-.133.291-.414.444-.558.45-.286.01-.671 1.313-1.11 1.041-1.673 1.349-1.796 1.926-3.562 4.711l.04 1.146-.859.03c-3.03 3.546-8.047 11.748-10.895 12.277l-1.002.035q-.66-.406-.874-.399c-.859.03-.311-.706-.386-2.854l-.035-1.002c-.005-.143-.139.148-.139.148-.286.01-.291-.133-.306-.562-.025-.716.844-.46.819-1.176l-.005-.143c1.505-2.059 5.748-7.797 5.683-9.658l-.01-.287.429-.015c.839-.602 1.97-1.072 1.915-2.647l-.015-.43c.429-.014.859-.03.844-.459l-.015-.43c.567-.162 9.957-10.38 9.671-10.37l.286-.01c1.279-.332.518-1.595 2.236-1.655.859-.03.475 1.273 1.343 1.53l.43-.015zm20.492 45.009c-.716.025-1.289.045-1.57.198-.419.301-.563.306-.548.735.43-.014.588.41 1.017.395l.859-.03c-.01-.286-.01-.286.277-.296.143-.005.582.266.869.256.429-.015.562-.306.819-1.175a8.2 8.2 0 0 0-1.723-.083m-70.56 23.534c-.015-.43.405-.731.39-1.16-.435-.129-1.748-.799-2.178-.784.01.286.889.829.929 1.974zm-4.659 2.026q.17-1.296 1.243-1.333c.144-.005.573-.02 1.013.251-.025-.716.246-1.155.384-1.304-1.027-.68-1.002.035-2.316-.635.025.715-.799 1.748-.774 2.463.015.43.164.568.45.558m49.484-3.161c.276-.297.691-.741.814-1.319zm-1.372 1.768 1.372-1.768c-.829.889-1.826 1.067-1.801 1.783zm-51.699 5.388c-.158-.424-.163-.567-.178-.997-.055-1.575 2.245-1.368 2.906-2.968l-.429.015c-.716.025-1.309-.528-1.738-.513-.287.01-.425.158-.696.598.286-.01.439.271.439.271.005.143-.424.158-.854.173l-.429.015c-.405.731-.533 1.166-.518 1.595s.173.854.188 1.284l.02.572zm-2.665 1.67c-.015-.429.404-.731.389-1.16-.005-.143-.291-.133-.444-.415.01.287-.405.731-.39 1.161.005.143.148.138.445.414m47.431-.366c-.113.864-.384 1.303-.957 1.323-.286.01-.716.025-.874-.399l.03.859-.296-.277c-5.748 7.798-12.16 8.882-12.1 10.6-1.284.188-1.382 1.481-3.1 1.541l-.43.015c-.384 1.304-2.107 1.221-2.348 2.519l-1.432.05c-1.145.04-2.931 2.252-4.461 3.596l-.573.02c-.015-.43-.301-.42-.301-.42-1.002.035-1.811 1.497-2.087 1.793.291.133.879.543 1.18.962-1.145.04-2.424.372-2.449-.344-.005-.143.271-.44.41-.588-1.003.035-.824 1.032-2.527 1.522l-.43.015c-.414.444-.947 1.61-1.663 1.635-.143.005-.439-.272-.587-.41-1.111 1.042-1.53 1.344-2.103 1.364l-2.577.09c-.424.158-.844.459-1.273.474-.286.01-.726-.261-.869-.256-.859.03-1.565.341-1.959 1.358-.149-.138-.445-.414-.588-.409-.859.03-3.85.564-3.81 1.71-.716.025-1.156-.247-1.6-.661-.405.73-.4.874-1.259.904-1.318-.814-3.041-.897-5.643-1.523.06 1.718.401 3.282 2.124 3.366l.43-.015c.153.281.439.271.444.414.015.43-.819 1.175-.804 1.605 1.733.369 1.773 1.515 4.064 1.435l.429-.015c.455.7 1.605.804 2.894.759 1.431-.05 2.546-.949 3.405-.979l.144-.005c1.273-.475 2.858-.243 2.798-1.961l.429-.015c.465.987 1.334 1.243 2.341 1.351-.015-.429.824-1.032.814-1.318 0 0-.148-.138-.435-.128l-.429.015c-.025-.716.399-.874 1.258-.904l.716-.025c-.271.439-.696.597-.671 1.313l.43-.015c.859-.03 1.974-.929 1.964-1.215-.02-.573-.464-.987-.474-1.274-.005-.143-.015-.429.414-.444.168.711 1.032.824 1.891.794 1.289-.045 2.848-.53 2.828-1.102-.01-.287-.311-.706-1.175-.819l.43-.015c1.288-.045 1.594.517 2.468.917.754-3.036 3.208-2.549 6.993-4.974 1.545-.914 4.753-3.463 4.708-4.752l.429-.015c3.864-4.291 10.141-9.24 9.998-9.235 1.417-.48 1.628-2.637 2.585-3.961l.859-.03c.241-1.298 3.286-4.415 5.24-5.916l.43-.015c.133-.292.128-.435.118-.721-.005-.143-.163-.568-.178-.997-.01-.286-.015-.43.404-.731l-.429.015c-1.13.47-.631 2.459-1.919 2.504zm-51.433 4.806c-.025-.716.404-.731.389-1.16-.429.015-.587-.41-.873-.4.015.43-.405.731-.4.874.43-.015.444.415.884.686m-8.752 12.059c-.302-.419-.46-.844-.465-.987-.045-1.289 2.532-1.379 2.906-2.968l-.276.296c-.143.005-.582-.266-.874-.399l.287-.01-.01-.287c-.065-1.861 3.82-1.423 3.76-3.141l-.005-.143c-.701.454-1.13.469-1.273.474l-1.146.04c-.573.02-3.129.683-3.039 3.26.143-.005.143-.005.153.281 0 0-.425.158-.854.173l-.43.015c-.404.731-.532 1.165-.517 1.595s.173.854.188 1.283l.02.573zm1.958 6.812c-.015-.43-.307-.563-.317-.849-.015-.43.4-.874.385-1.304-.02-.572-.475-1.273-1.334-1.243-.143.005-.562.306-.977.751l-.015-.43c-.03-.859-1.313-.671-1.63-1.52.267-.582 1.131-.469 1.101-1.328l-.02-.573c-1.56.485-3.371 1.981-3.326 3.27.115 3.293 4.528 2.422 5.289 3.685l.025.716c.02.573.178.997.607.982.716-.025 1.683-1.062 1.653-1.921l-.01-.286zm29.144-2.738c.01.286.154.281.154.281zM710.5 87.496c-6.466 3.666-3.834 5.15-7.965 5.868-3.406.98-7.162 4.264-11.14 5.263-1.718.06-3.283.401-4.255 1.295l-9.735.34c-2.163-.355-2.82-2.768-2.885-4.63-.125-3.578 1.192-6.921 1.082-10.07-.03-.86-.204-1.714-.234-2.573s1.284-.188 1.244-1.333c-.005-.143-.307-.563-.317-.849-.015-.43.272-.44.415-.445 1.718-.06 4.34 1.139 6.497 1.35-.138.148-.138.148-.128.435.015.43.593.552 1.452.522 2.577-.09 1.228-1.763 2.803-1.817.583.266.884.685 1.743.655l.859-.03c1.861-.065 8.078-6.732 8.078-6.732-.015-.43-.306-.562-.321-.992l.429-.015c1.146-.04 1.565-.341 1.545-.914-.01-.286-.316-.849-.331-1.278.261-.726.829-.89.784-2.178.286-.01.439.272.726.261 0 0 .143-.005.133-.29-.435-.129-.593-.553-.894-.973.706-.311.844-.46.829-.889-.055-1.575-2.203-1.5-2.233-2.359s1.259-.904 1.224-1.906c-.08-2.29-6.751-4.494-7.753-4.46-2.147.076-4.27.867-5.957 1.786l.015.43c-1.111 1.041-2.517 1.807-4.215 2.44l-.43.015c-1.145.04-2.828 1.102-3.346 2.697l-.236 1.441-.859.03c-.429.015-.977.751-.972.894 0 0 .01.286.153.281-.384 1.304-4.519 6.035-4.524 5.892.02.573.894.972.909 1.401-.114.865-.829.89-.947 1.61l-.252 1.012c-.562.307-.824 1.032-1.386 1.339.098-1.294 1.336-2.77 1.306-3.63-.01-.285-.158-.424-.597-.695-1.076 2.044-1.915 2.647-1.855 4.365.015.43.03.859.337 1.421.045 1.289-1.945 1.788-1.84 4.795.045 1.288.362 2.137.791 2.122q.215-.007.829-.889c-.286.01-.429.015-.444-.414-.015-.43.987-.465.942-1.753q-.045-1.29-.49-1.703c.287-.01.44.271.44.271 1.575-.055.774-2.463 2.062-2.508.287-.01.302.419.312.705.045 1.289-1.209 2.336-1.179 3.195.015.43.025.716.46.844l.015.43-.716.024c.075 2.148-.739 3.466-2.156 3.946.133-.292.415-.445.4-.874-.01-.287-.302-.42-.884-.686-.257.869-1.244 1.333-1.199 2.622 1.861-.065.914 1.544 3.491 1.454l.573-.02-.093 1.437-.716.025c-.133.291-.128.435-.108 1.007.14 4.009 6.292 7.807 6.297 7.95.43-.015.573-.02.558-.449.909 1.402 4.849 3.414 7.856 3.309.716-.025 1.283-.188 1.698-.633l1.574-.055c1.851-.351 2.073-2.222 4.22-2.297l1.002-.035c.262-.726 1.628-2.637 2.339-2.805l.573-.02c3.006-.105 1.04-3.046 3.331-3.126.429-.015.449.557 1.165.532 1.002-.035 2.102-1.363 2.072-2.222l-.02-.573c1.244-1.333 4.6-3.744 5.459-3.774l.429-.015c1.259-.904 2.507-2.094 3.321-3.413-.005-.143-.301-.419-.731-.404zm-30.363-15.71c.133-.291-.015-.43-.301-.42-.143.005-.286.01-.425.159.958-1.324 2.078-2.08 3.193-2.979.844-.459 1.249-1.19 2.251-1.225l.859-.03c.256-.869 1.268-.617 1.683-1.062-.03-.859-1.027-.68-1.057-1.54-.02-.572.824-1.032 1.253-1.047.143-.005.434.128.444.415l1.432-.05c.42-.302 1.13-.47 1.703-.49 1.288-.045 2.182.927 3.071 1.756l-.359 2.02c-.656 1.742-.516 5.751-11.306 8.708-.992.321-4.438.155-4.167-.285zm.992-.321s.287-.01.711-.169c.385-1.303 1.387-1.338 1.781-2.355-.01-.286-.153-.281-.439-.271-.859.03-2.231 1.798-2.201 2.656.005.144.005.144.148.139m39.914 34.727c.864.113 1.718-.06 2.577-.09.71-.169 1.569-.199 2.28-.367 1.141-.183 2.241-1.511 3.416-.692.39-1.161.849-.317 1.274-.475.71-.168 1.273-.474 1.979-.786.706-.311 1.411-.622 2.112-1.077a12.3 12.3 0 0 0 3.622-2.993c-.847-7.854-10.199-12.974-16.45-15.48-.317-.848-.02-.572-.465-.986-.05-1.432.33-2.878.857-4.187.4-.874.942-1.753 1.485-2.632.271-.44 1.382-1.481 2.487-2.667l.774-2.464 1.165.533c.686-.884 1.382-1.481 1.658-1.778.691-.74-.607-.982.083-1.723.864.114 1.605.804 2.439.058.844-.459 1.51-1.916 2.211-2.37.987-.465.894.972 1.599.66 3.688-1.131 6.418-.94 9.336.535.251-1.012.113-.864.523-1.452-.367-2.28-7.725-7.757-10.174-8.101-.73-.405-1.727-.227-2.858.243-.705.311-1.688.919-2.522 1.664-3.494 2.56-7.076 6.698-9.193 7.632l.06 1.718-2.005.07c.302.42.598.695 1.043 1.11-2.334 2.948-7.205 7.132-3.757 11.455.198 1.57.969 3.12 2.307 4.506.45.557 1.185 1.105 1.778 1.658l1.615 1.09c2.7-.668 3.214 1.751 4.385 2.427 1.165.533-.085-2.434 2.33 1.065a68 68 0 0 0 3.491 1.455c.045 1.288.075 2.147-.472 2.883-1.905 2.933-6.629 3.098-9.651 2.774-2.004.07-5 .461-6.175-.358-4.182-.714-.989-3.692-.422-3.855.711-.168.154.281.099-1.293-.988.464-1.274.474-1.97 1.072-1.313-.671-.646 2.029-1.13.47-1.274.474-.123.577-1.402.908-2.329 3.091-2.495 6.537-1.438 8.077 1.595.518 3.19 1.035 4.775 1.267 1.012.251 1.876.364 2.883.472-.465-.987.681-1.027 3.441.024m36.433-32.09c.276-.296.553-.593.686-.884-.005-.143-.276.296-.686.884m-23.721 10.289c6.362-2.516 15.716-5.566 20.918-8.471-3.278.544-4.255 1.295-6.516 2.234-2.019-.36-10.933 2.962-14.402 6.237m-.336-1.422c.138-.148-.563.306-.993.321-.143.005.302.42.44.272zm-4.748 3.606c.982-.608 2.394-1.23 4.092-1.863-1.027-.68-2.597-.483-3.712.416-.114.864-.124.578-.395 1.017zm1.309.527c.035 1.003 1.549-.77 2.516-1.808-.695.598-1.677 1.206-2.803 1.818zm-13.662 6.928c.603.839 2.285-.224 2.971-1.108-.291-.133-.715.026-1.426.194-.42.301-.982.607-1.545.914m4.613 4.855c-.311-.706-2.029-.645-2.331-1.065.01.286 1.032.824 1.042 1.11z" opacity=".3"/><defs><linearGradient id="a" x1="-719.996" x2="-716.761" y1="-173.205" y2="302.726" gradientUnits="userSpaceOnUse"><stop offset="1" stop-color="#C6DDFF"/><stop offset=".359" stop-color="#D2EED9"/><stop stop-color="#D8E5E7"/></linearGradient></defs></svg>