<svg width="762" height="204" viewBox="0 0 762 204" fill="none" xmlns="http://www.w3.org/2000/svg">
<path opacity="0.3" d="M74.471 114.867C72.8963 114.922 72.7481 114.783 72.7381 114.497C71.6028 114.823 66.8835 115.132 66.1677 115.157C64.6229 116.071 55.6038 116.385 50.6131 117.133C45.3361 117.891 25.723 118.576 14.0588 121.133C13.7675 121 13.1849 120.733 12.8885 120.457C13.1349 119.302 12.5822 119.895 14.0188 119.988C13.8988 116.552 14.916 116.946 15.3886 114.063C16.0744 113.179 15.5318 114.058 14.9191 112.933C15.62 112.478 15.7581 112.33 17.0416 112.142C15.4168 110.765 16.7103 110.864 15.4068 110.479C15.6781 110.04 15.6831 110.183 16.3889 109.871C15.495 108.899 16.6653 109.575 15.2136 109.052C14.8723 107.488 17.2611 106.114 18.2582 105.936C18.2132 104.648 18.1632 103.216 18.7009 102.194C19.2535 101.601 19.1204 101.893 20.552 101.843C20.3588 100.416 20.0025 98.4217 21.8236 97.2114C21.5273 96.9351 21.0878 96.6638 20.5052 96.3974C21.4673 95.2172 22.1581 94.4764 22.3894 92.8916C23.5447 93.1379 23.2584 93.1479 24.1324 93.5474C23.9392 92.1208 23.816 92.6984 22.7739 91.5881C23.1684 90.571 23.6329 91.5581 23.2916 89.9934C25.7153 89.6221 25.5872 90.0565 24.9545 88.3586C25.2558 88.7781 25.6903 88.9063 26.1298 89.1776C26.3711 87.8791 27.0669 87.2815 27.7478 86.2544C28.0341 86.2444 28.1772 86.2394 28.3154 86.0912C27.1551 85.7017 27.7428 86.1112 26.4643 86.4425C26.2861 85.4454 26.2911 85.5885 26.2711 85.0159C26.8238 84.4233 26.982 84.8477 27.5396 84.3983L27.9691 84.3833C27.3814 83.9738 25.9498 84.0238 25.3722 83.9006L24.9427 83.9156L26.6056 82.2808L26.7488 82.2758C27.7209 81.3819 28.8362 80.4829 29.6902 80.3098C28.8112 79.7671 28.5149 79.4908 27.3646 79.3876C26.9883 76.8207 29.9547 75.5704 31.105 75.6736C31.1832 73.8075 31.3213 73.6594 31.5477 71.9314L32.1203 71.9114C31.6758 71.4969 31.2413 71.3688 30.94 70.9493C31.4927 70.3566 31.6558 70.9243 32.0703 70.4798C32.8943 69.4477 32.613 69.6008 32.1485 68.6137C32.2466 67.3203 33.1006 67.1471 34.9667 67.2253C34.2209 66.3913 34.2309 66.6776 33.4951 66.13C34.4672 65.236 34.9749 63.3549 34.7817 61.9283C35.7789 61.7501 36.3465 61.587 36.9342 61.9965C37.2205 61.9865 37.3636 61.9815 37.5018 61.8333C36.4597 60.723 37.1905 61.1275 35.7439 60.748C35.5907 60.4667 35.4326 60.0422 35.2844 59.904C36.5828 60.1454 36.4447 60.2935 37.61 60.8262L37.1555 60.1254C36.8542 59.7059 37.2886 59.8341 36.5678 59.7159L36.2465 58.7238C37.4018 58.9701 37.1205 59.1233 37.8513 59.5277C38.0826 57.943 38.4721 56.7827 38.5653 55.3461L38.1358 55.3611C37.7063 55.3761 37.9826 55.0797 37.435 55.8155C37.0105 55.9737 36.8673 55.9787 36.4379 55.9937C37.0987 54.3939 37.2318 54.1026 39.2461 54.3189C39.3793 54.0276 39.3743 53.8845 39.3693 53.7413C39.3693 53.7413 38.8798 52.0384 38.7666 52.9023L38.4903 53.1986C38.7416 52.1865 39.3974 50.4436 40.9222 48.957C39.8851 47.9899 40.0433 48.4143 39.3075 47.8667C40.5809 47.3922 39.5888 47.7135 40.5909 47.6785C41.1767 43.9313 42.9228 40.5736 43.0742 36.6983C40.3141 35.648 36.5469 34.4895 34.0582 32.9997C28.6731 34.7645 31.8844 40.5291 30.736 44.5826C29.4393 48.498 27.131 64.4888 24.0665 67.0326C24.6691 67.8715 24.5109 67.4471 25.3999 68.276C23.8701 69.6195 23.8319 72.6309 21.8627 73.703C22.3022 73.9743 22.8798 74.0975 23.1761 74.3738C21.6064 74.5719 22.0258 74.2706 21.355 75.5841C21.0837 76.0236 21.2169 75.7322 21.5182 76.1517C21.6664 76.2899 21.6764 76.5762 21.8345 77.0007C21.2669 77.1639 20.9805 77.1739 20.5511 77.1888C20.8874 78.6105 20.9274 79.7558 20.9474 80.3284C20.681 80.911 20.0834 80.2152 19.8371 81.3705C19.2644 81.3905 18.6968 81.5537 17.981 81.5787C18.2823 81.9982 18.7318 82.5558 19.0281 82.8321L17.4501 86.9006L15.604 87.3951C16.0635 88.2391 16.2317 88.9499 16.538 89.5125C15.8422 90.1102 14.9982 90.5696 14.2924 90.881C14.2924 90.881 15.3395 92.1344 14.93 92.7221C14.6587 93.1616 13.6516 93.0534 13.3753 93.3497C13.2571 94.0705 13.3803 93.4929 13.8498 94.6232C12.7345 95.5221 12.7595 96.2379 11.0665 97.0137C11.6442 97.1369 11.2097 97.0087 12.0736 97.1219C11.9755 98.4153 12.5281 97.8227 10.9683 98.3072C11.9873 102.858 8.12694 103.136 8.7014 107.273C7.9906 107.441 7.41795 107.461 6.8503 107.624C7.6611 110.32 6.74896 112.931 4.63653 114.009C5.35734 114.127 4.77469 113.86 5.64866 114.26C5.67366 114.976 5.66366 114.689 5.53549 115.124C5.68366 115.262 5.69365 115.548 5.69365 115.548C5.40733 115.558 4.96785 115.287 4.68153 115.297C4.35203 118.175 3.30173 120.935 3.40171 123.799C3.4867 126.232 5.70411 128.162 4.60381 129.49C5.04329 129.761 5.63594 130.314 5.93726 130.733C11.2492 130.978 16.308 128.078 23.7774 128.534C25.0709 128.632 26.7038 126.138 28.7381 126.927C28.7381 126.927 30.5892 126.576 29.577 126.325C29.4339 126.33 29.1426 126.196 28.8462 125.92C30.7173 126.141 33.5806 126.041 34.6959 125.142C36.1375 125.379 35.2535 124.693 35.8711 125.961C39.0057 125.422 39.8297 124.39 41.2413 123.767C42.6529 123.145 46.2919 124.737 49.1151 123.492C50.8131 122.86 53.0287 120.632 54.4753 121.012C57.0422 120.635 56.6077 120.507 57.0872 121.924C64.7279 119.077 68.9877 117.925 74.8374 117.147L76.0858 115.957L75.7595 114.822L74.471 114.867ZM36.7742 57.4153C36.9273 57.6966 36.9373 57.983 37.0905 58.2643L36.0884 58.2993C35.9402 58.1611 35.9302 57.8748 35.777 57.5935C36.0584 57.4403 36.3447 57.4303 36.7742 57.4153ZM34.4304 60.0772C34.4604 60.9362 34.4454 60.5067 33.5715 60.1072L34.4304 60.0772ZM36.9641 62.8554C36.9591 62.7123 36.811 62.5741 36.806 62.431C36.3765 62.446 36.2333 62.451 35.8089 62.6091C36.3865 62.7323 35.957 62.7473 36.9641 62.8554ZM35.9238 65.9018C35.7657 65.4773 35.6125 65.196 35.6025 64.9097C35.173 64.9247 34.8867 64.9347 34.6054 65.0879C34.6154 65.3742 34.7686 65.6555 34.9217 65.9368L35.9238 65.9018ZM29.9761 67.9729C30.1242 68.1111 30.1292 68.2542 30.1342 68.3974C29.9911 68.4024 29.5616 68.4174 29.1371 68.5755C29.1271 68.2892 28.9739 68.0079 28.8208 67.7266C29.1071 67.7166 29.8279 67.8347 29.9761 67.9729ZM25.5217 75.8686C26.5338 76.1199 25.9562 75.9967 26.687 76.4012C26.5438 76.4062 26.4057 76.5544 26.2675 76.7026C25.838 76.7176 25.5517 76.7275 24.9841 76.8907C24.9791 76.7475 24.8309 76.6094 24.8309 76.6094C25.3885 76.1599 25.3985 76.4462 25.5217 75.8686ZM28.2036 78.785C28.7862 79.0513 28.3518 78.9231 29.0776 79.1845L29.4471 77.4515C29.3039 77.4565 28.4849 78.6318 28.2036 78.785ZM23.4961 83.5361C23.6492 83.8174 23.8074 84.2419 23.8124 84.3851L22.9534 84.4151C22.9484 84.2719 22.7953 83.9906 22.6421 83.7093C22.9284 83.6993 23.2098 83.5461 23.4961 83.5361ZM23.6261 87.2583C22.6189 87.1501 23.0484 87.1351 22.4708 87.012C23.4779 87.1201 22.9053 87.1401 23.6261 87.2583ZM19.5062 92.4189C20.1089 93.2579 19.6694 92.9866 19.2499 93.2879C19.398 93.4261 19.403 93.5692 19.5562 93.8505L19.2699 93.8605C19.1067 93.2929 19.0917 92.8634 18.9386 92.5821C19.2199 92.4289 19.3631 92.4239 19.5062 92.4189ZM13.9447 97.3432C13.2239 97.2251 13.5153 97.3582 13.0708 96.9437C13.9397 97.2001 13.3621 97.0769 13.9447 97.3432ZM14.5992 103.77C14.481 104.491 14.6142 104.2 13.8884 103.939C14.1697 103.785 14.3129 103.78 14.5992 103.77ZM13.0762 109.414C12.3554 109.296 12.6467 109.429 12.0641 109.162C12.9281 109.276 12.6367 109.142 13.0762 109.414ZM11.112 110.629C11.3883 110.333 11.5314 110.328 11.3783 110.046C12.3904 110.298 12.0991 110.165 12.5386 110.436L12.4154 111.014C12.4154 111.014 10.5543 111.079 11.112 110.629ZM10.5593 111.222C10.5643 111.365 10.278 111.375 10.4312 111.656L9.97167 110.812C10.8406 111.069 10.5443 110.792 10.9888 111.207L10.5593 111.222ZM15.2936 111.343C15.2936 111.343 13.7289 111.684 14.4247 111.087C14.2715 110.805 14.4147 110.8 14.5528 110.652C15.1405 111.062 14.701 110.79 15.2936 111.343ZM16.5621 110.725C17.4411 111.268 17.1597 111.421 17.4211 110.695L16.5621 110.725ZM13.4775 112.696C13.6207 112.691 13.912 112.825 14.0602 112.963C13.962 114.256 14.3615 113.382 12.9499 114.005L12.4804 112.875C12.9049 112.716 13.1912 112.706 13.4775 112.696ZM10.6543 113.942C10.6593 114.085 10.5211 114.233 10.5261 114.376C10.5161 114.09 10.363 113.809 10.2098 113.527C10.9356 113.789 10.4961 113.517 11.0838 113.927L10.6543 113.942ZM13.6807 114.409C14.5447 114.523 14.2533 114.389 14.6978 114.804L13.6807 114.409ZM9.45084 116.42C9.589 116.272 9.44084 116.134 9.57401 115.843C10.1616 116.252 9.86533 115.976 10.463 116.672C10.463 116.672 8.60687 116.88 9.45084 116.42ZM53.0787 122.064C53.9526 122.463 55.3792 122.27 56.8009 121.934C56.2132 121.524 55.7787 121.396 55.2061 121.416C54.4953 121.584 53.7895 121.896 53.0787 122.064ZM36.9764 124.776C37.8504 125.176 37.4109 124.904 37.9886 125.027C37.2728 125.052 37.5641 125.186 36.9764 124.776ZM123.877 80.7474C123.166 80.9156 122.189 81.6664 121.493 82.264C122.624 81.7945 123.897 81.3201 125.319 80.9837C125.467 81.1219 126.873 80.3561 128.157 80.1679L128.285 79.7335C126.434 80.0848 124.726 80.4311 123.877 80.7474ZM120.225 82.8817C120.511 82.8717 120.931 82.5703 121.493 82.264C120.501 82.5853 119.509 82.9067 118.665 83.3661C119.376 83.198 119.944 83.0348 120.225 82.8817ZM109.879 86.253C109.301 86.1298 108.166 86.4561 107.435 86.0517C103.61 87.3319 98.1949 88.2377 93.3874 90.1256C92.104 90.3138 91.0818 89.7761 89.9115 89.1003C87.7191 87.8868 86.667 86.4902 83.083 86.472C83.153 88.4763 83.3811 90.905 82.5671 92.2235L79.7057 96.4802C77.9596 99.8379 77.1506 101.299 76.5698 105.19C76.5003 115.512 79.4085 116.701 83.4388 121.29C84.5841 121.25 85.7294 121.21 86.8697 121.027L87.7237 120.854L87.5605 120.286C87.6687 119.279 89.8211 119.347 91.2377 118.868L91.6622 118.71C92.348 117.826 93.7796 117.776 93.7446 116.774L93.7346 116.487L94.1591 116.329C95.1512 116.008 94.6918 115.164 95.3926 114.709L95.8171 114.551C96.1284 115.257 96.5529 115.099 96.716 115.666C97.52 114.062 97.7463 112.334 99.4443 111.701C99.8687 111.543 100.263 110.526 100.703 110.797C100.979 110.501 100.836 110.506 100.826 110.22C100.816 109.933 99.3793 109.84 99.3643 109.411C99.3493 108.981 99.4824 108.69 100.035 108.097C100.894 108.067 100.445 107.509 101.294 107.193C102.143 106.877 102.369 105.149 102.369 105.149C102.615 103.994 102.857 102.695 102.955 101.402L104.959 101.332C105.092 101.04 105.368 100.744 105.65 100.591C105.733 98.868 104.424 98.3403 102.642 96.5392C102.345 96.2629 102.059 96.2729 101.906 95.9916C102.049 95.9866 99.6883 94.0623 98.473 92.0981C101.123 89.9988 103.271 89.9238 106.666 88.6585C106.79 88.0809 109.5 87.6996 109.48 87.1269C112.742 86.153 115.556 84.6214 118.665 83.3661C117.239 83.5593 115.526 83.7624 114.395 84.2319C112.984 84.8545 111.153 85.7785 109.879 86.253ZM88.3186 92.7393C87.9141 93.4701 87.3615 94.0628 87.3765 94.4923C87.3865 94.7786 87.9591 94.7586 88.6799 94.8767L88.8431 95.4444C88.5717 95.8839 88.5867 96.3134 87.7328 96.4865L87.7228 96.2002C87.6928 95.3412 86.6906 95.3762 86.2462 94.9617C86.5025 94.0928 86.7538 93.0806 88.3186 92.7393ZM98.8412 98.5353C98.4817 100.555 97.5545 102.737 96.3311 104.643C96.0547 104.939 95.8034 105.952 95.5321 106.391C94.9845 107.127 94.4168 107.29 93.8642 107.883C93.4547 108.47 92.927 109.779 92.3694 110.228C89.8775 112.752 87.0492 113.854 84.7786 114.507C83.9397 115.109 82.0786 115.174 80.2125 115.096C80.547 112.361 81.1728 109.759 82.2331 107.285C81.3591 106.886 82.4894 106.416 82.7607 105.977C82.8939 105.686 82.3113 105.419 82.4444 105.128C82.5776 104.837 83.1352 104.387 83.2684 104.096C81.96 103.568 81.2342 103.307 81.086 103.169C80.6365 102.611 84.2355 103.059 84.3687 102.767C84.64 102.328 84.1905 101.77 85.0445 101.597L85.454 101.01L85.1077 99.3016C85.2458 99.1534 86.5543 99.6811 86.6875 99.3897C87.3683 98.3626 88.0591 97.6218 88.7499 96.881C90.0283 96.5497 89.3225 96.861 90.0183 96.2634C95.2853 95.2194 95.4735 96.5029 98.8412 98.5353ZM121.52 132.287C121.505 131.858 121.633 131.423 121.618 130.994C121.613 130.851 121.174 130.579 121.016 130.155L121.159 130.15C121.875 130.125 122.279 129.394 122.121 128.97C122.121 128.97 122.111 128.683 121.687 128.841L121.672 128.412C121.672 128.412 121.305 126.131 121.418 125.267L121.881 122.098C122.167 122.088 122.311 122.083 122.301 121.797L122.296 121.653C122.725 121.638 122.996 121.199 122.981 120.769C122.966 120.34 122.813 120.059 122.798 119.629C122.793 119.486 122.783 119.2 123.065 119.046L123.04 118.331C125.763 114.222 126.535 107.602 128.497 102.23L128.462 101.228C127.865 100.532 127.43 100.404 127.287 100.409C126.858 100.424 126.448 101.011 125.875 101.031C125.446 101.046 125.155 100.913 124.271 100.227C124.296 100.943 124.168 101.378 123.452 101.403L123.309 101.408C123.999 100.667 123.505 98.8207 124.793 98.7757C125.228 98.9039 125.524 99.1802 125.954 99.1652C125.954 99.1652 126.097 99.1602 126.368 98.7207L126.798 98.7057C126.813 99.1352 126.961 99.2734 127.247 99.2634C127.82 99.2434 128.516 98.6458 128.491 97.9299L128.461 97.071C129.591 96.6015 130.158 96.4383 130.005 96.157C129.847 95.7325 129.413 95.6044 128.815 94.9086C129.388 94.8886 129.516 94.4541 129.644 94.0196L129.624 93.4469L132.201 93.357C132.176 92.6412 132.161 92.2117 131.716 91.7972L131.701 91.3677C132.239 90.3456 133.359 89.5898 133.309 88.1582L133.269 87.0129C134.543 86.5384 135.315 79.918 136.963 77.8537C140.256 77.7388 138.276 78.5245 143.682 77.3324L144.54 77.3024C144.55 77.5888 144.842 77.7219 145.128 77.7119C149.137 77.572 152.508 75.5909 155.567 72.904C155.878 73.6098 156.752 74.0093 157.325 73.9893C158.184 73.9593 159.171 73.4948 159.576 72.764L160.005 72.749C160.005 72.749 163.095 70.9211 163.539 71.3356C163.223 70.4866 161.357 70.4084 159.782 70.4634C158.493 70.5084 156.924 70.7066 156.361 71.0129L155.645 71.0379C154.643 71.0729 154.545 72.3663 153.691 72.5395C153.799 71.5324 153.068 71.1279 152.496 71.1479C151.923 71.1679 151.212 71.336 150.65 71.6424L150.64 71.356C150.64 71.356 150.635 71.2129 150.491 71.2179C150.205 71.2279 147.051 71.1947 146.661 72.355C146.063 71.6592 144.524 72.7163 144.479 71.4278C143.916 71.7342 143.63 71.7442 143.2 71.7592L140.766 71.8441C140.337 71.8591 139.764 71.8791 139.054 72.0473L139.694 69.8749L140.232 68.8528L140.217 68.4233C140.137 66.1327 140.893 67.253 141.36 64.2266L141.305 62.6518L141.449 62.6468C141.878 62.6318 141.873 62.4887 141.863 62.2023C141.848 61.7729 141.69 61.3484 141.685 61.2052C141.655 60.3462 143.393 60.8589 143.416 57.418C143.816 56.5441 144.23 56.0996 144.358 55.6651C144.486 55.2306 144.185 54.8111 144.17 54.3816C144.165 54.2385 144.155 53.9522 144.293 53.804C144.241 48.2157 140.469 46.9141 139.743 46.6528C138.214 47.9962 135.725 58.8333 135.602 59.4109C135.331 59.8504 134.231 61.1789 134.261 62.0378C134.276 62.4673 134.572 62.7436 135.006 62.8718L134.903 64.0221C133.62 64.2102 134.564 66.614 133.418 66.654L133.275 66.659C133.064 68.8164 132.936 69.2509 131.348 73.0331C125.795 74.087 118.034 73.498 118.034 73.498C117.891 73.503 117.594 73.2267 117.446 73.0885C117.466 73.6612 116.499 74.6983 116.667 75.4091C117.335 78.1092 122.212 78.2255 125.94 78.2387L126.226 78.2287C127.085 78.1987 127.1 78.6282 127.816 78.6032C127.959 78.5982 128.373 78.1537 128.373 78.1537L128.398 78.8695L129.252 78.6963C129.682 78.6813 129.968 78.6713 130.121 78.9527C130.136 79.3821 129.727 79.9698 129.732 80.113C129.742 80.3993 130.028 80.3893 130.458 80.3743L128.498 81.7327C125.752 89.2821 124.219 94.6391 123.789 94.654C123.646 94.659 123.375 95.0985 123.385 95.3849C123.405 95.9575 123.849 96.372 124.279 96.357C124.279 96.357 124.565 96.347 124.703 96.1988L125.133 96.1838C125.562 96.1688 125.854 96.302 125.869 96.7315L125.884 97.161C124.723 96.7715 124.294 96.7865 124.294 96.7865C123.292 96.8215 123.035 97.6904 122.631 98.4212L122.646 98.8507C122.221 99.0089 122.231 99.2952 122.093 99.4434C121.817 99.7397 122.246 99.7247 122.251 99.8678C121.128 104.637 118.153 109.758 118.105 112.483C118.13 113.199 118.288 113.623 118.59 114.043C118.18 114.63 118.788 115.612 117.643 115.652L117.336 115.09C117.178 114.665 117.035 114.67 116.6 114.542L116.63 115.401C116.66 116.26 116.562 117.553 116.582 118.126C116.612 118.985 117.195 119.251 117.2 119.395C117.097 120.545 115.492 119.741 115.384 120.748C115.971 121.158 116.273 121.577 116.288 122.006C116.318 122.865 115.632 123.749 115.662 124.608C115.677 125.038 115.687 125.324 115.978 125.457C116.171 126.884 116.171 126.884 116.646 128.157C117.856 129.979 118.888 130.802 121.52 132.287ZM133.998 70.9338C133.568 70.9488 132.966 70.1098 132.946 69.5372C132.931 69.1077 134.224 69.2059 134.189 68.2038L134.174 67.7743C134.099 65.6269 136.466 59.5241 136.836 57.7912C137.981 57.7512 137.089 60.9357 136.187 63.8339L135.757 63.8489C135.393 65.725 136.025 67.423 135.033 67.7443C134.332 68.1988 134.427 70.9188 133.998 70.9338ZM151.261 126.089C152.125 126.202 152.979 126.029 153.838 125.999C154.549 125.83 155.408 125.8 156.118 125.632C157.259 125.449 158.359 124.121 159.534 124.94C159.924 123.779 160.383 124.623 160.808 124.465C161.519 124.297 162.081 123.991 162.787 123.679C163.493 123.368 164.199 123.057 164.899 122.602C166.306 121.837 167.559 120.789 168.522 119.609C167.674 111.755 158.322 106.635 152.071 104.13C151.754 103.281 152.051 103.557 151.606 103.143C151.556 101.711 151.936 100.265 152.463 98.9562C152.863 98.0822 153.406 97.2032 153.948 96.3243C154.22 95.8848 155.33 94.8427 156.435 93.6574L157.209 91.1936L158.374 91.7263C159.06 90.8423 159.756 90.2447 160.032 89.9484C160.723 89.2076 159.425 88.9662 160.116 88.2254C160.98 88.3386 161.72 89.0294 162.554 88.2836C163.398 87.8241 164.064 86.3675 164.765 85.913C165.752 85.4486 165.659 86.8852 166.365 86.5738C170.052 85.4417 172.782 85.6331 175.7 87.1079C175.951 86.0957 175.813 86.2439 176.223 85.6562C175.856 83.3757 168.498 77.8992 166.05 77.5547C165.319 77.1502 164.322 77.3284 163.191 77.7978C162.486 78.1091 161.504 78.7168 160.67 79.4626C157.175 82.0213 153.593 86.1598 151.476 87.0938L151.536 88.8117L149.532 88.8817C149.833 89.3012 150.129 89.5775 150.574 89.992C148.24 92.9402 143.369 97.1237 146.817 101.447C147.015 103.016 147.786 104.566 149.124 105.953C149.574 106.511 150.31 107.058 150.902 107.611L152.517 108.701C155.217 108.033 155.732 110.452 156.902 111.128C158.067 111.661 156.817 108.694 159.232 112.193C160.398 112.726 161.706 113.254 162.723 113.648C162.768 114.937 162.798 115.796 162.251 116.531C160.346 119.465 155.622 119.63 152.601 119.305C150.596 119.375 147.6 119.766 146.425 118.947C142.243 118.233 145.436 115.255 146.003 115.092C146.714 114.924 146.157 115.373 146.102 113.799C145.115 114.263 144.828 114.273 144.132 114.871C142.819 114.2 143.487 116.9 143.002 115.34C141.729 115.815 142.879 115.918 141.6 116.249C139.272 119.341 139.105 122.786 140.162 124.326C141.757 124.844 143.352 125.361 144.937 125.593C145.949 125.844 146.813 125.957 147.82 126.065C147.356 125.078 148.501 125.038 151.261 126.089ZM187.694 93.9991C187.971 93.7028 188.247 93.4065 188.38 93.1152C188.375 92.972 188.104 93.4115 187.694 93.9991ZM163.973 104.288C170.335 101.772 179.689 98.7221 184.891 95.8171C181.613 96.3615 180.636 97.1123 178.376 98.0513C176.356 97.6918 167.442 101.013 163.973 104.288ZM163.637 102.866C163.775 102.718 163.074 103.172 162.645 103.187C162.502 103.192 162.946 103.607 163.084 103.459L163.637 102.866ZM158.889 106.472C159.871 105.864 161.283 105.242 162.981 104.609C161.954 103.928 160.384 104.126 159.269 105.025C159.156 105.889 159.146 105.603 158.874 106.042L158.889 106.472ZM160.198 107C160.233 108.002 161.748 106.229 162.715 105.192C162.019 105.789 161.037 106.397 159.911 107.01L160.198 107ZM146.536 113.927C147.139 114.766 148.822 113.704 149.508 112.82C149.216 112.686 148.792 112.845 148.081 113.013C147.661 113.314 147.099 113.62 146.536 113.927ZM151.149 118.782C150.838 118.077 149.12 118.137 148.819 117.717C148.829 118.003 149.851 118.541 149.861 118.827L151.149 118.782ZM246.709 96.9551C246.634 94.8076 247.704 92.6202 247.619 90.1865C247.594 89.4707 247.574 88.898 247.411 88.3304C247.139 88.7699 247.144 88.913 246.858 88.923C246.285 88.943 245.1 87.8377 244.671 87.8527L244.646 87.1369C244.912 86.5543 245.331 86.253 246.19 86.223L246.115 84.0756C246.105 83.7892 240.752 78.2428 240.752 78.2428C239.838 76.698 235.31 74.2761 234.88 74.2911C234.308 74.3111 233.212 75.7827 233.079 76.074L233.104 76.7898L229.525 76.9148C229.111 77.3593 229.126 77.7887 229.141 78.2182C229.146 78.3614 229.156 78.6477 229.6 79.0622C226.511 80.8901 222.795 85.3199 221.364 85.3699C220.105 86.2739 217.347 89.3803 217.367 89.9529C217.382 90.3824 217.673 90.5155 217.683 90.8019C217.688 90.945 217.412 91.2413 216.987 91.3995L217.012 92.1153C215.872 92.2985 215.912 93.4438 214.634 93.7751L214.654 94.3477C213.865 96.382 212.646 98.4312 212.46 101.304L212.49 102.163C212.55 103.881 212.145 104.612 212.205 106.33L212.24 107.332C211.826 107.777 211.841 108.206 211.846 108.349C211.911 110.21 215.145 112.534 215.205 114.252C215.21 114.395 215.22 114.682 215.087 114.973C215.092 115.116 215.245 115.397 215.245 115.397L216.642 114.345L216.667 115.061C216.697 115.92 216.998 116.34 217.867 116.596L218.297 116.581C219.013 116.556 219.171 116.98 220.03 116.95L221.891 116.885C221.614 117.182 221.634 117.754 221.644 118.041C221.659 118.47 221.664 118.613 221.951 118.603L222.503 118.011L224.078 117.956C224.063 117.526 224.339 117.23 224.483 117.225C225.198 117.2 225.801 118.039 226.517 118.014C227.805 117.969 231.093 117.711 231.754 116.111L232.47 116.086C232.618 116.224 233.057 116.495 233.344 116.485C234.203 116.455 234.449 115.3 235.308 115.27L235.737 115.255L235.717 114.683C235.667 113.251 236.655 112.786 237.627 111.892L238.056 111.877C238.066 112.164 238.209 112.159 238.209 112.159C239.068 112.129 240.864 110.203 240.834 109.344C240.834 109.344 240.829 109.201 240.543 109.211L240.518 108.495C242.374 108.287 242.897 106.835 243.721 105.803L243.626 103.083L245.201 103.028C245.211 103.314 245.216 103.457 245.502 103.447C245.502 103.447 245.64 103.299 245.63 103.013L245.615 102.583C246.449 101.838 247.896 102.217 247.821 100.07L247.766 98.4948L247.193 98.5148C247.035 98.0904 246.729 97.5277 246.709 96.9551ZM238.719 81.6105L238.759 82.7557L237.9 82.7857L237.86 81.6405L238.719 81.6105ZM244.642 91.1505C244.07 91.1704 244.614 94.4482 243.326 94.4932L242.896 94.5082L242.956 96.2261C242.67 96.2361 238.121 101.412 238.244 100.834C237.07 104.172 232.891 107.614 232.032 107.644C231.888 107.649 231.883 107.506 231.597 107.516C231.632 108.518 227.091 109.824 227.664 109.804L227.52 109.809C227.259 110.534 224.308 112.214 223.449 112.244C222.447 112.279 221.676 110.729 221.246 110.744C220.53 110.769 220.274 111.638 219.845 111.653C219.702 111.658 219.82 110.938 218.818 110.973C218.102 110.998 217.815 111.008 217.652 110.44L217.457 104.857C217.427 103.998 217.555 103.563 218.271 103.538L218.246 102.822C217.832 103.267 217.545 103.277 217.116 103.292C216.686 103.307 216.252 103.179 216.242 102.892C216.227 102.463 216.508 102.31 217.352 101.85L217.372 102.423L218.231 102.393L218.186 101.104C221.004 99.716 220.641 93.4219 224.294 91.2877C224.309 91.7172 224.314 91.8604 224.743 91.8454C224.984 90.5469 226.13 90.5069 226.243 89.6429L226.899 87.9C227.861 86.7197 233.952 84.6437 235.911 83.2852L238.937 83.7529L238.957 84.3255C239.126 85.0363 241.436 85.529 242.152 85.504L243.041 86.333C243.47 86.318 243.757 86.308 243.782 87.0238C243.797 87.4533 243.525 87.8927 243.545 88.4654L243.56 88.8949C244.567 89.003 244.055 90.741 244.786 91.1455L244.642 91.1505ZM229.941 113.451C229.655 113.461 229.526 113.895 229.26 114.478L228.831 114.493C228.391 114.222 228.105 114.232 228.075 113.373L228.361 113.363C229.077 113.338 229.195 112.617 229.61 112.172C230.484 112.572 231.358 112.971 231.408 114.403C230.825 114.137 230.37 113.436 229.941 113.451ZM292.215 86.6225C292.343 86.188 291.919 86.3461 290.902 85.9516C288.033 85.9085 286.474 86.3929 285.358 87.2919L285.517 87.7164L281.651 87.8514C281.222 87.8664 280.792 87.8814 280.807 88.3109C280.561 89.4661 277.796 88.2727 277.406 89.433C276.404 89.468 275.975 89.483 275.817 89.0585C275.817 89.0585 275.802 88.629 276.078 88.3327C276.073 88.1895 275.633 87.9182 275.633 87.9182C275.282 86.0671 280.296 81.8786 278.868 77.9151L278.709 77.4906C279.983 77.0161 279.488 75.17 281.206 75.11C280.89 74.2611 280.594 73.9847 280.292 73.5652C280.85 73.1158 281.546 72.5181 281.802 71.6492C281.219 71.3828 281.071 71.2447 281.061 70.9583C281.041 70.3857 283.179 70.0244 283.021 69.5999C282.862 69.1754 282.003 69.2054 281.983 68.6328C281.923 66.9148 285.611 65.7827 284.667 63.379L284.509 62.9545C284.039 61.8242 285.624 62.0555 285.313 61.3497C285.154 60.9252 284.28 60.5257 284.26 59.9531C284.25 59.6668 288.523 54.7875 288.523 54.7875C288.094 54.8025 288.089 54.6593 288.079 54.373L288.064 53.9435C288.059 53.8004 287.916 53.8053 287.906 53.519C287.886 52.9464 289.021 52.6201 288.863 52.1956C288.863 52.1956 288.577 52.2056 288.142 52.0774L287.816 50.9421C287.816 50.9421 291.245 46.5223 291.082 45.9547C290.652 45.9697 290.08 45.9897 289.921 45.5652C290.484 45.2588 290.607 44.6812 291.18 44.6612L291.609 44.6462C292.551 42.8933 293.868 39.5506 294.82 38.084L294.647 37.23L295.506 37.2L295.491 36.7705C295.461 35.9116 296.468 36.0197 296.74 35.5802L296.388 33.7291C298.179 31.6599 299.235 29.043 301.021 26.8306C300.858 26.2629 297.904 23.786 297.045 23.816L295.9 23.856C294.883 23.4615 294.552 22.1831 293.836 22.2081C293.406 22.2231 293.278 22.6575 293.308 23.5165L293.323 23.946C293.343 24.5187 293.2 24.5237 293.215 24.9531L293.225 25.2395C292.529 25.8371 290.58 27.4819 290.027 28.0745L289.025 28.1095C288.749 28.4058 288.764 28.8353 288.769 28.9785C288.794 29.6943 289.525 30.0988 289.856 31.3772C289.763 32.8138 288.228 34.0141 287.271 35.3375L287.607 36.7592C287.78 37.6131 285.598 36.686 286.236 38.5271C286.72 40.0869 284.316 41.0308 284.663 42.7388C284.663 42.7388 284.954 42.8719 285.107 43.1532C284.841 43.7359 283.178 45.3707 283.178 45.3707C283.875 48.9297 280.441 53.2063 280.486 54.4948L280.501 54.9243C280.516 55.3538 280.102 55.7983 280.408 56.3609C280.561 56.6422 280.576 57.0717 280.868 57.2049L280.152 57.2299C278.72 57.2799 278.244 64.1766 278.081 63.6089C277.81 64.0484 277.529 64.2016 277.109 64.5029L276.68 64.5179C276.843 65.0856 277.144 65.505 277.445 65.9245C276.76 66.8085 276.671 68.3883 276.578 69.8249C277.083 71.9573 274.506 72.0473 274.576 74.0515L273.717 74.0815C273.722 74.2247 274.023 74.6442 274.176 74.9255C274.789 76.0508 273.096 76.8266 273.121 77.5424C273.126 77.6856 273.412 77.6756 273.709 77.9519L274.138 77.9369C273.721 82.3949 271.242 81.1914 271.588 82.8994L271.934 84.6073C272.093 85.0318 268.915 88.4395 268.076 89.0421L267.79 89.0521C267.375 89.4966 267.36 89.0671 267.272 90.6469C267.993 90.765 268.724 91.1695 268.754 92.0285L268.769 92.458C268.492 92.7543 268.063 92.7693 267.776 92.7793C266.058 92.8393 264.454 92.0353 263.881 92.0553C263.595 92.0653 263.6 92.2085 263.6 92.2085C263.743 92.2035 264.039 92.4798 264.044 92.623C264.054 92.9093 263.916 93.0574 263.773 93.0624C263.768 92.9193 263.328 92.648 262.899 92.663C262.756 92.668 262.623 92.9593 262.628 93.1024L261.769 93.1324C260.066 93.6219 256.788 94.1664 255.698 95.7811L255.856 96.2056C252.563 96.3206 253.043 97.7372 251.468 97.7922C251.038 97.8072 250.787 98.8193 250.807 99.392C250.837 100.251 252.535 99.6183 253.251 99.5933C254.145 100.565 254.866 100.684 255.745 101.226C255.903 101.651 256.046 101.646 256.332 101.636C256.762 101.621 257.186 101.463 257.176 101.176C257.191 101.606 257.201 101.892 257.349 102.03L257.922 102.01C257.789 102.302 257.794 102.445 257.794 102.445C258.12 103.58 261.365 106.19 263.537 106.831L263.967 106.816C264.969 106.781 265.571 107.62 265.749 108.617C265.463 108.627 264.063 113.693 264.068 113.836L264.083 114.265C264.098 114.695 263.965 114.986 263.98 115.416L263.995 115.845C263.422 115.865 263.284 116.013 263.294 116.3C263.309 116.729 263.897 117.139 263.912 117.568C263.917 117.711 263.927 117.997 263.789 118.146L263.216 118.166C262.372 118.625 262.254 119.346 262.289 120.348C262.299 120.634 262.615 121.483 262.758 121.478L263.045 121.468L263.223 122.465C261.545 123.671 259.518 127.182 260.155 129.023C260.313 129.447 260.497 130.588 260.926 130.573C261.099 131.426 261.119 131.999 260.418 132.454C259.984 132.325 259.544 132.054 259.401 132.059C259.115 132.069 259.125 132.355 259.14 132.785C259.145 132.928 259.298 133.209 259.733 133.338C259.614 134.058 258.825 136.093 258.313 137.831L258.17 137.836C256.828 140.462 256.192 142.778 256.983 144.9C257.141 145.325 257.166 146.041 257.611 146.455C257.626 146.885 255.696 149.102 255.929 151.674C256.359 151.659 256.66 152.079 257.095 152.207C257.248 152.488 254.911 159.45 255.084 160.304C255.589 162.436 256.867 162.105 256.882 162.534C256.907 163.25 255.752 163.004 256.068 163.853C256.226 164.277 259.91 167.159 261.056 167.119L261.485 167.104C262.992 169.201 266.106 168.089 267.153 169.342C268.284 168.873 271.946 167.025 271.268 164.039L271.984 164.014C271.801 162.873 272.487 161.989 273.346 161.959L273.775 161.944C273.429 160.236 273.981 159.644 273.956 158.928L273.951 158.785C277.41 155.224 279.157 151.866 279.152 151.723C279.137 151.294 278.139 151.472 278.119 150.899C278.376 150.03 279.15 147.566 279.866 147.541L280.295 147.526L280.117 146.529C280.635 144.935 282.278 142.727 281.487 140.605C281.329 140.18 281.314 139.751 281.012 139.331C280.997 138.902 281.135 138.754 281.417 138.6C281.861 139.015 282.715 138.842 282.389 137.706C282.226 137.139 280.927 136.898 280.922 136.754C280.912 136.468 283.213 136.674 282.58 134.976L282.422 134.552C282.126 134.276 282.121 134.132 281.968 133.851C281.513 133.15 282.648 132.824 282.767 132.103L282.752 131.674C282.747 131.531 282.307 131.259 282.302 131.116C282.287 130.687 282.415 130.252 282.687 129.813L281.886 127.404C281.723 126.836 282.127 126.105 282.097 125.246C282.092 125.103 281.633 124.259 281.203 124.274L281.06 124.279C281.474 123.835 281.563 122.255 281.226 120.833C280.88 119.126 279.961 117.438 279.358 116.599L278.786 116.619L278.618 115.908C278.444 115.054 278 114.639 277.397 113.8L276.888 111.525C276.705 110.384 273.194 108.357 272.764 108.372L272.335 108.387C272.157 107.39 271.228 105.416 269.608 104.182C270.748 103.999 271.562 102.681 271.522 101.535C271.517 101.392 271.073 100.978 270.776 100.701L270.756 100.129C270.731 99.4129 270.726 99.2697 270.568 98.8452L270.41 98.4208L270.84 98.4058C271.985 98.3658 273.711 94.4354 274.145 94.5636C274.125 93.9909 274.555 93.9759 274.397 93.5515C274.969 93.5315 275.128 93.9559 275.557 93.941C275.216 92.3762 277.235 92.7357 278.074 92.133C278.652 92.2562 279.649 92.078 280.365 92.053C281.224 92.023 282.457 90.4033 283.316 90.3733C285.448 89.8688 288.819 87.8877 288.819 87.8877C289.535 87.8627 289.693 88.2872 290.123 88.2722C291.411 88.2272 291.949 87.2051 292.215 86.6225ZM293.725 84.7064C293.167 85.1559 293.187 85.7285 293.489 86.148C293.775 86.138 293.918 86.133 294.219 86.5525C296.184 85.3372 297.763 85.4254 299.575 83.9287L298.987 83.5193C296.84 83.5943 294.998 84.2319 293.725 84.7064ZM268.629 100.776C267.913 100.801 267.222 101.542 267.371 101.68C267.667 101.957 267.968 102.376 268.27 102.796C268.428 103.22 268.146 103.373 268.003 103.378L267.712 103.245C267.574 103.393 267.154 103.695 266.725 103.71C265.866 103.74 265.826 102.594 264.108 102.654C263.106 102.689 261.546 103.174 260.544 103.209C259.685 103.239 258.954 102.834 258.781 101.98C258.603 100.983 258.726 100.405 259.866 100.222L262.142 99.7129C263.84 99.0802 265.083 97.7468 267.517 97.6618C268.09 97.6418 269.333 96.3083 270.059 96.5697C270.222 97.1373 269.413 98.5989 269.438 99.3147L269.443 99.4579C269.468 100.174 269.631 100.741 268.772 100.771L268.629 100.776ZM271.32 112.149C272.224 113.408 273.261 114.375 274.717 115.041C274.589 115.475 274.747 115.9 274.905 116.324C275.538 118.022 276.876 119.409 277.203 120.544C277.366 121.112 277.381 121.541 277.11 121.981C277.697 122.39 277.707 122.676 277.865 123.101C277.712 122.82 277.797 125.253 277.255 126.132C277.97 126.107 277.985 126.537 278.563 126.66L278.993 126.645C279.136 126.64 279.432 126.916 279.437 127.059C279.462 127.775 278.72 135.255 277.59 135.724C278.592 135.689 278.775 136.829 279.106 138.108C275.957 138.218 278.865 139.406 277.36 141.465L277.365 141.609C277.375 141.895 277.39 142.324 277.109 142.478L277.267 142.902C277.583 143.751 276.576 143.643 276.739 144.211L277.081 145.775L276.651 145.79L276.666 146.22C276.671 146.363 274.194 149.316 274.342 149.454C274.342 149.454 274.352 149.741 274.495 149.736C274.659 150.303 273.37 150.348 273.385 150.778C273.395 151.064 274.274 151.607 274.304 152.466L274.319 152.895L272.887 152.945C270.968 155.449 269.77 158.071 267.697 160.293L266.838 160.323C264.834 160.393 263.407 160.586 262.129 160.918L261.941 159.634C261.773 158.923 261.328 158.509 260.899 158.524L260.884 158.094C261.313 158.079 262.295 157.472 262.142 157.19L261.52 155.779C261.366 155.498 261.796 155.483 261.791 155.339L261.781 155.053C261.776 154.91 261.766 154.624 262.047 154.47C261.465 154.204 261.173 154.071 261.005 153.36C262.58 153.305 261.216 151.203 262.055 150.6L261.611 150.186C262.312 149.731 262.43 149.01 262.257 148.156L262.686 148.141C262.656 147.282 263.036 145.836 263.006 144.977C262.996 144.69 262.991 144.547 262.694 144.271L262.363 142.993C262.506 142.988 262.788 142.834 262.778 142.548L262.773 142.405C263.202 142.39 263.192 142.104 263.617 141.945C263.463 141.664 263.019 141.25 263.014 141.106C262.974 139.961 263.798 138.929 263.63 138.218C263.467 137.651 261.992 140.569 261.942 139.137C261.927 138.708 261.615 138.002 262.045 137.987L263.477 137.937C263.56 136.214 263.5 134.496 264.457 133.173L264.012 132.758C263.849 132.19 264.841 131.869 264.826 131.44C264.821 131.296 264.234 130.887 264.224 130.601C264.219 130.458 264.209 130.171 264.49 130.018L264.189 129.599C265.477 129.554 265.304 128.7 265.259 127.411C265.249 127.125 264.805 126.71 264.646 126.286C263.228 122.609 267.819 122.735 266.81 118.47L266.474 117.049L266.903 117.034C267.022 116.313 268.034 116.564 268.305 116.125L267.964 114.56C267.612 112.709 268.155 111.83 268.673 110.235C269.961 110.19 270.564 111.029 271.161 111.725L271.32 112.149ZM276.25 142.508C275.677 142.528 275.662 142.098 275.228 141.97C275.248 142.543 274.818 142.558 274.69 142.992C275.406 142.967 275.564 143.392 275.993 143.377C275.835 142.952 276.26 142.794 276.25 142.508ZM363.408 77.1129C362.054 75.2968 359.382 72.6667 357.664 72.7267L356.81 72.8999C355.951 72.9299 356.331 71.4833 355.472 71.5133L355.042 71.5282L355.067 72.2441L354.638 72.2591C354.583 70.6843 352.762 71.8946 352.431 70.6161C349.424 70.7211 347.462 76.0931 343.024 76.248L342.767 77.117C342.772 77.2602 342.807 78.2623 342.664 78.2673L342.378 78.2773C340.517 78.3423 331.468 90.1251 331.099 91.8581L330.383 91.8831C330.23 91.6017 330.225 91.4586 329.938 91.4686C329.509 91.4836 329.446 93.7791 329.031 94.2236L329.046 94.6531C327.911 94.9794 327.961 96.411 327.107 96.5842C327.408 97.0037 327.566 97.4282 327.581 97.8576C327.646 99.7188 326.714 101.758 326.779 103.619C326.824 104.908 327.002 105.905 327.891 106.734L327.981 109.311C328.431 109.868 328.476 111.157 329.631 111.403L329.671 112.548C330.56 113.377 333.765 114.842 333.335 114.857C333.621 114.847 333.612 114.561 333.755 114.556C335.563 117.073 337.76 118.429 340.337 118.339C341.053 118.314 341.62 118.151 342.306 117.267L342.736 117.252C343.313 117.375 343.743 117.36 344.459 117.335C348.467 117.195 352.222 113.911 355.051 112.809L355.48 112.794C355.928 109.195 363.519 104.916 363.384 101.051L362.954 101.066C362.381 101.086 359.628 104.335 357.767 104.4C357.338 104.415 357.046 104.282 356.607 104.011C356.622 104.44 356.489 104.732 356.059 104.747L355.763 104.47C355.788 105.186 355.363 105.344 354.934 105.359C354.361 105.379 353.399 106.56 352.97 106.575L352.683 106.585L352.703 107.157C353.133 107.142 353.429 107.419 353.434 107.562C353.449 107.991 352.472 108.742 351.183 108.787C350.611 108.807 350.325 108.817 350.176 108.679C350.596 108.378 351.035 108.649 350.719 107.8L348.167 108.606C347.778 109.766 346.05 109.54 346.07 110.112C346.095 110.828 346.396 111.248 346.401 111.391C346.401 111.391 346.411 111.677 346.125 111.687C345.972 111.406 345.972 111.406 345.542 111.421L344.254 111.466C343.824 111.481 343.395 111.496 343.078 110.647C343.789 110.479 345.088 110.72 345.196 109.713L344.628 109.876C341.647 110.697 339.884 109.468 337.593 109.548C337.164 109.563 336.724 109.292 336.295 109.307C336.305 109.593 336.023 109.746 335.865 109.322C335.865 109.322 335.574 109.189 335.564 108.902C334.354 107.081 332.369 107.724 332.329 106.579C332.319 106.292 332.601 106.139 332.591 105.853C332.586 105.71 332.284 105.29 332.274 105.004C332.224 103.572 331.627 102.876 333.147 101.247L334.39 99.9133C334.779 98.753 335.905 98.1403 335.845 96.4224L335.415 96.4374L335.4 96.0079C335.37 95.149 335.913 94.27 335.883 93.411C335.873 93.1247 335.858 92.6952 335.705 92.4139C335.72 92.8434 335.443 93.1397 335.014 93.1547C334.871 93.1597 334.861 92.8734 334.575 92.8834L334.68 95.8898C333.692 96.3542 333.283 96.9419 332.138 96.9819L331.708 96.9969L331.673 95.9947C331.678 96.1379 332.118 96.4092 332.404 96.3992C333.263 96.3692 334.24 95.6184 334.22 95.0458C334.205 94.6163 334.052 94.335 333.761 94.2018C333.652 95.2089 332.803 95.5253 331.658 95.5653C332.487 94.6763 333.632 94.6363 333.602 93.7773C333.592 93.491 333.286 92.9284 333.128 92.5039C333.572 92.9184 333.716 92.9134 334.002 92.9034C334.861 92.8734 334.939 91.0073 336.217 90.676L336.277 92.3939C337.852 92.3389 337.945 90.9023 339.224 90.571C339.036 89.2875 338.142 88.3154 338.122 87.7427C338.122 87.7427 338.511 86.5825 339.37 86.5525C340.229 86.5225 339.855 88.1122 340.719 88.2254C341.276 87.7759 341.558 87.6228 341.543 87.1933C341.528 86.7638 340.367 86.3743 340.352 85.9448C340.342 85.6585 340.342 85.6585 340.624 85.5053C341.068 85.9198 341.498 85.9048 341.927 85.8898C343.645 85.8298 344.552 83.0748 345.652 81.7463C345.672 82.319 346.102 82.304 346.27 83.0148L346.7 82.9998C347.549 82.6835 347.37 81.6863 348.373 81.6513L348.802 81.6363L348.792 81.35C348.757 80.3479 350.49 80.7174 351.324 79.9716L351.753 79.9566C353.328 79.9016 355.352 80.4043 355.752 79.5303L355.727 78.8145L356.443 78.7895C357.302 78.7595 357.425 78.1818 358.284 78.1518L359 78.1268L359.02 78.6995C359.045 79.4153 359.474 79.4003 360.047 79.3803L362.624 79.2903C363.038 78.8458 363.739 78.3914 363.709 77.5324C363.709 77.5324 363.699 77.2461 363.398 76.8266L363.408 77.1129ZM336.767 94.0968C337.591 93.0647 339.156 92.7234 339.249 91.2868C338.267 91.8944 336.993 92.3689 336.767 94.0968ZM346.461 113.109C346.456 112.965 346.446 112.679 346.145 112.26C346.86 112.235 346.599 112.96 346.9 113.38C347.759 113.35 347.878 112.629 348.737 112.599C348.797 114.317 347.528 114.935 346.096 114.985C345.667 115 344.946 114.882 344.793 114.6C344.901 113.593 346.506 114.397 346.461 113.109ZM410.867 118.6L411.297 118.585C408.946 116.947 407 114.578 406.317 111.448C404.246 105.501 407.289 98.2276 408.048 95.3344C408.289 94.0359 407.129 93.6464 407.38 92.6343L409.197 91.2809C408.144 89.8842 408.76 86.996 409.288 85.6876C410.738 82.0536 413.046 78.3895 414.057 74.4842C414.436 73.0376 412.826 72.0904 413.068 70.792C409.981 68.6064 407.296 69.7035 404.418 69.374C404.275 69.379 404.28 69.5222 404.142 69.6703C404.754 70.7956 404.458 70.5193 405.337 71.0619C405.008 73.9402 399.13 78.0155 397.196 80.0897C396.643 80.6824 397.132 82.3853 396.432 82.8398C395.603 83.7288 394.033 83.9269 393.352 84.954C392.799 85.5467 393.131 86.8251 392.583 87.5609C392.159 87.7191 391.734 87.8773 391.315 88.1786C390.096 90.2278 388.586 92.1439 387.373 94.3363C384.466 97.3045 378.51 103.246 377.209 107.018L376.35 107.048C376.536 104.175 377.527 99.6969 379.036 97.7808C378.137 96.6656 379.164 97.3464 377.999 96.8137C378.705 96.5024 378.137 96.6656 379.288 96.7687L380.846 92.1276C381.541 91.5299 380.841 91.9844 380.243 91.2886C380.662 90.9873 380.806 90.9823 381.803 90.8041C381.615 89.5207 381.921 90.0833 381.466 89.3825C381.466 89.3825 381.12 87.6746 381.723 88.5135C382.014 88.6467 382.157 88.6417 382.305 88.7799C382.527 86.9088 382.027 84.9195 383.695 83.4279C382.796 82.3126 383.093 82.5889 382.209 81.9031C383.299 80.2884 385.155 80.0802 385.361 77.7796C385.203 77.3551 385.494 77.4883 384.774 77.3701C384.615 76.9457 384.606 76.6593 384.596 76.373C385.613 76.7675 385.326 76.7775 386.062 77.3251C386.303 76.0267 386.303 76.0267 387.142 75.424C386.555 75.0146 386.555 75.0146 385.548 74.9064C385.784 73.4648 385.671 74.3288 387.107 74.4219C386.643 73.4348 386.658 73.8643 386.06 73.1685L386.49 73.1535C386.746 72.2845 386.633 73.1485 387.507 73.548C387.156 71.6969 387.186 72.5558 386.262 70.7247C388.088 69.6576 388.64 69.065 390.18 68.0078C390.165 67.5784 390.155 67.292 390.002 67.0107C389.726 67.307 389.593 67.5984 389.321 68.0378L388.462 68.0678C388.772 64.617 391.125 62.2414 391.593 59.215C392.748 59.4613 392.319 59.4763 393.198 60.019C393.178 59.4463 393.311 59.155 393.434 58.5774C394.13 57.9797 393.143 58.4442 392.545 57.7484C393.917 55.9805 399.01 41.7557 398.249 40.4923C399.078 39.6033 400.648 39.4051 400.89 38.1067L400.217 35.2634C401.214 35.0853 402.058 34.6258 403.193 34.2995C405.256 31.7908 404.776 30.3742 404.608 29.6633C406.133 28.1767 406.384 27.1646 407.904 25.5348C408.318 25.0904 408.11 23.2343 408.959 22.918C408.47 21.215 408.628 21.6395 407.99 19.7984C407.842 19.6602 407.699 19.6652 407.546 19.3839C406.539 19.2757 405.675 19.1626 404.663 18.9113C404.509 18.6299 404.346 18.0623 404.188 17.6378L401.152 16.8838C399.86 20.9423 398.011 25.4503 396.704 29.0794C395.865 29.682 395.121 33.0047 394.712 33.5923C393.543 37.0732 393.455 38.653 392.287 42.1338C391.591 42.7315 391.038 43.3241 390.491 44.0599C389.036 47.5508 389.6 51.4011 386.383 53.6635C387.292 55.0652 386.556 54.5175 387.706 54.6207C387.628 56.4868 387.296 55.2083 386.181 56.1073C387.06 56.6499 386.942 57.3707 386.676 57.9534C386.419 58.8223 386.389 57.9634 385.515 57.5639C385.309 59.8645 380.028 72.8058 379.884 72.8108C380.487 73.6498 380.191 73.3734 380.635 73.7879L380.65 74.2174L379.362 74.2624L380.014 76.533L378.583 76.583C378.989 80.0089 376.156 80.9678 376.66 83.1002L375.229 83.1502C375.565 84.5718 375.13 84.4437 375.723 84.9963C375.215 86.8774 373.819 87.9295 372.749 90.1169C373.494 90.9509 373.431 93.2465 373.288 93.2515L371.856 93.3015C371.595 94.0273 373.082 95.5521 372.406 96.7224C371.986 97.0237 370.881 98.209 370.758 98.7866L371.421 101.344L370.418 101.379C370.014 102.109 370.217 103.822 370.87 106.093L369.438 106.143C369.498 107.861 369.741 110.719 369.342 111.593C371.886 114.658 372.646 115.921 376.685 116.64C377.124 116.911 376.833 116.778 377.702 117.034C378.544 112.418 385.472 105.583 385.234 102.868C385.47 101.426 385.659 102.71 386.206 101.974C387.46 100.927 387.045 101.371 386.699 99.6633C387.982 99.4751 387.266 99.5001 388.417 99.6033C391.944 93.89 400.196 88.0118 403.371 80.4474L404.23 80.4174L403.052 83.612L403.112 85.3299L401.597 87.1028L400.926 88.4163L401.308 91.1263L400.898 91.714L399.956 93.4669L399.873 95.1898L399.089 97.3673L398.848 98.6657L398.626 100.537L399.842 102.501L398.593 103.691L398.806 105.691L400.001 107.082L399.489 108.82L400.98 110.488L402.043 112.171L403.386 113.701L404.883 115.512L404.631 116.524L407.381 117.288L409.885 119.207L410.867 118.6ZM386.518 57.5289C386.058 56.6849 386.359 57.1044 385.91 56.5468C385.925 56.9762 385.93 57.1194 386.088 57.5439L386.518 57.5289ZM390.575 66.9907C389.977 66.2949 390.273 66.5712 389.829 66.1568C389.834 66.2999 389.992 66.7244 390.002 67.0107L390.575 66.9907ZM373.946 107.992C373.65 107.716 373.64 107.429 373.63 107.143L374.489 107.113C374.642 107.394 374.652 107.681 374.948 107.957L373.946 107.992ZM460.426 72.4349L460.831 71.7041C460.657 70.8502 460.474 69.7099 460.148 68.5746C460.113 67.5724 459.239 67.173 458.237 67.208L457.521 67.2329L457.506 66.8035C456.069 66.7103 455.773 66.434 453.902 66.2126C454.228 67.3479 453.696 68.5132 453.706 68.7995L452.517 71.7078C452.384 71.9991 452.532 72.1372 452.251 72.2904L451.57 73.3175L451.141 73.3325C450.425 73.3575 450.113 72.6517 449.521 72.0991L449.358 71.5314C449.046 70.8256 448.335 70.9938 448.172 70.4261L447.027 70.4661C446.603 70.6243 446.904 71.0438 446.618 71.0538L445.492 71.6664C445.349 71.6714 445.65 72.0909 445.512 72.239C445.211 71.8196 444.485 71.5582 444.199 71.5682L444.056 71.5732L442.205 71.9245L442.363 72.349C442.244 73.0698 441.84 73.8006 441.421 74.102L439.288 74.6064C437.284 74.6764 433.49 80.9723 433.89 80.0984C431.911 80.8842 425.186 89.4325 425.236 90.8641C423.518 90.9241 423.558 92.0694 422.734 93.1015C423.163 93.0865 423.454 93.2197 423.469 93.6492C422.073 94.7013 422.824 95.6784 422.706 96.3992C420.297 97.2 418.857 101.12 418.942 103.554C418.952 103.84 418.962 104.127 419.258 104.403C418.399 104.433 418.138 105.159 418.158 105.732C418.203 107.02 419.403 108.555 421.141 109.067L421.156 109.497C420.875 109.65 420.732 109.655 420.88 109.793C421.339 110.637 423.665 111.559 423.235 111.574L423.665 111.559L423.705 112.705C424.845 112.521 424.094 111.544 424.943 111.228C425.373 111.213 425.403 112.072 425.832 112.057L426.978 112.017C426.983 112.16 427.279 112.436 427.708 112.421C431.287 112.296 429.223 110.649 430.497 110.174C430.512 110.604 430.808 110.88 430.951 110.875C431.237 110.865 431.232 110.722 431.217 110.292L431.202 109.863L431.913 109.695C432.481 109.531 434.114 107.038 434.129 107.467C434.114 107.038 433.971 107.043 433.669 106.623C434.37 106.169 436.399 106.815 435.925 105.541L435.772 105.26L436.616 104.8C436.606 104.514 437.02 104.069 437.005 103.64L436.99 103.211L437.42 103.196L438.623 100.717L439.063 100.988C439.206 100.983 439.206 100.983 439.201 100.84C439.206 100.983 439.354 101.121 439.354 101.121C439.783 101.106 440.454 99.7928 440.869 99.3483L441.155 99.3383C441.999 98.8789 442.424 98.7207 442.409 98.2912C442.389 97.7186 442.665 97.4223 442.369 97.1459C443.079 96.9778 443.928 96.6614 444.037 95.6543L445.373 92.8843C446.089 92.8593 446.31 90.9882 447.021 90.82L446.352 96.2901C446.658 96.8528 446.392 97.4354 446.422 98.2944C446.339 100.017 446.429 102.594 446.439 102.881C446.464 103.596 446.627 104.164 446.923 104.44C446.499 104.598 446.228 105.038 446.386 105.462C446.855 106.593 447.285 106.578 447.3 107.007C447.305 107.15 446.757 107.886 446.782 108.602C446.812 109.461 447.809 109.283 448.155 110.991C447.869 111.001 448.324 111.702 448.472 111.84C449.657 112.945 449.815 113.369 450.847 114.193L451.721 114.593C452.008 114.583 452.161 114.864 452.166 115.007C452.171 115.151 452.028 115.156 452.033 115.299C452.043 115.585 452.186 115.58 452.472 115.57L452.758 115.56C453.198 115.831 453.351 116.113 454.062 115.945L454.773 115.776C455.202 115.761 455.35 115.9 455.33 115.327L453.849 113.945C453.251 113.25 453.078 112.396 452.347 111.991L451.888 111.147C451.735 110.866 451.305 110.881 451.285 110.308C451.7 109.864 451.69 109.577 451.516 108.723C451.348 108.013 451.313 107.01 451.115 105.441L451.183 103.288C450.862 102.296 451.701 101.693 451.103 100.998C451.098 100.854 451.814 100.829 451.799 100.4L451.779 99.8274C451.922 99.8224 452.332 99.2347 452.317 98.8052C452.302 98.3757 452.005 98.0994 451.862 98.1044C451.862 98.1044 451.729 98.3957 451.443 98.4057C451.013 98.4207 451.003 98.1344 451.003 98.1344C450.998 97.9913 451.275 97.6949 451.265 97.4086L451.26 97.2654C451.679 96.9641 451.807 96.5296 451.777 95.6707L452.054 95.3744C452.039 94.9449 451.466 94.9649 451.461 94.8217C451.456 94.6785 452.172 94.6536 452.152 94.0809L452.147 93.9378C452.863 93.9128 452.699 93.3451 453.119 93.0438L453.968 92.7275C453.958 92.4411 453.677 92.5943 453.247 92.6093L452.818 92.6243C453.227 92.0367 453.473 90.8814 453.883 90.2937C453.868 89.8642 453.868 89.8642 453.438 89.8792C453.423 89.4498 453.26 88.8821 453.685 88.7239L454.114 88.709L454.104 88.4226C454.089 87.9931 454.79 87.5387 454.785 87.3955C454.775 87.1092 454.069 87.4205 454.044 86.7047C454.004 85.5594 455.594 85.9339 455.855 85.2081L455.835 84.6354C455.74 81.9154 458.021 81.5491 457.926 78.829C457.496 78.844 457.19 78.2814 457.175 77.8519L457.16 77.4224L457.59 77.4074C457.595 77.5506 457.738 77.5456 457.738 77.5456C458.024 77.5356 458.305 77.3824 458.444 77.2342L458.26 76.0939C459.549 76.0489 458.798 75.0718 459.652 74.8987L459.341 74.1929L458.911 74.2079C458.625 74.2178 458.195 74.2328 458.18 73.8034C458.896 73.7784 458.881 73.3489 459.009 72.9144L460.426 72.4349ZM447.062 83.7951C446.643 84.0964 446.214 84.1114 446.228 84.5409C446.515 84.5309 446.663 84.6691 446.663 84.6691C446.678 85.0986 444.482 87.8986 444.354 88.3331L444.369 88.7626C444.379 89.0489 444.241 89.1971 443.955 89.2071C443.955 89.2071 443.812 89.2121 443.52 89.0789C443.525 89.2221 443.392 89.5134 443.392 89.5134L442.45 91.2663L442.02 91.2813C441.305 91.3063 441.498 92.7329 440.925 92.7529L440.501 92.9111L440.679 93.9082L439.82 93.9382C440.003 95.0785 440.448 95.493 440.457 95.7793C440.462 95.9225 440.462 95.9225 440.319 95.9275C440.033 95.9375 440.028 95.7943 439.742 95.8043C439.742 95.8043 439.599 95.8093 439.604 95.9525C439.614 96.2388 439.624 96.5251 439.777 96.8064C439.347 96.8214 439.184 96.2538 439.174 95.9675C439.144 95.1085 439.948 93.5037 439.933 93.0742L439.79 93.0792C438.931 93.1092 439.277 94.8172 437.574 95.3066L437.589 95.7361C437.599 96.0224 437.604 96.1656 437.318 96.1756C437.338 96.7483 436.81 98.0567 436.238 98.0767C435.951 98.0867 435.803 97.9485 435.655 97.8104L434.841 99.1288C434.856 99.5583 428.988 103.92 428.302 104.804C427.34 105.984 426.891 105.427 425.904 105.891C425.306 105.195 425.148 104.771 425.123 104.055C425.093 103.196 425.497 102.465 426.183 101.581L426.603 101.28C426.588 100.85 427.012 100.692 426.997 100.263C426.425 100.283 426.4 99.5669 426.375 98.8511L426.804 98.8361C426.646 98.4117 427.065 98.1103 427.633 97.9472C427.188 97.5327 426.34 97.849 426.033 97.2864C424.823 95.4653 424.971 95.6034 424.773 94.0336C425.499 94.295 425.647 94.4331 425.662 94.8626C425.672 95.1489 426.98 95.6766 426.985 95.8197C426.99 95.9629 427.144 96.2442 427.563 95.9429C427.849 95.9329 427.967 95.2121 427.967 95.2121L429.839 95.4334C429.937 94.14 429.862 91.9926 432.276 91.3349L432.562 91.3249C433.564 91.2899 432.226 89.9033 433.514 89.8583C435.556 86.777 438.038 83.9669 440.136 82.4603L440.116 81.8877L440.545 81.8727C441.547 81.8377 441.369 80.8405 441.641 80.4011L441.927 80.3911C442.929 80.3561 442.751 79.3589 444.039 79.3139L444.326 79.3039C445.471 79.2639 444.705 77.8573 445.994 77.8123L446.423 77.7973L448.219 75.8713L449.478 74.9673C450.347 75.2236 450.658 75.9294 450.668 76.2157C450.823 80.6537 446.204 83.8251 447.062 83.7951ZM445.826 89.4284C445.54 89.4384 445.386 89.1571 445.371 88.7276C445.356 88.2981 445.49 88.0068 445.914 87.8486C446.2 87.8386 446.343 87.8336 446.353 88.1199C446.368 88.5494 445.954 88.9939 445.969 89.4234L445.826 89.4284ZM438.751 100.282C438.895 100.277 438.905 100.564 439.058 100.845C438.905 100.564 438.608 100.287 438.751 100.282ZM474.492 109.928C478.099 106.505 480.122 102.851 483.131 98.7325C490.03 91.0382 497.95 83.8815 502.499 78.7058C504.142 76.4984 505.021 77.0411 504.275 76.2071L504.705 76.1921C505.099 75.175 504.853 76.3303 505.579 76.5916C505.825 75.4363 505.712 76.3003 505.385 75.165C507.483 73.6584 509.912 73.4302 512.009 71.9236C512.848 71.321 512.986 71.1728 513.79 69.5681C514.536 70.402 514.95 69.9575 516.066 69.0586C516.041 68.3428 516.767 68.6041 516.742 67.8883C515.305 67.7951 515.157 67.657 514.456 68.1115C512.324 68.6159 506.767 73.6834 504.541 75.6245C496.34 82.9343 488.4 89.5184 480.411 98.8275C479.336 100.872 478.359 101.623 475.606 104.872C475.181 105.03 474.43 104.053 473.863 104.216C473.786 97.9122 477.594 92.0457 479.424 86.9651C480.213 84.9309 479.718 83.0848 480.359 80.9123C480.877 79.3176 482.673 77.3915 483.185 75.6536C486.887 62.6241 493.385 43.4768 498.149 32.1303C500.601 28.4612 502.865 23.5088 503.737 19.7516C503.376 17.6142 504.777 16.7052 503.597 15.7431C501.37 13.5275 499.918 13.0048 498.501 13.4843C497.929 13.5043 497.361 13.6675 496.932 13.6825C495.753 16.877 494.615 21.2168 493.313 24.989L491.532 27.3446C491.286 28.4999 492.584 28.7412 492.461 29.3188C491.792 34.789 488.413 40.6404 487.018 45.8492C486.121 48.8906 484.588 54.2475 483.686 57.1458C482.512 60.4835 481.339 63.8212 480.304 67.0107C480.364 68.7286 479.208 68.4823 479.248 69.6276L478.572 70.7979C478.864 70.931 478.864 70.931 478.874 71.2174C478.909 72.2195 477.231 73.4248 477.251 73.9974L477.266 74.4269C477.306 75.5722 476.236 77.7596 476.251 78.1891L476.256 78.3323C476.142 79.1962 475.308 79.942 475.323 80.3715L475.328 80.5147C475.418 83.0916 473.454 84.3069 473.474 84.8795L473.499 85.5953C473.504 85.7385 473.519 86.168 473.376 86.173C472.926 85.6153 470.24 94.8826 469.524 94.9076C469.381 94.9126 469.391 95.1989 469.396 95.3421L469.037 97.3613C467.74 101.277 466.966 103.74 466.232 107.349C465.749 109.946 465.37 111.393 466.442 113.362C467.79 115.035 469.36 114.837 470.709 116.51C471.563 116.337 472.417 116.164 473.276 116.134C472.934 114.569 473.384 115.127 472.934 114.569C473.166 112.984 472.568 112.288 473.264 111.691C473.693 111.676 474.261 111.512 474.833 111.492L474.492 109.928ZM498.798 26.0875C500.11 22.6016 502.389 18.0786 502.635 16.9234C503.78 16.8834 500.554 23.0161 499.652 25.9143L499.223 25.9293C499.08 25.9343 498.936 25.9393 498.798 26.0875ZM497.463 33.0142C497.034 33.0292 496.431 32.1902 496.411 31.6176C496.396 31.1881 497.69 31.2863 497.655 30.2842L497.64 29.8547C497.62 29.282 497.871 28.2699 498.399 26.9615C498.434 27.9636 499.21 29.6565 498.499 29.8247C497.798 30.2792 497.893 32.9992 497.463 33.0142ZM485.868 45.746L486.4 44.5807L487.184 42.4033L487.278 40.9667L489.951 35.4266L490.439 32.9729L491.243 31.3681L491.464 29.497L490.763 29.9515L489.59 33.2892L489.343 34.4445L488.821 35.8961L486.971 40.4041L486.029 42.157L485.516 43.8949L484.999 45.4897L485.044 46.7782L485.237 48.2048L485.868 45.746ZM484.197 51.2511L484.848 49.3651L484.521 48.2298L483.87 50.1159L483.506 51.992L484.197 51.2511ZM482.219 56.1936L482.056 55.626L481.237 56.8013L481.865 58.356L482.219 56.1936ZM478.664 65.2046L479.779 64.3056L480.726 62.6959L481.229 60.6716L481.88 58.7855L481.435 58.371L481.317 59.0918L480.488 59.9808L480.435 62.5627L479.191 63.8962L478.377 65.2146L478.571 66.6412L478.664 65.2046ZM477.545 70.1171L477.96 69.6726L478.324 67.7965L477.126 70.4184L477.545 70.1171ZM466.741 109.625L467.649 106.87L468.892 105.537L467.832 108.01L467.902 110.015L466.746 109.768L466.741 109.625ZM525.514 56.4018C525.439 54.2543 528.429 49.5632 528.409 48.9906C528.384 48.2747 527.331 46.8781 527.316 46.4487C527.301 46.0192 530.441 45.6229 530.376 43.7618L530.351 43.046C532.245 39.8264 532.924 34.6426 533.916 34.3213C535.589 32.9729 534.181 29.582 536.293 28.5049C536.698 27.774 537.399 27.3196 537.364 26.3175L537.324 25.1722C537.319 25.029 537.309 24.7427 536.864 24.3282C538.118 23.2811 539.859 19.7802 539.834 19.0644C539.829 18.9212 539.814 18.4917 539.656 18.0673L539.641 17.6378C539.601 16.4925 539.709 15.4854 539.679 14.6264C539.634 13.3379 540.483 13.0216 540.453 12.1627C540.418 11.1605 540.373 9.87209 538.911 9.06311L538.472 8.79179C536.709 7.56333 536.566 7.56832 535.712 7.74148C535.282 7.75648 534.996 7.76648 535.001 7.90965C534.571 7.92465 534.428 7.92964 534.438 8.21596L534.586 8.35413C534.157 8.36912 534.167 8.65544 534.167 8.65544C534.172 8.7986 532.74 8.8486 532.77 9.70756C532.775 9.85073 532.089 10.7347 532.099 11.021C532.104 11.1642 531.428 12.3345 531.572 12.3295C531.858 12.3195 532.001 12.3145 532.272 11.875C532.436 12.4426 532.451 12.8721 532.461 13.1584C532.536 15.3059 531.548 15.7703 531.563 16.1998C531.568 16.343 531.583 16.7725 531.737 17.0538C530.734 17.0888 529.127 20.2983 528.501 22.9002C528.383 23.621 528.556 24.475 529 24.8895C529.814 23.571 530.47 21.8281 530.988 20.2333L532.133 20.1933C532.276 20.1883 532.992 20.1633 533.002 20.4497C533.017 20.8791 529.452 29.6038 528.766 30.4878C528.781 30.9172 528.643 31.0654 528.658 31.4949C528.668 31.7812 528.673 31.9244 528.831 32.3489C527.567 33.1097 525.861 37.6126 525.615 38.7679L525.635 39.3406C525.71 41.488 524.308 42.397 524.378 44.4012L524.398 44.9739C523.697 45.4283 523.135 45.7347 523.165 46.5936L523.328 47.1613C523.21 47.8821 521.217 52.3951 519.712 54.4543C518.884 55.3433 513.815 70.2839 513.86 71.5723L513.885 72.2881C513.89 72.4313 513.9 72.7176 513.757 72.7226C513.041 72.7476 510.355 82.0149 509.905 81.4573C509.762 81.4623 509.777 81.8917 509.782 82.0349L509.807 82.7507C509.827 83.3234 507.863 84.5386 507.953 87.1155L507.958 87.2587C507.973 87.6882 507.139 88.434 507.026 89.2979L507.031 89.4411C507.046 89.8706 505.975 92.058 506.015 93.2033L506.03 93.6328C506.05 94.2054 504.372 95.4107 504.407 96.4128C504.417 96.6992 504.417 96.6992 504.709 96.8323L504.882 97.6863C504.922 98.8316 503.89 98.0076 503.95 99.7255L504 101.157C504.015 101.587 504.03 102.016 503.743 102.026C503.788 103.315 504.278 105.018 504.293 105.447C503.291 105.482 503.019 105.921 502.901 106.642L503.079 107.639C502.675 108.37 500.844 109.294 500.864 109.867L501.506 111.851C501.378 112.286 499.675 112.775 499.695 113.348C499.695 113.348 501.039 114.877 502.332 114.976C503.191 114.946 508.715 113.033 508.65 111.172L508.64 110.885C509.069 110.87 509.479 110.283 509.464 109.853L509.31 109.572C509.28 108.713 509.66 107.266 509.62 106.121C509.56 104.403 508.741 105.578 508.281 104.734C509.14 104.704 509.56 104.403 509.53 103.544L509.515 103.115C511.361 102.62 511.551 95.7334 512.409 95.7034C513.11 95.2489 513.238 94.8144 513.223 94.3849L513.193 93.526C513.178 93.0965 513.163 92.667 513.578 92.2225C513.573 92.0794 513.42 91.7981 513.42 91.7981L513.098 90.8059C513.784 89.922 514.618 89.1762 514.726 88.169C514.686 87.0237 515.647 81.6868 516.905 80.7828C516.604 80.3633 516.589 79.9338 516.579 79.6475C516.579 79.6475 519.88 75.6622 519.805 73.5148L519.642 72.9471C519.612 72.0881 521.33 72.0282 521.872 71.1492C522.005 70.8579 520.559 70.4784 520.529 69.6194C521.245 69.5944 521.999 66.558 521.999 66.558C521.707 66.4249 521.697 66.1386 521.692 65.9954C521.979 65.9854 522.122 65.9804 522.112 65.6941L522.107 65.5509C524.44 62.6027 524.519 60.7366 525.514 56.4018ZM528.018 25.4971C527.589 25.5121 527.287 25.0926 526.853 24.9645C526.873 25.5371 526.73 25.5421 526.458 25.9816C527.174 25.9566 527.332 26.3811 527.762 26.3661L527.757 26.2229C527.747 25.9366 528.033 25.9266 528.018 25.4971ZM523.562 41.563C523.932 39.8301 526.299 33.7273 526.224 31.5799L526.209 31.1504C526.174 30.1483 527.467 30.2464 527.452 29.8169C527.432 29.2443 526.83 28.4053 526.4 28.4203C525.971 28.4353 526.066 31.1554 525.365 31.6099C524.373 31.9312 526.502 35.4402 524.641 35.5052L524.211 35.5202C523.309 38.4184 522.417 41.603 523.562 41.563ZM570.058 92.4002C563.593 96.0661 566.225 97.5508 562.093 98.2685C558.687 99.2474 554.932 102.532 550.953 103.531C549.236 103.591 547.671 103.932 546.699 104.826L536.964 105.166C534.801 104.812 534.144 102.398 534.079 100.537C533.954 96.9578 535.27 93.615 535.16 90.4655C535.13 89.6065 534.957 88.7526 534.927 87.8936C534.897 87.0346 536.211 87.7054 536.171 86.5602C536.166 86.417 535.864 85.9975 535.854 85.7112C535.839 85.2817 536.126 85.2717 536.269 85.2667C537.987 85.2067 540.609 86.4052 542.766 86.6165C542.628 86.7647 542.628 86.7647 542.638 87.051C542.653 87.4805 543.231 87.6036 544.089 87.5736C546.666 87.4837 545.318 85.8107 546.893 85.7557C547.475 86.0221 547.777 86.4415 548.636 86.4115L549.495 86.3815C551.356 86.3166 557.573 79.6493 557.573 79.6493C557.558 79.2198 557.267 79.0867 557.252 78.6572L557.681 78.6422C558.826 78.6022 559.246 78.3009 559.226 77.7282C559.216 77.4419 558.91 76.8793 558.895 76.4498C559.156 75.724 559.724 75.5608 559.679 74.2724C559.965 74.2624 560.118 74.5437 560.404 74.5337C560.404 74.5337 560.548 74.5287 560.538 74.2424C560.103 74.1142 559.945 73.6897 559.644 73.2702C560.349 72.9589 560.488 72.8108 560.473 72.3813C560.418 70.8065 558.27 70.8815 558.24 70.0225C558.21 69.1636 559.499 69.1186 559.464 68.1164C559.384 65.8259 552.713 63.6221 551.711 63.6571C549.564 63.7321 547.441 64.5229 545.753 65.4418L545.768 65.8713C544.658 66.9134 543.251 67.6792 541.553 68.3119L541.124 68.3269C539.979 68.3669 538.296 69.429 537.778 71.0238L537.542 72.4654L536.683 72.4954C536.253 72.5104 535.706 73.2462 535.711 73.3893C535.711 73.3893 535.721 73.6756 535.864 73.6706C535.479 74.9741 531.344 79.7052 531.339 79.5621C531.359 80.1347 532.233 80.5342 532.248 80.9637C532.135 81.8277 531.419 81.8527 531.301 82.5735L531.05 83.5856C530.487 83.8919 530.226 84.6177 529.663 84.924C529.762 83.6306 531 82.154 530.97 81.295C530.96 81.0087 530.812 80.8705 530.372 80.5992C529.297 82.6434 528.458 83.2461 528.518 84.964C528.533 85.3935 528.548 85.823 528.854 86.3856C528.899 87.6741 526.91 88.1736 527.015 91.1799C527.06 92.4684 527.376 93.3174 527.806 93.3024C527.949 93.2974 528.225 93.001 528.635 92.4134C528.349 92.4234 528.205 92.4284 528.19 91.9989C528.175 91.5694 529.177 91.5344 529.132 90.246C529.102 89.387 528.939 88.8194 528.643 88.543C528.929 88.5331 529.083 88.8144 529.083 88.8144C530.657 88.7594 529.856 86.3506 531.145 86.3056C531.431 86.2957 531.446 86.7251 531.456 87.0115C531.501 88.2999 530.248 89.347 530.278 90.206C530.293 90.6355 530.303 90.9218 530.737 91.05L530.752 91.4795L530.036 91.5044C530.111 93.6519 529.297 94.9703 527.881 95.4498C528.014 95.1585 528.295 95.0053 528.28 94.5758C528.27 94.2895 527.979 94.1563 527.396 93.89C527.14 94.759 526.153 95.2235 526.198 96.5119C528.059 96.4469 527.112 98.0567 529.689 97.9667L530.261 97.9467L530.168 99.3833L529.452 99.4083C529.319 99.6996 529.324 99.8428 529.344 100.415C529.484 104.424 535.637 108.222 535.642 108.366C536.072 108.351 536.215 108.346 536.2 107.916C537.109 109.318 541.049 111.33 544.055 111.225C544.771 111.2 545.339 111.037 545.753 110.593L547.328 110.538C549.179 110.186 549.401 108.315 551.548 108.24L552.55 108.205C552.811 107.479 554.178 105.568 554.889 105.4L555.462 105.38C558.468 105.275 556.502 102.334 558.792 102.254C559.222 102.239 559.242 102.811 559.958 102.786C560.96 102.751 562.06 101.423 562.03 100.564L562.01 99.9914C563.253 98.658 566.609 96.2474 567.468 96.2174L567.898 96.2024C569.156 95.2984 570.405 94.1082 571.219 92.7897C571.214 92.6466 570.917 92.3702 570.488 92.3852L570.058 92.4002ZM539.696 76.6902C539.829 76.3989 539.681 76.2607 539.395 76.2707C539.252 76.2757 539.108 76.2807 538.97 76.4289C539.927 75.1054 541.048 74.3496 542.163 73.4507C543.007 72.9912 543.411 72.2604 544.413 72.2254L545.273 72.1954C545.529 71.3264 546.541 71.5778 546.955 71.1333C546.925 70.2743 545.928 70.4525 545.898 69.5935C545.878 69.0209 546.722 68.5614 547.152 68.5464C547.295 68.5414 547.586 68.6745 547.596 68.9609L549.028 68.9109C549.447 68.6096 550.158 68.4414 550.731 68.4214C552.019 68.3764 552.913 69.3485 553.802 70.1775L553.443 72.1968C552.787 73.9397 552.927 77.9482 542.137 80.9051C541.144 81.2264 537.699 81.06 537.97 80.6206L539.696 76.6902ZM540.688 76.3689C540.688 76.3689 540.974 76.3589 541.399 76.2007C541.783 74.8973 542.786 74.8623 543.18 73.8452C543.17 73.5588 543.027 73.5638 542.741 73.5738C541.882 73.6038 540.51 75.3718 540.54 76.2307C540.545 76.3739 540.545 76.3739 540.688 76.3689ZM611.58 78.7667C611.55 77.9078 611.07 76.4911 611.07 76.4911L609.835 73.9542L608.833 73.9892C608.403 74.0042 607.974 74.0192 607.673 73.5997C608.097 73.4416 608.097 73.4416 608.092 73.2984C608.072 72.7258 604.187 72.2881 603.757 72.3031C603.333 72.4613 602.632 72.9157 602.361 73.3552L602.662 73.7747C601.803 73.8047 601.818 74.2342 601.245 74.2542L600.1 74.2942C599.241 74.3242 598.106 74.6505 598.136 75.5095L597.849 75.5195C597.731 76.2403 595.559 75.5995 595.594 76.6016L595.609 77.0311C595.061 77.7669 590.59 81.0764 590.655 82.9375L590.512 82.9425C589.939 82.9625 589.949 83.2488 589.969 83.8215L589.994 84.5373C590.009 84.9667 589.876 85.2581 589.447 85.2731L588.158 85.3181C587.299 85.3481 587.023 85.6444 587.043 86.217C587.053 86.5033 587.053 86.5033 587.211 86.9278C585.923 86.9728 585.978 88.5476 585.405 88.5676L584.975 88.5826L582.785 91.5258C582.257 92.8342 578.577 98.2662 577.007 98.4643L580.864 89.8729C580.809 88.2981 583.966 84.3177 583.886 82.0272C583.876 81.7408 583.59 81.7508 583.59 81.7508C583.861 81.3114 584.972 80.2692 584.982 80.5556L584.972 80.2692C586.087 79.3703 586.964 75.7562 587.201 74.3146C587.329 73.8802 587.457 73.4457 587.432 72.7299C587.141 72.5967 587.116 71.8809 587.106 71.5946C587.036 69.5903 587.558 68.1387 584.349 66.5308C583.869 65.1141 580.828 64.217 577.106 64.347C577.111 64.4901 576.972 64.6383 576.977 64.7815L577.693 64.7565C579.697 64.6865 579.802 67.6929 579.907 70.6992C579.621 70.7092 579.199 75.0241 578.636 75.3304C578.508 75.7649 578.523 76.1944 578.538 76.6239C578.548 76.9102 578.706 77.3347 579.432 77.596C578.623 79.0576 576.783 83.8519 576.783 83.8519L576.798 84.2814C576.818 84.854 576.537 85.0072 576.562 85.723C576.183 87.1696 575.497 88.0536 575.547 89.4852L575.562 89.9147C574.718 90.3742 574.17 91.11 573.771 91.9839L573.796 92.6997C573.831 93.7019 572.977 93.875 572.572 94.6058L572.582 94.8921C572.692 98.0417 569.065 100.892 569.25 106.189L569.255 106.332C568.974 106.485 568.835 106.633 568.845 106.92C568.875 107.778 570.204 108.879 570.93 109.14L570.95 109.713C572.954 109.643 572.465 107.94 573.585 107.184L575.16 107.129C575.446 107.119 574.449 107.297 574.459 107.583L574.479 108.156C574.489 108.442 574.642 108.724 574.78 108.576C576.112 105.662 579.121 101.544 581.169 98.6057L581.741 98.5857C581.998 97.7167 582.264 97.1341 583.118 96.9609L583.977 96.9309L583.794 95.7906L584.366 95.7707C585.6 94.1509 587.569 93.0788 588.22 91.1927L588.778 90.7432C591.146 88.7971 594.018 84.8268 596.361 82.1649C596.618 81.2959 601.508 77.6851 602.214 77.3737L602.644 77.3587C602.629 76.9293 602.629 76.9293 603.058 76.9143L603.45 79.9107C602.048 80.8196 603.338 84.9313 601.833 86.9905L601.913 89.2811C601.963 90.7127 600.419 91.6267 600.464 92.9151C600.494 93.7741 600.81 94.6231 601.254 95.0376C600.425 95.9265 601.618 101.332 601.623 101.475C601.841 103.617 605.082 110.241 605.808 110.502L606.237 110.487C605.738 108.498 605.668 106.494 605.638 105.635L605.623 105.205C605.613 104.919 605.603 104.633 606.032 104.618C606.027 104.474 607.347 97.1182 607.634 97.1082C607.772 96.96 608.887 96.0611 608.877 95.7747C608.877 95.7747 607.998 95.2321 607.983 94.8026C607.978 94.6594 607.973 94.5163 608.249 94.22L608.229 93.6473C609.375 93.6073 609.719 91.1586 610.094 89.5688L610.054 88.4235C610.039 87.994 611.523 85.3621 611.463 83.6442C611.453 83.3579 611.438 82.9284 611.28 82.5039L611.388 81.4968C611.373 81.0673 611.22 80.786 610.889 79.5075L611.318 79.4925C611.318 79.4925 611.59 79.053 611.58 78.7667ZM661.393 117.878C660.549 118.337 659.675 117.938 658.673 117.973C658.244 117.988 657.804 117.717 657.375 117.732L657.36 117.302C657.325 116.3 656.466 116.33 656.436 115.471C656.579 115.466 658.192 112.4 658.177 111.97C658.167 111.684 658.024 111.689 657.589 111.561L657.16 111.576C657.707 110.84 658.546 110.237 658.516 109.378C658.506 109.092 658.348 108.667 657.914 108.539C658.486 108.519 658.906 108.218 659.33 108.06C659.285 106.771 658.826 105.927 658.796 105.068C658.781 104.639 659.052 104.199 659.61 103.75L659.57 102.605C659.525 101.316 659.189 99.8946 659.134 98.3198C658.964 93.4523 657.766 87.904 656.659 84.9326C654.915 80.1201 653.501 76.5861 652.967 73.5947C652.922 72.3063 653.632 72.1381 653.622 71.8518C653.607 71.4223 652.877 71.0178 652.862 70.5883C652.857 70.4452 653.133 70.1489 653.706 70.1289C653.716 70.4152 654.007 70.5483 654.007 70.5483C654.866 70.5183 656.049 67.467 656.449 66.593C656.163 66.603 656.019 66.608 656.004 66.1785L655.989 65.749C657.248 64.8451 659.29 61.7637 659.26 60.9047L659.255 60.7616L658.826 60.7766C658.396 60.7916 658.258 60.9397 657.829 60.9547C657.542 60.9647 657.404 61.1129 657.133 61.5524L656.171 62.7326C655.623 63.4685 655.184 63.1971 653.92 63.9579L653.491 63.9729C653.451 62.8276 652.404 61.5742 649.827 61.6642C649.397 61.6792 646.918 60.4757 646.943 61.1915L646.958 61.621C646.534 61.7792 646.104 61.7942 646.129 62.51L646.134 62.6531L644.417 62.7131C642.985 62.7631 643.904 64.451 643.484 64.7524C643.198 64.7624 642.759 64.491 642.615 64.496C640.182 64.581 637.35 69.6967 634.823 71.2183L634.838 71.6477L634.409 71.6627C633.994 72.1072 633.861 72.3985 633.876 72.828C633.891 73.2575 634.049 73.682 634.054 73.8252C634.064 74.1115 634.064 74.1115 633.921 74.1165C633.635 74.1265 633.205 74.1415 632.618 73.732C631.804 75.0504 631.532 75.4899 631.434 76.7834L631.464 77.6423L630.605 77.6723C629.761 78.1318 627.467 82.2253 627.462 82.0821L625.601 82.1471C624.551 84.9072 621.552 89.312 620.703 89.6283L620.718 90.0578C619.889 90.9468 619.035 91.1199 619.09 92.6947L619.105 93.1242L618.675 93.1392C617.989 94.0232 617.047 95.7761 617.092 97.0645C617.097 97.2077 617.112 97.6372 617.265 97.9185L617.695 97.9035L617.745 99.3351C617.76 99.7646 617.775 100.194 617.345 100.209L616.916 100.224C616.072 100.684 617.001 102.658 616.147 102.831C615.989 102.407 616.112 101.829 615.539 101.849C615.569 102.708 616.014 103.122 616.019 103.265C616.034 103.695 615.614 103.996 615.634 104.569C615.764 108.291 621.887 111.231 621.897 111.517C621.902 111.66 622.485 111.926 622.914 111.912C623.773 111.882 624.193 111.58 624.178 111.151L624.607 111.136C624.617 111.422 624.908 111.555 624.908 111.555L625.051 111.55C625.353 111.97 625.506 112.251 625.935 112.236C626.794 112.206 627.91 111.307 627.885 110.591L628.887 110.556C630.002 109.657 631.625 106.877 631.565 105.159L631.535 104.3C631.51 103.585 631.925 103.14 632.784 103.11L632.769 102.681C634.472 102.191 634.841 100.458 635.798 99.1347C635.369 99.1497 635.221 99.0115 635.211 98.7252C635.196 98.2957 635.595 97.4218 635.733 97.2736L635.703 96.4146L636.133 96.3996C636.839 96.0883 636.962 95.5107 637.233 95.0712L638.58 92.5875C639.788 90.2519 644.169 84.3655 644.702 83.2002C645.802 81.8717 647.785 77.0724 648.787 77.0374C649.216 77.0224 649.276 78.7404 649.608 80.0188L650.037 80.0038C650.042 80.147 649.766 80.4433 649.771 80.5865C649.796 81.3023 650.517 81.4204 650.547 82.2794C650.562 82.7089 650.275 82.7189 650.305 83.5778C650.405 86.4411 651.714 86.9687 651.759 88.2572L651.814 89.8319C651.874 91.5499 652.333 92.3938 652.348 92.8233C652.353 92.9665 652.363 93.2528 652.24 93.8305L652.595 103.995C652.17 104.153 652.185 104.583 652.21 105.298C652.255 106.587 652.745 108.29 652.76 108.719C652.78 109.292 652.36 109.593 652.38 110.166L652.395 110.595C651.961 110.467 651.675 110.477 651.675 110.477C651.531 110.482 652.42 111.311 652.45 112.17L652.465 112.6C652.036 112.615 651.626 113.202 651.636 113.489C651.656 114.061 652.229 114.041 652.53 114.461C651.83 114.915 651.272 115.365 651.312 116.51L650.882 116.525C650.641 117.823 650.257 119.127 648.539 119.187C647.68 119.217 646.806 118.817 646.376 118.832C646.376 118.832 646.233 118.837 646.238 118.98L646.693 119.681L644.975 119.741C644.535 119.47 644.244 119.337 643.814 119.352C643.242 119.372 642.541 119.826 642.126 120.271L641.697 120.286C638.153 121.413 635.255 120.511 632.155 122.052C631.439 122.077 631.454 122.507 630.882 122.527C630.452 122.542 630.018 122.414 629.588 122.429C628.443 122.469 628.033 123.056 627.476 123.506L626.187 123.551C624.667 125.181 621.058 124.447 621.123 126.308L619.835 126.353C618.69 126.393 617.846 126.852 617.431 127.297L616.429 127.332C615.595 128.077 613.438 127.866 613.206 129.451L612.347 129.481C610.506 130.118 607.274 131.951 607.299 132.667L606.44 132.697C606.311 133.132 606.03 133.285 605.887 133.29C605.601 133.3 605.457 133.305 605.166 133.172C604.322 133.631 603.069 134.678 602.936 134.97L602.921 134.54C600.931 135.04 601.011 137.33 600.152 137.36C599.723 137.375 599.575 137.237 598.834 136.546C598.291 137.425 598.015 137.721 598.03 138.151C598.035 138.294 598.05 138.724 598.351 139.143C601.9 138.159 605.128 136.183 607.389 135.244C607.404 135.674 607.68 135.377 607.823 135.372C609.481 133.594 621.668 129.585 622.067 128.711C623.474 127.946 627.596 126.942 627.166 126.957L628.168 126.922C628.598 126.907 629.324 127.168 629.753 127.153C630.183 127.138 630.316 126.847 630.301 126.417L630.286 125.988L630.715 125.973C631.554 125.37 633.529 124.441 633.242 124.451C634.101 124.421 634.392 124.554 634.536 124.549C634.822 124.539 634.965 124.534 635.819 124.361C636.254 124.489 636.683 124.474 637.113 124.459C639.689 124.369 643.495 122.516 646.787 122.401C647.647 122.371 648.229 122.638 649.093 122.751C649.153 124.469 648.304 124.785 648.319 125.215L648.324 125.358C648.191 125.649 648.354 126.217 647.925 126.232L647.495 126.247L647.51 126.676C647.55 127.821 646.691 127.851 646.578 128.715C647.151 128.695 647.442 128.829 647.442 128.829C647.457 129.258 646.613 129.718 646.628 130.147L647.201 130.127C647.916 130.102 648.055 129.954 648.045 129.668C648.03 129.238 647.871 128.814 647.866 128.67C647.852 128.241 648.281 128.226 648.424 128.221C648.854 128.206 648.874 128.779 649.17 129.055C648.484 129.939 648.815 131.217 647.527 131.262L646.239 131.307C645.972 131.89 645.844 132.324 645.425 132.626L645.395 131.767L644.249 131.807L644.284 132.809C644.329 134.097 643.101 135.86 642.696 136.591C642.731 137.593 642.618 138.457 642.357 139.183L643.96 135.83C646.072 134.753 647.291 132.704 648.959 131.212L649.388 131.197C649.664 130.901 649.659 130.758 649.649 130.472C649.644 130.328 649.348 130.052 649.333 129.623C649.318 129.193 650.034 129.168 650.019 128.739C649.989 127.88 649.258 127.475 649.243 127.046C649.238 126.903 649.238 126.903 649.658 126.601C650.843 127.707 650.818 126.991 651.732 128.535C652.229 126.368 655.033 124.55 654.963 122.546L654.928 121.544C654.918 121.257 654.883 120.255 655.455 120.235L655.47 120.665C655.485 121.094 655.777 121.227 655.92 121.222C656.349 121.207 656.759 120.62 657.475 120.595L657.904 120.58C658.906 120.545 659.163 119.676 660.165 119.641L663.028 119.541C662.973 117.966 661.724 119.156 661.393 117.878ZM651.779 68.3328C651.493 68.3428 651.498 68.4859 651.365 68.7772C650.684 69.8044 647.633 68.6209 647.693 70.3388C647.258 70.2107 646.819 69.9393 646.799 69.3667C646.789 69.0804 646.784 68.9372 647.213 68.9222C648.062 68.6059 648.304 67.3075 649.592 67.2625C649.735 67.2575 650.175 67.5288 650.461 67.5188C651.463 67.4838 651.853 66.3235 652.569 66.2985C652.712 66.2935 653.008 66.5698 653.156 66.708C651.724 66.758 652.337 67.8833 651.923 68.3278L651.779 68.3328ZM646.786 73.0939C646.683 74.2442 645.72 75.4245 644.665 78.0414C644.004 79.6411 643.333 80.9546 642.949 82.258L642.964 82.6875C642.831 82.9788 642.55 83.132 642.406 83.137C642.12 83.147 641.735 84.4504 641.296 84.1791C639.623 85.5276 639.5 86.1052 637.734 88.8903L637.774 90.0356L636.915 90.0655C633.885 93.6114 628.868 101.813 626.02 102.343L625.018 102.378C624.578 102.107 624.287 101.973 624.144 101.978C623.285 102.008 623.833 101.273 623.758 99.1252L623.723 98.123C623.718 97.9799 623.584 98.2712 623.584 98.2712C623.298 98.2812 623.293 98.138 623.278 97.7085C623.253 96.9927 624.122 97.2491 624.097 96.5333L624.092 96.3901C625.597 94.3308 629.84 88.5926 629.775 86.7315L629.765 86.4452L630.194 86.4302C631.033 85.8275 632.164 85.358 632.109 83.7833L632.094 83.3538C632.523 83.3388 632.953 83.3238 632.938 82.8943L632.923 82.4648C633.49 82.3017 642.88 72.0836 642.594 72.0936L642.88 72.0836C644.159 71.7523 643.398 70.4888 645.116 70.4288C645.975 70.3988 645.591 71.7023 646.459 71.9586L646.889 71.9436L646.786 73.0939ZM667.278 118.102C666.562 118.127 665.989 118.147 665.708 118.301C665.289 118.602 665.145 118.607 665.16 119.036C665.59 119.021 665.748 119.446 666.177 119.431L667.036 119.401C667.026 119.115 667.026 119.115 667.313 119.105C667.456 119.1 667.895 119.371 668.182 119.361C668.611 119.346 668.744 119.055 669.001 118.186C668.28 118.067 667.707 118.087 667.278 118.102ZM596.718 141.637C596.703 141.207 597.123 140.906 597.108 140.476C596.673 140.348 595.36 139.678 594.93 139.693C594.94 139.979 595.819 140.521 595.859 141.667L596.718 141.637ZM592.059 143.663C592.172 142.799 592.587 142.354 593.302 142.329C593.446 142.324 593.875 142.309 594.315 142.581C594.29 141.865 594.561 141.425 594.699 141.277C593.672 140.596 593.697 141.312 592.383 140.641C592.408 141.357 591.584 142.389 591.609 143.105C591.624 143.535 591.773 143.673 592.059 143.663ZM641.543 140.501C641.819 140.205 642.234 139.761 642.357 139.183L641.543 140.501ZM640.171 142.269L641.543 140.501C640.714 141.39 639.717 141.569 639.742 142.284L640.171 142.269ZM588.472 147.658C588.314 147.234 588.309 147.091 588.294 146.661C588.239 145.086 590.539 145.293 591.2 143.693L590.771 143.708C590.055 143.733 589.462 143.18 589.033 143.195C588.746 143.205 588.608 143.353 588.337 143.793C588.623 143.783 588.776 144.064 588.776 144.064C588.781 144.207 588.352 144.222 587.922 144.237L587.493 144.252C587.088 144.983 586.96 145.418 586.975 145.847C586.99 146.277 587.148 146.701 587.163 147.131L587.183 147.703L588.472 147.658ZM585.807 149.328C585.792 148.898 586.211 148.597 586.196 148.168C586.191 148.024 585.905 148.034 585.752 147.753C585.762 148.039 585.347 148.484 585.362 148.913C585.367 149.057 585.51 149.052 585.807 149.328ZM633.238 148.962C633.125 149.826 632.854 150.265 632.281 150.285C631.995 150.295 631.565 150.31 631.407 149.886L631.437 150.745L631.141 150.468C625.393 158.266 618.981 159.35 619.041 161.068C617.757 161.256 617.659 162.549 615.941 162.609L615.511 162.624C615.127 163.928 613.404 163.845 613.163 165.143L611.731 165.193C610.586 165.233 608.8 167.445 607.27 168.789L606.697 168.809C606.682 168.379 606.396 168.389 606.396 168.389C605.394 168.424 604.585 169.886 604.309 170.182C604.6 170.315 605.188 170.725 605.489 171.144C604.344 171.184 603.065 171.516 603.04 170.8C603.035 170.657 603.311 170.36 603.45 170.212C602.447 170.247 602.626 171.244 600.923 171.734L600.493 171.749C600.079 172.193 599.546 173.359 598.83 173.384C598.687 173.389 598.391 173.112 598.243 172.974C597.132 174.016 596.713 174.318 596.14 174.338L593.563 174.428C593.139 174.586 592.719 174.887 592.29 174.902C592.004 174.912 591.564 174.641 591.421 174.646C590.562 174.676 589.856 174.987 589.462 176.004C589.313 175.866 589.017 175.59 588.874 175.595C588.015 175.625 585.024 176.159 585.064 177.304C584.348 177.329 583.908 177.058 583.464 176.644C583.059 177.374 583.064 177.518 582.205 177.548C580.887 176.734 579.164 176.65 576.562 176.025C576.622 177.743 576.963 179.307 578.686 179.39L579.116 179.375C579.269 179.657 579.555 179.647 579.56 179.79C579.575 180.219 578.741 180.965 578.756 181.395C580.489 181.764 580.529 182.909 582.82 182.829L583.249 182.814C583.704 183.515 584.854 183.618 586.143 183.573C587.574 183.523 588.689 182.625 589.548 182.595L589.692 182.59C590.965 182.115 592.55 182.346 592.49 180.628L592.919 180.613C593.384 181.601 594.253 181.857 595.26 181.965C595.245 181.536 596.084 180.933 596.074 180.647C596.074 180.647 595.926 180.508 595.639 180.518L595.21 180.533C595.185 179.818 595.609 179.66 596.468 179.63L597.184 179.605C596.913 180.044 596.488 180.202 596.513 180.918L596.943 180.903C597.802 180.873 598.917 179.974 598.907 179.688C598.887 179.115 598.443 178.701 598.433 178.414C598.428 178.271 598.418 177.985 598.847 177.97C599.015 178.681 599.879 178.794 600.738 178.764C602.027 178.719 603.586 178.234 603.566 177.662C603.556 177.375 603.255 176.956 602.391 176.843L602.821 176.828C604.109 176.783 604.415 177.345 605.289 177.745C606.043 174.708 608.497 175.196 612.282 172.77C613.827 171.857 617.035 169.308 616.99 168.019L617.419 168.004C621.283 163.713 627.56 158.763 627.417 158.768C628.834 158.289 629.045 156.132 630.002 154.808L630.861 154.778C631.102 153.48 634.147 150.363 636.101 148.862L636.531 148.847C636.664 148.555 636.659 148.412 636.649 148.126C636.644 147.983 636.486 147.558 636.471 147.129C636.461 146.842 636.456 146.699 636.875 146.398L636.446 146.413C635.316 146.882 635.815 148.872 634.527 148.917L633.238 148.962ZM581.805 153.768C581.78 153.052 582.209 153.037 582.194 152.607C581.765 152.622 581.607 152.198 581.321 152.208C581.336 152.637 580.916 152.939 580.921 153.082C581.351 153.067 581.365 153.496 581.805 153.768ZM573.053 165.827C572.751 165.407 572.593 164.983 572.588 164.84C572.543 163.551 575.12 163.461 575.494 161.872L575.218 162.168C575.075 162.173 574.636 161.902 574.344 161.768L574.631 161.758L574.621 161.472C574.556 159.611 578.441 160.049 578.381 158.331L578.376 158.188C577.675 158.642 577.246 158.657 577.103 158.662L575.957 158.702C575.384 158.722 572.828 159.385 572.918 161.962C573.061 161.957 573.061 161.957 573.071 162.243C573.071 162.243 572.646 162.401 572.217 162.416L571.787 162.431C571.383 163.162 571.255 163.596 571.27 164.026C571.285 164.455 571.443 164.88 571.458 165.309L571.478 165.882L573.053 165.827ZM575.011 172.639C574.996 172.209 574.704 172.076 574.694 171.79C574.679 171.36 575.094 170.916 575.079 170.486C575.059 169.914 574.604 169.213 573.745 169.243C573.602 169.248 573.183 169.549 572.768 169.994L572.753 169.564C572.723 168.705 571.44 168.893 571.123 168.044C571.39 167.462 572.254 167.575 572.224 166.716L572.204 166.143C570.644 166.628 568.833 168.124 568.878 169.413C568.993 172.705 573.406 171.835 574.167 173.098L574.192 173.814C574.212 174.387 574.37 174.811 574.799 174.796C575.515 174.771 576.482 173.734 576.452 172.875L576.442 172.589L575.011 172.639ZM604.155 169.901C604.165 170.187 604.309 170.182 604.309 170.182L604.155 169.901ZM710.5 87.4959C704.034 91.1617 706.666 92.6465 702.535 93.3642C699.129 94.3431 695.373 97.6276 691.395 98.6266C689.677 98.6866 688.112 99.0279 687.14 99.9219L677.405 100.262C675.242 99.9073 674.585 97.4936 674.52 95.6325C674.395 92.0534 675.712 88.7107 675.602 85.5612C675.572 84.7022 675.398 83.8483 675.368 82.9893C675.338 82.1303 676.652 82.8011 676.612 81.6558C676.607 81.5127 676.305 81.0932 676.295 80.8069C676.28 80.3774 676.567 80.3674 676.71 80.3624C678.428 80.3024 681.05 81.5009 683.207 81.7122C683.069 81.8604 683.069 81.8604 683.079 82.1467C683.094 82.5762 683.672 82.6993 684.531 82.6693C687.108 82.5793 685.759 80.9064 687.334 80.8514C687.917 81.1177 688.218 81.5372 689.077 81.5072L689.936 81.4772C691.797 81.4122 698.014 74.745 698.014 74.745C697.999 74.3155 697.708 74.1824 697.693 73.7529L698.122 73.7379C699.268 73.6979 699.687 73.3966 699.667 72.8239C699.657 72.5376 699.351 71.975 699.336 71.5455C699.597 70.8197 700.165 70.6565 700.12 69.3681C700.406 69.3581 700.559 69.6394 700.846 69.6294C700.846 69.6294 700.989 69.6244 700.979 69.3381C700.544 69.2099 700.386 68.7854 700.085 68.3659C700.791 68.0546 700.929 67.9064 700.914 67.477C700.859 65.9022 698.711 65.9772 698.681 65.1182C698.651 64.2592 699.94 64.2143 699.905 63.2121C699.825 60.9216 693.154 58.7178 692.152 58.7528C690.005 58.8278 687.882 59.6185 686.195 60.5375L686.21 60.967C685.099 62.0091 683.693 62.7749 681.995 63.4076L681.565 63.4225C680.42 63.4625 678.737 64.5247 678.219 66.1194L677.983 67.561L677.124 67.591C676.695 67.606 676.147 68.3418 676.152 68.485C676.152 68.485 676.162 68.7713 676.305 68.7663C675.921 70.0698 671.786 74.8009 671.781 74.6578C671.801 75.2304 672.675 75.6299 672.69 76.0594C672.576 76.9233 671.861 76.9483 671.743 77.6691L671.491 78.6813C670.929 78.9876 670.667 79.7134 670.105 80.0197C670.203 78.7263 671.441 77.2497 671.411 76.3907C671.401 76.1044 671.253 75.9662 670.814 75.6949C669.738 77.7391 668.899 78.3418 668.959 80.0597C668.974 80.4892 668.989 80.9187 669.296 81.4813C669.341 82.7698 667.351 83.2692 667.456 86.2756C667.501 87.5641 667.818 88.413 668.247 88.3981C668.39 88.393 668.667 88.0967 669.076 87.5091C668.79 87.5191 668.647 87.5241 668.632 87.0946C668.617 86.6651 669.619 86.6301 669.574 85.3417C669.544 84.4827 669.381 83.9151 669.084 83.6387C669.371 83.6287 669.524 83.9101 669.524 83.9101C671.099 83.8551 670.298 81.4463 671.586 81.4013C671.873 81.3913 671.888 81.8208 671.898 82.1071C671.943 83.3956 670.689 84.4427 670.719 85.3017C670.734 85.7312 670.744 86.0175 671.179 86.1456L671.194 86.5751L670.478 86.6001C670.553 88.7476 669.739 90.066 668.322 90.5455C668.455 90.2542 668.737 90.101 668.722 89.6715C668.712 89.3852 668.42 89.252 667.838 88.9857C667.581 89.8547 666.594 90.3191 666.639 91.6076C668.5 91.5426 667.553 93.1524 670.13 93.0624L670.703 93.0424L670.61 94.479L669.894 94.504C669.761 94.7953 669.766 94.9385 669.786 95.5111C669.926 99.5196 676.078 103.318 676.083 103.461C676.513 103.446 676.656 103.441 676.641 103.012C677.55 104.413 681.49 106.426 684.497 106.321C685.213 106.296 685.78 106.133 686.195 105.688L687.769 105.633C689.62 105.282 689.842 103.411 691.989 103.336L692.991 103.301C693.253 102.575 694.619 100.664 695.33 100.496L695.903 100.476C698.909 100.371 696.943 97.4295 699.234 97.3495C699.663 97.3345 699.683 97.9071 700.399 97.8821C701.401 97.8471 702.501 96.5187 702.471 95.6597L702.451 95.0871C703.695 93.7536 707.051 91.3431 707.91 91.3131L708.339 91.2981C709.598 90.3941 710.846 89.2038 711.66 87.8854C711.655 87.7422 711.359 87.4659 710.929 87.4809L710.5 87.4959ZM680.137 71.7859C680.27 71.4946 680.122 71.3564 679.836 71.3664C679.693 71.3714 679.55 71.3764 679.411 71.5246C680.369 70.2011 681.489 69.4453 682.604 68.5464C683.448 68.0869 683.853 67.3561 684.855 67.3211L685.714 67.2911C685.97 66.4221 686.982 66.6734 687.397 66.229C687.367 65.37 686.37 65.5482 686.34 64.6892C686.32 64.1165 687.164 63.6571 687.593 63.6421C687.736 63.6371 688.027 63.7702 688.037 64.0565L689.469 64.0066C689.889 63.7052 690.599 63.5371 691.172 63.5171C692.46 63.4721 693.354 64.4442 694.243 65.2732L693.884 67.2924C693.228 69.0354 693.368 73.0439 682.578 76.0007C681.586 76.3221 678.14 76.1557 678.411 75.7162L680.137 71.7859ZM681.129 71.4646C681.129 71.4646 681.416 71.4546 681.84 71.2964C682.225 69.993 683.227 69.958 683.621 68.9408C683.611 68.6545 683.468 68.6595 683.182 68.6695C682.323 68.6995 680.951 70.4674 680.981 71.3264C680.986 71.4696 680.986 71.4696 681.129 71.4646ZM721.043 106.191C721.907 106.305 722.761 106.131 723.62 106.101C724.33 105.933 725.189 105.903 725.9 105.735C727.041 105.552 728.141 104.224 729.316 105.042C729.706 103.882 730.165 104.726 730.59 104.568C731.3 104.4 731.863 104.094 732.569 103.782C733.275 103.471 733.98 103.16 734.681 102.705C736.088 101.939 737.341 100.892 738.303 99.7119C737.456 91.858 728.104 86.7378 721.853 84.2327C721.536 83.3838 721.833 83.6601 721.388 83.2456C721.338 81.814 721.718 80.3674 722.245 79.0589C722.645 78.185 723.187 77.306 723.73 76.427C724.001 75.9876 725.112 74.9454 726.217 73.7602L726.991 71.2964L728.156 71.8291C728.842 70.9451 729.538 70.3475 729.814 70.0511C730.505 69.3103 729.207 69.069 729.897 68.3282C730.761 68.4414 731.502 69.1322 732.336 68.3864C733.18 67.9269 733.846 66.4703 734.547 66.0158C735.534 65.5513 735.441 66.9879 736.146 66.6766C739.834 65.5445 742.564 65.7359 745.482 67.2106C745.733 66.1985 745.595 66.3467 746.005 65.759C745.638 63.4784 738.28 58.002 735.831 57.6575C735.101 57.253 734.104 57.4311 732.973 57.9006C732.268 58.2119 731.285 58.8196 730.451 59.5654C726.957 62.1241 723.375 66.2626 721.258 67.1966L721.318 68.9145L719.313 68.9845C719.615 69.404 719.911 69.6803 720.356 70.0948C718.022 73.043 713.151 77.2265 716.599 81.5495C716.797 83.1193 717.568 84.669 718.906 86.0557C719.356 86.6133 720.091 87.161 720.684 87.7136L722.299 88.8039C724.999 88.1363 725.513 90.555 726.684 91.2308C727.849 91.7635 726.599 88.7971 729.014 92.2961C730.18 92.8288 731.488 93.3564 732.505 93.7509C732.55 95.0394 732.58 95.8983 732.033 96.6341C730.128 99.5673 725.404 99.7323 722.382 99.4078C720.378 99.4778 717.382 99.8691 716.207 99.0502C712.025 98.3362 715.218 95.358 715.785 95.1948C716.496 95.0266 715.939 95.4761 715.884 93.9013C714.896 94.3658 714.61 94.3758 713.914 94.9735C712.601 94.3027 713.268 97.0027 712.784 95.443C711.51 95.9174 712.661 96.0206 711.382 96.3519C709.053 99.4433 708.887 102.889 709.944 104.429C711.539 104.947 713.134 105.464 714.719 105.696C715.731 105.947 716.595 106.06 717.602 106.168C717.137 105.181 718.283 105.141 721.043 106.191ZM757.476 74.1019C757.752 73.8056 758.029 73.5093 758.162 73.218C758.157 73.0748 757.886 73.5143 757.476 74.1019ZM733.755 84.3904C740.117 81.8749 749.471 78.8249 754.673 75.9198C751.395 76.4643 750.418 77.2151 748.157 78.1541C746.138 77.7946 737.224 81.1159 733.755 84.3904ZM733.419 82.9688C733.557 82.8207 732.856 83.2751 732.426 83.2901C732.283 83.2951 732.728 83.7096 732.866 83.5615L733.419 82.9688ZM728.671 86.5747C729.653 85.967 731.065 85.3444 732.763 84.7118C731.736 84.0309 730.166 84.2291 729.051 85.1281C728.937 85.992 728.927 85.7057 728.656 86.1452L728.671 86.5747ZM729.98 87.1023C730.015 88.1045 731.529 86.3315 732.496 85.2944C731.801 85.892 730.819 86.4997 729.693 87.1123L729.98 87.1023ZM716.318 94.0295C716.921 94.8685 718.603 93.8064 719.289 92.9224C718.998 92.7892 718.574 92.9474 717.863 93.1155C717.443 93.4169 716.881 93.7232 716.318 94.0295ZM720.931 98.8852C720.62 98.1794 718.902 98.2394 718.6 97.8199C718.61 98.1062 719.632 98.6439 719.642 98.9302L720.931 98.8852Z" fill="url(#paint0_linear_5038_174)"/>
<defs>
<linearGradient id="paint0_linear_5038_174" x1="-719.996" y1="-173.206" x2="-716.761" y2="302.726" gradientUnits="userSpaceOnUse">
<stop offset="1" stop-color="#C6DDFF"/>
<stop offset="0.358685" stop-color="#D2EED9"/>
<stop stop-color="#D8E5E7"/>
</linearGradient>
</defs>
</svg>
