<svg width="1724" height="750" viewBox="0 0 1724 750" fill="none" xmlns="http://www.w3.org/2000/svg">
<path opacity="0.3" d="M182.799 485.229C179.308 485.765 178.952 485.417 178.874 484.623C176.413 485.806 165.979 487.812 164.393 488.056C161.135 490.974 141.143 494.044 130.191 497.338C118.605 500.729 75.1289 507.407 49.691 517.358C49.0173 517.059 47.67 516.46 46.9574 515.763C47.2804 512.49 46.1668 514.273 49.3793 514.182C48.4441 504.655 50.7824 505.505 51.2725 497.371C52.6254 494.745 51.5899 497.322 50.0087 494.341C51.4786 492.907 51.757 492.461 54.5741 491.625C50.6936 488.192 53.5887 488.15 50.6157 487.398C51.1335 486.109 51.1725 486.506 52.6813 485.469C50.5044 482.982 53.238 484.577 49.9087 483.477C48.8454 479.208 53.8896 474.807 56.0721 474.068C55.7214 470.496 55.3317 466.526 56.3284 463.552C57.4419 461.769 57.2025 462.612 60.3759 462.125C59.6689 458.204 58.4887 452.744 62.3025 448.934C61.5899 448.238 60.5599 447.59 59.2126 446.991C61.1223 443.474 62.5142 441.246 62.7203 436.782C65.337 437.186 64.7023 437.283 66.7233 438.182C66.0163 434.261 65.8548 435.897 63.3216 433.063C64.0009 430.138 65.2257 432.771 64.1624 428.501C69.4794 426.879 69.2789 428.118 67.542 423.55C68.2935 424.643 69.2845 424.894 70.3145 425.542C70.5985 421.872 72.0294 420.04 73.3434 417.018C73.9781 416.92 74.2954 416.871 74.5738 416.426C71.9181 415.625 73.3044 416.621 70.5262 417.853C69.9361 415.123 69.9751 415.52 69.8192 413.932C70.9327 412.149 71.367 413.292 72.5195 411.906L73.4715 411.76C72.0852 410.764 68.9118 411.251 67.6034 411.049L66.6514 411.195L70.0309 406.244L70.3483 406.195C72.3359 403.472 74.6409 400.7 76.506 400.011C74.4461 398.715 73.7334 398.019 71.1557 398.012C69.8196 390.964 76.1722 386.765 78.7499 386.772C78.5607 381.563 78.8391 381.117 79.0062 376.256L80.2756 376.061C79.2067 375.016 78.2157 374.765 77.4641 373.672C78.5776 371.889 79.0508 373.428 79.8859 372.091C81.5173 369.02 80.9215 369.514 79.6967 366.882C79.6634 363.261 81.5285 362.571 85.693 362.334C83.8725 360.196 83.9504 360.99 82.2078 359.646C84.1954 356.923 84.9583 351.568 84.2513 347.647C86.4337 346.909 87.6642 346.317 89.0504 347.313C89.6851 347.215 90.0025 347.166 90.2809 346.721C87.7477 343.886 89.4513 344.833 86.161 344.13C85.7657 343.385 85.3315 342.243 84.9751 341.894C87.9092 342.25 87.6308 342.695 90.3254 343.893L89.1786 342.055C88.427 340.961 89.418 341.212 87.7923 341.059L86.8849 338.377C89.5016 338.781 88.9058 339.276 90.6095 340.223C90.8155 335.759 91.4559 332.437 91.3835 328.419L90.4315 328.565C89.4795 328.711 90.0362 327.82 88.9617 329.999C88.0486 330.543 87.7313 330.591 86.7792 330.738C87.9373 326.127 88.1767 325.285 92.6975 325.396C92.9369 324.553 92.898 324.157 92.859 323.76C92.859 323.76 91.4394 319.142 91.3558 321.573L90.7991 322.464C91.161 319.588 92.2802 314.581 95.3813 310.075C92.8871 307.637 93.3214 308.779 91.5788 307.435C94.318 305.806 92.1745 306.941 94.3959 306.6C94.9696 296.035 98.1989 286.271 97.7815 275.456C91.4402 273.206 82.8385 270.9 77.015 267.362C65.3844 273.581 73.6463 288.833 71.8812 300.387C69.7598 311.592 67.738 356.63 61.4188 364.451C62.922 366.638 62.4877 365.496 64.6256 367.585C61.4855 371.694 61.9864 380.079 57.8163 383.54C58.8463 384.188 60.1546 384.39 60.8672 385.086C57.4154 386.019 58.2895 385.079 57.0535 388.895C56.5357 390.184 56.7751 389.341 57.5267 390.434C57.883 390.783 57.9609 391.577 58.3951 392.719C57.1647 393.311 56.53 393.408 55.578 393.554C56.6023 397.427 56.9141 400.602 57.0699 402.19C56.5911 403.876 55.1269 402.086 54.8039 405.359C53.5345 405.554 52.3041 406.146 50.7174 406.389C51.469 407.483 52.5768 408.924 53.2895 409.621L50.5723 421.321L46.5637 423.145C47.7496 425.381 48.2617 427.317 49.0523 428.807C47.6214 430.639 45.8342 432.122 44.3254 433.16C44.3254 433.16 46.8975 436.391 46.1014 438.125C45.5836 439.414 43.3232 439.358 42.7664 440.25C42.6439 442.283 42.8054 440.646 44.0691 443.676C41.7642 446.448 41.959 448.433 38.3457 451.002C39.654 451.204 38.663 450.953 40.6061 451.058C40.6394 454.679 41.7529 452.897 38.379 454.624C41.53 467.034 33.0006 468.747 35.0826 480.113C33.5348 480.753 32.2654 480.948 31.035 481.54C33.3621 488.839 31.8421 496.326 27.3546 499.835C28.9803 499.989 27.633 499.39 29.654 500.288C29.8488 502.273 29.7709 501.479 29.5704 502.719C29.9267 503.067 30.0046 503.861 30.0046 503.861C29.37 503.958 28.34 503.311 27.7053 503.408C27.5326 511.494 25.7341 519.426 26.5134 527.365C27.1758 534.113 32.4816 538.94 30.2935 542.902C31.3234 543.55 32.7487 544.943 33.5003 546.037C45.359 545.424 56.0431 536.127 72.74 535.577C75.6351 535.536 78.7808 528.202 83.4575 529.902C83.4575 529.902 87.505 528.474 85.2057 528.021C84.8883 528.07 84.2147 527.771 83.5021 527.074C87.7055 527.234 94.0524 526.26 96.3574 523.488C99.6088 523.794 97.5099 522.102 99.13 525.48C105.995 523.217 107.626 520.145 110.644 518.07C113.661 515.995 122.062 519.54 128.098 515.389C131.75 513.217 136.243 506.482 139.533 507.186C145.168 505.515 144.177 505.264 145.518 509.087C161.954 499.31 171.201 495.069 184.057 491.483L186.601 487.868L185.655 484.79L182.799 485.229ZM87.8035 334.61C88.1988 335.355 88.2768 336.149 88.672 336.894L86.4506 337.235C86.0943 336.887 86.0164 336.093 85.6211 335.348C86.2168 334.853 86.8515 334.756 87.8035 334.61ZM83.11 342.584C83.3438 344.965 83.2269 343.775 81.206 342.876L83.11 342.584ZM89.2842 349.694C89.2453 349.297 88.889 348.949 88.85 348.552C87.898 348.698 87.5806 348.747 86.6675 349.29C87.9759 349.492 87.0238 349.639 89.2842 349.694ZM87.5637 358.421C87.1295 357.278 86.7342 356.533 86.6563 355.739C85.7042 355.886 85.0696 355.983 84.4738 356.477C84.5518 357.271 84.947 358.017 85.3423 358.762L87.5637 358.421ZM74.7417 365.628C75.098 365.976 75.137 366.373 75.176 366.77C74.8586 366.819 73.9066 366.965 72.9935 367.509C72.9156 366.715 72.5203 365.969 72.125 365.224C72.7597 365.127 74.3854 365.28 74.7417 365.628ZM66.3734 388.673C68.6728 389.126 67.3644 388.924 69.068 389.871C68.7507 389.919 68.4723 390.365 68.1939 390.811C67.2419 390.957 66.6072 391.055 65.3768 391.646C65.3378 391.25 64.9815 390.901 64.9815 390.901C66.134 389.515 66.2119 390.309 66.3734 388.673ZM72.9039 396.132C74.2512 396.731 73.2602 396.48 74.9249 397.03L75.4093 392.12C75.092 392.169 73.4996 395.637 72.9039 396.132ZM63.361 410.492C63.7563 411.237 64.1905 412.379 64.2295 412.776L62.3254 413.068C62.2865 412.672 61.8912 411.926 61.4959 411.181C62.1306 411.084 62.7263 410.589 63.361 410.492ZM64.3741 420.813C62.1137 420.757 63.0658 420.611 61.7574 420.409C64.0178 420.465 62.7484 420.66 64.3741 420.813ZM56.2175 436.169C57.7207 438.356 56.6907 437.708 55.8166 438.648C56.1729 438.996 56.2119 439.393 56.6072 440.138L55.9725 440.236C55.4992 438.697 55.3823 437.506 54.9871 436.761C55.5828 436.266 55.9001 436.218 56.2175 436.169ZM44.8095 451.218C43.1838 451.065 43.8574 451.365 42.7885 450.32C44.7705 450.821 43.4622 450.619 44.8095 451.218ZM47.515 468.935C47.3924 470.969 47.6319 470.126 45.9672 469.576C46.5629 469.082 46.8803 469.033 47.515 468.935ZM45.2264 485.002C43.6008 484.849 44.2744 485.148 42.9271 484.549C44.8701 484.654 44.1965 484.354 45.2264 485.002ZM41.0953 488.86C41.6521 487.969 41.9694 487.92 41.5742 487.175C43.8735 487.627 43.1998 487.328 44.2298 487.976L44.0683 489.612C44.0683 489.612 39.9428 490.246 41.0953 488.86ZM39.9818 490.643C40.0208 491.04 39.3861 491.137 39.7813 491.883L38.5955 489.647C40.5775 490.148 39.8649 489.452 40.9338 490.497L39.9818 490.643ZM50.5322 489.828C50.5322 489.828 47.1193 491.158 48.5502 489.327C48.1549 488.582 48.4722 488.533 48.7506 488.087C50.1369 489.083 49.1069 488.435 50.5322 489.828ZM53.2324 487.802C55.2924 489.097 54.6966 489.592 55.1365 487.509L53.2324 487.802ZM46.7573 494.035C47.0747 493.986 47.7483 494.285 48.1047 494.634C48.138 498.255 48.8563 495.727 45.8386 497.802L44.5749 494.773C45.488 494.23 46.1226 494.132 46.7573 494.035ZM40.7221 498.185C40.7611 498.582 40.4827 499.028 40.5217 499.425C40.4438 498.631 40.0485 497.886 39.6532 497.141C41.3179 497.691 40.2879 497.043 41.6742 498.039L40.7221 498.185ZM47.5423 498.749C49.4853 498.854 48.8117 498.555 49.8806 499.599L47.5423 498.749ZM38.5284 505.372C38.8068 504.927 38.4505 504.578 38.6899 503.736C40.0762 504.732 39.3636 504.035 40.8278 505.825C40.8278 505.825 36.7412 506.856 38.5284 505.372ZM136.633 510.452C138.654 511.35 141.788 510.466 144.884 509.185C143.497 508.189 142.506 507.938 141.237 508.133C139.689 508.774 138.18 509.811 136.633 510.452ZM101.357 521.914C103.378 522.813 102.348 522.165 103.656 522.367C102.07 522.611 102.743 522.91 101.357 521.914ZM286.016 378.309C284.468 378.95 282.441 381.276 281.011 383.107C283.433 381.526 286.172 379.897 289.267 378.616C289.624 378.964 292.602 376.492 295.419 375.656L295.62 374.416C291.572 375.844 287.842 377.223 286.016 378.309ZM278.31 385.134C278.945 385.036 279.819 384.096 281.011 383.107C278.867 384.242 276.724 385.378 274.936 386.861C276.484 386.22 277.715 385.628 278.31 385.134ZM255.962 397.028C254.654 396.826 252.193 398.01 250.489 397.063C242.233 401.555 230.369 405.392 220.046 411.812C217.229 412.648 214.852 411.401 212.118 409.806C207.007 406.965 204.396 403.336 196.424 404.158C196.969 409.715 197.949 416.415 196.396 420.28L190.861 432.816C187.632 442.58 186.118 446.842 185.583 457.803C187.436 486.531 194.134 489.129 203.988 500.913C206.527 500.523 209.066 500.133 211.566 499.346L213.431 498.657L212.957 497.117C213.002 494.29 217.801 493.956 220.858 492.278L221.771 491.734C223.124 489.109 226.297 488.621 226.024 485.843L225.947 485.049L226.86 484.506C229.003 483.37 227.817 481.135 229.287 479.7L230.2 479.157C231.03 481.044 231.943 480.501 232.416 482.04C233.891 477.381 234.059 472.52 237.711 470.348C238.624 469.804 239.303 466.879 240.333 467.527C240.89 466.636 240.573 466.684 240.495 465.89C240.417 465.097 237.204 465.187 237.087 463.996C236.971 462.805 237.21 461.962 238.323 460.18C240.228 459.887 239.12 458.446 240.946 457.359C242.772 456.273 242.939 451.412 242.939 451.412C243.262 448.139 243.546 444.468 243.513 440.847L247.956 440.165C248.195 439.322 248.752 438.431 249.347 437.936C249.197 433.124 246.185 431.975 241.871 427.399C241.158 426.703 240.523 426.8 240.128 426.055C240.445 426.006 234.822 421.228 231.738 416.061C237.222 409.577 241.982 408.846 249.287 404.501C249.448 402.864 255.4 401.144 255.244 399.556C262.309 396.053 268.267 391.109 274.936 386.861C271.802 387.745 268.033 388.727 265.611 390.308C262.593 392.383 258.702 395.399 255.962 397.028ZM209.284 420.315C208.527 422.446 207.414 424.229 207.53 425.42C207.608 426.214 208.878 426.019 210.503 426.172L210.977 427.712C210.459 429 210.576 430.191 208.711 430.88L208.633 430.086C208.399 427.704 206.177 428.046 205.109 427.001C205.509 424.522 205.871 421.645 209.284 420.315ZM233.809 433.876C233.402 439.579 231.765 445.875 229.416 451.474C228.859 452.366 228.497 455.242 227.979 456.53C226.905 458.71 225.674 459.302 224.561 461.085C223.764 462.819 222.846 466.586 221.693 467.972C216.643 475.598 210.569 479.352 205.648 481.719C203.899 483.6 199.774 484.233 195.609 484.47C195.821 476.781 196.706 469.392 198.583 462.254C196.562 461.355 198.984 459.775 199.502 458.486C199.741 457.644 198.394 457.045 198.633 456.202C198.872 455.359 200.025 453.973 200.264 453.131C197.252 451.982 195.588 451.431 195.231 451.083C194.124 449.642 202.213 450.011 202.452 449.168C202.97 447.88 201.862 446.438 203.727 445.749L204.524 444.015L203.421 439.349C203.7 438.903 206.712 440.052 206.951 439.209C208.265 436.187 209.657 433.958 211.049 431.73C213.827 430.497 212.318 431.535 213.749 429.703C225.257 425.518 225.925 429.042 233.809 433.876ZM290.801 522.233C290.684 521.042 290.885 519.802 290.768 518.611C290.729 518.214 289.699 517.567 289.265 516.425L289.582 516.376C291.169 516.132 291.926 514.001 291.492 512.859C291.492 512.859 291.414 512.065 290.501 512.608L290.384 511.417C290.384 511.417 289.126 505.163 289.209 502.733L289.622 493.805C290.256 493.707 290.574 493.658 290.496 492.864L290.457 492.467C291.409 492.321 291.927 491.033 291.81 489.842C291.693 488.651 291.297 487.906 291.181 486.715C291.142 486.318 291.064 485.524 291.659 485.03L291.465 483.045C296.72 470.955 297.149 452.353 300.468 436.935L300.195 434.156C298.731 432.366 297.74 432.115 297.423 432.164C296.471 432.31 295.674 434.044 294.405 434.239C293.453 434.386 292.779 434.086 290.68 432.394C290.875 434.379 290.675 435.618 289.088 435.862L288.771 435.911C290.163 433.682 288.704 428.668 291.56 428.229C292.551 428.48 293.264 429.176 294.216 429.03C294.216 429.03 294.533 428.981 295.051 427.693L296.003 427.547C296.12 428.738 296.476 429.086 297.111 428.988C298.38 428.793 299.811 426.962 299.616 424.977L299.383 422.595C301.804 421.014 303.035 420.422 302.64 419.677C302.205 418.535 301.214 418.284 299.75 416.495C301.019 416.3 301.22 415.06 301.42 413.82L301.265 412.232L306.977 411.355C306.782 409.37 306.665 408.179 305.596 407.135L305.479 405.944C306.476 402.97 308.82 400.595 308.43 396.626L308.118 393.45C310.858 391.82 311.287 373.219 314.549 367.076C321.848 365.955 317.6 368.623 329.387 363.992L331.291 363.699C331.369 364.493 332.042 364.793 332.677 364.695C341.563 363.33 348.673 357 354.953 348.782C355.782 350.67 357.803 351.568 359.073 351.373C360.977 351.081 363.081 349.549 363.838 347.418L364.791 347.271C364.791 347.271 371.305 341.436 372.374 342.48C371.505 340.196 367.341 340.433 363.85 340.969C360.994 341.407 357.542 342.341 356.35 343.329L354.764 343.573C352.542 343.914 352.576 347.536 350.71 348.225C350.755 345.398 349.051 344.451 347.782 344.645C346.513 344.84 344.965 345.481 343.773 346.47L343.695 345.676C343.695 345.676 343.656 345.279 343.339 345.328C342.704 345.425 335.684 346.101 335.043 349.423C333.579 347.633 330.361 350.948 330.011 347.375C328.819 348.364 328.184 348.461 327.232 348.608L321.837 349.436C320.885 349.582 319.616 349.777 318.068 350.418L319.071 344.22L320.067 341.246L319.95 340.055C319.327 333.704 321.225 336.636 321.676 328.105L321.248 323.738L321.565 323.689C322.517 323.543 322.478 323.146 322.4 322.352C322.283 321.161 321.849 320.019 321.81 319.622C321.576 317.24 325.54 318.243 324.923 308.667C325.641 306.139 326.476 304.802 326.676 303.563C326.877 302.323 326.125 301.23 326.008 300.039C325.969 299.642 325.891 298.848 326.17 298.402C324.968 282.872 316.327 280.169 314.662 279.619C311.522 283.728 308.098 314.475 307.936 316.112C307.418 317.4 305.23 321.363 305.464 323.745C305.581 324.935 306.294 325.632 307.284 325.883L307.279 329.107C304.462 329.943 307.028 336.399 304.489 336.789L304.172 336.837C304.122 342.889 303.921 344.129 301.126 355.035C288.984 359.318 271.613 359.568 271.613 359.568C271.296 359.617 270.583 358.92 270.227 358.572C270.383 360.16 268.434 363.28 268.946 365.216C270.956 372.563 281.824 371.7 290.114 370.83L290.748 370.732C292.652 370.44 292.769 371.631 294.356 371.387C294.673 371.338 295.509 370.001 295.509 370.001L295.703 371.986L297.568 371.296C298.521 371.15 299.155 371.053 299.55 371.798C299.667 372.989 298.871 374.723 298.91 375.12C298.988 375.914 299.623 375.816 300.575 375.67L296.483 379.925C291.845 401.591 289.478 416.863 288.526 417.01C288.209 417.058 287.691 418.347 287.769 419.141C287.925 420.728 288.994 421.773 289.946 421.627C289.946 421.627 290.58 421.529 290.859 421.084L291.811 420.938C292.763 420.791 293.437 421.091 293.553 422.282L293.67 423.473C291.015 422.672 290.063 422.818 290.063 422.818C287.841 423.159 287.44 425.638 286.683 427.769L286.8 428.96C285.887 429.503 285.965 430.297 285.686 430.743C285.13 431.634 286.082 431.488 286.121 431.885C284.55 445.424 278.933 460.39 279.356 467.981C279.55 469.966 279.985 471.108 280.736 472.201C279.94 473.935 281.482 476.519 278.943 476.909L278.153 475.419C277.719 474.276 277.401 474.325 276.41 474.074L276.644 476.456C276.878 478.838 276.911 482.459 277.067 484.047C277.301 486.429 278.648 487.028 278.687 487.425C278.682 490.649 274.957 488.804 274.912 491.631C276.299 492.627 277.05 493.721 277.167 494.912C277.401 497.293 276.048 499.919 276.282 502.301C276.399 503.492 276.477 504.285 277.15 504.585C277.857 508.506 277.857 508.506 279.16 511.932C282.205 516.703 284.66 518.744 290.801 522.233ZM306.61 348.551C305.658 348.698 304.155 346.511 303.999 344.923C303.882 343.732 306.778 343.69 306.505 340.911L306.388 339.721C305.803 333.766 309.879 316.216 310.364 311.307C312.902 310.917 311.538 319.991 310.096 328.271L309.144 328.418C308.699 333.724 310.435 338.293 308.292 339.428C306.822 340.863 307.562 348.405 306.61 348.551ZM355.724 497.755C357.667 497.86 359.532 497.17 361.436 496.878C362.984 496.237 364.888 495.945 366.436 495.304C368.936 494.517 371.124 490.555 373.896 492.546C374.537 489.224 375.723 491.46 376.636 490.917C378.183 490.276 379.375 489.287 380.884 488.25C382.392 487.212 383.901 486.174 385.371 484.74C388.35 482.268 390.933 479.05 392.843 475.533C389.43 453.895 367.639 441.93 353.253 436.483C352.385 434.199 353.097 434.896 352.028 433.851C351.639 429.881 352.201 425.765 353.12 421.998C353.838 419.47 354.874 416.893 355.909 414.316C356.427 413.028 358.693 409.859 360.92 406.294L362.162 399.253L364.856 400.451C366.209 397.825 367.64 395.994 368.197 395.102C369.589 392.874 366.655 392.518 368.047 390.29C369.99 390.394 371.771 392.135 373.481 389.858C375.268 388.375 376.465 384.162 377.935 382.727C380.039 381.195 380.112 385.213 381.62 384.176C389.599 380.13 395.706 379.997 402.482 383.389C402.844 380.513 402.565 380.959 403.361 379.225C402.103 372.971 384.677 359.529 379.166 359.167C377.462 358.22 375.279 358.958 372.858 360.539C371.349 361.576 369.283 363.505 367.574 365.783C360.303 373.75 353.143 386.132 348.616 389.245L349.084 394.008L344.641 394.691C345.393 395.784 346.105 396.48 347.174 397.525C342.559 406.293 332.542 419.114 341.049 430.299C341.795 434.617 343.811 438.74 347.056 442.271C348.164 443.712 349.907 445.056 351.332 446.449L355.135 449.089C361.008 446.575 362.623 453.177 365.357 454.772C368.051 455.97 364.694 448.024 370.746 457.168C373.44 458.366 376.452 459.515 378.791 460.365C379.141 463.937 379.375 466.319 378.301 468.499C374.637 477.121 364.165 478.729 357.383 478.562C352.941 479.244 346.354 481.062 343.582 479.07C334.145 478.101 340.665 469.041 341.895 468.449C343.443 467.808 342.29 469.194 341.862 464.828C339.757 466.36 339.122 466.457 337.692 468.289C334.641 466.743 336.65 474.09 335.27 469.87C332.53 471.499 335.108 471.506 332.33 472.739C327.753 481.904 328.054 491.528 330.704 495.554C334.351 496.605 337.997 497.657 341.566 497.915C343.865 498.368 345.808 498.472 348.069 498.528C346.844 495.895 349.383 495.506 355.724 497.755ZM430.491 399.638C431.048 398.746 431.605 397.855 431.844 397.012C431.805 396.615 431.288 397.904 430.491 399.638ZM379.749 434.026C393.406 425.481 413.61 414.722 424.612 405.376C417.43 407.688 415.403 410.014 410.56 413.176C406 412.667 386.825 424.074 379.749 434.026ZM378.724 430.154C379.003 429.708 377.533 431.143 376.581 431.289C376.264 431.337 377.333 432.382 377.611 431.936L378.724 430.154ZM368.87 441.338C370.935 439.409 373.953 437.334 377.605 435.161C375.189 433.517 371.737 434.45 369.432 437.222C369.349 439.653 369.271 438.859 368.753 440.147L368.87 441.338ZM371.882 442.487C372.155 445.266 375.178 439.966 377.126 436.846C375.696 438.678 373.63 440.607 371.247 442.585L371.882 442.487ZM342.853 465.078C344.356 467.265 347.891 463.902 349.244 461.276C348.571 460.977 347.657 461.52 346.11 462.161C345.236 463.101 344.044 464.09 342.853 465.078ZM354.054 477.461C353.225 475.574 349.417 476.159 348.665 475.065C348.743 475.859 351.12 477.106 351.198 477.9L354.054 477.461ZM562.285 393.499C561.7 387.544 563.654 381.2 562.992 374.452C562.797 372.467 562.641 370.879 562.168 369.34C561.65 370.628 561.689 371.025 561.055 371.123C559.785 371.318 556.935 368.532 555.983 368.678L555.788 366.693C556.267 365.008 557.141 364.068 559.045 363.775L558.46 357.821C558.382 357.027 545.399 342.903 545.399 342.903C543.067 338.829 532.528 333.194 531.575 333.341C530.306 333.536 528.157 337.895 527.918 338.738L528.112 340.723L520.179 341.941C519.344 343.278 519.46 344.469 519.577 345.66C519.616 346.057 519.694 346.851 520.763 347.896C514.249 353.732 506.85 366.956 503.676 367.444C501.054 370.264 495.525 379.575 495.681 381.163C495.798 382.354 496.472 382.654 496.55 383.448C496.589 383.845 496.032 384.736 495.119 385.279L495.314 387.264C492.814 388.051 493.126 391.227 490.347 392.459L490.503 394.047C489.145 399.897 486.834 405.893 486.979 413.93L487.212 416.312C487.68 421.075 486.923 423.206 487.39 427.97L487.663 430.749C486.828 432.086 486.945 433.277 486.984 433.674C487.49 438.834 495.134 444.51 495.602 449.274C495.641 449.671 495.719 450.465 495.48 451.307C495.518 451.704 495.914 452.45 495.914 452.45L498.814 449.183L499.009 451.168C499.243 453.55 499.995 454.643 501.977 455.145L502.929 454.999C504.515 454.755 504.95 455.897 506.854 455.605L510.979 454.971C510.423 455.862 510.578 457.45 510.656 458.244C510.773 459.435 510.812 459.832 511.447 459.735L512.56 457.952L516.051 457.416C515.934 456.225 516.491 455.333 516.808 455.285C518.395 455.041 519.898 457.228 521.485 456.984C524.341 456.545 531.601 455.027 532.759 450.417L534.346 450.173C534.702 450.521 535.732 451.169 536.367 451.072C538.271 450.779 538.594 447.506 540.498 447.214L541.45 447.067L541.294 445.48C540.905 441.51 543.009 439.978 544.997 437.255L545.949 437.109C546.027 437.903 546.344 437.854 546.344 437.854C548.248 437.561 551.867 431.767 551.633 429.385C551.633 429.385 551.594 428.988 550.96 429.086L550.765 427.101C554.851 426.07 555.731 421.906 557.363 418.835L556.622 411.292L560.113 410.756C560.191 411.55 560.23 411.947 560.865 411.85C560.865 411.85 561.143 411.404 561.065 410.61L560.948 409.419C562.657 407.142 565.948 407.845 565.363 401.891L564.935 397.524L563.665 397.719C563.231 396.577 562.44 395.087 562.285 393.499ZM541.535 352.764L541.847 355.94L539.943 356.232L539.631 353.057L541.535 352.764ZM556.562 377.857C555.292 378.052 557.14 387.036 554.284 387.474L553.332 387.621L553.8 392.384C553.165 392.482 544.056 407.984 544.218 406.347C542.258 415.916 533.634 426.509 531.73 426.801C531.412 426.85 531.373 426.453 530.739 426.55C531.011 429.329 521.168 434.065 522.438 433.87L522.12 433.918C521.68 436.001 515.445 441.391 513.541 441.683C511.319 442.024 509.304 437.902 508.352 438.048C506.765 438.291 506.364 440.771 505.412 440.917C505.095 440.966 505.217 438.932 502.996 439.273C501.409 439.517 500.774 439.614 500.301 438.075L498.782 422.594C498.548 420.212 498.748 418.972 500.335 418.729L500.14 416.744C499.305 418.081 498.67 418.178 497.718 418.325C496.766 418.471 495.775 418.22 495.697 417.426C495.58 416.235 496.176 415.741 497.963 414.258L498.119 415.845L500.023 415.553L499.672 411.98C505.669 407.433 503.637 390.015 511.342 383.19C511.459 384.381 511.498 384.778 512.45 384.632C512.734 380.962 515.273 380.572 515.357 378.141L516.476 373.134C518.386 369.617 531.525 362.361 535.617 358.106L542.437 358.67L542.593 360.258C543.105 362.194 548.339 363.002 549.925 362.758L552.063 364.848C553.015 364.701 553.65 364.604 553.845 366.589C553.962 367.78 553.444 369.068 553.6 370.656L553.717 371.847C555.977 371.902 555.175 376.861 556.879 377.808L556.562 377.857ZM528.211 443.46C527.576 443.557 527.376 444.797 526.897 446.482L525.945 446.628C524.915 445.981 524.28 446.078 524.046 443.696L524.681 443.599C526.268 443.355 526.39 441.321 527.225 439.984C529.246 440.883 531.267 441.781 531.657 445.751C530.31 445.152 529.163 443.313 528.211 443.46ZM661.459 353.687C661.659 352.447 660.746 352.99 658.408 352.141C652.022 352.719 648.648 354.446 646.343 357.217L646.777 358.359L638.209 359.675C637.257 359.822 636.305 359.968 636.422 361.159C636.099 364.432 629.718 361.785 629.078 365.107C626.857 365.449 625.905 365.595 625.47 364.453C625.47 364.453 625.353 363.262 625.91 362.37C625.871 361.973 624.841 361.326 624.841 361.326C623.7 356.263 634.033 343.393 630.086 332.717L629.652 331.574C632.391 329.945 630.933 324.931 634.741 324.346C633.872 322.061 633.16 321.365 632.408 320.271C633.561 318.886 634.991 317.054 635.392 314.575C634.045 313.976 633.689 313.628 633.611 312.834C633.455 311.246 638.137 309.721 637.703 308.579C637.269 307.436 635.365 307.729 635.209 306.141C634.741 301.377 642.72 297.331 640.153 290.875L639.719 289.733C638.455 286.704 642.024 286.962 641.194 285.074C640.76 283.932 638.739 283.034 638.583 281.446C638.505 280.652 647.057 266.041 647.057 266.041C646.105 266.187 646.066 265.79 645.988 264.996L645.871 263.806C645.832 263.409 645.515 263.457 645.437 262.663C645.281 261.076 647.742 259.892 647.308 258.75C647.308 258.75 646.673 258.847 645.682 258.596L644.736 255.518C644.736 255.518 651.5 242.391 651.027 240.851C650.075 240.998 648.806 241.193 648.372 240.05C649.563 239.062 649.724 237.425 650.994 237.23L651.946 237.084C653.7 231.979 655.977 222.361 657.809 218.051L657.258 215.718L659.162 215.425L659.045 214.234C658.811 211.852 661.071 211.908 661.589 210.62L660.448 205.557C664.028 199.366 665.865 191.83 669.406 185.242C668.933 183.703 661.885 177.533 659.981 177.825L657.442 178.215C655.104 177.365 654.118 173.89 652.532 174.134C651.58 174.28 651.379 175.52 651.613 177.901L651.73 179.092C651.886 180.68 651.568 180.729 651.685 181.92L651.763 182.714C650.332 184.545 646.318 189.594 645.205 191.377L642.983 191.718C642.426 192.61 642.543 193.801 642.582 194.198C642.777 196.182 644.481 197.13 645.466 200.605C645.538 204.623 642.359 208.335 640.488 212.249L641.513 216.121C642.064 218.454 637.031 216.406 638.807 221.372C640.188 225.592 635.027 228.803 636.129 233.469C636.129 233.469 636.802 233.768 637.198 234.514C636.719 236.199 633.339 241.15 633.339 241.15C635.583 250.88 628.779 263.61 629.13 267.183L629.247 268.374C629.364 269.564 628.528 270.902 629.319 272.392C629.714 273.137 629.831 274.328 630.505 274.628L628.918 274.871C625.745 275.359 626.028 294.657 625.555 293.118C625.037 294.406 624.442 294.9 623.567 295.841L622.615 295.987C623.089 297.526 623.84 298.619 624.592 299.713C623.239 302.338 623.35 306.754 623.422 310.772C624.959 316.58 619.247 317.458 619.792 323.015L617.888 323.307C617.927 323.704 618.679 324.798 619.074 325.543C620.655 328.524 617.042 331.094 617.237 333.078C617.276 333.475 617.91 333.378 618.623 334.074L619.575 333.928C619.513 346.429 613.768 343.685 614.87 348.351L615.972 353.017C616.407 354.159 610.004 364.41 608.256 366.291L607.621 366.388C606.786 367.725 606.669 366.534 606.78 370.95C608.406 371.103 610.11 372.05 610.343 374.432L610.46 375.623C609.903 376.514 608.951 376.66 608.317 376.758C604.509 377.343 600.784 375.497 599.515 375.692C598.88 375.79 598.919 376.187 598.919 376.187C599.236 376.138 599.949 376.834 599.988 377.231C600.066 378.025 599.787 378.471 599.47 378.52C599.431 378.123 598.401 377.475 597.449 377.621C597.132 377.67 596.892 378.513 596.931 378.91L595.027 379.202C591.336 380.978 584.154 383.29 582.044 388.046L582.478 389.188C575.179 390.31 576.521 394.133 573.03 394.669C572.078 394.815 571.716 397.692 571.872 399.279C572.105 401.661 575.758 399.488 577.345 399.245C579.521 401.731 581.147 401.884 583.207 403.18C583.641 404.322 583.959 404.273 584.593 404.176C585.545 404.029 586.458 403.486 586.38 402.692C586.497 403.883 586.575 404.677 586.932 405.025L588.201 404.83C587.962 405.673 588 406.07 588 406.07C588.947 409.148 596.669 415.618 601.624 416.872L602.576 416.726C604.797 416.385 606.301 418.571 606.891 421.301C606.256 421.399 604.129 435.829 604.168 436.226L604.285 437.417C604.402 438.608 604.162 439.45 604.279 440.641L604.396 441.832C603.127 442.027 602.848 442.473 602.926 443.267C603.043 444.457 604.429 445.453 604.546 446.644C604.585 447.041 604.663 447.835 604.385 448.281L603.115 448.476C601.328 449.959 601.206 451.993 601.479 454.772C601.556 455.565 602.425 457.85 602.742 457.801L603.377 457.704L603.967 460.434C600.471 464.194 596.646 474.452 598.422 479.418C598.856 480.56 599.485 483.687 600.437 483.541C600.988 485.874 601.144 487.462 599.674 488.896C598.683 488.646 597.653 487.998 597.336 488.047C596.701 488.144 596.779 488.938 596.896 490.129C596.935 490.526 597.33 491.271 598.321 491.522C598.199 493.555 596.84 499.405 596.038 504.364L595.721 504.413C593.249 512.045 592.285 518.641 594.457 524.351C594.891 525.494 595.086 527.478 596.155 528.523C596.272 529.714 592.413 536.351 593.432 543.447C594.384 543.301 595.136 544.395 596.127 544.645C596.522 545.39 592.68 565.322 593.231 567.655C594.768 573.463 597.546 572.231 597.663 573.422C597.858 575.406 595.241 575.003 596.109 577.287C596.544 578.429 605.295 585.547 607.834 585.157L608.786 585.011C612.544 590.478 619.253 586.627 621.825 589.858C624.247 588.277 632.031 582.246 629.943 574.105L631.53 573.861C630.901 570.734 632.253 568.109 634.158 567.816L635.11 567.67C634.007 563.004 635.121 561.221 634.926 559.236L634.887 558.84C641.886 548.094 645.115 538.33 645.076 537.933C644.959 536.742 642.777 537.48 642.621 535.892C643.022 533.413 644.263 526.372 645.85 526.129L646.802 525.982L646.212 523.252C647.053 518.691 650.276 512.152 648.105 506.441C647.671 505.299 647.554 504.108 646.802 503.014C646.686 501.823 646.964 501.378 647.56 500.883C648.629 501.928 650.494 501.239 649.547 498.16C649.074 496.621 646.14 496.266 646.101 495.869C646.023 495.075 651.179 495.089 649.442 490.52L649.007 489.378C648.295 488.682 648.256 488.285 647.861 487.54C646.714 485.701 649.174 484.517 649.297 482.484L649.18 481.293C649.141 480.896 648.111 480.248 648.072 479.851C647.955 478.66 648.156 477.421 648.674 476.132L646.424 469.628C645.951 468.088 646.708 465.957 646.475 463.576C646.436 463.179 645.25 460.943 644.298 461.089L643.98 461.138C644.816 459.801 644.704 455.386 643.68 451.513C642.578 446.847 640.206 442.376 638.703 440.189L637.433 440.384L636.921 438.448C636.37 436.115 635.301 435.071 633.798 432.884L632.223 426.679C631.594 423.552 623.393 418.767 622.441 418.913L621.489 419.059C620.899 416.329 618.449 411.064 614.607 408.028C617.107 407.241 618.661 403.376 618.349 400.2C618.31 399.803 617.241 398.758 616.528 398.062L616.373 396.474C616.178 394.489 616.139 394.092 615.705 392.95L615.27 391.808L616.222 391.662C618.761 391.272 621.834 379.92 622.825 380.171C622.67 378.583 623.622 378.437 623.187 377.295C624.457 377.1 624.891 378.242 625.843 378.096C624.78 373.826 629.34 374.335 631.088 372.455C632.396 372.657 634.579 371.919 636.165 371.675C638.069 371.382 640.497 366.577 642.401 366.285C647.044 364.363 654.154 358.032 654.154 358.032C655.741 357.789 656.175 358.931 657.127 358.785C659.983 358.346 660.98 355.372 661.459 353.687ZM664.443 347.99C663.29 349.376 663.446 350.964 664.198 352.057C664.833 351.96 665.15 351.911 665.901 353.004C670.033 349.146 673.562 349.007 677.298 344.404L675.912 343.408C671.152 344.139 667.182 346.361 664.443 347.99ZM611.768 398.793C610.181 399.037 608.79 401.265 609.146 401.613C609.858 402.31 610.61 403.403 611.362 404.497C611.796 405.639 611.2 406.133 610.883 406.182L610.209 405.883C609.931 406.328 609.057 407.268 608.105 407.415C606.201 407.707 605.889 404.531 602.081 405.116C599.859 405.457 596.485 407.185 594.264 407.526C592.36 407.818 590.656 406.871 590.105 404.538C589.515 401.808 589.676 400.171 592.176 399.384L597.137 397.414C600.789 395.241 603.295 391.23 608.689 390.401C609.959 390.206 612.464 386.195 614.129 386.745C614.602 388.284 613.088 392.546 613.283 394.531L613.322 394.928C613.516 396.913 613.99 398.452 612.085 398.744L611.768 398.793ZM619.963 429.77C622.218 433.051 624.712 435.488 628.08 436.986C627.88 438.225 628.314 439.367 628.748 440.509C630.485 445.078 633.731 448.609 634.677 451.687C635.151 453.226 635.267 454.417 634.75 455.706C636.136 456.702 636.214 457.496 636.648 458.638C636.253 457.892 636.915 464.641 635.88 467.218C637.466 466.974 637.583 468.165 638.892 468.367L639.844 468.221C640.161 468.172 640.874 468.868 640.913 469.265C641.107 471.25 640.912 492.233 638.49 493.814C640.712 493.473 641.341 496.6 642.326 500.075C635.345 501.148 642.042 503.745 639.097 509.839L639.136 510.236C639.214 511.03 639.331 512.221 638.735 512.715L639.169 513.857C640.038 516.142 637.777 516.086 638.251 517.625L639.314 521.894L638.362 522.04L638.479 523.231C638.518 523.628 633.585 532.445 633.941 532.793C633.941 532.793 634.019 533.587 634.336 533.538C634.81 535.077 631.953 535.516 632.07 536.707C632.148 537.501 634.208 538.796 634.442 541.178L634.559 542.369L631.385 542.856C627.605 550.287 625.45 557.871 621.274 564.557L619.37 564.849C614.928 565.532 611.793 566.416 609.015 567.649L608.347 564.125C607.835 562.189 606.766 561.144 605.814 561.29L605.697 560.099C606.649 559.953 608.714 558.024 608.319 557.279L606.66 553.504C606.265 552.759 607.217 552.613 607.178 552.216L607.1 551.422C607.061 551.025 606.983 550.231 607.579 549.736C606.231 549.138 605.558 548.838 605.046 546.902C608.536 546.366 605.096 540.85 606.844 538.97L605.775 537.925C607.245 536.49 607.368 534.457 606.816 532.124L607.768 531.978C607.535 529.596 608.097 525.48 607.863 523.098C607.785 522.304 607.746 521.907 607.034 521.211L606.048 517.736C606.366 517.687 606.961 517.192 606.883 516.399L606.844 516.002C607.796 515.855 607.719 515.061 608.632 514.518C608.236 513.773 607.167 512.728 607.128 512.331C606.817 509.156 608.448 506.084 607.936 504.148C607.463 502.609 604.751 511.085 604.362 507.115C604.245 505.924 603.415 504.037 604.367 503.891L607.541 503.403C607.39 498.591 606.923 493.827 608.794 489.913L607.725 488.869C607.251 487.33 609.395 486.195 609.278 485.004C609.239 484.607 607.853 483.611 607.775 482.817C607.736 482.42 607.658 481.626 608.254 481.132L607.502 480.038C610.358 479.599 609.807 477.266 609.456 473.694C609.378 472.9 608.309 471.855 607.875 470.713C604.006 460.831 614.239 460.065 611.166 448.448L610.142 444.576L611.094 444.43C611.216 442.396 613.516 442.849 614.033 441.561L612.97 437.292C611.829 432.228 612.864 429.652 613.705 425.09C616.561 424.651 618.064 426.838 619.529 428.628L619.963 429.77ZM636.831 513.008C635.562 513.203 635.445 512.012 634.454 511.761C634.609 513.349 633.657 513.495 633.457 514.735C635.044 514.491 635.478 515.633 636.43 515.487C635.996 514.345 636.909 513.802 636.831 513.008ZM817.905 309.914C814.543 305.192 808.09 298.527 804.282 299.112L802.417 299.801C800.513 300.094 801.075 295.978 799.171 296.27L798.219 296.416L798.414 298.401L797.462 298.547C797.033 294.181 793.219 297.99 792.234 294.515C785.57 295.539 782.251 310.957 772.414 312.468L772.013 314.948C772.052 315.345 772.324 318.123 772.007 318.172L771.372 318.27C767.247 318.903 749.419 353.877 748.935 358.787L747.348 359.031C746.953 358.286 746.914 357.889 746.279 357.986C745.327 358.132 745.633 364.533 744.798 365.87L744.915 367.061C742.454 368.244 742.844 372.214 740.978 372.903C741.73 373.997 742.164 375.139 742.281 376.33C742.788 381.49 741.112 387.389 741.618 392.55C741.969 396.122 742.559 398.852 744.697 400.942L745.398 408.087C746.506 409.529 746.857 413.101 749.474 413.505L749.785 416.681C751.923 418.77 759.334 422.065 758.382 422.211C759.016 422.113 758.938 421.32 759.256 421.271C763.765 427.831 768.915 431.07 774.627 430.192C776.214 429.949 777.444 429.357 778.797 426.731L779.749 426.585C781.058 426.787 782.01 426.641 783.597 426.397C792.482 425.032 800.193 414.983 806.268 411.23L807.22 411.083C807.515 400.964 823.561 387.217 822.508 376.499L821.556 376.645C820.287 376.84 814.797 386.548 810.672 387.182C809.72 387.328 809.046 387.029 808.016 386.381C808.133 387.572 807.894 388.415 806.942 388.561L806.229 387.864C806.424 389.849 805.511 390.393 804.559 390.539C803.289 390.734 801.38 394.251 800.428 394.397L799.793 394.494L799.949 396.082C800.901 395.936 801.613 396.632 801.652 397.029C801.769 398.22 799.743 400.546 796.887 400.985C795.617 401.18 794.982 401.277 794.626 400.929C795.5 399.989 796.53 400.637 795.662 398.352L790.144 401.215C789.504 404.537 785.618 404.327 785.774 405.915C785.969 407.9 786.72 408.994 786.759 409.391C786.759 409.391 786.837 410.184 786.202 410.282C785.807 409.537 785.807 409.537 784.855 409.683L781.999 410.122C781.047 410.268 780.095 410.414 779.226 408.13C780.774 407.489 783.708 407.844 783.753 405.017L782.522 405.609C776.053 408.617 771.894 405.629 766.816 406.409C765.865 406.555 764.835 405.908 763.882 406.054C763.96 406.848 763.365 407.342 762.93 406.2C762.93 406.2 762.257 405.901 762.179 405.107C759.134 400.336 754.847 402.606 754.535 399.431C754.457 398.637 755.053 398.142 754.975 397.348C754.936 396.951 754.184 395.858 754.106 395.064C753.717 391.094 752.252 389.305 755.315 384.402L757.82 380.39C758.46 377.069 760.843 375.091 760.376 370.327L759.424 370.473L759.307 369.283C759.073 366.901 760.108 364.324 759.875 361.942C759.797 361.148 759.68 359.957 759.285 359.212C759.401 360.403 758.845 361.294 757.893 361.441C757.575 361.489 757.497 360.696 756.863 360.793L757.681 369.129C755.576 370.661 754.78 372.395 752.242 372.785L751.289 372.932L751.017 370.153C751.056 370.55 752.086 371.198 752.72 371.1C754.624 370.808 756.651 368.482 756.495 366.894C756.378 365.703 755.983 364.958 755.309 364.658C755.265 367.486 753.439 368.572 750.9 368.962C752.57 366.288 755.109 365.898 754.875 363.516C754.797 362.722 754.007 361.232 753.572 360.09C754.641 361.134 754.959 361.085 755.593 360.988C757.497 360.696 757.308 355.486 760.086 354.254L760.554 359.017C764.045 358.481 763.972 354.463 766.751 353.23C766.083 349.706 763.906 347.22 763.75 345.632C763.75 345.632 764.39 342.31 766.294 342.018C768.198 341.725 767.675 346.238 769.618 346.342C770.771 344.957 771.366 344.462 771.249 343.271C771.132 342.08 768.477 341.279 768.36 340.089C768.282 339.295 768.282 339.295 768.878 338.8C769.947 339.845 770.899 339.699 771.851 339.552C775.659 338.968 777.14 331.084 779.328 327.121C779.484 328.709 780.436 328.563 780.948 330.499L781.9 330.353C783.726 329.266 783.136 326.536 785.358 326.195L786.31 326.049L786.232 325.255C785.959 322.476 789.884 323.082 791.593 320.805L792.545 320.659C796.036 320.123 800.635 321.028 801.353 318.5L801.158 316.515L802.745 316.272C804.649 315.979 804.811 314.343 806.715 314.05L808.301 313.807L808.457 315.394C808.652 317.379 809.604 317.233 810.873 317.038L816.586 316.161C817.421 314.824 818.891 313.389 818.657 311.007C818.657 311.007 818.579 310.213 817.827 309.12L817.905 309.914ZM761.974 363.635C763.605 360.563 767.018 359.233 766.946 355.215C764.88 357.144 762.141 358.774 761.974 363.635ZM787.227 414.154C787.188 413.757 787.11 412.963 786.358 411.87C787.945 411.626 787.505 413.708 788.257 414.802C790.161 414.509 790.283 412.476 792.187 412.183C792.655 416.947 789.955 418.973 786.781 419.461C785.829 419.607 784.204 419.454 783.808 418.709C783.853 415.881 787.577 417.727 787.227 414.154ZM931.502 413.754L932.454 413.608C926.909 409.624 922.121 403.509 919.995 394.971C914.233 378.932 919.583 357.963 920.708 349.731C920.992 346.061 918.336 345.26 918.698 342.384L922.473 338.178C919.862 334.549 920.669 326.366 921.588 322.599C924.105 312.138 928.526 301.386 930.012 290.278C930.575 286.162 926.811 283.919 927.095 280.249C919.807 274.921 914.051 278.626 907.587 278.41C907.269 278.459 907.308 278.856 907.03 279.301C908.611 282.282 907.898 281.586 909.958 282.881C909.786 290.967 897.509 303.732 893.612 309.972C892.498 311.754 893.918 316.372 892.448 317.806C890.778 320.481 887.326 321.414 886.012 324.436C884.898 326.219 885.884 329.694 884.809 331.874C883.896 332.417 882.983 332.96 882.109 333.9C879.798 339.897 876.814 345.593 874.542 351.986C868.658 360.949 856.57 378.924 854.41 389.732L852.506 390.025C852.361 381.988 853.692 369.292 856.676 363.595C854.46 360.712 856.877 362.356 854.182 361.158C855.691 360.12 854.46 360.712 857.038 360.719L859.599 347.431C861.03 345.6 859.56 347.034 858.096 345.245C858.97 344.304 859.288 344.256 861.47 343.518C860.802 339.994 861.593 341.484 860.446 339.645C860.446 339.645 859.344 334.979 860.847 337.166C861.52 337.466 861.838 337.417 862.194 337.765C862.322 332.507 860.825 327.096 864.243 322.541C862.027 319.658 862.74 320.354 860.641 318.662C862.751 313.906 866.838 312.875 866.849 306.426C866.415 305.284 867.088 305.583 865.463 305.43C865.028 304.288 864.951 303.494 864.873 302.7C867.211 303.55 866.576 303.647 868.319 304.991C868.603 301.321 868.603 301.321 870.351 299.441C868.965 298.445 868.965 298.445 866.704 298.389C866.949 294.322 866.866 296.753 870.078 296.662C868.854 294.03 868.97 295.221 867.506 293.431L868.458 293.284C868.859 290.805 868.776 293.236 870.797 294.134C869.655 289.071 869.889 291.453 867.479 286.585C871.331 283.172 872.445 281.39 875.663 278.075C875.546 276.884 875.468 276.09 875.073 275.345C874.516 276.236 874.277 277.079 873.759 278.367L871.855 278.66C871.872 268.986 876.643 261.806 877.094 253.275C879.711 253.679 878.759 253.825 880.819 255.121C880.663 253.533 880.902 252.69 881.064 251.053C882.495 249.222 880.39 250.754 878.926 248.964C881.632 243.713 890.19 202.91 888.252 199.581C889.923 196.907 893.374 195.973 893.658 192.303L891.61 184.559C893.792 183.821 895.579 182.337 898.04 181.154C902.138 173.674 900.796 169.851 900.284 167.915C903.385 163.409 903.747 160.533 906.809 155.63C907.645 154.293 906.821 149.181 908.647 148.095C907.227 143.477 907.661 144.619 905.886 139.654C905.529 139.305 905.212 139.354 904.817 138.609C902.556 138.553 900.613 138.449 898.314 137.996C897.919 137.251 897.445 135.712 897.011 134.57L890.113 133.211C888.031 144.814 884.796 157.802 882.596 168.214C880.848 170.094 879.84 179.516 879.044 181.251C877.123 191.216 877.234 195.632 875.313 205.598C873.882 207.429 872.769 209.212 871.694 211.392C869.139 221.455 871.143 232.027 864.428 239.102C866.722 242.78 864.98 241.435 867.557 241.442C867.746 246.652 866.761 243.176 864.456 245.948C866.516 247.244 866.394 249.277 865.915 250.963C865.514 253.442 865.28 251.06 863.259 250.162C863.248 256.61 854.022 293.89 853.704 293.939C855.208 296.126 854.495 295.429 855.564 296.474L855.681 297.665L852.825 298.103L854.718 304.26L851.544 304.747C853.114 314.177 847.001 317.533 848.537 323.342L845.364 323.829C846.388 327.701 845.397 327.451 846.822 328.843C846.06 334.199 843.159 337.465 841.205 343.809C843.025 345.948 843.331 352.348 843.014 352.396L839.84 352.884C839.401 354.966 843.003 358.845 841.728 362.265C840.854 363.205 838.626 366.771 838.465 368.407L840.436 375.358L838.214 375.699C837.457 377.83 838.242 382.545 840.135 388.701L836.961 389.189C837.429 393.952 838.526 401.843 837.807 404.371C844.06 412.275 845.997 415.604 855.116 416.621C856.146 417.269 855.473 416.97 857.455 417.471C858.429 404.427 872.504 383.73 871.447 376.236C871.692 372.169 872.36 375.693 873.434 373.513C876.018 370.296 875.182 371.633 874.08 366.967C876.897 366.131 875.311 366.375 877.888 366.382C884.62 349.633 901.823 331.276 907.414 309.464L909.318 309.171L907.319 318.343L907.786 323.107L904.763 328.406L903.527 332.223L904.902 339.668L904.106 341.402L902.352 346.506L902.502 351.319L901.183 357.566L900.899 361.236L900.771 366.494L903.855 371.661L901.31 375.276L902.173 380.784L905.102 384.364L904.3 389.323L907.941 393.599L910.63 398.021L913.915 401.949L917.595 406.622L917.233 409.499L923.496 410.954L929.437 415.683L931.502 413.754ZM865.48 249.82C864.295 247.585 865.046 248.678 863.938 247.237C864.055 248.427 864.094 248.824 864.528 249.967L865.48 249.82ZM876.342 275.15C874.878 273.36 875.591 274.056 874.522 273.012C874.561 273.409 874.995 274.551 875.073 275.345L876.342 275.15ZM847.345 393.235C846.632 392.539 846.554 391.745 846.476 390.951L848.38 390.658C848.776 391.404 848.853 392.197 849.566 392.894L847.345 393.235ZM1032.72 273.295L1033.47 271.164C1032.92 268.83 1032.29 265.704 1031.35 262.625C1031.07 259.847 1029.05 258.948 1026.83 259.289L1025.24 259.533L1025.13 258.342C1021.92 258.433 1021.2 257.736 1017 257.576C1017.95 260.654 1016.99 264.025 1017.07 264.819L1014.99 273.197C1014.75 274.039 1015.11 274.388 1014.51 274.882L1013.2 277.904L1012.24 278.051C1010.66 278.294 1009.83 276.407 1008.4 275.014L1007.93 273.475C1007.1 271.588 1005.55 272.228 1005.08 270.689L1002.54 271.079C1001.63 271.622 1002.38 272.716 1001.74 272.813L999.361 274.791C999.044 274.84 999.795 275.933 999.517 276.379C998.765 275.285 997.101 274.735 996.466 274.833L996.148 274.881L992.101 276.309L992.535 277.451C992.413 279.485 991.655 281.616 990.781 282.556L986.138 284.478C981.695 285.16 974.485 303.595 975.203 301.067C970.955 303.734 957.665 329.146 958.055 333.116C954.247 333.701 954.558 336.876 952.927 339.947C953.879 339.801 954.553 340.101 954.67 341.292C951.769 344.558 953.629 347.093 953.506 349.126C948.306 351.94 945.867 363.194 946.53 369.942C946.608 370.736 946.685 371.53 947.398 372.227C945.494 372.519 945.054 374.601 945.21 376.189C945.561 379.762 948.528 383.739 952.492 384.742L952.609 385.932C952.013 386.427 951.696 386.476 952.052 386.824C953.238 389.059 958.588 391.058 957.636 391.205L958.588 391.058L958.9 394.234C961.4 393.447 959.54 390.912 961.366 389.826C962.319 389.68 962.552 392.061 963.504 391.915L966.043 391.525C966.082 391.922 966.795 392.619 967.747 392.472C975.68 391.254 970.77 387.173 973.509 385.543C973.626 386.734 974.339 387.43 974.656 387.382C975.291 387.284 975.252 386.887 975.135 385.696L975.018 384.505L976.566 383.865C977.796 383.273 980.942 375.94 981.059 377.13C980.942 375.94 980.625 375.988 979.873 374.895C981.343 373.46 985.981 374.763 984.678 371.336L984.283 370.591L986.07 369.108C985.992 368.314 986.827 366.977 986.71 365.786L986.593 364.595L987.545 364.449L989.739 357.262L990.769 357.909C991.086 357.861 991.086 357.861 991.047 357.464C991.086 357.861 991.443 358.209 991.443 358.209C992.395 358.063 993.631 354.246 994.466 352.909L995.101 352.812C996.888 351.328 997.801 350.785 997.684 349.594C997.528 348.006 998.085 347.115 997.372 346.418C998.92 345.778 1000.75 344.691 1000.79 341.864L1003.22 333.834C1004.81 333.59 1004.94 328.332 1006.49 327.692L1006.06 343.069C1006.85 344.559 1006.37 346.245 1006.61 348.626C1006.76 353.439 1007.46 360.584 1007.54 361.378C1007.73 363.363 1008.21 364.902 1008.92 365.598C1008.01 366.142 1007.49 367.43 1007.92 368.572C1009.19 371.602 1010.14 371.455 1010.25 372.646C1010.29 373.043 1009.22 375.223 1009.41 377.208C1009.65 379.59 1011.83 378.851 1012.93 383.518C1012.3 383.615 1013.44 385.454 1013.8 385.802C1016.65 388.588 1017.09 389.73 1019.54 391.77L1021.56 392.669C1022.2 392.571 1022.59 393.317 1022.63 393.714C1022.67 394.11 1022.35 394.159 1022.39 394.556C1022.47 395.35 1022.79 395.301 1023.42 395.204L1024.06 395.106C1025.09 395.754 1025.48 396.499 1027.03 395.859L1028.58 395.218C1029.53 395.072 1029.89 395.42 1029.73 393.832L1026.17 390.35C1024.7 388.56 1024.15 386.227 1022.45 385.28L1021.26 383.044C1020.87 382.299 1019.91 382.445 1019.76 380.857C1020.59 379.52 1020.52 378.726 1019.96 376.393C1019.45 374.457 1019.18 371.678 1018.43 367.361L1018.17 361.357C1017.26 358.676 1019.01 356.796 1017.54 355.006C1017.5 354.609 1019.09 354.365 1018.97 353.174L1018.82 351.587C1019.14 351.538 1019.93 349.804 1019.81 348.613C1019.7 347.422 1018.99 346.725 1018.67 346.774C1018.67 346.774 1018.43 347.617 1017.79 347.714C1016.84 347.861 1016.76 347.067 1016.76 347.067C1016.72 346.67 1017.28 345.778 1017.2 344.984L1017.16 344.587C1018.04 343.647 1018.24 342.408 1018.01 340.026L1018.56 339.134C1018.45 337.943 1017.18 338.138 1017.14 337.742C1017.1 337.345 1018.68 337.101 1018.53 335.513L1018.49 335.116C1020.08 334.872 1019.6 333.333 1020.48 332.393L1022.3 331.307C1022.23 330.513 1021.63 331.007 1020.68 331.153L1019.73 331.3C1020.52 329.566 1020.84 326.292 1021.64 324.558C1021.52 323.367 1021.52 323.367 1020.57 323.514C1020.46 322.323 1019.98 320.784 1020.9 320.24L1021.85 320.094L1021.77 319.3C1021.65 318.109 1023.12 316.675 1023.08 316.278C1023.01 315.484 1021.5 316.521 1021.3 314.537C1020.99 311.361 1024.6 312.016 1025.04 309.933L1024.88 308.346C1024.14 300.803 1029.14 299.229 1028.4 291.687C1027.45 291.833 1026.66 290.343 1026.54 289.152L1026.42 287.961L1027.38 287.815C1027.42 288.212 1027.73 288.163 1027.73 288.163C1028.37 288.066 1028.96 287.571 1029.24 287.126L1028.61 283.999C1031.47 283.56 1029.61 281.025 1031.47 280.335L1030.64 278.448L1029.69 278.594C1029.06 278.692 1028.11 278.838 1027.99 277.647C1029.58 277.403 1029.46 276.213 1029.66 274.973L1032.72 273.295ZM1005.21 308.143C1004.34 309.083 1003.39 309.229 1003.5 310.42C1004.14 310.323 1004.49 310.671 1004.49 310.671C1004.61 311.862 1000.27 320.184 1000.07 321.424L1000.19 322.615C1000.27 323.409 999.989 323.854 999.355 323.952C999.355 323.952 999.037 324 998.363 323.701C998.402 324.098 998.163 324.941 998.163 324.941L996.409 330.045L995.457 330.192C993.87 330.435 994.577 334.356 993.308 334.551L992.395 335.094L992.985 337.824L991.081 338.117C991.71 341.244 992.779 342.289 992.857 343.082C992.896 343.479 992.896 343.479 992.579 343.528C991.944 343.626 991.905 343.229 991.27 343.326C991.27 343.326 990.953 343.375 990.992 343.772C991.07 344.566 991.148 345.36 991.543 346.105C990.591 346.251 990.118 344.712 990.04 343.918C989.806 341.536 991.281 336.877 991.165 335.686L990.847 335.735C988.943 336.028 990.045 340.694 986.354 342.469L986.471 343.66C986.549 344.454 986.588 344.851 985.953 344.949C986.109 346.537 985.19 350.304 983.921 350.499C983.286 350.597 982.93 350.248 982.574 349.9L981.02 353.765C981.137 354.956 968.939 368.515 967.586 371.141C965.676 374.658 964.568 373.216 962.464 374.748C960.999 372.958 960.565 371.816 960.37 369.831C960.137 367.45 960.894 365.318 962.247 362.693L963.121 361.753C963.004 360.562 963.917 360.019 963.8 358.828C962.531 359.023 962.336 357.038 962.141 355.053L963.093 354.907C962.659 353.765 963.533 352.825 964.763 352.233C963.694 351.188 961.868 352.274 961.078 350.784C958.032 346.013 958.389 346.362 957.643 342.044C959.307 342.594 959.664 342.942 959.781 344.133C959.859 344.927 962.87 346.076 962.909 346.473C962.948 346.87 963.344 347.615 964.218 346.675C964.852 346.578 964.975 344.544 964.975 344.544L969.178 344.704C969.145 341.083 968.561 335.129 973.8 332.712L974.434 332.615C976.656 332.273 973.41 328.742 976.266 328.304C980.208 319.236 985.18 310.817 989.551 306.116L989.395 304.528L990.347 304.382C992.568 304.041 991.978 301.311 992.496 300.022L993.131 299.925C995.352 299.584 994.762 296.854 997.618 296.415L998.253 296.318C1000.79 295.928 998.815 292.202 1001.67 291.763L1002.62 291.617L1006.24 285.823L1008.86 283.002C1010.85 283.504 1011.68 285.391 1011.75 286.185C1012.96 298.491 1003.31 308.435 1005.21 308.143ZM1003.56 324.112C1002.92 324.21 1002.53 323.464 1002.41 322.273C1002.29 321.083 1002.53 320.24 1003.45 319.697C1004.08 319.599 1004.4 319.55 1004.48 320.344C1004.59 321.535 1003.76 322.872 1003.88 324.063L1003.56 324.112ZM989.939 356.022C990.257 355.973 990.335 356.767 990.73 357.512C990.335 356.767 989.622 356.071 989.939 356.022ZM1071.29 374.152C1078.64 363.755 1082.43 353.1 1088.32 340.912C1102.16 317.833 1118.38 296 1127.49 280.498C1130.71 273.959 1132.77 275.254 1130.95 273.116L1131.9 272.97C1132.58 270.045 1132.26 273.318 1133.92 273.868C1134.24 270.595 1134.16 273.026 1133.21 269.948C1137.58 265.247 1142.94 264.021 1147.31 259.32C1149.06 257.44 1149.34 256.994 1150.81 252.335C1152.63 254.474 1153.47 253.136 1155.77 250.365C1155.58 248.38 1157.24 248.93 1157.05 246.945C1153.84 247.036 1153.48 246.687 1152.01 248.122C1147.37 250.044 1136 265.491 1131.43 271.431C1114.61 293.758 1098.24 314.003 1082.29 341.838C1080.29 347.786 1078.27 350.112 1072.78 359.82C1071.86 360.363 1070.01 357.828 1068.77 358.42C1067.38 340.905 1074.7 323.661 1077.78 309.085C1079.14 303.235 1077.68 298.221 1078.69 292.023C1079.53 287.461 1083.15 281.667 1083.95 276.708C1089.64 239.568 1100.37 184.732 1108.75 152.014C1113.49 141.212 1117.56 126.887 1118.77 116.225C1117.55 110.368 1120.49 107.499 1117.68 105.11C1112.29 99.4895 1108.97 98.3891 1105.91 100.067C1104.64 100.262 1103.41 100.854 1102.46 101.001C1100.46 110.172 1098.77 122.52 1096.61 133.329L1093.11 140.314C1092.79 143.587 1095.72 143.942 1095.56 145.579C1095.13 160.956 1088.76 178.053 1086.67 192.88C1085.27 201.557 1082.9 216.83 1081.46 225.11C1079.5 234.679 1077.54 244.248 1075.86 253.371C1076.33 258.135 1073.71 257.731 1074.02 260.906L1072.75 264.326C1073.42 264.625 1073.42 264.625 1073.5 265.419C1073.77 268.198 1070.27 271.958 1070.43 273.546L1070.55 274.737C1070.86 277.913 1068.9 284.257 1069.02 285.448L1069.06 285.845C1068.98 288.276 1067.27 290.553 1067.38 291.744L1067.42 292.141C1068.12 299.286 1063.99 303.144 1064.15 304.732L1064.34 306.717C1064.38 307.114 1064.5 308.305 1064.18 308.354C1063.07 306.912 1058.9 333.341 1057.32 333.585C1057 333.634 1057.08 334.428 1057.12 334.825L1056.71 340.528C1054.59 351.734 1053.35 358.775 1052.42 368.991C1051.85 376.332 1051.29 380.447 1054.05 385.664C1057.38 389.989 1060.83 389.055 1064.15 393.38C1066.02 392.691 1067.88 392.002 1069.79 391.709C1068.72 387.44 1069.83 388.882 1068.72 387.44C1068.93 382.976 1067.47 381.186 1068.9 379.354C1069.85 379.208 1071.08 378.616 1072.35 378.421L1071.29 374.152ZM1109.02 135.049C1111.26 125.034 1115.45 111.9 1115.77 108.627C1118.31 108.237 1112.33 126.079 1110.89 134.36L1109.93 134.506C1109.62 134.555 1109.3 134.603 1109.02 135.049ZM1107.4 154.639C1106.45 154.786 1104.94 152.599 1104.79 151.011C1104.67 149.82 1107.57 149.778 1107.29 147L1107.18 145.809C1107.02 144.221 1107.38 141.345 1108.3 137.577C1108.57 140.356 1110.63 144.876 1109.08 145.516C1107.61 146.951 1108.35 154.493 1107.4 154.639ZM1084.09 192.873L1085.05 189.502L1086.37 183.255L1086.3 179.237L1091.16 163.177L1091.77 156.234L1093.25 151.575L1093.38 146.317L1091.91 147.751L1089.95 157.32L1089.62 160.593L1088.74 164.758L1085.51 177.746L1083.75 182.851L1082.95 187.81L1082.11 192.371L1082.46 195.944L1083.17 199.865L1084.09 192.873ZM1081.45 208.591L1082.53 203.187L1081.58 200.108L1080.5 205.513L1080.06 210.819L1081.45 208.591ZM1078.01 222.819L1077.54 221.28L1075.95 224.748L1077.65 228.92L1078.01 222.819ZM1071.86 248.747L1074.17 245.975L1075.96 241.267L1076.68 235.515L1077.76 230.11L1076.69 229.066L1076.57 231.099L1074.9 233.774L1075.29 240.968L1072.78 244.979L1071.23 248.844L1071.93 252.765L1071.86 248.747ZM1070.33 262.682L1071.16 261.345L1071.61 256.038L1069.46 263.622L1070.33 262.682ZM1053.99 375.196L1055.47 367.313L1057.98 363.302L1056.1 370.44L1056.65 375.997L1054.03 375.593L1053.99 375.196ZM1174.32 212.863C1173.74 206.908 1179.47 193.133 1179.31 191.545C1179.12 189.56 1176.51 185.932 1176.39 184.741C1176.27 183.55 1183.18 181.684 1182.67 176.523L1182.48 174.538C1186.06 165.123 1186.56 150.54 1188.71 149.405C1192.16 145.247 1188.37 136.159 1192.86 132.649C1193.62 130.518 1195.09 129.083 1194.82 126.304L1194.5 123.129C1194.46 122.732 1194.39 121.938 1193.32 120.893C1195.9 117.676 1199.09 107.515 1198.9 105.53C1198.86 105.133 1198.74 103.942 1198.31 102.8L1198.19 101.609C1197.88 98.4333 1197.92 95.6058 1197.69 93.224C1197.34 89.6513 1199.16 88.565 1198.93 86.1832C1198.66 83.4044 1198.31 79.8318 1194.9 77.9374L1193.87 77.2897C1189.71 74.3019 1189.39 74.3506 1187.53 75.0401C1186.58 75.1863 1185.94 75.2838 1185.98 75.6807C1185.03 75.827 1184.71 75.8757 1184.79 76.6696L1185.15 77.0179C1184.19 77.1641 1184.27 77.958 1184.27 77.958C1184.31 78.355 1181.14 78.8423 1181.37 81.2241C1181.41 81.6211 1180.06 84.2466 1180.13 85.0405C1180.17 85.4375 1178.9 88.8569 1179.22 88.8082C1179.85 88.7107 1180.17 88.6619 1180.69 87.3736C1181.16 88.9127 1181.28 90.1036 1181.35 90.8975C1181.94 96.852 1179.83 98.3841 1179.95 99.575C1179.99 99.9719 1180.11 101.163 1180.5 101.908C1178.28 102.249 1175.33 111.567 1174.44 118.956C1174.32 120.99 1174.87 123.323 1175.94 124.368C1177.49 120.503 1178.61 115.495 1179.45 110.934L1181.99 110.544C1182.31 110.495 1183.9 110.251 1183.98 111.045C1184.09 112.236 1177.86 137.37 1176.51 139.995C1176.63 141.186 1176.35 141.632 1176.46 142.823C1176.54 143.617 1176.58 144.014 1177.02 145.156C1174.35 147.58 1171.44 160.519 1171.11 163.792L1171.27 165.38C1171.85 171.335 1168.91 174.204 1169.46 179.761L1169.62 181.349C1168.15 182.784 1166.95 183.773 1167.19 186.154L1167.66 187.694C1167.54 189.727 1163.99 202.764 1161.04 208.858C1159.37 211.532 1151.01 254.32 1151.36 257.893L1151.55 259.878C1151.59 260.275 1151.67 261.069 1151.35 261.117C1149.77 261.361 1145.6 287.79 1144.49 286.349C1144.17 286.397 1144.29 287.588 1144.33 287.985L1144.52 289.97C1144.68 291.558 1140.55 295.416 1141.25 302.561L1141.29 302.958C1141.4 304.149 1139.69 306.427 1139.61 308.857L1139.65 309.254C1139.77 310.445 1137.81 316.789 1138.12 319.965L1138.24 321.156C1138.4 322.744 1134.9 326.504 1135.17 329.283C1135.25 330.077 1135.25 330.077 1135.92 330.377L1136.48 332.71C1136.79 335.885 1134.33 333.845 1134.8 338.608L1135.19 342.578C1135.31 343.769 1135.42 344.96 1134.79 345.057C1135.14 348.63 1136.56 353.247 1136.68 354.438C1134.45 354.779 1133.94 356.068 1133.81 358.101L1134.4 360.831C1133.65 362.962 1129.76 365.978 1129.91 367.566L1131.73 372.928C1131.53 374.168 1127.83 375.944 1127.99 377.531C1127.99 377.531 1131.27 381.459 1134.17 381.418C1136.07 381.125 1147.98 374.461 1147.48 369.3L1147.4 368.506C1148.35 368.36 1149.15 366.626 1149.03 365.435L1148.63 364.69C1148.4 362.308 1148.96 358.192 1148.65 355.017C1148.18 350.253 1146.59 353.721 1145.41 351.486C1147.31 351.193 1148.18 350.253 1147.95 347.871L1147.83 346.68C1151.84 344.856 1150.92 325.655 1152.83 325.363C1154.3 323.928 1154.5 322.689 1154.38 321.498L1154.15 319.116C1154.03 317.925 1153.91 316.734 1154.75 315.397C1154.71 315 1154.31 314.255 1154.31 314.255L1153.41 311.574C1154.76 308.948 1156.47 306.671 1156.51 303.843C1156.2 300.668 1157.3 285.59 1159.92 282.77C1159.17 281.676 1159.05 280.485 1158.97 279.691C1158.97 279.691 1165.54 267.803 1164.95 261.849L1164.48 260.31C1164.25 257.928 1168.06 257.343 1169.09 254.766C1169.33 253.924 1166.04 253.22 1165.81 250.839C1167.39 250.595 1168.48 241.966 1168.48 241.966C1167.81 241.667 1167.73 240.873 1167.69 240.476C1168.32 240.378 1168.64 240.33 1168.56 239.536L1168.52 239.139C1173.14 230.371 1172.95 225.161 1174.32 212.863ZM1173.88 126.297C1172.92 126.443 1172.17 125.35 1171.18 125.099C1171.34 126.687 1171.02 126.735 1170.5 128.024C1172.09 127.78 1172.52 128.922 1173.47 128.776L1173.44 128.379C1173.36 127.585 1173.99 127.488 1173.88 126.297ZM1167.09 172.066C1167.58 167.156 1171.65 149.606 1171.07 143.652L1170.95 142.461C1170.68 139.682 1173.58 139.64 1173.46 138.449C1173.3 136.861 1171.8 134.675 1170.85 134.821C1169.9 134.967 1170.64 142.509 1169.17 143.944C1167.02 145.079 1172.44 154.321 1168.31 154.955L1167.36 155.101C1165.92 163.381 1164.56 172.456 1167.09 172.066ZM1280.37 302.147C1266.7 313.917 1272.85 317.406 1263.8 320.407C1256.42 323.959 1248.7 334.008 1240.05 337.755C1236.24 338.34 1232.83 339.67 1230.84 342.393L1209.26 345.707C1204.39 345.247 1202.46 338.694 1201.95 333.533C1200.97 323.609 1203.25 313.992 1202.39 305.258C1202.16 302.877 1201.61 300.543 1201.38 298.162C1201.14 295.78 1204.19 297.326 1203.88 294.15C1203.84 293.753 1203.09 292.66 1203.01 291.866C1202.9 290.675 1203.53 290.578 1203.85 290.529C1207.66 289.944 1213.72 292.639 1218.56 292.702C1218.28 293.148 1218.28 293.148 1218.36 293.942C1218.47 295.133 1219.78 295.335 1221.69 295.042C1227.4 294.165 1224.08 289.84 1227.57 289.304C1228.91 289.903 1229.66 290.996 1231.57 290.704L1233.47 290.411C1237.6 289.778 1250.13 269.721 1250.13 269.721C1250.01 268.53 1249.34 268.231 1249.22 267.04L1250.17 266.893C1252.71 266.504 1253.58 265.563 1253.43 263.976C1253.35 263.182 1252.56 261.691 1252.44 260.5C1252.88 258.418 1254.11 257.826 1253.76 254.253C1254.4 254.156 1254.79 254.901 1255.43 254.804C1255.43 254.804 1255.74 254.755 1255.67 253.961C1254.67 253.71 1254.24 252.568 1253.49 251.475C1255 250.437 1255.28 249.991 1255.16 248.8C1254.73 244.434 1249.97 245.165 1249.74 242.783C1249.5 240.401 1252.36 239.963 1252.09 237.184C1251.46 230.833 1236.2 226.326 1233.98 226.667C1229.22 227.399 1224.66 230.114 1221.08 233.081L1221.2 234.272C1218.93 237.441 1215.95 239.913 1212.3 242.086L1211.35 242.232C1208.81 242.622 1205.27 245.986 1204.43 250.547L1204.19 254.614L1202.28 254.907C1201.33 255.053 1200.26 257.233 1200.3 257.63C1200.3 257.63 1200.37 258.424 1200.69 258.375C1200.09 262.094 1191.82 276.259 1191.78 275.862C1191.93 277.45 1193.96 278.348 1194.07 279.539C1193.99 281.97 1192.4 282.213 1192.28 284.247L1191.92 287.123C1190.73 288.112 1190.29 290.194 1189.09 291.183C1189.06 287.562 1191.53 283.153 1191.29 280.772C1191.22 279.978 1190.86 279.629 1189.83 278.982C1187.84 284.929 1186.09 286.809 1186.56 291.573C1186.67 292.764 1186.79 293.955 1187.58 295.445C1187.93 299.018 1183.6 300.891 1184.42 309.227C1184.77 312.8 1185.64 315.084 1186.59 314.938C1186.91 314.889 1187.47 313.998 1188.26 312.264C1187.63 312.361 1187.31 312.41 1187.2 311.219C1187.08 310.028 1189.3 309.687 1188.95 306.115C1188.72 303.733 1188.24 302.194 1187.53 301.497C1188.16 301.4 1188.56 302.145 1188.56 302.145C1192.05 301.609 1189.8 295.104 1192.66 294.665C1193.29 294.568 1193.41 295.759 1193.49 296.553C1193.84 300.125 1191.25 303.343 1191.49 305.725C1191.61 306.916 1191.68 307.709 1192.67 307.96L1192.79 309.151L1191.2 309.395C1191.79 315.349 1190.24 319.214 1187.18 320.893C1187.42 320.05 1188.01 319.556 1187.9 318.365C1187.82 317.571 1187.15 317.271 1185.8 316.672C1185.4 319.152 1183.29 320.684 1183.64 324.256C1187.77 323.623 1185.98 328.33 1191.69 327.453L1192.96 327.258L1193.03 331.277L1191.44 331.52C1191.2 332.363 1191.24 332.76 1191.4 334.348C1192.49 345.463 1206.91 354.531 1206.95 354.928C1207.9 354.781 1208.22 354.733 1208.1 353.542C1210.39 357.219 1219.55 361.857 1226.21 360.834C1227.8 360.59 1229.03 359.998 1229.86 358.661L1233.35 358.125C1237.4 356.697 1237.53 351.439 1242.29 350.708L1244.51 350.367C1244.95 348.285 1247.62 342.637 1249.17 341.996L1250.44 341.801C1257.1 340.778 1252.16 333.075 1257.23 332.295C1258.19 332.149 1258.34 333.737 1259.93 333.493C1262.15 333.152 1264.34 329.189 1264.1 326.807L1263.95 325.22C1266.45 321.208 1273.45 313.687 1275.35 313.395L1276.3 313.248C1278.93 310.428 1281.47 306.814 1283.02 302.948C1282.98 302.551 1282.27 301.855 1281.32 302.001L1280.37 302.147ZM1209.8 265.841C1210.04 264.998 1209.68 264.65 1209.05 264.747C1208.73 264.796 1208.41 264.845 1208.14 265.291C1210.01 261.377 1212.35 259.002 1214.66 256.23C1216.44 254.747 1217.2 252.616 1219.42 252.275L1221.33 251.982C1221.73 249.503 1224.03 249.956 1224.86 248.619C1224.63 246.237 1222.44 246.975 1222.21 244.593C1222.05 243.005 1223.84 241.522 1224.79 241.376C1225.11 241.327 1225.79 241.626 1225.86 242.42L1229.04 241.933C1229.91 240.993 1231.46 240.352 1232.73 240.157C1235.58 239.718 1237.76 242.205 1239.9 244.294L1239.49 249.998C1238.37 255.005 1239.46 266.12 1216.05 276.97C1213.9 278.105 1206.21 278.481 1206.73 277.192L1209.8 265.841ZM1211.94 264.706C1211.94 264.706 1212.58 264.608 1213.49 264.065C1214.09 260.346 1216.31 260.005 1216.99 257.08C1216.92 256.286 1216.6 256.335 1215.96 256.432C1214.06 256.725 1211.35 261.976 1211.59 264.357C1211.63 264.754 1211.63 264.754 1211.94 264.706ZM1370.04 254.124C1369.8 251.743 1368.46 247.919 1368.46 247.919L1365.22 241.164L1363 241.505C1362.05 241.651 1361.1 241.797 1360.35 240.704C1361.26 240.161 1361.26 240.161 1361.22 239.764C1361.06 238.176 1352.34 237.904 1351.39 238.05C1350.47 238.593 1349 240.028 1348.49 241.316L1349.24 242.41C1347.33 242.702 1347.45 243.893 1346.18 244.088L1343.64 244.478C1341.74 244.771 1339.28 245.954 1339.51 248.336L1338.88 248.434C1338.75 250.467 1333.8 249.214 1334.07 251.992L1334.19 253.183C1333.11 255.363 1323.82 265.656 1324.32 270.816L1324.01 270.865C1322.74 271.06 1322.81 271.854 1322.97 273.442L1323.17 275.427C1323.28 276.618 1323.04 277.46 1322.09 277.607L1319.23 278.045C1317.33 278.338 1316.77 279.229 1316.93 280.817C1317.01 281.611 1317.01 281.611 1317.44 282.753C1314.59 283.192 1315.01 287.558 1313.74 287.753L1312.79 287.899L1308.49 296.619C1307.58 300.386 1300.45 316.39 1297 317.323L1303.9 292.489C1303.47 288.122 1309.72 276.283 1309.1 269.932C1309.02 269.138 1308.38 269.235 1308.38 269.235C1308.9 267.947 1311.17 264.778 1311.25 265.572L1311.17 264.778C1313.47 262.006 1314.72 251.741 1314.96 247.674C1315.17 246.434 1315.37 245.195 1315.17 243.21C1314.5 242.91 1314.3 240.926 1314.22 240.132C1313.68 234.574 1314.56 230.409 1307.11 226.718C1305.77 222.895 1298.83 221.14 1290.58 222.407C1290.62 222.804 1290.34 223.25 1290.38 223.646L1291.97 223.403C1296.41 222.72 1297.23 231.057 1298.05 239.393C1297.41 239.49 1297.31 251.594 1296.12 252.583C1295.92 253.823 1296.04 255.014 1296.15 256.205C1296.23 256.999 1296.66 258.141 1298.33 258.691C1296.81 262.953 1293.66 276.735 1293.66 276.735L1293.77 277.926C1293.93 279.514 1293.33 280.008 1293.53 281.993C1292.97 286.109 1291.61 288.735 1292 292.704L1292.12 293.895C1290.33 295.378 1289.26 297.558 1288.54 300.086L1288.74 302.071C1289.01 304.85 1287.14 305.539 1286.39 307.67L1286.46 308.464C1287.32 317.197 1279.81 326.007 1281.25 340.695L1281.29 341.092C1280.7 341.586 1280.42 342.032 1280.49 342.826C1280.73 345.208 1283.9 347.945 1285.56 348.495L1285.72 350.083C1290.16 349.4 1288.74 344.783 1291.08 342.408L1294.57 341.872C1295.21 341.775 1293.03 342.513 1293.11 343.307L1293.26 344.894C1293.34 345.688 1293.73 346.434 1294.01 345.988C1296.41 337.561 1302.3 325.374 1306.28 316.703L1307.55 316.509C1307.95 314.029 1308.43 312.344 1310.29 311.655L1312.2 311.362L1311.57 308.235L1312.84 308.04C1315.26 303.235 1319.43 299.774 1320.51 294.369L1321.67 292.984C1326.56 286.994 1332.17 275.253 1336.86 267.279C1337.26 264.8 1347.43 253.567 1348.94 252.529L1349.89 252.383C1349.78 251.192 1349.78 251.192 1350.73 251.046L1352.18 259.284C1349.24 262.154 1352.91 273.276 1349.97 279.369L1350.59 285.721C1350.98 289.69 1347.72 292.608 1348.07 296.181C1348.31 298.563 1349.18 300.847 1350.24 301.892C1348.57 304.566 1352.28 319.309 1352.32 319.706C1353.22 325.612 1361.71 343.246 1363.38 343.796L1364.33 343.65C1362.83 338.239 1362.29 332.681 1362.05 330.299L1361.94 329.108C1361.86 328.314 1361.78 327.521 1362.73 327.374C1362.69 326.977 1364.2 306.196 1364.83 306.099C1365.11 305.653 1367.41 302.881 1367.34 302.087C1367.34 302.087 1365.28 300.792 1365.16 299.601C1365.12 299.204 1365.08 298.807 1365.64 297.916L1365.48 296.328C1368.02 295.938 1368.31 289.043 1368.83 284.53L1368.52 281.355C1368.41 280.164 1371.2 272.482 1370.73 267.719C1370.65 266.925 1370.53 265.734 1370.1 264.592L1370.14 261.764C1370.03 260.573 1369.63 259.828 1368.65 256.353L1369.6 256.207C1369.6 256.207 1370.12 254.918 1370.04 254.124ZM1488.41 350.785C1486.62 352.268 1484.6 351.37 1482.38 351.711C1481.42 351.857 1480.39 351.209 1479.44 351.356L1479.33 350.165C1479.05 347.386 1477.15 347.678 1476.91 345.297C1477.23 345.248 1480.22 336.327 1480.11 335.136C1480.03 334.342 1479.71 334.391 1478.72 334.14L1477.77 334.286C1478.84 332.106 1480.59 330.226 1480.36 327.844C1480.28 327.05 1479.84 325.908 1478.85 325.657C1480.12 325.462 1481 324.522 1481.91 323.979C1481.56 320.406 1480.37 318.171 1480.14 315.789C1480.02 314.598 1480.54 313.31 1481.69 311.924L1481.38 308.748C1481.03 305.176 1480.01 301.303 1479.58 296.937C1478.25 283.44 1474.51 268.3 1471.47 260.304C1466.66 247.344 1462.83 237.858 1461.06 229.668C1460.7 226.096 1462.25 225.455 1462.17 224.661C1462.06 223.47 1460.35 222.523 1460.24 221.332C1460.2 220.935 1460.75 220.044 1462.02 219.849C1462.1 220.643 1462.78 220.942 1462.78 220.942C1464.68 220.65 1466.72 211.875 1467.44 209.347C1466.8 209.444 1466.48 209.493 1466.37 208.302L1466.25 207.111C1468.87 204.291 1472.81 195.223 1472.58 192.842L1472.54 192.445L1471.59 192.591C1470.64 192.737 1470.36 193.183 1469.41 193.329C1468.77 193.426 1468.49 193.872 1467.98 195.161L1466.07 198.677C1464.99 200.857 1463.96 200.21 1461.3 202.633L1460.35 202.779C1460.04 199.604 1457.46 196.372 1451.75 197.249C1450.8 197.396 1445.06 194.652 1445.25 196.636L1445.37 197.827C1444.45 198.37 1443.5 198.517 1443.7 200.502L1443.74 200.898L1439.93 201.483C1436.75 201.971 1439.13 206.442 1438.25 207.382C1437.62 207.48 1436.59 206.832 1436.27 206.881C1430.87 207.709 1425.57 222.626 1420.25 227.473L1420.37 228.664L1419.42 228.811C1418.58 230.148 1418.34 230.99 1418.46 232.181C1418.58 233.372 1419.01 234.514 1419.05 234.911C1419.13 235.705 1419.13 235.705 1418.81 235.754C1418.17 235.851 1417.22 235.998 1415.84 235.002C1414.28 238.867 1413.77 240.155 1413.8 243.777L1414.03 246.158L1412.13 246.451C1410.34 247.934 1406.04 259.878 1406 259.481L1401.87 260.114C1400.07 268.047 1394.26 281.028 1392.44 282.114L1392.55 283.305C1390.88 285.979 1389.02 286.669 1389.45 291.036L1389.56 292.226L1388.61 292.373C1387.26 294.998 1385.5 300.103 1385.85 303.676C1385.89 304.073 1386.01 305.263 1386.41 306.009L1387.36 305.862L1387.75 309.832C1387.86 311.023 1387.98 312.214 1387.03 312.36L1386.08 312.506C1384.29 313.99 1386.74 319.255 1384.87 319.944C1384.44 318.802 1384.6 317.165 1383.33 317.36C1383.57 319.742 1384.63 320.787 1384.67 321.184C1384.79 322.375 1383.92 323.315 1384.07 324.903C1385.09 335.224 1399.27 341.91 1399.35 342.704C1399.39 343.101 1400.74 343.7 1401.69 343.553C1403.59 343.261 1404.47 342.321 1404.35 341.13L1405.3 340.984C1405.38 341.778 1406.05 342.077 1406.05 342.077L1406.37 342.028C1407.12 343.122 1407.52 343.867 1408.47 343.721C1410.37 343.428 1412.68 340.657 1412.48 338.672L1414.7 338.331C1417.01 335.559 1420.08 327.432 1419.61 322.668L1419.38 320.286C1419.18 318.301 1420.02 316.964 1421.92 316.672L1421.8 315.481C1425.49 313.705 1425.98 308.795 1427.85 304.882C1426.9 305.028 1426.54 304.68 1426.46 303.886C1426.35 302.695 1427.06 300.167 1427.34 299.721L1427.11 297.339L1428.06 297.193C1429.57 296.155 1429.73 294.519 1430.25 293.23L1432.76 285.995C1434.99 279.204 1443.59 261.766 1444.55 258.396C1446.74 254.433 1450.21 240.602 1452.43 240.261C1453.38 240.115 1453.85 244.878 1454.84 248.353L1455.79 248.207C1455.83 248.604 1455.27 249.495 1455.31 249.892C1455.5 251.877 1457.13 252.031 1457.36 254.412C1457.48 255.603 1456.85 255.701 1457.08 258.082C1457.86 266.022 1460.87 267.171 1461.22 270.744L1461.65 275.11C1462.12 279.874 1463.3 282.109 1463.42 283.3C1463.46 283.697 1463.54 284.491 1463.38 286.128L1466.14 314.312C1465.23 314.855 1465.35 316.046 1465.54 318.031C1465.89 321.604 1467.31 326.221 1467.43 327.412C1467.58 329 1466.71 329.94 1466.87 331.528L1466.98 332.719C1465.99 332.468 1465.36 332.566 1465.36 332.566C1465.04 332.614 1467.18 334.704 1467.41 337.085L1467.53 338.276C1466.58 338.423 1465.78 340.157 1465.86 340.951C1466.01 342.538 1467.28 342.343 1468.03 343.437C1466.57 344.871 1465.41 346.257 1465.72 349.433L1464.77 349.579C1464.49 353.249 1463.89 356.968 1460.08 357.553C1458.17 357.846 1456.15 356.947 1455.2 357.093C1455.2 357.093 1454.88 357.142 1454.92 357.539L1456.07 359.378L1452.26 359.963C1451.23 359.315 1450.56 359.015 1449.61 359.162C1448.34 359.357 1446.87 360.791 1446.03 362.128L1445.08 362.275C1437.42 366.272 1430.8 364.468 1424.21 369.51C1422.62 369.754 1422.74 370.944 1421.47 371.139C1420.52 371.286 1419.53 371.035 1418.57 371.181C1416.03 371.571 1415.24 373.305 1414.09 374.691L1411.23 375.13C1408.17 380.032 1400 378.869 1400.51 384.03L1397.65 384.468C1395.11 384.858 1393.32 386.342 1392.49 387.679L1390.27 388.02C1388.56 390.297 1383.72 390.234 1383.51 394.699L1381.61 394.991C1377.64 397.212 1370.81 403.097 1371 405.082L1369.1 405.374C1368.9 406.614 1368.3 407.108 1367.99 407.157C1367.35 407.255 1367.03 407.303 1366.36 407.004C1364.57 408.487 1361.99 411.705 1361.75 412.547L1361.63 411.356C1357.31 413.23 1357.93 419.581 1356.03 419.874C1355.08 420.02 1354.72 419.672 1352.94 417.93C1351.9 420.507 1351.34 421.399 1351.46 422.59C1351.5 422.986 1351.62 424.177 1352.37 425.271C1360.07 421.67 1366.86 415.389 1371.71 412.227C1371.82 413.418 1372.38 412.527 1372.7 412.478C1376.04 407.129 1402.35 393.014 1403.07 390.486C1406.05 388.013 1415.02 384.218 1414.07 384.364L1416.29 384.023C1417.24 383.877 1418.91 384.427 1419.86 384.281C1420.81 384.135 1421.05 383.292 1420.93 382.101L1420.82 380.91L1421.77 380.764C1423.52 378.884 1427.73 375.82 1427.09 375.917C1429 375.625 1429.67 375.924 1429.99 375.875C1430.62 375.778 1430.94 375.729 1432.8 375.04C1433.79 375.29 1434.75 375.144 1435.7 374.998C1441.41 374.121 1449.51 368.041 1456.81 366.92C1458.71 366.628 1460.06 367.227 1462 367.331C1462.47 372.095 1460.65 373.181 1460.76 374.372L1460.8 374.769C1460.56 375.612 1461.04 377.151 1460.08 377.297L1459.13 377.443L1459.25 378.634C1459.56 381.81 1457.66 382.102 1457.57 384.533C1458.84 384.338 1459.52 384.637 1459.52 384.637C1459.63 385.828 1457.85 387.311 1457.96 388.502L1459.23 388.307C1460.82 388.064 1461.1 387.618 1461.02 386.824C1460.9 385.633 1460.47 384.491 1460.43 384.094C1460.31 382.903 1461.26 382.757 1461.58 382.708C1462.53 382.562 1462.69 384.15 1463.4 384.846C1462.05 387.472 1463.03 390.947 1460.18 391.386L1457.32 391.824C1456.84 393.51 1456.64 394.749 1455.77 395.689L1455.54 393.308L1453 393.698L1453.27 396.476C1453.62 400.049 1451.23 405.251 1450.47 407.382C1450.75 410.161 1450.66 412.592 1450.22 414.674L1453.14 404.959C1457.62 401.449 1459.93 395.453 1463.35 390.898L1464.3 390.752C1464.86 389.861 1464.82 389.464 1464.74 388.67C1464.7 388.273 1463.99 387.576 1463.88 386.385C1463.76 385.194 1465.35 384.951 1465.23 383.76C1464.99 381.378 1463.29 380.431 1463.17 379.24C1463.13 378.843 1463.13 378.843 1464.01 377.903C1466.86 380.689 1466.66 378.704 1469 382.778C1469.68 376.629 1475.56 370.89 1475.02 365.333L1474.74 362.554C1474.67 361.76 1474.39 358.981 1475.66 358.786L1475.78 359.977C1475.9 361.168 1476.57 361.468 1476.89 361.419C1477.84 361.273 1478.64 359.539 1480.22 359.295L1481.17 359.149C1483.4 358.807 1483.8 356.328 1486.02 355.987L1492.36 355.012C1491.94 350.646 1489.39 354.26 1488.41 350.785ZM1457.39 215.322C1456.76 215.419 1456.8 215.816 1456.56 216.659C1455.24 219.681 1448.23 217.132 1448.7 221.896C1447.7 221.645 1446.67 220.997 1446.52 219.41C1446.44 218.616 1446.4 218.219 1447.35 218.072C1449.18 216.986 1449.46 213.316 1452.32 212.877C1452.64 212.829 1453.67 213.476 1454.3 213.379C1456.52 213.038 1457.16 209.716 1458.75 209.472C1459.07 209.423 1459.78 210.12 1460.14 210.468C1456.96 210.955 1458.54 213.936 1457.71 215.273L1457.39 215.322ZM1447.21 229.779C1447.21 233.004 1445.3 236.521 1443.46 244.056C1442.3 248.666 1441.07 252.483 1440.47 256.202L1440.58 257.393C1440.34 258.235 1439.75 258.73 1439.43 258.778C1438.8 258.876 1438.19 262.595 1437.16 261.947C1433.71 266.105 1433.55 267.741 1430.16 275.917L1430.47 279.093L1428.57 279.385C1422.52 289.985 1412.96 314.018 1406.73 316.184L1404.51 316.525C1403.48 315.877 1402.81 315.578 1402.49 315.627C1400.59 315.919 1401.66 313.739 1401.08 307.785L1400.8 305.006C1400.76 304.609 1400.52 305.452 1400.52 305.452C1399.89 305.549 1399.85 305.152 1399.73 303.961C1399.54 301.977 1401.52 302.478 1401.33 300.493L1401.29 300.096C1404.23 294.003 1412.55 277.01 1412.04 271.85L1411.97 271.056L1412.92 270.909C1414.67 269.029 1417.09 267.448 1416.66 263.082L1416.54 261.891C1417.49 261.745 1418.45 261.598 1418.33 260.407L1418.21 259.217C1419.44 258.625 1438.33 227.92 1437.7 228.017L1438.33 227.92C1441.11 226.687 1439.18 223.358 1442.98 222.773C1444.89 222.481 1444.29 226.2 1446.27 226.701L1447.22 226.555L1447.21 229.779ZM1501.53 349.977C1499.95 350.221 1498.68 350.416 1498.08 350.91C1497.21 351.85 1496.89 351.899 1497.01 353.09C1497.96 352.944 1498.39 354.086 1499.35 353.94L1501.25 353.647C1501.17 352.853 1501.17 352.853 1501.81 352.756C1502.12 352.707 1503.15 353.355 1503.79 353.257C1504.74 353.111 1504.98 352.269 1505.38 349.789C1503.76 349.636 1502.49 349.831 1501.53 349.977ZM1349.22 432.604C1349.11 431.413 1349.98 430.473 1349.86 429.282C1348.87 429.031 1345.82 427.485 1344.87 427.631C1344.95 428.425 1347.01 429.721 1347.32 432.897L1349.22 432.604ZM1339.26 439.373C1339.34 436.943 1340.18 435.605 1341.76 435.362C1342.08 435.313 1343.03 435.167 1344.06 435.814C1343.87 433.83 1344.39 432.541 1344.66 432.096C1342.25 430.452 1342.44 432.437 1339.39 430.891C1339.59 432.875 1337.95 435.947 1338.15 437.931C1338.27 439.122 1338.62 439.471 1339.26 439.373ZM1448.67 418.539C1449.23 417.648 1450.06 416.31 1450.22 414.674L1448.67 418.539ZM1445.96 423.79L1448.67 418.539C1447 421.213 1444.82 421.951 1445.01 423.936L1445.96 423.79ZM1332.06 451.358C1331.62 450.216 1331.59 449.819 1331.47 448.628C1331.04 444.262 1336.2 444.276 1337.35 439.666L1336.4 439.812C1334.81 440.055 1333.39 438.663 1332.44 438.809C1331.8 438.906 1331.52 439.352 1331.01 440.64C1331.64 440.543 1332.04 441.288 1332.04 441.288C1332.08 441.685 1331.12 441.831 1330.17 441.977L1329.22 442.124C1328.46 444.255 1328.26 445.494 1328.38 446.685C1328.5 447.876 1328.93 449.018 1329.05 450.209L1329.2 451.797L1332.06 451.358ZM1326.46 456.651C1326.34 455.46 1327.21 454.52 1327.1 453.329C1327.06 452.932 1326.42 453.03 1326.03 452.284C1326.11 453.078 1325.27 454.415 1325.39 455.606C1325.43 456.003 1325.75 455.955 1326.46 456.651ZM1431.85 444.09C1431.77 446.521 1431.25 447.809 1429.98 448.004C1429.34 448.102 1428.39 448.248 1427.96 447.106L1428.19 449.488L1427.48 448.791C1416.22 471.877 1402.17 476.453 1402.64 481.216C1399.82 482.052 1399.85 485.673 1396.04 486.258L1395.09 486.404C1394.49 490.123 1390.64 490.311 1390.36 493.981L1387.19 494.469C1384.65 494.859 1381.11 501.447 1377.97 505.556L1376.7 505.751C1376.58 504.56 1375.95 504.657 1375.95 504.657C1373.72 504.998 1372.21 509.26 1371.65 510.152C1372.33 510.451 1373.71 511.447 1374.47 512.541C1371.93 512.931 1369.15 514.163 1368.95 512.178C1368.91 511.781 1369.47 510.89 1369.75 510.444C1367.53 510.785 1368.12 513.515 1364.43 515.291L1363.47 515.438C1362.64 516.775 1361.68 520.145 1360.1 520.389C1359.78 520.438 1359.07 519.741 1358.71 519.393C1356.44 522.562 1355.57 523.502 1354.3 523.697L1348.59 524.574C1347.67 525.117 1346.8 526.058 1345.85 526.204C1345.21 526.301 1344.18 525.654 1343.87 525.702C1341.96 525.995 1340.45 527.032 1339.77 529.957C1339.42 529.609 1338.7 528.913 1338.39 528.961C1336.48 529.254 1329.94 531.468 1330.25 534.644C1328.66 534.888 1327.63 534.24 1326.56 533.195C1325.8 535.326 1325.84 535.723 1323.94 536.016C1320.85 534.073 1317 534.261 1311.1 533.153C1311.56 537.917 1312.63 542.186 1316.47 541.998L1317.43 541.852C1317.82 542.597 1318.46 542.499 1318.49 542.896C1318.61 544.087 1316.9 546.365 1317.02 547.555C1320.94 548.161 1321.26 551.337 1326.33 550.557L1327.29 550.411C1328.43 552.25 1331.01 552.257 1333.87 551.818C1337.04 551.331 1339.34 548.559 1341.25 548.266L1341.57 548.218C1344.31 546.588 1347.87 546.846 1347.41 542.082L1348.36 541.936C1349.58 544.569 1351.57 545.07 1353.83 545.126C1353.71 543.935 1355.46 542.055 1355.38 541.261C1355.38 541.261 1355.02 540.913 1354.39 541.01L1353.44 541.156C1353.24 539.171 1354.15 538.628 1356.06 538.336L1357.65 538.092C1357.13 539.38 1356.21 539.924 1356.41 541.908L1357.36 541.762C1359.27 541.47 1361.57 538.698 1361.49 537.904C1361.34 536.316 1360.27 535.272 1360.19 534.478C1360.15 534.081 1360.07 533.287 1361.02 533.141C1361.54 535.077 1363.48 535.181 1365.38 534.889C1368.24 534.45 1371.61 532.723 1371.46 531.135C1371.38 530.341 1370.63 529.248 1368.69 529.143L1369.64 528.997C1372.49 528.558 1373.28 530.049 1375.31 530.947C1376.39 522.319 1381.94 523.078 1389.89 515.41C1393.14 512.492 1399.78 504.623 1399.43 501.05L1400.38 500.904C1408.14 488.027 1421.13 472.734 1420.81 472.783C1423.87 471.105 1423.92 465.053 1425.79 461.139L1427.7 460.846C1427.98 457.176 1434.14 447.768 1438.2 443.116L1439.15 442.969C1439.39 442.127 1439.35 441.73 1439.27 440.936C1439.23 440.539 1438.8 439.397 1438.68 438.206C1438.6 437.412 1438.56 437.015 1439.44 436.075L1438.49 436.221C1436.06 437.802 1437.56 443.213 1434.71 443.652L1431.85 444.09ZM1318.42 469.973C1318.23 467.989 1319.18 467.842 1319.06 466.652C1318.11 466.798 1317.68 465.656 1317.04 465.753C1317.16 466.944 1316.29 467.884 1316.32 468.281C1317.28 468.135 1317.39 469.326 1318.42 469.973ZM1301.31 505.644C1300.56 504.551 1300.12 503.408 1300.08 503.011C1299.73 499.439 1305.45 498.561 1305.97 494.049L1305.41 494.94C1305.09 494.989 1304.06 494.341 1303.39 494.042L1304.03 493.944L1303.95 493.15C1303.44 487.99 1312.17 488.262 1311.7 483.498L1311.66 483.101C1310.19 484.536 1309.24 484.682 1308.92 484.731L1306.38 485.12C1305.11 485.315 1299.56 487.781 1300.26 494.926C1300.57 494.877 1300.57 494.877 1300.65 495.671C1300.65 495.671 1299.74 496.214 1298.79 496.361L1297.83 496.507C1297.08 498.638 1296.88 499.877 1296.99 501.068C1297.11 502.259 1297.55 503.401 1297.66 504.592L1297.82 506.18L1301.31 505.644ZM1306.99 524.113C1306.87 522.923 1306.2 522.623 1306.12 521.829C1306 520.638 1306.84 519.301 1306.72 518.11C1306.56 516.522 1305.42 514.684 1303.51 514.976C1303.2 515.025 1302.32 515.965 1301.49 517.302L1301.37 516.111C1301.14 513.73 1298.32 514.565 1297.45 512.281C1297.93 510.596 1299.87 510.7 1299.64 508.318L1299.48 506.73C1296.11 508.457 1292.37 513.061 1292.72 516.633C1293.62 525.764 1303.26 522.268 1305.2 525.597L1305.39 527.582C1305.55 529.169 1305.98 530.312 1306.94 530.165C1308.52 529.922 1310.47 526.802 1310.24 524.42L1310.16 523.626L1306.99 524.113ZM1371.26 509.407C1371.34 510.201 1371.65 510.152 1371.65 510.152L1371.26 509.407ZM1591.68 254.332C1578.02 266.102 1584.16 269.591 1575.12 272.592C1567.73 276.144 1560.02 286.193 1551.37 289.94C1547.56 290.525 1544.15 291.855 1542.16 294.578L1520.58 297.892C1515.7 297.432 1513.77 290.879 1513.27 285.718C1512.29 275.794 1514.57 266.177 1513.71 257.443C1513.48 255.062 1512.93 252.728 1512.69 250.347C1512.46 247.965 1515.51 249.511 1515.2 246.335C1515.16 245.938 1514.41 244.845 1514.33 244.051C1514.21 242.86 1514.85 242.763 1515.17 242.714C1518.97 242.129 1525.04 244.824 1529.87 244.887C1529.6 245.333 1529.6 245.333 1529.67 246.127C1529.79 247.318 1531.1 247.52 1533 247.227C1538.72 246.35 1535.39 242.025 1538.88 241.489C1540.23 242.088 1540.98 243.181 1542.89 242.889L1544.79 242.596C1548.92 241.963 1561.44 221.906 1561.44 221.906C1561.33 220.715 1560.65 220.416 1560.54 219.225L1561.49 219.078C1564.03 218.689 1564.9 217.748 1564.74 216.161C1564.67 215.367 1563.88 213.876 1563.76 212.685C1564.2 210.603 1565.43 210.011 1565.08 206.438C1565.71 206.341 1566.11 207.086 1566.74 206.989C1566.74 206.989 1567.06 206.94 1566.98 206.146C1565.99 205.895 1565.56 204.753 1564.81 203.66C1566.31 202.622 1566.59 202.176 1566.48 200.985C1566.05 196.619 1561.29 197.35 1561.05 194.968C1560.82 192.586 1563.68 192.148 1563.4 189.369C1562.78 183.018 1547.52 178.511 1545.3 178.852C1540.54 179.584 1535.97 182.299 1532.4 185.266L1532.51 186.457C1530.25 189.626 1527.27 192.098 1523.62 194.271L1522.67 194.417C1520.13 194.807 1516.59 198.17 1515.75 202.732L1515.51 206.799L1513.6 207.092C1512.65 207.238 1511.57 209.418 1511.61 209.815C1511.61 209.815 1511.69 210.609 1512.01 210.56C1511.41 214.279 1503.13 228.444 1503.1 228.047C1503.25 229.635 1505.27 230.533 1505.39 231.724C1505.31 234.155 1503.72 234.398 1503.6 236.432L1503.23 239.308C1502.04 240.297 1501.6 242.379 1500.41 243.368C1500.38 239.747 1502.84 235.338 1502.61 232.957C1502.53 232.163 1502.18 231.814 1501.15 231.167C1499.15 237.114 1497.41 238.994 1497.87 243.758C1497.99 244.949 1498.11 246.14 1498.9 247.63C1499.25 251.203 1494.92 253.076 1495.74 261.412C1496.09 264.985 1496.96 267.269 1497.91 267.123C1498.23 267.074 1498.79 266.183 1499.58 264.449C1498.95 264.546 1498.63 264.595 1498.51 263.404C1498.4 262.213 1500.62 261.872 1500.27 258.3C1500.03 255.918 1499.56 254.379 1498.85 253.682C1499.48 253.585 1499.88 254.33 1499.88 254.33C1503.37 253.794 1501.12 247.289 1503.97 246.85C1504.61 246.753 1504.73 247.944 1504.8 248.738C1505.15 252.31 1502.57 255.528 1502.81 257.91C1502.92 259.101 1503 259.894 1503.99 260.145L1504.11 261.336L1502.52 261.58C1503.11 267.534 1501.55 271.399 1498.5 273.078C1498.74 272.235 1499.33 271.741 1499.21 270.55C1499.14 269.756 1498.46 269.456 1497.12 268.857C1496.71 271.337 1494.61 272.869 1494.96 276.441C1499.09 275.808 1497.29 280.515 1503.01 279.638L1504.27 279.443L1504.35 283.462L1502.76 283.705C1502.52 284.548 1502.56 284.945 1502.72 286.533C1503.81 297.648 1518.23 306.716 1518.27 307.113C1519.22 306.966 1519.53 306.918 1519.42 305.727C1521.71 309.404 1530.86 314.042 1537.53 313.019C1539.12 312.775 1540.35 312.183 1541.18 310.846L1544.67 310.31C1548.72 308.882 1548.85 303.624 1553.61 302.893L1555.83 302.552C1556.27 300.47 1558.94 294.822 1560.48 294.181L1561.75 293.986C1568.42 292.963 1563.47 285.26 1568.55 284.48C1569.5 284.334 1569.66 285.922 1571.25 285.678C1573.47 285.337 1575.66 281.374 1575.42 278.992L1575.27 277.405C1577.77 273.393 1584.76 265.872 1586.67 265.58L1587.62 265.433C1590.24 262.613 1592.79 258.999 1594.34 255.133C1594.3 254.736 1593.59 254.04 1592.64 254.186L1591.68 254.332ZM1521.12 218.026C1521.36 217.183 1521 216.835 1520.37 216.932C1520.05 216.981 1519.73 217.03 1519.45 217.476C1521.32 213.562 1523.67 211.187 1525.97 208.415C1527.76 206.932 1528.52 204.801 1530.74 204.46L1532.64 204.167C1533.04 201.688 1535.34 202.141 1536.18 200.804C1535.94 198.422 1533.76 199.16 1533.53 196.778C1533.37 195.19 1535.16 193.707 1536.11 193.561C1536.43 193.512 1537.1 193.811 1537.18 194.605L1540.35 194.118C1541.23 193.178 1542.78 192.537 1544.04 192.342C1546.9 191.903 1549.08 194.39 1551.22 196.479L1550.81 202.183C1549.69 207.19 1550.78 218.305 1527.36 229.155C1525.22 230.29 1517.53 230.666 1518.04 229.377L1521.12 218.026ZM1523.26 216.891C1523.26 216.891 1523.9 216.793 1524.81 216.25C1525.41 212.531 1527.63 212.19 1528.31 209.265C1528.23 208.471 1527.92 208.52 1527.28 208.617C1525.38 208.91 1522.67 214.161 1522.9 216.542C1522.94 216.939 1522.94 216.939 1523.26 216.891ZM1618.76 303.766C1620.71 303.87 1622.57 303.181 1624.48 302.888C1626.02 302.248 1627.93 301.955 1629.48 301.314C1631.98 300.528 1634.16 296.565 1636.94 298.557C1637.58 295.235 1638.76 297.47 1639.68 296.927C1641.22 296.287 1642.41 295.298 1643.92 294.26C1645.43 293.222 1646.94 292.185 1648.41 290.75C1651.39 288.278 1653.97 285.061 1655.88 281.544C1652.47 259.906 1630.68 247.94 1616.29 242.494C1615.42 240.21 1616.14 240.906 1615.07 239.861C1614.68 235.892 1615.24 231.776 1616.16 228.008C1616.88 225.48 1617.91 222.903 1618.95 220.327C1619.47 219.038 1621.73 215.87 1623.96 212.304L1625.2 205.263L1627.9 206.461C1629.25 203.836 1630.68 202.004 1631.24 201.113C1632.63 198.884 1629.69 198.529 1631.09 196.3C1633.03 196.405 1634.81 198.146 1636.52 195.869C1638.31 194.385 1639.5 190.172 1640.97 188.737C1643.08 187.205 1643.15 191.224 1644.66 190.186C1652.64 186.14 1658.75 186.008 1665.52 189.4C1665.88 186.523 1665.6 186.969 1666.4 185.235C1665.14 178.981 1647.72 165.54 1642.21 165.177C1640.5 164.23 1638.32 164.968 1635.9 166.549C1634.39 167.587 1632.32 169.516 1630.61 171.793C1623.34 179.76 1616.18 192.142 1611.66 195.255L1612.12 200.019L1607.68 200.701C1608.43 201.794 1609.14 202.491 1610.21 203.536C1605.6 212.303 1595.58 225.124 1604.09 236.309C1604.84 240.627 1606.85 244.75 1610.1 248.281C1611.2 249.723 1612.95 251.067 1614.37 252.46L1618.17 255.099C1624.05 252.585 1625.66 259.187 1628.4 260.782C1631.09 261.98 1627.73 254.034 1633.79 263.178C1636.48 264.376 1639.49 265.525 1641.83 266.375C1642.18 269.948 1642.41 272.33 1641.34 274.509C1637.68 283.131 1627.2 284.739 1620.42 284.572C1615.98 285.254 1609.39 287.072 1606.62 285.08C1597.18 284.112 1603.7 275.051 1604.93 274.46C1606.48 273.819 1605.33 275.205 1604.9 270.838C1602.8 272.37 1602.16 272.468 1600.73 274.299C1597.68 272.753 1599.69 280.1 1598.31 275.88C1595.57 277.51 1598.15 277.517 1595.37 278.749C1590.79 287.914 1591.09 297.539 1593.74 301.564C1597.39 302.616 1601.04 303.668 1604.61 303.925C1606.9 304.378 1608.85 304.483 1611.11 304.538C1609.88 301.906 1612.42 301.516 1618.76 303.766ZM1693.53 205.648C1694.09 204.757 1694.64 203.865 1694.88 203.023C1694.84 202.626 1694.33 203.914 1693.53 205.648ZM1642.79 240.036C1656.45 231.491 1676.65 220.732 1687.65 211.386C1680.47 213.698 1678.44 216.024 1673.6 219.186C1669.04 218.678 1649.86 230.084 1642.79 240.036ZM1641.76 236.164C1642.04 235.718 1640.57 237.153 1639.62 237.299C1639.3 237.348 1640.37 238.393 1640.65 237.947L1641.76 236.164ZM1631.91 247.348C1633.98 245.419 1636.99 243.344 1640.64 241.171C1638.23 239.528 1634.78 240.461 1632.47 243.233C1632.39 245.663 1632.31 244.869 1631.79 246.157L1631.91 247.348ZM1634.92 248.498C1635.19 251.276 1638.22 245.977 1640.17 242.857C1638.74 244.688 1636.67 246.617 1634.29 248.595L1634.92 248.498ZM1605.89 271.089C1607.4 273.276 1610.93 269.912 1612.28 267.287C1611.61 266.987 1610.7 267.53 1609.15 268.171C1608.28 269.111 1607.08 270.1 1605.89 271.089ZM1617.09 283.472C1616.26 281.584 1612.46 282.169 1611.7 281.076C1611.78 281.87 1614.16 283.116 1614.24 283.91L1617.09 283.472Z" fill="url(#paint0_linear_5032_171)"/>
<defs>
<linearGradient id="paint0_linear_5032_171" x1="-1639.74" y1="-122.677" x2="-1484.39" y2="1193.71" gradientUnits="userSpaceOnUse">
<stop offset="1" stop-color="#C6DDFF"/>
<stop offset="0.358685" stop-color="#D2EED9"/>
<stop stop-color="#D8E5E7"/>
</linearGradient>
</defs>
</svg>
