<svg xmlns="http://www.w3.org/2000/svg" width="357" height="181" fill="none"><path fill="#fff" d="m348.074 38.306.191-.013c.192-.014.329.105.333.17-.343.6-.882 1.151-1.43 1.575l-.191.013c-.383.027-1.844 1.155-2.378 1.77l.017.256c.027.383-.443.993-.89 1.024-.319.023-.337-.233-.529-.22-1.021.072-.098 1.355-1.438 1.449l-.256.017c-.314.087-.895.961-1 1.29l-.447.03c-.958.067-1.027.906-1.848 1.092l-.703.05c-.178.204-.429.286-.748.308-1.341.094-3.132-.743-3.559-1.355.013.192-.051.196-.242.21-.005-.064-2.811-1.665-2.936-3.452-.018-.256-.022-.32.032-.452l.32-.022.019-.643-.255.018c-1.15.08-.752-.653-1.582-.595-.04-.575.393-.797.494-1.19.265.11.397.165.406.293.013.192-.11.264-.165.396.625-.236.968-.837.901-1.795l.319-.022-.013-.192c-.196-.05-.205-.178-.219-.37-.026-.382.517-.87.477-1.444-.009-.128-.022-.32-.15-.31-.575.04-.18 1.103-.882 1.152 0 0-.073-.123-.2-.114q.204.178.245.753c.04.574-.407.605-.394.797.014.191.078.187.205.178q-.26.403-.356.41c-.191.013-.346-.36-.386-.936-.094-1.34.787-1.594.746-2.169-.145-.246-.159-.438-.172-.63-.054-.766.312-1.048.76-1.977.2.114.269.174.278.301.026.383-.504 1.062-.527 1.641.246-.146.352-.474.598-.62l.096-.455c.042-.324.361-.346.398-.734-.013-.191-.41-.356-.427-.611.004.064 1.777-2.113 1.928-2.701-.064.004-.073-.124-.073-.124-.004-.064.229-.4.42-.414l.383-.027.083-.647c.207-.72.941-1.22 1.452-1.256l.192-.014c.748-.309 1.364-.673 1.844-1.155l-.014-.192c.74-.436 1.675-.823 2.633-.89.446-.03 3.459.85 3.531 1.87.031.448-.544.488-.517.87.027.384.985.317 1.034 1.02.013.19-.046.259-.357.409.141.183.219.37.415.42.009.128-.055.132-.055.132-.128.01-.201-.114-.328-.105.04.575-.211.656-.316.984.013.192.158.438.167.566.018.255-.164.397-.675.432l-.192.014c.014.191.146.246.159.438 0 0-2.672 3.074-3.502 3.132l-.383.026c-.383.027-.524-.156-.788-.265-.703.049-.074.775-1.224.855-.383.027-.643-.02-.656-.21-.009-.128-.009-.128.051-.197-.967-.06-2.156-.555-2.923-.501-.063.004-.191.013-.178.205.009.128.15.31.155.374.036.51-.561.232-.535.615s.118.761.145 1.145c.098 1.404-.438 2.917-.326 4.513.058.83.389 1.898 1.36 2.022l4.341-.303c.421-.415 1.114-.591 1.88-.645 1.761-.508 3.386-2.033 4.892-2.523 1.834-.385.635-1.007 3.465-2.745m-13.802-6.54-.709 1.78c-.115.201 1.426.222 1.864.063 4.772-1.489 4.647-3.276 4.913-4.065l.129-.907c-.41-.356-.824-.776-1.399-.736-.255.018-.57.104-.753.245l-.638.045c-.009-.128-.141-.183-.205-.178-.191.013-.561.231-.543.487.026.383.469.288.496.67-.178.206-.634.11-.735.501l-.383.027c-.447.031-.616.364-.986.582-.484.419-.972.774-1.379 1.38.059-.069.123-.073.187-.078.128-.008.196.05.141.183m.438-.16c-.064.005-.064.005-.068-.06-.027-.382.558-1.193.941-1.22.128-.009.191-.013.2.114-.16.46-.607.492-.758 1.08-.187.077-.315.086-.315.086M326.648 52.636c.168.566.707.014.756.717l-1.277.09c-.447.03-.548.422-.995.454l-.191.013c-.32.022-.493.291-.685.305-.064.004-.196-.051-.209-.243l-.014-.191c-.255.018-.224.465-.215.592l.031.447c.063.894-1.16 1.75-1.349 2.725-.432-.675-.41-.356-.956-.831-.183.14-.183.14-.178.205.013.191.346.36.373.744.013.191-.306.213-.293.405.013.191.15.31.155.374.008.128.013.191-.106.328l-.191.013c-.722.693-1.234 1.627-2.16 2.14l-.664 1.522q.159-.492.111-1.162c.17-.333.691-1.14.65-1.714l-.031-.447.511-.035.027.383c.182-.141.233-.337.343-.602l.574-.04c.575-.04.407-.606.699-1.011-.136-.119-.154-.374-.346-.36-.063.004-.255.017-.242.209.005.063.082.25.095.442.009.128-.05.196-.369.218l-.256.018c-.013-.191.357-.41.343-.601 0 0-.132-.055-.387-.037.037-.388.42-.415.384-.925l-.013-.192.191-.013c.192-.014.11-.264.165-.397l-.004-.064c-.014-.191.36-.346.307-1.112-.388-.037-.652-.147-1.035-.12-1.469.103-3.139.99-4.288 1.07-.191.013-.383.027-.579-.024-.379.09-.442.095-.57.104-.064.005-.196-.05-.579-.023.127-.01-.74.436-1.105.718l-.191.014.013.191c.014.192-.041.324-.233.337-.191.014-.52-.092-.711-.078l-.447.031c.191-.013-1.633.5-2.249.863-.165.397-5.544 2.377-6.257 3.196-.063.005-.182.141-.196-.05-.994.454-2.405 1.387-3.974 1.882a.8.8 0 0 1-.159-.438c-.013-.192.105-.328.334-.73.342.298.41.357.601.343.383-.026.312-1.048 1.192-1.302l.014.192c.055-.132.598-.62.968-.838.132.055.196.05.323.042.064-.005.187-.078.238-.274l.383-.026c-.022-.32 1.393-1.188 2.205-1.502l.383-.027c.078-.71 1.045-.65 1.406-.996l.447-.031c.178-.205.547-.424 1.058-.46l.575-.04c-.058-.83 1.565-.558 2.218-1.31l.574-.04c.242-.209.416-.478.927-.513.191-.014.387.037.579.023.255-.018.242-.21.561-.231 1.36-.737 2.668-.38 4.233-.938l.191-.013c.179-.205.484-.42.74-.437.191-.013.323.041.524.156l.766-.054-.214-.306c-.004-.063.06-.068.06-.068.191-.013.588.151.971.125.766-.054.917-.642 1.005-1.225l.191-.014c-.036-.51.206-.72.512-.934-.141-.182-.396-.165-.414-.42-.009-.128.165-.396.356-.41l-.013-.191c-.027-.383-.437-.74-.373-.744 0 0 .128-.01.324.041l-.014-.191c-.018-.255.165-.397.147-.652-.013-.191-.258-.944-.298-1.519-.023-.32-.036-.51.151-.588l-.317-4.533c.046-.26.037-.387.033-.451-.014-.192-.232-.561-.286-1.328l-.049-.702c-.04-.574-.633-.79-.722-2.066-.027-.383.101-.392.088-.584-.027-.383-.351-.425-.373-.744-.005-.064.114-.2.11-.264l-.192.013c-.168-.565-.221-1.331-.413-1.318-.447.031-1.257 2.205-1.728 2.815-.219.529-2.084 3.226-2.587 4.287l-.562 1.13c-.115.2-.161.46-.471.61l-.191.014.026.383c-.059.068-.224.465-.21.656.008.128.077.187.268.174-.406.606-.544 1.385-1.297 1.63l.013.192c-.383.027-.561.232-.539.55l.027.384c.054.766-.628 2.033-1.112 2.452l-.446.03c.022.32-.462.739-.845.765-.192.014-.264-.11-.406-.292l-.063.005s-.132-.055-.141-.183l-.192.013c.013.192-.169.333-.552.36-.192.013-.456-.097-.461-.16-.008-.128-2.788-1.345-2.904-3.005-.018-.256.165-.397.151-.588-.004-.064-.209-.242-.236-.625.255-.018.209.242.287.429.378-.09-.067-.958.302-1.176l.192-.014c.191-.013.178-.205.165-.396l-.045-.639-.192.014c-.072-.123-.086-.315-.09-.379-.04-.574.353-1.372.645-1.777l.192-.014-.014-.191c-.049-.702.33-.793.686-1.203l-.013-.191c.374-.155 1.645-2.168 2.071-3.417l.83-.058c.004.064.964-1.8 1.334-2.018l.383-.027-.027-.383c.024-.579.138-.78.481-1.38.269.173.46.16.588.15.064-.004.064-.004.055-.132-.004-.064-.082-.25-.095-.442s.041-.324.22-.529l.191-.013-.013-.192c1.104-.719 2.289-3.047 3.374-3.123.064-.004.264.11.392.101.183-.14-.254-.88.385-.925l.766-.053-.005-.064c-.022-.32.169-.333.356-.41l-.013-.192c-.022-.319 1.103.18 1.295.166 1.149-.08 1.636.463 1.672.974l.191-.013c.553-.36.753-.245.986-.582l.411-.542c.115-.2.174-.27.302-.278.191-.013.251-.082.442-.095l.192-.014.004.064c.027.383-.837 1.791-1.385 2.214l.014.192c.013.191.077.187.205.178-.165.396-.646 1.777-1.029 1.804 0 0-.132-.055-.141-.182-.256.017-.374.154-.37.218.014.191.346.36.36.552.008.128-.306.214-.266.789.285 1.327.971 2.883 1.825 5.004.541 1.31 1.162 3.768 1.314 5.94.049.702.221 1.331.262 1.906l.035.51q-.363.314-.343.602c.027.383.245.752.286 1.327-.187.077-.37.218-.625.236.196.05.273.238.282.365.027.384-.339.666-.572 1.003l.192-.014c.196.05.26.046.269.174.013.192-.659 1.586-.723 1.59.027.383.41.357.441.804l.013.191c.192-.013.392.101.584.088.447-.032.843.133 1.213-.085m-5.065-21.972.064-.005c.178-.205-.113-.698.525-.742-.068-.06-.205-.179-.269-.174-.319.022-.475.546-.922.578-.127.009-.328-.106-.392-.101-.574.04-.662.624-1.036.778-.191.013-.187.077-.178.205.018.255.218.37.414.42-.053-.766 1.328-.285 1.616-.755.055-.132.05-.195.178-.204m-2.156 2.203.028-.515-.191.014c-.392-.101-.241-.69-.624-.663-.766.054-.407.606-.972.774l-.128.009c.128-.009-3.906 4.7-4.157 4.782l.014.191c.013.192-.178.205-.37.218l.014.192c.049.702-.449.93-.814 1.212l-.191.013.009.128c.058.83-1.747 3.458-2.387 4.401l.004.064c.023.32-.369.218-.347.537.013.192.018.256.145.247 0 0 .055-.132.06-.068l.031.446c.067.958-.166 1.295.217 1.268q.096-.007.396.165l.447-.031c1.264-.28 3.376-4.021 4.673-5.652l.384-.027-.036-.51c.745-1.271.791-1.531 1.517-2.16.2.115.352-.473.479-.482.064-.005.188-.077.242-.21l-.013-.191c.151-.588.43-1.185.701-1.91.43-1.184.841-1.727.869-2.242m9.852 19.777c.191-.013.447-.031.77.01-.1.392-.155.525-.347.538-.128.009-.328-.105-.392-.1-.128.008-.128.008-.119.136l-.383.027c-.191.013-.269-.174-.46-.16-.013-.192.05-.197.233-.338.123-.072.379-.09.698-.113m-31.138 11.609-.383.026c-.036-.51-.437-.739-.446-.867.192-.013.789.266.985.316.013.192-.17.333-.156.525m-2.049.977c-.128.009-.196-.05-.209-.242-.023-.32.329-.793.307-1.112.597.279.574-.04 1.044.248-.06.068-.174.268-.152.588a.8.8 0 0 0-.456-.097q-.479.034-.534.615m22.045-2.183.343-.602c-.046.26-.224.465-.343.602m-.585.81-.191.014c-.022-.32.42-.414.776-.824zm-22.999 3.213-.575.04-.018-.255c-.013-.192-.091-.379-.104-.57-.013-.192.037-.388.206-.72l.192-.014c.191-.014.383-.027.378-.09 0 0-.072-.124-.2-.115.114-.2.174-.269.301-.278.192-.013.465.224.784.202l.192-.013c-.27.724-1.301.668-1.252 1.37.014.192.018.256.096.443m-1.164.787c-.137-.119-.201-.114-.205-.178-.014-.192.164-.397.155-.524.073.123.201.114.205.178.014.191-.169.332-.155.524m21.172-.903.575-.04c.574-.04.32-.921.818-1.148l.191-.014c-.182.141-.178.205-.169.333.013.192.091.379.095.442a.6.6 0 0 1-.041.324l-.192.014c-.849.7-2.16 2.14-2.247 2.723l-.384.027c-.406.606-.467 1.572-1.092 1.808.064-.004-2.662 2.304-4.32 4.28l-.192.013c.041.575-1.352 1.763-2.027 2.195-1.653 1.142-2.756.963-3.045 2.33-.397-.164-.542-.41-1.117-.37l-.191.013c.387.037.528.22.537.347.018.256-.671.496-1.245.536-.384.027-.771-.01-.857-.325-.192.014-.183.141-.178.205.009.128.213.306.231.561.009.128-.475.547-.858.574l-.191.013c-.023-.32.164-.396.279-.597l-.319.022c-.384.027-.571.105-.548.424l.191-.014a.28.28 0 0 1 .196.05c.009.128-.356.41-.343.602-.451-.032-.843-.133-1.066-.567l-.191.013c.053.767-.658.688-1.219.92l-.064.004c-.383.027-.867.446-1.505.49-.575.04-1.09.013-1.304-.293l-.192.013c-1.021.072-1.057-.44-1.836-.577-.014-.192.347-.538.334-.73-.005-.063-.133-.054-.205-.177l-.192.013c-.771-.01-.947-.704-1.001-1.47 1.172.24 1.942.25 2.544.592.383-.027.378-.09.547-.423.205.178.406.292.725.27-.036-.51 1.292-.796 1.675-.823.064-.004.2.115.268.174.161-.46.471-.61.854-.637.064-.005.264.11.392.1.192-.013.374-.154.561-.231l1.149-.08c.256-.018.438-.16.918-.642.068.06.205.178.269.174.319-.022.539-.551.717-.756l.191-.013c.753-.246.658-.688 1.105-.72-.06.069-.178.206-.174.27.022.319.588.15 1.099.115a1.6 1.6 0 0 0-.542-.411c.119-.137.457-.802.904-.833 0 0 .128-.01.141.182l.255-.017c.663-.624 1.426-1.64 1.936-1.675l.639-.045c.087-.584.858-.573 1.009-1.161l.192-.014c.766-.053.79-.632 1.36-.736-.054-.767 2.792-1.35 5.237-4.922l.137.119-.027-.383c.077.187.269.174.396.165.256-.018.37-.219.407-.606m-22.89 2.948c-.2-.115-.214-.306-.405-.293-.005-.064.178-.205.164-.396.128-.01.205.178.397.165.013.191-.178.204-.156.524m-3.72 5.52-.702.05-.018-.256c-.013-.191-.091-.378-.104-.57s.037-.387.206-.72l.192-.013c.191-.014.378-.09.378-.09-.009-.129-.009-.129-.072-.124-.081-1.15 1.051-1.485 1.306-1.503l.511-.036c.063-.004.255-.017.561-.231l.004.064c.054.766-1.688.63-1.63 1.46l.009.128-.127.01c.132.054.332.169.396.164l.119-.136c-.143.715-1.292.796-1.252 1.37.005.064.082.251.223.434m.981 3.012.638-.045.009.128c.027.383-.389.86-.708.883-.192.014-.269-.174-.287-.429l-.022-.32c-.36-.551-2.316-.094-2.419-1.562-.04-.575.745-1.271 1.434-1.512l.018.255c.027.384-.361.347-.471.61.155.375.725.27.752.654l.013.191c.178-.204.361-.346.425-.35a.57.57 0 0 1 .614.535c.014.191-.164.396-.151.588.009.127.141.182.155.374m12.97-1.677.073.123s-.064.004-.073-.123m-1.922 1.866-.064.005zM303.784 35.95c.009.128-.106.328-.106.328l-.191.014c.168.565.241.688.254.88l-.033.451c.078.188.091.379.1.507.053.766-.568 1.964-.555 2.156l.036.51c-.143.716-.258 1.815-.769 1.85l.018.256c-.119.136-.115.2-.11.264.013.192.414.42.414.42.009.128-.475.547-.534.615-.128.009-.603 3.314-.598 3.378-.192.013-.183.141-.174.269l.014.191c.026.383.089 1.277.343 2.158l-.192.013c-.328-.105-1.878-3.012-2.009-3.965-.005-.064-.621-2.46-.265-2.869-.205-.178-.359-.552-.386-.935-.04-.575.635-1.007.591-1.646l-.072-1.021c.64-.943 0-2.759.611-3.186l-.221-1.332c-.192.013-.192.013-.178.205l-.192.013c-.31.15-2.437 1.839-2.538 2.23-1.005 1.226-2.225 3.043-3.253 3.95l-.242.208c-.261.853-1.123 1.362-1.649 2.105l-.255.017.099.507-.383.027c-.378.09-.488.355-.589.747l-.256.017c-.868 1.344-2.147 3.23-2.697 4.552-.059.068-.132-.055-.141-.183l-.018-.255c-.009-.128.434-.223.306-.214l-.702.049c-.488.355-.243 1.108-1.137 1.17l-.018-.255c-.328-.106-.939-.576-.965-.96-.009-.127.05-.195.173-.268l-.004-.064c-.165-2.362 1.41-3.691 1.312-5.096l-.009-.128c.169-.332.548-.423.516-.87l-.022-.319c.165-.396.398-.733.767-.952l-.013-.191c-.045-.639.248-1.044.395-1.696-.023-.32.101-.392.083-.647l-.014-.192s.747-2.17 1.085-2.834c-.328-.106-.405-.293-.414-.42-.013-.192-.027-.384.024-.58.246-.145.368-2.078.495-2.087-.094-1.341-.187-2.682-1.081-2.62l-.319.023c-.005-.064.055-.132.05-.196 1.66-.116 3.032.237 3.268.862 1.458.668 1.248 1.325 1.31 2.218.009.128.031.447.164.502.022.32-.029.515-.079.711-.083.648-.418 2.275-.902 2.694l.009.127c-.009-.127-.489.355-.603.556 0 0 .128-.009.136.119.072 1.021-1.276 2.848-1.227 3.55l-1.588 3.896c.698-.113 2.256-2.596 2.472-3.188l.932-1.348.191-.014c.256-.018.207-.72.781-.76-.077-.187-.077-.187-.086-.315-.018-.255.101-.392.484-.419l.575-.04c.191-.013.246-.145.233-.337l-.023-.319c-.017-.255-.026-.383.229-.401l.064-.004c-.058-.83 1.887-2.378 2.12-2.715l-.014-.191c-.031-.447.949-.195.991-.519l.127-.009c-.027-.383.475-.546.858-.573l.511-.036c.255-.017.242-.21.625-.236l-.141-.182c.114-.2.42-.415.607-.492.192-.013 1.933.121 1.951.377.005.064.005.064-.182.14.141.183.332.17.524.157l.447-.032.591 1.114s.236.625.263 1.008M285.477 42.684l.191-.014c.192-.013.328.105.333.17-.343.6-.882 1.152-1.43 1.575l-.191.013c-.383.027-1.844 1.156-2.379 1.77l.018.256c.027.383-.443.993-.89 1.024-.32.023-.337-.233-.529-.22-1.021.072-.098 1.355-1.438 1.449l-.256.017c-.315.087-.895.961-1 1.29l-.447.03c-.958.068-1.028.907-1.849 1.092l-.702.05c-.178.204-.429.286-.748.308-1.341.094-3.132-.743-3.559-1.355.013.192-.051.196-.242.21-.005-.064-2.811-1.664-2.936-3.452-.018-.255-.023-.32.032-.451l.32-.023.019-.642-.256.017c-1.149.08-.751-.653-1.581-.595-.04-.574.393-.797.494-1.19.265.11.397.166.406.293.013.192-.11.265-.165.397.625-.236.968-.838.901-1.795l.319-.023-.013-.191c-.196-.05-.205-.178-.219-.37-.026-.383.517-.87.477-1.445-.009-.127-.023-.319-.15-.31-.575.04-.18 1.103-.882 1.152 0 0-.073-.123-.201-.114q.206.178.246.753c.04.574-.407.606-.394.797.014.192.077.187.205.178q-.26.404-.356.41c-.192.014-.346-.36-.386-.935-.094-1.341.786-1.595.746-2.17-.145-.246-.159-.438-.172-.63-.054-.765.312-1.047.76-1.977.2.114.269.174.277.301.027.383-.503 1.062-.526 1.641.246-.145.351-.474.598-.62l.096-.455c.042-.324.361-.346.398-.733-.013-.192-.41-.357-.428-.612.005.064 1.777-2.113 1.929-2.701-.064.004-.073-.123-.073-.123-.005-.064.229-.401.42-.415l.383-.027.083-.647c.206-.72.941-1.22 1.452-1.256l.192-.014c.748-.309 1.364-.672 1.843-1.155l-.013-.192c.739-.436 1.675-.822 2.632-.89.447-.03 3.46.85 3.531 1.87.032.448-.543.488-.516.871s.984.316 1.033 1.018c.014.192-.046.26-.356.41.141.183.219.37.415.42.008.128-.055.133-.055.133-.128.008-.201-.115-.329-.106.041.575-.21.657-.316.985.014.191.159.438.168.565.018.256-.165.397-.675.432l-.192.014c.014.191.146.246.159.438 0 0-2.672 3.074-3.502 3.132l-.383.026c-.383.027-.524-.155-.788-.265-.703.049-.075.775-1.224.855-.383.027-.643-.019-.656-.21-.009-.128-.009-.128.05-.196-.966-.061-2.156-.555-2.922-.502-.064.005-.191.014-.178.205.009.128.15.31.155.374.035.511-.562.232-.535.615s.118.762.144 1.145c.099 1.404-.437 2.917-.326 4.514.059.83.39 1.897 1.361 2.022l4.341-.304c.42-.414 1.114-.591 1.88-.645 1.761-.508 3.386-2.033 4.892-2.523 1.833-.385.635-1.007 3.465-2.744m-13.802-6.542-.71 1.782c-.114.2 1.427.221 1.865.062 4.772-1.488 4.647-3.276 4.913-4.064l.129-.908c-.41-.356-.824-.776-1.399-.736-.255.018-.57.104-.753.245l-.638.045c-.009-.128-.141-.183-.205-.178-.192.013-.561.231-.543.487.026.383.469.288.496.67-.179.206-.634.11-.735.501l-.383.027c-.447.031-.617.364-.986.582-.484.42-.973.774-1.379 1.38.059-.068.123-.073.187-.077.127-.01.196.05.141.182m.438-.159c-.064.005-.064.005-.068-.059-.027-.383.558-1.194.941-1.22.127-.01.191-.014.2.114-.16.46-.607.491-.758 1.08-.187.076-.315.085-.315.085M265.045 27.303c-.377 1.951-.383 2.786-1.379 4.139l.004.063c.009.128-.055.133-.182.142.004.063.013.191.145.246 0 0-.289 1.367-.608 1.39.027.383.678.53.623.662-.228.4-.994.454-.967.837l.081.251c.067.958-1.345 2.789-1.345 2.789.009.128.023.32.164.502-.548.423-.894 2.82-.858 3.332-.032.451-.393.797-.686 1.202l.159.438s.073.124.078.188c-.179.204-.165.396-.152.587l.027.384c.013.191-.037.387-.343.6-.383.028-.36 3.106-1.177 3.355l.014.192c.026.383-.156.524-.539.55.218.37.565-.167.619.599.036.51-.111 1.163-.084 1.546l.072.123c.014.191-.16.46-.351.474l.009.127c.058.83-2.379 1.77-2.762 1.797-.579-.023-1.203-.686-1.203-.686-.017-.255.735-.5.786-.696l-.318-.876c-.018-.255.785-.697.954-1.03l-.095-.442c.042-.323.156-.524.603-.555-.013-.191-.258-.944-.299-1.519.128-.009.115-.2.101-.392l-.044-.638c-.054-.766.42-.415.384-.925l-.091-.379c-.132-.055-.132-.055-.141-.182-.031-.447.699-1.012.682-1.267l-.014-.192c-.036-.51.408-1.504.395-1.695l-.005-.064c.037-.388.398-.734.385-.925l-.005-.064c-.08-1.15.778-1.722.76-1.978l-.022-.32c-.005-.063-.018-.255.046-.259.209.242 1.264-3.938 1.584-3.96.063-.005.054-.132.05-.196l-.022-.32c-.041-.574 1.99-7.324 2.346-7.734.64-.943 1.459-2.989 1.5-3.313l-.081-.25c-.027-.383.219-.53.525-.743l-.018-.255c-.062-.894.549-1.322.483-2.28l-.018-.255c.092-.52.783-2.557 1.335-2.916-.077-.187-.081-.251-.09-.379-.014-.191.046-.26.032-.451.293-.405 1.749-4.357 1.735-4.548-.009-.128-.328-.106-.392-.101l-.51.036c-.207.72-.472 1.508-.815 2.11-.205-.179-.296-.557-.254-.88.239-1.172.907-2.63 1.354-2.662-.073-.123-.087-.315-.091-.378-.014-.192.42-.415.353-1.372-.009-.128-.022-.32-.104-.57-.114.2-.178.204-.306.213-.064.005.22-.528.215-.592-.009-.128.284-.533.279-.597-.026-.383.612-.428.608-.492 0 0-.009-.127.182-.14l-.068-.06c-.009-.128.055-.132.246-.146-.004-.063.124-.072.315-.086.379-.09.443-.095 1.249.426l.2.114c.666.339.706.914.737 1.36.027.383-.347.538-.307 1.113.027.383-.006.834.03 1.345l.013.191c.077.187.091.379.095.443.023.319-.7 1.91-1.244 2.396.205.178.214.306.219.37l.035.51c.032.448-.274.662-.443.994-.927.514-.245 2.006-.971 2.634-.438.16-.66 2.484-1.456 3.951l.022.32c.058.83-1.337 1.056-1.324 1.247.014.192.505.799.527 1.118.018.255-1.243 2.397-1.176 3.354m.636-13.838c.013.192-.114.2-.106.328l.005.064c-.192.014-.269-.173-.588-.151.114-.2.178-.205.16-.46.196.05.337.233.529.22m-1.739 7.243c-.511.036-.162-1.4.195-2.708l.192-.014c.83-.058-.176-1.591.262-1.75.306-.214.221-1.427.413-1.44.191-.014.474.352.492.607.013.191-.566.168-.535.615l.013.191c.067.958-.894 3.72-1.032 4.5"/><path fill="#fff" d="m243.107 51.998.177.693c-.256.018-.507.1-.698.113-.302.278-.024.58-.102 1.29.209.242 0 0 .176.694-.383.027-.761.117-1.14.208-.628-.726-1.326-.613-1.954-1.34-.509-.862-.363-1.514-.188-2.68.272-1.624.579-2.736 1.097-4.504l.129-.907c-.004-.064-.013-.192.05-.196.32-.023 1.375-4.202 1.584-3.96.064-.005.051-.197.046-.26l-.022-.32c-.018-.255.84-.828.76-1.977l-.005-.064c-.013-.192.348-.538.385-.925l-.005-.064c-.013-.192.43-1.185.395-1.696l-.014-.191c-.017-.256.713-.82.682-1.267-.009-.128-.009-.128-.141-.183l.283-.533c-.036-.51.484-.418.431-1.184.412-1.44.884-2.95 1.356-4.458.357-1.308.958-3.724 1.312-5.096.541-2.347 1.959-5.013 2.172-7.466.046-.26-.537-.347-.445-.867l.758-1.08c.522-1.704.963-3.66 1.439-5.104.192-.013.443-.095.698-.113.625-.236 1.282-.025 2.311.93.542.41-.07.838.125 1.787-.331 1.69-1.265 3.938-2.302 5.614-1.95 5.14-4.553 13.791-6.003 19.667-.202.784-.974 1.672-1.18 2.392-.252.98-.003 1.796-.323 2.717-.738 2.297-2.347 4.976-2.214 7.79.251-.082.601.342.788.265 1.179-1.494 1.603-1.844 2.052-2.774 3.421-4.281 6.864-7.345 10.412-10.736.964-.902 3.366-3.251 4.31-3.51.306-.213.374-.154 1.017-.135.022.32-.306.214-.284.533-.484.42-.662.624-1.008.263-.334.73-.393.798-.758 1.08-.913.705-1.994.845-2.907 1.55.163.502.2.115.108.634-.328-.105-.236-.625-.396-.164l-.192.013c.346.36-.055.132-.754 1.143-1.95 2.382-5.375 5.701-8.335 9.244-1.28 1.886-2.126 3.55-3.683 5.134m9.545-37.814c.06-.068.124-.073.187-.077l.192-.014c.358-1.308 1.702-4.097 1.192-4.06-.092.519-1.039 2.574-1.571 4.15m-.488 3.113c.192-.013.107-1.226.413-1.44.315-.086-.058-.83-.089-1.277-.216.593-.312 1.049-.294 1.304l.013.191c.031.447-.548.424-.534.615.018.256.3.62.491.607m-4.979 5.866-.243 1.108-.108-.634-.041-.575.207-.72.201-.784.394-.797.755-2.042.211-.656.092-.52.472-1.509.306-.213-.07.838-.334.73-.179 1.103-1.108 2.515-.019.643-.316.984zm-.66 2.484-.297.342.134-.844.261-.852.163.502zm-.806 2.238-.124.97-.305-.684.347-.537zm-1.447 4.079-.019.643-.109-.634.343-.602.535-.615-.017-1.153.357-.41.041-.324.205.178-.261.853-.193.911-.398.734zm-.423 2.21-.182.142.494-1.19-.133.844zm-4.208 17.81.005.063.52.092-.063-.894.435-1.12-.535.614zM236.271 35.474l-.626.237c-.05.196-.037.387-.356.41.014.19.205.177.333.169l.191-.014.15.31c-.378.091-.028.516-.602.556l.099.506a.5.5 0 0 1-.31.15s-.064.005-.068-.06l-.192.014.013.192c.014.191.159.438.351.424.085 1.213-.928 1.413-.843 2.625l.018.256c-.106.328-.821.186-.785.696.022.32.332.17.341.297.005.064-.301.278-.288.47l.009.127-.192.014c-.187.077-.105.328-.091.52.191-.014.191-.014.204.177-.173.27-.265.789-.439 1.058l.192-.014c.191-.013.314-.086.323.042l-.374.154c-.182.141-.101.392-.42.415l.005.063c.017.256-.302.278-.297.342.004.064.259.046.273.237l-.119.137c.027.383-.024.58-.206.72l.004.064c.009.128-.11.264-.105.328 0 0 .009.128.2.115.128-.01.183-.142.183-.142.064-.004.2.115.214.306.013.192-.16.46-.224.465l.018.255c.013.192-.306.214-.302.278.278.302-.087.584.072 1.022l.003.962c.113.697.144 1.145.23 1.46.091.378.1.505-.078.71.017.256.209.242.282.366l.218.37c.333.169.423.547.701.849l.683.593c.018.256-.05.196-.242.21l-.315.086c-.314.086-.387-.037-.588-.151l-.127.008c-.128.01-.192.014-.201-.114-.004-.064.06-.068.055-.132s-.077-.187-.205-.178l-.396-.165c-.474-.352-.551-.539-1.098-1.014-.068-.06-.282-.365-.154-.374-.181-.757-.624-.662-.651-1.045-.022-.32.211-.657.207-.72-.014-.192-.205-.178-.433-.676-.077-.187.038-.387.225-.465-.137-.118-.219-.37-.241-.689-.009-.127-.089-1.276-.079-2.047-.027-.383.083-.647-.063-.894l.214-2.453c-.315.087-.385.925-.704.948l-.553 1.257c-.033.452-.407.606-.722.692.137.12.018.256.036.511.013.192-.174.269-.544.487l-.127.01c-.178.204-.457.801-.649.815 0 0-.068-.06-.073-.124.005.064.005.064-.059.069l-.201-.115-.498 1.126-.192.013.014.192c.013.191-.165.396-.156.524l-.37.218.073.123c.232.562-.685.305-.99.519.141.182.205.178.218.37-.013-.192-.704.947-.955 1.029l-.314.086.013.191c.013.192.018.256-.11.264-.064.005-.2-.114-.214-.305-.561.231.387.935-1.21 1.047-.191.013-.328-.106-.332-.17l-.511.036c-.191.014-.218-.37-.41-.356-.374.154-.023.579-.53.679l-.035-.511-.192.013c.192-.013-.861-.389-1.079-.758-.069-.06-.005-.064.118-.137l-.013-.192c-.784-.201-1.344-.868-1.384-1.442-.018-.256.087-.584.47-.61-.136-.12-.145-.247-.154-.375-.076-1.085.506-2.858 1.569-3.253.041-.324-.309-.749.298-1.24-.013-.192-.145-.247-.337-.233.352-.474.316-.985 1.082-1.038-.044-.639 2.825-4.56 3.696-4.942-.164.396 1.431-2.474 2.325-2.537l.945-.258c.182-.141.351-.474.393-.797l-.077-.187.821-.186.063-.005c.128-.009.456.097.597.28.06-.069-.081-.252-.017-.256l.492-.291c.128-.009-.013-.192.174-.269l.511-.035c.082.25.396.164.546.474l.082.251c.273.238.423.548.743.526l.191-.014.288-.469c.123-.072.055-.132.11-.264l.485-1.317c-.009-.128.211-.656.047-1.158.839.07.976.188 1.619.207l.013.192.32-.022c.446-.032.843.133.874.58.164.502.263 1.008.354 1.387zm-5.79 5.281c-.383.027 1.63-1.461 1.491-3.44-.009-.128-.159-.438-.551-.54l-.547.424-.772.888-.192.013c-.574.04-.211.657-.721.692l-.128.01c-.575.04-.479.482-.926.513l-.128.01c-.114.2-.019.642-.466.673l-.192.014.018.255c-.913.705-1.977 1.999-2.841 3.407-.575.04.045.638-.402.67l-.128.008c-1.068.332-1.001 1.29-1.024 1.868l-.839-.07s-.042.324-.169.333c-.183.141-.256.018-.26-.046s-.597-.279-.606-.406c-.013-.192-.082-.251-.41-.357.113.698.045.639.613 1.433.146.246.52.092.725.27-.251.082-.433.223-.356.41l-.192.013c.023.32.045.639.3.62.014.192-.173.27-.16.461l-.183.141c-.292.406-.461.738-.434 1.121.022.32.099.507.377.808.433-.223.643.02 1.054-.523.292-.405 2.844-2.444 2.831-2.636l.343-.601c.068.06.136.119.264.11.256-.018.471-.61.453-.866.128-.009.123-.073.114-.2l-.013-.192c.752-.245.571-1.002.954-1.03l.064-.004c.014.192-.32.921-.294 1.304.009.128.091.379.283.365-.073-.123-.082-.25-.091-.378-.005-.064.059-.069.059-.069.128-.009.132.055.26.046.064-.004.064-.004.059-.068-.008-.128-.213-.306-.313-.812l.383-.027-.095-.442.187-.078c.255-.017.147-.651.466-.674l.192-.013.393-.797s.055-.133.051-.196c.132.054.196.05.196.05q.191-.013.178-.205l-.014-.191c.051-.196.987-1.48.974-1.672 0 0-.068-.06-.196-.05-.013-.192.178-.206.361-.347m-.465 2.535.064-.005c-.013-.191.165-.396.152-.588-.009-.128-.073-.123-.201-.114-.187.077-.242.21-.228.4.013.192.086.316.213.307m-2.989 4.956c-.064.005.073.123.145.247-.072-.123-.081-.251-.145-.247M214.892 56.858l-.429.286-1.148-.817-1.24-.299.096-.456-.696-.785-.624-.662-.5-.735-.692-.721.202-.784-.556-.603-.126-.89.539-.55-.574-.858.07-.84.088-.583.316-.984.01-.771.393-.797.174-.27-.213-1.203.279-.597.649-.815-.053-.767.476-1.444-.383.027c-1.3 3.427-4.893 6.18-6.379 8.786-.515-.028-.196-.05-.766.053.181.758.36.553-.184 1.04-.233.337-.337-.233-.42.414.149 1.209-2.838 4.369-3.142 6.443-.392-.1-.26-.046-.46-.16-1.815-.258-2.174-.81-3.358-2.14.165-.396.012-1.668-.042-2.434l.639-.045c-.327-1.004-.445-1.765-.275-2.098l.447-.031-.336-1.131c.046-.26.521-.807.703-.948.284-.533-.404-1.19-.298-1.519l.638-.044c.064-.005.056-1.03-.29-1.392.444-.993 1.051-1.484 1.249-2.332-.273-.238-.077-.187-.25-.817l.639-.044c-.259-.945.991-1.417.756-2.94l.639-.045-.327-1.004.575-.04-.014-.191c-.205-.179-.068-.06-.35-.425.064-.005 2.22-5.865 2.276-6.896.397.165.424.548.524.156.11-.264.152-.588-.249-.816.484-.42.652.146.658-.688-.516-.028-.179.205-.606-.407 1.401-1.06 1.089-2.77 1.684-4.352.233-.337.471-.61.772-.888.468-1.572.482-2.279.95-3.851.173-.27.454-1.764.819-2.047.527-1.64 1.282-3.682 1.796-5.514l1.367.29c.077.186.159.437.232.56.456.097.843.134 1.295.166.072.124.136.12.205.178.313.813.236.625.481 1.378-.374.155-.252.98-.43 1.185-.654.752-.75 1.207-1.408 1.895.086.315.323.94-.559 2.092-.502.163-.872.382-1.314.477l.345 1.259c-.088.583-.786.696-1.142 1.106.359.553-1.693 6.983-2.278 7.794.278.302.711.079.41.356-.046.26-.101.392-.083.648-.401-.229-.21-.242-.729-.334-.162 1.358-1.176 2.456-1.26 4.002l.383-.027c.114-.2.169-.333.288-.47.073.124.082.251.095.443-.671.496-.909.77-1.707 1.274.441.803.414.42.6 1.241-.397-.165-.36-.552-.461-.16l-.191.013c.278.302.264.11.487.544-.643-.02-.606-.407-.689.24.452.033.452.033.72.207-.365.282-.365.282-.452.865-.338-.233-.21-.242-.67-.402.009.128.018.255.095.443.324.041.192-.014.269.173-.057 1.03-.882 1.152-1.344 1.89.406.293.269.174.688.658-.722.692-.468 1.573-.537 2.412-.069-.06-.132-.055-.265-.11-.282-.366-.1.392-.1.392.213.305.068.059.172.63-.443.094-.506.099-.689.24.278.301.584.087.282.365l-.623 2.097c-.515-.029-.264-.11-.575.04.529.22.06-.069.478.415-.644.88-1.016 2.894-1.055 4.18l.384-.027c.522-1.704 3.089-4.45 4.34-5.82.508-.998 1.152-1.877 1.664-2.811.183-.142.37-.219.557-.296.233-.337.065-.903.302-1.176.288-.47.986-.582 1.343-.992.305-.214.06-.967.298-1.24.831-.956 3.392-2.867 3.494-4.158-.401-.228-.264-.11-.555-.603.059-.068.055-.132.119-.136 1.29.102 2.472-.43 3.884.498-.088.584.646.982.499 1.633-.39 1.76-1.364 3.432-1.955 5.077-.215.593-.445 1.892.047 2.499l-.79.633c-.096.455.428.611.34 1.195-.294 1.303-1.539 4.598-.521 7.222.353 1.386 1.259 2.414 2.334 3.108zm-11.825-26.889-.191.014c-.078-.188-.082-.251-.095-.443.209.242.068.06.286.43m1.959 4.162-.255.017c-.009-.127-.086-.314-.091-.378.205.178.069.06.346.36m-6.785 18.566.447-.031c-.137-.119-.146-.247-.218-.37l-.384.027c.009.128.018.255.155.374M193.072 39.073l-.009-.128c.141.182.15.31.15.31.027.383-.279.597-.457.802l-1.149.08c-.255.018-.447.032-.469-.288l-.018-.255-.319.022c-.383.027-.429.287-.812.314l-.32.022.023.32c-.165.396-1.077.203-1.779.252l-.192.013c-.36.346-1.14.208-1.109.655l.009.128-.191.013c-.447.032-.352.474-.726.629l-.192.013c-.086-.315-.277-.301-.295-.557-.471.61-.833 1.855-1.599 1.908-.192.014-.383.027-.588-.151-.123.073-.123.073-.114.2.013.192.537.348.551.54.013.19-.11.264-.352.473-.388-.037-.245-.753-.628-.726s-.539.551-.539.551c.018.255.432.675.536 1.246-.566.167-.585.81-1.287.86l-.054-.767c-.565.168-.571 1.003-.954 1.03-.128.008-.192.013-.397-.165.077.187.223.433.232.561.027.383-.484.419-.84.829.51-.036.885-.19.917-.642q.198.082.219.37c.017.255-.407.606-.79.632-.128.01-.328-.105-.333-.169l.031.447.192-.013c.511-.036.684-.305 1.118-.528l-.094-1.34c.128-.01.137.118.201.114.191-.014.31-.15.296-.342.073.124.087.315.096.443.026.383-.202.784-.175 1.167l.013.191.191-.013c.054.766-.439 1.057-.595 1.581l-.534.615c-.653.752-.376 1.053-.331 1.691.009.128.15.31.155.374.008.128-.115.201-.106.329.036.51.912.193 1.481.987.009.127.141.182.141.182.077.188.2.115.191-.013.192-.013.392.1.584.088 1.021-.072 1.828.45 3.146.036l.251-.082c-.033.452-.616.364-.931.45.155.375.346.361.538.348l.574-.04c.192-.014.192-.014.264.11.128-.01.119-.137.119-.137-.004-.064-.145-.247-.168-.566-.017-.255.758-.181.913-.705l1.127-.4c.155.374-.046.26-.228.401.068.06.196.05.451.033.575-.04.999-.39.986-.582-.005-.064-.141-.183-.333-.17l-.018-.255.128-.009c.192-.013.603-.555.858-.573.192-.014.379-.09.356-.41l.137.119c.192-.014.246-.146.233-.337.201.114.333.169.524.155.83-.058 2.009-1.552 2.264-1.57l.192-.013c.12 1.724-3.202 3.753-3.346 5.367l-.192.013c-1.245.536-2.871 2.061-4.658 2.186-.32.023-.511.036-.771-.01l-.192.014c-.292.405-.543.487-.862.509-1.149.08-2.152-.491-2.998-1.587-.064.005-.055.132-.183.141.192-.013-1.262-.617-1.672-.973l-.035-.511c-.52-.092-.56-.667-.77-.909l-.08-1.149c-.41-.356-.505-.799-.545-1.373-.058-.83.326-1.755.268-2.585a1.03 1.03 0 0 0-.231-.561c.378-.091.333-.73.835-.893l-.013-.191c.178-.205.17-1.231.362-1.245.128-.009.132.055.205.178l.319-.022c.138-.78 3.995-6.182 4.825-6.24l.127-.009c.064-.004.033-.451.028-.515l.101-.392c1.98-.138 2.772-2.567 4.113-2.661.168.565.962-.003 1.011.699l.191-.013-.022-.32.192-.013c.383-.027.236.625.619.598l.379-.09c.766-.054 2 1.079 2.632 1.868m-11.63 7.998c.074-.775.635-1.006 1.064-1.293-.019.643-.712.82-1.064 1.293m4.625 8.338c.04.575-.689.24-.722.692.073.123.397.165.588.151.639-.044 1.196-.34 1.142-1.106-.383.027-.425.35-.808.377-.141-.182-.035-.51-.355-.488.141.182.15.31.155.374M162.506 64.755c2.39-.68 11.698-1.523 13.845-1.096-.119.136-.114.2-.174.269-.666.56-3.077.022-4.933.088-1.264.28-1.15.08-1.314.477-.909.769-3.124.282-4.575.64-3.467.884-6.513 1.354-9.72 2.284-.632 1.969-1.581 4.922-2.468 6.909-.723 1.59-2.605 4.032-3.72 5.521-.707-.015-.881.254-1.008.263l-.214-.306c.182-.141.429-.287.548-.423a.5.5 0 0 1-.082-.251l.714-1.718.435-1.121-.085-1.213.493-.291.279-.597.398-.734-.14-1.08.712-.82-.505-.799.931-.45-.08-1.15-.095-.442.411-.542-.077-.187-.383.027c-1.397 1.124-4.68.969-6.494.71-.06.07-.055.133-.179.206.069.06.009.127.014.191-.265-.11-.529-.22-.912-.193-1.519.3-3.294 1.514-4.894.663 4.775-.526 8.846-2.864 13.498-3.317l.078-.712.321-.92-.117-.762-.259-.944.781-.76-.113-.698-.177-.694.207-.72-.113-.698.388-.86.189-.976-.159-.438.184-1.04-.15-.31.061-.966.662-.624-.565-.73.796-1.468.275-.66-.378-.808.239-1.172.254-1.878-1.27 1.115-.978 1.609-.521.806-.565.168-.544.487-.389.861-.356.41-1.287.86-.708.883-.616.364-1.201 1.175.022.32-.552.358-.909.77c-2.089.402-3.134-1.706-4.309-2.907.585-.81.362-1.244.737-2.297.366-.282.599-.619.9-.897-.145-.246.288-.469.211-.656.105-.328.371-1.117.576-.938.5-2.024.752-3.004 1.521-4.854.22-.529.384-.925.472-1.509.398-.733.157-1.422.559-2.092.037-.388-.677-1.428-.453-1.893l.383-.027c1.682.203 2.32 1.057 2.976 1.268l.472 1.25-.056 1.03-.261.852-.398.734-.689.24.063.894-.029.516-1.343 1.89-.334.729-.297.342-.38.989-.389.86-.635 1.008-.6 1.517c.133.055.201.114.329.105.008.128.077.187.145.247 1.455-.294 9.233-5.586 10.066-7.44.041-.324.206-.72.166-1.295.735-.5.835-.893 2.044-1.041 1.161 1.01 2.401 1.307 3.11 3.182-.557.296-.973.774-1.325 1.248.15.31.122.825.008 1.026l-.233.337c-.119.137-.169.333-.088.584l-.182.14-.297.342c.095.443.322.94.158 1.336-.288.47-.894 2.822-.594 3.442q-.273.212-.356.41s.02 2.116.087 3.073c.004.064-.119.137-.179.205-.297.342.496.671.327 1.004-.055.132-.374.154-.607.492.264.11.039 1.472.039 1.472-.187.078-.242.21-.242.21.073.123.068.06.082.25l-.342 2.462c.392.101.912.193 1.683.204.968-.838 3.242-.42 4.748-.91m-17.334 4.42-.128.01-.004-.065c.068.06.132.055.132.055m0 0c.387.037.579.024.848.198-.388-.038-.584-.088-.848-.198m-7.265.7c.639-.044 1.09-.011 1.491.217-.83.058-1.195.34-1.856.066.37-.219.251-.082.365-.282m-.462.739c-.611.427-1.186.468-1.682-.204.702-.049 1.218-.02 1.682.204m-2.239.092.447-.031.018.255c-.396-.165-.196-.05-.465-.224m-9.43 3.675-.653.751-1.414-.03-.799.506.248-1.044.711.079 2.291-1.187.392.1.94-.322.684-.304 1.196-.34.752-.245.821-.186 1.297-.732 1.587-.24.013.192-.352.474-1.164.787-1.008.263-.647-.083-.94.322-1.14.208-1.757.572zm8.892-3.124.451.033c.068.059.073.123.082.25-.465-.224-.328-.105-.533-.283m-13.259 4.905c-.132-.055-.086-.315-.09-.379-.018-.255.105-.328.297-.341a.7.7 0 0 1 .396.164c-.046.26-.224.465-.603.556m-1.318.413c-.128.009-.324-.042-.524-.156a.348.348 0 0 1 .288-.47c.191-.013.383-.026.588.152.022.32-.097.456-.352.474m-2.496 1.008c.064-.004.192-.013.187-.077-.031-.447-.218-.37-.359-.552.698-.113.812-.314 1.067-.331-.109.264-.069.838-.452.865.022.32 1.158.048 1.363.226-.123.073-.33.793-.594.683-.132-.055-.46-.16-.716-.143l-.365.282c-.255.018-.209-.242-.287-.428-.013-.192.179-.206.156-.525m-2.559 1.013c-.005-.064-.232-.56-.364-.616.041-.324.433-.223.411-.542.575-.04.238-.273.557-.295.396.164.068.059.601.343-.315.086-.365.282-.684.304-.233.337-.477 1.445-.521.806m-5.569 3.854c.096-.456-.058-.83.644-.879-.2-.114-.751-.653-.714-1.04.083-.648.825-.123.772-.889.324.042.255-.017.401.229.073.123-.471.61-.394.797.073.124.465.224.588.152.124-.073.183-.141.233-.337-.077-.187-.218-.37-.104-.57.106-.329.029-.516.143-.716.588.151.514.926 1.024.89-.31.15-.917.642-.844.765.064-.004.055-.132.502-.163l.634-.109c-.023-.319-.091-.378-.292-.492-.031-.447.02-.643.011-.771-.014-.192-.082-.251-.296-.557.319-.022.539-.55.858-.573.064-.004.192-.013.269.174l.005.063c.008.128.136.12.2.115.183-.141.37-.219.356-.41.524.156.793.33.82.712a.76.76 0 0 1-.279.597c-.575.04-.548.424-.561.232-.005-.064-.205-.178-.269-.174 0 0-.123.073-.114.2 0 0 .004.065.145.247-.383.027-.702.05-.689.24 0 0 .205.18.524.157-1.351.864-2.341 1.382-3.573 2.11m6.029-3.693c.013.191.15.31.342.296.026.384-.184 1.04-.594.684-.069-.06-.069-.06-.196-.05.127-.01.274-.662.448-.93m33.847.52.191-.014c-.009-.127.321-.92.244-1.107-.064.004-.535.615-.599.619a.86.86 0 0 1 .164.502m-16.656 11.365 1.341-.093c.876-.318 2.308-.932 3.103-1.5.018.255.163.501.113.697-1.264.281-1.38 1.38-2.169 2.013l-1.154.016c-1.364.673-2.998 1.172-4.107 1.827-.369.218-2.078-.368-2.754.064-.059.069-.151.588-.338.666-.872.381-.87-.517-1.432-.285.009.127.018.255.091.378-.059.069-2.049.978-2.049.978-2.245.926-8.147-.906-9.537-1.515-1.326-.613-2.189-2.862-3.108-4.081-1.274-1.707-3.251-3.365-4.109-5.55l.383-.028c.3.62-.105.329.67.403-.005-.064-.009-.128.05-.196-.322-.94-.646-.982.153-1.487l.174-.269c.313.813.295.557.709.977-.233.338-.325.857-.426 1.25.767-.054.229-.402.784.201-.488.355-.365.282-.17 1.23.733.399.732 1.297 1.424 2.018 1.184 1.33 5.407 3.92 7.047 4.448 4.531 1.48 12.787-.638 15.311-2.162m-23.079-8.01.013.192c-.451-.032-.255.018-.519-.092.191-.013.315-.086.506-.1m37.886-2.264c.666.339.47.288.611.471-.242.21-.37.218-.876.318-.014-.192-.086-.315-.164-.502.438-.159.256-.018.429-.287m-.73.565c.209.242.068.06.355.488l-.255.018c-.014-.191-.091-.378-.1-.506m-1.151.978.366-.282.506-.1.181.758.018.255-.183.141-.337-.233-.574.04zm1.355.098.552-.36c.064-.004.174-.268.26.047.086.314-.235 1.235-.768.952zm-1.694 1.466.424-.35.524.155.082.251-.616.364-.022-.32-.247.146zm-1.497.618.803-.441.274.237-.407.606-.334.73-.616.363-.425.35-.095-.442-.484.419.077.187.023.32-.999.39-.219-.37.731-.564.475-.547c.055-.132.42-.414.543-.487s.416-.478.653-.751m-3.63 3.14c-.017-.255.106-.328.297-.34a.7.7 0 0 1 .397.164c.018.255-.161.46-.539.55-.132-.054-.15-.31-.155-.373m-1.113.592c.132.055.52.092.35.424-.264-.11-.856-.325-.35-.424m-.635 1.007-.419-.484.511-.036c-.055.132-.115.2-.174.269zM138.001 47.543c.009.127-.105.328-.105.328l-.192.013c.168.566.241.69.254.88l-.032.452c.077.187.09.379.099.506.054.767-.568 1.965-.555 2.156l.036.511c-.142.716-.258 1.814-.769 1.85l.018.256c-.119.136-.114.2-.11.264.014.191.414.42.414.42.009.128-.475.546-.534.615-.128.009-.602 3.314-.598 3.378-.191.013-.182.14-.173.269l.013.191c.027.383.089 1.277.343 2.157l-.191.014c-.328-.106-1.879-3.013-2.01-3.966-.004-.064-.621-2.459-.265-2.868-.204-.178-.359-.553-.386-.936-.04-.574.636-1.006.591-1.645l-.071-1.021c.639-.943-.001-2.759.611-3.187l-.222-1.332c-.191.014-.191.014-.178.205l-.191.014c-.311.15-2.438 1.838-2.539 2.23-1.005 1.225-2.225 3.043-3.252 3.949l-.242.21c-.262.851-1.124 1.36-1.65 2.103l-.255.018.1.507-.384.026c-.378.09-.488.355-.589.747l-.255.018c-.869 1.344-2.148 3.23-2.697 4.551-.06.069-.133-.055-.141-.182l-.018-.256c-.009-.127.433-.222.306-.213l-.703.049c-.488.355-.243 1.107-1.137 1.17l-.018-.256c-.328-.105-.938-.576-.965-.959-.009-.127.05-.196.174-.268l-.005-.064c-.165-2.363 1.41-3.692 1.312-5.096l-.009-.128c.169-.332.548-.423.517-.87l-.023-.32c.165-.396.398-.733.768-.951l-.014-.192c-.044-.638.248-1.044.395-1.695-.022-.32.101-.392.083-.648l-.013-.191s.746-2.17 1.085-2.835c-.329-.105-.406-.292-.415-.42-.013-.191-.027-.383.024-.579.246-.145.368-2.079.495-2.088-.093-1.34-.187-2.681-1.081-2.619l-.319.023c-.005-.064.055-.132.05-.196 1.66-.116 3.032.237 3.268.862 1.459.668 1.248 1.324 1.31 2.218.009.128.032.447.164.502a2 2 0 0 1-.079.711c-.083.647-.418 2.275-.902 2.694l.009.127c-.009-.127-.489.355-.603.556 0 0 .128-.01.137.118.071 1.022-1.277 2.848-1.228 3.55l-1.588 3.897c.698-.113 2.257-2.596 2.472-3.188l.932-1.349.192-.013c.255-.018.206-.72.781-.76-.078-.187-.078-.187-.087-.315-.017-.256.101-.392.484-.419l.575-.04c.191-.014.246-.146.233-.337l-.022-.32c-.018-.255-.027-.382.228-.4l.064-.005c-.058-.83 1.887-2.377 2.12-2.714l-.013-.192c-.032-.447.948-.194.99-.518l.127-.01c-.026-.382.476-.545.859-.572l.51-.036c.256-.018.242-.21.625-.236l-.141-.183c.115-.2.42-.414.608-.491.191-.014 1.933.121 1.951.377.004.063.004.063-.183.14.141.183.333.17.524.156l.447-.03.591 1.113s.236.625.263 1.008M117.685 43.767l-.625.236c-.05.196-.037.387-.356.41.013.191.205.178.332.169l.192-.014.15.31c-.379.091-.028.516-.603.556l.1.507a.5.5 0 0 1-.311.15s-.063.004-.068-.06l-.191.014.013.191c.013.192.159.438.35.425.085 1.213-.927 1.412-.842 2.625l.017.255c-.105.328-.821.186-.785.697.022.319.333.169.342.297.004.063-.302.277-.288.469l.009.128-.192.013c-.187.077-.105.328-.092.52.192-.014.192-.014.205.178-.174.268-.266.788-.439 1.057l.191-.013c.192-.014.315-.087.324.041l-.374.155c-.183.14-.101.392-.42.414l.004.064c.018.255-.301.277-.297.341s.26.046.273.238l-.118.136c.026.383-.024.58-.207.72l.005.064c.009.128-.11.265-.106.328 0 0 .009.128.201.115.128-.01.183-.141.183-.141.063-.005.2.114.213.306.014.191-.16.46-.224.464l.018.256c.014.191-.306.214-.301.277.277.302-.088.584.071 1.022l.003.962c.113.698.145 1.145.231 1.46.09.378.099.506-.079.71.018.256.21.243.282.366l.219.37c.332.169.423.547.701.849l.683.594c.017.255-.051.196-.242.209l-.315.086c-.315.086-.388-.037-.588-.151l-.128.009c-.127.009-.191.013-.2-.115-.005-.063.059-.068.055-.132-.005-.064-.078-.187-.205-.178l-.397-.165c-.473-.351-.551-.538-1.097-1.014-.068-.059-.282-.365-.155-.374-.181-.757-.623-.662-.65-1.045-.022-.32.211-.656.206-.72-.013-.191-.205-.178-.432-.675-.077-.187.037-.388.224-.465-.136-.119-.218-.37-.241-.69-.008-.127-.089-1.276-.079-2.047-.026-.383.084-.647-.062-.893l.213-2.453c-.314.086-.384.925-.703.947l-.554 1.258c-.032.451-.407.606-.721.692.136.119.018.255.035.51.014.192-.173.27-.543.488l-.128.009c-.178.205-.457.801-.648.815 0 0-.069-.06-.073-.123.004.063.004.063-.06.068l-.2-.114-.499 1.125-.191.014.013.191c.014.192-.165.397-.156.524l-.369.218.072.124c.232.56-.684.304-.99.518.141.183.205.178.219.37-.014-.192-.704.947-.955 1.029l-.315.086.014.192c.013.191.017.255-.11.264-.064.004-.201-.114-.214-.306-.561.232.386.935-1.21 1.047-.192.013-.328-.105-.333-.17l-.51.037c-.192.013-.219-.37-.41-.357-.374.155-.024.58-.53.679l-.036-.51-.191.012c.191-.013-.862-.388-1.08-.758-.068-.06-.004-.064.119-.137l-.014-.191c-.784-.202-1.343-.869-1.384-1.443-.017-.256.088-.584.471-.61-.137-.12-.146-.247-.155-.375-.075-1.085.506-2.858 1.569-3.253.042-.324-.309-.748.299-1.24-.014-.191-.146-.246-.337-.233.351-.474.316-.984 1.082-1.038-.045-.638 2.825-4.56 3.696-4.942-.165.397 1.431-2.474 2.325-2.536l.944-.259c.183-.14.352-.473.393-.797l-.077-.187.821-.186.064-.004c.128-.01.456.096.597.279.059-.069-.082-.251-.018-.256l.493-.29c.128-.01-.013-.192.174-.27l.51-.035c.082.25.397.165.547.475l.082.25c.273.238.423.549.742.526l.192-.013.288-.47c.123-.072.054-.132.109-.264l.486-1.317c-.009-.127.21-.656.047-1.158.839.07.976.188 1.618.208l.014.191.319-.022c.447-.031.843.133.875.58.163.502.263 1.009.353 1.387zm-5.79 5.28c-.383.027 1.63-1.46 1.492-3.44-.009-.128-.159-.438-.551-.539l-.548.423-.772.888-.191.014c-.575.04-.211.656-.722.692l-.127.009c-.575.04-.48.482-.927.514l-.128.009c-.114.2-.019.642-.466.674l-.191.013.018.255c-.913.706-1.978 2-2.842 3.407-.574.04.045.638-.402.67l-.128.008c-1.067.332-1 1.29-1.024 1.869l-.839-.07s-.041.324-.169.333c-.182.14-.255.017-.26-.047-.004-.063-.597-.279-.606-.406-.013-.192-.081-.251-.409-.356.113.697.044.638.613 1.432.146.247.52.092.725.27-.251.082-.434.223-.357.41l-.191.014c.022.319.044.638.3.62.013.192-.174.269-.16.46l-.183.142c-.292.405-.462.738-.435 1.12.022.32.1.507.377.808.434-.223.643.02 1.054-.523.293-.405 2.845-2.444 2.832-2.636l.342-.6c.069.058.137.118.265.109.255-.018.47-.61.452-.866.128-.009.124-.072.115-.2l-.014-.192c.753-.245.572-1.002.955-1.029l.064-.004c.013.191-.321.92-.294 1.303.009.128.091.379.282.366-.073-.124-.082-.251-.091-.379-.004-.064.06-.068.06-.068.128-.01.132.055.26.046.064-.005.064-.005.059-.069-.009-.127-.214-.305-.313-.812l.383-.026-.095-.443.187-.077c.255-.018.147-.652.466-.674l.191-.014.394-.797s.055-.132.05-.196c.132.055.196.05.196.05q.192-.013.178-.205l-.013-.191c.05-.196.987-1.48.974-1.672 0 0-.069-.06-.196-.05-.014-.192.178-.206.36-.347m-.464 2.535.064-.005c-.014-.191.165-.396.151-.587-.009-.128-.073-.124-.2-.115-.187.078-.242.21-.229.401.014.192.086.315.214.306m-2.99 4.957c-.063.004.073.123.146.246-.073-.123-.082-.25-.146-.246M85.84 56.644l.19-.014c.192-.013.329.105.334.17-.343.6-.882 1.152-1.43 1.575l-.192.013c-.383.027-1.844 1.156-2.378 1.77l.018.256c.027.383-.444.993-.89 1.024-.32.023-.338-.233-.53-.22-1.02.072-.097 1.355-1.438 1.449l-.255.017c-.315.087-.895.961-1 1.29l-.448.03c-.957.068-1.027.907-1.848 1.092l-.702.05c-.178.204-.43.286-.749.308-1.34.094-3.131-.743-3.559-1.355.014.192-.05.196-.242.21-.004-.064-2.81-1.664-2.936-3.452-.018-.255-.022-.32.033-.451l.32-.023.018-.643-.255.018c-1.15.08-.751-.653-1.581-.595-.04-.574.393-.797.494-1.19.264.11.396.166.405.293.014.192-.11.265-.165.397.626-.236.968-.838.901-1.795l.32-.023-.014-.191c-.196-.05-.205-.178-.218-.37-.027-.383.516-.87.476-1.445-.009-.127-.022-.319-.15-.31-.574.04-.18 1.103-.882 1.152 0 0-.072-.123-.2-.114q.205.178.245.753c.04.574-.407.606-.393.797s.077.187.205.178q-.261.404-.357.41c-.191.014-.346-.36-.386-.935-.094-1.34.787-1.595.747-2.17-.146-.246-.16-.438-.173-.63-.053-.765.312-1.047.76-1.977.2.114.27.174.278.301.027.384-.503 1.062-.527 1.641.247-.145.352-.474.598-.619l.097-.456c.041-.324.36-.346.398-.733-.014-.192-.41-.357-.428-.612.004.064 1.777-2.113 1.928-2.701-.064.004-.072-.123-.072-.123-.005-.064.228-.401.42-.415l.383-.027.083-.647c.206-.72.94-1.22 1.452-1.256l.191-.014c.748-.309 1.364-.672 1.844-1.155l-.013-.192c.739-.436 1.674-.822 2.632-.89.447-.03 3.46.85 3.531 1.87.031.448-.543.488-.517.871s.985.316 1.034 1.018c.013.192-.046.26-.356.41.14.183.218.37.414.42.009.128-.055.133-.055.133-.127.008-.2-.115-.328-.106.04.575-.21.657-.316.985.013.191.159.438.168.565.018.256-.165.397-.676.432l-.191.014c.013.191.145.246.159.438 0 0-2.672 3.074-3.502 3.132l-.383.027c-.383.026-.525-.156-.789-.266-.702.049-.074.775-1.223.855-.383.027-.643-.019-.656-.21-.01-.128-.01-.128.05-.196-.967-.061-2.156-.555-2.922-.502-.064.005-.192.014-.178.205.009.128.15.31.154.374.036.511-.561.232-.534.615s.117.762.144 1.145c.098 1.404-.438 2.917-.326 4.514.058.83.39 1.897 1.36 2.021l4.342-.303c.42-.414 1.113-.591 1.88-.645 1.76-.508 3.386-2.033 4.891-2.523 1.834-.385.636-1.007 3.465-2.744m-13.803-6.542-.709 1.782c-.114.2 1.427.221 1.865.062 4.772-1.488 4.647-3.276 4.912-4.064l.13-.908c-.41-.356-.825-.776-1.4-.736-.255.018-.57.104-.752.245l-.639.045c-.009-.128-.14-.183-.205-.178-.191.013-.56.231-.543.487.027.383.47.288.496.67-.178.206-.634.11-.735.501l-.383.027c-.447.032-.616.364-.986.582-.484.42-.972.774-1.379 1.38.06-.068.123-.073.187-.077.128-.01.196.05.141.182m.438-.159c-.063.005-.063.005-.068-.059-.027-.383.558-1.194.941-1.22.128-.01.192-.014.2.114-.16.46-.606.491-.758 1.08-.187.077-.315.085-.315.085M63.514 48.132l-.01-.128c.142.183.15.31.15.31.028.384-.278.598-.456.803l-1.15.08c-.255.018-.447.031-.469-.288l-.018-.255-.319.022c-.383.027-.429.286-.812.313l-.32.023.023.319c-.165.396-1.076.203-1.779.252l-.191.014c-.36.346-1.14.208-1.11.655l.01.128-.192.013c-.447.031-.352.474-.726.628l-.191.014c-.086-.315-.278-.302-.296-.557-.47.61-.833 1.854-1.599 1.908-.191.013-.383.027-.588-.151-.123.072-.123.072-.114.2.014.192.538.347.551.539s-.11.264-.352.474c-.387-.037-.245-.753-.628-.726-.383.026-.539.55-.539.55.018.256.432.676.536 1.246-.565.168-.584.811-1.287.86l-.053-.766c-.566.168-.572 1.002-.955 1.03-.128.008-.191.012-.396-.166.077.187.222.434.231.562.027.383-.484.418-.84.828.51-.035.885-.19.918-.641q.198.082.218.37c.018.255-.407.605-.79.632-.127.009-.328-.105-.332-.17l.03.448.192-.014c.511-.035.685-.304 1.118-.527l-.093-1.34c.127-.01.136.118.2.114.192-.014.31-.15.297-.342.073.123.086.315.095.443.027.383-.202.783-.175 1.166l.013.192.192-.013c.053.766-.44 1.057-.595 1.581l-.535.615c-.653.751-.375 1.053-.33 1.691.008.128.15.31.154.374.009.128-.114.2-.105.328.035.511.911.193 1.48.987.009.128.141.183.141.183.077.187.2.114.192-.013.191-.014.392.1.583.087 1.022-.071 1.828.45 3.146.037l.251-.082c-.032.451-.616.364-.93.45.154.374.346.36.537.347l.575-.04c.191-.013.191-.013.264.11.128-.009.119-.136.119-.136-.005-.064-.146-.247-.168-.566-.018-.256.757-.181.913-.706l1.127-.4c.154.375-.046.26-.229.402.068.06.196.05.452.032.574-.04.999-.39.985-.582-.004-.064-.14-.183-.332-.17l-.018-.254.127-.01c.192-.013.603-.555.859-.573.191-.013.378-.09.356-.41l.136.12c.192-.014.247-.146.234-.338.2.114.332.17.524.156.83-.058 2.008-1.552 2.264-1.57l.191-.013c.12 1.724-3.202 3.752-3.346 5.366l-.191.014c-1.246.536-2.871 2.061-4.659 2.186-.32.022-.51.036-.77-.01l-.192.013c-.293.406-.543.487-.863.51-1.149.08-2.151-.492-2.998-1.587-.063.004-.055.132-.182.14.191-.013-1.262-.617-1.672-.973l-.036-.51c-.52-.093-.56-.667-.77-.91l-.08-1.148c-.41-.357-.505-.799-.545-1.374-.058-.83.327-1.755.269-2.585a1.03 1.03 0 0 0-.232-.56c.378-.092.334-.73.836-.893l-.014-.192c.178-.205.17-1.23.362-1.244.128-.01.133.055.205.178l.32-.022c.138-.78 3.994-6.182 4.824-6.24l.128-.009c.064-.004.032-.451.028-.515l.1-.392c1.98-.139 2.772-2.568 4.113-2.662.168.566.962-.003 1.011.7l.192-.014-.022-.319.191-.013c.383-.027.236.625.62.598l.378-.09c.766-.054 2 1.078 2.633 1.868m-11.63 7.999c.074-.775.635-1.007 1.064-1.294-.02.643-.713.82-1.065 1.294m4.624 8.338c.04.574-.689.24-.721.692.072.123.396.164.588.151.638-.045 1.195-.34 1.141-1.106-.383.026-.424.35-.807.377-.141-.183-.036-.51-.355-.489.14.183.15.31.154.375M44.988 48.85l-.626.236c-.05.196-.037.388-.356.41.014.192.205.178.333.17l.191-.014.15.31c-.378.09-.028.515-.602.556l.1.506a.5.5 0 0 1-.311.15s-.064.005-.068-.06l-.192.014.014.192c.013.191.158.438.35.424.085 1.213-.928 1.412-.843 2.625l.018.256c-.105.328-.821.185-.785.696.022.32.332.17.341.297.005.064-.301.278-.288.47l.01.127-.193.013c-.187.078-.105.329-.092.52.192-.013.192-.013.205.178-.173.269-.265.789-.439 1.057l.192-.013c.191-.013.314-.086.323.042l-.374.154c-.182.141-.1.392-.42.414l.005.064c.017.256-.302.278-.297.342.004.064.26.046.273.237l-.119.137c.027.383-.023.579-.206.72l.004.064c.01.128-.11.264-.105.328 0 0 .009.128.2.114.128-.009.183-.14.183-.14.064-.005.2.114.214.305.013.192-.16.46-.224.465l.018.255c.013.192-.306.214-.302.278.278.301-.087.583.072 1.021l.003.962c.113.698.144 1.145.23 1.46.09.379.1.506-.078.711.017.256.209.242.282.365l.218.37c.333.17.423.548.701.85l.683.593c.018.255-.05.196-.242.21l-.315.086c-.314.086-.387-.037-.588-.152l-.127.01c-.128.008-.192.013-.2-.115-.005-.064.059-.068.054-.132s-.077-.187-.205-.178l-.396-.165c-.474-.352-.551-.539-1.098-1.014-.068-.06-.282-.365-.154-.374-.181-.757-.624-.662-.65-1.045-.023-.32.21-.657.206-.72-.014-.192-.205-.179-.432-.676-.078-.187.037-.388.224-.465-.137-.118-.219-.37-.241-.689-.009-.127-.09-1.276-.079-2.047-.027-.383.083-.648-.062-.894l.213-2.453c-.315.086-.385.925-.704.948l-.553 1.257c-.033.452-.407.606-.722.692.137.119.018.256.036.511.013.192-.174.269-.543.487l-.128.01c-.178.204-.457.8-.649.814 0 0-.068-.06-.073-.123.005.064.005.064-.059.068l-.2-.114-.5 1.126-.19.013.013.191c.013.192-.165.397-.156.525l-.37.218.073.123c.232.561-.684.305-.99.519.14.182.205.178.218.37-.013-.192-.704.947-.955 1.028l-.314.087.013.191c.014.192.018.255-.11.264-.064.005-.2-.114-.214-.305-.56.231.387.935-1.21 1.046-.191.014-.328-.105-.332-.169l-.51.036c-.192.013-.22-.37-.41-.356-.375.154-.024.579-.53.678l-.036-.51-.192.013c.192-.013-.861-.389-1.08-.759-.068-.059-.004-.063.12-.136l-.014-.192c-.784-.201-1.344-.868-1.384-1.443-.018-.255.087-.583.47-.61-.136-.119-.145-.246-.154-.374-.076-1.086.506-2.858 1.569-3.254.041-.323-.31-.748.298-1.24-.013-.19-.145-.246-.337-.232.352-.474.316-.985 1.082-1.038-.044-.639 2.825-4.56 3.696-4.942-.164.396 1.431-2.474 2.325-2.537l.945-.258c.182-.141.351-.474.393-.797l-.077-.188.82-.185.064-.005c.128-.009.456.097.597.28.06-.07-.081-.252-.017-.256l.492-.291c.128-.01-.013-.192.174-.269l.51-.036c.083.251.397.165.547.475l.082.251c.273.238.423.548.742.526l.192-.014.288-.469c.123-.073.055-.132.11-.264l.485-1.317c-.009-.128.21-.657.047-1.158.84.07.976.188 1.619.207l.013.192.32-.023c.447-.03.843.134.874.58.164.503.263 1.009.354 1.388zm-5.79 5.28c-.383.028 1.63-1.46 1.492-3.44-.01-.127-.16-.437-.551-.538l-.548.423-.772.888-.192.013c-.574.04-.21.657-.721.692l-.128.01c-.575.04-.48.482-.926.513l-.128.009c-.114.2-.02.643-.466.674l-.192.014.018.255c-.913.705-1.977 1.999-2.841 3.406-.575.04.044.639-.402.67l-.128.009c-1.068.331-1 1.289-1.024 1.868l-.84-.07s-.04.324-.168.333c-.183.141-.256.018-.26-.046s-.597-.279-.606-.407c-.013-.191-.082-.25-.41-.356.113.698.045.638.613 1.433.146.246.52.092.725.27-.25.081-.433.223-.356.41l-.192.013c.023.32.045.639.3.62.014.192-.173.27-.16.46l-.183.142c-.292.405-.461.738-.434 1.121.022.32.1.506.377.808.433-.223.643.019 1.054-.523.292-.406 2.844-2.444 2.831-2.636l.343-.601c.068.059.136.118.264.11.256-.018.47-.61.453-.866.128-.01.123-.073.114-.2l-.013-.192c.753-.245.571-1.002.954-1.03l.064-.004c.014.192-.32.92-.294 1.304.01.128.091.379.283.365-.073-.123-.082-.25-.091-.379-.005-.063.06-.068.06-.068.127-.009.132.055.26.046.063-.004.063-.004.058-.068-.008-.128-.213-.306-.313-.812l.383-.027-.095-.443.187-.077c.255-.018.147-.651.466-.674l.192-.013.393-.798s.055-.132.05-.196c.133.055.197.05.197.05q.191-.012.178-.204l-.014-.192c.05-.196.988-1.48.974-1.672 0 0-.068-.059-.196-.05-.013-.192.178-.205.36-.346m-.465 2.535.064-.004c-.013-.192.165-.396.152-.588-.01-.128-.073-.123-.2-.114-.188.077-.243.21-.23.4.014.192.087.315.215.306m-2.989 4.957c-.064.005.073.123.145.246-.072-.123-.081-.25-.145-.246M7.5 70.205c-.889-.772-1.713-1.548-2.605-2.384.07-1.737.073-3.534.144-5.27l.703-.05c-.422-1.446.86-1.471 1.208-2.907.36-.346-.022-.32-.245-.753.187-.077 2.15-5.026 2.26-5.29-1.851.129-4.889.726-6.256.437-.369-.68-.456-.096-.541-1.31-.355-.488-.172-.63-.107-1.532 3.064-.214 5.751-1.236 8.547-1.624.901-1.795 1.84-4.876 2.673-6.73.27-.726 1.011-2.06.524-2.604.695-1.075 2.36-4.784 2.449-6.266l-.51.036c-.604.555-1.529.17-2.328.676-.046.26-.16.46-.201.784-.069-.06-.137-.119-.278-.301-1.422-.158-4.531 2.177-5.124 1.962-1.559-.276-2.301-.802-2.385-2.913-.282-.365-.454-.995-.822-1.675l.957-.067-.071-1.021c.839.07.93.448 1.458.668 2.335-.549 4.612-1.028 6.888-1.508.132.055 6.185-1.46 8.065-2.104 5.89-2.016 18.183-2.362 22.27-.788.589.152.936-.386 1.196-.34 1.486.153 5.98 1.122 6.68 2.87.346.36.495 1.569.376 1.705-.242.21-.06.068-.429.287-.992-1.342-2.386-2.015-4.082-2.41l-.989-.38-.715-.142-1.081.14-.83.058-.483-.48-1.012.2-1.172-.24-1.209.15-.26-.047-1.307-.357-.348.537-1.103-.18L36.183 29c-5.112.293-10.932 1.47-15.266 2.8l.04.574.32-.022c.628.726-.01.77.111 1.596l-.37 1.117.017.255-.9.897-.151.588-.69 1.139.053.766-.571 1.002-1.027.906-.092.52.203 1.076-.816.25-.235 1.235-.48.483.063.894-.347.537-.239 1.172-.568 1.964.702-.049c1.164-.787 4.845-1.365 6.362-.766.785-.696 2.542-1.268 4.202-1.384.893-.062 1.796.003 2.452.213 1.573.468 3.075-.984 4.416-1.078.575-.04 1.103.18 1.54.919l-4.022.28c-1.037.779-1.537.044-2.86.393-1.88.645-2.24.99-3.326 1.067l-1.646.307c.597.28.123-.072.487.544-.36.346-.352.474-.909.769-.36.346-1.19.404-1.66.116.89-.126.648.083.927-.514l-.958.067c-.242.21-.06.069-.433.223l.035.51c.392.102.196.051.47.289-.707-.015-.657-.211-.958.067-.402.67-1.51.426-2.714.639-1.651.243-4.825.722-5.479 1.473-.602.556-.7 1.91-.752 3.004l.255-.018-.017-.255c.356-.41.351-.474.425-1.249l.958-.067.014.192c-.9.897-.708 3.642-1.621 4.347-1.027.906-1.819-.322-2.579 1.656.337.233.765.845 1.07 1.53-2.31 1.829.324 5.558-2.12 8.231m22.873-40.799c.352-.473.434-.223.649-.815l-1.405.098c.05.703-.279.597.756.717m3.522-1.016.036.51 2.412-.36-1.746-.199zm-9.523 1.436.031.447c.83-.058 1.273-.153 1.629-.563zm-3.11.474.03.447.511-.036-.018-.255zm1.1 1.976c-.456-.096-.451-.033-.725-.27.515.028.452.033.725.27M11.82 46.678l.036.511.51-.035-.035-.511zm23.99-.971.023.319c-.392-.101-.196-.05-.47-.288zm-3.7 2.119c-.456-.096-.912-.193-1.181-.367.191-.013 1.638-.435 1.701-.44.128-.008.032.448-.52.807m-1.934-.121.018.255c-1.085.076-1.98.138-2.448-.15zm-8.346.84.032.447.51-.036-.03-.447zm4.86.686-.04-.574c.52.092.451.032.725.27l-.192.013c-.242.21-.06.069-.493.291m-1.2.277c-.45-.033-.446.031-.715-.143.515.029.451.033.715.143M22.69 50.73c-.451-.032-.447.031-.716-.142.515.028.452.032.716.142m-.684.305c-.516-.028-.452-.033-.72-.207.52.092.45.033.72.207m-11.223 6.494.447-.031-.076-1.085c-.077-.187.119-.137-.214-.306-.105.328-.155.524-.157 1.422m-.662.624.031.447.447-.031-.031-.447zm-.354 2.27-.443.095.116-1.098c.21.242.168.565.327 1.003m.193-.911.491.607c-.11.264-.233.337-.301.278-.128.008-.182-.758-.19-.885m-.622 1.198.446-.031c-.032.451-.155.524-.22.528-.131-.055-.277-.301-.226-.497M277.752 125.823l-.128.009.009.128c.141.182.145.246.154.374.04.574-1.383 1.316-1.511 1.325-.638.044-.35-.425-.861-.389l-.639.044c-2.17.152-1.744-1.097-2.929-1.527l-.064.004c-.064.005-.137-.118-.15-.31-.023-.319.032-.451.16-.46l.192-.014-.023-.319c.079-.711.645-.879.655-1.649.255-.018.574-.041.592.215l.064-.005c.128-.009.132.055.205.178.119-.136.33-.793.521-.806l.209.242-.059.068c.073.124.223.434.414.421l-.009-.128c-.004-.064.115-.201.306-.214.256-.018.456.096.47.288 0 0 2.292.674 2.404 2.27zM272.102 120.893l.191-.013c.192-.014.328.105.333.169-.343.601-.882 1.152-1.43 1.576l-.191.013c-.383.027-1.844 1.155-2.378 1.77l.017.256c.027.383-.443.993-.89 1.024-.32.023-.337-.233-.529-.219-1.021.071-.098 1.354-1.438 1.447l-.256.018c-.315.086-.895.961-1 1.289l-.447.031c-.958.067-1.028.906-1.849 1.092l-.702.049c-.178.205-.429.287-.748.309-1.341.094-3.132-.743-3.559-1.355.013.192-.051.196-.242.209-.005-.063-2.811-1.663-2.936-3.451-.018-.256-.023-.319.032-.452l.32-.022.019-.643-.256.018c-1.149.08-.751-.653-1.581-.595-.04-.575.393-.797.494-1.189.265.109.397.164.406.292.013.192-.11.264-.165.397.625-.237.968-.838.901-1.796l.319-.022-.013-.192c-.196-.05-.205-.178-.219-.369-.026-.383.517-.87.477-1.445-.009-.128-.023-.319-.15-.31-.575.04-.18 1.103-.882 1.152 0 0-.073-.123-.201-.114q.206.177.246.752c.04.575-.407.606-.394.798.014.191.078.187.205.178q-.26.403-.356.41c-.192.013-.346-.361-.386-.935-.094-1.341.786-1.595.746-2.17-.145-.246-.159-.438-.172-.629-.054-.766.312-1.049.76-1.978.2.114.269.173.277.301.027.383-.503 1.062-.526 1.641.246-.146.351-.474.598-.619l.096-.456c.042-.324.361-.346.398-.734-.013-.191-.41-.356-.428-.611.005.063 1.777-2.113 1.929-2.701-.064.004-.073-.124-.073-.124-.005-.064.229-.401.42-.414l.383-.027.083-.647c.206-.72.941-1.221 1.452-1.256l.192-.014c.748-.309 1.364-.673 1.843-1.155l-.013-.192c.739-.436 1.675-.823 2.632-.89.447-.031 3.46.849 3.531 1.871.032.447-.543.487-.516.87s.984.316 1.033 1.018c.014.192-.045.26-.356.41.141.183.219.37.415.42.008.128-.055.132-.055.132-.128.009-.201-.114-.329-.105.041.575-.21.656-.316.984.014.192.159.438.168.566.018.255-.165.396-.675.432l-.192.014c.014.191.146.246.159.438 0 0-2.672 3.073-3.502 3.131l-.383.027c-.383.027-.524-.156-.788-.265-.703.049-.075.775-1.224.855-.383.027-.643-.019-.656-.211-.009-.127-.009-.127.05-.196-.966-.06-2.156-.555-2.922-.501-.064.004-.191.013-.178.205.009.128.15.31.155.374.035.511-.562.232-.535.615s.118.761.144 1.145c.099 1.404-.437 2.917-.326 4.513.059.83.39 1.898 1.361 2.022l4.341-.303c.42-.415 1.114-.591 1.88-.645 1.761-.508 3.386-2.033 4.892-2.523 1.833-.385.635-1.007 3.465-2.745m-13.802-6.541-.71 1.782c-.114.2 1.427.221 1.865.062 4.772-1.489 4.647-3.276 4.913-4.065l.129-.907c-.41-.356-.824-.776-1.399-.736-.255.018-.57.104-.753.245l-.638.045c-.009-.128-.141-.183-.205-.178-.192.013-.561.231-.543.487.026.383.469.288.496.671-.179.205-.634.108-.735.5l-.383.027c-.447.031-.616.364-.986.582-.484.419-.973.774-1.379 1.38.059-.069.123-.073.187-.078.127-.008.196.051.141.183m.438-.159c-.064.005-.064.005-.068-.059-.027-.383.558-1.194.941-1.221.127-.009.191-.013.2.114-.16.461-.607.492-.758 1.08-.187.077-.315.086-.315.086M249.776 112.382l-.009-.128c.141.183.15.31.15.31.027.384-.279.597-.457.802l-1.149.081c-.256.018-.447.031-.469-.288l-.018-.256-.319.023c-.383.026-.429.286-.813.313l-.319.022.023.32c-.165.396-1.077.203-1.779.252l-.192.014c-.36.346-1.14.208-1.109.655l.009.127-.191.014c-.447.031-.352.473-.726.628l-.192.013c-.086-.314-.277-.301-.295-.556-.471.61-.833 1.854-1.599 1.908-.192.013-.383.026-.588-.152-.123.073-.123.073-.114.201.013.191.537.347.551.539.013.191-.11.264-.352.473-.388-.037-.245-.752-.628-.726-.384.027-.539.551-.539.551.018.256.432.676.536 1.246-.566.168-.585.811-1.287.86l-.054-.766c-.566.168-.571 1.002-.954 1.029-.128.009-.192.013-.397-.165.077.187.223.434.232.561.027.383-.484.419-.84.829.51-.036.884-.19.917-.642q.198.083.218.37c.018.255-.406.606-.789.633-.128.009-.329-.106-.333-.17l.031.447.192-.013c.511-.036.684-.305 1.118-.527l-.094-1.341c.128-.009.137.119.2.114.192-.013.311-.15.297-.341.073.123.086.314.095.442.027.383-.201.784-.175 1.167l.014.192.191-.014c.054.767-.439 1.058-.595 1.582l-.534.615c-.653.751-.376 1.052-.331 1.691.009.127.15.31.154.374.009.128-.114.2-.105.328.036.511.912.193 1.481.987.008.128.141.183.141.183.077.187.2.114.191-.014.192-.013.392.101.584.088 1.021-.072 1.827.449 3.146.036l.251-.081c-.033.451-.616.364-.931.45.154.374.346.361.537.347l.575-.04c.192-.013.192-.013.264.11.128-.009.119-.137.119-.137-.004-.064-.145-.246-.168-.565-.018-.256.757-.182.913-.706l1.127-.399c.155.374-.046.259-.228.4.068.06.196.051.451.033.575-.04.999-.391.986-.582-.005-.064-.141-.183-.333-.169l-.018-.256.128-.009c.191-.013.603-.555.858-.573.192-.013.379-.091.356-.41l.137.119c.191-.013.246-.146.233-.337.2.114.333.169.524.156.83-.058 2.009-1.552 2.264-1.57l.192-.013c.12 1.723-3.202 3.752-3.346 5.366l-.192.013c-1.245.537-2.871 2.062-4.659 2.187-.319.022-.51.035-.77-.011l-.192.014c-.292.405-.543.487-.862.509-1.149.081-2.152-.491-2.998-1.586-.064.004-.055.132-.183.141.192-.014-1.262-.618-1.672-.974l-.036-.511c-.519-.092-.559-.666-.769-.908l-.08-1.15c-.41-.356-.505-.798-.545-1.373-.058-.83.326-1.755.268-2.585a1.03 1.03 0 0 0-.232-.561c.379-.091.334-.729.836-.893l-.013-.191c.178-.205.17-1.231.362-1.244.128-.009.132.054.205.178l.319-.023c.138-.779 3.995-6.181 4.824-6.239l.128-.009c.064-.005.033-.452.028-.516l.101-.391c1.979-.139 2.772-2.568 4.113-2.662.167.566.962-.003 1.011.699l.191-.013-.022-.319.192-.014c.383-.026.236.625.619.599l.378-.091c.767-.054 2.001 1.079 2.633 1.869m-11.63 7.999c.074-.775.635-1.007 1.064-1.294-.019.643-.712.82-1.064 1.294m4.625 8.337c.04.575-.689.241-.722.692.073.124.397.165.588.152.639-.045 1.195-.341 1.142-1.107-.383.027-.425.351-.808.378-.141-.183-.036-.511-.355-.489.141.183.15.31.155.374M231.25 113.1l-.625.236c-.05.196-.037.388-.356.41.013.191.205.178.333.169l.191-.013.15.31c-.379.091-.028.515-.603.555l.1.507a.5.5 0 0 1-.31.15s-.064.004-.069-.06l-.191.014.013.191c.014.192.159.438.351.425.084 1.213-.928 1.412-.843 2.625l.018.255c-.106.329-.821.186-.786.697.023.319.333.169.342.297.004.064-.302.278-.288.469l.009.128-.192.013c-.187.077-.105.328-.092.52.192-.014.192-.014.205.178-.174.269-.265.788-.439 1.057l.191-.013c.192-.014.315-.086.324.041l-.374.155c-.183.141-.101.392-.42.414l.004.064c.018.255-.301.278-.297.341.005.064.26.046.274.238l-.119.137c.027.383-.024.579-.206.72l.004.064c.009.127-.11.264-.105.328 0 0 .009.127.2.114.128-.009.183-.141.183-.141.064-.005.2.114.214.306.013.191-.161.46-.225.465l.018.255c.014.191-.306.214-.301.278.278.301-.088.583.071 1.021l.004.962c.112.698.144 1.145.23 1.46.091.378.099.506-.079.711.018.255.21.242.282.365l.219.37c.332.169.423.548.701.849l.683.594c.018.255-.051.196-.242.209l-.315.086c-.315.087-.387-.037-.588-.151l-.128.009c-.127.009-.191.013-.2-.114-.005-.064.059-.069.055-.133-.005-.063-.077-.187-.205-.178l-.397-.164c-.473-.352-.55-.539-1.097-1.014-.068-.06-.282-.366-.154-.374-.182-.758-.624-.663-.651-1.046-.022-.319.211-.656.206-.72-.013-.191-.205-.178-.432-.675-.077-.187.037-.388.224-.465-.136-.119-.218-.37-.24-.689-.009-.128-.09-1.277-.079-2.047-.027-.383.083-.648-.063-.894l.214-2.453c-.315.086-.385.925-.704.947l-.554 1.258c-.032.451-.406.606-.721.692.136.119.018.255.036.511.013.191-.174.269-.544.487l-.127.009c-.179.205-.458.802-.649.815 0 0-.068-.059-.073-.123.005.064.005.064-.059.068l-.201-.114-.498 1.125-.192.014.013.191c.014.192-.164.397-.155.524l-.37.219.073.123c.231.561-.685.304-.991.518.141.183.205.178.219.37-.014-.192-.704.947-.955 1.029l-.315.086.014.192c.013.191.018.255-.11.264-.064.005-.2-.114-.214-.306-.561.232.386.936-1.21 1.047-.191.014-.328-.105-.332-.169l-.511.036c-.192.013-.218-.37-.41-.357-.374.155-.024.579-.53.679l-.036-.511-.191.014c.191-.014-.861-.389-1.08-.759-.068-.059-.004-.064.119-.136l-.013-.192c-.784-.202-1.344-.868-1.384-1.443-.018-.255.087-.584.47-.61-.136-.119-.145-.247-.154-.374-.076-1.086.506-2.859 1.569-3.254.041-.323-.309-.748.298-1.24-.014-.191-.146-.246-.337-.233.352-.473.316-.984 1.082-1.038-.045-.638 2.825-4.56 3.696-4.942-.165.397 1.431-2.473 2.325-2.536l.944-.258c.183-.142.352-.474.394-.798l-.078-.187.821-.186.064-.004c.128-.009.456.096.597.279.06-.068-.082-.251-.018-.255l.493-.291c.128-.009-.013-.192.174-.269l.511-.036c.081.251.396.165.546.475l.082.251c.273.237.423.548.742.525l.192-.013.288-.469c.123-.073.055-.132.11-.264l.485-1.318c-.009-.127.211-.656.047-1.158.839.07.976.189 1.619.208l.013.191.319-.022c.447-.031.844.134.875.581.163.501.263 1.008.353 1.386zm-5.789 5.281c-.384.026 1.63-1.462 1.491-3.441-.009-.127-.159-.438-.551-.539l-.548.424-.772.888-.191.013c-.575.04-.211.656-.722.692l-.127.009c-.575.04-.48.483-.927.514l-.127.009c-.115.2-.02.643-.466.674l-.192.013.018.256c-.913.705-1.977 1.998-2.841 3.406-.575.04.044.639-.403.67l-.127.009c-1.068.331-1.001 1.289-1.025 1.868l-.838-.07s-.042.324-.17.333c-.182.141-.255.018-.26-.046-.004-.064-.596-.279-.605-.407-.014-.192-.082-.251-.41-.356.113.698.044.638.613 1.432.146.247.52.092.725.271-.251.081-.434.222-.356.409l-.192.014c.022.319.045.638.3.62.013.192-.174.269-.16.461l-.183.141c-.292.405-.461.738-.435 1.121.023.319.1.506.378.807.433-.222.642.02 1.054-.522.292-.406 2.844-2.445 2.831-2.636l.343-.602c.068.06.136.119.264.11.255-.018.47-.61.453-.865.127-.009.123-.073.114-.201l-.014-.191c.753-.246.572-1.003.955-1.03l.064-.004c.013.191-.321.921-.294 1.304.009.127.091.378.282.365-.073-.123-.081-.251-.09-.379-.005-.064.059-.068.059-.068.128-.009.132.055.26.046.064-.005.064-.005.059-.068-.009-.128-.214-.306-.313-.813l.383-.026-.095-.443.187-.077c.255-.018.147-.652.466-.674l.191-.014.394-.797s.055-.132.05-.196c.132.055.196.051.196.051q.192-.014.178-.205l-.013-.192c.05-.196.987-1.48.974-1.672 0 0-.069-.059-.196-.05-.014-.192.178-.205.361-.346m-.465 2.534.064-.004c-.013-.192.165-.397.151-.588-.009-.128-.072-.123-.2-.115-.187.078-.242.21-.229.401.014.192.086.315.214.306m-2.989 4.957c-.064.004.072.123.145.246-.073-.123-.081-.251-.145-.246M212.352 118.142c-.11.265-.334.73-.909.77-.191.013-.268-.174-.588-.152 0 0-1.474.937-2.418 1.196-.383.027-.909.769-1.292.796-.319.022-.761.117-1.021.071-.366.283-1.273.154-1.096.847-.191.013-.269-.174-.524-.156.077.187-.114.201-.097.456-.196-.05-.905 1.731-1.416 1.767l-.191.013.077.188c.077.187.082.25.104.57l.018.255c.136.119.341.297.346.361.036.511-.307 1.112-.814 1.211.743.526 1.188 1.393 1.284 1.835l.191-.013c.192-.013 1.791.837 1.89 1.343l.263 1.009c.283.365.487.543.578.922l.086.314.256-.018c.282.366.718 1.105.9 1.862.172.63.157 1.336-.021 1.541l.064-.004c.192-.014.41.356.414.42.027.383-.142.716-.06.967l.395 1.063q-.172.3-.152.588c.005.063.205.178.21.242l.013.191c-.041.324-.543.487-.329.793.072.123.077.187.213.306l.078.187c.309.748-.722.692-.713.82.005.063.588.151.67.402.163.502-.215.592-.42.414-.123.073-.183.141-.169.333.141.182.154.374.231.561.386.935-.313 1.947-.519 2.667l.095.442-.191.014c-.32.022-.627 1.134-.728 1.526.018.255.461.16.474.352.004.064-.723 1.59-2.212 3.234l.005.064c.022.319-.216.592-.034 1.35l-.192.013c-.383.027-.675.432-.576.938l-.319.023c.349 1.323-1.257 2.205-1.755 2.432-.487-.543-1.86.002-2.565-.911l-.192.013c-.511.036-2.201-1.193-2.278-1.38-.154-.374.365-.282.343-.602-.013-.191-.579-.023-.837-.968-.091-.378.844-3.523.771-3.646-.196-.051-.337-.233-.529-.22-.144-1.145.683-2.165.67-2.356-.205-.179-.228-.498-.305-.685-.386-.935-.138-1.979.42-3.173l.064-.004c.202-.784.522-1.705.564-2.029-.196-.05-.269-.173-.274-.237-.013-.192-.022-.319.106-.328.064-.005.264.11.46.16.306-.214.288-.469.197-.848-.191.014-.291-.493-.368-.68-.313-.812.537-2.411 1.268-2.975l-.096-.443-.127.009c-.064.005-.219-.37-.227-.497-.032-.447.01-.771.379-.989l.256-.018c.059-.068.05-.196.046-.26-.014-.191-.282-.365-.296-.557-.009-.127.051-.196.306-.214l-.013-.191c-.014-.192.041-.324.028-.515l-.014-.192c-.004-.064.542-2.347.67-2.356-.095-.443-.378-.808-.824-.777l-.192.014c-.98-.252-2.469-1.367-2.633-1.869 0 0-.004-.064.051-.196l-.256.018c-.068-.06-.077-.187-.09-.379.009.128-.178.205-.37.218-.128.009-.192.014-.269-.173-.401-.229-.724-.27-1.139-.69-.319.022-1.067.331-1.094-.052-.018-.256.079-.711.27-.725.702-.049.466-.674 1.935-.777l-.078-.187c.462-.738 1.917-1.032 2.67-1.277l.383-.027c-.005-.064.05-.196.114-.2.192-.014.392.101.397.164.064-.004.123-.072.114-.2-.005-.064-.141-.183-.205-.178 0 0-.004-.064.123-.073.256-.018.985.316 1.751.263.128-.009.319-.023.438-.159l-.014-.192c-.026-.383-.359-.552-.683-.594.015-.706.028-.515.207-.72l.127-.009c.365-.282 1.731-1.853 1.654-2.04l-.181-.757c-.182-.757.944-.259 1.061-2.256l-.192.014c-.136-.119-.264-.11-.268-.174-.023-.319.721-.692.43-1.185-.073-.123-.214-.306-.218-.37l.383-.026c-.063-.894 1.087-.975.828-1.919.019-.643.034-1.35.326-1.755-.141-.183-.282-.365-.363-.616l.191-.013c.183-.142.306-.214.42-.415.082.251.187-2.836.825-2.88l.319-.023c-.132-.055-.145-.246-.218-.369-.145-.247.033-.452.019-.643l-.013-.192c-.04-.574 1.426-2.537 1.059-4.116 0 0 .717-.756.827-1.02-.073-.123-.205-.178-.205-.178-.181-.757.878-1.216.637-1.905-.313-.812.676-.432.585-.81l-.172-.63c.406-.606 1.073-1.166 1.092-1.809-.168-.566-.5-.735-.523-1.054-.004-.064-.018-.255.101-.392l.447-.031c.238-.273 1.082-1.038 1.384-1.316l-.009-.128c-.014-.191.05-.196.032-.451l-.013-.192c-.027-.383.024-.579.215-.592.319-.022.487.543.947.704l.511-.036c.383-.027 1.741 1.033 1.822 1.284-.763 1.016-1.193 2.2-1.961 3.152l.186.821c-.114.2-.566.168-.539.551l.014.192-.383.027.09.378c-.402.67-.938 2.183-1.331 2.98l-.192.014c-.255.018-.301.278-.548.423.078.187.333.169.525.156.081.251-1.381 2.278-1.381 2.278l.164.501c.196.051.323.042.323.042.077.187-.424.35-.406.606.008.128.072.123.077.187l.013.191c.009.128.014.192.205.179 0 0-1.832 2.245-1.823 2.373.018.255.414.42.492.607.15.31-.561.231-.334.729l.077.187c.459 1.058-1.17 1.621-1.116 2.388.018.255.401.228.478.415s-.871.382-.854.637c.009.128.078.187.342.297-.101.392-.402.67-.644.879.141.183.277.302.432.676-.766.053-.517.87-1.078 1.102l.077.187c.7 1.747-1.473 3.696-1.288 4.517 0 0 .201.114.205.178-.119.136-.105.328-.105.328.077.187.269.174.715.142.156-.524 1.41-.034 1.501-.554-.013-.191.179-.205.37-.218l1.724-.121-.077-.187c.484-.418 1.173-.659 2.454-.685.46.161.647.083.597.279m.644-.879c.561-.231 1.373-.545 2.331-.612l.269.174c-.785.696-1.492.682-2.35 1.255-.141-.183-.205-.178-.333-.169-.141-.183-.159-.438.083-.648m-10.955 7.567.064-.004c.383-.027.301-.278.279-.597l-.004-.064c-.023-.319.316-.985.234-1.236-.328-.105-.863.51-1.118.528-1.085.076-1.62.69-2.368.999l-1.008.263c-.506.1-.552.36-.457.802.09.379.423.548.806.521.447-.031 1.136-.272 1.583-.303.766-.054.802.457 1.185.43a.73.73 0 0 0 .433-.222l.132.055c.064-.005.187-.078.11-.265-.141-.182-.282-.365-.419-.484-.068-.059.229-.401.548-.423m1.379 5.036-.077-.187c-.278-.301-.56-.667-1.135-.626-.206.72-.435 1.121-.249 1.942l.177.693c-.114.201-.57.104-.612.428l-.191.013.172.63c.517 1.888-1.535 1.903-.844 3.523.077.187.282.365.291.493.04.575.131.953-.444.993l.141.183c-.123.073-.114.201-.11.264.009.128.278.302.282.366.014.191-.424.35-.342.601l.204.178c-.406.606-.353 1.372-.363 2.143l-.638.044c-.192.014-.042.324-.029.516.045.638.658-.688.74-.437.086.315-.266.788-.23 1.299.004.064.209.242.282.365-.187.078-.178.205-.37.219l.005.063c.009.128-.114.201-.178.205l.168.566c.136.119.141.183.15.31.026.383-.121 1.035-.094 1.418l-.191.014c.09.378.049.702-.257.916l.205.178c-.365.282.276 1.2-.426 1.249.086.314.218.369.483.479-.124.073-.115.201-.11.265l.009.127c.004.064-.187.077-.115.201l.3.62c.073.124-.356.41-.547.424l.013.191c.192-.013.397.165.483.48l.104.57c.565-.168 1.199-.277 2.093-.339l.383-.027c.891-1.025 1.385-2.214 2.203-3.362l.639-.044-.014-.192c-.027-.383-.428-.612-.437-.739-.013-.192.562-.232.48-.483-.064.005-.073-.123-.073-.123-.068-.06.992-1.417.987-1.481l-.013-.191.191-.014-.176-.693c-.082-.251.369-.218.215-.592l-.077-.187c.123-.073.109-.265.101-.392l-.005-.064c.64-.943-.677-1.429.727-1.527-.167-.565-.267-1.072-.714-1.04.497-.228.712-3.579.69-3.898-.005-.064-.141-.183-.205-.178l-.192.013c-.259-.046-.273-.237-.592-.215.229-.401.153-1.486.225-1.363-.077-.187-.086-.315-.355-.488.115-.201.101-.392.02-.643-.164-.502-.783-1.1-1.092-1.849-.077-.187-.154-.374-.104-.57-.661-.274-1.139-.69-1.562-1.238m2.675 13.478c.009.128-.179.205-.101.392-.192.014-.269-.173-.588-.151.05-.196.242-.209.224-.465.196.051.209.242.465.224M177.084 134.402l.45.931c.683.594.633.79 1.558 1.174.324.042.784.202 1.171.239-.561.232-1.126.4-1.455.294-.524-.155-1.654-.718-1.658-.782l-.747-.589a5.26 5.26 0 0 1-1.401-2.597l.196.051c-.298-1.519-.755-.717-.93-3.207-.058-.83.012-1.669-.015-2.052l-.022-.319c-.027-.384.275-.661.248-1.044l-.054-.766c-.022-.32-.107-1.533.318-1.883l-.032-.447c-.994.454-.923 1.476-1.462 2.027l.014.191-.174.269c.013.192.205.178.241.689l-.192.013c-.123.073-.178.205-.497.228l-.256.018.045.638a1.56 1.56 0 0 1-.143.716q-.3-.172-.396-.165c-.192.013-.379.091-.506.1-.064.004-.192.013-.26-.046.018.255.095.442.287.429l1.085-.076c-.293.405-.521.806-1.087.974.082.251.218.37.282.365.192-.013.361-.346.676-.432l.191-.013c-.452.865-.555 2.155-1.69 2.427l-.447.032c.044.638-.867.445-.827 1.02l.027.383c.071 1.021-2.717 2.435-3.84 2.899l-.834-.006c-.128.009-.183.141-.31.15-.256.018-2.274-1.317-2.314-1.891-.013-.192.174-.269.16-.461-.022-.319-.432-.675-.458-1.058.046-.26.215-.593.593-.683-.077-.187-.282-.365-.309-.749-.026-.383.438-.158.42-.414l-.013-.191c.297-.342.343-.602.316-.985-.013-.191-.036-.511-.113-.698.107-1.226 1.048-2.447 1.136-3.03-.33.793.33-1.691.709-1.782l-.022-.319c-.054-.766.234-1.236.59-1.645.383-.027.086-2.444.962-2.762l-.022-.32c-.128.009-.128.009-.132-.054-.049-.703.489-1.254.645-1.778l.051-.196c.096-.456-.528-1.118-.554-1.501l1.14-.208c.894-.062 2.184.04 2.526.337l.013.191.255-.018c.159.438.078.188.113.698.045.639-.246.146-.274.661.182-.141-.143.716-.962 2.762l-.376 1.053s-.978 1.608-1.019 1.931l.013.192c.072 1.021-.399 1.632-1.193 2.201.004.063.145.246.223.433-.06.068-.188.077-.375.155l.014.191c.027.383-.16.46-.138.78l-.319.022c-.051.196-.174.269-.161.46.014.192.155.374.164.502.044.639-.722.692-.673 1.394l.014.192-.319.022c-.051.196-.189.976-.144 1.614.035.511.171 1.528.499 1.633-.009-.127.346.361.601.343.32-.022.612-.427.74-.436l.772-.888 1.192-1.303c1.168-.723 1.385-2.214 2.44-3.635l-.045-.638.192-.014c1.124-1.361 1.884-3.339 4.044-5.479l.191-.013c-.128.008.851-1.6.775-2.685-.018-.255-.232-.561-.237-.625-.008-.128.055-.132.183-.141.255-.018.993.444 1.025.891l.009.127.191-.013c1.04.184 1.831 1.412 1.862 1.858.027.384-1.211 1.946-1.193 2.201.013.192.077.187.214.306-.11.264-.364 2.142-.606 2.352l-.319.022.027.383c-.013-.191-.353 1.372-.683 2.165l.014.192c.196.05.196.05.205.178.013.191-.293.405-.279.597.004.064.013.191.141.182.031.447-.161.461-.147.652.009.128.073.123.214.306l.018.255c.053.766.029 1.346.083 2.112zm-10.342-8.451c.25-.082.059-.068.077.187-.005-.064-.009-.128-.077-.187"/><path fill="#fff" d="M164.977 116.194c.374-.154 1.131-.335 1.952-.521l-.05.196c-.571.104-1.187.468-1.255.408-.629.173-1.191.405-1.688.632.301-.278.726-.628 1.041-.715m-1.598 1.01c-.123.073-.374.155-.689.241.37-.218.808-.377 1.246-.536-.246.145-.429.286-.557.295m-4.567 1.667c.562-.232 1.365-.673 1.985-.973.498-.227 1.259-.345 1.893-.453-1.369.609-2.601 1.337-4.042 1.822.017.256-1.187.468-1.233.728-1.496.618-2.454.685-3.604 1.664.573.858 1.657 1.68 1.593 1.685.073.123.201.114.337.233.824.776 1.417.991 1.406 1.762a.77.77 0 0 0-.296.341l-.894.063a13 13 0 0 1-.203 1.682s-.074.775-.449.93c-.374.154-.164.396-.547.423-.238.273-.293.405-.279.597s.656.211.665.338.073.124-.046.26c-.201-.114-.361.346-.548.423-.748.309-.822 1.084-1.156 1.813-.082-.25-.269-.173-.419-.484l-.187.078c-.306.214-.088.583-.526.742l-.187.077.009.128c.031.447-.607.492-.899.897l-.188.077c-.625.236-1.587.24-1.619.691l.081.251-.378.091c-.507.099-1.017.135-1.528.171-1.871-1.987-3.188-2.472-3.318-7.082.199-1.746.537-2.412 1.264-3.938l1.212-1.945c.342-.602.203-1.683.14-2.576 1.601-.048 2.092.559 3.09 1.067.533.283.998.507 1.568.403 2.117-.918 4.521-1.407 6.209-2.038.333.169.835.006 1.094.052m-9.525 3.232c-.694.177-.79.633-.891 1.025.205.178.652.147.679.53l.008.128c.379-.091.366-.283.48-.483l-.082-.251c-.323-.041-.579-.024-.588-.151-.013-.192.224-.465.394-.798m4.788 2.424c-1.535-.855-1.639-1.425-3.974-.877-.302.278.008.128-.557.296-.297.341-.594.683-.882 1.152-.055.132-.647-.083-.707-.015l.182.758-.174.268c-.379.091-.169.333-.284.534-.055.132-1.669-.012-1.459.23.068.059.396.165.989.38-.055.132-.297.341-.352.474s.209.241.154.374c-.114.2-.611.427-.215.592-.435 1.121-.673 2.293-.78 3.519.834.006 1.664-.052 2.029-.334 1.004-.327 2.25-.863 3.323-2.029.242-.209.457-.802.631-1.071.237-.273.488-.355.721-.692.115-.2.211-.656.33-.793.516-.87.896-1.859 1.025-2.766"/><path fill="#fff" d="M142.584 143.423c2.391-.681 11.699-1.524 13.846-1.097-.119.137-.115.201-.174.269-.667.56-3.078.023-4.934.088-1.263.281-1.149.081-1.314.477-.908.77-3.124.283-4.574.641-3.467.884-6.514 1.354-9.721 2.284-.632 1.968-1.58 4.922-2.468 6.909-.722 1.59-2.605 4.031-3.72 5.521-.706-.015-.88.254-1.008.262l-.214-.305c.183-.141.429-.287.548-.424-.073-.123-.077-.187-.081-.251l.713-1.717.435-1.122-.085-1.213.493-.291.279-.597.398-.733-.14-1.081.713-.82-.505-.798.931-.45-.08-1.15-.095-.442.411-.542-.078-.187-.383.027c-1.397 1.124-4.679.968-6.494.71-.059.069-.055.132-.178.205.068.06.009.128.013.192-.264-.11-.528-.22-.911-.193-1.519.299-3.295 1.513-4.894.663 4.775-.526 8.846-2.864 13.498-3.318l.078-.711.321-.921-.118-.761-.258-.944.781-.761-.113-.698-.177-.693.206-.72-.113-.698.389-.861.188-.976-.158-.438.183-1.039-.15-.31.061-.967.662-.624-.564-.73.796-1.467.274-.661-.377-.808.239-1.171.253-1.878-1.269 1.115-.978 1.608-.521.806-.566.168-.543.487-.389.862-.356.409-1.288.86-.708.884-.616.364-1.201 1.174.023.32-.553.359-.908.769c-2.089.403-3.135-1.705-4.309-2.906.584-.811.362-1.245.737-2.297.365-.282.598-.619.9-.897-.146-.247.288-.469.21-.656.106-.329.371-1.117.576-.939.5-2.024.753-3.004 1.522-4.854.219-.529.384-.925.471-1.508.398-.734.158-1.423.56-2.093.037-.387-.677-1.428-.453-1.893l.383-.026c1.682.203 2.319 1.056 2.975 1.267l.473 1.25-.056 1.031-.262.852-.397.733-.689.241.062.894-.028.515-1.343 1.89-.334.73-.297.341-.38.989-.389.861-.635 1.007-.6 1.518c.132.054.2.114.328.105.009.128.077.187.146.246 1.455-.294 9.233-5.585 10.065-7.44.042-.324.207-.72.166-1.295.735-.5.836-.892 2.045-1.041 1.161 1.01 2.401 1.308 3.109 3.183-.556.296-.972.774-1.324 1.247.15.311.122.826.008 1.026l-.233.337c-.119.137-.17.333-.088.584l-.183.141-.296.342c.095.442.322.939.157 1.336-.288.469-.893 2.821-.593 3.442q-.275.211-.356.41s.019 2.115.086 3.073c.005.064-.119.137-.178.205-.297.341.496.671.327 1.004-.055.132-.374.154-.607.491.264.11.038 1.473.038 1.473-.187.077-.242.209-.242.209.073.124.069.06.082.251l-.341 2.462c.392.101.912.193 1.682.203.968-.837 3.243-.419 4.748-.909m-17.333 4.42-.128.009-.005-.064c.069.059.133.055.133.055m0 0c.387.037.579.023.847.197-.387-.037-.583-.087-.847-.197m-7.265.7c.638-.044 1.09-.012 1.49.217-.83.058-1.195.34-1.855.065.369-.218.25-.081.365-.282m-.462.738c-.612.428-1.186.468-1.682-.203.702-.049 1.217-.021 1.682.203m-2.239.093.447-.032.018.256c-.397-.165-.196-.051-.465-.224m-9.431 3.674-.653.752-1.413-.03-.799.505.248-1.044.711.079 2.291-1.187.392.101.94-.322.684-.305 1.195-.34.753-.245.821-.186 1.296-.732 1.587-.239.014.191-.352.474-1.164.787-1.008.263-.648-.083-.939.322-1.141.209-1.756.571zm8.892-3.123.452.032c.068.06.072.123.081.251-.464-.224-.328-.105-.533-.283m-13.258 4.904c-.132-.055-.086-.314-.091-.378-.017-.256.106-.328.297-.342a.7.7 0 0 1 .397.165c-.046.26-.224.465-.603.555m-1.318.413c-.128.009-.324-.041-.525-.156a.35.35 0 0 1 .288-.469c.192-.013.384-.027.588.152.023.319-.096.455-.351.473m-2.496 1.009c.064-.005.191-.014.187-.077-.031-.447-.218-.37-.36-.553.698-.113.813-.313 1.068-.331-.11.264-.07.839-.453.866.023.319 1.159.047 1.363.225-.123.073-.33.793-.593.683-.132-.055-.46-.16-.716-.142l-.365.282c-.256.018-.21-.242-.287-.429-.013-.192.178-.205.156-.524m-2.56 1.013c-.004-.064-.231-.561-.364-.616.042-.324.434-.223.412-.542.574-.04.237-.273.556-.296.397.165.069.06.602.343-.315.086-.365.282-.685.305-.233.337-.476 1.444-.52.806m-5.568 3.854c.096-.456-.058-.83.644-.879-.2-.115-.751-.654-.715-1.041.084-.647.826-.122.773-.888.323.041.255-.018.4.228.073.124-.47.611-.393.798.073.123.465.224.588.151s.183-.141.233-.337c-.077-.187-.218-.37-.104-.57.105-.328.028-.515.143-.716.588.152.513.927 1.024.891-.31.15-.917.642-.845.765.064-.005.055-.132.502-.164l.634-.108c-.022-.319-.09-.379-.29-.493-.032-.447.018-.643.01-.771-.014-.191-.082-.25-.296-.556.319-.023.539-.551.858-.574.064-.004.191-.013.269.174l.004.064c.01.128.137.119.2.114.183-.141.37-.218.357-.41.524.156.793.33.82.713a.76.76 0 0 1-.28.597c-.574.04-.547.423-.56.232-.005-.064-.206-.179-.27-.174 0 0-.123.073-.114.2 0 0 .005.064.146.247-.383.027-.702.049-.689.24 0 0 .205.179.524.156-1.35.865-2.341 1.383-3.573 2.111m6.029-3.694c.013.192.15.31.341.297.027.383-.184 1.039-.594.683-.068-.059-.068-.059-.196-.05.128-.009.275-.661.449-.93m33.846.52.192-.013c-.009-.128.32-.921.243-1.108-.064.005-.534.615-.598.62.141.182.154.374.163.501m-16.655 11.366 1.34-.094c.876-.318 2.309-.931 3.103-1.5.018.255.164.502.113.698-1.263.281-1.379 1.379-2.169 2.012l-1.153.017c-1.365.672-2.998 1.172-4.107 1.827-.37.218-2.079-.368-2.754.064-.06.068-.151.588-.339.665-.871.382-.87-.517-1.431-.285.009.128.018.256.091.379-.06.068-2.049.977-2.049.977-2.245.927-8.147-.906-9.537-1.514-1.326-.613-2.189-2.863-3.108-4.081-1.274-1.708-3.25-3.366-4.11-5.551l.384-.027c.3.62-.106.328.67.402-.005-.064-.01-.128.05-.196-.323-.94-.646-.981.152-1.486l.174-.269c.314.812.296.557.71.977-.233.337-.325.857-.426 1.249.766-.054.229-.401.784.201-.488.355-.365.283-.17 1.231.733.398.732 1.296 1.424 2.018 1.183 1.329 5.406 3.92 7.047 4.447 4.53 1.48 12.787-.637 15.311-2.161m-23.08-8.01.014.192c-.451-.033-.255.018-.52-.092.192-.014.315-.086.507-.1m37.887-2.264c.665.338.469.288.61.471-.242.209-.369.218-.876.317-.013-.191-.086-.314-.163-.501.438-.159.255-.018.429-.287m-.73.564c.209.242.068.06.355.489l-.256.018c-.013-.192-.09-.379-.099-.507m-1.151.979.365-.282.507-.1.181.757.018.256-.183.141-.337-.233-.575.04zm1.354.098.552-.36c.064-.004.174-.268.26.046.086.315-.234 1.236-.767.952zm-1.694 1.465.425-.35.524.156.082.251-.616.364-.023-.32-.246.146zm-1.496.618.803-.441.273.238-.407.606-.333.729-.617.364-.424.35-.095-.442-.484.418.077.187.022.32-.999.39-.218-.369.73-.565.475-.546c.055-.132.42-.414.544-.487.123-.073.415-.478.653-.752m-3.63 3.141c-.018-.255.105-.328.297-.341a.7.7 0 0 1 .396.164c.018.256-.16.461-.539.551-.132-.055-.15-.31-.154-.374m-1.113.591c.132.055.519.092.35.425-.264-.11-.857-.325-.35-.425m-.636 1.007-.419-.484.511-.036a.9.9 0 0 1-.173.269z"/></svg>