<svg xmlns="http://www.w3.org/2000/svg" width="665" height="269" fill="none"><path fill="#fff" d="m652.638 71.824.36-.025c.359-.025.615.198.623.317-.643 1.128-1.653 2.161-2.68 2.955l-.359.025c-.719.05-3.458 2.166-4.46 3.319l.034.479c.05.718-.832 1.862-1.67 1.92-.599.043-.632-.436-.991-.411-1.916.134-.184 2.539-2.698 2.715l-.478.033c-.591.162-1.679 1.802-1.877 2.417l-.837.059c-1.796.125-1.927 1.698-3.466 2.046l-1.317.092c-.334.385-.804.538-1.403.58-2.514.175-5.871-1.394-6.673-2.541.025.36-.095.367-.454.393-.008-.12-5.271-3.12-5.505-6.472-.033-.479-.042-.599.061-.846l.599-.042.036-1.206-.479.034c-2.155.15-1.409-1.225-2.965-1.116-.076-1.078.737-1.495.927-2.23.495.206.743.309.76.548.025.36-.206.496-.309.743 1.172-.442 1.815-1.57 1.689-3.366l.599-.041-.026-.36c-.367-.094-.384-.334-.409-.693-.05-.718.969-1.631.893-2.709-.016-.239-.042-.598-.281-.581-1.077.075-.336 2.068-1.653 2.16 0 0-.137-.23-.376-.214q.384.333.459 1.411c.076 1.078-.762 1.136-.737 1.495s.145.351.384.334q-.489.756-.668.769c-.359.025-.649-.677-.724-1.754-.176-2.514 1.475-2.99 1.4-4.068-.273-.462-.298-.82-.323-1.18-.101-1.436.584-1.965 1.424-3.708.376.214.504.325.521.565.05.718-.943 1.99-.988 3.076.462-.273.66-.888 1.122-1.16l.181-.856c.078-.606.676-.648.746-1.375-.025-.36-.769-.668-.802-1.147.008.12 3.331-3.962 3.615-5.064-.119.008-.136-.231-.136-.231-.009-.12.428-.752.788-.777l.718-.05.155-1.214c.387-1.35 1.765-2.289 2.723-2.356l.359-.025c1.403-.58 2.558-1.261 3.457-2.166l-.025-.36c1.386-.818 3.14-1.542 4.936-1.668.838-.058 6.487 1.591 6.62 3.507.059.838-1.018.913-.968 1.631s1.846.593 1.938 1.91c.025.359-.086.487-.668.768.264.343.409.693.777.788.016.24-.103.248-.103.248-.24.017-.376-.215-.616-.198.076 1.078-.395 1.23-.592 1.846.025.36.298.821.315 1.06.033.48-.309.744-1.267.811l-.359.025c.025.36.273.462.298.821 0 0-5.01 5.764-6.567 5.873l-.718.05c-.718.05-.983-.292-1.478-.498-1.317.092-.139 1.453-2.294 1.604-.718.05-1.205-.036-1.23-.395-.017-.24-.017-.24.094-.368-1.812-.114-4.042-1.04-5.479-.94-.119.008-.359.025-.334.384.017.24.282.582.29.702.067.957-1.052.434-1.002 1.152.05.719.22 1.429.27 2.147.184 2.633-.82 5.47-.611 8.463.109 1.556.73 3.558 2.551 3.791l8.14-.569c.788-.777 2.088-1.108 3.524-1.209 3.302-.952 6.35-3.812 9.173-4.731 3.438-.722 1.191-1.888 6.496-5.146M626.76 59.56l-1.33 3.34c-.215.376 2.675.415 3.496.117 8.947-2.791 8.713-6.143 9.211-7.621l.242-1.701c-.768-.668-1.545-1.456-2.623-1.38-.479.033-1.069.194-1.411.459l-1.197.084c-.017-.24-.265-.343-.384-.334-.36.025-1.053.434-1.019.913.05.718.88.54.93 1.258-.334.384-1.189.203-1.378.938l-.718.05c-.838.06-1.155.683-1.849 1.092-.907.786-1.823 1.451-2.586 2.587.112-.128.232-.136.351-.145.24-.017.368.095.265.343m.821-.298c-.12.008-.12.008-.128-.112-.05-.718 1.046-2.238 1.765-2.288.239-.017.359-.026.375.214-.3.863-1.138.922-1.422 2.024-.351.145-.59.162-.59.162M612.464 98.692c.315 1.06 1.326.028 1.418 1.345l-2.394.167c-.838.059-1.028.794-1.866.852l-.359.025c-.598.042-.924.546-1.283.571-.12.009-.367-.094-.393-.454l-.025-.359c-.479.034-.42.872-.403 1.111l.058.838c.118 1.676-2.176 3.28-2.529 5.109-.811-1.267-.769-.668-1.793-1.559-.343.265-.343.265-.334.385.025.359.648.676.699 1.394.025.359-.574.401-.549.76s.281.582.29.702c.017.239.025.359-.198.615l-.359.025c-1.353 1.298-2.313 3.049-4.05 4.012l-1.244 2.854q.297-.923.209-2.18c.317-.623 1.294-2.135 1.219-3.213l-.059-.837.958-.067.05.718c.342-.265.437-.632.643-1.128l1.077-.075c1.077-.075.763-1.136 1.311-1.896-.256-.223-.29-.702-.649-.677-.119.009-.479.034-.453.393.008.12.153.47.178.83.017.239-.095.367-.693.409l-.479.033c-.025-.359.668-.768.643-1.127 0 0-.248-.103-.727-.07.07-.726.788-.776.721-1.734l-.025-.359.359-.025c.359-.025.206-.496.309-.744l-.009-.119c-.025-.36.677-.649.576-2.086-.726-.069-1.222-.275-1.94-.225-2.753.193-5.885 1.855-8.04 2.006-.359.025-.718.05-1.085-.045-.71.17-.83.179-1.069.195-.12.009-.368-.094-1.086-.044.239-.017-1.386.819-2.071 1.348l-.359.025.025.359c.025.359-.078.607-.437.632s-.975-.172-1.334-.147l-.838.058c.359-.025-3.062.936-4.217 1.619-.309.743-10.395 4.455-11.731 5.992-.119.009-.342.265-.367-.094-1.865.852-4.51 2.601-7.452 3.528a1.47 1.47 0 0 1-.298-.821c-.025-.359.197-.615.626-1.367.64.557.769.668 1.128.643.718-.05.584-1.966 2.235-2.442l.025.359c.103-.248 1.122-1.161 1.815-1.57.248.103.367.094.607.078.119-.009.35-.145.445-.513l.718-.05c-.042-.598 2.611-2.227 4.134-2.815l.718-.05c.147-1.334 1.96-1.22 2.636-1.869l.838-.058c.334-.385 1.027-.794 1.985-.861l1.077-.075c-.108-1.556 2.934-1.048 4.159-2.456l1.078-.076c.453-.392.779-.896 1.737-.963.359-.025.726.069 1.085.044.479-.033.454-.392 1.053-.434 2.549-1.382 5.002-.711 7.936-1.758l.359-.025c.334-.385.908-.786 1.387-.819.359-.025.607.078.982.292l1.437-.1-.401-.574c-.008-.12.111-.128.111-.128.359-.025 1.103.284 1.821.234 1.436-.101 1.72-1.203 1.884-2.297l.36-.025c-.067-.958.386-1.35.96-1.752-.265-.342-.744-.309-.777-.787-.017-.24.309-.744.668-.769l-.025-.359c-.05-.718-.819-1.386-.699-1.395 0 0 .239-.016.607.078l-.025-.359c-.034-.479.308-.743.275-1.222-.025-.36-.485-1.77-.56-2.848-.042-.599-.067-.958.284-1.103l-.595-8.499c.087-.487.07-.726.062-.846-.026-.36-.435-1.052-.535-2.489l-.092-1.317c-.076-1.077-1.187-1.48-1.354-3.875-.05-.718.189-.735.164-1.094-.05-.718-.657-.796-.699-1.394-.008-.12.214-.376.206-.496l-.359.025c-.315-1.06-.415-2.497-.775-2.472-.837.059-2.357 4.135-3.239 5.28-.412.99-3.908 6.046-4.851 8.037l-1.055 2.119c-.214.376-.301.863-.882 1.144l-.359.025.05.718c-.112.129-.421.872-.395 1.231.016.24.144.35.504.326-.763 1.136-1.022 2.597-2.433 3.057l.025.359c-.718.05-1.052.434-1.01 1.033l.05.718c.1 1.437-1.177 3.812-2.085 4.597l-.838.058c.042.599-.865 1.384-1.583 1.434-.36.026-.496-.206-.761-.548l-.119.008s-.248-.103-.265-.342l-.359.025c.025.36-.317.624-1.035.674-.36.025-.855-.18-.863-.3-.017-.24-5.229-2.522-5.447-5.634-.033-.48.309-.744.284-1.103-.008-.12-.393-.453-.443-1.172.479-.033.393.454.538.805.71-.17-.126-1.796.567-2.205l.359-.025c.359-.026.334-.385.309-.744l-.083-1.197-.36.025c-.136-.23-.161-.59-.17-.71-.075-1.077.663-2.572 1.211-3.332l.359-.025-.025-.36c-.092-1.316.618-1.486 1.286-2.255l-.025-.359c.701-.29 3.084-4.065 3.882-6.406l1.556-.109c.009.12 1.809-3.374 2.503-3.784l.718-.05-.05-.718c.044-1.086.258-1.462.901-2.59.504.326.863.301 1.103.284.119-.008.119-.008.103-.247-.009-.12-.154-.47-.179-.83s.078-.607.412-.991l.359-.025-.025-.36c2.071-1.347 4.292-5.713 6.327-5.855.12-.008.496.206.735.19.343-.265-.476-1.651.721-1.735l1.436-.1-.008-.12c-.042-.599.317-.624.668-.769l-.025-.359c-.042-.598 2.068.337 2.428.311 2.154-.15 3.068.868 3.135 1.826l.359-.025c1.035-.674 1.411-.46 1.848-1.091l.771-1.017c.214-.376.326-.504.565-.52.359-.026.471-.154.83-.179l.359-.025.008.12c.05.718-1.569 3.357-2.597 4.151l.026.36c.025.358.144.35.384.333-.309.744-1.211 3.333-1.929 3.383 0 0-.248-.103-.264-.342-.479.033-.702.29-.694.409.026.36.649.676.674 1.035.017.24-.573.401-.498 1.479.535 2.489 1.822 5.406 3.423 9.384 1.014 2.455 2.178 7.065 2.463 11.135.092 1.317.415 2.497.49 3.575l.067.957q-.68.59-.643 1.128c.051.718.46 1.411.535 2.489-.35.144-.693.41-1.172.443.368.094.513.445.529.684.051.719-.634 1.248-1.071 1.88l.359-.026c.368.095.487.087.504.326.025.36-1.236 2.974-1.355 2.982.05.718.768.668.827 1.506l.025.36c.359-.026.735.188 1.094.163.838-.058 1.581.25 2.274-.159m-9.496-41.198.119-.008c.334-.384-.212-1.309.986-1.392-.129-.112-.385-.334-.504-.326-.599.042-.891 1.025-1.729 1.083-.239.017-.615-.197-.735-.189-1.077.075-1.242 1.17-1.943 1.46-.359.024-.351.144-.334.383.033.48.409.694.777.788-.101-1.436 2.489-.535 3.029-1.414.102-.248.094-.368.334-.385m-4.042 4.132.053-.966-.359.025c-.735-.189-.452-1.291-1.17-1.241-1.436.1-.763 1.136-1.823 1.45l-.24.017c.24-.016-7.323 8.813-7.793 8.966l.025.359c.025.36-.334.384-.693.41l.025.358c.092 1.317-.841 1.743-1.525 2.272l-.359.025.016.24c.109 1.556-3.275 6.484-4.475 8.252l.008.12c.042.598-.693.41-.651 1.008.025.359.034.479.273.462 0 0 .103-.248.111-.128l.059.838c.126 1.795-.311 2.427.407 2.377q.18-.012.743.309l.838-.059c2.369-.526 6.33-7.54 8.762-10.597l.719-.05-.067-.957c1.397-2.384 1.483-2.871 2.844-4.049.376.215.66-.888.899-.905.12-.008.351-.145.454-.392l-.025-.36c.284-1.102.807-2.221 1.313-3.58.807-2.221 1.578-3.238 1.631-4.204m18.472 37.082c.359-.025.838-.059 1.444.02-.189.734-.292.982-.651 1.007-.239.017-.615-.197-.735-.189-.239.017-.239.017-.222.256l-.719.05c-.359.025-.504-.325-.863-.3-.025-.36.095-.368.437-.632.231-.137.71-.17 1.309-.212m-58.384 21.766-.719.05c-.067-.958-.818-1.386-.835-1.626.359-.025 1.478.498 1.846.593.025.359-.317.624-.292.983m-3.842 1.832c-.239.017-.367-.094-.392-.454-.042-.598.617-1.486.575-2.085 1.12.523 1.078-.075 1.958.465-.112.128-.326.504-.284 1.102-.376-.214-.735-.189-.855-.181q-.897.063-1.002 1.153m41.335-4.093.643-1.128c-.086.487-.42.872-.643 1.128m-1.096 1.52-.359.025c-.042-.598.787-.777 1.455-1.545zm-43.125 6.023-1.078.075-.033-.479c-.025-.359-.17-.709-.195-1.069-.025-.359.069-.726.387-1.35l.359-.025c.359-.025.718-.05.71-.17 0 0-.137-.231-.376-.214.214-.376.325-.504.565-.521.359-.025.871.42 1.47.378l.359-.025c-.507 1.359-2.439 1.254-2.347 2.57.026.359.034.479.179.83m-2.183 1.476c-.256-.223-.375-.215-.384-.334-.025-.359.309-.744.292-.983.137.231.376.214.385.334.025.359-.318.624-.293.983m39.699-1.694 1.077-.075c1.078-.075.601-1.726 1.534-2.152l.359-.025c-.342.264-.334.384-.317.623.025.359.17.71.178.83.017.239.025.359-.078.607l-.359.025c-1.592 1.314-4.05 4.012-4.214 5.106l-.718.051c-.763 1.136-.877 2.948-2.049 3.391.12-.009-4.991 4.318-8.1 8.024l-.359.025c.076 1.078-2.535 3.305-3.802 4.116-3.098 2.141-5.167 1.804-5.709 4.369-.743-.309-1.016-.771-2.094-.696l-.359.025c.727.069.991.412 1.008.651.034.479-1.258.93-2.335 1.006-.719.05-1.445-.02-1.607-.61-.359.025-.342.265-.334.384.017.24.401.574.435 1.053.016.239-.891 1.024-1.609 1.075l-.36.025c-.041-.599.309-.744.524-1.12l-.599.042c-.718.051-1.069.195-1.027.794l.359-.025a.53.53 0 0 1 .368.094c.016.24-.668.769-.643 1.128-.847-.061-1.582-.25-1.999-1.063l-.359.025c.1 1.436-1.234 1.289-2.286 1.724l-.119.008c-.719.05-1.626.835-2.823.919-1.078.075-2.044.023-2.445-.551l-.359.025c-1.915.134-1.982-.823-3.444-1.082-.025-.359.652-1.008.627-1.367-.009-.12-.248-.103-.385-.334l-.359.025c-1.445-.019-1.776-1.319-1.877-2.756 2.197.448 3.642.467 4.769 1.11.719-.05.71-.17 1.028-.793.384.334.76.548 1.358.506-.067-.957 2.422-1.492 3.14-1.543.12-.008.376.215.504.326.301-.863.882-1.144 1.601-1.195.119-.008.495.206.735.19.359-.025.701-.29 1.052-.435l2.155-.15c.479-.034.821-.298 1.72-1.203.128.111.384.334.504.325.598-.042 1.01-1.033 1.344-1.417l.36-.025c1.411-.46 1.233-1.289 2.071-1.348-.112.128-.334.384-.326.504.042.599 1.102.284 2.06.217-.265-.342-.768-.668-1.016-.771.222-.256.857-1.504 1.695-1.562 0 0 .239-.017.264.342l.479-.033c1.242-1.17 2.672-3.074 3.63-3.141l1.197-.084c.164-1.094 1.609-1.075 1.893-2.177l.359-.025c1.436-.101 1.481-1.186 2.55-1.381-.101-1.437 5.236-2.532 9.82-9.228l.256.223-.05-.719c.145.351.504.326.743.309.479-.033.693-.409.763-1.136m-42.919 5.528c-.376-.215-.401-.574-.76-.549-.008-.119.334-.384.309-.743.239-.017.384.334.743.309.025.359-.334.384-.292.983m-6.975 10.351-1.317.093-.033-.479c-.025-.359-.17-.71-.195-1.069s.069-.727.387-1.351l.359-.025c.359-.025.71-.17.71-.17-.017-.239-.017-.239-.137-.231-.151-2.154 1.971-2.784 2.45-2.817l.957-.067c.12-.009.479-.034 1.052-.435l.009.12c.1 1.436-3.165 1.184-3.057 2.74l.017.239-.239.017c.248.103.623.317.743.309l.223-.256c-.267 1.342-2.422 1.492-2.347 2.57.009.119.154.47.418.812m1.838 5.646 1.197-.084.017.24c.05.718-.729 1.614-1.327 1.656-.36.025-.504-.325-.538-.804l-.042-.599c-.674-1.035-4.343-.177-4.535-2.93-.076-1.078 1.397-2.384 2.689-2.835l.033.479c.05.718-.676.649-.882 1.144.289.702 1.358.507 1.409 1.225l.025.359c.334-.384.676-.649.796-.657.718-.05 1.119.523 1.153 1.002.025.359-.309.743-.284 1.102.017.24.264.343.289.702m24.32-3.144.137.231s-.12.008-.137-.231m-3.604 3.5-.12.008zM569.594 67.406c.017.24-.197.616-.197.616l-.36.025c.315 1.06.452 1.291.477 1.65l-.061.847c.144.35.17.71.186.95.101 1.436-1.065 3.683-1.04 4.042l.067.957c-.267 1.342-.484 3.402-1.442 3.47l.034.478c-.223.256-.215.376-.206.496.025.359.777.787.777.787.016.24-.891 1.025-1.002 1.153-.24.017-1.13 6.214-1.121 6.334-.359.025-.343.264-.326.504l.025.359c.05.718.168 2.394.644 4.045l-.359.025c-.615-.198-3.523-5.648-3.768-7.435-.008-.12-1.165-4.61-.496-5.379-.385-.334-.674-1.035-.725-1.754-.075-1.077 1.192-1.887 1.108-3.084l-.134-1.916c1.2-1.768-.001-5.172 1.146-5.974l-.415-2.497c-.359.025-.359.025-.334.384l-.359.025c-.582.281-4.571 3.447-4.76 4.182-1.884 2.297-4.172 5.705-6.099 7.404l-.453.392c-.49 1.598-2.107 2.553-3.093 3.946l-.478.033.186.95-.718.05c-.71.17-.916.665-1.105 1.4l-.479.034c-1.628 2.52-4.027 6.055-5.057 8.533-.111.128-.248-.103-.264-.342l-.034-.48c-.017-.239.813-.417.574-.4l-1.317.092c-.916.665-.456 2.077-2.132 2.194l-.034-.479c-.615-.197-1.759-1.08-1.81-1.798-.016-.24.095-.367.326-.504l-.008-.12c-.31-4.429 2.643-6.92 2.459-9.554l-.017-.24c.318-.624 1.027-.793.969-1.631l-.042-.599c.309-.743.746-1.375 1.439-1.785l-.025-.359c-.084-1.197.464-1.957.74-3.18-.042-.598.189-.734.156-1.213l-.025-.36s1.399-4.067 2.034-5.314c-.616-.198-.76-.548-.777-.788-.025-.359-.05-.718.044-1.085.462-.273.69-3.898.929-3.915-.175-2.514-.351-5.028-2.027-4.91l-.599.042c-.008-.12.103-.248.095-.368 3.112-.218 5.685.445 6.128 1.617 2.734 1.252 2.339 2.482 2.456 4.158.017.24.058.838.306.941.042.599-.053.966-.147 1.334-.156 1.214-.785 4.265-1.692 5.05l.017.24c-.017-.24-.916.665-1.13 1.04 0 0 .239-.016.256.224.134 1.915-2.394 5.34-2.301 6.656l-2.978 7.306c1.308-.212 4.231-4.867 4.634-5.978l1.748-2.528.359-.025c.479-.034.387-1.35 1.464-1.426-.144-.35-.144-.35-.161-.59-.034-.479.189-.735.907-.785l1.078-.075c.359-.026.462-.273.437-.633l-.042-.598c-.034-.479-.05-.718.428-.752l.12-.008c-.109-1.556 3.538-4.458 3.975-5.09l-.025-.359c-.059-.838 1.778-.365 1.856-.972l.24-.017c-.051-.718.89-1.024 1.609-1.074l.957-.067c.479-.034.454-.393 1.172-.443l-.264-.343c.214-.375.787-.776 1.138-.921.359-.025 3.625.228 3.658.706.009.12.009.12-.342.265.265.342.624.317.983.292l.838-.059 1.108 2.088s.443 1.172.493 1.89M535.269 80.032l.359-.026c.359-.025.615.198.624.318-.643 1.127-1.654 2.16-2.681 2.954l-.359.025c-.718.05-3.457 2.166-4.459 3.32l.033.478c.05.718-.832 1.863-1.67 1.921-.598.042-.632-.437-.991-.412-1.915.134-.183 2.54-2.697 2.715l-.479.034c-.59.161-1.679 1.801-1.876 2.416l-.838.059c-1.796.125-1.926 1.698-3.466 2.047l-1.317.092c-.334.384-.804.537-1.403.579-2.513.176-5.871-1.394-6.673-2.54.025.358-.095.367-.454.392-.008-.12-5.27-3.12-5.505-6.472-.033-.479-.041-.598.062-.846l.598-.042.036-1.206-.479.034c-2.155.15-1.409-1.225-2.965-1.116-.075-1.077.738-1.495.927-2.23.495.206.743.309.76.548.025.36-.206.496-.309.744 1.172-.443 1.815-1.57 1.689-3.366l.599-.042-.025-.36c-.368-.094-.384-.333-.41-.692-.05-.719.969-1.632.894-2.71-.017-.239-.042-.598-.282-.581-1.077.075-.336 2.068-1.653 2.16 0 0-.136-.23-.376-.214q.385.334.46 1.411c.075 1.078-.763 1.136-.738 1.496.025.359.145.35.385.334q-.49.756-.668.768c-.36.025-.649-.676-.725-1.754-.175-2.514 1.475-2.99 1.4-4.067-.273-.462-.298-.821-.323-1.18-.1-1.437.584-1.966 1.425-3.709.376.214.504.326.52.565.051.718-.943 1.99-.987 3.077.462-.273.659-.889 1.121-1.162l.181-.854c.078-.607.677-.65.746-1.376-.025-.359-.768-.668-.802-1.147.008.12 3.332-3.962 3.616-5.064-.12.008-.137-.231-.137-.231-.008-.12.429-.752.788-.777l.718-.05.156-1.214c.387-1.35 1.764-2.289 2.722-2.356l.359-.025c1.403-.579 2.558-1.261 3.458-2.166l-.026-.36c1.387-.818 3.141-1.542 4.936-1.668.838-.058 6.487 1.592 6.621 3.507.058.838-1.019.913-.969 1.632.051.718 1.846.592 1.938 1.909.025.36-.086.487-.668.768.265.343.41.694.777.788.017.24-.103.248-.103.248-.239.017-.376-.214-.615-.197.075 1.077-.395 1.23-.593 1.845.025.36.298.822.315 1.06.033.48-.309.744-1.267.811l-.359.025c.025.36.273.462.298.822 0 0-5.01 5.763-6.566 5.872l-.718.05c-.719.05-.983-.292-1.479-.498-1.317.092-.139 1.453-2.293 1.604-.719.05-1.206-.036-1.231-.395-.017-.24-.017-.24.095-.368-1.813-.113-4.043-1.04-5.479-.94-.12.009-.359.025-.334.385.016.239.281.581.289.701.067.958-1.052.434-1.002 1.153.05.718.22 1.428.271 2.146.184 2.634-.821 5.47-.612 8.463.109 1.556.73 3.558 2.551 3.792l8.14-.57c.788-.776 2.088-1.108 3.525-1.208 3.301-.953 6.349-3.813 9.172-4.732 3.438-.721 1.191-1.887 6.497-5.145M509.39 67.767l-1.33 3.34c-.214.377 2.675.415 3.497.117 8.947-2.79 8.712-6.143 9.21-7.62l.242-1.702c-.768-.668-1.545-1.456-2.622-1.38-.479.033-1.069.195-1.412.46l-1.197.083c-.017-.24-.264-.343-.384-.334-.359.025-1.052.434-1.019.913.05.718.88.54.93 1.258-.334.385-1.188.204-1.378.939l-.718.05c-.838.059-1.155.682-1.848 1.092-.908.785-1.823 1.45-2.586 2.586.111-.128.231-.136.351-.145.239-.016.367.095.264.343m.821-.298c-.119.008-.119.008-.128-.111-.05-.719 1.047-2.239 1.765-2.29.239-.016.359-.024.376.215-.301.863-1.139.922-1.422 2.024-.351.145-.591.162-.591.162M496.959 51.194c-.707 3.658-.718 5.222-2.585 7.759l.008.12c.017.239-.103.247-.343.264.009.12.026.36.273.462 0 0-.542 2.564-1.141 2.606.051.718 1.273.994 1.17 1.242-.429.751-1.865.852-1.815 1.57l.153.47c.126 1.796-2.521 5.23-2.521 5.23.016.239.042.598.306.94-1.027.794-1.675 5.29-1.608 6.247-.061.847-.737 1.496-1.286 2.256l.298.82s.137.232.145.352c-.334.384-.309.743-.284 1.102l.05.718c.026.36-.069.727-.642 1.128-.719.05-.676 5.821-2.207 6.29l.025.358c.05.719-.292.983-1.01 1.033.409.693 1.06-.314 1.161 1.122.067.958-.209 2.18-.159 2.898l.137.231c.025.36-.301.863-.66.888l.017.24c.109 1.556-4.459 3.319-5.178 3.369-1.085-.044-2.255-1.286-2.255-1.286-.033-.479 1.378-.938 1.473-1.306l-.596-1.642c-.034-.479 1.472-1.306 1.789-1.93l-.178-.83c.078-.606.292-.982 1.13-1.04-.025-.36-.484-1.771-.56-2.848.24-.017.215-.376.189-.735l-.083-1.197c-.101-1.437.787-.777.72-1.735l-.169-.71c-.248-.103-.248-.103-.265-.342-.059-.838 1.311-1.896 1.277-2.375l-.025-.36c-.067-.957.766-2.82.74-3.179l-.008-.12c.07-.726.746-1.375.721-1.734l-.009-.12c-.15-2.154 1.459-3.23 1.425-3.708l-.042-.599c-.008-.12-.033-.478.087-.487.392.454 2.37-7.383 2.969-7.425.12-.008.103-.248.094-.367l-.041-.599c-.076-1.077 3.731-13.734 4.399-14.502 1.199-1.768 2.735-5.605 2.813-6.211l-.153-.471c-.05-.718.412-.991.985-1.392l-.033-.479c-.117-1.676 1.03-2.478.904-4.273l-.034-.48c.173-.974 1.47-4.793 2.505-5.467-.145-.351-.153-.47-.17-.71-.025-.36.086-.487.061-.846.549-.76 3.279-8.169 3.253-8.528-.016-.24-.615-.198-.735-.19l-.957.068c-.387 1.35-.885 2.828-1.528 3.956-.384-.334-.554-1.044-.476-1.651.448-2.197 1.7-4.93 2.538-4.99-.137-.23-.162-.59-.17-.71-.025-.358.788-.776.662-2.572-.017-.239-.042-.598-.195-1.069-.214.376-.334.385-.573.402-.12.008.411-.992.403-1.111-.017-.24.532-1 .523-1.12-.05-.718 1.147-.802 1.139-.921 0 0-.017-.24.342-.265l-.128-.111c-.017-.24.103-.248.462-.273-.008-.12.231-.137.59-.162.71-.17.83-.178 2.342.799l.376.214c1.247.635 1.322 1.712 1.381 2.55.05.718-.651 1.008-.576 2.085.05.719-.011 1.565.056 2.523l.025.359c.145.35.17.71.178.83.042.598-1.313 3.58-2.332 4.493.384.334.401.573.41.693l.066.958c.059.838-.514 1.239-.832 1.862-1.737.964-.458 3.762-1.82 4.94-.821.297-1.238 4.657-2.729 7.408l.041.598c.109 1.557-2.508 1.98-2.482 2.34.025.358.946 1.497.988 2.095.034.48-2.332 4.494-2.206 6.29m1.193-25.947c.025.36-.215.376-.198.616l.008.12c-.359.024-.504-.326-1.102-.285.214-.375.334-.384.3-.863.368.095.632.437.992.412m-3.261 13.58c-.958.068-.304-2.624.367-5.077l.359-.025c1.556-.11-.329-2.985.492-3.283.573-.4.414-2.675.773-2.7s.889.66.922 1.138c.025.36-1.061.315-1.002 1.153l.025.36c.126 1.795-1.677 6.973-1.936 8.435"/><path fill="#fff" d="m455.825 97.496.332 1.3c-.479.033-.95.186-1.309.212-.565.52-.044 1.085-.191 2.419.392.454 0 0 .331 1.3-.718.05-1.428.22-2.138.39-1.178-1.361-2.486-1.149-3.664-2.51-.955-1.618-.68-2.84-.352-5.028.509-3.043 1.085-5.128 2.056-8.444l.242-1.701c-.008-.12-.025-.36.095-.368.599-.042 2.577-7.879 2.969-7.425.12-.008.095-.367.086-.487l-.041-.599c-.034-.479 1.575-1.553 1.424-3.708l-.008-.12c-.025-.359.651-1.008.721-1.734l-.009-.12c-.025-.36.807-2.222.74-3.18l-.025-.358c-.033-.48 1.336-1.537 1.278-2.375-.017-.24-.017-.24-.265-.343l.532-1c-.067-.957.907-.784.807-2.221.773-2.7 1.658-5.53 2.543-8.358.671-2.452 1.797-6.982 2.459-9.555 1.016-4.401 3.674-9.399 4.074-13.998.086-.487-1.008-.651-.836-1.625l1.423-2.025c.979-3.196 1.805-6.862 2.699-9.571.359-.025.829-.179 1.308-.212 1.172-.443 2.403-.048 4.332 1.742 1.016.771-.13 1.573.235 3.352-.621 3.17-2.371 7.383-4.317 10.526-3.656 9.64-8.537 25.859-11.255 36.876-.378 1.47-1.826 3.135-2.212 4.485-.473 1.837-.005 3.368-.606 5.094-1.383 4.307-4.4 9.33-4.152 14.606.471-.154 1.128.642 1.479.498 2.21-2.801 3.006-3.458 3.846-5.201 6.416-8.027 12.871-13.772 19.523-20.131 1.807-1.69 6.311-6.095 8.081-6.58.574-.4.702-.29 1.907-.254.042.599-.573.401-.531 1-.908.785-1.242 1.17-1.891.493-.626 1.367-.737 1.495-1.422 2.024-1.712 1.323-3.738 1.585-5.45 2.907.306.941.375.215.203 1.19-.615-.198-.443-1.173-.743-.31l-.359.025c.648.677-.103.248-1.414 2.144-3.658 4.466-10.079 10.69-15.629 17.333-2.4 3.536-3.986 6.654-6.906 9.625m17.898-70.901c.111-.128.231-.137.351-.145l.359-.025c.67-2.453 3.192-7.682 2.234-7.615-.172.975-1.948 4.828-2.944 7.785m-.915 5.838c.359-.026.2-2.3.774-2.7.59-.163-.109-1.557-.168-2.395-.403 1.11-.584 1.965-.551 2.444l.025.36c.059.837-1.027.793-1.002 1.152.034.479.563 1.164.922 1.139m-9.336 10.998-.456 2.077-.203-1.19-.076-1.076.387-1.35.379-1.47.737-1.496 1.417-3.828.395-1.23.172-.975.885-2.829.573-.4-.13 1.572-.626 1.367-.337 2.069-2.076 4.716-.036 1.206-.593 1.846zm-1.238 4.657-.556.64.25-1.58.49-1.599.306.941zm-1.511 4.196-.233 1.82-.571-1.283.651-1.008zm-2.713 7.648-.036 1.205-.203-1.188.643-1.128 1.002-1.153-.031-2.163.668-.768.078-.607.384.334-.49 1.598-.361 1.71-.746 1.375zm-.793 4.145-.342.265.927-2.23-.251 1.581zm-7.89 33.392.009.12.974.172-.117-1.676.815-2.102-1.002 1.153zM443.007 66.515l-1.172.442c-.095.368-.069.727-.668.769.025.359.384.334.624.317l.359-.025.281.582c-.71.17-.053.966-1.13 1.041l.187.95a.92.92 0 0 1-.582.28s-.12.009-.128-.11l-.359.024.025.36c.025.359.298.82.657.796.159 2.274-1.74 2.647-1.581 4.922l.034.479c-.198.615-1.54.348-1.473 1.306.042.598.624.317.641.556.008.12-.565.521-.54.88l.017.24-.36.025c-.35.144-.197.615-.172.974.359-.025.359-.025.384.334-.325.504-.498 1.478-.824 1.982l.36-.025c.359-.025.59-.161.607.078l-.702.29c-.342.264-.189.735-.788.777l.009.12c.033.478-.565.52-.557.64s.487.086.512.445l-.222.256c.05.718-.045 1.086-.387 1.35l.008.12c.017.24-.206.496-.197.615 0 0 .016.24.376.215.239-.017.342-.265.342-.265.12-.008.376.215.401.574s-.301.863-.42.871l.033.479c.025.359-.573.4-.565.52.521.566-.164 1.095.134 1.916l.006 1.804c.212 1.308.27 2.146.432 2.736.17.71.187.95-.148 1.334.034.479.393.454.53.685l.409.693c.624.317.793 1.027 1.314 1.592l1.281 1.113c.033.479-.095.368-.454.393l-.59.162c-.59.161-.727-.07-1.102-.284l-.24.017c-.239.016-.359.025-.376-.215-.008-.119.112-.128.103-.248-.008-.119-.145-.35-.384-.334l-.743-.308c-.889-.66-1.033-1.011-2.058-1.902-.128-.11-.529-.684-.29-.701-.339-1.42-1.169-1.242-1.219-1.96-.042-.598.395-1.23.386-1.35-.025-.36-.384-.334-.81-1.267-.145-.35.07-.726.42-.871-.256-.223-.409-.693-.451-1.292-.017-.24-.167-2.394-.148-3.839-.05-.718.156-1.213-.117-1.676l.4-4.599c-.59.162-.721 1.735-1.319 1.777l-1.038 2.358c-.061.846-.763 1.136-1.353 1.297.256.223.033.48.067.958.025.36-.326.504-1.019.913l-.239.017c-.334.384-.858 1.504-1.217 1.529 0 0-.128-.112-.136-.232.008.12.008.12-.111.129l-.376-.215-.935 2.11-.36.026.026.359c.025.359-.309.743-.293.983l-.693.409.137.231c.434 1.052-1.284.571-1.857.972.265.342.384.334.409.693-.025-.359-1.319 1.776-1.789 1.93l-.591.161.026.36c.025.358.033.478-.206.495-.12.008-.376-.214-.401-.574-1.053.435.724 1.754-2.269 1.964-.359.025-.615-.198-.624-.318l-.957.067c-.359.025-.41-.693-.769-.668-.701.29-.044 1.086-.993 1.273l-.067-.958-.359.025c.359-.025-1.615-.73-2.025-1.422-.128-.112-.008-.12.223-.256l-.025-.36c-1.47-.378-2.52-1.628-2.595-2.705-.034-.479.164-1.094.882-1.144-.256-.223-.273-.463-.289-.702-.143-2.035.948-5.36 2.941-6.1.078-.607-.579-1.403.559-2.325-.025-.359-.272-.462-.632-.437.66-.888.593-1.846 2.03-1.946-.084-1.197 5.296-8.55 6.93-9.266-.309.743 2.683-4.638 4.359-4.756l1.77-.484c.343-.265.66-.888.738-1.495l-.145-.351 1.54-.348.119-.009c.24-.016.855.181 1.12.523.111-.128-.154-.47-.034-.478l.924-.546c.24-.017-.025-.36.326-.504l.958-.067c.153.47.743.309 1.024.89l.153.471c.513.445.794 1.027 1.392.985l.36-.025.54-.88c.231-.136.103-.247.205-.495l.91-2.47c-.016-.239.396-1.23.089-2.171 1.573.13 1.829.353 3.035.39l.025.358.598-.041c.838-.06 1.582.25 1.64 1.088.307.94.493 1.89.663 2.6zm-10.856 9.9c-.718.051 3.057-2.739 2.797-6.45-.017-.24-.298-.821-1.033-1.01l-1.027.793-1.447 1.665-.36.025c-1.077.076-.395 1.23-1.352 1.298l-.24.017c-1.077.075-.899.904-1.737.963l-.239.017c-.215.376-.036 1.205-.874 1.264l-.359.025.033.479c-1.712 1.322-3.707 3.748-5.327 6.387-1.078.075.083 1.197-.754 1.256l-.24.016c-2.001.622-1.876 2.417-1.92 3.503l-1.573-.13s-.078.606-.317.623c-.343.264-.479.033-.488-.086-.008-.12-1.119-.523-1.136-.763-.025-.359-.153-.47-.768-.668.212 1.309.084 1.197 1.15 2.687.273.462.974.172 1.359.506-.471.153-.813.418-.668.768l-.359.026c.041.598.083 1.197.562 1.163.025.36-.326.504-.3.863l-.343.265c-.548.76-.865 1.383-.815 2.102.042.598.187.949.707 1.514.813-.418 1.206.036 1.977-.98.548-.76 5.333-4.583 5.308-4.942l.643-1.128c.128.111.256.222.495.206.479-.034.883-1.144.849-1.623.24-.017.231-.137.214-.376l-.025-.36c1.412-.459 1.072-1.879 1.79-1.929l.12-.008c.025.359-.601 1.726-.551 2.444.017.24.17.71.529.685-.136-.231-.153-.47-.17-.71-.008-.12.111-.128.111-.128.24-.017.248.103.488.086.119-.008.119-.008.111-.128-.017-.24-.401-.573-.588-1.523l.719-.05-.179-.83.351-.144c.479-.034.275-1.222.874-1.264l.359-.025.738-1.495s.103-.248.094-.368c.248.103.368.095.368.095q.358-.025.334-.385l-.025-.359c.094-.367 1.85-2.776 1.825-3.135 0 0-.128-.111-.367-.094-.025-.36.334-.385.676-.65m-.87 4.753.119-.008c-.025-.36.309-.744.284-1.103-.017-.24-.136-.23-.376-.214-.35.145-.453.393-.428.752s.161.59.401.573m-5.606 9.294c-.119.008.137.23.273.462-.136-.231-.153-.47-.273-.462M402.922 106.608l-.805.538-2.152-1.534-2.325-.559.181-.855-1.306-1.472-1.169-1.242-.939-1.378-1.297-1.352.378-1.47-1.041-1.13-.237-1.668 1.01-1.033-1.075-1.609.131-1.573.164-1.094.593-1.846.019-1.445.738-1.495.325-.504-.398-2.257.523-1.12 1.216-1.528-.1-1.437.893-2.709-.718.05c-2.438 6.426-9.174 11.589-11.96 16.475-.966-.053-.368-.095-1.437.1.34 1.42.674 1.036-.344 1.95-.437.631-.633-.438-.788.776.279 2.266-5.322 8.191-5.892 12.081-.735-.19-.487-.087-.863-.301-3.402-.484-4.076-1.519-6.295-4.011.309-.743.022-3.129-.079-4.565l1.197-.084c-.612-1.882-.833-3.31-.515-3.934l.838-.058-.63-2.121c.086-.488.977-1.512 1.319-1.777.532-1-.757-2.232-.56-2.848l1.198-.083c.119-.009.105-1.932-.544-2.609.832-1.862 1.971-2.784 2.341-4.374-.512-.445-.145-.35-.468-1.53l1.197-.085c-.485-1.77 1.859-2.656 1.419-5.512l1.197-.084-.613-1.882 1.078-.075-.026-.359c-.384-.334-.128-.111-.657-.796.12-.008 4.163-10.997 4.269-12.93.743.31.793 1.028.983.293.206-.496.283-1.103-.468-1.531.907-.785 1.222.275 1.233-1.29-.966-.052-.334.385-1.136-.762 2.627-1.988 2.042-5.195 3.158-8.16a9.6 9.6 0 0 1 1.448-1.665c.876-2.948.904-4.274 1.78-7.222.326-.504.852-3.307 1.536-3.836.988-3.077 2.405-6.905 3.367-10.34l2.564.542c.145.35.298.821.435 1.052.854.181 1.581.25 2.427.312.137.23.257.222.385.334.587 1.522.442 1.171.902 2.583-.701.29-.473 1.837-.807 2.222-1.225 1.409-1.405 2.263-2.639 3.552.162.59.605 1.762-1.048 3.923-.941.306-1.635.716-2.464.894l.646 2.36c-.164 1.095-1.472 1.307-2.14 2.075.674 1.036-3.175 13.093-4.271 14.614.52.565 1.333.147.768.668-.086.487-.189.735-.156 1.213-.751-.428-.392-.453-1.367-.626-.303 2.548-2.204 4.605-2.362 7.503l.718-.05c.215-.376.318-.624.54-.88.137.231.153.47.178.83-1.258.93-1.703 1.442-3.201 2.39.827 1.505.777.787 1.125 2.326-.743-.309-.673-1.035-.863-.3l-.359.025c.521.565.496.206.914 1.019-1.206-.036-1.136-.763-1.292.45.846.062.846.062 1.35.388-.685.529-.685.529-.849 1.623-.632-.437-.392-.454-1.255-.754.016.239.033.478.178.83.607.077.359-.026.504.325-.106 1.932-1.653 2.16-2.519 3.544.76.548.504.326 1.289 1.233-1.353 1.298-.876 2.949-1.007 4.521-.128-.11-.248-.103-.496-.206-.529-.684-.189.735-.189.735.401.574.128.112.323 1.18-.829.18-.949.188-1.291.452.52.565 1.094.164.529.685l-1.169 3.93c-.966-.052-.495-.205-1.077.076.991.412.111-.128.896.78-1.208 1.648-1.906 5.426-1.978 7.837l.718-.05c.98-3.197 5.793-8.345 8.139-10.915.952-1.87 2.16-3.52 3.12-5.27.342-.265.693-.41 1.044-.555.437-.632.122-1.692.567-2.204.54-.88 1.849-1.092 2.517-1.86.573-.401.114-1.813.559-2.325 1.559-1.793 6.36-5.377 6.552-7.796-.752-.429-.496-.206-1.041-1.13.111-.129.103-.248.222-.257 2.42.192 4.635-.805 7.283.935-.164 1.094 1.212 1.84.936 3.062-.731 3.299-2.557 6.434-3.665 9.519-.403 1.11-.834 3.547.087 4.685l-1.481 1.186c-.18.855.802 1.147.638 2.241-.551 2.445-2.885 8.623-.978 13.541.663 2.6 2.362 4.527 4.378 5.829zm-22.171-50.416-.359.025c-.145-.35-.154-.47-.179-.83.393.454.128.112.538.805m3.673 7.803-.479.033c-.017-.24-.161-.59-.17-.71.384.335.128.112.649.677m-12.723 34.812.838-.058c-.256-.223-.273-.462-.409-.694l-.718.05c.017.24.033.48.289.702M362.01 73.261l-.016-.24c.264.343.281.582.281.582.05.719-.523 1.12-.857 1.504l-2.155.15c-.479.034-.838.06-.88-.54l-.033-.478-.599.042c-.718.05-.804.537-1.523.587l-.598.042.042.599c-.309.743-2.019.381-3.335.473l-.36.025c-.676.65-2.138.39-2.079 1.228l.017.24-.359.025c-.838.059-.66.888-1.361 1.178l-.36.025c-.161-.59-.52-.565-.554-1.044-.882 1.144-1.561 3.477-2.997 3.578-.36.025-.719.05-1.103-.284-.231.137-.231.137-.214.376.025.36 1.008.651 1.033 1.01.025.36-.206.496-.66.889-.727-.07-.459-1.412-1.178-1.361s-1.01 1.032-1.01 1.032c.033.48.81 1.267 1.005 2.336-1.06.315-1.096 1.52-2.413 1.612l-.101-1.436c-1.06.314-1.071 1.88-1.789 1.93-.24.016-.359.025-.744-.31.145.351.418.813.435 1.053.05.718-.908.785-1.576 1.553.958-.067 1.659-.356 1.721-1.203q.371.155.409.694c.033.478-.763 1.135-1.481 1.186-.239.017-.615-.198-.624-.317l.059.838.359-.026c.958-.067 1.283-.57 2.096-.988l-.176-2.514c.24-.017.257.222.376.214.359-.025.582-.281.557-.64.136.23.162.59.178.83.051.718-.378 1.47-.328 2.188l.025.359.359-.025c.101 1.436-.823 1.982-1.116 2.965l-1.002 1.152c-1.224 1.41-.704 1.974-.62 3.171.017.24.281.582.29.702.017.24-.215.376-.198.615.067.958 1.71.362 2.776 1.851.017.239.265.342.265.342.144.351.376.215.359-.025.359-.025.735.189 1.094.164 1.915-.134 3.427.843 5.899.069l.47-.153c-.061.846-1.155.682-1.745.844.29.701.649.676 1.008.651l1.077-.075c.359-.026.359-.026.496.206.239-.017.223-.257.223-.257-.009-.119-.273-.462-.315-1.06-.034-.479 1.42-.34 1.712-1.323l2.113-.75c.289.702-.087.488-.429.753.128.111.368.094.846.061 1.078-.076 1.874-.733 1.849-1.092-.009-.12-.265-.342-.624-.317l-.033-.479.239-.017c.359-.025 1.13-1.041 1.609-1.075.359-.025.71-.17.668-.768l.256.223c.359-.026.462-.273.437-.632.376.214.624.317.983.292 1.556-.11 3.766-2.91 4.245-2.943l.359-.026c.226 3.232-6.004 7.036-6.273 10.062l-.36.026c-2.335 1.005-5.383 3.865-8.735 4.099-.598.042-.957.067-1.445-.019l-.359.025c-.548.76-1.019.913-1.617.955-2.155.151-4.034-.921-5.621-2.975-.12.008-.103.248-.343.264.359-.025-2.366-1.157-3.135-1.825l-.067-.958c-.974-.173-1.049-1.25-1.442-1.704l-.151-2.154c-.768-.668-.946-1.498-1.022-2.575-.109-1.556.612-3.291.503-4.847q-.038-.54-.434-1.052c.71-.17.626-1.367 1.567-1.674l-.025-.359c.334-.384.32-2.308.679-2.333.239-.017.248.103.384.334l.598-.042c.259-1.462 7.49-11.59 9.046-11.7l.24-.016c.12-.008.061-.847.053-.966l.189-.735c3.711-.26 5.197-4.814 7.71-4.99.315 1.06 1.804-.006 1.897 1.31l.359-.024-.042-.599.359-.025c.718-.05.443 1.172 1.161 1.122l.71-.17c1.436-.1 3.75 2.023 4.936 3.504m-21.807 14.998c.139-1.454 1.192-1.888 1.996-2.425-.036 1.205-1.336 1.537-1.996 2.425m8.672 15.633c.075 1.077-1.292.451-1.353 1.297.137.231.744.309 1.103.284 1.197-.084 2.241-.638 2.14-2.074-.718.05-.796.657-1.514.707-.265-.342-.067-.958-.666-.916.265.343.282.582.29.702M304.698 121.416c4.482-1.276 21.935-2.857 25.96-2.056-.222.256-.214.376-.325.504-1.25 1.05-5.771.043-9.251.166-2.369.526-2.155.151-2.464.894-1.703 1.442-5.857.53-8.577 1.201-6.5 1.658-12.213 2.538-18.226 4.282-1.185 3.692-2.963 9.229-4.627 12.954-1.356 2.982-4.885 7.56-6.975 10.352-1.325-.028-1.651.476-1.89.493l-.401-.573c.342-.265.804-.538 1.027-.794-.137-.231-.145-.351-.153-.47l1.338-3.222.815-2.102-.159-2.274.925-.546.523-1.119.746-1.375-.262-2.027 1.336-1.537-.947-1.498 1.745-.843-.15-2.155-.179-.83.771-1.016-.145-.351-.718.051c-2.619 2.107-8.774 1.816-12.176 1.332-.112.128-.103.248-.334.384.128.112.016.24.025.36-.496-.206-.992-.412-1.71-.362-2.848.56-6.177 2.838-9.175 1.243 8.953-.987 16.585-5.37 25.307-6.221l.148-1.333.601-1.726-.22-1.428-.485-1.771 1.464-1.425-.212-1.309-.331-1.3.386-1.35-.211-1.309.729-1.614.353-1.829-.298-.822.345-1.948-.281-.582.114-1.813 1.241-1.169-1.058-1.37 1.492-2.75.514-1.24-.707-1.514.448-2.196.475-3.522-2.379 2.091-1.835 3.015-.977 1.512-1.06.315-1.019.913-.729 1.615-.668.769-2.413 1.612-1.328 1.656-1.155.683-2.252 2.202.042.599-1.036.674-1.703 1.442c-3.917.755-5.878-3.198-8.08-5.45 1.096-1.52.679-2.333 1.383-4.307.684-.529 1.121-1.16 1.686-1.681-.272-.463.54-.88.396-1.231.197-.615.695-2.094 1.079-1.76.938-3.794 1.411-5.632 2.853-9.1.411-.992.72-1.735.884-2.83.746-1.375.295-2.666 1.049-3.922.07-.727-1.27-2.678-.849-3.55l.718-.05c3.154.381 4.349 1.982 5.579 2.377l.886 2.344-.106 1.932-.489 1.598-.746 1.375-1.292.451.117 1.676-.052.966-2.519 3.545-.626 1.367-.557.64-.712 1.854-.73 1.615-1.191 1.888-1.124 2.845c.248.103.376.215.615.198.017.239.145.351.273.462 2.728-.552 17.312-10.473 18.873-13.95.078-.607.387-1.35.311-2.428 1.378-.939 1.567-1.674 3.833-1.952 2.178 1.892 4.502 2.452 5.831 5.968-1.044.554-1.823 1.45-2.483 2.338.281.582.229 1.548.014 1.924l-.437.632c-.222.256-.317.624-.164 1.094l-.342.265-.557.64c.178.83.605 1.762.296 2.506-.54.88-1.675 5.289-1.113 6.453q-.513.397-.668.768s.037 3.967.162 5.763c.009.12-.222.256-.333.384-.557.641.93 1.259.612 1.882-.103.248-.701.29-1.138.922.495.206.073 2.762.073 2.762-.351.144-.454.392-.454.392.136.231.128.111.153.471l-.639 4.615c.734.19 1.709.362 3.154.381 1.815-1.57 6.08-.786 8.902-1.705m-32.501 8.287-.239.017-.008-.119c.128.111.247.102.247.102m0 0c.727.07 1.086.045 1.59.371-.727-.07-1.094-.165-1.59-.371m-13.621 1.314c1.197-.084 2.043-.023 2.795.406-1.556.109-2.241.638-3.48.123.693-.409.471-.153.685-.529m-.866 1.384c-1.147.802-2.224.877-3.154-.381 1.317-.092 2.283-.04 3.154.381m-4.198.173.838-.059.034.479c-.744-.309-.368-.094-.872-.42m-17.682 6.89-1.225 1.409-2.65-.055-1.498.947.465-1.958 1.333.148 4.295-2.225.735.189 1.763-.605 1.283-.57 2.241-.638 1.411-.46 1.54-.348 2.43-1.373 2.976-.449.025.359-.66.889-2.182 1.475-1.89.494-1.214-.156-1.762.604-2.138.39-3.293 1.073zm16.672-5.857.846.061c.128.111.136.231.153.47-.871-.42-.615-.197-.999-.531m-24.859 9.196c-.248-.103-.162-.59-.17-.709-.034-.479.197-.616.556-.641.12-.008.488.086.744.309-.086.487-.42.871-1.13 1.041m-2.472.775c-.24.016-.607-.078-.983-.292-.153-.471.181-.855.54-.88s.718-.05 1.102.284c.042.598-.18.854-.659.888m-4.68 1.891c.12-.009.359-.025.351-.145-.059-.838-.409-.693-.674-1.036 1.308-.211 1.523-.587 2.002-.621-.206.496-.131 1.573-.849 1.623.042.599 2.171.089 2.555.423-.231.137-.617 1.487-1.113 1.281-.248-.103-.863-.301-1.342-.267l-.685.529c-.478.033-.392-.454-.537-.804-.025-.36.334-.385.292-.983m-4.799 1.899c-.008-.12-.434-1.052-.682-1.155.078-.607.813-.418.771-1.016 1.077-.076.445-.513 1.044-.555.743.309.128.112 1.127.643-.59.162-.685.529-1.283.571-.437.632-.893 2.709-.977 1.512m-10.441 7.226c.18-.855-.109-1.556 1.208-1.648-.376-.214-1.409-1.225-1.34-1.951.156-1.214 1.548-.229 1.448-1.666.606.078.478-.033.751.429.137.231-.882 1.144-.737 1.495.136.231.871.42 1.102.284s.343-.265.437-.632c-.145-.351-.409-.693-.195-1.069.198-.615.053-.966.267-1.342 1.103.284.964 1.737 1.921 1.67-.581.281-1.72 1.203-1.583 1.434.119-.008.103-.248.941-.306l1.188-.204c-.042-.598-.17-.71-.546-.924-.058-.838.036-1.205.02-1.445-.025-.359-.153-.47-.554-1.044.598-.042 1.01-1.033 1.608-1.075.12-.008.36-.025.504.326l.009.12c.017.239.256.223.376.214.342-.264.693-.409.668-.768.982.292 1.486.617 1.537 1.336.025.359-.181.854-.524 1.119-1.077.075-1.027.794-1.052.434-.008-.119-.384-.334-.504-.325 0 0-.231.136-.214.376 0 0 .008.119.273.462-.718.05-1.317.092-1.292.451 0 0 .384.334.983.292-2.533 1.621-4.39 2.593-6.7 3.957m11.304-6.925c.025.359.281.581.64.556.051.719-.344 1.949-1.113 1.281-.128-.111-.128-.111-.367-.094.239-.017.514-1.239.84-1.743m63.463.975.359-.025c-.017-.239.601-1.726.456-2.077-.12.008-1.002 1.153-1.122 1.161.265.343.29.702.307.941m-31.23 21.31 2.514-.175c1.642-.596 4.329-1.747 5.818-2.813.033.479.306.941.212 1.308-2.369.527-2.586 2.587-4.067 3.773l-2.163.031c-2.558 1.262-5.62 2.198-7.7 3.426-.693.409-3.897-.69-5.164.12-.111.128-.284 1.103-.635 1.248-1.634.715-1.631-.969-2.683-.535.016.24.033.479.17.71-.112.128-3.842 1.833-3.842 1.833-4.209 1.738-15.276-1.699-17.882-2.84-2.486-1.149-4.104-5.367-5.828-7.652-2.389-3.201-6.095-6.31-7.704-10.408l.718-.05c.562 1.164-.198.615 1.256.754-.009-.119-.017-.239.094-.367-.604-1.762-1.211-1.84.286-2.787l.326-.504c.588 1.523.554 1.044 1.331 1.832-.437.632-.609 1.606-.799 2.341 1.437-.1.429-.752 1.47.378-.915.666-.684.53-.319 2.308 1.375.746 1.373 2.431 2.67 3.783 2.219 2.492 10.138 7.351 13.214 8.339 8.494 2.774 23.975-1.195 28.707-4.053m-43.273-15.018.025.36c-.846-.061-.479.033-.974-.173.359-.025.59-.161.949-.187m71.037-4.245c1.247.634.88.54 1.144.882-.453.393-.693.41-1.642.596-.025-.359-.162-.59-.306-.941.821-.298.478-.033.804-.537m-1.369 1.058c.392.454.128.111.665.916l-.479.033c-.025-.359-.17-.71-.186-.949m-2.158 1.835.685-.529.949-.187.34 1.42.034.479-.343.264-.632-.437-1.077.076zm2.539.183 1.036-.674c.119-.008.325-.504.487.087.161.59-.44 2.316-1.439 1.784zm-3.176 2.749.796-.658.983.293.153.47-1.155.682-.042-.598-.462.273zm-2.806 1.158 1.506-.827.512.445-.762 1.136-.626 1.367-1.156.683-.796.657-.178-.83-.907.785.144.351.042.599-1.873.732-.41-.693 1.37-1.058.891-1.025c.103-.248.787-.777 1.018-.913.232-.137.78-.897 1.225-1.409m-6.806 5.889c-.033-.479.198-.615.557-.64.12-.009.487.086.743.309.034.478-.3.863-1.01 1.033-.248-.103-.281-.582-.29-.702m-2.087 1.108c.247.103.974.173.657.797-.496-.206-1.607-.61-.657-.797m-1.192 1.888-.785-.907.958-.067a1.6 1.6 0 0 1-.326.504zM258.752 89.143c.016.239-.198.615-.198.615l-.359.025c.315 1.06.451 1.292.476 1.65l-.061.847c.145.35.17.71.187.95.1 1.436-1.066 3.683-1.041 4.042l.067.957c-.267 1.342-.484 3.403-1.441 3.47l.033.478c-.222.256-.214.376-.206.496.025.359.777.788.777.788.017.239-.891 1.024-1.002 1.152-.239.017-1.129 6.214-1.121 6.334-.359.025-.342.264-.325.504l.025.359c.05.718.167 2.394.643 4.045l-.359.025c-.615-.197-3.522-5.648-3.768-7.435-.008-.12-1.164-4.61-.496-5.379-.384-.334-.674-1.035-.724-1.753-.075-1.078 1.191-1.888 1.107-3.085l-.134-1.915c1.2-1.769 0-5.173 1.147-5.975l-.416-2.497c-.359.025-.359.025-.334.384l-.359.025c-.582.281-4.57 3.447-4.76 4.182-1.884 2.297-4.172 5.705-6.098 7.404l-.454.392c-.49 1.599-2.107 2.554-3.092 3.946l-.479.033.187.95-.719.05c-.709.17-.915.665-1.105 1.4l-.478.034c-1.629 2.519-4.028 6.055-5.057 8.533-.112.128-.248-.103-.265-.342l-.033-.479c-.017-.239.812-.418.573-.401l-1.317.092c-.916.666-.456 2.077-2.132 2.194l-.033-.479c-.616-.197-1.76-1.079-1.81-1.798-.017-.239.094-.367.325-.504l-.008-.119c-.31-4.43 2.644-6.922 2.459-9.555l-.016-.24c.317-.623 1.027-.793.968-1.631l-.042-.599c.309-.743.746-1.375 1.439-1.784l-.025-.36c-.083-1.197.465-1.957.74-3.179-.041-.598.19-.735.156-1.214l-.025-.359s1.4-4.067 2.034-5.315c-.615-.197-.76-.548-.777-.787-.025-.36-.05-.719.045-1.086.462-.273.69-3.898.929-3.915-.176-2.513-.352-5.027-2.028-4.91l-.598.042c-.008-.12.103-.248.094-.368 3.113-.217 5.685.445 6.128 1.617 2.734 1.252 2.339 2.483 2.456 4.159.017.239.059.838.307.94.041.6-.053.967-.148 1.334-.155 1.214-.784 4.265-1.692 5.05l.017.24c-.017-.24-.916.665-1.13 1.041 0 0 .24-.017.256.223.134 1.915-2.393 5.34-2.301 6.657l-2.978 7.305c1.309-.212 4.231-4.867 4.635-5.978l1.748-2.528.359-.025c.479-.033.386-1.35 1.464-1.425-.145-.351-.145-.351-.162-.59-.033-.48.189-.736.908-.786l1.077-.075c.359-.025.462-.273.437-.632l-.042-.599c-.033-.479-.05-.718.429-.752l.12-.008c-.109-1.556 3.537-4.457 3.974-5.09l-.025-.359c-.059-.838 1.779-.365 1.857-.972l.239-.016c-.05-.719.891-1.025 1.609-1.075l.958-.067c.479-.034.453-.393 1.172-.443l-.265-.342c.215-.376.788-.777 1.139-.922.359-.025 3.624.228 3.658.707.008.12.008.12-.342.264.264.342.623.317.982.292l.838-.058 1.109 2.087s.442 1.172.493 1.89M220.659 82.063l-1.172.442c-.094.368-.069.727-.668.769.025.359.385.334.624.317l.359-.025.281.582c-.709.17-.052.966-1.13 1.041l.187.95a.92.92 0 0 1-.582.28s-.12.01-.128-.11l-.359.025.025.359c.025.359.298.82.657.796.159 2.274-1.739 2.647-1.58 4.922l.033.479c-.197.615-1.539.348-1.472 1.306.042.598.623.317.64.556.008.12-.565.521-.54.88l.017.24-.359.025c-.351.144-.198.615-.173.974.359-.025.359-.025.385.334-.326.504-.499 1.478-.824 1.982l.359-.025c.359-.025.59-.161.607.078l-.702.29c-.342.264-.189.735-.787.777l.008.119c.033.479-.565.521-.557.641.009.119.488.086.513.445l-.223.256c.05.718-.044 1.086-.387 1.351l.009.119c.016.24-.206.496-.198.615 0 0 .017.24.376.215.239-.017.342-.265.342-.265.12-.008.376.215.401.574s-.3.863-.42.871l.033.479c.026.359-.573.401-.565.521.521.565-.164 1.094.134 1.915l.006 1.804c.212 1.308.271 2.146.432 2.736.17.71.187.95-.147 1.334.033.479.392.454.529.685l.409.693c.624.317.794 1.027 1.314 1.592l1.281 1.113c.034.479-.094.368-.453.393l-.591.162c-.59.161-.726-.07-1.102-.284l-.239.017c-.24.016-.36.025-.376-.215-.009-.119.111-.128.103-.247-.009-.12-.145-.351-.385-.334l-.743-.309c-.888-.66-1.033-1.011-2.058-1.901-.128-.112-.529-.685-.289-.702-.34-1.42-1.17-1.241-1.22-1.96-.042-.598.395-1.23.387-1.35-.025-.359-.384-.334-.811-1.267-.144-.35.07-.726.421-.871-.256-.223-.41-.693-.451-1.292-.017-.239-.168-2.394-.149-3.839-.05-.718.156-1.213-.117-1.676l.4-4.599c-.59.162-.72 1.735-1.319 1.777l-1.038 2.358c-.061.846-.763 1.136-1.353 1.297.256.223.034.479.067.958.025.359-.325.504-1.019.913l-.239.017c-.334.384-.857 1.504-1.216 1.529 0 0-.128-.112-.137-.231.009.119.009.119-.111.128l-.376-.215-.935 2.111-.359.025.025.359c.025.359-.309.743-.292.983l-.693.409.136.231c.435 1.052-1.283.571-1.857.972.265.342.385.334.41.693-.025-.359-1.32 1.777-1.79 1.93l-.59.161.025.359c.025.36.033.479-.206.496-.12.008-.376-.214-.401-.573-1.052.434.724 1.753-2.269 1.963-.359.025-.615-.198-.623-.318l-.958.067c-.359.025-.409-.693-.768-.668-.702.29-.045 1.086-.994 1.273l-.067-.958-.359.025c.359-.025-1.615-.729-2.024-1.422-.128-.111-.009-.12.222-.256l-.025-.359c-1.47-.379-2.519-1.629-2.595-2.706-.033-.479.164-1.094.883-1.144-.257-.223-.273-.462-.29-.702-.142-2.035.948-5.359 2.942-6.1.077-.607-.58-1.403.559-2.325-.025-.359-.273-.462-.632-.437.659-.888.592-1.845 2.029-1.946-.084-1.197 5.296-8.55 6.93-9.266-.308.743 2.683-4.638 4.359-4.755l1.771-.485c.342-.265.659-.888.737-1.495l-.145-.351 1.54-.348.12-.009c.239-.016.854.181 1.119.524.111-.128-.153-.47-.034-.48l.925-.545c.239-.017-.026-.36.325-.504l.958-.067c.153.47.743.309 1.025.89l.153.471c.512.446.793 1.027 1.392.986l.359-.026.54-.88c.231-.136.103-.247.206-.495l.91-2.47c-.017-.239.395-1.23.089-2.171 1.572.13 1.829.353 3.034.39l.025.358.599-.041c.838-.06 1.581.25 1.64 1.088.306.94.493 1.89.663 2.6zm-10.855 9.9c-.719.051 3.056-2.739 2.796-6.45-.016-.24-.298-.821-1.033-1.01l-1.027.793-1.447 1.665-.359.025c-1.078.076-.395 1.231-1.353 1.298l-.239.017c-1.078.075-.899.905-1.737.963l-.24.017c-.214.376-.036 1.205-.874 1.264l-.359.025.034.479c-1.712 1.323-3.708 3.748-5.328 6.387-1.077.075.084 1.197-.754 1.256l-.24.017c-2.001.62-1.876 2.416-1.92 3.502l-1.573-.131s-.078.607-.317.624c-.342.265-.479.034-.487-.086s-1.12-.523-1.136-.763c-.025-.359-.153-.47-.769-.668.212 1.309.084 1.197 1.15 2.687.273.462.975.172 1.359.506-.47.153-.813.418-.668.768l-.359.026c.042.598.084 1.197.562 1.163.026.359-.325.504-.3.863l-.342.265c-.549.76-.866 1.383-.816 2.102.042.598.187.949.708 1.514.812-.418 1.205.036 1.976-.98.548-.76 5.333-4.583 5.308-4.942l.643-1.128c.128.111.256.223.496.206.478-.034.882-1.144.848-1.623.24-.017.232-.137.215-.376l-.025-.359c1.411-.46 1.071-1.88 1.789-1.93l.12-.008c.025.359-.601 1.726-.551 2.444.017.24.17.71.529.685-.136-.231-.153-.471-.17-.71-.008-.12.112-.128.112-.128.239-.017.248.103.487.086.12-.008.12-.008.111-.128-.016-.239-.401-.573-.587-1.523l.718-.05-.178-.83.35-.144c.479-.034.276-1.222.874-1.264l.359-.025.738-1.495s.103-.248.095-.368c.247.103.367.095.367.095q.359-.025.334-.385l-.025-.359c.095-.367 1.851-2.776 1.826-3.135 0 0-.128-.111-.368-.094-.025-.36.334-.385.677-.65m-.871 4.753.12-.008c-.025-.36.309-.743.283-1.103-.016-.239-.136-.23-.375-.214-.351.145-.454.393-.429.752s.162.59.401.573m-5.605 9.294c-.12.008.136.231.273.462-.137-.231-.154-.47-.273-.462M160.948 106.207l.36-.026c.359-.025.615.198.623.318-.643 1.127-1.653 2.16-2.68 2.954l-.359.025c-.719.05-3.458 2.166-4.46 3.319l.034.479c.05.718-.832 1.863-1.67 1.921-.599.042-.632-.437-.991-.412-1.916.134-.184 2.539-2.698 2.715l-.478.034c-.591.161-1.679 1.801-1.876 2.416l-.838.059c-1.796.125-1.927 1.698-3.466 2.047l-1.317.092c-.334.384-.804.537-1.403.579-2.514.176-5.871-1.394-6.673-2.541.025.359-.095.368-.454.393-.008-.12-5.271-3.12-5.505-6.472-.033-.479-.042-.598.061-.846l.599-.042.036-1.205-.479.033c-2.155.151-1.409-1.225-2.965-1.116-.075-1.077.737-1.495.927-2.23.495.206.743.309.76.548.025.36-.206.496-.309.744 1.172-.443 1.815-1.571 1.689-3.366l.599-.042-.025-.359c-.368-.095-.385-.334-.41-.693-.05-.719.969-1.632.893-2.709-.016-.24-.041-.599-.281-.582-1.077.075-.336 2.068-1.653 2.16 0 0-.137-.231-.376-.214q.384.334.459 1.412c.076 1.077-.762 1.136-.737 1.495s.145.35.384.334q-.488.756-.668.768c-.359.025-.649-.676-.724-1.754-.176-2.513 1.475-2.99 1.4-4.067-.273-.462-.298-.821-.323-1.181-.101-1.436.584-1.965 1.424-3.708.376.214.504.326.521.565.05.718-.943 1.991-.988 3.077.462-.273.66-.889 1.122-1.162l.181-.854c.078-.607.676-.649.746-1.376-.025-.359-.769-.668-.802-1.146.008.12 3.332-3.962 3.615-5.065-.119.008-.136-.231-.136-.231-.009-.12.428-.752.788-.777l.718-.05.156-1.214c.386-1.35 1.764-2.289 2.722-2.356l.359-.025c1.403-.579 2.558-1.261 3.457-2.166l-.025-.36c1.386-.818 3.14-1.542 4.936-1.668.838-.058 6.487 1.592 6.621 3.507.058.838-1.019.913-.969 1.632s1.846.592 1.938 1.91c.025.358-.086.486-.668.768.264.342.409.693.777.787.016.24-.103.248-.103.248-.24.017-.376-.214-.615-.198.075 1.078-.396 1.231-.593 1.846.025.36.298.822.315 1.061.033.479-.309.743-1.267.81l-.359.025c.025.36.273.462.298.822 0 0-5.01 5.763-6.566 5.872l-.719.05c-.718.05-.982-.292-1.478-.498-1.317.092-.139 1.453-2.294 1.604-.718.05-1.205-.036-1.23-.395-.017-.24-.017-.24.094-.368-1.812-.113-4.042-1.04-5.479-.94-.119.009-.359.025-.334.385.017.239.282.581.29.701.067.958-1.052.434-1.002 1.153.05.718.22 1.428.27 2.146.184 2.634-.82 5.471-.611 8.463.109 1.557.73 3.558 2.551 3.792l8.14-.57c.788-.776 2.088-1.108 3.524-1.208 3.302-.953 6.35-3.813 9.173-4.732 3.438-.721 1.191-1.887 6.496-5.145M135.07 93.942l-1.33 3.34c-.215.377 2.675.415 3.496.117 8.947-2.79 8.713-6.142 9.211-7.62l.242-1.702c-.768-.668-1.545-1.456-2.623-1.38-.478.033-1.069.195-1.411.46l-1.197.083c-.017-.24-.265-.342-.384-.334-.359.025-1.053.434-1.019.913.05.718.88.54.93 1.258-.334.385-1.189.204-1.378.939l-.718.05c-.838.059-1.155.682-1.849 1.092-.907.785-1.823 1.45-2.585 2.586.111-.128.231-.136.35-.144.24-.017.368.094.265.342m.821-.298c-.12.008-.12.008-.128-.111-.05-.719 1.046-2.239 1.765-2.29.239-.016.359-.024.376.215-.301.863-1.139.922-1.423 2.024-.35.145-.59.162-.59.162M119.088 90.248l-.017-.24c.265.343.281.582.281.582.051.718-.523 1.12-.857 1.504l-2.154.15c-.479.034-.838.059-.88-.54l-.034-.478-.598.041c-.719.05-.805.538-1.523.588l-.599.042.042.598c-.309.744-2.018.382-3.335.474l-.359.025c-.676.65-2.138.39-2.079 1.228l.016.24-.359.025c-.838.059-.659.888-1.361 1.178l-.359.025c-.162-.59-.521-.565-.554-1.044-.882 1.144-1.561 3.477-2.998 3.578-.359.025-.718.05-1.102-.284-.231.136-.231.136-.215.376.025.359 1.008.651 1.033 1.01.025.36-.206.496-.659.888-.727-.069-.46-1.411-1.178-1.36s-1.01 1.032-1.01 1.032c.033.479.81 1.267 1.005 2.336-1.06.315-1.097 1.52-2.413 1.612l-.101-1.436c-1.06.314-1.072 1.879-1.79 1.929-.24.017-.359.025-.743-.309.145.351.418.813.434 1.052.05.719-.907.786-1.575 1.554.958-.067 1.66-.356 1.72-1.203q.371.154.41.693c.033.479-.763 1.136-1.481 1.187-.24.016-.616-.198-.624-.318l.059.838.359-.025c.957-.067 1.283-.571 2.096-.988l-.176-2.514c.24-.017.256.222.376.214.36-.025.582-.281.557-.64.136.231.161.59.178.829.05.718-.378 1.47-.328 2.188l.025.359.359-.025c.1 1.437-.824 1.983-1.116 2.965l-1.002 1.153c-1.225 1.409-.704 1.974-.62 3.171.017.24.281.582.29.702.016.239-.215.376-.198.615.067.958 1.71.362 2.776 1.851.017.239.264.342.264.342.145.351.376.214.36-.025.358-.025.734.189 1.093.164 1.916-.134 3.428.843 5.9.069l.47-.153c-.061.846-1.155.682-1.745.843.289.702.648.677 1.008.652l1.077-.076c.359-.025.359-.025.496.206.239-.016.222-.256.222-.256-.008-.12-.273-.462-.315-1.06-.033-.479 1.42-.34 1.712-1.323l2.113-.749c.29.701-.086.487-.428.751.128.112.367.095.846.062 1.077-.076 1.873-.733 1.848-1.092-.008-.12-.264-.342-.623-.317l-.034-.479.24-.017c.359-.025 1.13-1.041 1.609-1.075.359-.025.709-.17.668-.768l.256.222c.359-.025.462-.272.437-.632.376.215.623.318.982.293 1.557-.109 3.767-2.91 4.246-2.944l.359-.025c.226 3.232-6.004 7.036-6.274 10.062l-.359.025c-2.335 1.006-5.383 3.865-8.735 4.1-.599.042-.958.067-1.445-.02l-.359.026c-.548.76-1.019.913-1.617.955-2.155.15-4.035-.921-5.622-2.975-.12.008-.103.247-.342.264.359-.025-2.367-1.158-3.135-1.826l-.067-.957c-.975-.173-1.05-1.25-1.442-1.704l-.151-2.155c-.769-.668-.947-1.497-1.022-2.575-.109-1.556.612-3.29.503-4.846q-.038-.54-.434-1.053c.71-.17.626-1.367 1.567-1.673l-.026-.359c.334-.384.32-2.308.68-2.333.239-.017.247.103.384.334l.598-.042c.259-1.462 7.49-11.59 9.046-11.7l.239-.016c.12-.009.062-.847.053-.966l.189-.735c3.711-.26 5.197-4.815 7.711-4.99.315 1.06 1.804-.006 1.896 1.31l.359-.025-.042-.598.36-.025c.718-.05.442 1.172 1.161 1.121l.71-.17c1.436-.1 3.75 2.024 4.936 3.505m-21.807 14.997c.139-1.453 1.191-1.887 1.996-2.425-.036 1.206-1.336 1.537-1.996 2.425m8.672 15.634c.075 1.077-1.292.451-1.353 1.297.136.231.743.309 1.102.284 1.197-.084 2.241-.638 2.141-2.074-.718.05-.796.657-1.514.707-.265-.342-.067-.958-.666-.916.265.343.281.582.29.702M84.352 91.594l-1.172.443c-.095.367-.07.727-.668.768.025.36.384.334.623.318l.36-.025.28.581c-.71.17-.052.966-1.13 1.042l.187.949a.92.92 0 0 1-.581.281s-.12.009-.129-.111l-.359.025.025.36c.026.358.299.82.658.795.159 2.275-1.74 2.648-1.58 4.923l.033.478c-.198.616-1.54.349-1.473 1.306.042.599.624.318.64.557.009.12-.565.521-.54.88l.017.239-.359.025c-.35.145-.197.616-.172.975.359-.025.359-.025.384.334-.326.504-.498 1.478-.824 1.982l.36-.025c.358-.025.59-.162.606.078l-.701.289c-.343.265-.19.735-.788.777l.008.12c.034.479-.565.521-.556.64.008.12.487.087.512.446l-.223.256c.05.718-.044 1.086-.386 1.35l.008.12c.017.239-.206.495-.198.615 0 0 .017.239.376.214.24-.016.343-.264.343-.264.12-.009.375.214.4.573s-.3.863-.42.872l.034.479c.025.359-.574.401-.565.52.52.565-.164 1.094.134 1.916l.006 1.804c.211 1.308.27 2.146.432 2.736.17.71.186.949-.148 1.334.034.478.393.453.53.684l.409.693c.623.318.793 1.028 1.314 1.593l1.28 1.113c.034.479-.094.368-.453.393l-.59.161c-.59.162-.727-.069-1.103-.284l-.24.017c-.239.017-.358.025-.375-.214-.008-.12.111-.128.103-.248s-.145-.351-.384-.334l-.744-.309c-.888-.659-1.033-1.01-2.057-1.901-.128-.111-.53-.685-.29-.701-.34-1.42-1.17-1.242-1.22-1.96-.041-.599.396-1.231.387-1.35-.025-.36-.384-.334-.81-1.267-.145-.351.07-.727.42-.871-.256-.223-.41-.694-.451-1.292-.017-.239-.167-2.394-.148-3.839-.05-.718.156-1.214-.117-1.676l.4-4.599c-.59.161-.721 1.734-1.32 1.776l-1.038 2.358c-.06.847-.762 1.136-1.352 1.298.256.223.033.479.067.958.025.359-.326.504-1.02.913l-.239.017c-.334.384-.857 1.503-1.216 1.528 0 0-.128-.111-.136-.231.008.12.008.12-.112.128l-.376-.214-.935 2.11-.359.025.025.36c.025.359-.309.743-.292.982l-.693.41.136.231c.435 1.052-1.283.571-1.856.972.264.342.384.334.41.693-.026-.359-1.32 1.776-1.79 1.929l-.59.162.024.359c.025.359.034.479-.206.496-.12.008-.376-.215-.4-.574-1.053.435.724 1.754-2.27 1.963-.358.025-.614-.197-.623-.317l-.958.067c-.359.025-.409-.693-.768-.668-.702.289-.044 1.086-.994 1.272l-.067-.957-.359.025c.36-.025-1.615-.729-2.024-1.423-.128-.111-.008-.119.223-.256l-.025-.359c-1.47-.378-2.52-1.628-2.595-2.705-.034-.479.164-1.095.882-1.145-.256-.222-.273-.462-.29-.701-.142-2.035.949-5.36 2.942-6.1.078-.607-.58-1.403.56-2.325-.026-.359-.274-.462-.633-.437.66-.888.593-1.846 2.03-1.946-.084-1.197 5.296-8.55 6.93-9.266-.31.743 2.683-4.639 4.359-4.756l1.77-.485c.343-.264.66-.888.738-1.495l-.145-.35 1.54-.349.12-.008c.239-.017.854.18 1.118.523.112-.128-.153-.47-.033-.479l.924-.546c.24-.016-.025-.359.326-.503l.957-.067c.153.47.744.308 1.025.89l.153.47c.512.446.794 1.028 1.392.986l.36-.025.54-.88c.23-.136.102-.248.205-.496l.91-2.469c-.017-.24.395-1.23.089-2.171 1.573.13 1.829.353 3.035.389l.025.359.598-.042c.838-.058 1.581.25 1.64 1.088.306.941.493 1.89.663 2.6zm-10.856 9.901c-.718.051 3.056-2.74 2.797-6.45-.017-.24-.298-.822-1.033-1.01l-1.027.793-1.448 1.665-.359.025c-1.077.075-.395 1.23-1.353 1.297l-.239.017c-1.077.076-.9.905-1.737.964l-.24.016c-.214.376-.035 1.206-.873 1.265l-.36.025.034.478c-1.712 1.323-3.708 3.748-5.328 6.388-1.077.075.084 1.197-.754 1.255l-.24.017c-2 .621-1.875 2.417-1.92 3.503l-1.572-.131s-.078.607-.318.624c-.342.264-.479.033-.487-.087-.008-.119-1.12-.523-1.136-.762-.025-.359-.153-.471-.768-.668.211 1.308.083 1.197 1.15 2.686.273.462.974.173 1.359.507-.471.153-.813.417-.669.768l-.359.025c.042.599.084 1.197.563 1.164.025.359-.326.504-.3.863l-.343.264c-.548.76-.866 1.384-.815 2.102.041.599.186.95.707 1.515.813-.418 1.205.036 1.976-.981.549-.76 5.334-4.583 5.308-4.942l.644-1.128c.128.112.256.223.495.206.479-.033.882-1.144.849-1.623.24-.016.23-.136.214-.376l-.025-.359c1.411-.459 1.072-1.879 1.79-1.929l.12-.009c.025.359-.602 1.726-.551 2.445.016.239.17.71.529.684-.137-.231-.153-.47-.17-.709-.009-.12.111-.128.111-.128.24-.017.248.103.487.086.12-.009.12-.009.112-.128-.017-.24-.401-.574-.588-1.523l.718-.05-.178-.83.35-.145c.48-.033.276-1.222.875-1.264l.359-.025.737-1.495s.103-.248.095-.367c.248.103.367.094.367.094q.36-.025.334-.384l-.025-.359c.095-.368 1.851-2.776 1.826-3.135 0 0-.128-.111-.367-.095-.025-.359.334-.384.676-.649m-.87 4.753.12-.009c-.026-.359.308-.743.283-1.102-.017-.239-.137-.231-.376-.214-.35.144-.454.392-.429.751s.162.591.401.574m-5.606 9.293c-.12.009.136.231.273.463-.137-.232-.153-.471-.273-.463M14.061 131.635c-1.665-1.448-3.21-2.903-4.883-4.47.133-3.258.138-6.626.27-9.883l1.318-.092c-.791-2.712 1.611-2.76 2.265-5.452.676-.649-.042-.598-.46-1.411.351-.145 4.033-9.424 4.239-9.92-3.472.243-9.168 1.363-11.732.82-.69-1.275-.854-.18-1.013-2.455-.666-.916-.323-1.18-.201-2.873 5.746-.402 10.784-2.318 16.026-3.045 1.69-3.366 3.451-9.143 5.012-12.62.507-1.36 1.895-3.862.982-4.881 1.303-2.016 4.425-8.97 4.592-11.749l-.958.067c-1.13 1.041-2.864.32-4.362 1.268-.086.487-.3.863-.378 1.47a3.3 3.3 0 0 1-.521-.566c-2.667-.294-8.496 4.083-9.607 3.68-2.923-.518-4.315-1.503-4.472-5.462-.529-.685-.852-1.865-1.543-3.14l1.796-.126-.134-1.915c1.573.13 1.743.84 2.734 1.252 4.38-1.027 8.647-1.927 12.914-2.827.248.103 11.598-2.736 15.122-3.945 11.043-3.78 34.094-4.429 41.759-1.476 1.102.284 1.754-.724 2.24-.638 2.787.286 11.215 2.103 12.526 5.38.65.676.928 2.942.705 3.198-.453.393-.111.128-.804.537-1.86-2.516-4.474-3.777-7.654-4.517l-1.854-.712-1.342-.267-2.027.262-1.556.109-.905-.9-1.898.374-2.197-.448-2.266.279-.487-.086-2.453-.671-.651 1.008-2.069-.337-2.291-.08c-9.585.55-20.498 2.757-28.624 5.25l.076 1.077.598-.042c1.178 1.361-.019 1.445.21 2.993l-.696 2.093.034.48-1.687 1.68-.284 1.103-1.294 2.136.1 1.436-1.071 1.88-1.927 1.698-.172.975.382 2.018-1.531.468-.44 2.316-.899.905.117 1.676-.651 1.008-.448 2.196-1.066 3.684 1.317-.092c2.183-1.476 9.084-2.56 11.93-1.436 1.472-1.306 4.765-2.378 7.877-2.596 1.676-.117 3.369.005 4.6.4 2.948.877 5.765-1.846 8.278-2.022 1.078-.075 2.069.336 2.888 1.723l-7.542.527c-1.943 1.46-2.881.081-5.362.736-3.524 1.209-4.2 1.857-6.235 2l-3.088.577c1.12.523.231-.137.914 1.018-.677.649-.66.888-1.704 1.443-.676.648-2.232.757-3.112.217 1.667-.237 1.213.156 1.737-.963l-1.796.125c-.454.393-.111.128-.813.418l.067.958c.735.189.368.094.88.54-1.325-.028-1.23-.395-1.796.125-.754 1.256-2.83.8-5.088 1.198-3.096.457-9.048 1.355-10.273 2.763-1.13 1.042-1.313 3.581-1.41 5.632l.479-.033-.034-.479c.668-.768.66-.888.799-2.341l1.795-.126.026.359c-1.687 1.682-1.327 6.829-3.04 8.152-1.925 1.699-3.41-.603-4.835 3.105.633.437 1.435 1.584 2.005 2.867-4.33 3.431.609 10.423-3.973 15.435M56.95 55.137c.66-.888.813-.418 1.216-1.529l-2.634.184c.093 1.317-.523 1.12 1.418 1.345m6.603-1.906.067.958 4.524-.677-3.274-.373zm-17.856 2.693.059.838c1.556-.11 2.386-.288 3.053-1.056zm-5.832.889.058.838.958-.067-.033-.48zm2.063 3.705c-.854-.181-.846-.061-1.358-.507.966.053.846.061 1.358.507M22.164 87.522l.067.958.958-.067-.067-.958zM67.146 85.7l.042.599c-.735-.19-.367-.095-.88-.54zm-6.94 3.974c-.854-.181-1.709-.362-2.213-.688.36-.025 3.07-.816 3.19-.824.24-.017.06.838-.976 1.512m-3.624-.228.033.479c-2.035.142-3.71.26-4.59-.28zm-15.648 1.575.058.838.958-.067-.059-.838zm9.112 1.288-.075-1.078c.974.173.846.062 1.358.507l-.359.025c-.454.393-.111.128-.924.546m-2.25.518c-.846-.061-.837.059-1.341-.267.966.053.846.061 1.342.267m-5.252 2.292c-.847-.061-.838.059-1.342-.267.966.053.846.061 1.342.267m-1.284.571c-.966-.053-.846-.061-1.35-.387.974.173.846.061 1.35.387M20.22 107.867l.837-.058-.142-2.035c-.145-.351.223-.256-.4-.574-.198.616-.293.983-.296 2.667m-1.242 1.17.059.838.838-.059-.059-.838zm-.665 4.257-.83.178.218-2.06c.392.454.314 1.06.612 1.882m.362-1.71.922 1.139c-.206.495-.437.632-.565.52-.24.017-.34-1.419-.357-1.659m-1.166 2.247.838-.059c-.061.847-.292.983-.412.992-.248-.103-.52-.565-.426-.933M515.89 165.923l-.24.017.017.24c.265.342.273.462.29.701.075 1.077-2.595 2.467-2.834 2.484-1.197.083-.657-.796-1.615-.729l-1.197.083c-4.07.285-3.271-2.056-5.493-2.863l-.12.008c-.119.008-.256-.223-.281-.582-.042-.598.061-.846.301-.863l.359-.025-.042-.599c.147-1.333 1.208-1.648 1.227-3.093.479-.033 1.077-.075 1.111.404l.12-.009c.239-.016.247.103.384.334.222-.256.618-1.486.977-1.511l.392.453-.111.128c.136.231.418.813.777.788l-.017-.239c-.008-.12.214-.376.574-.401.478-.034.854.181.879.54 0 0 4.299 1.263 4.508 4.256zM505.297 156.68l.359-.025c.359-.025.615.197.623.317-.643 1.128-1.653 2.161-2.68 2.954l-.359.025c-.718.05-3.458 2.167-4.46 3.319l.034.479c.05.718-.832 1.863-1.67 1.921-.599.042-.632-.437-.991-.411-1.916.133-.184 2.539-2.697 2.714l-.479.034c-.59.161-1.679 1.801-1.876 2.417l-.838.058c-1.796.126-1.926 1.699-3.466 2.047l-1.317.092c-.334.384-.804.537-1.403.579-2.514.176-5.871-1.394-6.673-2.54.025.359-.095.367-.454.392-.008-.12-5.27-3.12-5.505-6.472-.033-.478-.042-.598.061-.846l.599-.042.036-1.205-.479.033c-2.155.151-1.409-1.224-2.965-1.116-.075-1.077.738-1.495.927-2.23.495.206.743.309.76.549.025.359-.206.495-.309.743 1.172-.443 1.815-1.57 1.689-3.366l.599-.042-.025-.359c-.368-.095-.385-.334-.41-.693-.05-.718.969-1.632.894-2.709-.017-.24-.042-.599-.282-.582-1.077.075-.336 2.069-1.653 2.161 0 0-.137-.231-.376-.215q.384.335.46 1.412c.075 1.077-.763 1.136-.738 1.495s.145.351.384.334q-.488.756-.668.768c-.359.025-.648-.676-.724-1.753-.176-2.514 1.475-2.991 1.4-4.068-.273-.462-.298-.821-.323-1.18-.101-1.437.584-1.966 1.425-3.709.375.215.504.326.52.565.05.719-.943 1.991-.988 3.077.463-.273.66-.888 1.122-1.161l.181-.855c.078-.607.676-.649.746-1.375-.025-.36-.769-.668-.802-1.147.008.119 3.332-3.962 3.615-5.065-.119.009-.136-.231-.136-.231-.008-.12.429-.752.788-.777l.718-.05.156-1.214c.386-1.35 1.764-2.288 2.722-2.355l.359-.025c1.403-.58 2.558-1.262 3.457-2.167l-.025-.359c1.387-.819 3.14-1.543 4.936-1.668.838-.059 6.487 1.591 6.621 3.506.058.838-1.019.914-.969 1.632s1.846.593 1.938 1.909c.025.359-.086.487-.668.769.265.342.409.693.777.787.017.24-.103.248-.103.248-.239.017-.376-.214-.615-.197.075 1.077-.395 1.23-.593 1.846.025.359.298.821.315 1.06.033.479-.309.744-1.267.811l-.359.025c.025.359.273.462.298.821 0 0-5.01 5.763-6.566 5.872l-.719.05c-.718.051-.982-.292-1.478-.498-1.317.092-.139 1.454-2.294 1.604-.718.05-1.205-.036-1.23-.395-.017-.239-.017-.239.094-.367-1.812-.114-4.042-1.041-5.479-.94-.119.008-.359.025-.334.384.017.239.282.582.29.701.067.958-1.052.435-1.002 1.153s.22 1.428.27 2.146c.185 2.634-.82 5.471-.611 8.464.109 1.556.73 3.557 2.551 3.791l8.14-.569c.788-.777 2.088-1.109 3.524-1.209 3.302-.953 6.35-3.812 9.173-4.731 3.438-.722 1.191-1.888 6.497-5.146m-25.879-12.265-1.33 3.341c-.214.376 2.675.414 3.496.116 8.948-2.79 8.713-6.142 9.211-7.621l.242-1.701c-.768-.668-1.545-1.455-2.622-1.38-.479.033-1.069.195-1.412.459l-1.197.084c-.017-.239-.264-.342-.384-.334-.359.025-1.052.435-1.019.913.05.719.88.54.93 1.259-.334.384-1.189.203-1.378.938l-.718.05c-.838.059-1.155.683-1.848 1.092-.908.785-1.824 1.451-2.586 2.587.111-.129.231-.137.35-.145.24-.017.368.094.265.342m.821-.298c-.119.008-.119.008-.128-.111-.05-.718 1.047-2.239 1.765-2.289.239-.017.359-.025.376.214-.301.863-1.139.922-1.423 2.025-.35.144-.59.161-.59.161M463.436 140.721l-.017-.239c.265.342.282.581.282.581.05.719-.524 1.12-.858 1.504l-2.154.15c-.479.034-.838.059-.88-.539l-.034-.479-.598.042c-.718.05-.805.537-1.523.587l-.598.042.041.599c-.308.743-2.018.381-3.335.473l-.359.026c-.676.648-2.138.39-2.079 1.228l.017.239-.36.025c-.837.059-.659.888-1.361 1.178l-.359.025c-.161-.59-.52-.565-.554-1.044-.882 1.144-1.561 3.478-2.998 3.578-.359.025-.718.05-1.102-.284-.231.137-.231.137-.214.376.025.359 1.007.651 1.033 1.01.025.36-.206.496-.66.889-.727-.07-.46-1.412-1.178-1.362-.718.051-1.01 1.033-1.01 1.033.033.479.81 1.267 1.005 2.336-1.061.315-1.097 1.52-2.413 1.612l-.101-1.436c-1.06.315-1.071 1.879-1.79 1.929-.239.017-.359.025-.743-.309.145.351.418.813.434 1.053.051.718-.907.785-1.575 1.553.958-.067 1.659-.356 1.72-1.203q.372.154.41.694c.033.478-.763 1.136-1.481 1.186-.24.017-.615-.198-.624-.317l.059.837.359-.025c.958-.067 1.283-.571 2.096-.988l-.176-2.514c.24-.017.256.223.376.214.359-.025.582-.281.557-.64.136.231.161.59.178.829.05.719-.378 1.47-.328 2.189l.025.359.359-.025c.101 1.436-.824 1.982-1.116 2.965l-1.002 1.152c-1.224 1.409-.704 1.974-.62 3.171.017.24.281.582.29.702.016.239-.215.376-.198.615.067.958 1.709.362 2.776 1.851.017.239.264.342.264.342.145.351.376.215.36-.025.359-.025.735.189 1.094.164 1.915-.134 3.427.843 5.899.069l.47-.153c-.061.846-1.155.682-1.745.844.29.701.649.676 1.008.651l1.077-.075c.359-.026.359-.026.496.206.239-.017.222-.257.222-.257-.008-.119-.273-.462-.314-1.06-.034-.479 1.419-.34 1.712-1.323l2.112-.749c.29.701-.086.487-.428.752.128.111.367.094.846.061 1.078-.076 1.874-.733 1.848-1.092-.008-.12-.264-.342-.623-.317l-.034-.479.24-.017c.359-.025 1.13-1.041 1.609-1.075.359-.025.71-.169.668-.768l.256.223c.359-.025.462-.273.437-.632.376.214.624.317.983.292 1.556-.109 3.766-2.91 4.245-2.943l.359-.026c.226 3.232-6.004 7.036-6.274 10.063l-.359.025c-2.335 1.005-5.383 3.865-8.735 4.099-.599.042-.958.067-1.445-.019l-.359.025c-.548.76-1.019.913-1.617.955-2.155.151-4.034-.921-5.622-2.975-.119.008-.103.248-.342.264.359-.025-2.366-1.157-3.135-1.825l-.067-.958c-.974-.173-1.05-1.25-1.442-1.704l-.151-2.154c-.768-.668-.947-1.498-1.022-2.575-.109-1.557.612-3.291.503-4.847q-.038-.539-.434-1.052c.71-.17.626-1.367 1.567-1.674l-.025-.359c.334-.384.319-2.308.678-2.333.24-.017.248.103.385.334l.598-.042c.259-1.461 7.49-11.591 9.046-11.699l.24-.017c.119-.009.061-.846.052-.966l.19-.735c3.71-.26 5.196-4.814 7.71-4.99.315 1.06 1.804-.006 1.896 1.311l.359-.025-.041-.599.359-.025c.718-.05.443 1.172 1.161 1.122l.71-.17c1.436-.101 3.75 2.023 4.936 3.504m-21.807 14.998c.139-1.454 1.191-1.888 1.996-2.425-.036 1.205-1.336 1.537-1.996 2.425m8.672 15.633c.075 1.077-1.292.451-1.353 1.297.136.231.743.309 1.103.284 1.197-.084 2.24-.638 2.14-2.074-.718.05-.796.657-1.514.707-.265-.342-.067-.957-.666-.916.265.343.281.582.29.702M428.7 142.067l-1.172.443c-.095.368-.07.727-.668.769.025.359.384.334.624.317l.359-.025.281.582c-.71.17-.053.966-1.13 1.041l.186.949a.92.92 0 0 1-.581.282s-.12.008-.128-.112l-.36.025.026.359c.025.36.298.822.657.797.159 2.274-1.74 2.647-1.581 4.922l.034.479c-.198.615-1.54.348-1.473 1.305.042.599.624.318.641.557.008.12-.565.521-.54.88l.016.239-.359.026c-.35.144-.197.615-.172.974.359-.025.359-.025.384.334-.326.504-.498 1.478-.824 1.982l.359-.025c.36-.025.591-.161.607.078l-.701.29c-.342.264-.189.735-.788.776l.009.12c.033.479-.566.521-.557.641.008.119.487.086.512.445l-.223.256c.051.718-.044 1.086-.386 1.35l.008.12c.017.239-.206.496-.197.615 0 0 .016.24.375.215.24-.017.343-.265.343-.265.12-.008.376.214.401.574.025.359-.301.863-.42.871l.033.479c.025.359-.573.401-.565.52.521.566-.164 1.095.134 1.916l.006 1.804c.212 1.308.27 2.146.432 2.736.17.71.186.95-.148 1.334.034.479.393.454.529.685l.41.693c.623.317.793 1.027 1.314 1.592l1.281 1.113c.033.479-.095.368-.454.393l-.59.161c-.59.162-.727-.069-1.103-.283l-.239.016c-.239.017-.359.026-.376-.214-.008-.12.111-.128.103-.248-.008-.119-.145-.35-.384-.334l-.743-.309c-.889-.659-1.033-1.01-2.058-1.901-.128-.111-.529-.684-.29-.701-.34-1.42-1.169-1.242-1.219-1.96-.042-.598.395-1.23.386-1.35-.025-.359-.384-.334-.81-1.267-.145-.35.07-.726.42-.871-.256-.223-.409-.693-.451-1.292-.017-.239-.167-2.394-.148-3.839-.05-.718.156-1.214-.117-1.676l.4-4.599c-.59.162-.721 1.735-1.319 1.776l-1.038 2.359c-.062.846-.763 1.136-1.353 1.297.256.223.033.479.067.958.025.359-.326.504-1.019.913l-.239.017c-.334.384-.858 1.503-1.217 1.528 0 0-.128-.111-.136-.231.008.12.008.12-.112.128l-.375-.214-.936 2.111-.359.025.025.359c.026.359-.308.743-.292.983l-.693.409.137.231c.434 1.052-1.284.571-1.857.972.264.342.384.334.409.693-.025-.359-1.319 1.776-1.79 1.93l-.59.161.025.359c.026.359.034.479-.206.496-.119.008-.375-.215-.4-.574-1.053.435.724 1.754-2.269 1.963-.359.025-.615-.197-.624-.317l-.957.067c-.36.025-.41-.693-.769-.668-.701.29-.044 1.086-.994 1.272l-.066-.957-.36.025c.36-.025-1.614-.729-2.024-1.422-.128-.112-.008-.12.223-.257l-.025-.359c-1.47-.378-2.52-1.628-2.595-2.705-.034-.479.164-1.094.882-1.145-.256-.222-.273-.462-.29-.701-.142-2.035.949-5.359 2.942-6.1.078-.607-.579-1.403.559-2.325-.025-.359-.273-.462-.632-.437.66-.888.593-1.846 2.029-1.946-.083-1.197 5.297-8.55 6.931-9.266-.309.743 2.683-4.639 4.359-4.756l1.77-.484c.343-.265.66-.889.738-1.495l-.145-.351 1.539-.348.12-.009c.24-.017.855.181 1.119.523.112-.128-.153-.47-.033-.478l.924-.546c.24-.017-.025-.359.326-.504l.957-.067c.154.47.744.309 1.025.891l.153.47c.513.445.794 1.027 1.392.985l.359-.025.54-.88c.231-.136.103-.247.206-.495l.91-2.47c-.016-.239.395-1.23.089-2.171 1.573.13 1.829.353 3.035.389l.025.359.598-.042c.838-.058 1.582.251 1.64 1.089.307.941.493 1.89.663 2.6zm-10.856 9.902c-.718.05 3.056-2.74 2.797-6.451-.017-.24-.298-.821-1.033-1.01l-1.027.793-1.448 1.665-.359.025c-1.077.076-.395 1.231-1.352 1.298l-.24.016c-1.077.076-.899.905-1.737.964l-.239.017c-.215.376-.036 1.205-.874 1.264l-.359.025.033.479c-1.712 1.322-3.708 3.747-5.327 6.387-1.078.075.083 1.197-.755 1.256l-.239.016c-2.002.621-1.876 2.417-1.92 3.503l-1.573-.131s-.078.607-.318.624c-.342.264-.478.033-.487-.086-.008-.12-1.119-.524-1.136-.763-.025-.359-.153-.47-.768-.668.212 1.308.083 1.197 1.15 2.686.273.462.974.173 1.359.507-.471.153-.813.418-.668.768l-.36.025c.042.599.084 1.197.563 1.164.025.359-.326.504-.301.863l-.342.265c-.548.76-.865 1.383-.815 2.102.042.598.186.949.707 1.514.813-.418 1.206.036 1.977-.98.548-.76 5.333-4.584 5.308-4.943l.643-1.127c.128.111.256.222.495.206.479-.034.883-1.145.849-1.624.239-.016.231-.136.214-.375l-.025-.359c1.412-.46 1.072-1.88 1.79-1.93l.12-.008c.025.359-.601 1.726-.551 2.444.017.239.17.71.529.685-.137-.231-.153-.471-.17-.71-.008-.12.111-.128.111-.128.24-.017.248.103.487.086.12-.008.12-.008.112-.128-.017-.239-.401-.574-.588-1.523l.718-.05-.178-.83.351-.144c.479-.034.275-1.223.874-1.264l.359-.026.737-1.495s.103-.247.095-.367c.248.103.368.094.368.094q.358-.024.334-.384l-.026-.359c.095-.367 1.851-2.776 1.826-3.135 0 0-.128-.111-.367-.095-.025-.359.334-.384.676-.648m-.871 4.752.12-.008c-.025-.359.309-.744.284-1.103-.017-.239-.136-.231-.376-.214-.351.145-.454.392-.428.752.025.359.161.59.4.573m-5.605 9.294c-.12.008.137.231.273.462-.136-.231-.153-.471-.273-.462"/><path fill="#fff" d="M393.266 151.522c-.206.496-.627 1.367-1.704 1.442-.359.026-.504-.325-1.102-.283 0 0-2.765 1.757-4.535 2.241-.718.051-1.704 1.443-2.422 1.493-.598.042-1.428.22-1.915.134-.685.529-2.386.287-2.054 1.587-.36.025-.504-.325-.983-.292.145.351-.215.376-.181.855-.368-.095-1.698 3.246-2.655 3.313l-.36.025.145.351c.145.351.153.47.195 1.069l.034.479c.256.222.64.556.649.676.067.958-.576 2.085-1.526 2.272 1.392.985 2.228 2.611 2.406 3.441l.359-.026c.359-.025 3.358 1.57 3.545 2.519l.493 1.891c.529.684.913 1.018 1.083 1.728l.162.59.478-.033c.529.685 1.348 2.071 1.688 3.491.323 1.18.295 2.505-.039 2.889l.12-.008c.359-.025.769.668.777.788.05.718-.267 1.342-.114 1.812l.741 1.993q-.321.564-.284 1.103c.009.119.384.334.393.454l.025.359c-.078.607-1.019.913-.618 1.486.137.231.145.351.401.574l.145.351c.579 1.403-1.353 1.297-1.336 1.536.008.12 1.102.284 1.256.755.306.941-.404 1.111-.788.777-.231.136-.343.264-.317.623.264.343.289.702.434 1.052.724 1.754-.587 3.65-.974 5.001l.179.829-.359.025c-.599.042-1.175 2.127-1.364 2.862.033.479.863.301.888.66.008.12-1.355 2.982-4.147 6.064l.008.12c.042.598-.403 1.111-.063 2.53l-.359.025c-.719.051-1.267.811-1.08 1.76l-.599.042c.655 2.48-2.357 4.134-3.29 4.561-.913-1.019-3.488.003-4.811-1.709l-.359.025c-.957.067-4.126-2.238-4.271-2.588-.289-.702.685-.529.643-1.128-.025-.359-1.085-.044-1.57-1.815-.17-.71 1.583-6.606 1.446-6.837-.367-.095-.632-.437-.991-.412-.27-2.147 1.28-4.059 1.255-4.418-.384-.334-.426-.933-.571-1.284-.724-1.754-.259-3.711.787-5.949l.12-.009c.378-1.47.979-3.196 1.057-3.803-.367-.094-.504-.325-.512-.445-.025-.359-.042-.598.197-.615.12-.009.496.206.863.3.574-.401.54-.879.37-1.589-.359.025-.545-.925-.69-1.275-.588-1.523 1.007-4.522 2.376-5.58l-.178-.829-.239.017c-.12.008-.41-.694-.426-.933-.059-.838.019-1.445.712-1.854l.479-.034c.111-.128.094-.367.086-.487-.025-.359-.529-.685-.554-1.044-.017-.239.094-.367.573-.401l-.025-.359c-.025-.359.078-.607.053-.966l-.025-.359c-.009-.12 1.015-4.402 1.255-4.418-.179-.83-.708-1.515-1.546-1.456l-.359.025c-1.837-.473-4.63-2.563-4.936-3.504 0 0-.009-.12.094-.368l-.478.034c-.129-.112-.145-.351-.17-.71.016.239-.334.384-.694.409-.239.017-.359.025-.503-.325-.752-.429-1.359-.507-2.136-1.295-.599.042-2.002.622-2.052-.097-.033-.479.148-1.333.507-1.358 1.317-.092.874-1.264 3.627-1.457l-.145-.351c.866-1.383 3.594-1.935 5.005-2.395l.719-.05c-.009-.12.094-.367.214-.376.359-.025.735.189.743.309.12-.008.231-.136.214-.376-.008-.119-.264-.342-.384-.334 0 0-.008-.119.231-.136.479-.034 1.846.593 3.283.492.239-.017.598-.042.821-.298l-.025-.359c-.051-.718-.674-1.036-1.281-1.113.028-1.326.053-.966.387-1.351l.239-.016c.685-.529 3.246-3.475 3.101-3.826l-.34-1.42c-.34-1.42 1.77-.484 1.99-4.229l-.359.025c-.257-.222-.496-.206-.504-.325-.042-.599 1.352-1.298.807-2.222-.137-.231-.401-.574-.41-.693l.719-.05c-.118-1.676 2.037-1.827 1.552-3.598.036-1.205.064-2.53.612-3.29-.264-.343-.529-.685-.682-1.155l.359-.026c.343-.264.574-.401.788-.776.153.47.35-5.318 1.547-5.401l.599-.042c-.248-.103-.273-.462-.41-.693-.273-.463.061-.847.036-1.206l-.025-.359c-.075-1.077 2.675-4.758 1.987-7.717 0 0 1.344-1.418 1.55-1.913-.137-.231-.384-.334-.384-.334-.34-1.42 1.645-2.281 1.193-3.572-.587-1.523 1.267-.811 1.097-1.52l-.323-1.181c.763-1.136 2.012-2.185 2.048-3.391-.314-1.061-.938-1.378-.98-1.976-.008-.12-.033-.479.189-.735l.838-.059c.446-.512 2.029-1.946 2.594-2.467l-.016-.24c-.025-.358.094-.367.061-.846l-.025-.359c-.05-.718.044-1.085.403-1.11.599-.043.914 1.018 1.777 1.319l.957-.067c.719-.05 3.263 1.937 3.417 2.407-1.431 1.905-2.238 4.126-3.677 5.911l.348 1.54c-.214.375-1.06.314-1.01 1.033l.025.359-.718.05.17.71c-.755 1.256-1.759 4.092-2.497 5.588l-.359.025c-.479.033-.565.52-1.027.793.145.351.624.318.983.292.153.471-2.589 4.271-2.589 4.271l.307.941c.367.095.607.078.607.078.144.351-.796.657-.763 1.136.017.24.136.231.145.351l.025.359c.017.239.025.359.384.334 0 0-3.435 4.21-3.418 4.449.034.479.777.788.922 1.139.281.582-1.052.434-.626 1.367l.145.351c.86 1.984-2.194 3.04-2.093 4.476.033.479.751.429.896.78s-1.634.716-1.6 1.194c.016.24.145.351.64.557-.189.735-.754 1.256-1.208 1.648.265.343.521.565.81 1.267-1.436.1-.968 1.631-2.02 2.066l.144.351c1.312 3.276-2.763 6.929-2.415 8.469 0 0 .376.214.385.334-.223.256-.198.615-.198.615.145.351.504.326 1.342.267.292-.983 2.642-.064 2.814-1.039-.025-.359.334-.384.693-.409l3.233-.226-.145-.351c.907-.785 2.199-1.236 4.601-1.284.863.3 1.214.156 1.12.523m1.208-1.648c1.052-.435 2.575-1.022 4.37-1.148l.504.326c-1.472 1.306-2.798 1.278-4.406 2.353-.265-.342-.385-.334-.624-.317-.265-.343-.298-.822.156-1.214m-20.541 14.187.12-.008c.718-.05.565-.521.523-1.119l-.008-.12c-.042-.599.592-1.846.439-2.316-.615-.198-1.617.955-2.096.988-2.035.143-3.037 1.295-4.44 1.875l-1.89.493c-.949.186-1.036.674-.857 1.503.17.71.793 1.027 1.511.977.838-.059 2.13-.51 2.968-.568 1.437-.101 1.503.857 2.222.807.359-.026.701-.29.813-.418l.247.103c.12-.009.351-.145.206-.496-.264-.342-.529-.684-.785-.907-.128-.111.429-.752 1.027-.794m2.585 9.443-.145-.351c-.52-.565-1.049-1.25-2.127-1.174-.386 1.35-.815 2.102-.467 3.641l.332 1.3c-.215.376-1.069.195-1.147.802l-.359.025.323 1.181c.969 3.541-2.878 3.569-1.583 6.606.145.351.529.685.546.924.075 1.078.245 1.788-.833 1.863l.265.342c-.231.137-.214.376-.206.496.017.239.521.565.529.685.025.359-.796.657-.643 1.127l.384.334c-.762 1.136-.662 2.573-.681 4.018l-1.197.083c-.359.025-.078.607-.053.966.084 1.197 1.233-1.289 1.386-.818.162.59-.498 1.478-.431 2.436.009.119.393.453.529.684-.35.145-.334.385-.693.41l.009.119c.016.24-.215.376-.334.385l.314 1.06c.257.223.265.343.282.582.05.718-.226 1.94-.175 2.659l-.359.025c.169.71.092 1.317-.482 1.718l.384.334c-.684.529.519 2.249-.798 2.341.161.59.409.693.905.899-.231.137-.215.376-.206.496l.017.239c.008.12-.351.145-.215.376l.563 1.164c.136.231-.668.768-1.027.793l.025.359c.359-.025.743.309.905.899l.195 1.069c1.06-.314 2.249-.518 3.925-.635l.718-.05c1.67-1.921 2.597-4.152 4.131-6.304l1.197-.083-.025-.36c-.051-.718-.802-1.146-.819-1.386-.025-.359 1.052-.434.899-.905-.12.009-.137-.231-.137-.231-.128-.111 1.86-2.656 1.851-2.776l-.025-.359.359-.025-.331-1.3c-.153-.47.693-.409.403-1.111l-.144-.351c.231-.136.205-.495.189-.735l-.009-.119c1.2-1.768-1.27-2.678 1.364-2.862-.315-1.061-.501-2.01-1.339-1.952.932-.426 1.335-6.709 1.293-7.308-.008-.119-.265-.342-.384-.334l-.359.025c-.488-.086-.513-.445-1.111-.403.428-.752.286-2.787.423-2.556-.145-.351-.162-.59-.666-.916.214-.375.189-.735.036-1.205-.306-.941-1.467-2.063-2.047-3.466-.145-.35-.289-.701-.195-1.069-1.239-.515-2.135-1.294-2.929-2.321m5.015 25.272c.017.239-.334.384-.189.735-.359.025-.504-.326-1.102-.284.094-.368.453-.393.42-.872.367.095.392.454.871.421M327.139 182.009l.843 1.746c1.281 1.113 1.187 1.48 2.921 2.201.607.078 1.47.379 2.197.448-1.053.435-2.113.749-2.728.552-.983-.292-3.102-1.347-3.11-1.467l-1.401-1.105c-.905-.899-2.099-2.5-2.626-4.869l.368.095c-.56-2.848-1.418-1.344-1.744-6.013-.109-1.556.022-3.129-.029-3.847l-.041-.599c-.051-.718.514-1.239.464-1.957l-.1-1.437c-.042-.598-.201-2.873.595-3.53l-.059-.838c-1.865.853-1.731 2.768-2.741 3.801l.025.359-.326.504c.025.359.385.334.451 1.292l-.359.025c-.231.136-.334.384-.932.426l-.479.033.084 1.197c.042.599-.164 1.094-.267 1.342q-.564-.321-.744-.309c-.359.025-.71.17-.949.187-.12.008-.359.025-.487-.086.033.479.178.829.537.804l2.035-.142c-.548.76-.977 1.512-2.037 1.827.153.47.409.693.529.684.359-.025.676-.648 1.266-.81l.359-.025c-.848 1.623-1.04 4.042-3.17 4.552l-.838.059c.084 1.197-1.625.835-1.55 1.912l.05.719c.134 1.915-5.094 4.566-7.198 5.435l-1.565-.011c-.239.017-.342.265-.582.281-.478.034-4.262-2.468-4.337-3.546-.026-.359.325-.503.3-.863-.042-.598-.81-1.266-.861-1.984.087-.488.404-1.111 1.114-1.281-.145-.351-.529-.685-.579-1.403-.051-.718.821-.298.787-.777l-.025-.359c.557-.641.643-1.128.593-1.846-.025-.359-.067-.958-.212-1.308.2-2.3 1.965-4.589 2.129-5.683-.618 1.487.62-3.171 1.33-3.341l-.042-.598c-.1-1.437.44-2.317 1.108-3.085.718-.05.16-4.582 1.803-5.178l-.042-.599c-.239.017-.239.017-.248-.103-.092-1.317.919-2.35 1.211-3.332l.094-.368c.181-.855-.988-2.096-1.039-2.814l2.138-.39c1.676-.118 4.096.074 4.736.631l.025.359.479-.034c.298.822.145.351.212 1.309.083 1.197-.462.273-.515 1.239.342-.265-.267 1.342-1.803 5.178l-.704 1.974s-1.834 3.015-1.912 3.622l.025.359c.134 1.916-.748 3.06-2.238 4.127.009.119.273.462.418.812-.111.128-.351.145-.702.29l.026.359c.05.718-.301.863-.259 1.462l-.599.042c-.094.367-.325.504-.3.863s.289.701.306.941c.084 1.197-1.353 1.297-1.26 2.614l.025.359-.599.042c-.094.367-.353 1.829-.269 3.026.067.958.32 2.865.935 3.062-.016-.239.649.677 1.128.643.599-.042 1.147-.802 1.386-.819l1.448-1.665 2.235-2.441c2.191-1.357 2.597-4.152 4.575-6.816l-.083-1.197.359-.025c2.107-2.554 3.532-6.262 7.582-10.274l.359-.025c-.24.016 1.595-2.999 1.452-5.034-.033-.479-.434-1.052-.443-1.172-.016-.239.103-.248.343-.265.479-.033 1.862.833 1.921 1.671l.017.239.359-.025c1.949.345 3.433 2.647 3.491 3.485.051.718-2.271 3.647-2.237 4.126.025.359.145.351.401.573-.206.496-.682 4.018-1.135 4.41l-.599.042.05.718c-.025-.359-.662 2.573-1.28 4.06l.025.359c.368.094.368.094.385.334.025.359-.549.76-.523 1.119.008.12.025.359.264.342.059.838-.3.863-.275 1.222.016.24.136.231.401.574l.033.479c.101 1.436.056 2.522.157 3.958zm-19.393-15.846c.47-.153.111-.128.145.351-.009-.12-.017-.239-.145-.351"/><path fill="#fff" d="M304.437 147.87c.701-.29 2.121-.63 3.661-.978l-.095.367c-1.069.195-2.224.878-2.352.766-1.181.323-2.233.758-3.165 1.184.565-.521 1.361-1.178 1.951-1.339m-2.995 1.893c-.231.137-.702.29-1.292.451.693-.409 1.514-.707 2.336-1.005-.463.273-.805.537-1.044.554m-8.563 3.125c1.052-.434 2.558-1.261 3.722-1.824.932-.426 2.36-.646 3.549-.85-2.567 1.142-4.877 2.507-7.58 3.417.033.479-2.224.878-2.311 1.365-2.806 1.159-4.601 1.284-6.758 3.119 1.074 1.609 3.107 3.151 2.987 3.159.137.231.376.215.632.437 1.546 1.456 2.656 1.86 2.637 3.304a1.45 1.45 0 0 0-.557.641l-1.675.117c-.045 1.086-.209 2.18-.381 3.154 0 0-.139 1.453-.841 1.743-.701.29-.309.743-1.027.794-.445.512-.548.76-.523 1.119s1.23.395 1.247.634c.017.24.137.232-.086.488-.376-.215-.677.648-1.027.793-1.403.58-1.542 2.033-2.168 3.4-.154-.471-.504-.326-.786-.908l-.35.145c-.574.401-.164 1.094-.986 1.392l-.35.145.016.24c.059.837-1.138.921-1.686 1.681l-.351.145c-1.172.443-2.976.449-3.037 1.295l.153.471-.71.169c-.949.187-1.907.254-2.865.321-3.508-3.724-5.977-4.634-6.221-13.278.373-3.274 1.007-4.522 2.371-7.384l2.271-3.647c.643-1.128.381-3.154.264-4.83 3.001-.09 3.922 1.049 5.793 2.001 1 .531 1.871.951 2.94.756 3.97-1.721 8.477-2.637 11.642-3.821.624.317 1.565.011 2.052.097m-17.861 6.061c-1.3.331-1.481 1.186-1.67 1.921.384.334 1.222.275 1.272.994l.017.239c.71-.17.685-.529.899-.905l-.153-.47c-.607-.078-1.086-.045-1.102-.284-.026-.359.42-.872.737-1.495m8.979 4.545c-2.879-1.604-3.074-2.673-7.453-1.645-.565.521.017.24-1.044.555-.556.64-1.113 1.28-1.653 2.16-.103.248-1.214-.156-1.325-.027l.34 1.419-.326.504c-.71.17-.317.624-.532 1-.103.248-3.129-.022-2.736.432.128.111.743.309 1.854.712-.103.248-.557.64-.66.888s.393.454.29.702c-.214.376-1.147.802-.403 1.111-.816 2.102-1.264 4.298-1.464 6.598 1.565.011 3.121-.098 3.806-.627 1.882-.613 4.217-1.618 6.23-3.804.453-.393.857-1.504 1.182-2.007.446-.513.916-.666 1.353-1.298.215-.376.395-1.231.618-1.487.969-1.631 1.681-3.485 1.923-5.186"/><path fill="#fff" d="M262.451 198.923c4.482-1.276 21.935-2.857 25.96-2.056-.222.256-.214.376-.325.504-1.25 1.05-5.771.042-9.251.166-2.369.526-2.155.15-2.464.894-1.704 1.442-5.857.529-8.577 1.201-6.5 1.657-12.213 2.538-18.226 4.282-1.185 3.691-2.963 9.229-4.627 12.954-1.356 2.982-4.885 7.559-6.975 10.352-1.325-.028-1.651.476-1.891.493l-.401-.574c.343-.264.805-.537 1.028-.793-.137-.231-.145-.351-.154-.471l1.339-3.221.815-2.102-.159-2.274.924-.546.524-1.119.746-1.376-.262-2.026 1.336-1.537-.947-1.498 1.745-.844-.15-2.155-.179-.829.771-1.016-.145-.351-.718.05c-2.619 2.108-8.775 1.817-12.177 1.333-.111.128-.103.248-.334.384.129.111.017.239.026.359-.496-.206-.992-.412-1.71-.362-2.848.561-6.177 2.838-9.175 1.244 8.952-.987 16.585-5.37 25.307-6.221l.148-1.333.601-1.727-.221-1.428-.484-1.77 1.464-1.426-.212-1.308-.331-1.3.386-1.351-.211-1.308.729-1.615.353-1.829-.298-.821.345-1.949-.281-.582.113-1.812 1.242-1.169-1.058-1.37 1.492-2.751.514-1.239-.707-1.514.448-2.197.475-3.521-2.38 2.091-1.834 3.015-.977 1.512-1.06.315-1.019.913-.729 1.615-.668.768-2.414 1.612-1.327 1.657-1.155.682-2.252 2.203.042.598-1.036.674-1.703 1.443c-3.917.755-5.878-3.198-8.08-5.45 1.096-1.52.679-2.333 1.383-4.307.684-.529 1.121-1.161 1.686-1.682-.272-.462.54-.88.396-1.23.197-.616.695-2.094 1.079-1.76.938-3.795 1.411-5.632 2.853-9.101.411-.991.72-1.735.884-2.829.746-1.375.295-2.667 1.049-3.923.07-.726-1.27-2.677-.849-3.549l.718-.05c3.154.381 4.349 1.981 5.579 2.376l.886 2.344-.106 1.932-.489 1.599-.746 1.375-1.292.451.117 1.676-.052.966-2.519 3.544-.626 1.367-.557.641-.713 1.854-.729 1.615-1.191 1.888-1.124 2.845c.248.103.376.214.615.197.017.24.145.351.273.463 2.728-.552 17.312-10.474 18.873-13.951.078-.607.387-1.35.311-2.428 1.378-.938 1.567-1.673 3.833-1.952 2.178 1.893 4.502 2.452 5.831 5.968-1.044.554-1.823 1.451-2.483 2.339.281.582.229 1.548.014 1.924l-.437.632c-.222.256-.317.623-.164 1.094l-.342.264-.557.641c.178.829.605 1.762.296 2.505-.54.88-1.675 5.29-1.113 6.454q-.513.396-.668.768s.037 3.967.162 5.763c.009.119-.222.256-.334.384-.556.64.93 1.258.613 1.882-.103.248-.701.289-1.138.921.495.206.073 2.762.073 2.762-.351.145-.454.393-.454.393.136.231.128.111.153.47l-.64 4.616c.735.189 1.71.362 3.155.381 1.815-1.571 6.08-.786 8.902-1.705m-32.501 8.287-.239.017-.008-.12c.128.111.247.103.247.103m0 0c.727.07 1.086.044 1.59.37-.727-.069-1.094-.164-1.59-.37m-13.621 1.313c1.197-.083 2.043-.022 2.795.406-1.556.109-2.241.638-3.48.124.693-.41.47-.154.685-.53m-.866 1.384c-1.147.802-2.224.878-3.154-.381 1.317-.092 2.283-.039 3.154.381m-4.198.174.838-.059.033.479c-.743-.309-.367-.095-.871-.42m-17.682 6.89-1.225 1.409-2.65-.056-1.498.947.465-1.957 1.333.147 4.295-2.225.735.189 1.762-.604 1.284-.571 2.241-.638 1.411-.459 1.54-.349 2.43-1.372 2.976-.449.025.359-.66.888-2.182 1.476-1.89.493-1.214-.156-1.762.605-2.138.39-3.294 1.072zm16.672-5.857.846.061c.128.111.136.231.153.47-.871-.42-.615-.197-.999-.531m-24.859 9.196c-.248-.103-.162-.59-.17-.71-.034-.479.197-.615.556-.64.12-.009.488.086.744.309-.087.487-.421.871-1.13 1.041m-2.472.774c-.24.017-.607-.078-.983-.292-.153-.47.181-.855.54-.88s.718-.05 1.102.284c.042.599-.181.855-.659.888m-4.68 1.891c.12-.008.359-.025.351-.144-.059-.838-.409-.694-.674-1.036 1.308-.212 1.523-.588 2.002-.621-.206.495-.131 1.573-.849 1.623.042.599 2.171.089 2.555.423-.231.136-.617 1.487-1.113 1.281-.248-.103-.863-.301-1.342-.267l-.685.529c-.478.033-.392-.454-.537-.805-.025-.359.334-.384.292-.983m-4.799 1.9c-.008-.12-.435-1.053-.682-1.155.078-.607.813-.418.771-1.017 1.077-.075.445-.512 1.044-.554.743.309.128.111 1.127.643-.59.162-.685.529-1.283.571-.437.632-.893 2.709-.977 1.512m-10.441 7.226c.18-.855-.109-1.557 1.208-1.649-.376-.214-1.409-1.224-1.34-1.951.156-1.214 1.548-.228 1.448-1.665.606.078.478-.033.751.429.137.231-.882 1.144-.737 1.495.136.231.871.42 1.102.284.231-.137.343-.265.437-.632-.145-.351-.409-.694-.195-1.069.198-.616.053-.967.267-1.342 1.103.283.964 1.737 1.921 1.67-.581.281-1.72 1.203-1.583 1.434.119-.009.103-.248.94-.307l1.189-.203c-.042-.599-.17-.71-.546-.924-.058-.838.036-1.206.02-1.445-.025-.359-.154-.471-.555-1.044.599-.042 1.011-1.033 1.609-1.075.12-.008.36-.025.504.326l.009.119c.016.24.256.223.376.215.342-.265.693-.41.668-.769.982.292 1.486.618 1.537 1.336.025.359-.181.855-.524 1.12-1.077.075-1.027.793-1.052.434-.008-.12-.384-.334-.504-.326 0 0-.231.137-.214.376 0 0 .008.12.273.462-.719.051-1.317.092-1.292.452 0 0 .384.334.983.292-2.533 1.62-4.39 2.592-6.7 3.957m11.304-6.926c.025.359.281.582.64.557.051.718-.345 1.949-1.113 1.281-.128-.112-.128-.112-.367-.095.239-.017.514-1.239.84-1.743m63.463.976.359-.025c-.017-.24.601-1.727.456-2.077-.12.008-1.002 1.152-1.122 1.161.265.342.29.701.307.941m-31.23 21.31 2.514-.176c1.642-.596 4.329-1.746 5.818-2.812.033.478.306.941.212 1.308-2.369.527-2.586 2.587-4.067 3.773l-2.163.031c-2.558 1.261-5.621 2.197-7.7 3.425-.693.41-3.898-.689-5.164.121-.111.128-.284 1.102-.635 1.247-1.634.716-1.631-.968-2.683-.534.016.239.033.479.169.71-.111.128-3.841 1.832-3.841 1.832-4.209 1.738-15.276-1.698-17.882-2.839-2.486-1.15-4.104-5.367-5.828-7.652-2.389-3.201-6.095-6.31-7.704-10.408l.718-.05c.562 1.163-.198.615 1.255.754-.008-.12-.016-.24.095-.368-.604-1.762-1.211-1.84.286-2.786l.326-.504c.588 1.522.554 1.044 1.331 1.831-.437.632-.609 1.607-.799 2.342 1.437-.101.429-.752 1.47.378-.915.666-.684.529-.319 2.308 1.375.746 1.372 2.43 2.67 3.783 2.219 2.491 10.137 7.351 13.214 8.338 8.494 2.775 23.975-1.195 28.707-4.052m-43.273-15.018.025.359c-.846-.061-.479.034-.974-.172.359-.025.59-.162.949-.187m71.037-4.246c1.247.635.88.54 1.144.883-.453.392-.693.409-1.642.596-.025-.359-.162-.59-.307-.941.822-.298.479-.034.805-.538m-1.37 1.059c.393.453.128.111.666.915l-.479.034c-.025-.359-.17-.71-.187-.949m-2.157 1.835.685-.53.949-.186.34 1.42.034.478-.343.265-.632-.437-1.077.075zm2.539.183 1.036-.674c.119-.008.325-.504.487.086s-.44 2.317-1.439 1.785zm-3.176 2.748.796-.657.983.292.153.471-1.155.682-.042-.599-.462.273zm-2.806 1.159 1.506-.827.512.445-.762 1.136-.626 1.367-1.156.682-.796.657-.178-.829-.907.785.144.351.042.598-1.873.733-.41-.693 1.37-1.059.891-1.024c.103-.248.787-.777 1.018-.913.231-.137.78-.897 1.225-1.409m-6.806 5.889c-.033-.479.198-.616.557-.641.12-.008.487.087.743.309.034.479-.3.863-1.01 1.033-.248-.103-.281-.582-.29-.701m-2.087 1.108c.247.103.974.173.657.796-.496-.206-1.607-.609-.657-.796m-1.192 1.888-.785-.908.958-.067c-.103.248-.215.376-.326.504z"/></svg>