<svg xmlns="http://www.w3.org/2000/svg" width="1724" height="750" fill="none"><path fill="url(#a)" d="M182.799 485.229c-3.491.536-3.847.188-3.925-.606-2.461 1.183-12.895 3.189-14.481 3.433-3.258 2.918-23.25 5.988-34.202 9.282-11.586 3.391-55.062 10.069-80.5 20.02-.674-.299-2.021-.898-2.734-1.595.323-3.273-.79-1.49 2.422-1.581-.935-9.527 1.403-8.677 1.894-16.811 1.352-2.626.317-.049-1.264-3.03 1.47-1.434 1.748-1.88 4.565-2.716-3.88-3.433-.985-3.475-3.958-4.227.517-1.289.556-.892 2.065-1.929-2.177-2.487.557-.892-2.772-1.992-1.064-4.269 3.98-8.67 6.163-9.409-.35-3.572-.74-7.542.256-10.516 1.114-1.783.874-.94 4.048-1.427-.707-3.921-1.887-9.381 1.927-13.191q-1.07-1.044-3.09-1.943c1.91-3.517 3.301-5.745 3.507-10.209 2.617.404 1.982.501 4.003 1.4-.707-3.921-.868-2.285-3.401-5.119.679-2.925 1.904-.292.84-4.562 5.317-1.622 5.117-.383 3.38-4.951.751 1.093 1.742 1.344 2.772 1.992.285-3.67 1.715-5.502 3.03-8.524.634-.098.951-.147 1.23-.592-2.656-.801-1.27.195-4.048 1.427-.59-2.73-.55-2.333-.707-3.921 1.114-1.783 1.548-.64 2.7-2.026l.953-.146c-1.387-.996-4.56-.509-5.869-.711l-.952.146 3.38-4.951.317-.049c1.988-2.723 4.293-5.495 6.158-6.184-2.06-1.296-2.773-1.992-5.35-1.999-1.336-7.048 5.016-11.247 7.594-11.24-.19-5.209.09-5.655.256-10.516l1.27-.195c-1.07-1.045-2.06-1.296-2.812-2.389 1.114-1.783 1.587-.244 2.422-1.581 1.631-3.071 1.035-2.577-.19-5.209-.033-3.621 1.832-4.311 5.997-4.548-1.82-2.138-1.743-1.344-3.485-2.688 1.987-2.723 2.75-8.078 2.043-11.999 2.183-.738 3.413-1.33 4.8-.334.634-.098.951-.147 1.23-.592-2.533-2.835-.83-1.888-4.12-2.591-.395-.745-.83-1.887-1.186-2.236 2.934.356 2.656.801 5.35 1.999l-1.146-1.838c-.752-1.094.239-.843-1.387-.996l-.907-2.682c2.617.404 2.02.899 3.724 1.846.207-4.464.847-7.786.775-11.804l-.953.146c-.951.146-.395-.745-1.47 1.434-.912.544-1.23.592-2.182.739 1.158-4.611 1.398-5.453 5.919-5.342.239-.843.2-1.239.161-1.636 0 0-1.42-4.618-1.503-2.187l-.557.891c.362-2.876 1.481-7.883 4.582-12.389-2.494-2.438-2.06-1.296-3.802-2.64 2.739-1.629.596-.494 2.817-.835.574-10.565 3.803-20.329 3.385-31.144-6.34-2.25-14.943-4.556-20.766-8.094-11.63 6.219-3.369 21.471-5.134 33.025-2.121 11.205-4.143 56.243-10.462 64.064 1.503 2.187 1.069 1.045 3.207 3.134-3.14 4.109-2.64 12.494-6.81 15.955 1.03.648 2.339.85 3.051 1.546-3.452.933-2.578-.007-3.813 3.809-.518 1.289-.279.446.473 1.539.356.349.434 1.143.868 2.285-1.23.592-1.865.689-2.817.835 1.024 3.873 1.336 7.048 1.492 8.636-.479 1.686-1.943-.104-2.266 3.169-1.27.195-2.5.787-4.087 1.03.752 1.094 1.86 2.535 2.572 3.232l-2.717 11.7-4.008 1.824c1.186 2.236 1.698 4.172 2.488 5.662-1.43 1.832-3.218 3.315-4.727 4.353 0 0 2.572 3.231 1.776 4.965-.517 1.289-2.778 1.233-3.335 2.125-.122 2.033.04.396 1.303 3.426-2.305 2.772-2.11 4.757-5.723 7.326 1.308.202.317-.049 2.26.056.033 3.621 1.147 1.839-2.227 3.566 3.151 12.41-5.378 14.123-3.296 25.489-1.548.64-2.818.835-4.048 1.427 2.327 7.299.807 14.786-3.68 18.295 1.625.154.278-.445 2.299.453.195 1.985.117 1.191-.084 2.431.357.348.435 1.142.435 1.142-.635.097-1.665-.55-2.3-.453-.172 8.086-1.97 16.018-1.192 23.957.663 6.748 5.969 11.575 3.78 15.537 1.03.648 2.456 2.041 3.207 3.135 11.859-.613 22.543-9.91 39.24-10.46 2.895-.041 6.04-7.375 10.718-5.675 0 0 4.047-1.428 1.748-1.881-.318.049-.991-.25-1.704-.947 4.204.16 10.55-.814 12.855-3.586 3.252.306 1.153-1.386 2.773 1.992 6.865-2.263 8.496-5.335 11.514-7.41s11.418 1.47 17.454-2.681c3.652-2.172 8.145-8.907 11.435-8.203 5.635-1.671 4.644-1.922 5.985 1.901 16.436-9.777 25.683-14.018 38.539-17.604l2.544-3.615-.946-3.078zM87.804 334.61c.395.745.473 1.539.868 2.284l-2.221.341c-.357-.348-.435-1.142-.83-1.887.596-.495 1.23-.592 2.183-.738m-4.694 7.974c.234 2.381.117 1.191-1.904.292zm6.174 7.11c-.039-.397-.395-.745-.434-1.142-.952.146-1.27.195-2.182.738 1.308.202.356.349 2.616.404m-1.72 8.727c-.434-1.143-.83-1.888-.908-2.682-.952.147-1.586.244-2.182.738.078.794.473 1.54.868 2.285zm-12.822 7.207c.356.348.395.745.434 1.142-.317.049-1.27.195-2.183.739-.077-.794-.473-1.54-.868-2.285.635-.097 2.26.056 2.617.404m-8.369 23.045c2.3.453.991.251 2.695 1.198-.317.048-.596.494-.874.94-.952.146-1.587.244-2.817.835-.04-.396-.395-.745-.395-.745 1.152-1.386 1.23-.592 1.391-2.228m6.53 7.459c1.348.599.357.348 2.022.898l.484-4.91c-.317.049-1.91 3.517-2.505 4.012m-9.542 14.36c.395.745.83 1.887.869 2.284l-1.905.292c-.039-.396-.434-1.142-.83-1.887.636-.097 1.231-.592 1.866-.689m1.013 10.321c-2.26-.056-1.308-.202-2.617-.404 2.26.056.991.251 2.617.404m-8.156 15.356c1.503 2.187.473 1.539-.401 2.479.356.348.395.745.79 1.49l-.635.098c-.473-1.539-.59-2.73-.985-3.475.596-.495.913-.543 1.23-.592m-11.409 15.049c-1.625-.153-.952.147-2.02-.898 1.981.501.673.299 2.02.898m2.706 17.717c-.123 2.034.117 1.191-1.548.641.596-.494.913-.543 1.548-.641m-2.289 16.067c-1.625-.153-.952.146-2.299-.453 1.943.105 1.27-.195 2.3.453m-4.13 3.858c.556-.891.873-.94.478-1.685 2.3.452 1.626.153 2.656.801l-.162 1.636s-4.125.634-2.973-.752m-1.114 1.783c.039.397-.596.494-.2 1.24l-1.186-2.236c1.982.501 1.269-.195 2.338.85zm10.55-.815s-3.413 1.33-1.982-.501c-.395-.745-.078-.794.2-1.24 1.387.996.357.348 1.782 1.741m2.7-2.026c2.06 1.295 1.465 1.79 1.904-.293zm-6.475 6.233c.318-.049.991.25 1.348.599.033 3.621.751 1.093-2.266 3.168l-1.264-3.029c.913-.543 1.548-.641 2.182-.738m-6.035 4.15c.04.397-.24.843-.2 1.24-.078-.794-.474-1.539-.869-2.284 1.665.55.635-.098 2.021.898zm6.82.564c1.943.105 1.27-.194 2.339.85zm-9.014 6.623c.279-.445-.078-.794.162-1.636 1.386.996.674.299 2.138 2.089 0 0-4.087 1.031-2.3-.453m98.105 5.08c2.021.898 5.155.014 8.251-1.267-1.387-.996-2.378-1.247-3.647-1.052-1.548.641-3.057 1.678-4.604 2.319m-35.276 11.462c2.021.899.991.251 2.299.453-1.586.244-.913.543-2.299-.453m184.659-143.605c-1.548.641-3.575 2.967-5.005 4.798 2.422-1.581 5.161-3.21 8.256-4.491.357.348 3.335-2.124 6.152-2.96l.201-1.24c-4.048 1.428-7.778 2.807-9.604 3.893m-7.706 6.825c.635-.098 1.509-1.038 2.701-2.027-2.144 1.135-4.287 2.271-6.075 3.754 1.548-.641 2.779-1.233 3.374-1.727m-22.348 11.894c-1.308-.202-3.769.982-5.473.035-8.256 4.492-20.12 8.329-30.443 14.749-2.817.836-5.194-.411-7.928-2.006-5.111-2.841-7.722-6.47-15.694-5.648.545 5.557 1.525 12.257-.028 16.122l-5.535 12.536c-3.229 9.764-4.743 14.026-5.278 24.987 1.853 28.728 8.551 31.326 18.405 43.11 2.539-.39 5.078-.78 7.578-1.567l1.865-.689-.474-1.54c.045-2.827 4.844-3.161 7.901-4.839l.913-.544c1.353-2.625 4.526-3.113 4.253-5.891l-.077-.794.913-.543c2.143-1.136.957-3.371 2.427-4.806l.913-.543c.83 1.887 1.743 1.344 2.216 2.883 1.475-4.659 1.643-9.52 5.295-11.692.913-.544 1.592-3.469 2.622-2.821.557-.891.24-.843.162-1.637-.078-.793-3.291-.703-3.408-1.894s.123-2.034 1.236-3.816c1.905-.293.797-1.734 2.623-2.821 1.826-1.086 1.993-5.947 1.993-5.947.323-3.273.607-6.944.574-10.565l4.443-.682c.239-.843.796-1.734 1.391-2.229-.15-4.812-3.162-5.961-7.476-10.537-.713-.696-1.348-.599-1.743-1.344.317-.049-5.306-4.827-8.39-9.994 5.484-6.484 10.244-7.215 17.549-11.56.161-1.637 6.113-3.357 5.957-4.945 7.065-3.503 13.023-8.447 19.692-12.695-3.134.884-6.903 1.866-9.325 3.447-3.018 2.075-6.909 5.091-9.649 6.72m-46.678 23.287c-.757 2.131-1.87 3.914-1.754 5.105.078.794 1.348.599 2.973.752l.474 1.54c-.518 1.288-.401 2.479-2.266 3.168l-.078-.794c-.234-2.382-2.456-2.04-3.524-3.085.4-2.479.762-5.356 4.175-6.686m24.525 13.561c-.407 5.703-2.044 11.999-4.393 17.598-.557.892-.919 3.768-1.437 5.056-1.074 2.18-2.305 2.772-3.418 4.555-.797 1.734-1.715 5.501-2.868 6.887-5.05 7.626-11.124 11.38-16.045 13.747-1.749 1.881-5.874 2.514-10.039 2.751.212-7.689 1.097-15.078 2.974-22.216-2.021-.899.401-2.479.919-3.768.239-.842-1.108-1.441-.869-2.284s1.392-2.229 1.631-3.071c-3.012-1.149-4.676-1.7-5.033-2.048-1.107-1.441 6.982-1.072 7.221-1.915.518-1.288-.59-2.73 1.275-3.419l.797-1.734-1.103-4.666c.279-.446 3.291.703 3.53-.14 1.314-3.022 2.706-5.251 4.098-7.479 2.778-1.233 1.269-.195 2.7-2.027 11.508-4.185 12.176-.661 20.06 4.173m56.992 88.357c-.117-1.191.084-2.431-.033-3.622-.039-.397-1.069-1.044-1.503-2.186l.317-.049c1.587-.244 2.344-2.375 1.91-3.517 0 0-.078-.794-.991-.251l-.117-1.191s-1.258-6.254-1.175-8.684l.413-8.928c.634-.098.952-.147.874-.941l-.039-.397c.952-.146 1.47-1.434 1.353-2.625s-.513-1.936-.629-3.127c-.039-.397-.117-1.191.478-1.685l-.194-1.985c5.255-12.09 5.684-30.692 9.003-46.11l-.273-2.779c-1.464-1.79-2.455-2.041-2.772-1.992-.952.146-1.749 1.88-3.018 2.075-.952.147-1.626-.153-3.725-1.845.195 1.985-.005 3.224-1.592 3.468l-.317.049c1.392-2.229-.067-7.243 2.789-7.682.991.251 1.704.947 2.656.801 0 0 .317-.049.835-1.337l.952-.146c.117 1.191.473 1.539 1.108 1.441 1.269-.195 2.7-2.026 2.505-4.011l-.233-2.382c2.421-1.581 3.652-2.173 3.257-2.918-.435-1.142-1.426-1.393-2.89-3.182 1.269-.195 1.47-1.435 1.67-2.675l-.155-1.588 5.712-.877c-.195-1.985-.312-3.176-1.381-4.22l-.117-1.191c.997-2.974 3.341-5.349 2.951-9.318l-.312-3.176c2.74-1.63 3.169-20.231 6.431-26.374 7.299-1.121 3.051 1.547 14.838-3.084l1.904-.293c.078.794.751 1.094 1.386.996 8.886-1.365 15.996-7.695 22.276-15.913.829 1.888 2.85 2.786 4.12 2.591 1.904-.292 4.008-1.824 4.765-3.955l.953-.147s6.514-5.835 7.583-4.791c-.869-2.284-5.033-2.047-8.524-1.511-2.856.438-6.308 1.372-7.5 2.36l-1.586.244c-2.222.341-2.188 3.963-4.054 4.652.045-2.827-1.659-3.774-2.928-3.58-1.269.195-2.817.836-4.009 1.825l-.078-.794s-.039-.397-.356-.348c-.635.097-7.655.773-8.296 4.095-1.464-1.79-4.682 1.525-5.032-2.048-1.192.989-1.827 1.086-2.779 1.233l-5.395.828c-.952.146-2.221.341-3.769.982l1.003-6.198.996-2.974-.117-1.191c-.623-6.351 1.275-3.419 1.726-11.95l-.428-4.367.317-.049c.952-.146.913-.543.835-1.337-.117-1.191-.551-2.333-.59-2.73-.234-2.382 3.73-1.379 3.113-10.955.718-2.528 1.553-3.865 1.753-5.104.201-1.24-.551-2.333-.668-3.524-.039-.397-.117-1.191.162-1.637-1.202-15.53-9.843-18.233-11.508-18.783-3.14 4.109-6.564 34.856-6.726 36.493-.518 1.288-2.706 5.251-2.472 7.633.117 1.19.83 1.887 1.82 2.138l-.005 3.224c-2.817.836-.251 7.292-2.79 7.682l-.317.048c-.05 6.052-.251 7.292-3.046 18.198-12.142 4.283-29.513 4.533-29.513 4.533-.317.049-1.03-.648-1.386-.996.156 1.588-1.793 4.708-1.281 6.644 2.01 7.347 12.878 6.484 21.168 5.614l.634-.098c1.904-.292 2.021.899 3.608.655.317-.049 1.153-1.386 1.153-1.386l.194 1.985 1.865-.69c.953-.146 1.587-.243 1.982.502.117 1.191-.679 2.925-.64 3.322.078.794.713.696 1.665.55l-4.092 4.255c-4.638 21.666-7.005 36.938-7.957 37.085-.317.048-.835 1.337-.757 2.131.156 1.587 1.225 2.632 2.177 2.486 0 0 .634-.098.913-.543l.952-.146c.952-.147 1.626.153 1.742 1.344l.117 1.191c-2.655-.801-3.607-.655-3.607-.655-2.222.341-2.623 2.82-3.38 4.951l.117 1.191c-.913.543-.835 1.337-1.114 1.783-.556.891.396.745.435 1.142-1.571 13.539-7.188 28.505-6.765 36.096.194 1.985.629 3.127 1.38 4.22-.796 1.734.746 4.318-1.793 4.708l-.79-1.49c-.434-1.143-.752-1.094-1.743-1.345l.234 2.382c.234 2.382.267 6.003.423 7.591.234 2.382 1.581 2.981 1.62 3.378-.005 3.224-3.73 1.379-3.775 4.206q2.08 1.494 2.255 3.281c.234 2.381-1.119 5.007-.885 7.389.117 1.191.195 1.984.868 2.284.707 3.921.707 3.921 2.01 7.347 3.045 4.771 5.5 6.812 11.641 10.301m15.809-173.682c-.952.147-2.455-2.04-2.611-3.628-.117-1.191 2.779-1.233 2.506-4.012l-.117-1.19c-.585-5.955 3.491-23.505 3.976-28.414 2.538-.39 1.174 8.684-.268 16.964l-.952.147c-.445 5.306 1.291 9.875-.852 11.01-1.47 1.435-.73 8.977-1.682 9.123m49.114 149.204c1.943.105 3.808-.585 5.712-.877 1.548-.641 3.452-.933 5-1.574 2.5-.787 4.688-4.749 7.46-2.758.641-3.322 1.827-1.086 2.74-1.629 1.547-.641 2.739-1.63 4.248-2.667 1.508-1.038 3.017-2.076 4.487-3.51 2.979-2.472 5.562-5.69 7.472-9.207-3.413-21.638-25.204-33.603-39.59-39.05-.868-2.284-.156-1.587-1.225-2.632-.389-3.97.173-8.086 1.092-11.853.718-2.528 1.754-5.105 2.789-7.682.518-1.288 2.784-4.457 5.011-8.022l1.242-7.041 2.694 1.198c1.353-2.626 2.784-4.457 3.341-5.349 1.392-2.228-1.542-2.584-.15-4.812 1.943.104 3.724 1.845 5.434-.432 1.787-1.483 2.984-5.696 4.454-7.131 2.104-1.532 2.177 2.486 3.685 1.449 7.979-4.046 14.086-4.179 20.862-.787.362-2.876.083-2.43.879-4.164-1.258-6.254-18.684-19.696-24.195-20.058-1.704-.947-3.887-.209-6.308 1.372-1.509 1.037-3.575 2.966-5.284 5.244-7.271 7.967-14.431 20.349-18.958 23.462l.468 4.763-4.443.683c.752 1.093 1.464 1.789 2.533 2.834-4.615 8.768-14.632 21.589-6.125 32.774.746 4.318 2.762 8.441 6.007 11.972 1.108 1.441 2.851 2.785 4.276 4.178l3.803 2.64c5.873-2.514 7.488 4.088 10.222 5.683 2.694 1.198-.663-6.748 5.389 2.396 2.694 1.198 5.706 2.347 8.045 3.197.35 3.572.584 5.954-.49 8.134-3.664 8.622-14.136 10.23-20.918 10.063-4.442.682-11.029 2.5-13.801.508-9.437-.969-2.917-10.029-1.687-10.621 1.548-.641.395.745-.033-3.621-2.105 1.532-2.74 1.629-4.17 3.461-3.051-1.546-1.042 5.801-2.422 1.581-2.74 1.629-.162 1.636-2.94 2.869-4.577 9.165-4.276 18.789-1.626 22.815 3.647 1.051 7.293 2.103 10.862 2.361 2.299.453 4.242.557 6.503.613-1.225-2.633 1.314-3.022 7.655-.773m74.767-98.117c.557-.892 1.114-1.783 1.353-2.626-.039-.397-.556.892-1.353 2.626m-50.742 34.388c13.657-8.545 33.861-19.304 44.863-28.65-7.182 2.312-9.209 4.638-14.052 7.8-4.56-.509-23.735 10.898-30.811 20.85m-1.025-3.872c.279-.446-1.191.989-2.143 1.135-.317.048.752 1.093 1.03.647zm-9.854 11.184c2.065-1.929 5.083-4.004 8.735-6.177-2.416-1.644-5.868-.711-8.173 2.061-.083 2.431-.161 1.637-.679 2.925zm3.012 1.149c.273 2.779 3.296-2.521 5.244-5.641-1.43 1.832-3.496 3.761-5.879 5.739zm-29.029 22.591c1.503 2.187 5.038-1.176 6.391-3.802-.673-.299-1.587.244-3.134.885-.874.94-2.066 1.929-3.257 2.917m11.201 12.383c-.829-1.887-4.637-1.302-5.389-2.396.078.794 2.455 2.041 2.533 2.835zm208.231-83.962c-.585-5.955 1.369-12.299.707-19.047-.195-1.985-.351-3.573-.824-5.112-.518 1.288-.479 1.685-1.113 1.783-1.27.195-4.12-2.591-5.072-2.445l-.195-1.985c.479-1.685 1.353-2.625 3.257-2.918l-.585-5.954c-.078-.794-13.061-14.918-13.061-14.918-2.332-4.074-12.871-9.709-13.824-9.562-1.269.195-3.418 4.554-3.657 5.397l.194 1.985-7.933 1.218c-.835 1.337-.719 2.528-.602 3.719.039.397.117 1.191 1.186 2.236-6.514 5.836-13.913 19.06-17.087 19.548-2.622 2.82-8.151 12.131-7.995 13.719.117 1.191.791 1.491.869 2.285.039.397-.518 1.288-1.431 1.831l.195 1.985c-2.5.787-2.188 3.963-4.967 5.195l.156 1.588c-1.358 5.85-3.669 11.846-3.524 19.883l.233 2.382c.468 4.763-.289 6.894.178 11.658l.273 2.779c-.835 1.337-.718 2.528-.679 2.925.506 5.16 8.15 10.836 8.618 15.6.039.397.117 1.191-.122 2.033.038.397.434 1.143.434 1.143l2.9-3.267.195 1.985c.234 2.382.986 3.475 2.968 3.977l.952-.146c1.586-.244 2.021.898 3.925.606l4.125-.634c-.556.891-.401 2.479-.323 3.273.117 1.191.156 1.588.791 1.491l1.113-1.783 3.491-.536c-.117-1.191.44-2.083.757-2.131 1.587-.244 3.09 1.943 4.677 1.699 2.856-.439 10.116-1.957 11.274-6.567l1.587-.244c.356.348 1.386.996 2.021.899 1.904-.293 2.227-3.566 4.131-3.858l.952-.147-.156-1.587c-.389-3.97 1.715-5.502 3.703-8.225l.952-.146c.078.794.395.745.395.745 1.904-.293 5.523-6.087 5.289-8.469 0 0-.039-.397-.673-.299l-.195-1.985c4.086-1.031 4.966-5.195 6.598-8.266l-.741-7.543 3.491-.536c.078.794.117 1.191.752 1.094 0 0 .278-.446.2-1.24l-.117-1.191c1.709-2.277 5-1.574 4.415-7.528l-.428-4.367-1.27.195c-.434-1.142-1.225-2.632-1.38-4.22m-20.75-40.735.312 3.176-1.904.292-.312-3.175zm15.027 25.093c-1.27.195.578 9.179-2.278 9.617l-.952.147.468 4.763c-.635.098-9.744 15.6-9.582 13.963-1.96 9.569-10.584 20.162-12.488 20.454-.318.049-.357-.348-.991-.251.272 2.779-9.571 7.515-8.301 7.32l-.318.048c-.44 2.083-6.675 7.473-8.579 7.765-2.222.341-4.237-3.781-5.189-3.635-1.587.243-1.988 2.723-2.94 2.869-.317.049-.195-1.985-2.416-1.644-1.587.244-2.222.341-2.695-1.198l-1.519-15.481c-.234-2.382-.034-3.622 1.553-3.865l-.195-1.985c-.835 1.337-1.47 1.434-2.422 1.581-.952.146-1.943-.105-2.021-.899-.117-1.191.479-1.685 2.266-3.168l.156 1.587 1.904-.292-.351-3.573c5.997-4.547 3.965-21.965 11.67-28.79.117 1.191.156 1.588 1.108 1.442.284-3.67 2.823-4.06 2.907-6.491l1.119-5.007c1.91-3.517 15.049-10.773 19.141-15.028l6.82.564.156 1.588c.512 1.936 5.746 2.744 7.332 2.5l2.138 2.09c.952-.147 1.587-.244 1.782 1.741.117 1.191-.401 2.479-.245 4.067l.117 1.191c2.26.055 1.458 5.014 3.162 5.961zm-28.351 65.603c-.635.097-.835 1.337-1.314 3.022l-.952.146c-1.03-.647-1.665-.55-1.899-2.932l.635-.097c1.587-.244 1.709-2.278 2.544-3.615 2.021.899 4.042 1.797 4.432 5.767-1.347-.599-2.494-2.438-3.446-2.291m133.248-89.773c.2-1.24-.713-.697-3.051-1.546-6.386.578-9.76 2.305-12.065 5.076l.434 1.142-8.568 1.316c-.952.147-1.904.293-1.787 1.484-.323 3.273-6.704.626-7.344 3.948-2.221.342-3.173.488-3.608-.654 0 0-.117-1.191.44-2.083-.039-.397-1.069-1.044-1.069-1.044-1.141-5.063 9.192-17.933 5.245-28.609l-.434-1.143c2.739-1.629 1.281-6.643 5.089-7.228-.869-2.285-1.581-2.981-2.333-4.075 1.153-1.385 2.583-3.217 2.984-5.696-1.347-.599-1.703-.947-1.781-1.741-.156-1.588 4.526-3.113 4.092-4.255-.434-1.143-2.338-.85-2.494-2.438-.468-4.764 7.511-8.81 4.944-15.266l-.434-1.142c-1.264-3.029 2.305-2.771 1.475-4.659-.434-1.142-2.455-2.04-2.611-3.628-.078-.794 8.474-15.405 8.474-15.405-.952.146-.991-.251-1.069-1.045l-.117-1.19c-.039-.397-.356-.349-.434-1.143-.156-1.587 2.305-2.771 1.871-3.913 0 0-.635.097-1.626-.154l-.946-3.078s6.764-13.127 6.291-14.667c-.952.147-2.221.342-2.655-.801 1.191-.988 1.352-2.625 2.622-2.82l.952-.146c1.754-5.105 4.031-14.723 5.863-19.033l-.551-2.333 1.904-.293-.117-1.191c-.234-2.382 2.026-2.326 2.544-3.614l-1.141-5.063c3.58-6.191 5.417-13.727 8.958-20.315-.473-1.539-7.521-7.709-9.425-7.417l-2.539.39c-2.338-.85-3.324-4.325-4.91-4.081-.952.146-1.153 1.386-.919 3.767l.117 1.191c.156 1.588-.162 1.637-.045 2.828l.078.794c-1.431 1.831-5.445 6.88-6.558 8.663l-2.222.341c-.557.892-.44 2.083-.401 2.48.195 1.984 1.899 2.932 2.884 6.407.072 4.018-3.107 7.73-4.978 11.644l1.025 3.872c.551 2.333-4.482.285-2.706 5.251 1.381 4.22-3.78 7.431-2.678 12.097 0 0 .673.299 1.069 1.045-.479 1.685-3.859 6.636-3.859 6.636 2.244 9.73-4.56 22.46-4.209 26.033l.117 1.191c.117 1.19-.719 2.528.072 4.018.395.745.512 1.936 1.186 2.236l-1.587.243c-3.173.488-2.89 19.786-3.363 18.247-.518 1.288-1.113 1.782-1.988 2.723l-.952.146c.474 1.539 1.225 2.632 1.977 3.726-1.353 2.625-1.242 7.041-1.17 11.059 1.537 5.808-4.175 6.686-3.63 12.243l-1.904.292c.039.397.791 1.491 1.186 2.236 1.581 2.981-2.032 5.551-1.837 7.535.039.397.673.3 1.386.996l.952-.146c-.062 12.501-5.807 9.757-4.705 14.423l1.102 4.666c.435 1.142-5.968 11.393-7.716 13.274l-.635.097c-.835 1.337-.952.146-.841 4.562 1.626.153 3.33 1.1 3.563 3.482l.117 1.191c-.557.891-1.509 1.037-2.143 1.135-3.808.585-7.533-1.261-8.802-1.066-.635.098-.596.495-.596.495.317-.049 1.03.647 1.069 1.044.078.794-.201 1.24-.518 1.289-.039-.397-1.069-1.045-2.021-.899-.317.049-.557.892-.518 1.289l-1.904.292c-3.691 1.776-10.873 4.088-12.983 8.844l.434 1.142c-7.299 1.122-5.957 4.945-9.448 5.481-.952.146-1.314 3.023-1.158 4.61.233 2.382 3.886.209 5.473-.034 2.176 2.486 3.802 2.639 5.862 3.935.434 1.142.752 1.093 1.386.996.952-.147 1.865-.69 1.787-1.484.117 1.191.195 1.985.552 2.333l1.269-.195c-.239.843-.201 1.24-.201 1.24.947 3.078 8.669 9.548 13.624 10.802l.952-.146c2.221-.341 3.725 1.845 4.315 4.575-.635.098-2.762 14.528-2.723 14.925l.117 1.191c.117 1.191-.123 2.033-.006 3.224l.117 1.191c-1.269.195-1.548.641-1.47 1.435.117 1.19 1.503 2.186 1.62 3.377.039.397.117 1.191-.161 1.637l-1.27.195c-1.787 1.483-1.909 3.517-1.636 6.296.077.793.946 3.078 1.263 3.029l.635-.097.59 2.73c-3.496 3.76-7.321 14.018-5.545 18.984.434 1.142 1.063 4.269 2.015 4.123.551 2.333.707 3.921-.763 5.355-.991-.25-2.021-.898-2.338-.849-.635.097-.557.891-.44 2.082.039.397.434 1.142 1.425 1.393-.122 2.033-1.481 7.883-2.283 12.842l-.317.049c-2.472 7.632-3.436 14.228-1.264 19.938.434 1.143.629 3.127 1.698 4.172.117 1.191-3.742 7.828-2.723 14.924.952-.146 1.704.948 2.695 1.198.395.745-3.447 20.677-2.896 23.01 1.537 5.808 4.315 4.576 4.432 5.767.195 1.984-2.422 1.581-1.554 3.865.435 1.142 9.186 8.26 11.725 7.87l.952-.146c3.758 5.467 10.467 1.616 13.039 4.847 2.422-1.581 10.206-7.612 8.118-15.753l1.587-.244c-.629-3.127.723-5.752 2.628-6.045l.952-.146c-1.103-4.666.011-6.449-.184-8.434l-.039-.396c6.999-10.746 10.228-20.51 10.189-20.907-.117-1.191-2.299-.453-2.455-2.041.401-2.479 1.642-9.52 3.229-9.763l.952-.147-.59-2.73c.841-4.561 4.064-11.1 1.893-16.811-.434-1.142-.551-2.333-1.303-3.427-.116-1.191.162-1.636.758-2.131 1.069 1.045 2.934.356 1.987-2.723-.473-1.539-3.407-1.894-3.446-2.291-.078-.794 5.078-.78 3.341-5.349l-.435-1.142c-.712-.696-.751-1.093-1.146-1.838-1.147-1.839 1.313-3.023 1.436-5.056l-.117-1.191c-.039-.397-1.069-1.045-1.108-1.442q-.175-1.786.602-3.719l-2.25-6.504c-.473-1.54.284-3.671.051-6.052-.039-.397-1.225-2.633-2.177-2.487l-.318.049c.836-1.337.724-5.752-.3-9.625-1.102-4.666-3.474-9.137-4.977-11.324l-1.27.195-.512-1.936c-.551-2.333-1.62-3.377-3.123-5.564l-1.575-6.205c-.629-3.127-8.83-7.912-9.782-7.766l-.952.146c-.59-2.73-3.04-7.995-6.882-11.031 2.5-.787 4.054-4.652 3.742-7.828-.039-.397-1.108-1.442-1.821-2.138l-.155-1.588c-.195-1.985-.234-2.382-.668-3.524l-.435-1.142.952-.146c2.539-.39 5.612-11.742 6.603-11.491-.155-1.588.797-1.734.362-2.876 1.27-.195 1.704.947 2.656.801-1.063-4.27 3.497-3.761 5.245-5.641 1.308.202 3.491-.536 5.077-.78 1.904-.293 4.332-5.098 6.236-5.39 4.643-1.922 11.753-8.253 11.753-8.253 1.587-.243 2.021.899 2.973.753 2.856-.439 3.853-3.413 4.332-5.098m2.984-5.697c-1.153 1.386-.997 2.974-.245 4.067.635-.097.952-.146 1.703.947 4.132-3.858 7.661-3.997 11.397-8.6l-1.386-.996c-4.76.731-8.73 2.953-11.469 4.582m-52.675 50.803c-1.587.244-2.978 2.472-2.622 2.82.712.697 1.464 1.79 2.216 2.884.434 1.142-.162 1.636-.479 1.685l-.674-.299c-.278.445-1.152 1.385-2.104 1.532-1.904.292-2.216-2.884-6.024-2.299-2.222.341-5.596 2.069-7.817 2.41-1.904.292-3.608-.655-4.159-2.988-.59-2.73-.429-4.367 2.071-5.154l4.961-1.97c3.652-2.173 6.158-6.184 11.552-7.013 1.27-.195 3.775-4.206 5.44-3.656.473 1.539-1.041 5.801-.846 7.786l.039.397c.194 1.985.668 3.524-1.237 3.816zm8.195 30.977c2.255 3.281 4.749 5.718 8.117 7.216-.2 1.239.234 2.381.668 3.523 1.737 4.569 4.983 8.1 5.929 11.178.474 1.539.59 2.73.073 4.019 1.386.996 1.464 1.79 1.898 2.932-.395-.746.267 6.003-.768 8.58 1.586-.244 1.703.947 3.012 1.149l.952-.146c.317-.049 1.03.647 1.069 1.044.194 1.985-.001 22.968-2.423 24.549 2.222-.341 2.851 2.786 3.836 6.261-6.981 1.073-.284 3.67-3.229 9.764l.039.397c.078.794.195 1.985-.401 2.479l.434 1.142c.869 2.285-1.392 2.229-.918 3.768l1.063 4.269-.952.146.117 1.191c.039.397-4.894 9.214-4.538 9.562 0 0 .078.794.395.745.474 1.539-2.383 1.978-2.266 3.169.078.794 2.138 2.089 2.372 4.471l.117 1.191-3.174.487c-3.78 7.431-5.935 15.015-10.111 21.701l-1.904.292c-4.442.683-7.577 1.567-10.355 2.8l-.668-3.524c-.512-1.936-1.581-2.981-2.533-2.835l-.117-1.191c.952-.146 3.017-2.075 2.622-2.82l-1.659-3.775c-.395-.745.557-.891.518-1.288l-.078-.794c-.039-.397-.117-1.191.479-1.686-1.348-.598-2.021-.898-2.533-2.834 3.49-.536.05-6.052 1.798-7.932l-1.069-1.045c1.47-1.435 1.593-3.468 1.041-5.801l.952-.146c-.233-2.382.329-6.498.095-8.88-.078-.794-.117-1.191-.829-1.887l-.986-3.475c.318-.049.913-.544.835-1.337l-.039-.397c.952-.147.875-.941 1.788-1.484-.396-.745-1.465-1.79-1.504-2.187-.311-3.175 1.32-6.247.808-8.183-.473-1.539-3.185 6.937-3.574 2.967-.117-1.191-.947-3.078.005-3.224l3.174-.488c-.151-4.812-.618-9.576 1.253-13.49l-1.069-1.044c-.474-1.539 1.67-2.674 1.553-3.865-.039-.397-1.425-1.393-1.503-2.187-.039-.397-.117-1.191.479-1.685l-.752-1.094c2.856-.439 2.305-2.772 1.954-6.344-.078-.794-1.147-1.839-1.581-2.981-3.869-9.882 6.364-10.648 3.291-22.265l-1.024-3.872.952-.146c.122-2.034 2.422-1.581 2.939-2.869l-1.063-4.269c-1.141-5.064-.106-7.64.735-12.202 2.856-.439 4.359 1.748 5.824 3.538zm16.868 83.238c-1.269.195-1.386-.996-2.377-1.247.155 1.588-.797 1.734-.997 2.974 1.587-.244 2.021.898 2.973.752-.434-1.142.479-1.685.401-2.479m181.074-203.094c-3.362-4.722-9.815-11.387-13.623-10.802l-1.865.689c-1.904.293-1.342-3.823-3.246-3.531l-.952.146.195 1.985-.952.146c-.429-4.366-4.243-.557-5.228-4.032-6.664 1.024-9.983 16.442-19.82 17.953l-.401 2.48c.039.397.311 3.175-.006 3.224l-.635.098c-4.125.633-21.953 35.607-22.437 40.517l-1.587.244c-.395-.745-.434-1.142-1.069-1.045-.952.146-.646 6.547-1.481 7.884l.117 1.191c-2.461 1.183-2.071 5.153-3.937 5.842q1.128 1.64 1.303 3.427c.507 5.16-1.169 11.059-.663 16.22.351 3.572.941 6.302 3.079 8.392l.701 7.145c1.108 1.442 1.459 5.014 4.076 5.418l.311 3.176c2.138 2.089 9.549 5.384 8.597 5.53.634-.098.556-.891.874-.94 4.509 6.56 9.659 9.799 15.371 8.921 1.587-.243 2.817-.835 4.17-3.461l.952-.146c1.309.202 2.261.056 3.848-.188 8.885-1.365 16.596-11.414 22.671-15.167l.952-.147c.295-10.119 16.341-23.866 15.288-34.584l-.952.146c-1.269.195-6.759 9.903-10.884 10.537-.952.146-1.626-.153-2.656-.801.117 1.191-.122 2.034-1.074 2.18l-.713-.697c.195 1.985-.718 2.529-1.67 2.675-1.27.195-3.179 3.712-4.131 3.858l-.635.097.156 1.588c.952-.146 1.664.55 1.703.947.117 1.191-1.909 3.517-4.765 3.956-1.27.195-1.905.292-2.261-.056.874-.94 1.904-.292 1.036-2.577l-5.518 2.863c-.64 3.322-4.526 3.112-4.37 4.7.195 1.985.946 3.079.985 3.476 0 0 .078.793-.557.891-.395-.745-.395-.745-1.347-.599l-2.856.439c-.952.146-1.904.292-2.773-1.992 1.548-.641 4.482-.286 4.527-3.113l-1.231.592c-6.469 3.008-10.628.02-15.706.8-.951.146-1.981-.501-2.934-.355.078.794-.517 1.288-.952.146 0 0-.673-.299-.751-1.093-3.045-4.771-7.332-2.501-7.644-5.676-.078-.794.518-1.289.44-2.083-.039-.397-.791-1.49-.869-2.284-.389-3.97-1.854-5.759 1.209-10.662l2.505-4.012c.64-3.321 3.023-5.299 2.556-10.063l-.952.146-.117-1.19c-.234-2.382.801-4.959.568-7.341-.078-.794-.195-1.985-.59-2.73.116 1.191-.44 2.082-1.392 2.229-.318.048-.396-.745-1.03-.648l.818 8.336c-2.105 1.532-2.901 3.266-5.439 3.656l-.953.147-.272-2.779c.039.397 1.069 1.045 1.703.947 1.904-.292 3.931-2.618 3.775-4.206q-.175-1.786-1.186-2.236c-.044 2.828-1.87 3.914-4.409 4.304 1.67-2.674 4.209-3.064 3.975-5.446-.078-.794-.868-2.284-1.303-3.426 1.069 1.044 1.387.995 2.021.898 1.904-.292 1.715-5.502 4.493-6.734l.468 4.763c3.491-.536 3.418-4.554 6.197-5.787-.668-3.524-2.845-6.01-3.001-7.598 0 0 .64-3.322 2.544-3.614 1.904-.293 1.381 4.22 3.324 4.324 1.153-1.385 1.748-1.88 1.631-3.071s-2.772-1.992-2.889-3.182c-.078-.794-.078-.794.518-1.289 1.069 1.045 2.021.899 2.973.752 3.808-.584 5.289-8.468 7.477-12.431.156 1.588 1.108 1.442 1.62 3.378l.952-.146c1.826-1.087 1.236-3.817 3.458-4.158l.952-.146-.078-.794c-.273-2.779 3.652-2.173 5.361-4.45l.952-.146c3.491-.536 8.09.369 8.808-2.159l-.195-1.985 1.587-.243c1.904-.293 2.066-1.929 3.97-2.222l1.586-.243.156 1.587c.195 1.985 1.147 1.839 2.416 1.644l5.713-.877c.835-1.337 2.305-2.772 2.071-5.154 0 0-.078-.794-.83-1.887zm-55.931 53.721c1.631-3.072 5.044-4.402 4.972-8.42-2.066 1.929-4.805 3.559-4.972 8.42m25.253 50.519c-.039-.397-.117-1.191-.869-2.284 1.587-.244 1.147 1.838 1.899 2.932 1.904-.293 2.026-2.326 3.93-2.619.468 4.764-2.232 6.79-5.406 7.278-.952.146-2.577-.007-2.973-.752.045-2.828 3.769-.982 3.419-4.555m144.275-.4.952-.146c-5.545-3.984-10.333-10.099-12.459-18.637-5.762-16.039-.412-37.008.713-45.24.284-3.67-2.372-4.471-2.01-7.347l3.775-4.206c-2.611-3.629-1.804-11.812-.885-15.579 2.517-10.461 6.938-21.213 8.424-32.321.563-4.116-3.201-6.359-2.917-10.029-7.288-5.328-13.044-1.623-19.508-1.839-.318.049-.279.446-.557.891 1.581 2.981.868 2.285 2.928 3.58-.172 8.086-12.449 20.851-16.346 27.091-1.114 1.782.306 6.4-1.164 7.834-1.67 2.675-5.122 3.608-6.436 6.63-1.114 1.783-.128 5.258-1.203 7.438-.913.543-1.826 1.086-2.7 2.026-2.311 5.997-5.295 11.693-7.567 18.086-5.884 8.963-17.972 26.938-20.132 37.746l-1.904.293c-.145-8.037 1.186-20.733 4.17-26.43-2.216-2.883.201-1.239-2.494-2.437 1.509-1.038.278-.446 2.856-.439l2.561-13.288c1.431-1.831-.039-.397-1.503-2.186.874-.941 1.192-.989 3.374-1.727-.668-3.524.123-2.034-1.024-3.873 0 0-1.102-4.666.401-2.479.673.3.991.251 1.347.599.128-5.258-1.369-10.669 2.049-15.224-2.216-2.883-1.503-2.187-3.602-3.879 2.11-4.756 6.197-5.787 6.208-12.236-.434-1.142.239-.843-1.386-.996-.435-1.142-.512-1.936-.59-2.73 2.338.85 1.703.947 3.446 2.291.284-3.67.284-3.67 2.032-5.55-1.386-.996-1.386-.996-3.647-1.052.245-4.067.162-1.636 3.374-1.727-1.224-2.632-1.108-1.441-2.572-3.231l.952-.147c.401-2.479.318-.048 2.339.85-1.142-5.063-.908-2.681-3.318-7.549 3.852-3.413 4.966-5.195 8.184-8.51-.117-1.191-.195-1.985-.59-2.73-.557.891-.796 1.734-1.314 3.022l-1.904.293c.017-9.674 4.788-16.854 5.239-25.385 2.617.404 1.665.55 3.725 1.846-.156-1.588.083-2.431.245-4.068 1.431-1.831-.674-.299-2.138-2.089 2.706-5.251 11.264-46.054 9.326-49.383 1.671-2.674 5.122-3.608 5.406-7.278l-2.048-7.744c2.182-.738 3.969-2.222 6.43-3.405 4.098-7.48 2.756-11.303 2.244-13.239 3.101-4.506 3.463-7.382 6.525-12.285.836-1.337.012-6.449 1.838-7.535-1.42-4.618-.986-3.476-2.761-8.441-.357-.349-.674-.3-1.069-1.045-2.261-.056-4.204-.16-6.503-.613-.395-.745-.869-2.284-1.303-3.426l-6.898-1.359c-2.082 11.603-5.317 24.591-7.517 35.003-1.748 1.88-2.756 11.302-3.552 13.037-1.921 9.965-1.81 14.381-3.731 24.347-1.431 1.831-2.544 3.614-3.619 5.794-2.555 10.063-.551 20.635-7.266 27.71 2.294 3.678.552 2.333 3.129 2.34.189 5.21-.796 1.734-3.101 4.506 2.06 1.296 1.938 3.329 1.459 5.015-.401 2.479-.635.097-2.656-.801-.011 6.448-9.237 43.728-9.555 43.777 1.504 2.187.791 1.49 1.86 2.535l.117 1.191-2.856.438 1.893 6.157-3.174.487c1.57 9.43-4.543 12.786-3.007 18.595l-3.173.487c1.024 3.872.033 3.622 1.458 5.014-.762 5.356-3.663 8.622-5.617 14.966 1.82 2.139 2.126 8.539 1.809 8.587l-3.174.488c-.439 2.082 3.163 5.961 1.888 9.381-.874.94-3.102 4.506-3.263 6.142l1.971 6.951-2.222.341c-.757 2.131.028 6.846 1.921 13.002l-3.174.488c.468 4.763 1.565 12.654.846 15.182 6.253 7.904 8.19 11.233 17.309 12.25 1.03.648.357.349 2.339.85.974-13.044 15.049-33.741 13.992-41.235.245-4.067.913-.543 1.987-2.723 2.584-3.217 1.748-1.88.646-6.546 2.817-.836 1.231-.592 3.808-.585 6.732-16.749 23.935-35.106 29.526-56.918l1.904-.293-1.999 9.172.467 4.764-3.023 5.299-1.236 3.817 1.375 7.445-.796 1.734-1.754 5.104.15 4.813-1.319 6.247-.284 3.67-.128 5.258 3.084 5.167-2.545 3.615.863 5.508 2.929 3.58-.802 4.959 3.641 4.276 2.689 4.422 3.285 3.928 3.68 4.673-.362 2.877 6.263 1.455 5.941 4.729zM865.48 249.82c-1.185-2.235-.434-1.142-1.542-2.583.117 1.19.156 1.587.59 2.73zm10.862 25.33c-1.464-1.79-.751-1.094-1.82-2.138.039.397.473 1.539.551 2.333zm-28.997 118.085c-.713-.696-.791-1.49-.869-2.284l1.904-.293c.396.746.473 1.539 1.186 2.236zm185.375-119.94.75-2.131c-.55-2.334-1.18-5.46-2.12-8.539-.28-2.778-2.3-3.677-4.52-3.336l-1.59.244-.11-1.191c-3.21.091-3.93-.606-8.13-.766.95 3.078-.01 6.449.07 7.243l-2.08 8.378c-.24.842.12 1.191-.48 1.685l-1.31 3.022-.96.147c-1.58.243-2.41-1.644-3.84-3.037l-.47-1.539c-.83-1.887-2.38-1.247-2.85-2.786l-2.54.39c-.91.543-.16 1.637-.8 1.734l-2.379 1.978c-.317.049.434 1.142.156 1.588-.752-1.094-2.416-1.644-3.051-1.546l-.318.048-4.047 1.428.434 1.142c-.122 2.034-.88 4.165-1.754 5.105l-4.643 1.922c-4.443.682-11.653 19.117-10.935 16.589-4.248 2.667-17.538 28.079-17.148 32.049-3.808.585-3.497 3.76-5.128 6.831.952-.146 1.626.154 1.743 1.345-2.901 3.266-1.041 5.801-1.164 7.834-5.2 2.814-7.639 14.068-6.976 20.816.078.794.155 1.588.868 2.285-1.904.292-2.344 2.374-2.188 3.962.351 3.573 3.318 7.55 7.282 8.553l.117 1.19c-.596.495-.913.544-.557.892 1.186 2.235 6.536 4.234 5.584 4.381l.952-.147.312 3.176c2.5-.787.64-3.322 2.466-4.408.953-.146 1.186 2.235 2.138 2.089l2.539-.39c.039.397.752 1.094 1.704.947 7.933-1.218 3.023-5.299 5.762-6.929.117 1.191.83 1.887 1.147 1.839.635-.098.596-.495.479-1.686l-.117-1.191 1.548-.64c1.23-.592 4.376-7.925 4.493-6.735-.117-1.19-.434-1.142-1.186-2.235 1.47-1.435 6.108-.132 4.805-3.559l-.395-.745 1.787-1.483c-.078-.794.757-2.131.64-3.322l-.117-1.191.952-.146 2.194-7.187 1.03.647c.317-.048.317-.048.278-.445.039.397.396.745.396.745.952-.146 2.188-3.963 3.023-5.3l.635-.097c1.787-1.484 2.7-2.027 2.583-3.218-.156-1.588.401-2.479-.312-3.176 1.548-.64 3.378-1.727 3.418-4.554l2.43-8.03c1.59-.244 1.72-5.502 3.27-6.142l-.43 15.377c.79 1.49.31 3.176.55 5.557.15 4.813.85 11.958.93 12.752.19 1.985.67 3.524 1.38 4.22-.91.544-1.43 1.832-1 2.974 1.27 3.03 2.22 2.883 2.33 4.074.04.397-1.03 2.577-.84 4.562.24 2.382 2.42 1.643 3.52 6.31-.63.097.51 1.936.87 2.284 2.85 2.786 3.29 3.928 5.74 5.968l2.02.899c.64-.098 1.03.648 1.07 1.045s-.28.445-.24.842c.08.794.4.745 1.03.648l.64-.098c1.03.648 1.42 1.393 2.97.753l1.55-.641c.95-.146 1.31.202 1.15-1.386l-3.56-3.482c-1.47-1.79-2.02-4.123-3.72-5.07l-1.19-2.236c-.39-.745-1.35-.599-1.5-2.187.83-1.337.76-2.131.2-4.464-.51-1.936-.78-4.715-1.53-9.032l-.26-6.004c-.91-2.681.84-4.561-.63-6.351-.04-.397 1.55-.641 1.43-1.832l-.15-1.587c.32-.049 1.11-1.783.99-2.974-.11-1.191-.82-1.888-1.14-1.839 0 0-.24.843-.88.94-.95.147-1.03-.647-1.03-.647-.04-.397.52-1.289.44-2.083l-.04-.397c.88-.94 1.08-2.179.85-4.561l.55-.892c-.11-1.191-1.38-.996-1.42-1.392-.04-.397 1.54-.641 1.39-2.229l-.04-.397c1.59-.244 1.11-1.783 1.99-2.723l1.82-1.086c-.07-.794-.67-.3-1.62-.154l-.95.147c.79-1.734 1.11-5.008 1.91-6.742-.12-1.191-.12-1.191-1.07-1.044-.11-1.191-.59-2.73.33-3.274l.95-.146-.08-.794c-.12-1.191 1.35-2.625 1.31-3.022-.07-.794-1.58.243-1.78-1.741-.31-3.176 3.3-2.521 3.74-4.604l-.16-1.587c-.74-7.543 4.26-9.117 3.52-16.659-.95.146-1.74-1.344-1.86-2.535l-.12-1.191.96-.146c.04.397.35.348.35.348.64-.097 1.23-.592 1.51-1.037l-.63-3.127c2.86-.439 1-2.974 2.86-3.664l-.83-1.887-.95.146c-.63.098-1.58.244-1.7-.947 1.59-.244 1.47-1.434 1.67-2.674zm-27.51 34.848c-.87.94-1.82 1.086-1.71 2.277.64-.097.99.251.99.251.12 1.191-4.22 9.513-4.42 10.753l.12 1.191c.08.794-.201 1.239-.835 1.337 0 0-.318.048-.992-.251.039.397-.2 1.24-.2 1.24l-1.754 5.104-.952.147c-1.587.243-.88 4.164-2.149 4.359l-.913.543.59 2.73-1.904.293c.629 3.127 1.698 4.172 1.776 4.965.039.397.039.397-.278.446-.635.098-.674-.299-1.309-.202 0 0-.317.049-.278.446.078.794.156 1.588.551 2.333-.952.146-1.425-1.393-1.503-2.187-.234-2.382 1.241-7.041 1.125-8.232l-.318.049c-1.904.293-.802 4.959-4.493 6.734l.117 1.191c.078.794.117 1.191-.518 1.289.156 1.588-.763 5.355-2.032 5.55-.635.098-.991-.251-1.347-.599l-1.554 3.865c.117 1.191-12.081 14.75-13.434 17.376-1.91 3.517-3.018 2.075-5.122 3.607-1.465-1.79-1.899-2.932-2.094-4.917-.233-2.381.524-4.513 1.877-7.138l.874-.94c-.117-1.191.796-1.734.679-2.925-1.269.195-1.464-1.79-1.659-3.775l.952-.146c-.434-1.142.44-2.082 1.67-2.674-1.069-1.045-2.895.041-3.685-1.449-3.046-4.771-2.689-4.422-3.435-8.74 1.664.55 2.021.898 2.138 2.089.078.794 3.089 1.943 3.128 2.34s.435 1.142 1.309.202c.634-.097.757-2.131.757-2.131l4.203.16c-.033-3.621-.617-9.575 4.622-11.992l.634-.097c2.222-.342-1.024-3.873 1.832-4.311 3.942-9.068 8.914-17.487 13.285-22.188l-.156-1.588.952-.146c2.221-.341 1.631-3.071 2.149-4.36l.635-.097c2.221-.341 1.631-3.071 4.487-3.51l.635-.097c2.537-.39.562-4.116 3.417-4.555l.95-.146 3.62-5.794 2.62-2.821c1.99.502 2.82 2.389 2.89 3.183 1.21 12.306-8.44 22.25-6.54 21.958m-1.65 15.969c-.64.098-1.03-.648-1.15-1.839s.12-2.033 1.04-2.576c.63-.098.95-.147 1.03.647.11 1.191-.72 2.528-.6 3.719zm-13.621 31.91c.318-.049.396.745.791 1.49-.395-.745-1.108-1.441-.791-1.49m81.351 18.13c7.35-10.397 11.14-21.052 17.03-33.24 13.84-23.079 30.06-44.912 39.17-60.414 3.22-6.539 5.28-5.244 3.46-7.382l.95-.146c.68-2.925.36.348 2.02.898.32-3.273.24-.842-.71-3.92 4.37-4.701 9.73-5.927 14.1-10.628 1.75-1.88 2.03-2.326 3.5-6.985 1.82 2.139 2.66.801 4.96-1.97-.19-1.985 1.47-1.435 1.28-3.42-3.21.091-3.57-.258-5.04 1.177-4.64 1.922-16.01 17.369-20.58 23.309-16.82 22.327-33.19 42.572-49.14 70.407-2 5.948-4.02 8.274-9.51 17.982-.92.543-2.77-1.992-4.01-1.4-1.39-17.515 5.93-34.759 9.01-49.335 1.36-5.85-.1-10.864.91-17.062.84-4.562 4.46-10.356 5.26-15.315 5.69-37.14 16.42-91.976 24.8-124.694 4.74-10.802 8.81-25.127 10.02-35.789-1.22-5.857 1.72-8.726-1.09-11.115-5.39-5.62-8.71-6.72-11.77-5.043-1.27.195-2.5.787-3.45.934-2 9.171-3.69 21.519-5.85 32.328l-3.5 6.985c-.32 3.273 2.61 3.628 2.45 5.265-.43 15.377-6.8 32.474-8.89 47.301-1.4 8.677-3.77 23.95-5.21 32.23-1.96 9.569-3.92 19.138-5.6 28.261.47 4.764-2.15 4.36-1.84 7.535l-1.27 3.42c.67.299.67.299.75 1.093.27 2.779-3.23 6.539-3.07 8.127l.12 1.191c.31 3.176-1.65 9.52-1.53 10.711l.04.397c-.08 2.431-1.79 4.708-1.68 5.899l.04.397c.7 7.145-3.43 11.003-3.27 12.591l.19 1.985c.04.397.16 1.588-.16 1.637-1.11-1.442-5.28 24.987-6.86 25.231-.32.049-.24.843-.2 1.24l-.41 5.703c-2.12 11.206-3.36 18.247-4.29 28.463-.57 7.341-1.13 11.456 1.63 16.673 3.33 4.325 6.78 3.391 10.1 7.716 1.87-.689 3.73-1.378 5.64-1.671-1.07-4.269.04-2.827-1.07-4.269.21-4.464-1.25-6.254.18-8.086.95-.146 2.18-.738 3.45-.933zm37.73-239.103c2.24-10.015 6.43-23.149 6.75-26.422 2.54-.39-3.44 17.452-4.88 25.733l-.96.146c-.31.049-.63.097-.91.543m-1.62 19.59c-.95.147-2.46-2.04-2.61-3.628-.12-1.191 2.78-1.233 2.5-4.011l-.11-1.191c-.16-1.588.2-4.464 1.12-8.232.27 2.779 2.33 7.299.78 7.939-1.47 1.435-.73 8.977-1.68 9.123m-23.31 38.234.96-3.371 1.32-6.247-.07-4.018 4.86-16.06.61-6.943 1.48-4.659.13-5.258-1.47 1.434-1.96 9.569-.33 3.273-.88 4.165-3.23 12.988-1.76 5.105-.8 4.959-.84 4.561.35 3.573.71 3.921zm-2.64 15.718 1.08-5.404-.95-3.079-1.08 5.405-.44 5.306zm-3.44 14.228-.47-1.539-1.59 3.468 1.7 4.172zm-6.15 25.928 2.31-2.772 1.79-4.708.72-5.752 1.08-5.405-1.07-1.044-.12 2.033-1.67 2.675.39 7.194-2.51 4.011-1.55 3.865.7 3.921zm-1.53 13.935.83-1.337.45-5.307-2.15 7.584zm-16.34 112.514 1.48-7.883 2.51-4.011-1.88 7.138.55 5.557-2.62-.404zm120.33-162.333c-.58-5.955 5.15-19.73 4.99-21.318-.19-1.985-2.8-5.613-2.92-6.804s6.79-3.057 6.28-8.218l-.19-1.985c3.58-9.415 4.08-23.998 6.23-25.133 3.45-4.158-.34-13.246 4.15-16.756.76-2.131 2.23-3.566 1.96-6.345l-.32-3.175c-.04-.397-.11-1.191-1.18-2.236 2.58-3.217 5.77-13.378 5.58-15.363-.04-.397-.16-1.588-.59-2.73l-.12-1.191c-.31-3.176-.27-6.003-.5-8.385-.35-3.573 1.47-4.659 1.24-7.04-.27-2.78-.62-6.352-4.03-8.247l-1.03-.647c-4.16-2.988-4.48-2.94-6.34-2.25-.95.146-1.59.244-1.55.64-.95.147-1.27.196-1.19.99l.36.348c-.96.146-.88.94-.88.94.04.397-3.13.884-2.9 3.266.04.397-1.31 3.023-1.24 3.816.04.397-1.23 3.817-.91 3.768.63-.097.95-.146 1.47-1.434.47 1.539.59 2.73.66 3.523.59 5.955-1.52 7.487-1.4 8.678.04.397.16 1.588.55 2.333-2.22.341-5.17 9.659-6.06 17.048-.12 2.034.43 4.367 1.5 5.412 1.55-3.865 2.67-8.873 3.51-13.434l2.54-.39c.32-.049 1.91-.293 1.99.501.11 1.191-6.12 26.325-7.47 28.95.12 1.191-.16 1.637-.05 2.828.08.794.12 1.191.56 2.333-2.67 2.424-5.58 15.363-5.91 18.636l.16 1.588c.58 5.955-2.36 8.824-1.81 14.381l.16 1.588c-1.47 1.435-2.67 2.424-2.43 4.805l.47 1.54c-.12 2.033-3.67 15.07-6.62 21.164-1.67 2.674-10.03 45.462-9.68 49.035l.19 1.985c.04.397.12 1.191-.2 1.239-1.58.244-5.75 26.673-6.86 25.232-.32.048-.2 1.239-.16 1.636l.19 1.985c.16 1.588-3.97 5.446-3.27 12.591l.04.397c.11 1.191-1.6 3.469-1.68 5.899l.04.397c.12 1.191-1.84 7.535-1.53 10.711l.12 1.191c.16 1.588-3.34 5.348-3.07 8.127.08.794.08.794.75 1.094l.56 2.333c.31 3.175-2.15 1.135-1.68 5.898l.39 3.97c.12 1.191.23 2.382-.4 2.479.35 3.573 1.77 8.19 1.89 9.381-2.23.341-2.74 1.63-2.87 3.663l.59 2.73c-.75 2.131-4.64 5.147-4.49 6.735l1.82 5.362c-.2 1.24-3.9 3.016-3.74 4.603 0 0 3.28 3.928 6.18 3.887 1.9-.293 13.81-6.957 13.31-12.118l-.08-.794c.95-.146 1.75-1.88 1.63-3.071l-.4-.745c-.23-2.382.33-6.498.02-9.673-.47-4.764-2.06-1.296-3.24-3.531 1.9-.293 2.77-1.233 2.54-3.615l-.12-1.191c4.01-1.824 3.09-21.025 5-21.317 1.47-1.435 1.67-2.674 1.55-3.865l-.23-2.382c-.12-1.191-.24-2.382.6-3.719-.04-.397-.44-1.142-.44-1.142l-.9-2.681c1.35-2.626 3.06-4.903 3.1-7.731-.31-3.175.79-18.253 3.41-21.073-.75-1.094-.87-2.285-.95-3.079 0 0 6.57-11.888 5.98-17.842l-.47-1.539c-.23-2.382 3.58-2.967 4.61-5.544.24-.842-3.05-1.546-3.28-3.927 1.58-.244 2.67-8.873 2.67-8.873-.67-.299-.75-1.093-.79-1.49.63-.098.95-.146.87-.94l-.04-.397c4.62-8.768 4.43-13.978 5.8-26.276m-.44-86.566c-.96.146-1.71-.947-2.7-1.198.16 1.588-.16 1.636-.68 2.925 1.59-.244 2.02.898 2.97.752l-.03-.397c-.08-.794.55-.891.44-2.082m-6.79 45.769c.49-4.91 4.56-22.46 3.98-28.414l-.12-1.191c-.27-2.779 2.63-2.821 2.51-4.012-.16-1.588-1.66-3.774-2.61-3.628s-.21 7.688-1.68 9.123c-2.15 1.135 3.27 10.377-.86 11.011l-.95.146c-1.44 8.28-2.8 17.355-.27 16.965m113.28 130.081c-13.67 11.77-7.52 15.259-16.57 18.26-7.38 3.552-15.1 13.601-23.75 17.348-3.81.585-7.22 1.915-9.21 4.638l-21.58 3.314c-4.87-.46-6.8-7.013-7.31-12.174-.98-9.924 1.3-19.541.44-28.275-.23-2.381-.78-4.715-1.01-7.096-.24-2.382 2.81-.836 2.5-4.012-.04-.397-.79-1.49-.87-2.284-.11-1.191.52-1.288.84-1.337 3.81-.585 9.87 2.11 14.71 2.173-.28.446-.28.446-.2 1.24.11 1.191 1.42 1.393 3.33 1.1 5.71-.877 2.39-5.202 5.88-5.738 1.34.599 2.09 1.692 4 1.4l1.9-.293c4.13-.633 16.66-20.69 16.66-20.69-.12-1.191-.79-1.49-.91-2.681l.95-.147c2.54-.389 3.41-1.33 3.26-2.917-.08-.794-.87-2.285-.99-3.476.44-2.082 1.67-2.674 1.32-6.247.64-.097 1.03.648 1.67.551 0 0 .31-.049.24-.843-1-.251-1.43-1.393-2.18-2.486 1.51-1.038 1.79-1.484 1.67-2.675-.43-4.366-5.19-3.635-5.42-6.017-.24-2.382 2.62-2.82 2.35-5.599-.63-6.351-15.89-10.858-18.11-10.517-4.76.732-9.32 3.447-12.9 6.414l.12 1.191c-2.27 3.169-5.25 5.641-8.9 7.814l-.95.146c-2.54.39-6.08 3.754-6.92 8.315l-.24 4.067-1.91.293c-.95.146-2.02 2.326-1.98 2.723 0 0 .07.794.39.745-.6 3.719-8.87 17.884-8.91 17.487.15 1.588 2.18 2.486 2.29 3.677-.08 2.431-1.67 2.674-1.79 4.708l-.36 2.876c-1.19.989-1.63 3.071-2.83 4.06-.03-3.621 2.44-8.03 2.2-10.411-.07-.794-.43-1.143-1.46-1.79-1.99 5.947-3.74 7.827-3.27 12.591.11 1.191.23 2.382 1.02 3.872.35 3.573-3.98 5.446-3.16 13.782.35 3.573 1.22 5.857 2.17 5.711.32-.049.88-.94 1.67-2.674-.63.097-.95.146-1.06-1.045-.12-1.191 2.1-1.532 1.75-5.104-.23-2.382-.71-3.921-1.42-4.618.63-.097 1.03.648 1.03.648 3.49-.536 1.24-7.041 4.1-7.48.63-.097.75 1.094.83 1.888.35 3.572-2.24 6.79-2 9.172.12 1.191.19 1.984 1.18 2.235l.12 1.191-1.59.244c.59 5.954-.96 9.819-4.02 11.498.24-.843.83-1.337.72-2.528-.08-.794-.75-1.094-2.1-1.693-.4 2.48-2.51 4.012-2.16 7.584 4.13-.633 2.34 4.074 8.05 3.197l1.27-.195.07 4.019-1.59.243c-.24.843-.2 1.24-.04 2.828 1.09 11.115 15.51 20.183 15.55 20.58.95-.147 1.27-.195 1.15-1.386 2.29 3.677 11.45 8.315 18.11 7.292 1.59-.244 2.82-.836 3.65-2.173l3.49-.536c4.05-1.428 4.18-6.686 8.94-7.417l2.22-.341c.44-2.082 3.11-7.73 4.66-8.371l1.27-.195c6.66-1.023 1.72-8.726 6.79-9.506.96-.146 1.11 1.442 2.7 1.198 2.22-.341 4.41-4.304 4.17-6.686l-.15-1.587c2.5-4.012 9.5-11.533 11.4-11.825l.95-.147c2.63-2.82 5.17-6.434 6.72-10.3-.04-.397-.75-1.093-1.7-.947zm-70.57-36.306c.24-.843-.12-1.191-.75-1.094-.32.049-.64.098-.91.544 1.87-3.914 4.21-6.289 6.52-9.061 1.78-1.483 2.54-3.614 4.76-3.955l1.91-.293c.4-2.479 2.7-2.026 3.53-3.363-.23-2.382-2.42-1.644-2.65-4.026-.16-1.588 1.63-3.071 2.58-3.217.32-.049 1 .25 1.07 1.044l3.18-.487c.87-.94 2.42-1.581 3.69-1.776 2.85-.439 5.03 2.048 7.17 4.137l-.41 5.704c-1.12 5.007-.03 16.122-23.44 26.972-2.15 1.135-9.84 1.511-9.32.222zm2.14-1.135s.64-.098 1.55-.641c.6-3.719 2.82-4.06 3.5-6.985-.07-.794-.39-.745-1.03-.648-1.9.293-4.61 5.544-4.37 7.925.04.397.04.397.35.349m158.1-10.582c-.24-2.381-1.58-6.205-1.58-6.205l-3.24-6.755-2.22.341c-.95.146-1.9.292-2.65-.801.91-.543.91-.543.87-.94-.16-1.588-8.88-1.86-9.83-1.714-.92.543-2.39 1.978-2.9 3.266l.75 1.094c-1.91.292-1.79 1.483-3.06 1.678l-2.54.39c-1.9.293-4.36 1.476-4.13 3.858l-.63.098c-.13 2.033-5.08.78-4.81 3.558l.12 1.191c-1.08 2.18-10.37 12.473-9.87 17.633l-.31.049c-1.27.195-1.2.989-1.04 2.577l.2 1.985c.11 1.191-.13 2.033-1.08 2.18l-2.86.438c-1.9.293-2.46 1.184-2.3 2.772.08.794.08.794.51 1.936-2.85.439-2.43 4.805-3.7 5l-.95.146-4.3 8.72c-.91 3.767-8.04 19.771-11.49 20.704l6.9-24.834c-.43-4.367 5.82-16.206 5.2-22.557-.08-.794-.72-.697-.72-.697.52-1.288 2.79-4.457 2.87-3.663l-.08-.794c2.3-2.772 3.55-13.037 3.79-17.104.21-1.24.41-2.479.21-4.464-.67-.3-.87-2.284-.95-3.078-.54-5.558.34-9.723-7.11-13.414-1.34-3.823-8.28-5.578-16.53-4.311.04.397-.24.843-.2 1.239l1.59-.243c4.44-.683 5.26 7.654 6.08 15.99-.64.097-.74 12.201-1.93 13.19-.2 1.24-.08 2.431.03 3.622.08.794.51 1.936 2.18 2.486-1.52 4.262-4.67 18.044-4.67 18.044l.11 1.191c.16 1.588-.44 2.082-.24 4.067-.56 4.116-1.92 6.742-1.53 10.711l.12 1.191c-1.79 1.483-2.86 3.663-3.58 6.191l.2 1.985c.27 2.779-1.6 3.468-2.35 5.599l.07.794c.86 8.733-6.65 17.543-5.21 32.231l.04.397c-.59.494-.87.94-.8 1.734.24 2.382 3.41 5.119 5.07 5.669l.16 1.588c4.44-.683 3.02-5.3 5.36-7.675l3.49-.536c.64-.097-1.54.641-1.46 1.435l.15 1.587c.08.794.47 1.54.75 1.094 2.4-8.427 8.29-20.614 12.27-29.285l1.27-.194c.4-2.48.88-4.165 2.74-4.854l1.91-.293-.63-3.127 1.27-.195c2.42-4.805 6.59-8.266 7.67-13.671l1.16-1.385c4.89-5.99 10.5-17.731 15.19-25.705.4-2.479 10.57-13.712 12.08-14.75l.95-.146c-.11-1.191-.11-1.191.84-1.337l1.45 8.238c-2.94 2.87.73 13.992-2.21 20.085l.62 6.352c.39 3.969-2.87 6.887-2.52 10.46.24 2.382 1.11 4.666 2.17 5.711-1.67 2.674 2.04 17.417 2.08 17.814.9 5.906 9.39 23.54 11.06 24.09l.95-.146c-1.5-5.411-2.04-10.969-2.28-13.351l-.11-1.191c-.08-.794-.16-1.587.79-1.734-.04-.397 1.47-21.178 2.1-21.275.28-.446 2.58-3.218 2.51-4.012 0 0-2.06-1.295-2.18-2.486-.04-.397-.08-.794.48-1.685l-.16-1.588c2.54-.39 2.83-7.285 3.35-11.798l-.31-3.175c-.11-1.191 2.68-8.873 2.21-13.636-.08-.794-.2-1.985-.63-3.127l.04-2.828c-.11-1.191-.51-1.936-1.49-5.411l.95-.146s.52-1.289.44-2.083m118.37 96.661c-1.79 1.483-3.81.585-6.03.926-.96.146-1.99-.502-2.94-.355l-.11-1.191c-.28-2.779-2.18-2.487-2.42-4.868.32-.049 3.31-8.97 3.2-10.161-.08-.794-.4-.745-1.39-.996l-.95.146c1.07-2.18 2.82-4.06 2.59-6.442-.08-.794-.52-1.936-1.51-2.187 1.27-.195 2.15-1.135 3.06-1.678-.35-3.573-1.54-5.808-1.77-8.19-.12-1.191.4-2.479 1.55-3.865l-.31-3.176c-.35-3.572-1.37-7.445-1.8-11.811-1.33-13.497-5.07-28.637-8.11-36.633-4.81-12.96-8.64-22.446-10.41-30.636-.36-3.572 1.19-4.213 1.11-5.007-.11-1.191-1.82-2.138-1.93-3.329-.04-.397.51-1.288 1.78-1.483.08.794.76 1.093.76 1.093 1.9-.292 3.94-9.067 4.66-11.595-.64.097-.96.146-1.07-1.045l-.12-1.191c2.62-2.82 6.56-11.888 6.33-14.269l-.04-.397-.95.146c-.95.146-1.23.592-2.18.738-.64.097-.92.543-1.43 1.832l-1.91 3.516c-1.08 2.18-2.11 1.533-4.77 3.956l-.95.146c-.31-3.175-2.89-6.407-8.6-5.53-.95.147-6.69-2.597-6.5-.613l.12 1.191c-.92.543-1.87.69-1.67 2.675l.04.396-3.81.585c-3.18.488-.8 4.959-1.68 5.899-.63.098-1.66-.55-1.98-.501-5.4.828-10.7 15.745-16.02 20.592l.12 1.191-.95.147c-.84 1.337-1.08 2.179-.96 3.37s.55 2.333.59 2.73c.08.794.08.794-.24.843-.64.097-1.59.244-2.97-.752-1.56 3.865-2.07 5.153-2.04 8.775l.23 2.381-1.9.293c-1.79 1.483-6.09 13.427-6.13 13.03l-4.13.633c-1.8 7.933-7.61 20.914-9.43 22l.11 1.191c-1.67 2.674-3.53 3.364-3.1 7.731l.11 1.19-.95.147c-1.35 2.625-3.11 7.73-2.76 11.303.04.397.16 1.587.56 2.333l.95-.147.39 3.97c.11 1.191.23 2.382-.72 2.528l-.95.146c-1.79 1.484.66 6.749-1.21 7.438-.43-1.142-.27-2.779-1.54-2.584.24 2.382 1.3 3.427 1.34 3.824.12 1.191-.75 2.131-.6 3.719 1.02 10.321 15.2 17.007 15.28 17.801.04.397 1.39.996 2.34.849 1.9-.292 2.78-1.232 2.66-2.423l.95-.146c.08.794.75 1.093.75 1.093l.32-.049c.75 1.094 1.15 1.839 2.1 1.693 1.9-.293 4.21-3.064 4.01-5.049l2.22-.341c2.31-2.772 5.38-10.899 4.91-15.663l-.23-2.382c-.2-1.985.64-3.322 2.54-3.614l-.12-1.191c3.69-1.776 4.18-6.686 6.05-10.599-.95.146-1.31-.202-1.39-.996-.11-1.191.6-3.719.88-4.165l-.23-2.382.95-.146c1.51-1.038 1.67-2.674 2.19-3.963l2.51-7.235c2.23-6.791 10.83-24.229 11.79-27.599 2.19-3.963 5.66-17.794 7.88-18.135.95-.146 1.42 4.617 2.41 8.092l.95-.146c.04.397-.52 1.288-.48 1.685.19 1.985 1.82 2.139 2.05 4.52.12 1.191-.51 1.289-.28 3.67.78 7.94 3.79 9.089 4.14 12.662l.43 4.366c.47 4.764 1.65 6.999 1.77 8.19.04.397.12 1.191-.04 2.828l2.76 28.184c-.91.543-.79 1.734-.6 3.719.35 3.573 1.77 8.19 1.89 9.381.15 1.588-.72 2.528-.56 4.116l.11 1.191c-.99-.251-1.62-.153-1.62-.153-.32.048 1.82 2.138 2.05 4.519l.12 1.191c-.95.147-1.75 1.881-1.67 2.675.15 1.587 1.42 1.392 2.17 2.486-1.46 1.434-2.62 2.82-2.31 5.996l-.95.146c-.28 3.67-.88 7.389-4.69 7.974-1.91.293-3.93-.606-4.88-.46 0 0-.32.049-.28.446l1.15 1.839-3.81.585c-1.03-.648-1.7-.948-2.65-.801-1.27.195-2.74 1.629-3.58 2.966l-.95.147c-7.66 3.997-14.28 2.193-20.87 7.235-1.59.244-1.47 1.434-2.74 1.629-.95.147-1.94-.104-2.9.042-2.54.39-3.33 2.124-4.48 3.51l-2.86.439c-3.06 4.902-11.23 3.739-10.72 8.9l-2.86.438c-2.54.39-4.33 1.874-5.16 3.211l-2.22.341c-1.71 2.277-6.55 2.214-6.76 6.679l-1.9.292c-3.97 2.221-10.8 8.106-10.61 10.091l-1.9.292c-.2 1.24-.8 1.734-1.11 1.783-.64.098-.96.146-1.63-.153-1.79 1.483-4.37 4.701-4.61 5.543l-.12-1.191c-4.32 1.874-3.7 8.225-5.6 8.518-.95.146-1.31-.202-3.09-1.944-1.04 2.577-1.6 3.469-1.48 4.66.04.396.16 1.587.91 2.681 7.7-3.601 14.49-9.882 19.34-13.044.11 1.191.67.3.99.251 3.34-5.349 29.65-19.464 30.37-21.992 2.98-2.473 11.95-6.268 11-6.122l2.22-.341c.95-.146 2.62.404 3.57.258s1.19-.989 1.07-2.18l-.11-1.191.95-.146c1.75-1.88 5.96-4.944 5.32-4.847 1.91-.292 2.58.007 2.9-.042.63-.097.95-.146 2.81-.835.99.25 1.95.104 2.9-.042 5.71-.877 13.81-6.957 21.11-8.078 1.9-.292 3.25.307 5.19.411.47 4.764-1.35 5.85-1.24 7.041l.04.397c-.24.843.24 2.382-.72 2.528l-.95.146.12 1.191c.31 3.176-1.59 3.468-1.68 5.899 1.27-.195 1.95.104 1.95.104.11 1.191-1.67 2.674-1.56 3.865l1.27-.195c1.59-.243 1.87-.689 1.79-1.483-.12-1.191-.55-2.333-.59-2.73-.12-1.191.83-1.337 1.15-1.386.95-.146 1.11 1.442 1.82 2.138-1.35 2.626-.37 6.101-3.22 6.54l-2.86.438c-.48 1.686-.68 2.925-1.55 3.865l-.23-2.381-2.54.39.27 2.778c.35 3.573-2.04 8.775-2.8 10.906.28 2.779.19 5.21-.25 7.292l2.92-9.715c4.48-3.51 6.79-9.506 10.21-14.061l.95-.146c.56-.891.52-1.288.44-2.082-.04-.397-.75-1.094-.86-2.285-.12-1.191 1.47-1.434 1.35-2.625-.24-2.382-1.94-3.329-2.06-4.52-.04-.397-.04-.397.84-1.337 2.85 2.786 2.65.801 4.99 4.875.68-6.149 6.56-11.888 6.02-17.445l-.28-2.779c-.07-.794-.35-3.573.92-3.768l.12 1.191c.12 1.191.79 1.491 1.11 1.442.95-.146 1.75-1.88 3.33-2.124l.95-.146c2.23-.342 2.63-2.821 4.85-3.162l6.34-.975c-.42-4.366-2.97-.752-3.95-4.227m-31.02-135.463c-.63.097-.59.494-.83 1.337-1.32 3.022-8.33.473-7.86 5.237-1-.251-2.03-.899-2.18-2.486-.08-.794-.12-1.191.83-1.338 1.83-1.086 2.11-4.756 4.97-5.195.32-.048 1.35.599 1.98.502 2.22-.341 2.86-3.663 4.45-3.907.32-.049 1.03.648 1.39.996-3.18.487-1.6 3.468-2.43 4.805zm-10.18 14.457c0 3.225-1.91 6.742-3.75 14.277-1.16 4.61-2.39 8.427-2.99 12.146l.11 1.191c-.24.842-.83 1.337-1.15 1.385-.63.098-1.24 3.817-2.27 3.169-3.45 4.158-3.61 5.794-7 13.97l.31 3.176-1.9.292c-6.05 10.6-15.61 34.633-21.84 36.799l-2.22.341c-1.03-.648-1.7-.947-2.02-.898-1.9.292-.83-1.888-1.41-7.842l-.28-2.779c-.04-.397-.28.446-.28.446-.63.097-.67-.3-.79-1.491-.19-1.984 1.79-1.483 1.6-3.468l-.04-.397c2.94-6.093 11.26-23.086 10.75-28.246l-.07-.794.95-.147c1.75-1.88 4.17-3.461 3.74-7.827l-.12-1.191c.95-.146 1.91-.293 1.79-1.484l-.12-1.19c1.23-.592 20.12-31.297 19.49-31.2l.63-.097c2.78-1.233.85-4.562 4.65-5.147 1.91-.292 1.31 3.427 3.29 3.928l.95-.146zm54.32 120.198c-1.58.244-2.85.439-3.45.933-.87.94-1.19.989-1.07 2.18.95-.146 1.38.996 2.34.85l1.9-.293c-.08-.794-.08-.794.56-.891.31-.049 1.34.599 1.98.501.95-.146 1.19-.988 1.59-3.468-1.62-.153-2.89.042-3.85.188m-152.31 82.627c-.11-1.191.76-2.131.64-3.322-.99-.251-4.04-1.797-4.99-1.651.08.794 2.14 2.09 2.45 5.266zm-9.96 6.769c.08-2.43.92-3.768 2.5-4.011.32-.049 1.27-.195 2.3.452-.19-1.984.33-3.273.6-3.718-2.41-1.644-2.22.341-5.27-1.205.2 1.984-1.44 5.056-1.24 7.04.12 1.191.47 1.54 1.11 1.442m109.41-20.834c.56-.891 1.39-2.229 1.55-3.865zm-2.71 5.251 2.71-5.251c-1.67 2.674-3.85 3.412-3.66 5.397zm-113.9 27.568c-.44-1.142-.47-1.539-.59-2.73-.43-4.366 4.73-4.352 5.88-8.962l-.95.146c-1.59.243-3.01-1.149-3.96-1.003-.64.097-.92.543-1.43 1.831.63-.097 1.03.648 1.03.648.04.397-.92.543-1.87.689l-.95.147c-.76 2.131-.96 3.37-.84 4.561s.55 2.333.67 3.524l.15 1.588zm-5.6 5.293c-.12-1.191.75-2.131.64-3.322-.04-.397-.68-.299-1.07-1.045.08.794-.76 2.131-.64 3.322.04.397.36.349 1.07 1.045m105.39-12.561c-.08 2.431-.6 3.719-1.87 3.914-.64.098-1.59.244-2.02-.898l.23 2.382-.71-.697c-11.26 23.086-25.31 27.662-24.84 32.425-2.82.836-2.79 4.457-6.6 5.042l-.95.146c-.6 3.719-4.45 3.907-4.73 7.577l-3.17.488c-2.54.39-6.08 6.978-9.22 11.087l-1.27.195c-.12-1.191-.75-1.094-.75-1.094-2.23.341-3.74 4.603-4.3 5.495.68.299 2.06 1.295 2.82 2.389-2.54.39-5.32 1.622-5.52-.363-.04-.397.52-1.288.8-1.734-2.22.341-1.63 3.071-5.32 4.847l-.96.147c-.83 1.337-1.79 4.707-3.37 4.951-.32.049-1.03-.648-1.39-.996-2.27 3.169-3.14 4.109-4.41 4.304l-5.71.877c-.92.543-1.79 1.484-2.74 1.63-.64.097-1.67-.55-1.98-.502-1.91.293-3.42 1.33-4.1 4.255-.35-.348-1.07-1.044-1.38-.996-1.91.293-8.45 2.507-8.14 5.683-1.59.244-2.62-.404-3.69-1.449-.76 2.131-.72 2.528-2.62 2.821-3.09-1.943-6.94-1.755-12.84-2.863.46 4.764 1.53 9.033 5.37 8.845l.96-.146c.39.745 1.03.647 1.06 1.044.12 1.191-1.59 3.469-1.47 4.659 3.92.606 4.24 3.782 9.31 3.002l.96-.146c1.14 1.839 3.72 1.846 6.58 1.407 3.17-.487 5.47-3.259 7.38-3.552l.32-.048c2.74-1.63 6.3-1.372 5.84-6.136l.95-.146c1.22 2.633 3.21 3.134 5.47 3.19-.12-1.191 1.63-3.071 1.55-3.865 0 0-.36-.348-.99-.251l-.95.146c-.2-1.985.71-2.528 2.62-2.82l1.59-.244c-.52 1.288-1.44 1.832-1.24 3.816l.95-.146c1.91-.292 4.21-3.064 4.13-3.858-.15-1.588-1.22-2.632-1.3-3.426-.04-.397-.12-1.191.83-1.337.52 1.936 2.46 2.04 4.36 1.748 2.86-.439 6.23-2.166 6.08-3.754-.08-.794-.83-1.887-2.77-1.992l.95-.146c2.85-.439 3.64 1.052 5.67 1.95 1.08-8.628 6.63-7.869 14.58-15.537 3.25-2.918 9.89-10.787 9.54-14.36l.95-.146c7.76-12.877 20.75-28.17 20.43-28.121 3.06-1.678 3.11-7.73 4.98-11.644l1.91-.293c.28-3.67 6.44-13.078 10.5-17.73l.95-.147c.24-.842.2-1.239.12-2.033-.04-.397-.47-1.539-.59-2.73-.08-.794-.12-1.191.76-2.131l-.95.146c-2.43 1.581-.93 6.992-3.78 7.431zm-113.43 25.883c-.19-1.984.76-2.131.64-3.321-.95.146-1.38-.996-2.02-.899.12 1.191-.75 2.131-.72 2.528.96-.146 1.07 1.045 2.1 1.692m-17.11 35.671c-.75-1.093-1.19-2.236-1.23-2.633-.35-3.572 5.37-4.45 5.89-8.962l-.56.891c-.32.049-1.35-.599-2.02-.898l.64-.098-.08-.794c-.51-5.16 8.22-4.888 7.75-9.652l-.04-.397c-1.47 1.435-2.42 1.581-2.74 1.63l-2.54.389c-1.27.195-6.82 2.661-6.12 9.806.31-.049.31-.049.39.745 0 0-.91.543-1.86.69l-.96.146c-.75 2.131-.95 3.37-.84 4.561.12 1.191.56 2.333.67 3.524l.16 1.588zm5.68 18.469c-.12-1.19-.79-1.49-.87-2.284-.12-1.191.72-2.528.6-3.719-.16-1.588-1.3-3.426-3.21-3.134-.31.049-1.19.989-2.02 2.326l-.12-1.191c-.23-2.381-3.05-1.546-3.92-3.83.48-1.685 2.42-1.581 2.19-3.963l-.16-1.588c-3.37 1.727-7.11 6.331-6.76 9.903.9 9.131 10.54 5.635 12.48 8.964l.19 1.985c.16 1.587.59 2.73 1.55 2.583 1.58-.243 3.53-3.363 3.3-5.745l-.08-.794zm64.27-14.706c.08.794.39.745.39.745zm220.42-255.075c-13.66 11.77-7.52 15.259-16.56 18.26-7.39 3.552-15.1 13.601-23.75 17.348-3.81.585-7.22 1.915-9.21 4.638l-21.58 3.314c-4.88-.46-6.81-7.013-7.31-12.174-.98-9.924 1.3-19.541.44-28.275-.23-2.381-.78-4.715-1.02-7.096-.23-2.382 2.82-.836 2.51-4.012-.04-.397-.79-1.49-.87-2.284-.12-1.191.52-1.288.84-1.337 3.8-.585 9.87 2.11 14.7 2.173-.27.446-.27.446-.2 1.24.12 1.191 1.43 1.393 3.33 1.1 5.72-.877 2.39-5.202 5.88-5.738 1.35.599 2.1 1.692 4.01 1.4l1.9-.293c4.13-.633 16.65-20.69 16.65-20.69-.11-1.191-.79-1.49-.9-2.681l.95-.147c2.54-.389 3.41-1.33 3.25-2.917-.07-.794-.86-2.285-.98-3.476.44-2.082 1.67-2.674 1.32-6.247.63-.097 1.03.648 1.66.551 0 0 .32-.049.24-.843-.99-.251-1.42-1.393-2.17-2.486 1.5-1.038 1.78-1.484 1.67-2.675-.43-4.366-5.19-3.635-5.43-6.017-.23-2.382 2.63-2.82 2.35-5.599-.62-6.351-15.88-10.858-18.1-10.517-4.76.732-9.33 3.447-12.9 6.414l.11 1.191c-2.26 3.169-5.24 5.641-8.89 7.814l-.95.146c-2.54.39-6.08 3.753-6.92 8.315l-.24 4.067-1.91.293c-.95.146-2.03 2.326-1.99 2.723 0 0 .08.794.4.745-.6 3.719-8.88 17.884-8.91 17.487.15 1.588 2.17 2.486 2.29 3.677-.08 2.431-1.67 2.674-1.79 4.708l-.37 2.876c-1.19.989-1.63 3.071-2.82 4.06-.03-3.621 2.43-8.03 2.2-10.411-.08-.794-.43-1.143-1.46-1.79-2 5.947-3.74 7.827-3.28 12.591.12 1.191.24 2.382 1.03 3.872.35 3.573-3.98 5.446-3.16 13.782.35 3.573 1.22 5.857 2.17 5.711.32-.049.88-.94 1.67-2.674-.63.097-.95.146-1.07-1.045-.11-1.191 2.11-1.532 1.76-5.104-.24-2.382-.71-3.921-1.42-4.618.63-.097 1.03.648 1.03.648 3.49-.536 1.24-7.041 4.09-7.48.64-.097.76 1.094.83 1.888.35 3.572-2.23 6.79-1.99 9.172.11 1.191.19 1.984 1.18 2.235l.12 1.191-1.59.244c.59 5.954-.97 9.819-4.02 11.498.24-.843.83-1.337.71-2.528-.07-.794-.75-1.094-2.09-1.693-.41 2.48-2.51 4.012-2.16 7.584 4.13-.633 2.33 4.074 8.05 3.197l1.26-.195.08 4.019-1.59.243c-.24.843-.2 1.24-.04 2.828 1.09 11.115 15.51 20.183 15.55 20.58.95-.147 1.26-.195 1.15-1.386 2.29 3.677 11.44 8.315 18.11 7.292 1.59-.244 2.82-.836 3.65-2.173l3.49-.536c4.05-1.428 4.18-6.686 8.94-7.417l2.22-.341c.44-2.082 3.11-7.73 4.65-8.371l1.27-.195c6.67-1.023 1.72-8.726 6.8-9.506.95-.146 1.11 1.442 2.7 1.198 2.22-.341 4.41-4.304 4.17-6.686l-.15-1.587c2.5-4.012 9.49-11.533 11.4-11.825l.95-.147c2.62-2.82 5.17-6.434 6.72-10.3-.04-.397-.75-1.093-1.7-.947zm-70.56-36.306c.24-.843-.12-1.191-.75-1.094-.32.049-.64.098-.92.544 1.87-3.914 4.22-6.289 6.52-9.061 1.79-1.483 2.55-3.614 4.77-3.955l1.9-.293c.4-2.479 2.7-2.026 3.54-3.363-.24-2.382-2.42-1.644-2.65-4.026-.16-1.588 1.63-3.071 2.58-3.217.32-.049.99.25 1.07 1.044l3.17-.487c.88-.94 2.43-1.581 3.69-1.776 2.86-.439 5.04 2.048 7.18 4.137l-.41 5.704c-1.12 5.007-.03 16.122-23.45 26.972-2.14 1.135-9.83 1.511-9.32.222zm2.14-1.135s.64-.098 1.55-.641c.6-3.719 2.82-4.06 3.5-6.985-.08-.794-.39-.745-1.03-.648-1.9.293-4.61 5.544-4.38 7.925.04.397.04.397.36.349m95.5 86.875c1.95.104 3.81-.585 5.72-.878 1.54-.64 3.45-.933 5-1.574 2.5-.786 4.68-4.749 7.46-2.757.64-3.322 1.82-1.087 2.74-1.63 1.54-.64 2.73-1.629 4.24-2.667s3.02-2.075 4.49-3.51c2.98-2.472 5.56-5.689 7.47-9.206-3.41-21.638-25.2-33.604-39.59-39.05-.87-2.284-.15-1.588-1.22-2.633-.39-3.969.17-8.085 1.09-11.853.72-2.528 1.75-5.105 2.79-7.681.52-1.289 2.78-4.457 5.01-8.023l1.24-7.041 2.7 1.198c1.35-2.625 2.78-4.457 3.34-5.348 1.39-2.229-1.55-2.584-.15-4.813 1.94.105 3.72 1.846 5.43-.431 1.79-1.484 2.98-5.697 4.45-7.132 2.11-1.532 2.18 2.487 3.69 1.449 7.98-4.046 14.09-4.178 20.86-.786.36-2.877.08-2.431.88-4.165-1.26-6.254-18.68-19.695-24.19-20.058-1.71-.947-3.89-.209-6.31 1.372-1.51 1.038-3.58 2.967-5.29 5.244-7.27 7.967-14.43 20.349-18.95 23.462l.46 4.764-4.44.682c.75 1.093 1.46 1.79 2.53 2.835-4.61 8.767-14.63 21.588-6.12 32.773.75 4.318 2.76 8.441 6.01 11.972 1.1 1.442 2.85 2.786 4.27 4.179l3.8 2.639c5.88-2.514 7.49 4.088 10.23 5.683 2.69 1.198-.67-6.748 5.39 2.396 2.69 1.198 5.7 2.347 8.04 3.197.35 3.573.58 5.955-.49 8.134-3.66 8.622-14.14 10.23-20.92 10.063-4.44.682-11.03 2.5-13.8.508-9.44-.968-2.92-10.029-1.69-10.62 1.55-.641.4.745-.03-3.622-2.1 1.532-2.74 1.63-4.17 3.461-3.05-1.546-1.04 5.801-2.42 1.581-2.74 1.63-.16 1.637-2.94 2.869-4.58 9.165-4.28 18.79-1.63 22.815 3.65 1.052 7.3 2.104 10.87 2.361 2.29.453 4.24.558 6.5.613-1.23-2.632 1.31-3.022 7.65-.772m74.77-98.118c.56-.891 1.11-1.783 1.35-2.625-.04-.397-.55.891-1.35 2.625m-50.74 34.388c13.66-8.545 33.86-19.304 44.86-28.65-7.18 2.312-9.21 4.638-14.05 7.8-4.56-.508-23.74 10.898-30.81 20.85m-1.03-3.872c.28-.446-1.19.989-2.14 1.135-.32.049.75 1.094 1.03.648zm-9.85 11.184c2.07-1.929 5.08-4.004 8.73-6.177-2.41-1.643-5.86-.71-8.17 2.062-.08 2.43-.16 1.636-.68 2.924zm3.01 1.15c.27 2.778 3.3-2.521 5.25-5.641-1.43 1.831-3.5 3.76-5.88 5.738zm-29.03 22.591c1.51 2.187 5.04-1.177 6.39-3.802-.67-.3-1.58.243-3.13.884-.87.94-2.07 1.929-3.26 2.918m11.2 12.383c-.83-1.888-4.63-1.303-5.39-2.396.08.794 2.46 2.04 2.54 2.834z" opacity=".3"/><defs><linearGradient id="a" x1="-1639.74" x2="-1484.39" y1="-122.677" y2="1193.71" gradientUnits="userSpaceOnUse"><stop offset="1" stop-color="#C6DDFF"/><stop offset=".359" stop-color="#D2EED9"/><stop stop-color="#D8E5E7"/></linearGradient></defs></svg>