<svg width="1230" height="288" viewBox="0 0 1230 288" fill="currentColor" xmlns="http://www.w3.org/2000/svg">
<path opacity="0.3" d="M116.299 175.095C113.734 175.185 113.492 174.96 113.476 174.494C111.627 175.025 103.94 175.527 102.774 175.568C100.258 177.056 85.5677 177.569 77.4389 178.787C68.8437 180.021 36.8978 181.137 17.8991 185.302C17.4246 185.085 16.4756 184.651 15.9929 184.201C16.3941 182.32 15.494 183.285 17.8339 183.437C17.6385 177.84 19.2952 178.483 20.0651 173.787C21.1821 172.347 20.2982 173.778 19.3004 171.946C20.4419 171.205 20.6669 170.964 22.7574 170.658C20.111 168.415 22.2177 168.575 20.0947 167.949C20.5366 167.233 20.5448 167.466 21.6944 166.959C20.2383 165.376 22.1445 166.477 19.7801 165.625C19.2241 163.077 23.1149 160.84 24.7391 160.549C24.6658 158.451 24.5843 156.119 25.4601 154.454C26.3602 153.489 26.1433 153.963 28.4752 153.882C28.1605 151.558 27.5802 148.31 30.5464 146.339C30.0637 145.888 29.3479 145.447 28.3989 145.013C29.966 143.09 31.0912 141.884 31.468 139.302C33.3498 139.704 32.8834 139.72 34.3069 140.371C33.9923 138.047 33.7917 138.988 32.0943 137.179C32.7368 135.523 33.4934 137.13 32.9374 134.582C36.8852 133.977 36.6765 134.685 35.646 131.919C36.1368 132.602 36.8445 132.811 37.5604 133.253C37.9534 131.138 39.0868 130.165 40.1957 128.492C40.662 128.475 40.8952 128.467 41.1203 128.226C39.2304 127.591 40.1875 128.258 38.1052 128.798C37.815 127.174 37.8231 127.407 37.7906 126.474C38.6907 125.509 38.9483 126.201 39.8566 125.468L40.5562 125.444C39.599 124.777 37.2672 124.858 36.3263 124.658L35.6268 124.682L38.3354 122.02L38.5686 122.011C40.152 120.555 41.9686 119.091 43.3595 118.809C41.9279 117.925 41.4452 117.475 39.5716 117.307C38.9587 113.126 43.7904 111.09 45.664 111.258C45.7913 108.218 46.0163 107.977 46.385 105.162L47.3177 105.13C46.5937 104.455 45.886 104.246 45.3953 103.563C46.2954 102.597 46.5612 103.522 47.2363 102.798C48.5784 101.117 48.1202 101.366 47.3636 99.7585C47.5235 97.6517 48.9144 97.3697 51.954 97.497C50.7392 96.1386 50.7555 96.605 49.557 95.713C51.1404 94.2569 51.9673 91.1929 51.6527 88.8692C53.2768 88.5791 54.2014 88.3133 55.1585 88.9803C55.6249 88.964 55.8581 88.9559 56.0831 88.7145C54.3857 86.9061 55.576 87.5649 53.2198 86.9468C52.9703 86.4886 52.7127 85.7972 52.4714 85.5721C54.5863 85.9652 54.3613 86.2065 56.2593 87.0741L55.519 85.9326C55.0282 85.2494 55.7359 85.4581 54.5619 85.2657L54.0385 83.6497C55.9203 84.0509 55.462 84.3004 56.6524 84.9592C57.0292 82.3779 57.6636 80.488 57.8153 78.1481L57.1158 78.1725C56.4162 78.1969 56.8663 77.7143 55.9743 78.9128C55.2829 79.1704 55.0497 79.1785 54.3502 79.2029C55.4265 76.5972 55.6434 76.1227 58.9242 76.4751C59.1411 76.0006 59.133 75.7674 59.1249 75.5342C59.1249 75.5342 58.3276 72.7605 58.1433 74.1677L57.6932 74.6503C58.1025 73.0018 59.1707 70.1629 61.6543 67.7415C59.965 66.1662 60.2226 66.8576 59.0242 65.9656C61.0984 65.1928 59.4824 65.7162 61.1147 65.6592C62.0689 59.5557 64.9129 54.0867 65.1594 47.7745C60.6638 46.0637 54.5278 44.1768 50.4742 41.7503C41.7028 44.6247 46.9335 54.0141 45.0629 60.6165C42.9509 66.9939 39.1911 93.0399 34.1996 97.1831C35.1812 98.5496 34.9235 97.8582 36.3715 99.2085C33.8798 101.397 33.8176 106.302 30.6101 108.048C31.3259 108.49 32.2668 108.69 32.7494 109.141C30.1925 109.463 30.8758 108.972 29.7832 111.112C29.3412 111.828 29.5581 111.353 30.0489 112.036C30.2903 112.261 30.3065 112.728 30.5642 113.419C29.6396 113.685 29.1732 113.701 28.4737 113.726C29.0215 116.041 29.0866 117.907 29.1192 118.839C28.6854 119.788 27.7119 118.655 27.3107 120.537C26.378 120.569 25.4534 120.835 24.2875 120.876C24.7783 121.559 25.5104 122.467 25.9931 122.917L23.4229 129.544L20.4159 130.35C21.1643 131.724 21.4382 132.882 21.9372 133.799C20.8038 134.772 19.4292 135.52 18.2796 136.027C18.2796 136.027 19.9851 138.069 19.3181 139.026C18.8762 139.742 17.2358 139.566 16.7857 140.049C16.5932 141.223 16.7939 140.282 17.5585 142.123C15.7419 143.587 15.7827 144.753 13.0252 146.017C13.9661 146.217 13.2584 146.008 14.6656 146.193C14.5057 148.3 15.4059 147.334 12.8653 148.123C14.525 155.536 8.2372 155.989 9.17289 162.727C8.01512 163.001 7.08239 163.034 6.15781 163.299C7.47843 167.689 5.99273 171.943 2.55201 173.698C3.72606 173.89 2.77705 173.456 4.20057 174.107C4.24128 175.273 4.22499 174.807 4.01624 175.514C4.25757 175.739 4.27385 176.206 4.27385 176.206C3.80749 176.222 3.09166 175.78 2.62529 175.796C2.08861 180.485 0.377867 184.98 0.540725 189.644C0.679154 193.608 4.29088 196.75 2.49871 198.914C3.21454 199.356 4.17984 200.256 4.67063 200.939C13.3228 201.338 21.5626 196.614 33.7288 197.357C35.8356 197.516 38.4953 193.455 41.8087 194.74C41.8087 194.74 44.8238 194.167 43.1752 193.758C42.942 193.766 42.4675 193.549 41.9849 193.099C45.0325 193.46 49.6962 193.297 51.5128 191.833C53.8609 192.218 52.4211 191.101 53.4271 193.167C58.5327 192.288 59.8747 190.607 62.174 189.593C64.4732 188.579 70.4005 191.173 74.999 189.145C77.7646 188.114 81.3734 184.486 83.7296 185.104C87.9106 184.492 87.2029 184.283 87.9839 186.59C100.429 181.953 107.368 180.077 116.895 178.81L118.929 176.871L118.397 175.022L116.299 175.095ZM54.898 81.5185C55.1474 81.9767 55.1637 82.4431 55.4132 82.9013L53.7809 82.9583C53.5396 82.7332 53.5233 82.2669 53.2738 81.8087C53.7321 81.5592 54.1984 81.5429 54.898 81.5185ZM51.0804 85.8542C51.1293 87.2533 51.1049 86.5537 49.6814 85.903L51.0804 85.8542ZM55.2074 90.3794C55.1992 90.1462 54.9579 89.9212 54.9498 89.688C54.2502 89.7124 54.0171 89.7206 53.3257 89.9782C54.2665 90.1788 53.567 90.2032 55.2074 90.3794ZM53.5129 95.3413C53.2553 94.6499 53.0059 94.1917 52.9896 93.7254C52.29 93.7498 51.8237 93.7661 51.3654 94.0155C51.3817 94.4819 51.6312 94.9401 51.8807 95.3983L53.5129 95.3413ZM43.8252 98.7147C44.0665 98.9398 44.0746 99.1729 44.0828 99.4061C43.8496 99.4143 43.15 99.4387 42.4586 99.6963C42.4424 99.2299 42.1929 98.7717 41.9434 98.3135C42.4098 98.2972 43.5838 98.4897 43.8252 98.7147ZM36.5699 111.575C38.2184 111.985 37.2776 111.784 38.4679 112.443C38.2347 112.451 38.0097 112.692 37.7846 112.934C37.0851 112.958 36.6187 112.974 35.6942 113.24C35.686 113.007 35.4447 112.782 35.4447 112.782C36.353 112.05 36.3693 112.516 36.5699 111.575ZM40.9382 116.325C41.8872 116.759 41.1795 116.551 42.3617 116.976L42.9635 114.154C42.7303 114.162 41.3964 116.076 40.9382 116.325ZM33.2705 124.064C33.52 124.522 33.7776 125.214 33.7858 125.447L32.3867 125.496C32.3785 125.263 32.1291 124.804 31.8796 124.346C32.346 124.33 32.8042 124.08 33.2705 124.064ZM33.4823 130.127C31.8418 129.951 32.5414 129.926 31.6005 129.726C33.2409 129.902 32.3082 129.934 33.4823 130.127ZM26.7718 138.533C27.7534 139.899 27.0376 139.457 26.3543 139.948C26.5956 140.173 26.6038 140.406 26.8532 140.864L26.3869 140.881C26.1211 139.956 26.0967 139.257 25.8472 138.798C26.3055 138.549 26.5386 138.541 26.7718 138.533ZM17.7133 146.553C16.5392 146.361 17.0137 146.578 16.2897 145.903C17.7051 146.32 16.7642 146.119 17.7133 146.553ZM18.7792 157.022C18.5868 158.196 18.8037 157.722 17.6215 157.296C18.0797 157.046 18.3129 157.038 18.7792 157.022ZM16.2986 166.214C15.1246 166.021 15.5991 166.238 14.6501 165.804C16.0573 165.989 15.5828 165.772 16.2986 166.214ZM13.0992 168.193C13.5493 167.711 13.7825 167.702 13.533 167.244C15.1816 167.654 14.7071 167.437 15.4229 167.879L15.2223 168.82C15.2223 168.82 12.1909 168.925 13.0992 168.193ZM12.1991 169.159C12.2072 169.392 11.7408 169.408 11.9903 169.866L11.2419 168.492C12.6573 168.909 12.1746 168.459 12.8986 169.134L12.1991 169.159ZM19.9104 169.356C19.9104 169.356 17.3616 169.912 18.495 168.939C18.2455 168.48 18.4787 168.472 18.7037 168.231C19.6609 168.898 18.9451 168.456 19.9104 169.356ZM21.9764 168.35C23.4081 169.234 22.9499 169.484 23.3755 168.301L21.9764 168.35ZM16.9523 171.561C17.1855 171.553 17.66 171.769 17.9013 171.994C17.7414 174.101 18.3921 172.678 16.0928 173.692L15.3281 171.851C16.0196 171.593 16.4859 171.577 16.9523 171.561ZM12.3538 173.589C12.3619 173.822 12.1369 174.064 12.145 174.297C12.1287 173.83 11.8793 173.372 11.6298 172.914C12.812 173.34 12.0962 172.898 13.0533 173.565L12.3538 173.589ZM17.2832 174.351C18.6904 174.535 18.2159 174.318 18.9399 174.993L17.2832 174.351ZM10.3936 177.626C10.6186 177.385 10.3773 177.16 10.5942 176.686C11.5513 177.352 11.0687 176.902 12.0421 178.036C12.0421 178.036 9.01891 178.375 10.3936 177.626ZM81.4548 186.818C82.8783 187.469 85.202 187.154 87.5175 186.606C86.5604 185.939 85.8527 185.731 84.9199 185.763C83.7622 186.037 82.6126 186.544 81.4548 186.818ZM55.2274 191.236C56.6509 191.887 55.9351 191.445 56.876 191.645C55.71 191.686 56.1846 191.903 55.2274 191.236ZM196.772 119.522C195.614 119.796 194.022 121.019 192.889 121.992C194.73 121.227 196.804 120.455 199.12 119.907C199.361 120.132 201.652 118.885 203.743 118.578L203.951 117.87C200.936 118.443 198.154 119.007 196.772 119.522ZM190.823 122.998C191.289 122.982 191.973 122.491 192.889 121.992C191.273 122.516 189.657 123.039 188.282 123.787C189.44 123.513 190.365 123.248 190.823 122.998ZM173.972 128.489C173.031 128.289 171.182 128.82 169.991 128.161C163.761 130.247 154.94 131.722 147.11 134.797C145.019 135.104 143.355 134.228 141.448 133.127C137.877 131.151 136.164 128.876 130.326 128.846C130.44 132.111 130.812 136.067 129.486 138.214L124.825 145.147C121.981 150.617 120.663 152.997 119.717 159.334C119.604 176.147 124.341 178.083 130.906 185.558C132.771 185.493 134.636 185.428 136.494 185.13L137.885 184.848L137.619 183.923C137.795 182.283 141.301 182.394 143.608 181.613L144.3 181.355C145.417 179.915 147.749 179.834 147.692 178.202L147.675 177.735L148.367 177.478C149.983 176.954 149.234 175.58 150.376 174.839L151.067 174.582C151.574 175.731 152.266 175.474 152.532 176.398C153.841 173.784 154.21 170.97 156.975 169.94C157.667 169.682 158.309 168.025 159.025 168.467C159.475 167.984 159.242 167.993 159.226 167.526C159.209 167.06 156.869 166.908 156.845 166.209C156.821 165.509 157.037 165.035 157.938 164.069C159.337 164.02 158.605 163.112 159.987 162.597C161.37 162.082 161.739 159.267 161.739 159.267C162.14 157.385 162.533 155.271 162.693 153.164L165.958 153.05C166.175 152.575 166.625 152.093 167.083 151.843C167.218 149.037 165.087 148.177 162.183 145.244C161.7 144.794 161.234 144.81 160.985 144.352C161.218 144.344 157.373 141.209 155.393 138.01C159.71 134.591 163.208 134.468 168.739 132.408C168.939 131.467 173.354 130.846 173.321 129.913C178.635 128.327 183.218 125.832 188.282 123.787C185.959 124.102 183.169 124.433 181.328 125.197C179.028 126.212 176.046 127.717 173.972 128.489ZM138.854 139.054C138.195 140.245 137.295 141.21 137.319 141.91C137.335 142.376 138.268 142.343 139.442 142.536L139.708 143.46C139.266 144.176 139.291 144.876 137.9 145.158L137.883 144.691C137.834 143.292 136.202 143.349 135.478 142.674C135.896 141.259 136.305 139.61 138.854 139.054ZM155.993 148.495C155.407 151.784 153.897 155.339 151.905 158.443C151.454 158.926 151.045 160.574 150.603 161.29C149.711 162.489 148.787 162.755 147.886 163.72C147.219 164.677 146.36 166.808 145.452 167.54C141.393 171.651 136.786 173.446 133.088 174.509C131.721 175.491 128.69 175.597 125.65 175.469C126.195 171.014 127.215 166.776 128.942 162.747C127.518 162.096 129.359 161.332 129.801 160.616C130.018 160.141 129.069 159.708 129.286 159.233C129.503 158.759 130.411 158.027 130.628 157.552C128.497 156.693 127.315 156.267 127.073 156.042C126.341 155.134 132.203 155.863 132.42 155.388C132.862 154.672 132.13 153.764 133.521 153.482L134.188 152.525L133.624 149.743C133.849 149.502 135.98 150.361 136.197 149.887C137.306 148.214 138.431 147.007 139.556 145.8C141.639 145.261 140.489 145.768 141.622 144.794C150.201 143.094 150.508 145.184 155.993 148.495ZM192.933 203.47C192.908 202.771 193.117 202.063 193.093 201.364C193.084 201.13 192.369 200.688 192.111 199.997L192.344 199.989C193.51 199.948 194.169 198.758 193.911 198.066C193.911 198.066 193.895 197.6 193.204 197.858L193.179 197.158C193.179 197.158 192.583 193.443 192.767 192.036L193.52 186.874C193.987 186.857 194.22 186.849 194.204 186.383L194.196 186.15C194.895 186.125 195.337 185.409 195.313 184.71C195.288 184.01 195.039 183.552 195.014 182.853C195.006 182.619 194.99 182.153 195.448 181.904L195.407 180.738C199.843 174.046 201.101 163.262 204.297 154.512L204.24 152.88C203.267 151.747 202.559 151.538 202.326 151.546C201.626 151.571 200.959 152.528 200.027 152.56C199.327 152.585 198.853 152.368 197.413 151.251C197.453 152.417 197.245 153.124 196.079 153.165L195.846 153.173C196.971 151.967 196.165 148.96 198.264 148.887C198.972 149.095 199.454 149.545 200.154 149.521C200.154 149.521 200.387 149.513 200.829 148.797L201.529 148.773C201.553 149.472 201.794 149.697 202.261 149.681C203.193 149.648 204.327 148.675 204.286 147.509L204.237 146.11C206.078 145.345 207.003 145.079 206.753 144.621C206.496 143.93 205.788 143.721 204.815 142.588C205.747 142.555 205.956 141.847 206.165 141.14L206.132 140.207L210.33 140.06C210.289 138.894 210.264 138.195 209.54 137.52L209.516 136.82C210.392 135.155 212.216 133.924 212.135 131.593L212.07 129.727C214.144 128.954 215.402 118.171 218.086 114.809C223.449 114.621 220.225 115.901 229.029 113.96L230.428 113.911C230.445 114.377 230.919 114.594 231.385 114.578C237.915 114.35 243.405 111.123 248.388 106.746C248.896 107.896 250.319 108.547 251.252 108.514C252.651 108.465 254.259 107.709 254.918 106.518L255.617 106.494C255.617 106.494 260.649 103.517 261.373 104.192C260.858 102.809 257.819 102.682 255.254 102.771C253.155 102.845 250.598 103.167 249.682 103.666L248.516 103.707C246.884 103.764 246.724 105.871 245.333 106.153C245.509 104.512 244.319 103.854 243.386 103.886C242.453 103.919 241.295 104.193 240.379 104.692L240.363 104.225C240.363 104.225 240.354 103.992 240.121 104C239.655 104.016 234.517 103.962 233.882 105.852C232.909 104.719 230.401 106.441 230.328 104.342C229.411 104.841 228.945 104.857 228.245 104.882L224.281 105.02C223.582 105.045 222.649 105.077 221.491 105.351L222.535 101.813L223.411 100.148L223.386 99.4483C223.256 95.7174 224.487 97.5421 225.249 92.6127L225.159 90.0477L225.392 90.0396C226.092 90.0152 226.084 89.782 226.067 89.3156C226.043 88.6161 225.785 87.9247 225.777 87.6915C225.728 86.2924 228.559 87.1274 228.597 81.5229C229.248 80.0994 229.923 79.3754 230.131 78.6677C230.34 77.96 229.849 77.2768 229.825 76.5772C229.817 76.344 229.801 75.8777 230.026 75.6364C229.941 66.5341 223.797 64.414 222.615 63.9884C220.123 66.1766 216.07 83.8281 215.87 84.7689C215.428 85.4848 213.635 87.6485 213.684 89.0476C213.709 89.7472 214.191 90.1973 214.899 90.406L214.731 92.2796C212.641 92.5861 214.178 96.5013 212.313 96.5665L212.079 96.5746C211.735 100.089 211.527 100.796 208.94 106.957C199.895 108.673 187.254 107.714 187.254 107.714C187.021 107.722 186.538 107.272 186.297 107.047C186.33 107.98 184.754 109.669 185.028 110.827C186.116 115.225 194.06 115.414 200.131 115.436L200.597 115.419C201.996 115.371 202.021 116.07 203.187 116.029C203.42 116.021 204.095 115.297 204.095 115.297L204.136 116.463L205.527 116.181C206.226 116.157 206.693 116.14 206.942 116.599C206.966 117.298 206.3 118.255 206.308 118.488C206.324 118.955 206.79 118.939 207.49 118.914L204.299 121.127C199.825 133.423 197.328 142.149 196.629 142.173C196.396 142.181 195.954 142.897 195.97 143.363C196.003 144.296 196.726 144.971 197.426 144.947C197.426 144.947 197.892 144.931 198.117 144.689L198.817 144.665C199.517 144.64 199.991 144.857 200.015 145.557L200.04 146.256C198.15 145.622 197.45 145.646 197.45 145.646C195.818 145.703 195.401 147.119 194.742 148.309L194.766 149.009C194.075 149.266 194.091 149.733 193.866 149.974C193.416 150.457 194.116 150.432 194.124 150.665C192.294 158.434 187.449 166.774 187.37 171.213C187.411 172.379 187.669 173.07 188.159 173.753C187.493 174.71 188.482 176.31 186.617 176.375L186.118 175.459C185.86 174.767 185.627 174.776 184.919 174.567L184.968 175.966C185.017 177.365 184.857 179.472 184.89 180.405C184.939 181.804 185.888 182.237 185.896 182.471C185.728 184.344 183.114 183.035 182.938 184.675C183.895 185.342 184.386 186.025 184.41 186.725C184.459 188.124 183.342 189.564 183.391 190.963C183.415 191.662 183.431 192.129 183.906 192.346C184.221 194.669 184.221 194.669 184.993 196.744C186.965 199.71 188.646 201.052 192.933 203.47ZM213.256 103.537C212.557 103.562 211.575 102.195 211.543 101.263C211.518 100.563 213.625 100.723 213.568 99.0907L213.544 98.3912C213.422 94.8935 217.277 84.9533 217.879 82.1307C219.744 82.0655 218.291 87.2525 216.822 91.9731L216.122 91.9976C215.528 95.0534 216.559 97.819 214.943 98.3423C213.801 99.0826 213.956 103.513 213.256 103.537ZM241.375 193.374C242.782 193.558 244.173 193.276 245.572 193.227C246.73 192.953 248.129 192.905 249.286 192.631C251.144 192.332 252.936 190.169 254.85 191.503C255.485 189.613 256.233 190.987 256.924 190.73C258.082 190.456 258.999 189.957 260.148 189.45C261.298 188.943 262.447 188.436 263.589 187.695C265.88 186.448 267.922 184.742 269.489 182.82C268.108 170.028 252.875 161.688 242.694 157.608C242.178 156.225 242.661 156.675 241.937 156C241.856 153.668 242.474 151.312 243.333 149.18C243.984 147.757 244.868 146.325 245.752 144.894C246.194 144.178 248.002 142.48 249.802 140.55L251.063 136.537L252.961 137.404C254.078 135.965 255.211 134.991 255.661 134.508C256.787 133.302 254.672 132.909 255.797 131.702C257.204 131.886 258.411 133.012 259.769 131.797C261.144 131.048 262.228 128.676 263.37 127.936C264.978 127.179 264.826 129.519 265.976 129.012C271.981 127.168 276.428 127.48 281.181 129.882C281.591 128.233 281.366 128.475 282.032 127.517C281.436 123.803 269.451 114.883 265.463 114.322C264.272 113.663 262.648 113.953 260.807 114.718C259.657 115.225 258.058 116.214 256.699 117.429C251.008 121.597 245.174 128.338 241.725 129.859L241.822 132.657L238.558 132.771C239.049 133.454 239.531 133.904 240.255 134.58C236.454 139.382 228.521 146.196 234.136 153.237C234.459 155.794 235.714 158.318 237.895 160.577C238.627 161.485 239.825 162.377 240.79 163.277L243.421 165.053C247.818 163.966 248.656 167.905 250.563 169.006C252.461 169.874 250.424 165.042 254.359 170.741C256.257 171.609 258.388 172.468 260.045 173.111C260.118 175.209 260.167 176.608 259.275 177.807C256.173 182.585 248.478 182.853 243.557 182.325C240.292 182.439 235.412 183.076 233.497 181.742C226.686 180.579 231.887 175.728 232.811 175.463C233.969 175.189 233.061 175.921 232.971 173.356C231.363 174.112 230.897 174.129 229.764 175.102C227.624 174.009 228.712 178.407 227.923 175.867C225.848 176.64 227.722 176.808 225.64 177.347C221.846 182.383 221.576 187.995 223.297 190.503C225.895 191.346 228.493 192.189 231.074 192.566C232.722 192.976 234.13 193.16 235.77 193.336C235.013 191.728 236.879 191.663 241.375 193.374ZM300.717 141.106C301.167 140.624 301.618 140.141 301.834 139.667C301.826 139.433 301.384 140.149 300.717 141.106ZM262.08 157.864C272.443 153.767 287.678 148.799 296.151 144.067C290.813 144.954 289.221 146.177 285.539 147.707C282.25 147.121 267.731 152.531 262.08 157.864ZM261.532 155.549C261.758 155.308 260.616 156.048 259.917 156.072C259.683 156.08 260.407 156.755 260.632 156.514L261.532 155.549ZM253.8 161.422C255.399 160.432 257.699 159.418 260.464 158.388C258.791 157.279 256.234 157.602 254.418 159.066C254.234 160.473 254.217 160.007 253.775 160.723L253.8 161.422ZM255.931 162.282C255.988 163.914 258.455 161.026 260.031 159.337C258.897 160.31 257.297 161.3 255.465 162.298L255.931 162.282ZM233.679 173.565C234.66 174.931 237.402 173.201 238.519 171.761C238.044 171.544 237.353 171.802 236.195 172.076C235.512 172.567 234.595 173.066 233.679 173.565ZM241.192 181.473C240.685 180.324 237.887 180.422 237.396 179.738C237.413 180.205 239.077 181.08 239.094 181.547L241.192 181.473ZM396.84 145.921C396.718 142.423 398.461 138.86 398.323 134.896C398.282 133.73 398.25 132.798 397.984 131.873C397.542 132.589 397.55 132.822 397.084 132.838C396.151 132.871 394.22 131.071 393.521 131.095L393.48 129.929C393.914 128.98 394.597 128.489 395.996 128.441L395.874 124.943C395.858 124.476 387.137 115.442 387.137 115.442C385.649 112.926 378.274 108.981 377.574 109.006C376.641 109.038 374.857 111.435 374.64 111.91L374.681 113.076L368.852 113.279C368.176 114.003 368.201 114.703 368.225 115.402C368.233 115.636 368.25 116.102 368.974 116.777C363.941 119.754 357.89 126.97 355.558 127.051C353.508 128.523 349.016 133.583 349.048 134.516C349.073 135.215 349.547 135.432 349.563 135.899C349.572 136.132 349.121 136.614 348.43 136.872L348.471 138.038C346.613 138.336 346.679 140.202 344.596 140.741L344.629 141.674C343.344 144.988 341.359 148.325 341.056 153.005L341.104 154.404C341.202 157.203 340.543 158.393 340.641 161.191L340.698 162.823C340.023 163.547 340.047 164.247 340.056 164.48C340.161 167.511 345.43 171.296 345.528 174.095C345.536 174.328 345.552 174.794 345.335 175.269C345.343 175.502 345.593 175.96 345.593 175.96L347.867 174.246L347.908 175.412C347.957 176.811 348.448 177.495 349.863 177.912L350.563 177.888C351.729 177.847 351.986 178.538 353.385 178.489L356.417 178.384C355.967 178.866 355.999 179.799 356.016 180.265C356.04 180.965 356.048 181.198 356.514 181.182L357.415 180.216L359.98 180.127C359.955 179.427 360.405 178.945 360.638 178.937C361.804 178.896 362.786 180.262 363.952 180.222C366.05 180.148 371.406 179.728 372.482 177.122L373.648 177.081C373.889 177.307 374.605 177.748 375.071 177.732C376.47 177.683 376.872 175.802 378.271 175.753L378.97 175.728L378.938 174.796C378.856 172.464 380.464 171.707 382.047 170.251L382.747 170.227C382.763 170.693 382.996 170.685 382.996 170.685C384.396 170.636 387.321 167.499 387.272 166.1C387.272 166.1 387.264 165.867 386.798 165.883L386.757 164.717C389.78 164.378 390.632 162.014 391.974 160.332L391.819 155.902L394.384 155.812C394.4 156.279 394.408 156.512 394.875 156.496C394.875 156.496 395.1 156.254 395.083 155.788L395.059 155.088C396.417 153.874 398.774 154.492 398.651 150.994L398.562 148.429L397.629 148.462C397.372 147.77 396.873 146.854 396.84 145.921ZM383.827 120.928L383.892 122.793L382.493 122.842L382.428 120.976L383.827 120.928ZM393.475 136.466C392.542 136.499 393.429 141.838 391.33 141.911L390.631 141.935L390.729 144.734C390.262 144.75 382.852 153.18 383.053 152.239C381.141 157.676 374.333 163.283 372.934 163.332C372.701 163.34 372.693 163.107 372.226 163.123C372.283 164.755 364.887 166.881 365.82 166.849L365.586 166.857C365.161 168.039 360.353 170.775 358.954 170.824C357.322 170.881 356.067 168.357 355.367 168.381C354.201 168.422 353.784 169.837 353.084 169.862C352.851 169.87 353.043 168.696 351.411 168.753C350.245 168.794 349.779 168.81 349.513 167.885L349.195 158.791C349.147 157.392 349.355 156.684 350.521 156.644L350.481 155.478C349.805 156.202 349.339 156.218 348.64 156.242C347.94 156.267 347.232 156.058 347.216 155.592C347.192 154.892 347.65 154.643 349.024 153.894L349.057 154.827L350.456 154.778L350.383 152.68C354.973 150.418 354.382 140.166 360.33 136.69C360.355 137.39 360.363 137.623 361.063 137.598C361.456 135.483 363.321 135.418 363.505 134.011L364.574 131.172C366.141 129.25 376.062 125.868 379.253 123.655L384.182 124.417L384.215 125.35C384.489 126.508 388.252 127.31 389.418 127.269L390.866 128.62C391.566 128.595 392.032 128.579 392.073 129.745C392.097 130.444 391.655 131.16 391.688 132.093L391.712 132.793C393.353 132.969 392.518 135.799 393.708 136.458L393.475 136.466ZM369.529 172.789C369.063 172.806 368.854 173.513 368.42 174.462L367.72 174.487C367.005 174.045 366.538 174.061 366.489 172.662L366.956 172.646C368.122 172.605 368.314 171.431 368.989 170.707C370.413 171.358 371.836 172.008 371.918 174.34C370.969 173.907 370.228 172.765 369.529 172.789ZM470.962 129.091C471.17 128.384 470.479 128.641 468.822 127.999C464.15 127.928 461.61 128.717 459.793 130.182L460.051 130.873L453.755 131.093C453.055 131.117 452.356 131.142 452.38 131.841C451.979 133.723 447.475 131.779 446.841 133.669C445.209 133.726 444.509 133.75 444.251 133.059C444.251 133.059 444.227 132.359 444.677 131.877C444.669 131.644 443.953 131.202 443.953 131.202C443.381 128.187 451.547 121.364 449.221 114.909L448.963 114.217C451.037 113.444 450.232 110.437 453.03 110.34C452.515 108.957 452.032 108.507 451.542 107.824C452.45 107.091 453.583 106.118 454.001 104.703C453.052 104.269 452.81 104.044 452.794 103.577C452.761 102.645 456.243 102.056 455.985 101.365C455.728 100.673 454.329 100.722 454.296 99.7895C454.198 96.9913 460.204 95.1473 458.667 91.2321L458.409 90.5407C457.644 88.6997 460.226 89.0765 459.718 87.9269C459.461 87.2355 458.037 86.5848 458.005 85.652C457.988 85.1857 464.948 77.2382 464.948 77.2382C464.249 77.2627 464.241 77.0295 464.224 76.5631L464.2 75.8636C464.192 75.6304 463.959 75.6385 463.942 75.1722C463.91 74.2394 465.759 73.7079 465.501 73.0165C465.501 73.0165 465.035 73.0328 464.327 72.8241L463.796 70.9749C463.796 70.9749 469.381 63.7759 469.115 62.8513C468.416 62.8757 467.483 62.9083 467.225 62.2169C468.142 61.718 468.342 60.7771 469.275 60.7445L469.975 60.7201C471.509 57.8649 473.654 52.4203 475.205 50.0315L474.923 48.6405L476.322 48.5917L476.297 47.8921C476.248 46.4931 477.889 46.6692 478.331 45.9534L477.759 42.9383C480.676 39.5679 482.395 35.3055 485.304 31.7019C485.038 30.7773 480.228 26.7429 478.829 26.7918L476.964 26.8569C475.307 26.2144 474.767 24.132 473.601 24.1727C472.902 24.1972 472.693 24.9048 472.742 26.304L472.766 27.0035C472.799 27.9362 472.566 27.9444 472.59 28.6439L472.606 29.1103C471.473 30.0837 468.298 32.7627 467.398 33.728L465.766 33.785C465.316 34.2677 465.34 34.9672 465.348 35.2004C465.389 36.3663 466.579 37.0251 467.119 39.1075C466.967 41.4475 464.467 43.4024 462.908 45.5581L463.456 47.8736C463.738 49.2646 460.183 47.7545 461.222 50.7532C462.011 53.2938 458.096 54.8313 458.66 57.6132C458.66 57.6132 459.134 57.8301 459.384 58.2883C458.95 59.2374 456.241 61.9001 456.241 61.9001C457.378 67.697 451.784 74.6629 451.858 76.7615L451.882 77.4611C451.906 78.1606 451.231 78.8846 451.73 79.801C451.98 80.2592 452.004 80.9588 452.479 81.1757L451.313 81.2164C448.981 81.2978 448.206 92.5313 447.94 91.6067C447.498 92.3225 447.04 92.572 446.357 93.0628L445.657 93.0872C445.923 94.0118 446.414 94.6951 446.905 95.3783C445.788 96.8181 445.644 99.3913 445.492 101.731C446.314 105.205 442.117 105.351 442.231 108.616L440.831 108.664C440.84 108.898 441.33 109.581 441.58 110.039C442.578 111.872 439.82 113.136 439.861 114.302C439.869 114.535 440.335 114.518 440.818 114.969L441.518 114.944C440.837 122.205 436.8 120.245 437.364 123.027L437.928 125.809C438.186 126.5 433.01 132.051 431.643 133.032L431.177 133.049C430.502 133.773 430.477 133.073 430.334 135.646C431.508 135.839 432.698 136.498 432.747 137.897L432.772 138.596C432.321 139.079 431.622 139.103 431.156 139.12C428.357 139.217 425.743 137.908 424.811 137.94C424.344 137.957 424.353 138.19 424.353 138.19C424.586 138.182 425.068 138.632 425.077 138.865C425.093 139.331 424.868 139.573 424.635 139.581C424.626 139.348 423.911 138.906 423.211 138.93C422.978 138.938 422.761 139.413 422.769 139.646L421.37 139.695C418.596 140.492 413.258 141.379 411.482 144.009L411.739 144.7C406.376 144.888 407.157 147.195 404.592 147.285C403.893 147.309 403.483 148.958 403.516 149.89C403.565 151.289 406.33 150.259 407.496 150.218C408.952 151.802 410.126 151.994 411.558 152.878C411.816 153.569 412.049 153.561 412.515 153.545C413.215 153.521 413.906 153.263 413.89 152.797C413.914 153.496 413.93 153.962 414.172 154.187L415.105 154.155C414.888 154.629 414.896 154.863 414.896 154.863C415.427 156.712 420.712 160.963 424.25 162.007L424.95 161.982C426.582 161.925 427.564 163.292 427.854 164.916C427.388 164.932 425.108 173.183 425.116 173.416L425.14 174.116C425.165 174.816 424.948 175.29 424.972 175.99L424.997 176.689C424.064 176.722 423.839 176.963 423.855 177.429C423.88 178.129 424.837 178.796 424.861 179.495C424.869 179.729 424.886 180.195 424.661 180.436L423.728 180.469C422.353 181.217 422.161 182.391 422.218 184.024C422.234 184.49 422.749 185.873 422.982 185.865L423.449 185.848L423.739 187.473C421.006 189.436 417.704 195.154 418.742 198.153C419 198.844 419.298 200.702 419.998 200.677C420.28 202.068 420.312 203.001 419.171 203.741C418.463 203.532 417.747 203.091 417.514 203.099C417.048 203.115 417.064 203.581 417.088 204.281C417.097 204.514 417.346 204.972 418.054 205.181C417.861 206.355 416.576 209.668 415.741 212.499L415.508 212.507C413.323 216.786 412.287 220.558 413.575 224.015C413.833 224.706 413.873 225.872 414.597 226.547C414.622 227.247 411.479 230.858 411.859 235.048C412.559 235.023 413.05 235.706 413.757 235.915C414.007 236.373 410.2 247.713 410.482 249.104C411.304 252.577 413.386 252.037 413.411 252.737C413.452 253.903 411.57 253.501 412.085 254.884C412.343 255.576 418.343 260.269 420.209 260.204L420.908 260.179C423.362 263.596 428.435 261.784 430.141 263.826C431.982 263.061 437.947 260.051 436.843 255.187L438.009 255.146C437.711 253.289 438.828 251.849 440.227 251.8L440.926 251.776C440.362 248.994 441.262 248.029 441.222 246.863L441.213 246.63C446.848 240.83 449.692 235.361 449.683 235.127C449.659 234.428 448.035 234.718 448.002 233.785C448.42 232.37 449.681 228.357 450.846 228.316L451.546 228.292L451.256 226.668C452.099 224.07 454.775 220.475 453.487 217.018C453.229 216.326 453.205 215.627 452.714 214.944C452.69 214.244 452.915 214.003 453.373 213.753C454.097 214.428 455.488 214.146 454.956 212.297C454.691 211.373 452.576 210.979 452.568 210.746C452.551 210.28 456.298 210.616 455.268 207.85L455.01 207.159C454.528 206.709 454.52 206.476 454.27 206.017C453.53 204.876 455.379 204.344 455.572 203.17L455.547 202.471C455.539 202.238 454.823 201.796 454.815 201.563C454.791 200.863 454.999 200.155 455.441 199.44L454.137 195.516C453.871 194.592 454.53 193.401 454.481 192.002C454.473 191.769 453.725 190.394 453.025 190.419L452.792 190.427C453.467 189.703 453.611 187.13 453.063 184.814C452.499 182.032 451.002 179.283 450.02 177.917L449.088 177.949L448.814 176.791C448.532 175.4 447.808 174.725 446.826 173.359L445.996 169.652C445.698 167.795 439.979 164.493 439.28 164.517L438.58 164.541C438.29 162.917 436.777 159.702 434.139 157.693C435.996 157.394 437.322 155.247 437.257 153.381C437.249 153.148 436.525 152.473 436.042 152.023L436.009 151.09C435.969 149.924 435.961 149.691 435.703 149L435.445 148.308L436.145 148.284C438.01 148.219 440.822 141.817 441.53 142.026C441.497 141.093 442.196 141.069 441.939 140.377C442.872 140.345 443.129 141.036 443.829 141.012C443.273 138.463 446.562 139.048 447.928 138.067C448.869 138.267 450.493 137.977 451.659 137.937C453.058 137.888 455.067 135.249 456.466 135.201C459.94 134.379 465.43 131.152 465.43 131.152C466.596 131.111 466.854 131.803 467.553 131.778C469.652 131.705 470.528 130.04 470.962 129.091ZM473.421 125.97C472.512 126.702 472.545 127.635 473.036 128.318C473.502 128.302 473.735 128.294 474.226 128.977C477.425 126.998 479.999 127.141 482.949 124.704L481.991 124.037C478.494 124.159 475.495 125.197 473.421 125.97ZM432.544 152.145C431.378 152.186 430.253 153.392 430.495 153.617C430.977 154.068 431.468 154.751 431.959 155.434C432.216 156.125 431.758 156.375 431.525 156.383L431.05 156.166C430.825 156.408 430.142 156.898 429.443 156.923C428.043 156.972 427.978 155.106 425.18 155.204C423.548 155.261 421.007 156.05 419.375 156.107C417.976 156.156 416.786 155.497 416.504 154.106C416.213 152.482 416.414 151.541 418.271 151.243L421.978 150.413C424.743 149.382 426.769 147.211 430.733 147.072C431.666 147.04 433.691 144.868 434.873 145.293C435.139 146.218 433.821 148.599 433.862 149.764L433.87 149.998C433.911 151.164 434.177 152.088 432.777 152.137L432.544 152.145ZM436.927 170.669C438.399 172.719 440.088 174.294 442.461 175.379C442.252 176.087 442.51 176.778 442.767 177.469C443.798 180.235 445.978 182.494 446.509 184.343C446.775 185.267 446.799 185.967 446.358 186.683C447.315 187.35 447.331 187.816 447.589 188.507C447.339 188.049 447.478 192.013 446.594 193.445C447.76 193.404 447.784 194.104 448.725 194.304L449.424 194.28C449.658 194.272 450.14 194.722 450.148 194.955C450.189 196.121 448.98 208.303 447.139 209.068C448.771 209.011 449.07 210.868 449.609 212.951C444.479 213.13 449.216 215.066 446.765 218.42L446.774 218.653C446.79 219.119 446.814 219.819 446.356 220.068L446.614 220.76C447.129 222.143 445.488 221.966 445.754 222.891L446.31 225.44L445.611 225.464L445.635 226.164C445.643 226.397 441.609 231.207 441.85 231.432C441.85 231.432 441.866 231.898 442.1 231.89C442.365 232.815 440.267 232.888 440.291 233.588C440.307 234.054 441.739 234.938 441.788 236.337L441.812 237.037L439.481 237.118C436.354 241.196 434.402 245.467 431.027 249.087L429.628 249.135C426.363 249.249 424.039 249.564 421.957 250.104L421.651 248.013C421.377 246.855 420.653 246.18 419.953 246.205L419.929 245.505C420.628 245.481 422.228 244.491 421.979 244.033L420.964 241.734C420.715 241.275 421.414 241.251 421.406 241.018L421.39 240.551C421.382 240.318 421.366 239.852 421.824 239.602C420.875 239.169 420.4 238.952 420.126 237.794C422.691 237.704 420.471 234.28 421.837 233.298L421.113 232.623C422.255 231.883 422.447 230.709 422.165 229.318L422.865 229.293C422.816 227.894 423.434 225.538 423.385 224.139C423.369 223.673 423.361 223.439 422.878 222.989L422.338 220.907C422.572 220.899 423.03 220.649 423.013 220.183L423.005 219.95C423.705 219.925 423.689 219.459 424.38 219.202C424.13 218.743 423.407 218.068 423.398 217.835C423.333 215.97 424.675 214.288 424.401 213.131C424.136 212.206 421.734 216.959 421.652 214.627C421.628 213.928 421.121 212.778 421.82 212.754L424.152 212.672C424.287 209.866 424.19 207.068 425.749 204.912L425.025 204.237C424.759 203.313 426.375 202.789 426.351 202.09C426.342 201.856 425.385 201.19 425.369 200.723C425.361 200.49 425.345 200.024 425.803 199.774L425.312 199.091C427.411 199.018 427.129 197.627 427.055 195.528C427.039 195.062 426.315 194.387 426.057 193.695C423.747 187.706 431.225 187.911 429.582 180.965L429.034 178.649L429.734 178.625C429.926 177.451 431.575 177.86 432.016 177.144L431.461 174.596C430.888 171.581 431.772 170.149 432.615 167.551C434.714 167.478 435.696 168.845 436.669 169.978L436.927 170.669ZM444.957 220.117C444.024 220.15 444 219.45 443.292 219.241C443.325 220.174 442.625 220.199 442.416 220.906C443.582 220.866 443.84 221.557 444.539 221.533C444.282 220.841 444.973 220.584 444.957 220.117ZM586.92 113.602C584.716 110.644 580.364 106.36 577.566 106.458L576.175 106.74C574.775 106.789 575.394 104.432 573.995 104.481L573.295 104.506L573.336 105.672L572.636 105.696C572.547 103.131 569.58 105.102 569.041 103.02C564.144 103.191 560.947 111.941 553.719 112.193L553.301 113.609C553.309 113.842 553.366 115.474 553.133 115.482L552.667 115.499C549.636 115.604 534.897 134.796 534.295 137.619L533.129 137.66C532.88 137.201 532.872 136.968 532.405 136.985C531.706 137.009 531.603 140.748 530.928 141.472L530.952 142.172C529.103 142.703 529.184 145.035 527.793 145.317C528.284 146 528.542 146.692 528.566 147.391C528.672 150.423 527.154 153.744 527.26 156.775C527.333 158.874 527.623 160.498 529.071 161.848L529.218 166.046C529.95 166.954 530.023 169.053 531.905 169.454L531.97 171.319C533.418 172.67 538.638 175.055 537.938 175.08C538.404 175.064 538.388 174.597 538.621 174.589C541.566 178.689 545.145 180.898 549.342 180.752C550.508 180.711 551.433 180.445 552.55 179.005L553.25 178.981C554.19 179.182 554.89 179.157 556.056 179.116C562.585 178.888 568.702 173.539 573.308 171.743L574.008 171.719C574.737 165.857 587.101 158.888 586.881 152.592L586.181 152.617C585.249 152.649 580.764 157.942 577.733 158.048C577.033 158.072 576.559 157.855 575.843 157.414C575.867 158.113 575.65 158.588 574.951 158.612L574.468 158.162C574.509 159.328 573.818 159.585 573.118 159.61C572.185 159.642 570.618 161.565 569.919 161.589L569.452 161.606L569.485 162.538C570.184 162.514 570.667 162.964 570.675 163.197C570.7 163.897 569.108 165.12 567.009 165.193C566.077 165.225 565.61 165.242 565.369 165.017C566.052 164.526 566.768 164.968 566.253 163.585L562.096 164.898C561.462 166.787 558.647 166.419 558.68 167.351C558.721 168.517 559.212 169.201 559.22 169.434C559.22 169.434 559.236 169.9 558.77 169.917C558.52 169.458 558.52 169.458 557.821 169.483L555.722 169.556C555.022 169.58 554.323 169.605 553.808 168.222C554.965 167.948 557.08 168.341 557.257 166.701L556.332 166.967C551.476 168.303 548.604 166.303 544.873 166.433C544.174 166.457 543.458 166.015 542.759 166.04C542.775 166.506 542.317 166.756 542.059 166.064C542.059 166.064 541.585 165.847 541.568 165.381C539.597 162.415 536.365 163.461 536.3 161.596C536.283 161.13 536.742 160.88 536.725 160.414C536.717 160.181 536.226 159.497 536.21 159.031C536.129 156.699 535.155 155.566 537.631 152.911L539.656 150.739C540.29 148.849 542.123 147.852 542.026 145.053L541.326 145.078L541.302 144.378C541.253 142.979 542.137 141.548 542.088 140.148C542.072 139.682 542.047 138.983 541.798 138.524C541.822 139.224 541.372 139.707 540.673 139.731C540.439 139.739 540.423 139.273 539.957 139.289L540.128 144.186C538.52 144.942 537.853 145.9 535.987 145.965L535.288 145.989L535.231 144.357C535.239 144.59 535.955 145.032 536.421 145.016C537.82 144.967 539.412 143.744 539.379 142.811C539.355 142.112 539.105 141.653 538.631 141.437C538.455 143.077 537.072 143.592 535.206 143.657C536.557 142.209 538.422 142.144 538.373 140.745C538.357 140.279 537.858 139.362 537.6 138.671C538.324 139.346 538.558 139.338 539.024 139.322C540.423 139.273 540.55 136.233 542.633 135.694L542.73 138.492C545.295 138.402 545.447 136.062 547.53 135.523C547.223 133.432 545.767 131.849 545.734 130.916C545.734 130.916 546.369 129.026 547.768 128.977C549.167 128.928 548.557 131.518 549.964 131.702C550.873 130.97 551.331 130.721 551.306 130.021C551.282 129.321 549.392 128.687 549.368 127.987C549.351 127.521 549.351 127.521 549.809 127.272C550.533 127.947 551.233 127.922 551.933 127.898C554.731 127.8 556.208 123.313 558 121.149C558.033 122.082 558.733 122.057 559.007 123.215L559.706 123.191C561.089 122.675 560.799 121.051 562.431 120.994L563.13 120.97L563.114 120.503C563.057 118.871 565.88 119.473 567.238 118.258L567.938 118.234C570.503 118.144 573.8 118.963 574.451 117.539L574.41 116.374L575.576 116.333C576.975 116.284 577.175 115.343 578.574 115.294L579.74 115.254L579.773 116.186C579.814 117.352 580.513 117.328 581.446 117.295L585.643 117.149C586.318 116.425 587.46 115.684 587.411 114.285C587.411 114.285 587.395 113.819 586.904 113.136L586.92 113.602ZM543.528 141.266C544.87 139.584 547.418 139.028 547.57 136.688C545.97 137.678 543.896 138.451 543.528 141.266ZM559.317 172.232C559.309 171.999 559.293 171.532 558.802 170.849C559.968 170.809 559.542 171.991 560.033 172.674C561.432 172.625 561.625 171.451 563.024 171.402C563.122 174.2 561.056 175.206 558.724 175.288C558.024 175.312 556.85 175.12 556.601 174.662C556.777 173.021 559.391 174.331 559.317 172.232ZM664.223 181.176L664.922 181.151C661.093 178.484 657.924 174.625 656.812 169.528C653.438 159.84 658.395 147.994 659.631 143.281C660.024 141.166 658.134 140.532 658.543 138.883L661.501 136.679C659.788 134.404 660.791 129.7 661.65 127.568C664.012 121.649 667.772 115.681 669.418 109.32C670.036 106.964 667.414 105.421 667.807 103.306C662.78 99.7465 658.406 101.534 653.718 100.997C653.485 101.005 653.493 101.238 653.268 101.479C654.266 103.312 653.783 102.862 655.215 103.746C654.678 108.434 645.105 115.072 641.954 118.451C641.054 119.416 641.851 122.19 640.71 122.93C639.359 124.378 636.803 124.701 635.694 126.374C634.794 127.339 635.333 129.421 634.441 130.62C633.75 130.877 633.058 131.135 632.375 131.626C630.391 134.964 627.931 138.085 625.955 141.656C621.221 146.49 611.52 156.168 609.4 162.312L608.001 162.361C608.304 157.681 609.917 150.387 612.376 147.266C610.912 145.449 612.585 146.558 610.687 145.691C611.837 145.184 610.912 145.449 612.786 145.617L615.323 138.058C616.457 137.084 615.315 137.825 614.342 136.691C615.025 136.201 615.258 136.192 616.882 135.902C616.576 133.812 617.075 134.728 616.334 133.587C616.334 133.587 615.77 130.805 616.752 132.171C617.226 132.388 617.46 132.38 617.701 132.605C618.061 129.558 617.248 126.317 619.965 123.888C618.5 122.071 618.983 122.521 617.543 121.404C619.319 118.774 622.342 118.435 622.678 114.688C622.421 113.997 622.895 114.213 621.721 114.021C621.464 113.33 621.447 112.863 621.431 112.397C623.088 113.039 622.621 113.056 623.82 113.948C624.213 111.833 624.213 111.833 625.58 110.851C624.622 110.184 624.622 110.184 622.982 110.008C623.367 107.66 623.183 109.067 625.523 109.219C624.766 107.611 624.79 108.311 623.817 107.177L624.516 107.153C624.934 105.737 624.75 107.145 626.173 107.795C625.601 104.78 625.65 106.179 624.145 103.197C627.119 101.459 628.019 100.493 630.527 98.7716C630.503 98.0721 630.487 97.6057 630.237 97.1475C629.787 97.6302 629.57 98.1047 629.128 98.8205L627.729 98.8693C628.233 93.2486 632.067 89.3792 632.829 84.4498C634.711 84.8511 634.011 84.8755 635.443 85.7593C635.41 84.8266 635.627 84.3521 635.828 83.4113C636.961 82.4378 635.353 83.1944 634.38 82.061C636.614 79.1814 644.91 56.012 643.671 53.9541C645.021 52.5062 647.578 52.1834 647.971 50.0685L646.875 45.4374C648.499 45.1472 649.874 44.3988 651.723 43.8673C655.083 39.7811 654.302 37.4737 654.028 36.3159C656.511 33.8946 656.921 32.246 659.396 29.5914C660.071 28.8674 659.732 25.8442 661.115 25.329C660.318 22.5552 660.575 23.2466 659.537 20.2479C659.295 20.0228 659.062 20.031 658.813 19.5727C657.172 19.3966 655.765 19.2122 654.117 18.8029C653.867 18.3447 653.601 17.4201 653.344 16.7287L648.398 15.5006C646.294 22.1111 643.282 29.4537 641.154 35.3647C639.787 36.3463 638.576 41.7583 637.909 42.7155C636.005 48.3851 635.862 50.9583 633.959 56.6279C632.825 57.6014 631.925 58.5667 631.033 59.7651C628.663 65.4511 629.583 71.7226 624.342 75.4076C625.822 77.6905 624.624 76.7985 626.497 76.9666C626.37 80.0061 625.83 77.9237 624.014 79.3879C625.446 80.2718 625.253 81.4459 624.819 82.3949C624.402 83.8103 624.353 82.4112 622.929 81.7605C622.593 85.5077 613.991 106.587 613.758 106.595C614.739 107.961 614.257 107.511 614.98 108.186L615.005 108.886L612.906 108.959L613.969 112.657L611.637 112.739C612.299 118.319 607.685 119.881 608.506 123.354L606.174 123.436C606.722 125.751 606.014 125.542 606.98 126.443C606.153 129.506 603.878 131.22 602.135 134.783C603.35 136.141 603.247 139.88 603.013 139.889L600.682 139.97C600.256 141.152 602.677 143.636 601.577 145.542C600.893 146.033 599.093 147.963 598.892 148.904L599.972 153.069L598.339 153.126C597.681 154.316 598.012 157.106 599.075 160.805L596.743 160.886C596.84 163.684 597.236 168.34 596.586 169.763C600.729 174.755 601.968 176.813 608.546 177.984C609.262 178.426 608.788 178.209 610.203 178.626C611.575 171.108 622.859 159.974 622.471 155.552C622.856 153.204 623.163 155.294 624.055 154.096C626.096 152.39 625.421 153.114 624.857 150.332C626.948 150.026 625.782 150.066 627.655 150.234C633.4 140.929 646.841 131.354 652.013 119.033L653.413 118.984L651.493 124.188L651.591 126.986L649.124 129.874L648.031 132.013L648.652 136.427L647.985 137.384L646.45 140.239L646.315 143.046L645.038 146.592L644.645 148.707L644.284 151.755L646.264 154.954L644.23 156.893L644.578 160.149L646.524 162.416L645.689 165.247L648.119 167.964L649.849 170.705L652.037 173.197L654.475 176.147L654.065 177.795L658.545 179.039L662.623 182.166L664.223 181.176ZM624.562 81.7035C623.813 80.3288 624.304 81.0121 623.572 80.1038C623.596 80.8033 623.604 81.0365 623.862 81.7279L624.562 81.7035ZM631.17 97.1149C630.197 95.9816 630.679 96.4317 629.955 95.7566C629.963 95.9897 630.221 96.6811 630.237 97.1475L631.17 97.1149ZM604.085 163.898C603.603 163.448 603.586 162.982 603.57 162.515L604.969 162.467C605.219 162.925 605.235 163.391 605.718 163.841L604.085 163.898ZM744.944 105.982L745.603 104.792C745.321 103.401 745.023 101.544 744.491 99.6947C744.434 98.0624 743.011 97.4118 741.378 97.4688L740.212 97.5095L740.188 96.8099C737.848 96.6582 737.365 96.2081 734.318 95.8476C734.849 97.6968 733.982 99.5948 733.998 100.061L732.062 104.798C731.845 105.273 732.087 105.498 731.628 105.747L730.519 107.42L729.82 107.445C728.654 107.485 728.147 106.336 727.182 105.435L726.916 104.511C726.409 103.361 725.251 103.635 724.985 102.711L723.12 102.776C722.428 103.033 722.919 103.717 722.453 103.733L720.62 104.731C720.387 104.739 720.878 105.422 720.653 105.663C720.162 104.98 718.98 104.555 718.513 104.571L718.28 104.579L715.265 105.151L715.523 105.843C715.33 107.017 714.671 108.207 713.988 108.698L710.515 109.519C707.25 109.633 701.071 119.888 701.722 118.465C698.498 119.745 687.544 133.668 687.626 136C684.828 136.098 684.893 137.963 683.551 139.644C684.25 139.62 684.725 139.837 684.749 140.536C682.474 142.25 683.697 143.842 683.505 145.016C679.582 146.32 677.236 152.705 677.375 156.67C677.391 157.136 677.407 157.602 677.89 158.052C676.491 158.101 676.065 159.283 676.098 160.216C676.171 162.315 678.126 164.815 680.957 165.65L680.981 166.349C680.523 166.599 680.29 166.607 680.531 166.832C681.28 168.206 685.068 169.708 684.368 169.733L685.068 169.708L685.133 171.574C686.99 171.276 685.767 169.684 687.15 169.169C687.849 169.144 687.898 170.543 688.598 170.519L690.463 170.454C690.472 170.687 690.954 171.137 691.654 171.113C697.483 170.909 694.121 168.225 696.195 167.452C696.22 168.152 696.702 168.602 696.935 168.594C697.402 168.577 697.394 168.344 697.369 167.645L697.345 166.945L698.503 166.671C699.427 166.405 702.087 162.344 702.111 163.043C702.087 162.344 701.854 162.352 701.363 161.669C702.504 160.928 705.81 161.98 705.037 159.906L704.787 159.448L706.162 158.699C706.146 158.233 706.821 157.509 706.796 156.809L706.772 156.11L707.472 156.085L709.432 152.048L710.148 152.49C710.381 152.482 710.381 152.482 710.373 152.249C710.381 152.482 710.622 152.707 710.622 152.707C711.322 152.683 712.414 150.543 713.089 149.819L713.556 149.803C714.93 149.054 715.622 148.797 715.597 148.097C715.565 147.165 716.015 146.682 715.532 146.232C716.69 145.958 718.073 145.443 718.249 143.802L720.426 139.29C721.592 139.25 721.952 136.202 723.11 135.928L722.021 144.838C722.52 145.754 722.086 146.703 722.135 148.103C721.999 150.909 722.146 155.106 722.162 155.572C722.203 156.738 722.468 157.663 722.951 158.113C722.26 158.371 721.818 159.086 722.075 159.778C722.84 161.619 723.54 161.594 723.564 162.294C723.572 162.527 722.68 163.726 722.721 164.892C722.77 166.291 724.394 166 724.958 168.782C724.492 168.799 725.232 169.94 725.473 170.165C727.404 171.966 727.661 172.657 729.342 173.999L730.766 174.65C731.232 174.633 731.482 175.092 731.49 175.325C731.498 175.558 731.265 175.566 731.273 175.799C731.289 176.266 731.523 176.258 731.989 176.241L732.455 176.225C733.171 176.667 733.421 177.125 734.578 176.851L735.736 176.577C736.436 176.553 736.677 176.778 736.644 175.845L734.231 173.595C733.258 172.461 732.976 171.071 731.785 170.412L731.037 169.037C730.787 168.579 730.088 168.603 730.055 167.671C730.73 166.947 730.714 166.48 730.432 165.089C730.158 163.931 730.101 162.299 729.779 159.742L729.89 156.236C729.366 154.621 730.733 153.639 729.759 152.506C729.751 152.272 730.917 152.232 730.893 151.532L730.86 150.599C731.093 150.591 731.76 149.634 731.736 148.935C731.711 148.235 731.229 147.785 730.995 147.793C730.995 147.793 730.779 148.268 730.312 148.284C729.613 148.308 729.596 147.842 729.596 147.842C729.588 147.609 730.038 147.126 730.022 146.66L730.014 146.427C730.697 145.936 730.906 145.228 730.857 143.829L731.307 143.346C731.283 142.647 730.35 142.679 730.342 142.446C730.334 142.213 731.5 142.172 731.467 141.24L731.459 141.006C732.625 140.966 732.359 140.041 733.042 139.55L734.425 139.035C734.409 138.569 733.951 138.818 733.251 138.843L732.551 138.867C733.219 137.91 733.62 136.028 734.287 135.071C734.262 134.371 734.262 134.371 733.563 134.396C733.538 133.696 733.272 132.772 733.964 132.514L734.663 132.49L734.647 132.023C734.623 131.324 735.764 130.584 735.756 130.35C735.74 129.884 734.59 130.391 734.549 129.225C734.484 127.36 737.074 127.97 737.499 126.787L737.467 125.855C737.312 121.424 741.027 120.828 740.872 116.397C740.172 116.422 739.674 115.505 739.649 114.806L739.625 114.106L740.324 114.082C740.332 114.315 740.565 114.307 740.565 114.307C741.032 114.29 741.49 114.041 741.715 113.8L741.417 111.942C743.515 111.869 742.293 110.277 743.684 109.995L743.176 108.846L742.477 108.87C742.011 108.887 741.311 108.911 741.287 108.211C742.452 108.171 742.428 107.471 742.637 106.763L744.944 105.982ZM723.178 124.486C722.494 124.977 721.795 125.001 721.819 125.701C722.286 125.684 722.527 125.91 722.527 125.91C722.551 126.609 718.975 131.17 718.766 131.878L718.791 132.577C718.807 133.043 718.582 133.285 718.116 133.301C718.116 133.301 717.883 133.309 717.408 133.092C717.416 133.325 717.199 133.8 717.199 133.8L715.665 136.655L714.965 136.68C713.799 136.72 714.114 139.044 713.181 139.077L712.49 139.334L712.78 140.958L711.381 141.007C711.679 142.864 712.403 143.54 712.419 144.006C712.428 144.239 712.428 144.239 712.194 144.247C711.728 144.264 711.72 144.03 711.253 144.047C711.253 144.047 711.02 144.055 711.028 144.288C711.045 144.754 711.061 145.221 711.31 145.679C710.611 145.703 710.345 144.779 710.329 144.312C710.28 142.913 711.59 140.299 711.565 139.6L711.332 139.608C709.933 139.657 710.497 142.439 707.723 143.236L707.748 143.936C707.764 144.402 707.772 144.635 707.306 144.651C707.338 145.584 706.479 147.715 705.546 147.748C705.08 147.764 704.838 147.539 704.597 147.314L703.271 149.462C703.296 150.161 693.738 157.265 692.621 158.705C691.054 160.628 690.322 159.719 688.714 160.476C687.741 159.343 687.483 158.651 687.442 157.485C687.393 156.086 688.052 154.896 689.169 153.456L689.853 152.965C689.828 152.266 690.52 152.008 690.495 151.309C689.562 151.341 689.522 150.175 689.481 149.009L690.181 148.985C689.923 148.293 690.606 147.803 691.531 147.537C690.807 146.862 689.424 147.377 688.925 146.461C686.954 143.494 687.195 143.719 686.872 141.163C688.055 141.588 688.296 141.813 688.32 142.513C688.337 142.979 690.468 143.839 690.476 144.072C690.484 144.305 690.733 144.763 691.417 144.272C691.883 144.256 692.076 143.082 692.076 143.082L695.123 143.443C695.283 141.336 695.161 137.838 699.093 136.767L699.559 136.751C701.191 136.694 699.011 134.435 701.11 134.362C704.436 129.343 708.479 124.766 711.895 122.312L711.863 121.379L712.562 121.355C714.195 121.298 713.904 119.674 714.346 118.958L714.813 118.941C716.445 118.884 716.155 117.26 718.253 117.187L718.72 117.171C720.585 117.106 719.338 114.815 721.437 114.741L722.136 114.717L725.062 111.58L727.111 110.107C728.527 110.525 729.034 111.674 729.05 112.141C729.303 119.369 721.779 124.535 723.178 124.486ZM721.163 133.662C720.697 133.678 720.447 133.22 720.423 132.52C720.399 131.821 720.616 131.346 721.307 131.088C721.773 131.072 722.007 131.064 722.023 131.53C722.047 132.23 721.372 132.954 721.397 133.653L721.163 133.662ZM709.64 151.34C709.874 151.332 709.89 151.799 710.139 152.257C709.89 151.799 709.407 151.349 709.64 151.34ZM767.855 167.051C773.731 161.476 777.025 155.524 781.927 148.816C793.162 136.284 806.063 124.627 813.473 116.197C816.149 112.601 817.581 113.485 816.366 112.127L817.065 112.102C817.708 110.446 817.307 112.327 818.489 112.753C818.89 110.871 818.706 112.278 818.174 110.429C821.591 107.975 825.547 107.604 828.963 105.15C830.329 104.168 830.555 103.927 831.864 101.313C833.079 102.671 833.754 101.947 835.57 100.483C835.53 99.3172 836.712 99.7428 836.671 98.5769C834.331 98.4252 834.09 98.2001 832.948 98.9404C829.475 99.7621 820.425 108.016 816.8 111.178C803.441 123.084 790.508 133.808 777.496 148.971C775.745 152.301 774.153 153.523 769.669 158.816C768.977 159.074 767.755 157.482 766.83 157.748C766.705 147.48 772.908 137.925 775.888 129.649C777.173 126.336 776.367 123.329 777.411 119.791C778.254 117.193 781.18 114.056 782.015 111.225C788.044 90.0025 798.629 58.8154 806.388 40.334C810.382 34.3579 814.069 26.2913 815.489 20.1716C814.901 16.6902 817.184 15.2096 815.261 13.6425C811.633 10.0337 809.269 9.18244 806.962 9.96341C806.029 9.99598 805.104 10.2617 804.405 10.2862C802.485 15.4895 800.631 22.5582 798.511 28.7024L795.61 32.5391C795.209 34.4209 797.323 34.8139 797.123 35.7548C796.033 44.6646 790.529 54.1954 788.258 62.6795C786.796 67.6333 784.299 76.3588 782.83 81.0794C780.919 86.5159 779.007 91.9523 777.321 97.1475C777.419 99.9457 775.537 99.5444 775.602 101.41L774.501 103.316C774.976 103.533 774.976 103.533 774.992 103.999C775.049 105.632 772.316 107.595 772.349 108.527L772.373 109.227C772.438 111.092 770.695 114.655 770.719 115.355L770.727 115.588C770.543 116.995 769.185 118.21 769.209 118.91L769.217 119.143C769.364 123.34 766.164 125.32 766.197 126.252L766.238 127.418C766.246 127.651 766.27 128.351 766.037 128.359C765.305 127.451 760.929 142.545 759.763 142.586C759.53 142.594 759.547 143.061 759.555 143.294L758.969 146.583C756.857 152.96 755.597 156.973 754.401 162.851C753.615 167.081 752.997 169.438 754.743 172.645C756.939 175.37 759.496 175.047 761.693 177.772C763.083 177.49 764.474 177.208 765.874 177.159C765.318 174.61 766.05 175.519 765.318 174.61C765.694 172.029 764.721 170.896 765.854 169.922C766.554 169.898 767.478 169.632 768.411 169.6L767.855 167.051ZM807.445 30.4915C809.581 24.8137 813.293 17.4467 813.694 15.565C815.56 15.4998 810.305 25.4889 808.836 30.2095L808.136 30.2339C807.903 30.2421 807.67 30.2502 807.445 30.4915ZM805.271 41.7738C804.571 41.7983 803.59 40.4318 803.557 39.499C803.533 38.7995 805.64 38.9594 805.583 37.3271L805.558 36.6276C805.526 35.6948 805.935 34.0463 806.794 31.9151C806.851 33.5473 808.115 36.3048 806.957 36.5787C805.816 37.319 805.97 41.7494 805.271 41.7738ZM786.384 62.5115L787.252 60.6135L788.528 57.0669L788.68 54.7269L793.034 45.7031L793.829 41.7065L795.138 39.0926L795.499 36.045L794.357 36.7852L792.446 42.2217L792.045 44.1034L791.193 46.4678L788.181 53.8105L786.647 56.6657L785.812 59.4964L784.969 62.094L785.042 64.1926L785.356 66.5163L786.384 62.5115ZM783.662 71.4782L784.722 68.4062L784.191 66.557L783.13 69.6291L782.537 72.6849L783.662 71.4782ZM780.441 79.5286L780.175 78.604L778.841 80.5183L779.864 83.0507L780.441 79.5286ZM774.65 94.2057L776.467 92.7415L778.009 90.1195L778.828 86.8223L779.888 83.7503L779.164 83.0752L778.972 84.2492L777.621 85.6972L777.535 89.9026L775.51 92.0745L774.184 94.222L774.498 96.5457L774.65 94.2057ZM772.828 102.207L773.503 101.483L774.097 98.4274L772.145 102.698L772.828 102.207ZM755.231 166.558L756.708 162.07L758.734 159.899L757.007 163.928L757.121 167.192L755.239 166.791L755.231 166.558ZM850.96 79.8676C850.838 76.3699 855.707 68.7289 855.674 67.7962C855.634 66.6303 853.92 64.3555 853.896 63.6559C853.871 62.9564 858.985 62.3109 858.879 59.2795L858.838 58.1136C861.924 52.8696 863.03 44.4262 864.646 43.9028C867.371 41.7065 865.076 36.1834 868.517 34.429C869.176 33.2386 870.317 32.4984 870.26 30.8661L870.195 29.0007C870.187 28.7675 870.171 28.3011 869.447 27.626C871.489 25.9204 874.325 20.2182 874.284 19.0523C874.276 18.8191 874.251 18.1196 873.994 17.4282L873.969 16.7286C873.904 14.8632 874.08 13.2228 874.031 11.8237C873.958 9.72503 875.341 9.20982 875.292 7.81074C875.235 6.17846 875.162 4.07983 872.781 2.76216L872.065 2.32023C869.194 0.319308 868.961 0.327451 867.57 0.609489C866.87 0.633917 866.404 0.650202 866.412 0.883397C865.712 0.907827 865.479 0.915968 865.495 1.38231L865.737 1.60737C865.037 1.63179 865.053 2.09816 865.053 2.09816C865.062 2.33134 862.73 2.41276 862.779 3.81184C862.787 4.04504 861.67 5.48485 861.686 5.95119C861.694 6.18439 860.593 8.09054 860.827 8.0824C861.293 8.06611 861.526 8.05797 861.968 7.34215C862.234 8.26674 862.258 8.96628 862.275 9.43265C862.397 12.9304 860.789 13.6869 860.813 14.3865C860.821 14.6196 860.846 15.3192 861.095 15.7774C859.463 15.8344 856.844 21.0621 855.825 25.3001C855.632 26.4741 855.914 27.8651 856.638 28.5402C857.964 26.3927 859.032 23.5538 859.875 20.9563L861.741 20.8911C861.974 20.883 863.14 20.8423 863.156 21.3086C863.181 22.0082 857.373 36.2189 856.256 37.6587C856.281 38.3583 856.056 38.5996 856.08 39.2991C856.096 39.7655 856.105 39.9987 856.362 40.6901C854.304 41.9293 851.525 49.2638 851.124 51.1455L851.157 52.0782C851.279 55.576 848.996 57.0565 849.11 60.321L849.142 61.2538C848.001 61.994 847.084 62.493 847.133 63.8921L847.399 64.8166C847.207 65.9907 843.961 73.3415 841.51 76.6956C840.16 78.1435 831.905 102.479 831.978 104.577L832.019 105.743C832.027 105.977 832.043 106.443 831.81 106.451C830.644 106.492 826.268 121.586 825.536 120.678C825.303 120.686 825.328 121.386 825.336 121.619L825.376 122.785C825.409 123.718 822.21 125.697 822.356 129.894L822.364 130.128C822.389 130.827 821.03 132.042 820.846 133.449L820.854 133.682C820.879 134.382 819.135 137.945 819.2 139.81L819.225 140.51C819.257 141.442 816.524 143.406 816.581 145.038C816.598 145.504 816.598 145.504 817.072 145.721L817.354 147.112C817.419 148.977 815.738 147.635 815.836 150.434L815.917 152.765C815.942 153.465 815.966 154.164 815.5 154.181C815.573 156.279 816.37 159.053 816.395 159.753C814.763 159.81 814.321 160.526 814.128 161.7L814.418 163.324C813.76 164.514 810.777 166.019 810.81 166.952L811.856 170.184C811.647 170.891 808.874 171.689 808.906 172.621C808.906 172.621 811.095 175.113 813.201 175.273C814.6 175.224 823.597 172.108 823.491 169.077L823.475 168.611C824.174 168.586 824.841 167.629 824.817 166.93L824.567 166.471C824.518 165.072 825.136 162.716 825.071 160.851C824.974 158.052 823.64 159.967 822.891 158.592C824.29 158.543 824.974 158.052 824.925 156.653L824.9 155.954C827.907 155.148 828.216 143.931 829.615 143.882C830.757 143.142 830.965 142.434 830.941 141.735L830.892 140.336C830.868 139.636 830.843 138.937 831.518 138.213C831.51 137.979 831.261 137.521 831.261 137.521L830.737 135.905C831.854 134.465 833.213 133.251 833.389 131.61C833.324 129.745 834.888 121.052 836.938 119.58C836.447 118.896 836.422 118.197 836.406 117.73C836.406 117.73 841.783 111.239 841.661 107.741L841.395 106.817C841.346 105.418 844.144 105.32 845.028 103.888C845.245 103.414 842.889 102.796 842.84 101.397C844.006 101.356 845.234 96.4102 845.234 96.4102C844.759 96.1933 844.743 95.7269 844.735 95.4937C845.201 95.4774 845.434 95.4693 845.418 95.0029L845.41 94.7698C849.211 89.9677 849.339 86.9282 850.96 79.8676ZM855.039 29.53C854.339 29.5544 853.848 28.8711 853.14 28.6624C853.173 29.5951 852.94 29.6032 852.498 30.3191C853.664 30.2783 853.921 30.9697 854.621 30.9453L854.613 30.7121C854.597 30.2458 855.063 30.2295 855.039 29.53ZM847.781 55.6981C848.383 52.8755 852.238 42.9353 852.116 39.4376L852.092 38.738C852.035 37.1058 854.141 37.2657 854.117 36.5661C854.084 35.6334 853.103 34.2668 852.403 34.2913C851.704 34.3157 851.858 38.7462 850.717 39.4864C849.101 40.0098 852.569 45.7253 849.538 45.8312L848.838 45.8556C847.369 50.5763 845.916 55.7633 847.781 55.6981ZM923.514 138.502C912.983 144.473 917.27 146.891 910.54 148.06C904.993 149.655 898.876 155.005 892.396 156.632C889.598 156.729 887.049 157.285 885.465 158.742L869.609 159.295C866.087 158.718 865.016 154.786 864.91 151.755C864.706 145.925 866.851 140.481 866.672 135.351C866.623 133.952 866.341 132.561 866.292 131.162C866.243 129.763 868.382 130.855 868.317 128.99C868.309 128.757 867.818 128.073 867.802 127.607C867.778 126.907 868.244 126.891 868.477 126.883C871.275 126.785 875.546 128.737 879.06 129.082C878.835 129.323 878.835 129.323 878.851 129.789C878.876 130.489 879.817 130.689 881.216 130.641C885.413 130.494 883.217 127.769 885.782 127.679C886.731 128.113 887.221 128.797 888.62 128.748L890.02 128.699C893.051 128.593 903.178 117.733 903.178 117.733C903.153 117.034 902.679 116.817 902.654 116.117L903.354 116.093C905.219 116.028 905.903 115.537 905.87 114.604C905.854 114.138 905.355 113.221 905.33 112.522C905.756 111.34 906.681 111.074 906.607 108.975C907.074 108.959 907.323 109.417 907.789 109.401C907.789 109.401 908.023 109.393 908.006 108.926C907.299 108.718 907.041 108.026 906.55 107.343C907.7 106.836 907.925 106.595 907.9 105.895C907.811 103.33 904.313 103.452 904.264 102.053C904.215 100.654 906.314 100.581 906.257 98.9485C906.127 95.2176 895.262 91.6281 893.63 91.6851C890.132 91.8072 886.675 93.0953 883.926 94.5921L883.95 95.2916C882.142 96.9891 879.851 98.2364 877.085 99.2668L876.385 99.2913C874.52 99.3564 871.779 101.086 870.936 103.684L870.551 106.032L869.152 106.081C868.452 106.105 867.56 107.304 867.568 107.537C867.568 107.537 867.584 108.003 867.818 107.995C867.191 110.118 860.456 117.824 860.448 117.591C860.481 118.524 861.904 119.175 861.929 119.874C861.745 121.281 860.579 121.322 860.386 122.496L859.977 124.145C859.06 124.644 858.635 125.826 857.718 126.325C857.878 124.218 859.895 121.813 859.847 120.414C859.83 119.947 859.589 119.722 858.873 119.28C857.122 122.61 855.755 123.592 855.853 126.39C855.877 127.089 855.902 127.789 856.401 128.705C856.474 130.804 853.234 131.618 853.405 136.514C853.478 138.613 853.993 139.996 854.693 139.971C854.926 139.963 855.376 139.481 856.043 138.524C855.577 138.54 855.344 138.548 855.319 137.848C855.295 137.149 856.927 137.092 856.854 134.993C856.805 133.594 856.539 132.67 856.056 132.219C856.523 132.203 856.772 132.661 856.772 132.661C859.337 132.572 858.033 128.648 860.132 128.575C860.598 128.559 860.622 129.258 860.639 129.725C860.712 131.823 858.67 133.529 858.719 134.928C858.744 135.628 858.76 136.094 859.468 136.303L859.492 137.002L858.326 137.043C858.448 140.541 857.122 142.688 854.815 143.469C855.032 142.995 855.49 142.745 855.466 142.046C855.449 141.579 854.975 141.362 854.026 140.929C853.608 142.344 852.001 143.101 852.074 145.199C855.105 145.093 853.562 147.715 857.76 147.569L858.692 147.536L858.541 149.876L857.375 149.917C857.158 150.391 857.166 150.625 857.199 151.557C857.427 158.086 867.448 164.273 867.456 164.507C868.156 164.482 868.389 164.474 868.365 163.775C869.845 166.057 876.263 169.335 881.16 169.164C882.326 169.124 883.251 168.858 883.926 168.134L886.491 168.044C889.506 167.472 889.866 164.424 893.364 164.302L894.996 164.245C895.422 163.063 897.648 159.95 898.806 159.676L899.738 159.644C904.635 159.473 901.433 154.682 905.164 154.552C905.863 154.527 905.896 155.46 907.062 155.419C908.694 155.362 910.486 153.198 910.437 151.799L910.405 150.867C912.43 148.695 917.896 144.768 919.295 144.719L919.995 144.695C922.045 143.223 924.078 141.284 925.404 139.136C925.396 138.903 924.913 138.453 924.214 138.478L923.514 138.502ZM874.06 112.914C874.276 112.439 874.035 112.214 873.569 112.23C873.336 112.238 873.102 112.247 872.877 112.488C874.436 110.332 876.261 109.101 878.078 107.637C879.452 106.889 880.111 105.698 881.743 105.641L883.143 105.592C883.56 104.177 885.209 104.586 885.884 103.862C885.835 102.463 884.211 102.753 884.162 101.354C884.129 100.422 885.504 99.6732 886.203 99.6488C886.437 99.6407 886.911 99.8576 886.927 100.324L889.259 100.242C889.943 99.7517 891.1 99.4778 892.033 99.4452C894.132 99.3719 895.588 100.955 897.036 102.306L896.45 105.595C895.382 108.433 895.61 114.963 878.035 119.779C876.419 120.302 870.806 120.031 871.248 119.315L874.06 112.914ZM875.676 112.39C875.676 112.39 876.142 112.374 876.833 112.116C877.46 109.993 879.092 109.936 879.734 108.279C879.718 107.813 879.485 107.821 879.019 107.838C877.619 107.886 875.385 110.766 875.434 112.165C875.442 112.398 875.442 112.398 875.676 112.39ZM991.144 116.296C991.095 114.897 990.314 112.589 990.314 112.589L988.302 108.457L986.67 108.514C985.97 108.539 985.271 108.563 984.78 107.88C985.472 107.622 985.472 107.622 985.463 107.389C985.431 106.456 979.102 105.743 978.403 105.768C977.711 106.025 976.57 106.766 976.128 107.481L976.619 108.165C975.22 108.214 975.244 108.913 974.311 108.946L972.446 109.011C971.047 109.06 969.198 109.591 969.247 110.99L968.78 111.007C968.588 112.181 965.049 111.137 965.106 112.769L965.131 113.469C964.239 114.667 956.956 120.058 957.062 123.089L956.829 123.097C955.896 123.13 955.912 123.596 955.945 124.529L955.986 125.695C956.01 126.394 955.793 126.869 955.094 126.893L952.995 126.967C951.596 127.015 951.146 127.498 951.178 128.431C951.195 128.897 951.195 128.897 951.452 129.589C949.354 129.662 949.443 132.227 948.51 132.259L947.811 132.284L944.243 137.078C943.383 139.209 937.389 148.057 934.832 148.379L941.114 134.385C941.024 131.82 946.168 125.337 946.037 121.606C946.021 121.14 945.555 121.156 945.555 121.156C945.997 120.44 947.805 118.743 947.821 119.209L947.805 118.743C949.622 117.279 951.05 111.392 951.435 109.044C951.644 108.336 951.853 107.629 951.812 106.463C951.337 106.246 951.297 105.08 951.28 104.614C951.166 101.349 952.018 98.9848 946.79 96.3657C946.009 94.0584 941.055 92.5971 934.993 92.8088C935.001 93.042 934.776 93.2833 934.784 93.5165L935.95 93.4758C939.214 93.3618 939.385 98.2586 939.556 103.155C939.09 103.172 938.401 110.2 937.485 110.699C937.276 111.406 937.301 112.106 937.325 112.805C937.341 113.272 937.599 113.963 938.781 114.389C937.463 116.77 934.468 124.579 934.468 124.579L934.492 125.278C934.525 126.211 934.066 126.46 934.107 127.626C933.489 129.982 932.372 131.422 932.453 133.754L932.478 134.454C931.103 135.202 930.211 136.4 929.561 137.824L929.601 138.99C929.658 140.622 928.267 140.904 927.608 142.095L927.625 142.561C927.804 147.691 921.896 152.333 922.197 160.961L922.205 161.194C921.747 161.443 921.522 161.685 921.538 162.151C921.587 163.55 923.751 165.342 924.933 165.768L924.966 166.701C928.23 166.587 927.433 163.813 929.258 162.582L931.823 162.492C932.289 162.476 930.665 162.766 930.681 163.233L930.714 164.165C930.73 164.632 930.98 165.09 931.205 164.849C933.374 160.104 938.276 153.395 941.61 148.61L942.543 148.577C942.961 147.162 943.394 146.213 944.785 145.931L946.184 145.882L945.886 144.024L946.819 143.992C948.828 141.354 952.035 139.607 953.096 136.535L954.004 135.803C957.862 132.633 962.539 126.166 966.357 121.831C966.774 120.415 974.74 114.534 975.89 114.027L976.589 114.002C976.565 113.303 976.565 113.303 977.264 113.278L977.902 118.159C975.619 119.64 977.72 126.337 975.269 129.691L975.4 133.422C975.481 135.753 972.965 137.242 973.038 139.341C973.087 140.74 973.602 142.123 974.326 142.798C972.976 144.246 974.918 153.05 974.926 153.283C975.281 156.772 980.561 167.561 981.743 167.987L982.442 167.962C981.629 164.722 981.515 161.458 981.466 160.058L981.442 159.359C981.425 158.893 981.409 158.426 982.109 158.402C982.1 158.169 984.25 146.187 984.717 146.17C984.942 145.929 986.758 144.465 986.742 143.998C986.742 143.998 985.31 143.115 985.286 142.415C985.278 142.182 985.269 141.949 985.72 141.466L985.687 140.533C987.552 140.468 988.114 136.48 988.724 133.89L988.658 132.025C988.634 131.325 991.052 127.038 990.955 124.24C990.938 123.774 990.914 123.074 990.656 122.383L990.833 120.742C990.808 120.043 990.559 119.585 990.019 117.502L990.719 117.478C990.719 117.478 991.16 116.762 991.144 116.296ZM1072.28 180C1070.91 180.749 1069.48 180.098 1067.85 180.155C1067.15 180.179 1066.43 179.737 1065.74 179.762L1065.71 179.062C1065.65 177.43 1064.25 177.479 1064.21 176.08C1064.44 176.072 1067.07 171.077 1067.04 170.378C1067.03 169.911 1066.79 169.919 1066.08 169.711L1065.38 169.735C1066.28 168.537 1067.64 167.555 1067.59 166.156C1067.58 165.69 1067.32 164.998 1066.61 164.789C1067.55 164.757 1068.23 164.266 1068.92 164.008C1068.85 161.91 1068.1 160.535 1068.05 159.136C1068.03 158.436 1068.47 157.721 1069.38 156.989L1069.31 155.123C1069.24 153.024 1068.69 150.709 1068.6 148.144C1068.32 140.216 1066.37 131.179 1064.57 126.339C1061.73 118.5 1059.43 112.744 1058.56 107.872C1058.48 105.773 1059.64 105.499 1059.62 105.033C1059.6 104.333 1058.41 103.674 1058.38 102.975C1058.38 102.742 1058.83 102.259 1059.76 102.226C1059.78 102.693 1060.25 102.91 1060.25 102.91C1061.65 102.861 1063.58 97.8907 1064.23 96.4671C1063.76 96.4834 1063.53 96.4916 1063.5 95.792L1063.48 95.0925C1065.53 93.6201 1068.86 88.6011 1068.81 87.202L1068.8 86.9689L1068.1 86.9933C1067.4 87.0177 1067.17 87.259 1066.47 87.2835C1066.01 87.2998 1065.78 87.5411 1065.34 88.2569L1063.77 90.1794C1062.88 91.3779 1062.17 90.9359 1060.11 92.1751L1059.41 92.1995C1059.34 90.3341 1057.64 88.2925 1053.44 88.439C1052.74 88.4635 1048.7 86.5033 1048.74 87.6692L1048.77 88.3687C1048.08 88.6263 1047.38 88.6507 1047.42 89.8167L1047.43 90.0498L1044.63 90.1475C1042.3 90.229 1043.79 92.9783 1043.11 93.4691C1042.64 93.4854 1041.93 93.0434 1041.7 93.0516C1037.73 93.19 1033.12 101.522 1029 104.001L1029.03 104.7L1028.33 104.725C1027.65 105.449 1027.44 105.923 1027.46 106.623C1027.49 107.322 1027.74 108.014 1027.75 108.247C1027.77 108.713 1027.77 108.713 1027.53 108.721C1027.07 108.738 1026.37 108.762 1025.41 108.095C1024.09 110.243 1023.64 110.958 1023.48 113.065L1023.53 114.464L1022.13 114.513C1020.76 115.262 1017.02 121.929 1017.01 121.696L1013.98 121.802C1012.27 126.297 1007.39 133.472 1006 133.987L1006.03 134.687C1004.68 136.135 1003.29 136.417 1003.38 138.982L1003.4 139.681L1002.7 139.706C1001.58 141.146 1000.05 144.001 1000.12 146.099C1000.13 146.332 1000.16 147.032 1000.4 147.49L1001.1 147.466L1001.19 149.798C1001.21 150.497 1001.23 151.197 1000.54 151.221L999.836 151.246C998.461 151.994 999.974 155.21 998.583 155.492C998.325 154.8 998.526 153.859 997.593 153.892C997.642 155.291 998.366 155.966 998.374 156.199C998.399 156.899 997.715 157.39 997.748 158.322C997.96 164.385 1007.93 169.173 1007.95 169.64C1007.96 169.873 1008.91 170.307 1009.61 170.282C1011 170.233 1011.69 169.742 1011.66 169.043L1012.36 169.019C1012.38 169.485 1012.85 169.702 1012.85 169.702L1013.09 169.694C1013.58 170.377 1013.83 170.835 1014.53 170.811C1015.93 170.762 1017.74 169.298 1017.7 168.132L1019.33 168.075C1021.15 166.61 1023.79 162.082 1023.7 159.284L1023.65 157.885C1023.61 156.719 1024.28 155.995 1025.68 155.946L1025.66 155.247C1028.43 154.449 1029.03 151.627 1030.59 149.471C1029.89 149.496 1029.65 149.271 1029.63 148.804C1029.61 148.105 1030.26 146.681 1030.49 146.44L1030.44 145.041L1031.14 145.016C1032.29 144.509 1032.49 143.568 1032.93 142.853L1035.12 138.807C1037.09 135.003 1044.23 125.415 1045.09 123.517C1046.89 121.353 1050.11 113.536 1051.75 113.479C1052.45 113.455 1052.54 116.253 1053.08 118.335L1053.78 118.311C1053.79 118.544 1053.34 119.027 1053.35 119.26C1053.39 120.426 1054.56 120.618 1054.61 122.017C1054.64 122.717 1054.17 122.733 1054.22 124.132C1054.38 128.796 1056.51 129.655 1056.59 131.754L1056.68 134.319C1056.78 137.117 1057.52 138.492 1057.55 139.191C1057.56 139.424 1057.57 139.891 1057.37 140.832L1057.95 157.388C1057.26 157.645 1057.28 158.345 1057.32 159.511C1057.4 161.609 1058.19 164.383 1058.22 165.083C1058.25 166.015 1057.57 166.506 1057.6 167.439L1057.62 168.138C1056.92 167.93 1056.45 167.946 1056.45 167.946C1056.22 167.954 1057.67 169.304 1057.71 170.703L1057.74 171.403C1057.04 171.427 1056.37 172.384 1056.39 172.851C1056.42 173.784 1057.35 173.751 1057.84 174.434C1056.7 175.174 1055.79 175.907 1055.86 177.772L1055.16 177.796C1054.77 179.911 1054.14 182.034 1051.34 182.132C1049.94 182.181 1048.52 181.53 1047.82 181.555C1047.82 181.555 1047.59 181.563 1047.6 181.796L1048.34 182.938L1045.54 183.035C1044.82 182.593 1044.35 182.376 1043.65 182.401C1042.72 182.433 1041.57 183.174 1040.9 183.898L1040.2 183.922C1034.43 185.758 1029.71 184.289 1024.66 186.8C1023.49 186.84 1023.52 187.54 1022.58 187.572C1021.88 187.597 1021.18 187.388 1020.48 187.412C1018.61 187.478 1017.94 188.435 1017.04 189.167L1014.94 189.24C1012.46 191.895 1006.58 190.699 1006.69 193.731L1004.59 193.804C1002.72 193.869 1001.35 194.617 1000.68 195.341L999.043 195.398C997.684 196.613 994.17 196.269 993.794 198.85L992.395 198.899C989.396 199.938 984.13 202.923 984.171 204.089L982.772 204.138C982.563 204.846 982.105 205.095 981.872 205.103C981.405 205.119 981.172 205.128 980.698 204.911C979.323 205.659 977.281 207.365 977.065 207.839L977.04 207.14C973.8 207.953 973.93 211.684 972.531 211.733C971.832 211.757 971.59 211.532 970.384 210.407C969.5 211.839 969.05 212.321 969.074 213.021C969.082 213.254 969.107 213.954 969.597 214.637C975.378 213.034 980.635 209.816 984.318 208.286C984.342 208.986 984.792 208.503 985.025 208.495C987.726 205.599 1007.58 199.069 1008.23 197.646C1010.52 196.398 1017.23 194.763 1016.53 194.788L1018.16 194.731C1018.86 194.706 1020.05 195.132 1020.75 195.107C1021.44 195.083 1021.66 194.609 1021.64 193.909L1021.61 193.209L1022.31 193.185C1023.68 192.203 1026.89 190.69 1026.43 190.707C1027.83 190.658 1028.3 190.875 1028.53 190.867C1029 190.85 1029.23 190.842 1030.63 190.56C1031.33 190.769 1032.03 190.744 1032.73 190.72C1036.93 190.573 1043.13 187.555 1048.49 187.368C1049.89 187.319 1050.84 187.753 1052.25 187.937C1052.34 190.736 1050.96 191.251 1050.99 191.95L1050.99 192.183C1050.78 192.658 1051.04 193.583 1050.34 193.607L1049.64 193.631L1049.67 194.331C1049.73 196.196 1048.33 196.245 1048.15 197.652C1049.08 197.62 1049.56 197.837 1049.56 197.837C1049.58 198.536 1048.21 199.285 1048.23 199.984L1049.16 199.952C1050.33 199.911 1050.55 199.67 1050.54 199.203C1050.51 198.504 1050.26 197.812 1050.25 197.579C1050.22 196.88 1050.92 196.855 1051.16 196.847C1051.86 196.823 1051.89 197.755 1052.37 198.205C1051.25 199.645 1051.79 201.728 1049.7 201.801L1047.6 201.874C1047.16 202.823 1046.95 203.531 1046.27 204.022L1046.22 202.623L1044.36 202.688L1044.41 204.32C1044.49 206.419 1042.49 209.29 1041.83 210.48C1041.88 212.113 1041.7 213.52 1041.27 214.702L1043.88 209.241C1047.33 207.487 1049.31 204.149 1052.03 201.719L1052.73 201.695C1053.18 201.212 1053.17 200.979 1053.15 200.513C1053.14 200.28 1052.66 199.83 1052.64 199.13C1052.61 198.43 1053.78 198.39 1053.75 197.69C1053.71 196.291 1052.51 195.632 1052.49 194.933C1052.48 194.7 1052.48 194.7 1053.17 194.209C1055.1 196.009 1055.06 194.843 1056.54 197.359C1057.35 193.829 1061.92 190.868 1061.81 187.603L1061.75 185.971C1061.73 185.505 1061.68 183.873 1062.61 183.84L1062.63 184.54C1062.66 185.239 1063.13 185.456 1063.37 185.448C1064.07 185.423 1064.73 184.466 1065.9 184.426L1066.6 184.401C1068.23 184.344 1068.65 182.929 1070.28 182.872L1074.94 182.709C1074.85 180.144 1072.82 182.083 1072.28 180ZM1056.62 99.3009C1056.16 99.3171 1056.16 99.5503 1055.95 100.025C1054.84 101.698 1049.87 99.7702 1049.97 102.568C1049.26 102.36 1048.54 101.918 1048.51 100.985C1048.49 100.519 1048.48 100.285 1049.18 100.261C1050.57 99.7457 1050.96 97.6308 1053.06 97.5575C1053.29 97.5494 1054.01 97.9913 1054.47 97.975C1056.11 97.918 1056.74 96.0282 1057.91 95.9875C1058.14 95.9793 1058.62 96.4294 1058.86 96.6544C1056.53 96.7359 1057.53 98.5687 1056.85 99.2927L1056.62 99.3009ZM1048.49 107.056C1048.32 108.929 1046.75 110.852 1045.03 115.114C1043.96 117.72 1042.86 119.859 1042.24 121.982L1042.26 122.682C1042.05 123.156 1041.59 123.406 1041.35 123.414C1040.89 123.43 1040.26 125.553 1039.55 125.111C1036.82 127.308 1036.62 128.249 1033.74 132.785L1033.81 134.65L1032.41 134.699C1027.48 140.475 1019.3 153.834 1014.66 154.697L1013.03 154.754C1012.32 154.312 1011.84 154.095 1011.61 154.103C1010.21 154.152 1011.1 152.953 1010.98 149.456L1010.92 147.823C1010.91 147.59 1010.7 148.065 1010.7 148.065C1010.23 148.081 1010.22 147.848 1010.2 147.148C1010.16 145.982 1011.57 146.4 1011.53 145.234L1011.52 145.001C1013.98 141.647 1020.89 132.3 1020.78 129.269L1020.76 128.802L1021.46 128.778C1022.83 127.796 1024.67 127.032 1024.58 124.467L1024.56 123.767C1025.26 123.743 1025.96 123.718 1025.93 123.019L1025.91 122.319C1026.83 122.053 1042.13 105.41 1041.66 105.427L1042.13 105.41C1044.21 104.871 1042.97 102.813 1045.77 102.715C1047.17 102.666 1046.54 104.789 1047.96 105.207L1048.66 105.182L1048.49 107.056ZM1081.87 180.366C1080.7 180.407 1079.77 180.439 1079.31 180.689C1078.63 181.179 1078.39 181.188 1078.42 181.887C1079.12 181.863 1079.37 182.554 1080.07 182.53L1081.47 182.481C1081.46 182.014 1081.46 182.014 1081.92 181.998C1082.16 181.99 1082.87 182.432 1083.34 182.416C1084.04 182.391 1084.25 181.917 1084.67 180.501C1083.5 180.309 1082.56 180.341 1081.87 180.366ZM966.938 218.699C966.913 217.999 967.597 217.508 967.572 216.809C966.864 216.6 964.725 215.508 964.026 215.532C964.042 215.998 965.474 216.882 965.539 218.748L966.938 218.699ZM959.349 221.999C959.533 220.592 960.208 219.868 961.374 219.827C961.607 219.819 962.307 219.794 963.023 220.236C962.982 219.07 963.424 218.355 963.649 218.113C961.976 217.004 962.016 218.17 959.877 217.078C959.918 218.244 958.576 219.925 958.617 221.091C958.641 221.79 958.882 222.015 959.349 221.999ZM1039.95 216.85C1040.4 216.367 1041.07 215.643 1041.27 214.702L1039.95 216.85ZM1037.71 219.729L1039.95 216.85C1038.6 218.298 1036.97 218.588 1037.01 219.754L1037.71 219.729ZM953.506 228.506C953.248 227.815 953.24 227.582 953.216 226.882C953.126 224.317 956.873 224.653 957.95 222.048L957.25 222.072C956.084 222.113 955.119 221.213 954.419 221.237C953.953 221.253 953.728 221.495 953.286 222.211C953.752 222.194 954.002 222.653 954.002 222.653C954.01 222.886 953.31 222.91 952.611 222.935L951.911 222.959C951.252 224.149 951.044 224.857 951.068 225.557C951.092 226.256 951.35 226.948 951.375 227.647L951.407 228.58L953.506 228.506ZM949.165 231.226C949.14 230.527 949.824 230.036 949.799 229.336C949.791 229.103 949.325 229.119 949.075 228.661C949.092 229.128 948.416 229.852 948.441 230.551C948.449 230.784 948.682 230.776 949.165 231.226ZM1026.42 230.63C1026.24 232.037 1025.8 232.753 1024.86 232.785C1024.4 232.801 1023.7 232.826 1023.44 232.135L1023.49 233.534L1023.01 233.084C1013.64 245.784 1003.2 247.55 1003.3 250.348C1001.21 250.654 1001.05 252.761 998.248 252.859L997.548 252.883C996.922 255.006 994.116 254.871 993.723 256.986L991.391 257.067C989.525 257.132 986.616 260.736 984.124 262.924L983.192 262.957C983.167 262.257 982.701 262.273 982.701 262.273C981.069 262.33 979.751 264.711 979.301 265.194C979.775 265.411 980.732 266.078 981.223 266.761C979.358 266.826 977.276 267.366 977.235 266.2C977.227 265.967 977.677 265.484 977.902 265.243C976.269 265.3 976.56 266.924 973.786 267.721L973.086 267.745C972.411 268.469 971.544 270.367 970.378 270.408C970.145 270.416 969.662 269.966 969.421 269.741C967.612 271.439 966.929 271.929 965.996 271.962L961.799 272.109C961.107 272.366 960.424 272.857 959.725 272.881C959.258 272.898 958.542 272.456 958.309 272.464C956.91 272.513 955.761 273.02 955.118 274.676C954.877 274.451 954.394 274.001 954.161 274.01C952.762 274.058 947.889 274.929 947.954 276.794C946.789 276.835 946.073 276.393 945.349 275.718C944.69 276.908 944.698 277.142 943.299 277.19C941.152 275.865 938.345 275.729 934.107 274.71C934.205 277.508 934.761 280.057 937.567 280.192L938.267 280.168C938.516 280.626 938.983 280.61 938.991 280.843C939.015 281.542 937.657 282.757 937.681 283.457C940.504 284.059 940.569 285.924 944.3 285.794L944.999 285.769C945.74 286.911 947.613 287.079 949.712 287.005C952.044 286.924 953.86 285.46 955.259 285.411L955.493 285.403C957.567 284.63 960.148 285.007 960.05 282.209L960.75 282.184C961.506 283.792 962.922 284.21 964.562 284.386C964.538 283.686 965.904 282.705 965.888 282.238C965.888 282.238 965.647 282.013 965.18 282.029L964.481 282.054C964.44 280.888 965.132 280.63 966.531 280.582L967.697 280.541C967.255 281.257 966.563 281.514 966.604 282.68L967.303 282.656C968.703 282.607 970.519 281.143 970.503 280.676C970.47 279.744 969.746 279.068 969.73 278.602C969.722 278.369 969.706 277.903 970.405 277.878C970.679 279.036 972.086 279.22 973.485 279.171C975.584 279.098 978.125 278.309 978.092 277.376C978.076 276.91 977.585 276.227 976.178 276.042L976.877 276.018C978.976 275.945 979.475 276.861 980.898 277.512C982.126 272.566 986.123 273.36 992.289 269.41C994.805 267.921 1000.03 263.769 999.956 261.671L1000.66 261.646C1006.95 254.656 1017.17 246.595 1016.94 246.603C1019.25 245.822 1019.59 242.308 1021.15 240.152L1022.55 240.103C1022.94 237.988 1027.9 232.913 1031.09 230.467L1031.78 230.442C1032 229.968 1031.99 229.735 1031.98 229.268C1031.97 229.035 1031.71 228.344 1031.69 227.644C1031.67 227.178 1031.66 226.945 1032.35 226.454L1031.65 226.478C1029.81 227.243 1030.62 230.483 1028.52 230.556L1026.42 230.63ZM942.647 238.458C942.606 237.292 943.306 237.267 943.281 236.568C942.582 236.592 942.324 235.901 941.858 235.917C941.882 236.617 941.199 237.108 941.207 237.341C941.907 237.316 941.931 238.016 942.647 238.458ZM928.391 258.1C927.9 257.417 927.643 256.725 927.634 256.492C927.561 254.393 931.758 254.247 932.368 251.657L931.918 252.14C931.685 252.148 930.969 251.706 930.495 251.489L930.961 251.473L930.945 251.007C930.839 247.975 937.167 248.688 937.07 245.89L937.062 245.657C935.92 246.397 935.221 246.422 934.987 246.43L933.122 246.495C932.189 246.527 928.024 247.607 928.171 251.804C928.404 251.796 928.404 251.796 928.421 252.262C928.421 252.262 927.729 252.52 927.03 252.544L926.33 252.569C925.671 253.759 925.462 254.467 925.487 255.166C925.511 255.866 925.769 256.557 925.793 257.257L925.826 258.189L928.391 258.1ZM931.58 269.195C931.556 268.495 931.081 268.278 931.065 267.812C931.04 267.112 931.715 266.389 931.691 265.689C931.658 264.756 930.918 263.615 929.519 263.664C929.286 263.672 928.603 264.163 927.928 264.887L927.903 264.187C927.854 262.788 925.764 263.094 925.249 261.712C925.682 260.763 927.09 260.947 927.041 259.548L927.008 258.615C924.468 259.404 921.518 261.842 921.591 263.94C921.778 269.304 928.966 267.885 930.205 269.943L930.246 271.109C930.279 272.042 930.536 272.733 931.236 272.709C932.402 272.668 933.977 270.979 933.928 269.58L933.912 269.113L931.58 269.195ZM979.051 264.736C979.068 265.202 979.301 265.194 979.301 265.194L979.051 264.736ZM1152.27 130.514C1141.73 136.485 1146.02 138.903 1139.29 140.072C1133.74 141.667 1127.63 147.017 1121.15 148.644C1118.35 148.741 1115.8 149.297 1114.22 150.753L1098.36 151.307C1094.84 150.73 1093.77 146.798 1093.66 143.767C1093.46 137.937 1095.6 132.493 1095.42 127.363C1095.37 125.964 1095.09 124.573 1095.04 123.173C1094.99 121.774 1097.13 122.867 1097.07 121.002C1097.06 120.768 1096.57 120.085 1096.55 119.619C1096.53 118.919 1097 118.903 1097.23 118.895C1100.03 118.797 1104.3 120.749 1107.81 121.093C1107.59 121.335 1107.59 121.335 1107.6 121.801C1107.63 122.501 1108.57 122.701 1109.97 122.652C1114.16 122.506 1111.97 119.781 1114.53 119.691C1115.48 120.125 1115.97 120.808 1117.37 120.759L1118.77 120.711C1121.8 120.605 1131.93 109.745 1131.93 109.745C1131.9 109.046 1131.43 108.829 1131.41 108.129L1132.11 108.105C1133.97 108.04 1134.65 107.549 1134.62 106.616C1134.61 106.15 1134.11 105.233 1134.08 104.534C1134.51 103.352 1135.43 103.086 1135.36 100.987C1135.83 100.971 1136.07 101.429 1136.54 101.413C1136.54 101.413 1136.77 101.405 1136.76 100.938C1136.05 100.73 1135.79 100.038 1135.3 99.3549C1136.45 98.8478 1136.68 98.6065 1136.65 97.9069C1136.56 95.3419 1133.06 95.4641 1133.02 94.065C1132.97 92.6659 1135.07 92.5926 1135.01 90.9603C1134.88 87.2294 1124.01 83.6399 1122.38 83.6969C1118.88 83.8191 1115.43 85.1071 1112.68 86.6039L1112.7 87.3035C1110.89 89.0009 1108.6 90.2482 1105.84 91.2787L1105.14 91.3031C1103.27 91.3682 1100.53 93.0982 1099.69 95.6958L1099.3 98.0439L1097.9 98.0927C1097.2 98.1172 1096.31 99.3156 1096.32 99.5488C1096.32 99.5488 1096.34 100.015 1096.57 100.007C1095.94 102.13 1089.21 109.836 1089.2 109.603C1089.23 110.536 1090.66 111.186 1090.68 111.886C1090.5 113.293 1089.33 113.334 1089.14 114.508L1088.73 116.157C1087.81 116.655 1087.39 117.838 1086.47 118.337C1086.63 116.23 1088.65 113.825 1088.6 112.426C1088.58 111.959 1088.34 111.734 1087.62 111.292C1085.87 114.622 1084.51 115.604 1084.6 118.402C1084.63 119.101 1084.65 119.801 1085.15 120.717C1085.23 122.816 1081.99 123.629 1082.16 128.526C1082.23 130.625 1082.74 132.008 1083.44 131.983C1083.68 131.975 1084.13 131.493 1084.79 130.535C1084.33 130.552 1084.09 130.56 1084.07 129.86C1084.05 129.161 1085.68 129.104 1085.61 127.005C1085.56 125.606 1085.29 124.681 1084.81 124.231C1085.27 124.215 1085.52 124.673 1085.52 124.673C1088.09 124.584 1086.78 120.66 1088.88 120.587C1089.35 120.571 1089.37 121.27 1089.39 121.737C1089.46 123.835 1087.42 125.541 1087.47 126.94C1087.5 127.639 1087.51 128.106 1088.22 128.315L1088.24 129.014L1087.08 129.055C1087.2 132.553 1085.87 134.7 1083.57 135.481C1083.78 135.007 1084.24 134.757 1084.22 134.058C1084.2 133.591 1083.73 133.374 1082.78 132.94C1082.36 134.356 1080.75 135.112 1080.83 137.211C1083.86 137.105 1082.31 139.727 1086.51 139.581L1087.44 139.548L1087.29 141.888L1086.13 141.929C1085.91 142.403 1085.92 142.636 1085.95 143.569C1086.18 150.098 1096.2 156.285 1096.21 156.518C1096.91 156.494 1097.14 156.486 1097.12 155.786C1098.6 158.069 1105.01 161.347 1109.91 161.176C1111.08 161.135 1112 160.87 1112.68 160.146L1115.24 160.056C1118.26 159.484 1118.62 156.436 1122.12 156.314L1123.75 156.257C1124.17 155.075 1126.4 151.962 1127.56 151.688L1128.49 151.656C1133.39 151.485 1130.18 146.694 1133.92 146.563C1134.61 146.539 1134.65 147.472 1135.81 147.431C1137.45 147.374 1139.24 145.21 1139.19 143.811L1139.16 142.878C1141.18 140.707 1146.65 136.78 1148.05 136.731L1148.75 136.707C1150.8 135.235 1152.83 133.296 1154.16 131.148C1154.15 130.915 1153.66 130.465 1152.97 130.489L1152.27 130.514ZM1102.81 104.925C1103.03 104.451 1102.79 104.226 1102.32 104.242C1102.09 104.25 1101.85 104.258 1101.63 104.5C1103.19 102.344 1105.01 101.113 1106.83 99.6488C1108.2 98.9004 1108.86 97.71 1110.49 97.653L1111.89 97.6042C1112.31 96.1888 1113.96 96.5982 1114.64 95.8742C1114.59 94.4751 1112.96 94.7653 1112.91 93.3662C1112.88 92.4335 1114.26 91.6851 1114.95 91.6606C1115.19 91.6525 1115.66 91.8694 1115.68 92.3357L1118.01 92.2543C1118.69 91.7635 1119.85 91.4896 1120.78 91.4571C1122.88 91.3838 1124.34 92.9672 1125.79 94.3174L1125.2 97.6064C1124.13 100.445 1124.36 106.974 1106.79 111.791C1105.17 112.314 1099.56 112.043 1100 111.327L1102.81 104.925ZM1104.43 104.402C1104.43 104.402 1104.89 104.386 1105.58 104.128C1106.21 102.005 1107.84 101.948 1108.49 100.291C1108.47 99.8249 1108.24 99.8331 1107.77 99.8494C1106.37 99.8982 1104.14 102.778 1104.19 104.177C1104.19 104.41 1104.19 104.41 1104.43 104.402ZM1169.44 160.965C1170.85 161.15 1172.24 160.867 1173.64 160.819C1174.79 160.545 1176.19 160.496 1177.35 160.222C1179.21 159.924 1181 157.76 1182.91 159.094C1183.55 157.204 1184.3 158.579 1184.99 158.321C1186.15 158.047 1187.06 157.548 1188.21 157.041C1189.36 156.534 1190.51 156.027 1191.65 155.287C1193.94 154.039 1195.99 152.334 1197.55 150.411C1196.17 137.619 1180.94 129.279 1170.76 125.199C1170.24 123.816 1170.72 124.266 1170 123.591C1169.92 121.259 1170.54 118.903 1171.4 116.772C1172.05 115.348 1172.93 113.917 1173.82 112.485C1174.26 111.769 1176.07 110.072 1177.87 108.141L1179.13 104.128L1181.02 104.996C1182.14 103.556 1183.27 102.582 1183.72 102.1C1184.85 100.893 1182.74 100.5 1183.86 99.2934C1185.27 99.4778 1186.47 100.603 1187.83 99.3882C1189.21 98.6398 1190.29 96.2673 1191.43 95.527C1193.04 94.7704 1192.89 97.1104 1194.04 96.6033C1200.04 94.7593 1204.49 95.071 1209.24 97.4731C1209.65 95.8246 1209.43 96.0659 1210.1 95.1087C1209.5 91.3941 1197.51 82.474 1193.53 81.9129C1192.34 81.2541 1190.71 81.5442 1188.87 82.3089C1187.72 82.816 1186.12 83.8057 1184.76 85.0205C1179.07 89.1881 1173.24 95.929 1169.79 97.4502L1169.89 100.248L1166.62 100.362C1167.11 101.046 1167.59 101.496 1168.32 102.171C1164.52 106.973 1156.58 113.787 1162.2 120.828C1162.52 123.385 1163.78 125.909 1165.96 128.168C1166.69 129.076 1167.89 129.968 1168.85 130.868L1171.48 132.644C1175.88 131.557 1176.72 135.497 1178.63 136.597C1180.52 137.465 1178.49 132.633 1182.42 138.333C1184.32 139.2 1186.45 140.06 1188.11 140.702C1188.18 142.801 1188.23 144.2 1187.34 145.398C1184.24 150.176 1176.54 150.445 1171.62 149.916C1168.36 150.03 1163.48 150.667 1161.56 149.333C1154.75 148.171 1159.95 143.32 1160.87 143.054C1162.03 142.78 1161.12 143.512 1161.03 140.947C1159.43 141.704 1158.96 141.72 1157.83 142.693C1155.69 141.601 1156.78 145.999 1155.99 143.458C1153.91 144.231 1155.79 144.399 1153.7 144.939C1149.91 149.974 1149.64 155.586 1151.36 158.094C1153.96 158.938 1156.56 159.781 1159.14 160.158C1160.79 160.567 1162.19 160.751 1163.83 160.927C1163.08 159.32 1164.94 159.254 1169.44 160.965ZM1228.78 108.698C1229.23 108.215 1229.68 107.732 1229.9 107.258C1229.89 107.025 1229.45 107.741 1228.78 108.698ZM1190.14 125.456C1200.51 121.358 1215.74 116.39 1224.22 111.659C1218.88 112.546 1217.28 113.768 1213.6 115.298C1210.31 114.712 1195.79 120.122 1190.14 125.456ZM1189.6 123.14C1189.82 122.899 1188.68 123.639 1187.98 123.664C1187.75 123.672 1188.47 124.347 1188.7 124.105L1189.6 123.14ZM1181.86 129.013C1183.46 128.024 1185.76 127.009 1188.53 125.979C1186.85 124.87 1184.3 125.193 1182.48 126.657C1182.3 128.064 1182.28 127.598 1181.84 128.314L1181.86 129.013ZM1183.99 129.873C1184.05 131.505 1186.52 128.617 1188.09 126.928C1186.96 127.902 1185.36 128.891 1183.53 129.889L1183.99 129.873ZM1161.74 141.156C1162.72 142.522 1165.46 140.792 1166.58 139.353C1166.11 139.136 1165.42 139.393 1164.26 139.667C1163.58 140.158 1162.66 140.657 1161.74 141.156ZM1169.26 149.065C1168.75 147.915 1165.95 148.013 1165.46 147.33C1165.48 147.796 1167.14 148.672 1167.16 149.138L1169.26 149.065Z" fill="url(#paint0_linear_5028_159)"/>
<defs>
<linearGradient id="paint0_linear_5028_159" x1="-1177.73" y1="-294.118" x2="-1172.46" y2="481.082" gradientUnits="userSpaceOnUse">
<stop offset="1" stop-color="#C6DDFF"/>
<stop offset="0.358685" stop-color="#D2EED9"/>
<stop stop-color="#D8E5E7"/>
</linearGradient>
</defs>
</svg>
